<?xml version="1.0" encoding="utf-8" standalone="no"?>
<!DOCTYPE svg PUBLIC "-//W3C//DTD SVG 1.1//EN"
  "http://www.w3.org/Graphics/SVG/1.1/DTD/svg11.dtd">
<svg xmlns:xlink="http://www.w3.org/1999/xlink" width="475.178437pt" height="230.746719pt" viewBox="0 0 475.178437 230.746719" xmlns="http://www.w3.org/2000/svg" version="1.1">
 <metadata>
  <rdf:RDF xmlns:dc="http://purl.org/dc/elements/1.1/" xmlns:cc="http://creativecommons.org/ns#" xmlns:rdf="http://www.w3.org/1999/02/22-rdf-syntax-ns#">
   <cc:Work>
    <dc:type rdf:resource="http://purl.org/dc/dcmitype/StillImage"/>
    <dc:date>2026-04-24T15:22:22.255778</dc:date>
    <dc:format>image/svg+xml</dc:format>
    <dc:creator>
     <cc:Agent>
      <dc:title>Matplotlib v3.10.8, https://matplotlib.org/</dc:title>
     </cc:Agent>
    </dc:creator>
   </cc:Work>
  </rdf:RDF>
 </metadata>
 <defs>
  <style type="text/css">*{stroke-linejoin: round; stroke-linecap: butt}</style>
 </defs>
 <g id="figure_1">
  <g id="patch_1">
   <path d="M 0 230.746719 
L 475.178437 230.746719 
L 475.178437 0 
L 0 0 
z
" style="fill: #ffffff"/>
  </g>
  <g id="axes_1">
   <g id="patch_2">
    <path d="M 47.325313 197.758281 
L 471.578438 197.758281 
L 471.578438 17.958281 
L 47.325313 17.958281 
z
" style="fill: #ffffff"/>
   </g>
   <g id="matplotlib.axis_1">
    <g id="xtick_1">
     <g id="line2d_1">
      <path d="M 66.609545 197.758281 
L 66.609545 17.958281 
" clip-path="url(#p69ef40dfda)" style="fill: none; stroke-dasharray: 2.96,1.28; stroke-dashoffset: 0; stroke: #b0b0b0; stroke-opacity: 0.25; stroke-width: 0.8"/>
     </g>
     <g id="line2d_2">
      <defs>
       <path id="md3094bd338" d="M 0 0 
L 0 3.5 
" style="stroke: #000000; stroke-width: 0.8"/>
      </defs>
      <g>
       <use xlink:href="#md3094bd338" x="66.609545" y="197.758281" style="stroke: #000000; stroke-width: 0.8"/>
      </g>
     </g>
     <g id="text_1">
      <!-- 0 -->
      <g transform="translate(63.74642 211.596875) scale(0.09 -0.09)">
       <defs>
        <path id="DejaVuSerif-30" d="M 2034 219 
Q 2513 219 2750 744 
Q 2988 1269 2988 2328 
Q 2988 3391 2750 3916 
Q 2513 4441 2034 4441 
Q 1556 4441 1318 3916 
Q 1081 3391 1081 2328 
Q 1081 1269 1318 744 
Q 1556 219 2034 219 
z
M 2034 -91 
Q 1275 -91 848 546 
Q 422 1184 422 2328 
Q 422 3475 848 4112 
Q 1275 4750 2034 4750 
Q 2797 4750 3222 4112 
Q 3647 3475 3647 2328 
Q 3647 1184 3222 546 
Q 2797 -91 2034 -91 
z
" transform="scale(0.015625)"/>
       </defs>
       <use xlink:href="#DejaVuSerif-30"/>
      </g>
     </g>
    </g>
    <g id="xtick_2">
     <g id="line2d_3">
      <path d="M 143.90106 197.758281 
L 143.90106 17.958281 
" clip-path="url(#p69ef40dfda)" style="fill: none; stroke-dasharray: 2.96,1.28; stroke-dashoffset: 0; stroke: #b0b0b0; stroke-opacity: 0.25; stroke-width: 0.8"/>
     </g>
     <g id="line2d_4">
      <g>
       <use xlink:href="#md3094bd338" x="143.90106" y="197.758281" style="stroke: #000000; stroke-width: 0.8"/>
      </g>
     </g>
     <g id="text_2">
      <!-- 100 -->
      <g transform="translate(135.311685 211.596875) scale(0.09 -0.09)">
       <defs>
        <path id="DejaVuSerif-31" d="M 909 0 
L 909 331 
L 1722 331 
L 1722 4213 
L 781 3603 
L 781 4013 
L 1919 4750 
L 2350 4750 
L 2350 331 
L 3163 331 
L 3163 0 
L 909 0 
z
" transform="scale(0.015625)"/>
       </defs>
       <use xlink:href="#DejaVuSerif-31"/>
       <use xlink:href="#DejaVuSerif-30" transform="translate(63.623047 0)"/>
       <use xlink:href="#DejaVuSerif-30" transform="translate(127.246094 0)"/>
      </g>
     </g>
    </g>
    <g id="xtick_3">
     <g id="line2d_5">
      <path d="M 221.192575 197.758281 
L 221.192575 17.958281 
" clip-path="url(#p69ef40dfda)" style="fill: none; stroke-dasharray: 2.96,1.28; stroke-dashoffset: 0; stroke: #b0b0b0; stroke-opacity: 0.25; stroke-width: 0.8"/>
     </g>
     <g id="line2d_6">
      <g>
       <use xlink:href="#md3094bd338" x="221.192575" y="197.758281" style="stroke: #000000; stroke-width: 0.8"/>
      </g>
     </g>
     <g id="text_3">
      <!-- 200 -->
      <g transform="translate(212.6032 211.596875) scale(0.09 -0.09)">
       <defs>
        <path id="DejaVuSerif-32" d="M 819 3553 
L 469 3553 
L 469 4384 
Q 803 4563 1142 4656 
Q 1481 4750 1806 4750 
Q 2534 4750 2956 4397 
Q 3378 4044 3378 3438 
Q 3378 2753 2422 1800 
Q 2347 1728 2309 1691 
L 1131 513 
L 3078 513 
L 3078 1088 
L 3444 1088 
L 3444 0 
L 434 0 
L 434 341 
L 1850 1753 
Q 2319 2222 2519 2614 
Q 2719 3006 2719 3438 
Q 2719 3909 2473 4175 
Q 2228 4441 1797 4441 
Q 1350 4441 1106 4219 
Q 863 3997 819 3553 
z
" transform="scale(0.015625)"/>
       </defs>
       <use xlink:href="#DejaVuSerif-32"/>
       <use xlink:href="#DejaVuSerif-30" transform="translate(63.623047 0)"/>
       <use xlink:href="#DejaVuSerif-30" transform="translate(127.246094 0)"/>
      </g>
     </g>
    </g>
    <g id="xtick_4">
     <g id="line2d_7">
      <path d="M 298.48409 197.758281 
L 298.48409 17.958281 
" clip-path="url(#p69ef40dfda)" style="fill: none; stroke-dasharray: 2.96,1.28; stroke-dashoffset: 0; stroke: #b0b0b0; stroke-opacity: 0.25; stroke-width: 0.8"/>
     </g>
     <g id="line2d_8">
      <g>
       <use xlink:href="#md3094bd338" x="298.48409" y="197.758281" style="stroke: #000000; stroke-width: 0.8"/>
      </g>
     </g>
     <g id="text_4">
      <!-- 300 -->
      <g transform="translate(289.894715 211.596875) scale(0.09 -0.09)">
       <defs>
        <path id="DejaVuSerif-33" d="M 622 4469 
Q 988 4606 1323 4678 
Q 1659 4750 1953 4750 
Q 2638 4750 3022 4454 
Q 3406 4159 3406 3634 
Q 3406 3213 3140 2930 
Q 2875 2647 2388 2547 
Q 2963 2466 3280 2130 
Q 3597 1794 3597 1259 
Q 3597 606 3158 257 
Q 2719 -91 1894 -91 
Q 1528 -91 1179 -12 
Q 831 66 488 225 
L 488 1131 
L 838 1131 
Q 869 681 1141 450 
Q 1413 219 1906 219 
Q 2384 219 2661 495 
Q 2938 772 2938 1253 
Q 2938 1803 2653 2086 
Q 2369 2369 1819 2369 
L 1522 2369 
L 1522 2688 
L 1678 2688 
Q 2225 2688 2498 2914 
Q 2772 3141 2772 3597 
Q 2772 4006 2547 4223 
Q 2322 4441 1900 4441 
Q 1478 4441 1245 4241 
Q 1013 4041 972 3647 
L 622 3647 
L 622 4469 
z
" transform="scale(0.015625)"/>
       </defs>
       <use xlink:href="#DejaVuSerif-33"/>
       <use xlink:href="#DejaVuSerif-30" transform="translate(63.623047 0)"/>
       <use xlink:href="#DejaVuSerif-30" transform="translate(127.246094 0)"/>
      </g>
     </g>
    </g>
    <g id="xtick_5">
     <g id="line2d_9">
      <path d="M 375.775605 197.758281 
L 375.775605 17.958281 
" clip-path="url(#p69ef40dfda)" style="fill: none; stroke-dasharray: 2.96,1.28; stroke-dashoffset: 0; stroke: #b0b0b0; stroke-opacity: 0.25; stroke-width: 0.8"/>
     </g>
     <g id="line2d_10">
      <g>
       <use xlink:href="#md3094bd338" x="375.775605" y="197.758281" style="stroke: #000000; stroke-width: 0.8"/>
      </g>
     </g>
     <g id="text_5">
      <!-- 400 -->
      <g transform="translate(367.18623 211.596875) scale(0.09 -0.09)">
       <defs>
        <path id="DejaVuSerif-34" d="M 2234 1581 
L 2234 4063 
L 641 1581 
L 2234 1581 
z
M 3609 0 
L 1484 0 
L 1484 331 
L 2234 331 
L 2234 1247 
L 197 1247 
L 197 1588 
L 2241 4750 
L 2859 4750 
L 2859 1581 
L 3750 1581 
L 3750 1247 
L 2859 1247 
L 2859 331 
L 3609 331 
L 3609 0 
z
" transform="scale(0.015625)"/>
       </defs>
       <use xlink:href="#DejaVuSerif-34"/>
       <use xlink:href="#DejaVuSerif-30" transform="translate(63.623047 0)"/>
       <use xlink:href="#DejaVuSerif-30" transform="translate(127.246094 0)"/>
      </g>
     </g>
    </g>
    <g id="xtick_6">
     <g id="line2d_11">
      <path d="M 453.06712 197.758281 
L 453.06712 17.958281 
" clip-path="url(#p69ef40dfda)" style="fill: none; stroke-dasharray: 2.96,1.28; stroke-dashoffset: 0; stroke: #b0b0b0; stroke-opacity: 0.25; stroke-width: 0.8"/>
     </g>
     <g id="line2d_12">
      <g>
       <use xlink:href="#md3094bd338" x="453.06712" y="197.758281" style="stroke: #000000; stroke-width: 0.8"/>
      </g>
     </g>
     <g id="text_6">
      <!-- 500 -->
      <g transform="translate(444.477745 211.596875) scale(0.09 -0.09)">
       <defs>
        <path id="DejaVuSerif-35" d="M 3219 4666 
L 3219 4153 
L 1081 4153 
L 1081 2816 
Q 1244 2928 1461 2984 
Q 1678 3041 1947 3041 
Q 2703 3041 3140 2622 
Q 3578 2203 3578 1478 
Q 3578 738 3136 323 
Q 2694 -91 1894 -91 
Q 1572 -91 1234 -12 
Q 897 66 544 225 
L 544 1131 
L 897 1131 
Q 925 688 1179 453 
Q 1434 219 1894 219 
Q 2388 219 2653 544 
Q 2919 869 2919 1478 
Q 2919 2084 2655 2407 
Q 2391 2731 1894 2731 
Q 1613 2731 1398 2631 
Q 1184 2531 1019 2322 
L 750 2322 
L 750 4666 
L 3219 4666 
z
" transform="scale(0.015625)"/>
       </defs>
       <use xlink:href="#DejaVuSerif-35"/>
       <use xlink:href="#DejaVuSerif-30" transform="translate(63.623047 0)"/>
       <use xlink:href="#DejaVuSerif-30" transform="translate(127.246094 0)"/>
      </g>
     </g>
    </g>
    <g id="text_7">
     <!-- generation -->
     <g transform="translate(231.901875 224.924844) scale(0.1 -0.1)">
      <defs>
       <path id="DejaVuSerif-67" d="M 3359 2988 
L 3359 72 
Q 3359 -644 2965 -1033 
Q 2572 -1422 1844 -1422 
Q 1516 -1422 1216 -1362 
Q 916 -1303 641 -1184 
L 641 -488 
L 941 -488 
Q 997 -813 1206 -963 
Q 1416 -1113 1806 -1113 
Q 2313 -1113 2548 -827 
Q 2784 -541 2784 72 
L 2784 519 
Q 2616 206 2355 57 
Q 2094 -91 1709 -91 
Q 1097 -91 708 395 
Q 319 881 319 1663 
Q 319 2444 706 2928 
Q 1094 3413 1709 3413 
Q 2094 3413 2355 3264 
Q 2616 3116 2784 2803 
L 2784 3322 
L 3909 3322 
L 3909 2988 
L 3359 2988 
z
M 2784 1825 
Q 2784 2422 2554 2737 
Q 2325 3053 1888 3053 
Q 1444 3053 1217 2703 
Q 991 2353 991 1663 
Q 991 975 1217 622 
Q 1444 269 1888 269 
Q 2325 269 2554 583 
Q 2784 897 2784 1497 
L 2784 1825 
z
" transform="scale(0.015625)"/>
       <path id="DejaVuSerif-65" d="M 3469 1600 
L 991 1600 
L 991 1575 
Q 991 903 1244 561 
Q 1497 219 1991 219 
Q 2369 219 2611 417 
Q 2853 616 2950 1006 
L 3413 1006 
Q 3275 459 2904 184 
Q 2534 -91 1931 -91 
Q 1203 -91 761 389 
Q 319 869 319 1663 
Q 319 2450 753 2931 
Q 1188 3413 1894 3413 
Q 2647 3413 3050 2948 
Q 3453 2484 3469 1600 
z
M 2791 1931 
Q 2772 2513 2545 2808 
Q 2319 3103 1894 3103 
Q 1497 3103 1269 2806 
Q 1041 2509 991 1931 
L 2791 1931 
z
" transform="scale(0.015625)"/>
       <path id="DejaVuSerif-6e" d="M 263 0 
L 263 331 
L 781 331 
L 781 2988 
L 231 2988 
L 231 3322 
L 1356 3322 
L 1356 2731 
Q 1516 3069 1770 3241 
Q 2025 3413 2363 3413 
Q 2913 3413 3172 3097 
Q 3431 2781 3431 2113 
L 3431 331 
L 3944 331 
L 3944 0 
L 2356 0 
L 2356 331 
L 2853 331 
L 2853 1931 
Q 2853 2541 2703 2767 
Q 2553 2994 2175 2994 
Q 1775 2994 1565 2701 
Q 1356 2409 1356 1850 
L 1356 331 
L 1856 331 
L 1856 0 
L 263 0 
z
" transform="scale(0.015625)"/>
       <path id="DejaVuSerif-72" d="M 3059 3328 
L 3059 2497 
L 2728 2497 
Q 2713 2744 2591 2866 
Q 2469 2988 2234 2988 
Q 1809 2988 1582 2694 
Q 1356 2400 1356 1850 
L 1356 331 
L 2022 331 
L 2022 0 
L 263 0 
L 263 331 
L 781 331 
L 781 2994 
L 231 2994 
L 231 3322 
L 1356 3322 
L 1356 2731 
Q 1525 3078 1790 3245 
Q 2056 3413 2438 3413 
Q 2578 3413 2733 3391 
Q 2888 3369 3059 3328 
z
" transform="scale(0.015625)"/>
       <path id="DejaVuSerif-61" d="M 2547 1044 
L 2547 1747 
L 1806 1747 
Q 1378 1747 1168 1562 
Q 959 1378 959 997 
Q 959 650 1171 447 
Q 1384 244 1747 244 
Q 2106 244 2326 466 
Q 2547 688 2547 1044 
z
M 3122 2075 
L 3122 331 
L 3634 331 
L 3634 0 
L 2547 0 
L 2547 359 
Q 2356 128 2106 18 
Q 1856 -91 1522 -91 
Q 969 -91 644 203 
Q 319 497 319 997 
Q 319 1513 691 1797 
Q 1063 2081 1741 2081 
L 2547 2081 
L 2547 2309 
Q 2547 2688 2317 2895 
Q 2088 3103 1672 3103 
Q 1328 3103 1125 2947 
Q 922 2791 872 2484 
L 575 2484 
L 575 3156 
Q 875 3284 1158 3348 
Q 1441 3413 1709 3413 
Q 2400 3413 2761 3070 
Q 3122 2728 3122 2075 
z
" transform="scale(0.015625)"/>
       <path id="DejaVuSerif-74" d="M 691 2988 
L 184 2988 
L 184 3322 
L 691 3322 
L 691 4353 
L 1269 4353 
L 1269 3322 
L 2350 3322 
L 2350 2988 
L 1269 2988 
L 1269 878 
Q 1269 456 1350 337 
Q 1431 219 1650 219 
Q 1875 219 1978 351 
Q 2081 484 2088 781 
L 2522 781 
Q 2497 328 2275 118 
Q 2053 -91 1600 -91 
Q 1103 -91 897 129 
Q 691 350 691 878 
L 691 2988 
z
" transform="scale(0.015625)"/>
       <path id="DejaVuSerif-69" d="M 622 4353 
Q 622 4497 726 4603 
Q 831 4709 978 4709 
Q 1122 4709 1226 4603 
Q 1331 4497 1331 4353 
Q 1331 4206 1228 4103 
Q 1125 4000 978 4000 
Q 831 4000 726 4103 
Q 622 4206 622 4353 
z
M 1356 331 
L 1900 331 
L 1900 0 
L 231 0 
L 231 331 
L 781 331 
L 781 2988 
L 231 2988 
L 231 3322 
L 1356 3322 
L 1356 331 
z
" transform="scale(0.015625)"/>
       <path id="DejaVuSerif-6f" d="M 1925 219 
Q 2388 219 2623 584 
Q 2859 950 2859 1663 
Q 2859 2375 2623 2739 
Q 2388 3103 1925 3103 
Q 1463 3103 1227 2739 
Q 991 2375 991 1663 
Q 991 950 1228 584 
Q 1466 219 1925 219 
z
M 1925 -91 
Q 1200 -91 759 389 
Q 319 869 319 1663 
Q 319 2456 758 2934 
Q 1197 3413 1925 3413 
Q 2653 3413 3092 2934 
Q 3531 2456 3531 1663 
Q 3531 869 3092 389 
Q 2653 -91 1925 -91 
z
" transform="scale(0.015625)"/>
      </defs>
      <use xlink:href="#DejaVuSerif-67"/>
      <use xlink:href="#DejaVuSerif-65" transform="translate(64.013672 0)"/>
      <use xlink:href="#DejaVuSerif-6e" transform="translate(123.193359 0)"/>
      <use xlink:href="#DejaVuSerif-65" transform="translate(187.597656 0)"/>
      <use xlink:href="#DejaVuSerif-72" transform="translate(246.777344 0)"/>
      <use xlink:href="#DejaVuSerif-61" transform="translate(294.580078 0)"/>
      <use xlink:href="#DejaVuSerif-74" transform="translate(354.199219 0)"/>
      <use xlink:href="#DejaVuSerif-69" transform="translate(394.384766 0)"/>
      <use xlink:href="#DejaVuSerif-6f" transform="translate(426.367188 0)"/>
      <use xlink:href="#DejaVuSerif-6e" transform="translate(486.572266 0)"/>
     </g>
    </g>
   </g>
   <g id="matplotlib.axis_2">
    <g id="ytick_1">
     <g id="line2d_13">
      <path d="M 47.325313 197.758281 
L 471.578438 197.758281 
" clip-path="url(#p69ef40dfda)" style="fill: none; stroke-dasharray: 2.96,1.28; stroke-dashoffset: 0; stroke: #b0b0b0; stroke-opacity: 0.25; stroke-width: 0.8"/>
     </g>
     <g id="line2d_14">
      <defs>
       <path id="m75eb8e8cbe" d="M 0 0 
L -3.5 0 
" style="stroke: #000000; stroke-width: 0.8"/>
      </defs>
      <g>
       <use xlink:href="#m75eb8e8cbe" x="47.325313" y="197.758281" style="stroke: #000000; stroke-width: 0.8"/>
      </g>
     </g>
     <g id="text_8">
      <!-- 5000 -->
      <g transform="translate(17.420313 201.177578) scale(0.09 -0.09)">
       <use xlink:href="#DejaVuSerif-35"/>
       <use xlink:href="#DejaVuSerif-30" transform="translate(63.623047 0)"/>
       <use xlink:href="#DejaVuSerif-30" transform="translate(127.246094 0)"/>
       <use xlink:href="#DejaVuSerif-30" transform="translate(190.869141 0)"/>
      </g>
     </g>
    </g>
    <g id="ytick_2">
     <g id="line2d_15">
      <path d="M 47.325313 161.798281 
L 471.578438 161.798281 
" clip-path="url(#p69ef40dfda)" style="fill: none; stroke-dasharray: 2.96,1.28; stroke-dashoffset: 0; stroke: #b0b0b0; stroke-opacity: 0.25; stroke-width: 0.8"/>
     </g>
     <g id="line2d_16">
      <g>
       <use xlink:href="#m75eb8e8cbe" x="47.325313" y="161.798281" style="stroke: #000000; stroke-width: 0.8"/>
      </g>
     </g>
     <g id="text_9">
      <!-- 5500 -->
      <g transform="translate(17.420313 165.217578) scale(0.09 -0.09)">
       <use xlink:href="#DejaVuSerif-35"/>
       <use xlink:href="#DejaVuSerif-35" transform="translate(63.623047 0)"/>
       <use xlink:href="#DejaVuSerif-30" transform="translate(127.246094 0)"/>
       <use xlink:href="#DejaVuSerif-30" transform="translate(190.869141 0)"/>
      </g>
     </g>
    </g>
    <g id="ytick_3">
     <g id="line2d_17">
      <path d="M 47.325313 125.838281 
L 471.578438 125.838281 
" clip-path="url(#p69ef40dfda)" style="fill: none; stroke-dasharray: 2.96,1.28; stroke-dashoffset: 0; stroke: #b0b0b0; stroke-opacity: 0.25; stroke-width: 0.8"/>
     </g>
     <g id="line2d_18">
      <g>
       <use xlink:href="#m75eb8e8cbe" x="47.325313" y="125.838281" style="stroke: #000000; stroke-width: 0.8"/>
      </g>
     </g>
     <g id="text_10">
      <!-- 6000 -->
      <g transform="translate(17.420313 129.257578) scale(0.09 -0.09)">
       <defs>
        <path id="DejaVuSerif-36" d="M 2094 219 
Q 2534 219 2771 542 
Q 3009 866 3009 1472 
Q 3009 2078 2771 2401 
Q 2534 2725 2094 2725 
Q 1647 2725 1412 2412 
Q 1178 2100 1178 1509 
Q 1178 888 1415 553 
Q 1653 219 2094 219 
z
M 1075 2569 
Q 1288 2803 1556 2918 
Q 1825 3034 2163 3034 
Q 2859 3034 3264 2615 
Q 3669 2197 3669 1472 
Q 3669 763 3233 336 
Q 2797 -91 2069 -91 
Q 1278 -91 853 498 
Q 428 1088 428 2181 
Q 428 3406 931 4078 
Q 1434 4750 2350 4750 
Q 2597 4750 2869 4703 
Q 3141 4656 3425 4563 
L 3425 3794 
L 3072 3794 
Q 3034 4109 2831 4275 
Q 2628 4441 2284 4441 
Q 1678 4441 1381 3981 
Q 1084 3522 1075 2569 
z
" transform="scale(0.015625)"/>
       </defs>
       <use xlink:href="#DejaVuSerif-36"/>
       <use xlink:href="#DejaVuSerif-30" transform="translate(63.623047 0)"/>
       <use xlink:href="#DejaVuSerif-30" transform="translate(127.246094 0)"/>
       <use xlink:href="#DejaVuSerif-30" transform="translate(190.869141 0)"/>
      </g>
     </g>
    </g>
    <g id="ytick_4">
     <g id="line2d_19">
      <path d="M 47.325313 89.878281 
L 471.578438 89.878281 
" clip-path="url(#p69ef40dfda)" style="fill: none; stroke-dasharray: 2.96,1.28; stroke-dashoffset: 0; stroke: #b0b0b0; stroke-opacity: 0.25; stroke-width: 0.8"/>
     </g>
     <g id="line2d_20">
      <g>
       <use xlink:href="#m75eb8e8cbe" x="47.325313" y="89.878281" style="stroke: #000000; stroke-width: 0.8"/>
      </g>
     </g>
     <g id="text_11">
      <!-- 6500 -->
      <g transform="translate(17.420313 93.297578) scale(0.09 -0.09)">
       <use xlink:href="#DejaVuSerif-36"/>
       <use xlink:href="#DejaVuSerif-35" transform="translate(63.623047 0)"/>
       <use xlink:href="#DejaVuSerif-30" transform="translate(127.246094 0)"/>
       <use xlink:href="#DejaVuSerif-30" transform="translate(190.869141 0)"/>
      </g>
     </g>
    </g>
    <g id="ytick_5">
     <g id="line2d_21">
      <path d="M 47.325313 53.918281 
L 471.578438 53.918281 
" clip-path="url(#p69ef40dfda)" style="fill: none; stroke-dasharray: 2.96,1.28; stroke-dashoffset: 0; stroke: #b0b0b0; stroke-opacity: 0.25; stroke-width: 0.8"/>
     </g>
     <g id="line2d_22">
      <g>
       <use xlink:href="#m75eb8e8cbe" x="47.325313" y="53.918281" style="stroke: #000000; stroke-width: 0.8"/>
      </g>
     </g>
     <g id="text_12">
      <!-- 7000 -->
      <g transform="translate(17.420313 57.337578) scale(0.09 -0.09)">
       <defs>
        <path id="DejaVuSerif-37" d="M 3609 4347 
L 1784 0 
L 1319 0 
L 3059 4153 
L 903 4153 
L 903 3578 
L 538 3578 
L 538 4666 
L 3609 4666 
L 3609 4347 
z
" transform="scale(0.015625)"/>
       </defs>
       <use xlink:href="#DejaVuSerif-37"/>
       <use xlink:href="#DejaVuSerif-30" transform="translate(63.623047 0)"/>
       <use xlink:href="#DejaVuSerif-30" transform="translate(127.246094 0)"/>
       <use xlink:href="#DejaVuSerif-30" transform="translate(190.869141 0)"/>
      </g>
     </g>
    </g>
    <g id="ytick_6">
     <g id="line2d_23">
      <path d="M 47.325313 17.958281 
L 471.578438 17.958281 
" clip-path="url(#p69ef40dfda)" style="fill: none; stroke-dasharray: 2.96,1.28; stroke-dashoffset: 0; stroke: #b0b0b0; stroke-opacity: 0.25; stroke-width: 0.8"/>
     </g>
     <g id="line2d_24">
      <g>
       <use xlink:href="#m75eb8e8cbe" x="47.325313" y="17.958281" style="stroke: #000000; stroke-width: 0.8"/>
      </g>
     </g>
     <g id="text_13">
      <!-- 7500 -->
      <g transform="translate(17.420313 21.377578) scale(0.09 -0.09)">
       <use xlink:href="#DejaVuSerif-37"/>
       <use xlink:href="#DejaVuSerif-35" transform="translate(63.623047 0)"/>
       <use xlink:href="#DejaVuSerif-30" transform="translate(127.246094 0)"/>
       <use xlink:href="#DejaVuSerif-30" transform="translate(190.869141 0)"/>
      </g>
     </g>
    </g>
    <g id="text_14">
     <!-- mean best weight (lb) -->
     <g transform="translate(11.198438 163.233281) rotate(-90) scale(0.1 -0.1)">
      <defs>
       <path id="DejaVuSerif-6d" d="M 3316 2675 
Q 3481 3041 3739 3227 
Q 3997 3413 4341 3413 
Q 4863 3413 5119 3089 
Q 5375 2766 5375 2113 
L 5375 331 
L 5894 331 
L 5894 0 
L 4300 0 
L 4300 331 
L 4800 331 
L 4800 2047 
Q 4800 2556 4650 2772 
Q 4500 2988 4153 2988 
Q 3769 2988 3567 2697 
Q 3366 2406 3366 1850 
L 3366 331 
L 3866 331 
L 3866 0 
L 2291 0 
L 2291 331 
L 2791 331 
L 2791 2069 
Q 2791 2566 2641 2777 
Q 2491 2988 2144 2988 
Q 1759 2988 1557 2697 
Q 1356 2406 1356 1850 
L 1356 331 
L 1856 331 
L 1856 0 
L 263 0 
L 263 331 
L 781 331 
L 781 2994 
L 231 2994 
L 231 3322 
L 1356 3322 
L 1356 2731 
Q 1516 3063 1762 3238 
Q 2009 3413 2322 3413 
Q 2709 3413 2968 3220 
Q 3228 3028 3316 2675 
z
" transform="scale(0.015625)"/>
       <path id="DejaVuSerif-20" transform="scale(0.015625)"/>
       <path id="DejaVuSerif-62" d="M 738 331 
L 738 4531 
L 184 4531 
L 184 4863 
L 1313 4863 
L 1313 2803 
Q 1481 3116 1742 3264 
Q 2003 3413 2388 3413 
Q 3000 3413 3387 2928 
Q 3775 2444 3775 1663 
Q 3775 881 3387 395 
Q 3000 -91 2388 -91 
Q 2003 -91 1742 57 
Q 1481 206 1313 519 
L 1313 0 
L 184 0 
L 184 331 
L 738 331 
z
M 1313 1497 
Q 1313 897 1542 583 
Q 1772 269 2209 269 
Q 2650 269 2876 622 
Q 3103 975 3103 1663 
Q 3103 2353 2876 2703 
Q 2650 3053 2209 3053 
Q 1772 3053 1542 2737 
Q 1313 2422 1313 1825 
L 1313 1497 
z
" transform="scale(0.015625)"/>
       <path id="DejaVuSerif-73" d="M 359 184 
L 359 959 
L 691 959 
Q 703 588 923 403 
Q 1144 219 1575 219 
Q 1963 219 2166 364 
Q 2369 509 2369 788 
Q 2369 1006 2220 1140 
Q 2072 1275 1594 1428 
L 1178 1569 
Q 750 1706 558 1912 
Q 366 2119 366 2438 
Q 366 2894 700 3153 
Q 1034 3413 1625 3413 
Q 1888 3413 2178 3344 
Q 2469 3275 2778 3144 
L 2778 2419 
L 2447 2419 
Q 2434 2741 2221 2922 
Q 2009 3103 1644 3103 
Q 1281 3103 1095 2975 
Q 909 2847 909 2591 
Q 909 2381 1050 2254 
Q 1191 2128 1613 1997 
L 2069 1856 
Q 2541 1709 2748 1489 
Q 2956 1269 2956 922 
Q 2956 450 2595 179 
Q 2234 -91 1600 -91 
Q 1278 -91 972 -22 
Q 666 47 359 184 
z
" transform="scale(0.015625)"/>
       <path id="DejaVuSerif-77" d="M 3072 3322 
L 3922 728 
L 4672 2988 
L 4191 2988 
L 4191 3322 
L 5394 3322 
L 5394 2988 
L 5025 2988 
L 4038 0 
L 3559 0 
L 2741 2484 
L 1919 0 
L 1459 0 
L 475 2988 
L 103 2988 
L 103 3322 
L 1606 3322 
L 1606 2988 
L 1069 2988 
L 1813 728 
L 2669 3322 
L 3072 3322 
z
" transform="scale(0.015625)"/>
       <path id="DejaVuSerif-68" d="M 263 0 
L 263 331 
L 781 331 
L 781 4531 
L 231 4531 
L 231 4863 
L 1356 4863 
L 1356 2731 
Q 1516 3069 1770 3241 
Q 2025 3413 2363 3413 
Q 2913 3413 3172 3097 
Q 3431 2781 3431 2113 
L 3431 331 
L 3944 331 
L 3944 0 
L 2356 0 
L 2356 331 
L 2853 331 
L 2853 1931 
Q 2853 2541 2704 2764 
Q 2556 2988 2175 2988 
Q 1775 2988 1565 2697 
Q 1356 2406 1356 1850 
L 1356 331 
L 1856 331 
L 1856 0 
L 263 0 
z
" transform="scale(0.015625)"/>
       <path id="DejaVuSerif-28" d="M 2041 -997 
Q 1281 -656 893 83 
Q 506 822 506 1931 
Q 506 3044 893 3783 
Q 1281 4522 2041 4863 
L 2041 4556 
Q 1559 4225 1350 3623 
Q 1141 3022 1141 1931 
Q 1141 844 1350 242 
Q 1559 -359 2041 -691 
L 2041 -997 
z
" transform="scale(0.015625)"/>
       <path id="DejaVuSerif-6c" d="M 1313 331 
L 1856 331 
L 1856 0 
L 184 0 
L 184 331 
L 738 331 
L 738 4531 
L 184 4531 
L 184 4863 
L 1313 4863 
L 1313 331 
z
" transform="scale(0.015625)"/>
       <path id="DejaVuSerif-29" d="M 453 -997 
L 453 -691 
Q 934 -359 1145 242 
Q 1356 844 1356 1931 
Q 1356 3022 1145 3623 
Q 934 4225 453 4556 
L 453 4863 
Q 1216 4522 1603 3783 
Q 1991 3044 1991 1931 
Q 1991 822 1603 83 
Q 1216 -656 453 -997 
z
" transform="scale(0.015625)"/>
      </defs>
      <use xlink:href="#DejaVuSerif-6d"/>
      <use xlink:href="#DejaVuSerif-65" transform="translate(94.824219 0)"/>
      <use xlink:href="#DejaVuSerif-61" transform="translate(154.003906 0)"/>
      <use xlink:href="#DejaVuSerif-6e" transform="translate(213.623047 0)"/>
      <use xlink:href="#DejaVuSerif-20" transform="translate(278.027344 0)"/>
      <use xlink:href="#DejaVuSerif-62" transform="translate(309.814453 0)"/>
      <use xlink:href="#DejaVuSerif-65" transform="translate(373.828125 0)"/>
      <use xlink:href="#DejaVuSerif-73" transform="translate(433.007812 0)"/>
      <use xlink:href="#DejaVuSerif-74" transform="translate(484.326172 0)"/>
      <use xlink:href="#DejaVuSerif-20" transform="translate(524.511719 0)"/>
      <use xlink:href="#DejaVuSerif-77" transform="translate(556.298828 0)"/>
      <use xlink:href="#DejaVuSerif-65" transform="translate(641.894531 0)"/>
      <use xlink:href="#DejaVuSerif-69" transform="translate(701.074219 0)"/>
      <use xlink:href="#DejaVuSerif-67" transform="translate(733.056641 0)"/>
      <use xlink:href="#DejaVuSerif-68" transform="translate(797.070312 0)"/>
      <use xlink:href="#DejaVuSerif-74" transform="translate(861.474609 0)"/>
      <use xlink:href="#DejaVuSerif-20" transform="translate(901.660156 0)"/>
      <use xlink:href="#DejaVuSerif-28" transform="translate(933.447266 0)"/>
      <use xlink:href="#DejaVuSerif-6c" transform="translate(972.460938 0)"/>
      <use xlink:href="#DejaVuSerif-62" transform="translate(1004.443359 0)"/>
      <use xlink:href="#DejaVuSerif-29" transform="translate(1068.457031 0)"/>
     </g>
    </g>
   </g>
   <g id="line2d_25">
    <path d="M 66.867846 231.746719 
L 67.382461 166.806161 
L 68.155376 95.470725 
L 68.928291 50.616119 
L 69.701206 46.743004 
L 70.474121 56.121283 
L 71.247036 68.608807 
L 73.565782 89.82755 
L 74.338697 94.254044 
L 75.884527 107.518445 
L 76.657442 113.533068 
L 77.430358 118.380454 
L 78.203273 121.710985 
L 78.976188 124.106382 
L 79.749103 125.680798 
L 80.522018 129.793739 
L 81.294933 133.17102 
L 83.613679 138.754693 
L 84.386594 141.035145 
L 86.705339 144.929203 
L 87.478254 147.370581 
L 89.024085 150.209778 
L 90.569915 152.749639 
L 92.115745 154.513824 
L 94.434491 159.624337 
L 95.207406 160.090542 
L 96.753236 162.070422 
L 99.071982 165.630428 
L 99.844897 166.973415 
L 101.390727 167.683838 
L 102.163642 168.340111 
L 102.936557 169.651116 
L 103.709473 170.389252 
L 105.255303 171.470353 
L 106.801133 172.362455 
L 108.346963 173.525994 
L 109.892794 174.021398 
L 111.438624 174.767411 
L 112.984454 175.416756 
L 113.75737 176.052944 
L 114.530285 176.444925 
L 115.3032 176.693718 
L 116.84903 177.585126 
L 119.940691 178.820077 
L 121.486521 179.103909 
L 124.578182 180.4463 
L 134.626079 183.690355 
L 137.717739 184.282897 
L 138.490654 184.423909 
L 140.8094 185.36558 
L 141.582315 185.454877 
L 143.128145 185.873442 
L 143.90106 185.972519 
L 145.446891 186.41362 
L 146.992721 186.629055 
L 148.538551 186.7148 
L 150.857297 187.185443 
L 152.403127 187.298823 
L 153.948957 187.735935 
L 158.586448 187.872299 
L 160.132278 188.023615 
L 168.634345 188.379396 
L 229.694642 188.823277 
L 434.517156 189.232517 
L 452.294205 189.232627 
L 452.294205 189.232627 
" clip-path="url(#p69ef40dfda)" style="fill: none; stroke: #d62728; stroke-width: 2; stroke-linecap: square"/>
   </g>
   <g id="line2d_26">
    <path d="M 66.806314 231.746719 
L 67.382461 127.881728 
L 68.155376 54.046221 
L 68.928291 48.513199 
L 69.701206 69.482966 
L 71.247036 90.807281 
L 72.019951 97.130844 
L 73.565782 115.717384 
L 74.338697 122.642221 
L 75.111612 126.533348 
L 75.884527 128.782515 
L 76.657442 135.262556 
L 78.203273 140.228506 
L 78.976188 143.735974 
L 80.522018 147.108466 
L 81.294933 150.596149 
L 83.613679 156.16251 
L 84.386594 157.142056 
L 85.932424 162.367935 
L 86.705339 163.033943 
L 88.25117 166.076132 
L 89.024085 167.643661 
L 89.797 169.802579 
L 91.34283 170.842338 
L 92.115745 172.715203 
L 92.888661 173.633285 
L 93.661576 174.347153 
L 94.434491 174.897069 
L 95.980321 176.565359 
L 96.753236 176.77414 
L 97.526151 177.394429 
L 99.071982 178.293556 
L 99.844897 179.202396 
L 100.617812 179.50072 
L 101.390727 180.198704 
L 102.163642 180.725148 
L 102.936557 181.063979 
L 103.709473 181.652649 
L 105.255303 182.058123 
L 106.028218 182.765639 
L 109.892794 184.563958 
L 110.665709 185.047875 
L 112.211539 185.702307 
L 114.530285 186.633944 
L 116.84903 187.252579 
L 118.39486 188.216867 
L 119.167776 188.344433 
L 119.940691 188.70778 
L 120.713606 188.849319 
L 122.259436 189.435439 
L 124.578182 189.791458 
L 125.351097 190.043047 
L 126.896927 190.205018 
L 127.669842 190.61017 
L 130.761503 190.703394 
L 132.307333 190.91956 
L 137.717739 191.254038 
L 142.35523 191.366975 
L 145.446891 191.443764 
L 184.092648 191.703301 
L 185.638478 191.76473 
L 276.069551 191.975385 
L 278.388296 192.029395 
L 402.827635 192.135961 
L 436.062986 192.245177 
L 452.294205 192.298403 
L 452.294205 192.298403 
" clip-path="url(#p69ef40dfda)" style="fill: none; stroke: #1f77b4; stroke-width: 2; stroke-linecap: square"/>
   </g>
   <g id="line2d_27">
    <path d="M 66.896192 231.746719 
L 67.382461 169.130826 
L 68.155376 97.676339 
L 68.928291 54.694189 
L 69.701206 50.742031 
L 71.247036 73.782281 
L 73.565782 94.955779 
L 74.338697 99.957288 
L 75.884527 113.354256 
L 77.430358 124.080621 
L 78.203273 126.859998 
L 79.749103 131.146635 
L 80.522018 135.775235 
L 81.294933 138.196698 
L 82.840764 141.666906 
L 83.613679 144.17224 
L 84.386594 145.928538 
L 85.932424 148.31647 
L 87.478254 152.58826 
L 89.797 156.579822 
L 90.569915 157.740845 
L 91.34283 158.440521 
L 92.115745 160.000844 
L 93.661576 163.806335 
L 94.434491 164.282055 
L 95.207406 165.084969 
L 97.526151 168.410263 
L 98.299067 169.698895 
L 99.071982 171.240979 
L 100.617812 171.958795 
L 101.390727 172.54829 
L 102.163642 173.886051 
L 102.936557 174.678221 
L 104.482388 175.785553 
L 105.255303 176.17835 
L 106.801133 177.307052 
L 107.574048 177.887642 
L 109.119879 178.389765 
L 109.892794 178.832829 
L 111.438624 179.456056 
L 112.211539 179.86179 
L 112.984454 180.510962 
L 114.530285 181.138544 
L 116.076115 182.013135 
L 119.167776 183.175292 
L 120.713606 183.496523 
L 121.486521 184.001892 
L 123.032351 184.616482 
L 126.124012 185.719471 
L 127.669842 186.209751 
L 129.215672 186.733866 
L 133.080248 187.976932 
L 135.398994 188.419116 
L 136.944824 188.690979 
L 139.263569 189.673491 
L 140.036485 189.764609 
L 141.582315 190.18662 
L 142.35523 190.287719 
L 143.90106 190.735726 
L 145.446891 190.949285 
L 146.992721 191.051414 
L 149.311466 191.50887 
L 150.857297 191.62942 
L 152.403127 192.055898 
L 157.040618 192.228851 
L 159.359363 192.398639 
L 161.678109 192.612862 
L 164.769769 192.683252 
L 245.92586 193.239859 
L 360.317302 193.434662 
L 364.181878 193.467795 
L 452.294205 193.547829 
L 452.294205 193.547829 
" clip-path="url(#p69ef40dfda)" style="fill: none; stroke: #2ca02c; stroke-width: 2; stroke-linecap: square"/>
   </g>
   <g id="line2d_28">
    <path d="M 47.325313 193.381949 
L 471.578438 193.381949 
" clip-path="url(#p69ef40dfda)" style="fill: none; stroke-dasharray: 3.7,1.6; stroke-dashoffset: 0; stroke: #000000"/>
   </g>
   <g id="patch_3">
    <path d="M 47.325313 197.758281 
L 47.325313 17.958281 
" style="fill: none; stroke: #000000; stroke-width: 0.8; stroke-linejoin: miter; stroke-linecap: square"/>
   </g>
   <g id="patch_4">
    <path d="M 47.325312 197.758281 
L 471.578438 197.758281 
" style="fill: none; stroke: #000000; stroke-width: 0.8; stroke-linejoin: miter; stroke-linecap: square"/>
   </g>
   <g id="text_15">
    <!-- 10-bar GA sensitivity to population size -->
    <g transform="translate(149.691641 11.958281) scale(0.11 -0.11)">
     <defs>
      <path id="DejaVuSerif-2d" d="M 281 1959 
L 1881 1959 
L 1881 1472 
L 281 1472 
L 281 1959 
z
" transform="scale(0.015625)"/>
      <path id="DejaVuSerif-47" d="M 4097 3272 
Q 3988 3856 3641 4136 
Q 3294 4416 2675 4416 
Q 1869 4416 1472 3897 
Q 1075 3378 1075 2328 
Q 1075 1300 1484 772 
Q 1894 244 2688 244 
Q 3041 244 3362 331 
Q 3684 419 3975 594 
L 3975 1797 
L 3097 1797 
L 3097 2131 
L 4609 2131 
L 4609 391 
Q 4194 150 3714 29 
Q 3234 -91 2688 -91 
Q 1631 -91 995 570 
Q 359 1231 359 2328 
Q 359 3434 996 4092 
Q 1634 4750 2713 4750 
Q 3113 4750 3539 4658 
Q 3966 4566 4447 4378 
L 4447 3272 
L 4097 3272 
z
" transform="scale(0.015625)"/>
      <path id="DejaVuSerif-41" d="M 1281 1691 
L 2994 1691 
L 2138 3909 
L 1281 1691 
z
M -38 0 
L -38 331 
L 372 331 
L 2034 4666 
L 2559 4666 
L 4225 331 
L 4684 331 
L 4684 0 
L 2988 0 
L 2988 331 
L 3506 331 
L 3116 1356 
L 1153 1356 
L 763 331 
L 1275 331 
L 1275 0 
L -38 0 
z
" transform="scale(0.015625)"/>
      <path id="DejaVuSerif-76" d="M 1581 0 
L 359 2988 
L -19 2988 
L -19 3322 
L 1509 3322 
L 1509 2988 
L 978 2988 
L 1913 703 
L 2847 2988 
L 2350 2988 
L 2350 3322 
L 3597 3322 
L 3597 2988 
L 3225 2988 
L 2003 0 
L 1581 0 
z
" transform="scale(0.015625)"/>
      <path id="DejaVuSerif-79" d="M 1381 -609 
L 1600 -56 
L 359 2988 
L -19 2988 
L -19 3322 
L 1509 3322 
L 1509 2988 
L 978 2988 
L 1913 703 
L 2847 2988 
L 2350 2988 
L 2350 3322 
L 3597 3322 
L 3597 2988 
L 3225 2988 
L 1703 -750 
Q 1547 -1138 1356 -1280 
Q 1166 -1422 819 -1422 
Q 672 -1422 517 -1397 
Q 363 -1372 206 -1325 
L 206 -691 
L 500 -691 
Q 519 -903 608 -995 
Q 697 -1088 884 -1088 
Q 1056 -1088 1161 -992 
Q 1266 -897 1381 -609 
z
" transform="scale(0.015625)"/>
      <path id="DejaVuSerif-70" d="M 1313 1825 
L 1313 1497 
Q 1313 897 1542 583 
Q 1772 269 2209 269 
Q 2650 269 2876 622 
Q 3103 975 3103 1663 
Q 3103 2353 2876 2703 
Q 2650 3053 2209 3053 
Q 1772 3053 1542 2737 
Q 1313 2422 1313 1825 
z
M 738 2988 
L 184 2988 
L 184 3322 
L 1313 3322 
L 1313 2803 
Q 1481 3116 1742 3264 
Q 2003 3413 2388 3413 
Q 3000 3413 3387 2928 
Q 3775 2444 3775 1663 
Q 3775 881 3387 395 
Q 3000 -91 2388 -91 
Q 2003 -91 1742 57 
Q 1481 206 1313 519 
L 1313 -997 
L 1856 -997 
L 1856 -1331 
L 184 -1331 
L 184 -997 
L 738 -997 
L 738 2988 
z
" transform="scale(0.015625)"/>
      <path id="DejaVuSerif-75" d="M 2266 3322 
L 3341 3322 
L 3341 331 
L 3884 331 
L 3884 0 
L 2766 0 
L 2766 588 
Q 2606 256 2353 82 
Q 2100 -91 1766 -91 
Q 1213 -91 952 223 
Q 691 538 691 1209 
L 691 2988 
L 172 2988 
L 172 3322 
L 1269 3322 
L 1269 1388 
Q 1269 781 1417 556 
Q 1566 331 1947 331 
Q 2347 331 2556 625 
Q 2766 919 2766 1478 
L 2766 2988 
L 2266 2988 
L 2266 3322 
z
" transform="scale(0.015625)"/>
      <path id="DejaVuSerif-7a" d="M 256 0 
L 256 269 
L 2338 2988 
L 691 2988 
L 691 2413 
L 359 2413 
L 359 3322 
L 3078 3322 
L 3078 3053 
L 997 331 
L 2803 331 
L 2803 934 
L 3138 934 
L 3138 0 
L 256 0 
z
" transform="scale(0.015625)"/>
     </defs>
     <use xlink:href="#DejaVuSerif-31"/>
     <use xlink:href="#DejaVuSerif-30" transform="translate(63.623047 0)"/>
     <use xlink:href="#DejaVuSerif-2d" transform="translate(127.246094 0)"/>
     <use xlink:href="#DejaVuSerif-62" transform="translate(161.035156 0)"/>
     <use xlink:href="#DejaVuSerif-61" transform="translate(225.048828 0)"/>
     <use xlink:href="#DejaVuSerif-72" transform="translate(284.667969 0)"/>
     <use xlink:href="#DejaVuSerif-20" transform="translate(332.470703 0)"/>
     <use xlink:href="#DejaVuSerif-47" transform="translate(364.257812 0)"/>
     <use xlink:href="#DejaVuSerif-41" transform="translate(444.140625 0)"/>
     <use xlink:href="#DejaVuSerif-20" transform="translate(516.357422 0)"/>
     <use xlink:href="#DejaVuSerif-73" transform="translate(548.144531 0)"/>
     <use xlink:href="#DejaVuSerif-65" transform="translate(599.462891 0)"/>
     <use xlink:href="#DejaVuSerif-6e" transform="translate(658.642578 0)"/>
     <use xlink:href="#DejaVuSerif-73" transform="translate(723.046875 0)"/>
     <use xlink:href="#DejaVuSerif-69" transform="translate(774.365234 0)"/>
     <use xlink:href="#DejaVuSerif-74" transform="translate(806.347656 0)"/>
     <use xlink:href="#DejaVuSerif-69" transform="translate(846.533203 0)"/>
     <use xlink:href="#DejaVuSerif-76" transform="translate(878.515625 0)"/>
     <use xlink:href="#DejaVuSerif-69" transform="translate(935.009766 0)"/>
     <use xlink:href="#DejaVuSerif-74" transform="translate(966.992188 0)"/>
     <use xlink:href="#DejaVuSerif-79" transform="translate(1007.177734 0)"/>
     <use xlink:href="#DejaVuSerif-20" transform="translate(1063.671875 0)"/>
     <use xlink:href="#DejaVuSerif-74" transform="translate(1095.458984 0)"/>
     <use xlink:href="#DejaVuSerif-6f" transform="translate(1135.644531 0)"/>
     <use xlink:href="#DejaVuSerif-20" transform="translate(1195.849609 0)"/>
     <use xlink:href="#DejaVuSerif-70" transform="translate(1227.636719 0)"/>
     <use xlink:href="#DejaVuSerif-6f" transform="translate(1291.650391 0)"/>
     <use xlink:href="#DejaVuSerif-70" transform="translate(1351.855469 0)"/>
     <use xlink:href="#DejaVuSerif-75" transform="translate(1415.869141 0)"/>
     <use xlink:href="#DejaVuSerif-6c" transform="translate(1480.273438 0)"/>
     <use xlink:href="#DejaVuSerif-61" transform="translate(1512.255859 0)"/>
     <use xlink:href="#DejaVuSerif-74" transform="translate(1571.875 0)"/>
     <use xlink:href="#DejaVuSerif-69" transform="translate(1612.060547 0)"/>
     <use xlink:href="#DejaVuSerif-6f" transform="translate(1644.042969 0)"/>
     <use xlink:href="#DejaVuSerif-6e" transform="translate(1704.248047 0)"/>
     <use xlink:href="#DejaVuSerif-20" transform="translate(1768.652344 0)"/>
     <use xlink:href="#DejaVuSerif-73" transform="translate(1800.439453 0)"/>
     <use xlink:href="#DejaVuSerif-69" transform="translate(1851.757812 0)"/>
     <use xlink:href="#DejaVuSerif-7a" transform="translate(1883.740234 0)"/>
     <use xlink:href="#DejaVuSerif-65" transform="translate(1936.425781 0)"/>
    </g>
   </g>
   <g id="legend_1">
    <g id="line2d_29">
     <path d="M 401.298281 29.746875 
L 410.298281 29.746875 
L 419.298281 29.746875 
" style="fill: none; stroke: #d62728; stroke-width: 2; stroke-linecap: square"/>
    </g>
    <g id="text_16">
     <!-- pop 50 -->
     <g transform="translate(426.498281 32.896875) scale(0.09 -0.09)">
      <use xlink:href="#DejaVuSerif-70"/>
      <use xlink:href="#DejaVuSerif-6f" transform="translate(64.013672 0)"/>
      <use xlink:href="#DejaVuSerif-70" transform="translate(124.21875 0)"/>
      <use xlink:href="#DejaVuSerif-20" transform="translate(188.232422 0)"/>
      <use xlink:href="#DejaVuSerif-35" transform="translate(220.019531 0)"/>
      <use xlink:href="#DejaVuSerif-30" transform="translate(283.642578 0)"/>
     </g>
    </g>
    <g id="line2d_30">
     <path d="M 401.298281 42.957187 
L 410.298281 42.957187 
L 419.298281 42.957187 
" style="fill: none; stroke: #1f77b4; stroke-width: 2; stroke-linecap: square"/>
    </g>
    <g id="text_17">
     <!-- pop 100 -->
     <g transform="translate(426.498281 46.107187) scale(0.09 -0.09)">
      <use xlink:href="#DejaVuSerif-70"/>
      <use xlink:href="#DejaVuSerif-6f" transform="translate(64.013672 0)"/>
      <use xlink:href="#DejaVuSerif-70" transform="translate(124.21875 0)"/>
      <use xlink:href="#DejaVuSerif-20" transform="translate(188.232422 0)"/>
      <use xlink:href="#DejaVuSerif-31" transform="translate(220.019531 0)"/>
      <use xlink:href="#DejaVuSerif-30" transform="translate(283.642578 0)"/>
      <use xlink:href="#DejaVuSerif-30" transform="translate(347.265625 0)"/>
     </g>
    </g>
    <g id="line2d_31">
     <path d="M 401.298281 56.1675 
L 410.298281 56.1675 
L 419.298281 56.1675 
" style="fill: none; stroke: #2ca02c; stroke-width: 2; stroke-linecap: square"/>
    </g>
    <g id="text_18">
     <!-- pop 200 -->
     <g transform="translate(426.498281 59.3175) scale(0.09 -0.09)">
      <use xlink:href="#DejaVuSerif-70"/>
      <use xlink:href="#DejaVuSerif-6f" transform="translate(64.013672 0)"/>
      <use xlink:href="#DejaVuSerif-70" transform="translate(124.21875 0)"/>
      <use xlink:href="#DejaVuSerif-20" transform="translate(188.232422 0)"/>
      <use xlink:href="#DejaVuSerif-32" transform="translate(220.019531 0)"/>
      <use xlink:href="#DejaVuSerif-30" transform="translate(283.642578 0)"/>
      <use xlink:href="#DejaVuSerif-30" transform="translate(347.265625 0)"/>
     </g>
    </g>
   </g>
  </g>
 </g>
 <defs>
  <clipPath id="p69ef40dfda">
   <rect x="47.325313" y="17.958281" width="424.253125" height="179.8"/>
  </clipPath>
 </defs>
</svg>
