<?xml version="1.0" encoding="utf-8" standalone="no"?>
<!DOCTYPE svg PUBLIC "-//W3C//DTD SVG 1.1//EN"
  "http://www.w3.org/Graphics/SVG/1.1/DTD/svg11.dtd">
<svg xmlns:xlink="http://www.w3.org/1999/xlink" width="309.6pt" height="215.958281pt" viewBox="0 0 309.6 215.958281" xmlns="http://www.w3.org/2000/svg" version="1.1">
 <metadata>
  <rdf:RDF xmlns:dc="http://purl.org/dc/elements/1.1/" xmlns:cc="http://creativecommons.org/ns#" xmlns:rdf="http://www.w3.org/1999/02/22-rdf-syntax-ns#">
   <cc:Work>
    <dc:type rdf:resource="http://purl.org/dc/dcmitype/StillImage"/>
    <dc:date>2026-04-24T15:22:19.438379</dc:date>
    <dc:format>image/svg+xml</dc:format>
    <dc:creator>
     <cc:Agent>
      <dc:title>Matplotlib v3.10.8, https://matplotlib.org/</dc:title>
     </cc:Agent>
    </dc:creator>
   </cc:Work>
  </rdf:RDF>
 </metadata>
 <defs>
  <style type="text/css">*{stroke-linejoin: round; stroke-linecap: butt}</style>
 </defs>
 <g id="figure_1">
  <g id="patch_1">
   <path d="M 0 215.958281 
L 309.6 215.958281 
L 309.6 0 
L 0 0 
z
" style="fill: #ffffff"/>
  </g>
  <g id="axes_1">
   <g id="patch_2">
    <path d="M 18.72 143.485138 
L 91.296 143.485138 
Q 91.9008 143.485138 91.9008 142.92971 
L 91.9008 101.272567 
Q 91.9008 100.717138 91.296 100.717138 
L 18.72 100.717138 
Q 18.1152 100.717138 18.1152 101.272567 
L 18.1152 142.92971 
Q 18.1152 143.485138 18.72 143.485138 
z
" clip-path="url(#pe2ce1f332f)" style="fill: #fff1cf; stroke: #7c5a15; stroke-width: 1.2; stroke-linejoin: miter"/>
   </g>
   <g id="patch_3">
    <path d="M 218.304 143.485138 
L 290.88 143.485138 
Q 291.4848 143.485138 291.4848 142.92971 
L 291.4848 101.272567 
Q 291.4848 100.717138 290.88 100.717138 
L 218.304 100.717138 
Q 217.6992 100.717138 217.6992 101.272567 
L 217.6992 142.92971 
Q 217.6992 143.485138 218.304 143.485138 
z
" clip-path="url(#pe2ce1f332f)" style="fill: #cfe3f5; stroke: #1f4b73; stroke-width: 1.2; stroke-linejoin: miter"/>
   </g>
   <g id="patch_4">
    <path d="M 93.292128 112.381138 
Q 154.796611 112.381138 214.959453 112.381138 
" clip-path="url(#pe2ce1f332f)" style="fill: none; stroke: #333333; stroke-width: 1.2; stroke-linecap: round"/>
    <path d="M 210.159453 109.981138 
L 214.959453 112.381138 
L 210.159453 114.781138 
z
" clip-path="url(#pe2ce1f332f)" style="fill: #333333; stroke: #333333; stroke-width: 1.2; stroke-linecap: round"/>
   </g>
   <g id="patch_5">
    <path d="M 216.307872 131.821138 
Q 154.803389 131.821138 94.640547 131.821138 
" clip-path="url(#pe2ce1f332f)" style="fill: none; stroke: #333333; stroke-width: 1.2; stroke-linecap: round"/>
    <path d="M 99.440547 134.221138 
L 94.640547 131.821138 
L 99.440547 129.421138 
z
" clip-path="url(#pe2ce1f332f)" style="fill: #333333; stroke: #333333; stroke-width: 1.2; stroke-linecap: round"/>
   </g>
   <g id="text_1">
    <!-- Agent -->
    <g transform="translate(41.507297 119.317607) scale(0.09 -0.09)">
     <defs>
      <path id="DejaVuSerif-41" d="M 1281 1691 
L 2994 1691 
L 2138 3909 
L 1281 1691 
z
M -38 0 
L -38 331 
L 372 331 
L 2034 4666 
L 2559 4666 
L 4225 331 
L 4684 331 
L 4684 0 
L 2988 0 
L 2988 331 
L 3506 331 
L 3116 1356 
L 1153 1356 
L 763 331 
L 1275 331 
L 1275 0 
L -38 0 
z
" transform="scale(0.015625)"/>
      <path id="DejaVuSerif-67" d="M 3359 2988 
L 3359 72 
Q 3359 -644 2965 -1033 
Q 2572 -1422 1844 -1422 
Q 1516 -1422 1216 -1362 
Q 916 -1303 641 -1184 
L 641 -488 
L 941 -488 
Q 997 -813 1206 -963 
Q 1416 -1113 1806 -1113 
Q 2313 -1113 2548 -827 
Q 2784 -541 2784 72 
L 2784 519 
Q 2616 206 2355 57 
Q 2094 -91 1709 -91 
Q 1097 -91 708 395 
Q 319 881 319 1663 
Q 319 2444 706 2928 
Q 1094 3413 1709 3413 
Q 2094 3413 2355 3264 
Q 2616 3116 2784 2803 
L 2784 3322 
L 3909 3322 
L 3909 2988 
L 3359 2988 
z
M 2784 1825 
Q 2784 2422 2554 2737 
Q 2325 3053 1888 3053 
Q 1444 3053 1217 2703 
Q 991 2353 991 1663 
Q 991 975 1217 622 
Q 1444 269 1888 269 
Q 2325 269 2554 583 
Q 2784 897 2784 1497 
L 2784 1825 
z
" transform="scale(0.015625)"/>
      <path id="DejaVuSerif-65" d="M 3469 1600 
L 991 1600 
L 991 1575 
Q 991 903 1244 561 
Q 1497 219 1991 219 
Q 2369 219 2611 417 
Q 2853 616 2950 1006 
L 3413 1006 
Q 3275 459 2904 184 
Q 2534 -91 1931 -91 
Q 1203 -91 761 389 
Q 319 869 319 1663 
Q 319 2450 753 2931 
Q 1188 3413 1894 3413 
Q 2647 3413 3050 2948 
Q 3453 2484 3469 1600 
z
M 2791 1931 
Q 2772 2513 2545 2808 
Q 2319 3103 1894 3103 
Q 1497 3103 1269 2806 
Q 1041 2509 991 1931 
L 2791 1931 
z
" transform="scale(0.015625)"/>
      <path id="DejaVuSerif-6e" d="M 263 0 
L 263 331 
L 781 331 
L 781 2988 
L 231 2988 
L 231 3322 
L 1356 3322 
L 1356 2731 
Q 1516 3069 1770 3241 
Q 2025 3413 2363 3413 
Q 2913 3413 3172 3097 
Q 3431 2781 3431 2113 
L 3431 331 
L 3944 331 
L 3944 0 
L 2356 0 
L 2356 331 
L 2853 331 
L 2853 1931 
Q 2853 2541 2703 2767 
Q 2553 2994 2175 2994 
Q 1775 2994 1565 2701 
Q 1356 2409 1356 1850 
L 1356 331 
L 1856 331 
L 1856 0 
L 263 0 
z
" transform="scale(0.015625)"/>
      <path id="DejaVuSerif-74" d="M 691 2988 
L 184 2988 
L 184 3322 
L 691 3322 
L 691 4353 
L 1269 4353 
L 1269 3322 
L 2350 3322 
L 2350 2988 
L 1269 2988 
L 1269 878 
Q 1269 456 1350 337 
Q 1431 219 1650 219 
Q 1875 219 1978 351 
Q 2081 484 2088 781 
L 2522 781 
Q 2497 328 2275 118 
Q 2053 -91 1600 -91 
Q 1103 -91 897 129 
Q 691 350 691 878 
L 691 2988 
z
" transform="scale(0.015625)"/>
     </defs>
     <use xlink:href="#DejaVuSerif-41"/>
     <use xlink:href="#DejaVuSerif-67" transform="translate(72.216797 0)"/>
     <use xlink:href="#DejaVuSerif-65" transform="translate(136.230469 0)"/>
     <use xlink:href="#DejaVuSerif-6e" transform="translate(195.410156 0)"/>
     <use xlink:href="#DejaVuSerif-74" transform="translate(259.814453 0)"/>
    </g>
    <!-- (PPO policy $\pi_\theta$) -->
    <g transform="translate(20.583 129.525295) scale(0.09 -0.09)">
     <defs>
      <path id="DejaVuSerif-28" d="M 2041 -997 
Q 1281 -656 893 83 
Q 506 822 506 1931 
Q 506 3044 893 3783 
Q 1281 4522 2041 4863 
L 2041 4556 
Q 1559 4225 1350 3623 
Q 1141 3022 1141 1931 
Q 1141 844 1350 242 
Q 1559 -359 2041 -691 
L 2041 -997 
z
" transform="scale(0.015625)"/>
      <path id="DejaVuSerif-50" d="M 1581 2375 
L 2406 2375 
Q 2872 2375 3115 2626 
Q 3359 2878 3359 3353 
Q 3359 3831 3115 4081 
Q 2872 4331 2406 4331 
L 1581 4331 
L 1581 2375 
z
M 353 0 
L 353 331 
L 947 331 
L 947 4331 
L 353 4331 
L 353 4666 
L 2559 4666 
Q 3259 4666 3668 4311 
Q 4078 3956 4078 3353 
Q 4078 2753 3668 2397 
Q 3259 2041 2559 2041 
L 1581 2041 
L 1581 331 
L 2303 331 
L 2303 0 
L 353 0 
z
" transform="scale(0.015625)"/>
      <path id="DejaVuSerif-4f" d="M 2625 244 
Q 3391 244 3781 770 
Q 4172 1297 4172 2328 
Q 4172 3363 3781 3889 
Q 3391 4416 2625 4416 
Q 1856 4416 1465 3889 
Q 1075 3363 1075 2328 
Q 1075 1297 1465 770 
Q 1856 244 2625 244 
z
M 2625 -91 
Q 2150 -91 1751 65 
Q 1353 222 1050 525 
Q 700 875 529 1319 
Q 359 1763 359 2328 
Q 359 2894 529 3339 
Q 700 3784 1050 4134 
Q 1356 4441 1750 4595 
Q 2144 4750 2625 4750 
Q 3641 4750 4266 4084 
Q 4891 3419 4891 2328 
Q 4891 1769 4719 1320 
Q 4547 872 4197 525 
Q 3891 219 3497 64 
Q 3103 -91 2625 -91 
z
" transform="scale(0.015625)"/>
      <path id="DejaVuSerif-20" transform="scale(0.015625)"/>
      <path id="DejaVuSerif-70" d="M 1313 1825 
L 1313 1497 
Q 1313 897 1542 583 
Q 1772 269 2209 269 
Q 2650 269 2876 622 
Q 3103 975 3103 1663 
Q 3103 2353 2876 2703 
Q 2650 3053 2209 3053 
Q 1772 3053 1542 2737 
Q 1313 2422 1313 1825 
z
M 738 2988 
L 184 2988 
L 184 3322 
L 1313 3322 
L 1313 2803 
Q 1481 3116 1742 3264 
Q 2003 3413 2388 3413 
Q 3000 3413 3387 2928 
Q 3775 2444 3775 1663 
Q 3775 881 3387 395 
Q 3000 -91 2388 -91 
Q 2003 -91 1742 57 
Q 1481 206 1313 519 
L 1313 -997 
L 1856 -997 
L 1856 -1331 
L 184 -1331 
L 184 -997 
L 738 -997 
L 738 2988 
z
" transform="scale(0.015625)"/>
      <path id="DejaVuSerif-6f" d="M 1925 219 
Q 2388 219 2623 584 
Q 2859 950 2859 1663 
Q 2859 2375 2623 2739 
Q 2388 3103 1925 3103 
Q 1463 3103 1227 2739 
Q 991 2375 991 1663 
Q 991 950 1228 584 
Q 1466 219 1925 219 
z
M 1925 -91 
Q 1200 -91 759 389 
Q 319 869 319 1663 
Q 319 2456 758 2934 
Q 1197 3413 1925 3413 
Q 2653 3413 3092 2934 
Q 3531 2456 3531 1663 
Q 3531 869 3092 389 
Q 2653 -91 1925 -91 
z
" transform="scale(0.015625)"/>
      <path id="DejaVuSerif-6c" d="M 1313 331 
L 1856 331 
L 1856 0 
L 184 0 
L 184 331 
L 738 331 
L 738 4531 
L 184 4531 
L 184 4863 
L 1313 4863 
L 1313 331 
z
" transform="scale(0.015625)"/>
      <path id="DejaVuSerif-69" d="M 622 4353 
Q 622 4497 726 4603 
Q 831 4709 978 4709 
Q 1122 4709 1226 4603 
Q 1331 4497 1331 4353 
Q 1331 4206 1228 4103 
Q 1125 4000 978 4000 
Q 831 4000 726 4103 
Q 622 4206 622 4353 
z
M 1356 331 
L 1900 331 
L 1900 0 
L 231 0 
L 231 331 
L 781 331 
L 781 2988 
L 231 2988 
L 231 3322 
L 1356 3322 
L 1356 331 
z
" transform="scale(0.015625)"/>
      <path id="DejaVuSerif-63" d="M 3291 997 
Q 3169 466 2822 187 
Q 2475 -91 1925 -91 
Q 1200 -91 759 389 
Q 319 869 319 1663 
Q 319 2459 759 2936 
Q 1200 3413 1925 3413 
Q 2241 3413 2553 3339 
Q 2866 3266 3181 3116 
L 3181 2266 
L 2847 2266 
Q 2781 2703 2561 2903 
Q 2341 3103 1931 3103 
Q 1466 3103 1228 2742 
Q 991 2381 991 1663 
Q 991 944 1227 581 
Q 1463 219 1931 219 
Q 2303 219 2525 412 
Q 2747 606 2828 997 
L 3291 997 
z
" transform="scale(0.015625)"/>
      <path id="DejaVuSerif-79" d="M 1381 -609 
L 1600 -56 
L 359 2988 
L -19 2988 
L -19 3322 
L 1509 3322 
L 1509 2988 
L 978 2988 
L 1913 703 
L 2847 2988 
L 2350 2988 
L 2350 3322 
L 3597 3322 
L 3597 2988 
L 3225 2988 
L 1703 -750 
Q 1547 -1138 1356 -1280 
Q 1166 -1422 819 -1422 
Q 672 -1422 517 -1397 
Q 363 -1372 206 -1325 
L 206 -691 
L 500 -691 
Q 519 -903 608 -995 
Q 697 -1088 884 -1088 
Q 1056 -1088 1161 -992 
Q 1266 -897 1381 -609 
z
" transform="scale(0.015625)"/>
      <path id="DejaVuSans-Oblique-3c0" d="M 584 3500 
L 3938 3500 
L 3825 2925 
L 3384 2925 
L 2966 775 
Q 2922 550 2981 450 
Q 3038 353 3209 353 
Q 3256 353 3325 363 
Q 3397 369 3419 372 
L 3338 -44 
Q 3222 -84 3103 -103 
Q 2981 -122 2866 -122 
Q 2491 -122 2388 81 
Q 2284 288 2391 838 
L 2797 2925 
L 1506 2925 
L 938 0 
L 350 0 
L 919 2925 
L 472 2925 
L 584 3500 
z
" transform="scale(0.015625)"/>
      <path id="DejaVuSans-Oblique-3b8" d="M 2913 2219 
L 925 2219 
Q 791 1284 928 888 
Q 1100 400 1566 400 
Q 2034 400 2391 891 
Q 2703 1322 2913 2219 
z
M 3009 2750 
Q 3094 3638 2984 3950 
Q 2813 4444 2353 4444 
Q 1875 4444 1525 3956 
Q 1250 3563 1034 2750 
L 3009 2750 
z
M 2444 4913 
Q 3194 4913 3494 4250 
Q 3794 3591 3566 2422 
Q 3341 1256 2781 594 
Q 2225 -72 1475 -72 
Q 722 -72 425 594 
Q 128 1256 353 2422 
Q 581 3591 1134 4250 
Q 1691 4913 2444 4913 
z
" transform="scale(0.015625)"/>
      <path id="DejaVuSerif-29" d="M 453 -997 
L 453 -691 
Q 934 -359 1145 242 
Q 1356 844 1356 1931 
Q 1356 3022 1145 3623 
Q 934 4225 453 4556 
L 453 4863 
Q 1216 4522 1603 3783 
Q 1991 3044 1991 1931 
Q 1991 822 1603 83 
Q 1216 -656 453 -997 
z
" transform="scale(0.015625)"/>
     </defs>
     <use xlink:href="#DejaVuSerif-28" transform="translate(0 0.015625)"/>
     <use xlink:href="#DejaVuSerif-50" transform="translate(39.013672 0.015625)"/>
     <use xlink:href="#DejaVuSerif-50" transform="translate(106.298828 0.015625)"/>
     <use xlink:href="#DejaVuSerif-4f" transform="translate(173.583984 0.015625)"/>
     <use xlink:href="#DejaVuSerif-20" transform="translate(255.566406 0.015625)"/>
     <use xlink:href="#DejaVuSerif-70" transform="translate(287.353516 0.015625)"/>
     <use xlink:href="#DejaVuSerif-6f" transform="translate(351.367188 0.015625)"/>
     <use xlink:href="#DejaVuSerif-6c" transform="translate(411.572266 0.015625)"/>
     <use xlink:href="#DejaVuSerif-69" transform="translate(443.554688 0.015625)"/>
     <use xlink:href="#DejaVuSerif-63" transform="translate(475.537109 0.015625)"/>
     <use xlink:href="#DejaVuSerif-79" transform="translate(531.542969 0.015625)"/>
     <use xlink:href="#DejaVuSerif-20" transform="translate(588.037109 0.015625)"/>
     <use xlink:href="#DejaVuSans-Oblique-3c0" transform="translate(619.824219 0.015625)"/>
     <use xlink:href="#DejaVuSans-Oblique-3b8" transform="translate(680.029297 -16.390625) scale(0.7)"/>
     <use xlink:href="#DejaVuSerif-29" transform="translate(725.59082 0.015625)"/>
    </g>
   </g>
   <g id="text_2">
    <!-- Environment -->
    <g transform="translate(225.031219 114.378576) scale(0.09 -0.09)">
     <defs>
      <path id="DejaVuSerif-45" d="M 353 0 
L 353 331 
L 947 331 
L 947 4331 
L 353 4331 
L 353 4666 
L 4109 4666 
L 4109 3628 
L 3725 3628 
L 3725 4281 
L 1581 4281 
L 1581 2719 
L 3109 2719 
L 3109 3303 
L 3494 3303 
L 3494 1753 
L 3109 1753 
L 3109 2338 
L 1581 2338 
L 1581 384 
L 3775 384 
L 3775 1038 
L 4159 1038 
L 4159 0 
L 353 0 
z
" transform="scale(0.015625)"/>
      <path id="DejaVuSerif-76" d="M 1581 0 
L 359 2988 
L -19 2988 
L -19 3322 
L 1509 3322 
L 1509 2988 
L 978 2988 
L 1913 703 
L 2847 2988 
L 2350 2988 
L 2350 3322 
L 3597 3322 
L 3597 2988 
L 3225 2988 
L 2003 0 
L 1581 0 
z
" transform="scale(0.015625)"/>
      <path id="DejaVuSerif-72" d="M 3059 3328 
L 3059 2497 
L 2728 2497 
Q 2713 2744 2591 2866 
Q 2469 2988 2234 2988 
Q 1809 2988 1582 2694 
Q 1356 2400 1356 1850 
L 1356 331 
L 2022 331 
L 2022 0 
L 263 0 
L 263 331 
L 781 331 
L 781 2994 
L 231 2994 
L 231 3322 
L 1356 3322 
L 1356 2731 
Q 1525 3078 1790 3245 
Q 2056 3413 2438 3413 
Q 2578 3413 2733 3391 
Q 2888 3369 3059 3328 
z
" transform="scale(0.015625)"/>
      <path id="DejaVuSerif-6d" d="M 3316 2675 
Q 3481 3041 3739 3227 
Q 3997 3413 4341 3413 
Q 4863 3413 5119 3089 
Q 5375 2766 5375 2113 
L 5375 331 
L 5894 331 
L 5894 0 
L 4300 0 
L 4300 331 
L 4800 331 
L 4800 2047 
Q 4800 2556 4650 2772 
Q 4500 2988 4153 2988 
Q 3769 2988 3567 2697 
Q 3366 2406 3366 1850 
L 3366 331 
L 3866 331 
L 3866 0 
L 2291 0 
L 2291 331 
L 2791 331 
L 2791 2069 
Q 2791 2566 2641 2777 
Q 2491 2988 2144 2988 
Q 1759 2988 1557 2697 
Q 1356 2406 1356 1850 
L 1356 331 
L 1856 331 
L 1856 0 
L 263 0 
L 263 331 
L 781 331 
L 781 2994 
L 231 2994 
L 231 3322 
L 1356 3322 
L 1356 2731 
Q 1516 3063 1762 3238 
Q 2009 3413 2322 3413 
Q 2709 3413 2968 3220 
Q 3228 3028 3316 2675 
z
" transform="scale(0.015625)"/>
     </defs>
     <use xlink:href="#DejaVuSerif-45"/>
     <use xlink:href="#DejaVuSerif-6e" transform="translate(72.998047 0)"/>
     <use xlink:href="#DejaVuSerif-76" transform="translate(137.402344 0)"/>
     <use xlink:href="#DejaVuSerif-69" transform="translate(193.896484 0)"/>
     <use xlink:href="#DejaVuSerif-72" transform="translate(225.878906 0)"/>
     <use xlink:href="#DejaVuSerif-6f" transform="translate(273.681641 0)"/>
     <use xlink:href="#DejaVuSerif-6e" transform="translate(333.886719 0)"/>
     <use xlink:href="#DejaVuSerif-6d" transform="translate(398.291016 0)"/>
     <use xlink:href="#DejaVuSerif-65" transform="translate(493.115234 0)"/>
     <use xlink:href="#DejaVuSerif-6e" transform="translate(552.294922 0)"/>
     <use xlink:href="#DejaVuSerif-74" transform="translate(616.699219 0)"/>
    </g>
    <!-- (TrussDesignEnv -->
    <g transform="translate(215.643094 124.456607) scale(0.09 -0.09)">
     <defs>
      <path id="DejaVuSerif-54" d="M 1222 0 
L 1222 331 
L 1819 331 
L 1819 4294 
L 447 4294 
L 447 3566 
L 63 3566 
L 63 4666 
L 4206 4666 
L 4206 3566 
L 3822 3566 
L 3822 4294 
L 2450 4294 
L 2450 331 
L 3047 331 
L 3047 0 
L 1222 0 
z
" transform="scale(0.015625)"/>
      <path id="DejaVuSerif-75" d="M 2266 3322 
L 3341 3322 
L 3341 331 
L 3884 331 
L 3884 0 
L 2766 0 
L 2766 588 
Q 2606 256 2353 82 
Q 2100 -91 1766 -91 
Q 1213 -91 952 223 
Q 691 538 691 1209 
L 691 2988 
L 172 2988 
L 172 3322 
L 1269 3322 
L 1269 1388 
Q 1269 781 1417 556 
Q 1566 331 1947 331 
Q 2347 331 2556 625 
Q 2766 919 2766 1478 
L 2766 2988 
L 2266 2988 
L 2266 3322 
z
" transform="scale(0.015625)"/>
      <path id="DejaVuSerif-73" d="M 359 184 
L 359 959 
L 691 959 
Q 703 588 923 403 
Q 1144 219 1575 219 
Q 1963 219 2166 364 
Q 2369 509 2369 788 
Q 2369 1006 2220 1140 
Q 2072 1275 1594 1428 
L 1178 1569 
Q 750 1706 558 1912 
Q 366 2119 366 2438 
Q 366 2894 700 3153 
Q 1034 3413 1625 3413 
Q 1888 3413 2178 3344 
Q 2469 3275 2778 3144 
L 2778 2419 
L 2447 2419 
Q 2434 2741 2221 2922 
Q 2009 3103 1644 3103 
Q 1281 3103 1095 2975 
Q 909 2847 909 2591 
Q 909 2381 1050 2254 
Q 1191 2128 1613 1997 
L 2069 1856 
Q 2541 1709 2748 1489 
Q 2956 1269 2956 922 
Q 2956 450 2595 179 
Q 2234 -91 1600 -91 
Q 1278 -91 972 -22 
Q 666 47 359 184 
z
" transform="scale(0.015625)"/>
      <path id="DejaVuSerif-44" d="M 1581 331 
L 2163 331 
Q 3072 331 3558 850 
Q 4044 1369 4044 2338 
Q 4044 3306 3559 3818 
Q 3075 4331 2163 4331 
L 1581 4331 
L 1581 331 
z
M 353 0 
L 353 331 
L 947 331 
L 947 4331 
L 353 4331 
L 353 4666 
L 2209 4666 
Q 3416 4666 4089 4050 
Q 4763 3434 4763 2338 
Q 4763 1238 4088 619 
Q 3413 0 2209 0 
L 353 0 
z
" transform="scale(0.015625)"/>
     </defs>
     <use xlink:href="#DejaVuSerif-28"/>
     <use xlink:href="#DejaVuSerif-54" transform="translate(39.013672 0)"/>
     <use xlink:href="#DejaVuSerif-72" transform="translate(105.712891 0)"/>
     <use xlink:href="#DejaVuSerif-75" transform="translate(153.515625 0)"/>
     <use xlink:href="#DejaVuSerif-73" transform="translate(217.919922 0)"/>
     <use xlink:href="#DejaVuSerif-73" transform="translate(269.238281 0)"/>
     <use xlink:href="#DejaVuSerif-44" transform="translate(320.556641 0)"/>
     <use xlink:href="#DejaVuSerif-65" transform="translate(400.732422 0)"/>
     <use xlink:href="#DejaVuSerif-73" transform="translate(459.912109 0)"/>
     <use xlink:href="#DejaVuSerif-69" transform="translate(511.230469 0)"/>
     <use xlink:href="#DejaVuSerif-67" transform="translate(543.212891 0)"/>
     <use xlink:href="#DejaVuSerif-6e" transform="translate(607.226562 0)"/>
     <use xlink:href="#DejaVuSerif-45" transform="translate(671.630859 0)"/>
     <use xlink:href="#DejaVuSerif-6e" transform="translate(744.628906 0)"/>
     <use xlink:href="#DejaVuSerif-76" transform="translate(809.033203 0)"/>
    </g>
    <!-- + surrogate) -->
    <g transform="translate(225.381375 134.662607) scale(0.09 -0.09)">
     <defs>
      <path id="DejaVuSerif-2b" d="M 2931 4013 
L 2931 2259 
L 4684 2259 
L 4684 1753 
L 2931 1753 
L 2931 0 
L 2431 0 
L 2431 1753 
L 678 1753 
L 678 2259 
L 2431 2259 
L 2431 4013 
L 2931 4013 
z
" transform="scale(0.015625)"/>
      <path id="DejaVuSerif-61" d="M 2547 1044 
L 2547 1747 
L 1806 1747 
Q 1378 1747 1168 1562 
Q 959 1378 959 997 
Q 959 650 1171 447 
Q 1384 244 1747 244 
Q 2106 244 2326 466 
Q 2547 688 2547 1044 
z
M 3122 2075 
L 3122 331 
L 3634 331 
L 3634 0 
L 2547 0 
L 2547 359 
Q 2356 128 2106 18 
Q 1856 -91 1522 -91 
Q 969 -91 644 203 
Q 319 497 319 997 
Q 319 1513 691 1797 
Q 1063 2081 1741 2081 
L 2547 2081 
L 2547 2309 
Q 2547 2688 2317 2895 
Q 2088 3103 1672 3103 
Q 1328 3103 1125 2947 
Q 922 2791 872 2484 
L 575 2484 
L 575 3156 
Q 875 3284 1158 3348 
Q 1441 3413 1709 3413 
Q 2400 3413 2761 3070 
Q 3122 2728 3122 2075 
z
" transform="scale(0.015625)"/>
     </defs>
     <use xlink:href="#DejaVuSerif-2b"/>
     <use xlink:href="#DejaVuSerif-20" transform="translate(83.789062 0)"/>
     <use xlink:href="#DejaVuSerif-73" transform="translate(115.576172 0)"/>
     <use xlink:href="#DejaVuSerif-75" transform="translate(166.894531 0)"/>
     <use xlink:href="#DejaVuSerif-72" transform="translate(231.298828 0)"/>
     <use xlink:href="#DejaVuSerif-72" transform="translate(279.101562 0)"/>
     <use xlink:href="#DejaVuSerif-6f" transform="translate(326.904297 0)"/>
     <use xlink:href="#DejaVuSerif-67" transform="translate(387.109375 0)"/>
     <use xlink:href="#DejaVuSerif-61" transform="translate(451.123047 0)"/>
     <use xlink:href="#DejaVuSerif-74" transform="translate(510.742188 0)"/>
     <use xlink:href="#DejaVuSerif-65" transform="translate(550.927734 0)"/>
     <use xlink:href="#DejaVuSerif-29" transform="translate(610.107422 0)"/>
    </g>
   </g>
   <g id="text_3">
    <!-- action $\mathbf{a}=\mathbf{x}$ -->
    <g transform="translate(130.84 106.826853) scale(0.08 -0.08)">
     <defs>
      <path id="DejaVuSans-Bold-61" d="M 2106 1575 
Q 1756 1575 1579 1456 
Q 1403 1338 1403 1106 
Q 1403 894 1545 773 
Q 1688 653 1941 653 
Q 2256 653 2472 879 
Q 2688 1106 2688 1447 
L 2688 1575 
L 2106 1575 
z
M 3816 1997 
L 3816 0 
L 2688 0 
L 2688 519 
Q 2463 200 2181 54 
Q 1900 -91 1497 -91 
Q 953 -91 614 226 
Q 275 544 275 1050 
Q 275 1666 698 1953 
Q 1122 2241 2028 2241 
L 2688 2241 
L 2688 2328 
Q 2688 2594 2478 2717 
Q 2269 2841 1825 2841 
Q 1466 2841 1156 2769 
Q 847 2697 581 2553 
L 581 3406 
Q 941 3494 1303 3539 
Q 1666 3584 2028 3584 
Q 2975 3584 3395 3211 
Q 3816 2838 3816 1997 
z
" transform="scale(0.015625)"/>
      <path id="DejaVuSans-3d" d="M 678 2906 
L 4684 2906 
L 4684 2381 
L 678 2381 
L 678 2906 
z
M 678 1631 
L 4684 1631 
L 4684 1100 
L 678 1100 
L 678 1631 
z
" transform="scale(0.015625)"/>
      <path id="DejaVuSans-Bold-78" d="M 1422 1791 
L 159 3500 
L 1344 3500 
L 2059 2463 
L 2784 3500 
L 3969 3500 
L 2706 1797 
L 4031 0 
L 2847 0 
L 2059 1106 
L 1281 0 
L 97 0 
L 1422 1791 
z
" transform="scale(0.015625)"/>
     </defs>
     <use xlink:href="#DejaVuSerif-61" transform="translate(0 0.421875)"/>
     <use xlink:href="#DejaVuSerif-63" transform="translate(59.619141 0.421875)"/>
     <use xlink:href="#DejaVuSerif-74" transform="translate(115.625 0.421875)"/>
     <use xlink:href="#DejaVuSerif-69" transform="translate(155.810547 0.421875)"/>
     <use xlink:href="#DejaVuSerif-6f" transform="translate(187.792969 0.421875)"/>
     <use xlink:href="#DejaVuSerif-6e" transform="translate(247.998047 0.421875)"/>
     <use xlink:href="#DejaVuSerif-20" transform="translate(312.402344 0.421875)"/>
     <use xlink:href="#DejaVuSans-Bold-61" transform="translate(344.189453 0.421875)"/>
     <use xlink:href="#DejaVuSans-3d" transform="translate(431.152344 0.421875)"/>
     <use xlink:href="#DejaVuSans-Bold-78" transform="translate(534.423828 0.421875)"/>
    </g>
   </g>
   <g id="text_4">
    <!-- reward $r = -W - \lambda \sum\max(g_i,0)^2$ -->
    <g transform="translate(92.2 144.318281) scale(0.08 -0.08)">
     <defs>
      <path id="DejaVuSerif-77" d="M 3072 3322 
L 3922 728 
L 4672 2988 
L 4191 2988 
L 4191 3322 
L 5394 3322 
L 5394 2988 
L 5025 2988 
L 4038 0 
L 3559 0 
L 2741 2484 
L 1919 0 
L 1459 0 
L 475 2988 
L 103 2988 
L 103 3322 
L 1606 3322 
L 1606 2988 
L 1069 2988 
L 1813 728 
L 2669 3322 
L 3072 3322 
z
" transform="scale(0.015625)"/>
      <path id="DejaVuSerif-64" d="M 3359 331 
L 3909 331 
L 3909 0 
L 2784 0 
L 2784 519 
Q 2616 206 2355 57 
Q 2094 -91 1709 -91 
Q 1097 -91 708 395 
Q 319 881 319 1663 
Q 319 2444 706 2928 
Q 1094 3413 1709 3413 
Q 2094 3413 2355 3264 
Q 2616 3116 2784 2803 
L 2784 4531 
L 2241 4531 
L 2241 4863 
L 3359 4863 
L 3359 331 
z
M 2784 1497 
L 2784 1825 
Q 2784 2422 2554 2737 
Q 2325 3053 1888 3053 
Q 1444 3053 1217 2703 
Q 991 2353 991 1663 
Q 991 975 1217 622 
Q 1444 269 1888 269 
Q 2325 269 2554 583 
Q 2784 897 2784 1497 
z
" transform="scale(0.015625)"/>
      <path id="DejaVuSans-Oblique-72" d="M 2853 2969 
Q 2766 3016 2653 3041 
Q 2541 3066 2413 3066 
Q 1953 3066 1609 2717 
Q 1266 2369 1153 1784 
L 800 0 
L 225 0 
L 909 3500 
L 1484 3500 
L 1375 2956 
Q 1603 3259 1920 3421 
Q 2238 3584 2597 3584 
Q 2691 3584 2781 3573 
Q 2872 3563 2963 3538 
L 2853 2969 
z
" transform="scale(0.015625)"/>
      <path id="DejaVuSans-2212" d="M 678 2272 
L 4684 2272 
L 4684 1741 
L 678 1741 
L 678 2272 
z
" transform="scale(0.015625)"/>
      <path id="DejaVuSans-Oblique-57" d="M 616 4666 
L 1228 4666 
L 1453 697 
L 3213 4666 
L 3916 4666 
L 4147 697 
L 5888 4666 
L 6528 4666 
L 4453 0 
L 3659 0 
L 3444 3891 
L 1697 0 
L 903 0 
L 616 4666 
z
" transform="scale(0.015625)"/>
      <path id="DejaVuSans-Oblique-3bb" d="M 2350 4316 
L 3125 0 
L 2516 0 
L 2038 2588 
L 328 0 
L -281 0 
L 1903 3356 
L 1794 3975 
Q 1725 4369 1391 4369 
L 1091 4369 
L 1184 4863 
L 1550 4856 
Q 2253 4847 2350 4316 
z
" transform="scale(0.015625)"/>
      <path id="DejaVuSansDisplay-2211" d="M 244 6509 
L 5803 6509 
L 5803 5656 
L 1566 5656 
L 4534 2488 
L 1469 -888 
L 5919 -888 
L 5919 -1738 
L 109 -1738 
L 109 -1078 
L 3316 2463 
L 244 5728 
L 244 6509 
z
" transform="scale(0.015625)"/>
      <path id="DejaVuSans-6d" d="M 3328 2828 
Q 3544 3216 3844 3400 
Q 4144 3584 4550 3584 
Q 5097 3584 5394 3201 
Q 5691 2819 5691 2113 
L 5691 0 
L 5113 0 
L 5113 2094 
Q 5113 2597 4934 2840 
Q 4756 3084 4391 3084 
Q 3944 3084 3684 2787 
Q 3425 2491 3425 1978 
L 3425 0 
L 2847 0 
L 2847 2094 
Q 2847 2600 2669 2842 
Q 2491 3084 2119 3084 
Q 1678 3084 1418 2786 
Q 1159 2488 1159 1978 
L 1159 0 
L 581 0 
L 581 3500 
L 1159 3500 
L 1159 2956 
Q 1356 3278 1631 3431 
Q 1906 3584 2284 3584 
Q 2666 3584 2933 3390 
Q 3200 3197 3328 2828 
z
" transform="scale(0.015625)"/>
      <path id="DejaVuSans-61" d="M 2194 1759 
Q 1497 1759 1228 1600 
Q 959 1441 959 1056 
Q 959 750 1161 570 
Q 1363 391 1709 391 
Q 2188 391 2477 730 
Q 2766 1069 2766 1631 
L 2766 1759 
L 2194 1759 
z
M 3341 1997 
L 3341 0 
L 2766 0 
L 2766 531 
Q 2569 213 2275 61 
Q 1981 -91 1556 -91 
Q 1019 -91 701 211 
Q 384 513 384 1019 
Q 384 1609 779 1909 
Q 1175 2209 1959 2209 
L 2766 2209 
L 2766 2266 
Q 2766 2663 2505 2880 
Q 2244 3097 1772 3097 
Q 1472 3097 1187 3025 
Q 903 2953 641 2809 
L 641 3341 
Q 956 3463 1253 3523 
Q 1550 3584 1831 3584 
Q 2591 3584 2966 3190 
Q 3341 2797 3341 1997 
z
" transform="scale(0.015625)"/>
      <path id="DejaVuSans-78" d="M 3513 3500 
L 2247 1797 
L 3578 0 
L 2900 0 
L 1881 1375 
L 863 0 
L 184 0 
L 1544 1831 
L 300 3500 
L 978 3500 
L 1906 2253 
L 2834 3500 
L 3513 3500 
z
" transform="scale(0.015625)"/>
      <path id="DejaVuSans-28" d="M 1984 4856 
Q 1566 4138 1362 3434 
Q 1159 2731 1159 2009 
Q 1159 1288 1364 580 
Q 1569 -128 1984 -844 
L 1484 -844 
Q 1016 -109 783 600 
Q 550 1309 550 2009 
Q 550 2706 781 3412 
Q 1013 4119 1484 4856 
L 1984 4856 
z
" transform="scale(0.015625)"/>
      <path id="DejaVuSans-Oblique-67" d="M 3816 3500 
L 3219 434 
Q 3047 -456 2561 -893 
Q 2075 -1331 1253 -1331 
Q 950 -1331 690 -1286 
Q 431 -1241 206 -1147 
L 313 -588 
Q 525 -725 762 -790 
Q 1000 -856 1269 -856 
Q 1816 -856 2167 -557 
Q 2519 -259 2631 300 
L 2681 563 
Q 2441 288 2122 144 
Q 1803 0 1434 0 
Q 903 0 598 351 
Q 294 703 294 1319 
Q 294 1803 478 2267 
Q 663 2731 997 3091 
Q 1219 3328 1514 3456 
Q 1809 3584 2131 3584 
Q 2484 3584 2746 3420 
Q 3009 3256 3138 2956 
L 3238 3500 
L 3816 3500 
z
M 2950 2216 
Q 2950 2641 2750 2872 
Q 2550 3103 2181 3103 
Q 1953 3103 1747 3012 
Q 1541 2922 1394 2759 
Q 1156 2491 1023 2127 
Q 891 1763 891 1375 
Q 891 944 1092 712 
Q 1294 481 1672 481 
Q 2219 481 2584 976 
Q 2950 1472 2950 2216 
z
" transform="scale(0.015625)"/>
      <path id="DejaVuSans-Oblique-69" d="M 1172 4863 
L 1747 4863 
L 1606 4134 
L 1031 4134 
L 1172 4863 
z
M 909 3500 
L 1484 3500 
L 800 0 
L 225 0 
L 909 3500 
z
" transform="scale(0.015625)"/>
      <path id="DejaVuSans-2c" d="M 750 794 
L 1409 794 
L 1409 256 
L 897 -744 
L 494 -744 
L 750 256 
L 750 794 
z
" transform="scale(0.015625)"/>
      <path id="DejaVuSans-30" d="M 2034 4250 
Q 1547 4250 1301 3770 
Q 1056 3291 1056 2328 
Q 1056 1369 1301 889 
Q 1547 409 2034 409 
Q 2525 409 2770 889 
Q 3016 1369 3016 2328 
Q 3016 3291 2770 3770 
Q 2525 4250 2034 4250 
z
M 2034 4750 
Q 2819 4750 3233 4129 
Q 3647 3509 3647 2328 
Q 3647 1150 3233 529 
Q 2819 -91 2034 -91 
Q 1250 -91 836 529 
Q 422 1150 422 2328 
Q 422 3509 836 4129 
Q 1250 4750 2034 4750 
z
" transform="scale(0.015625)"/>
      <path id="DejaVuSans-29" d="M 513 4856 
L 1013 4856 
Q 1481 4119 1714 3412 
Q 1947 2706 1947 2009 
Q 1947 1309 1714 600 
Q 1481 -109 1013 -844 
L 513 -844 
Q 928 -128 1133 580 
Q 1338 1288 1338 2009 
Q 1338 2731 1133 3434 
Q 928 4138 513 4856 
z
" transform="scale(0.015625)"/>
      <path id="DejaVuSans-32" d="M 1228 531 
L 3431 531 
L 3431 0 
L 469 0 
L 469 531 
Q 828 903 1448 1529 
Q 2069 2156 2228 2338 
Q 2531 2678 2651 2914 
Q 2772 3150 2772 3378 
Q 2772 3750 2511 3984 
Q 2250 4219 1831 4219 
Q 1534 4219 1204 4116 
Q 875 4013 500 3803 
L 500 4441 
Q 881 4594 1212 4672 
Q 1544 4750 1819 4750 
Q 2544 4750 2975 4387 
Q 3406 4025 3406 3419 
Q 3406 3131 3298 2873 
Q 3191 2616 2906 2266 
Q 2828 2175 2409 1742 
Q 1991 1309 1228 531 
z
" transform="scale(0.015625)"/>
     </defs>
     <use xlink:href="#DejaVuSerif-72" transform="translate(0 0.296875)"/>
     <use xlink:href="#DejaVuSerif-65" transform="translate(47.802734 0.296875)"/>
     <use xlink:href="#DejaVuSerif-77" transform="translate(106.982422 0.296875)"/>
     <use xlink:href="#DejaVuSerif-61" transform="translate(192.578125 0.296875)"/>
     <use xlink:href="#DejaVuSerif-72" transform="translate(252.197266 0.296875)"/>
     <use xlink:href="#DejaVuSerif-64" transform="translate(300 0.296875)"/>
     <use xlink:href="#DejaVuSerif-20" transform="translate(364.013672 0.296875)"/>
     <use xlink:href="#DejaVuSans-Oblique-72" transform="translate(395.800781 0.296875)"/>
     <use xlink:href="#DejaVuSans-3d" transform="translate(456.396484 0.296875)"/>
     <use xlink:href="#DejaVuSans-2212" transform="translate(559.667969 0.296875)"/>
     <use xlink:href="#DejaVuSans-Oblique-57" transform="translate(643.457031 0.296875)"/>
     <use xlink:href="#DejaVuSans-2212" transform="translate(761.816406 0.296875)"/>
     <use xlink:href="#DejaVuSans-Oblique-3bb" transform="translate(865.087891 0.296875)"/>
     <use xlink:href="#DejaVuSansDisplay-2211" transform="translate(924.267578 0.296875)"/>
     <use xlink:href="#DejaVuSans-6d" transform="translate(1019.53125 0.296875)"/>
     <use xlink:href="#DejaVuSans-61" transform="translate(1116.943359 0.296875)"/>
     <use xlink:href="#DejaVuSans-78" transform="translate(1178.222656 0.296875)"/>
     <use xlink:href="#DejaVuSans-28" transform="translate(1237.402344 0.296875)"/>
     <use xlink:href="#DejaVuSans-Oblique-67" transform="translate(1276.416016 0.296875)"/>
     <use xlink:href="#DejaVuSans-Oblique-69" transform="translate(1339.892578 -16.109375) scale(0.7)"/>
     <use xlink:href="#DejaVuSans-2c" transform="translate(1362.075195 0.296875)"/>
     <use xlink:href="#DejaVuSans-30" transform="translate(1413.344727 0.296875)"/>
     <use xlink:href="#DejaVuSans-29" transform="translate(1476.967773 0.296875)"/>
     <use xlink:href="#DejaVuSans-32" transform="translate(1516.938477 38.578125) scale(0.7)"/>
    </g>
   </g>
   <g id="text_5">
    <!-- obs: bounds, load, groups -->
    <g transform="translate(102.6375 152.64971) scale(0.08 -0.08)">
     <defs>
      <path id="DejaVuSerif-62" d="M 738 331 
L 738 4531 
L 184 4531 
L 184 4863 
L 1313 4863 
L 1313 2803 
Q 1481 3116 1742 3264 
Q 2003 3413 2388 3413 
Q 3000 3413 3387 2928 
Q 3775 2444 3775 1663 
Q 3775 881 3387 395 
Q 3000 -91 2388 -91 
Q 2003 -91 1742 57 
Q 1481 206 1313 519 
L 1313 0 
L 184 0 
L 184 331 
L 738 331 
z
M 1313 1497 
Q 1313 897 1542 583 
Q 1772 269 2209 269 
Q 2650 269 2876 622 
Q 3103 975 3103 1663 
Q 3103 2353 2876 2703 
Q 2650 3053 2209 3053 
Q 1772 3053 1542 2737 
Q 1313 2422 1313 1825 
L 1313 1497 
z
" transform="scale(0.015625)"/>
      <path id="DejaVuSerif-3a" d="M 666 325 
Q 666 500 786 622 
Q 906 744 1081 744 
Q 1256 744 1376 622 
Q 1497 500 1497 325 
Q 1497 150 1378 29 
Q 1259 -91 1081 -91 
Q 903 -91 784 29 
Q 666 150 666 325 
z
M 666 2363 
Q 666 2538 786 2658 
Q 906 2778 1081 2778 
Q 1259 2778 1378 2659 
Q 1497 2541 1497 2363 
Q 1497 2184 1378 2065 
Q 1259 1947 1081 1947 
Q 906 1947 786 2067 
Q 666 2188 666 2363 
z
" transform="scale(0.015625)"/>
      <path id="DejaVuSerif-2c" d="M 231 -622 
Q 525 -406 662 -114 
Q 800 178 800 594 
L 800 709 
L 1416 709 
Q 1391 175 1164 -208 
Q 938 -591 481 -872 
L 231 -622 
z
" transform="scale(0.015625)"/>
     </defs>
     <use xlink:href="#DejaVuSerif-6f"/>
     <use xlink:href="#DejaVuSerif-62" transform="translate(60.205078 0)"/>
     <use xlink:href="#DejaVuSerif-73" transform="translate(124.21875 0)"/>
     <use xlink:href="#DejaVuSerif-3a" transform="translate(175.537109 0)"/>
     <use xlink:href="#DejaVuSerif-20" transform="translate(209.228516 0)"/>
     <use xlink:href="#DejaVuSerif-62" transform="translate(241.015625 0)"/>
     <use xlink:href="#DejaVuSerif-6f" transform="translate(305.029297 0)"/>
     <use xlink:href="#DejaVuSerif-75" transform="translate(365.234375 0)"/>
     <use xlink:href="#DejaVuSerif-6e" transform="translate(429.638672 0)"/>
     <use xlink:href="#DejaVuSerif-64" transform="translate(494.042969 0)"/>
     <use xlink:href="#DejaVuSerif-73" transform="translate(558.056641 0)"/>
     <use xlink:href="#DejaVuSerif-2c" transform="translate(609.375 0)"/>
     <use xlink:href="#DejaVuSerif-20" transform="translate(641.162109 0)"/>
     <use xlink:href="#DejaVuSerif-6c" transform="translate(672.949219 0)"/>
     <use xlink:href="#DejaVuSerif-6f" transform="translate(704.931641 0)"/>
     <use xlink:href="#DejaVuSerif-61" transform="translate(765.136719 0)"/>
     <use xlink:href="#DejaVuSerif-64" transform="translate(824.755859 0)"/>
     <use xlink:href="#DejaVuSerif-2c" transform="translate(888.769531 0)"/>
     <use xlink:href="#DejaVuSerif-20" transform="translate(920.556641 0)"/>
     <use xlink:href="#DejaVuSerif-67" transform="translate(952.34375 0)"/>
     <use xlink:href="#DejaVuSerif-72" transform="translate(1016.357422 0)"/>
     <use xlink:href="#DejaVuSerif-6f" transform="translate(1064.160156 0)"/>
     <use xlink:href="#DejaVuSerif-75" transform="translate(1124.365234 0)"/>
     <use xlink:href="#DejaVuSerif-70" transform="translate(1188.769531 0)"/>
     <use xlink:href="#DejaVuSerif-73" transform="translate(1252.783203 0)"/>
    </g>
   </g>
   <g id="text_6">
    <!-- single-step bandit: one action produces one design -->
    <g style="fill: #555555" transform="translate(51.525625 187.363996) scale(0.08 -0.08)">
     <defs>
      <path id="DejaVuSerif-2d" d="M 281 1959 
L 1881 1959 
L 1881 1472 
L 281 1472 
L 281 1959 
z
" transform="scale(0.015625)"/>
     </defs>
     <use xlink:href="#DejaVuSerif-73"/>
     <use xlink:href="#DejaVuSerif-69" transform="translate(51.318359 0)"/>
     <use xlink:href="#DejaVuSerif-6e" transform="translate(83.300781 0)"/>
     <use xlink:href="#DejaVuSerif-67" transform="translate(147.705078 0)"/>
     <use xlink:href="#DejaVuSerif-6c" transform="translate(211.71875 0)"/>
     <use xlink:href="#DejaVuSerif-65" transform="translate(243.701172 0)"/>
     <use xlink:href="#DejaVuSerif-2d" transform="translate(302.880859 0)"/>
     <use xlink:href="#DejaVuSerif-73" transform="translate(336.669922 0)"/>
     <use xlink:href="#DejaVuSerif-74" transform="translate(387.988281 0)"/>
     <use xlink:href="#DejaVuSerif-65" transform="translate(428.173828 0)"/>
     <use xlink:href="#DejaVuSerif-70" transform="translate(487.353516 0)"/>
     <use xlink:href="#DejaVuSerif-20" transform="translate(551.367188 0)"/>
     <use xlink:href="#DejaVuSerif-62" transform="translate(583.154297 0)"/>
     <use xlink:href="#DejaVuSerif-61" transform="translate(647.167969 0)"/>
     <use xlink:href="#DejaVuSerif-6e" transform="translate(706.787109 0)"/>
     <use xlink:href="#DejaVuSerif-64" transform="translate(771.191406 0)"/>
     <use xlink:href="#DejaVuSerif-69" transform="translate(835.205078 0)"/>
     <use xlink:href="#DejaVuSerif-74" transform="translate(867.1875 0)"/>
     <use xlink:href="#DejaVuSerif-3a" transform="translate(907.373047 0)"/>
     <use xlink:href="#DejaVuSerif-20" transform="translate(941.064453 0)"/>
     <use xlink:href="#DejaVuSerif-6f" transform="translate(972.851562 0)"/>
     <use xlink:href="#DejaVuSerif-6e" transform="translate(1033.056641 0)"/>
     <use xlink:href="#DejaVuSerif-65" transform="translate(1097.460938 0)"/>
     <use xlink:href="#DejaVuSerif-20" transform="translate(1156.640625 0)"/>
     <use xlink:href="#DejaVuSerif-61" transform="translate(1188.427734 0)"/>
     <use xlink:href="#DejaVuSerif-63" transform="translate(1248.046875 0)"/>
     <use xlink:href="#DejaVuSerif-74" transform="translate(1304.052734 0)"/>
     <use xlink:href="#DejaVuSerif-69" transform="translate(1344.238281 0)"/>
     <use xlink:href="#DejaVuSerif-6f" transform="translate(1376.220703 0)"/>
     <use xlink:href="#DejaVuSerif-6e" transform="translate(1436.425781 0)"/>
     <use xlink:href="#DejaVuSerif-20" transform="translate(1500.830078 0)"/>
     <use xlink:href="#DejaVuSerif-70" transform="translate(1532.617188 0)"/>
     <use xlink:href="#DejaVuSerif-72" transform="translate(1596.630859 0)"/>
     <use xlink:href="#DejaVuSerif-6f" transform="translate(1644.433594 0)"/>
     <use xlink:href="#DejaVuSerif-64" transform="translate(1704.638672 0)"/>
     <use xlink:href="#DejaVuSerif-75" transform="translate(1768.652344 0)"/>
     <use xlink:href="#DejaVuSerif-63" transform="translate(1833.056641 0)"/>
     <use xlink:href="#DejaVuSerif-65" transform="translate(1889.0625 0)"/>
     <use xlink:href="#DejaVuSerif-73" transform="translate(1948.242188 0)"/>
     <use xlink:href="#DejaVuSerif-20" transform="translate(1999.560547 0)"/>
     <use xlink:href="#DejaVuSerif-6f" transform="translate(2031.347656 0)"/>
     <use xlink:href="#DejaVuSerif-6e" transform="translate(2091.552734 0)"/>
     <use xlink:href="#DejaVuSerif-65" transform="translate(2155.957031 0)"/>
     <use xlink:href="#DejaVuSerif-20" transform="translate(2215.136719 0)"/>
     <use xlink:href="#DejaVuSerif-64" transform="translate(2246.923828 0)"/>
     <use xlink:href="#DejaVuSerif-65" transform="translate(2310.9375 0)"/>
     <use xlink:href="#DejaVuSerif-73" transform="translate(2370.117188 0)"/>
     <use xlink:href="#DejaVuSerif-69" transform="translate(2421.435547 0)"/>
     <use xlink:href="#DejaVuSerif-67" transform="translate(2453.417969 0)"/>
     <use xlink:href="#DejaVuSerif-6e" transform="translate(2517.431641 0)"/>
    </g>
   </g>
   <g id="text_7">
    <!-- Reinforcement-learning environment -->
    <g transform="translate(51.302891 11.958281) scale(0.11 -0.11)">
     <defs>
      <path id="DejaVuSerif-52" d="M 3066 2316 
Q 3284 2256 3442 2114 
Q 3600 1972 3725 1716 
L 4403 331 
L 4972 331 
L 4972 0 
L 3872 0 
L 3144 1484 
Q 2934 1916 2759 2042 
Q 2584 2169 2278 2169 
L 1581 2169 
L 1581 331 
L 2241 331 
L 2241 0 
L 353 0 
L 353 331 
L 947 331 
L 947 4331 
L 353 4331 
L 353 4666 
L 2719 4666 
Q 3400 4666 3770 4341 
Q 4141 4016 4141 3419 
Q 4141 2938 3870 2661 
Q 3600 2384 3066 2316 
z
M 1581 2503 
L 2503 2503 
Q 2975 2503 3200 2726 
Q 3425 2950 3425 3419 
Q 3425 3888 3200 4109 
Q 2975 4331 2503 4331 
L 1581 4331 
L 1581 2503 
z
" transform="scale(0.015625)"/>
      <path id="DejaVuSerif-66" d="M 2753 4078 
L 2450 4078 
Q 2447 4313 2317 4434 
Q 2188 4556 1941 4556 
Q 1619 4556 1487 4379 
Q 1356 4203 1356 3750 
L 1356 3322 
L 2284 3322 
L 2284 2988 
L 1356 2988 
L 1356 331 
L 2094 331 
L 2094 0 
L 231 0 
L 231 331 
L 781 331 
L 781 2988 
L 231 2988 
L 231 3322 
L 781 3322 
L 781 3738 
Q 781 4294 1070 4578 
Q 1359 4863 1919 4863 
Q 2128 4863 2337 4825 
Q 2547 4788 2753 4709 
L 2753 4078 
z
" transform="scale(0.015625)"/>
     </defs>
     <use xlink:href="#DejaVuSerif-52"/>
     <use xlink:href="#DejaVuSerif-65" transform="translate(75.292969 0)"/>
     <use xlink:href="#DejaVuSerif-69" transform="translate(134.472656 0)"/>
     <use xlink:href="#DejaVuSerif-6e" transform="translate(166.455078 0)"/>
     <use xlink:href="#DejaVuSerif-66" transform="translate(230.859375 0)"/>
     <use xlink:href="#DejaVuSerif-6f" transform="translate(267.871094 0)"/>
     <use xlink:href="#DejaVuSerif-72" transform="translate(328.076172 0)"/>
     <use xlink:href="#DejaVuSerif-63" transform="translate(375.878906 0)"/>
     <use xlink:href="#DejaVuSerif-65" transform="translate(431.884766 0)"/>
     <use xlink:href="#DejaVuSerif-6d" transform="translate(491.064453 0)"/>
     <use xlink:href="#DejaVuSerif-65" transform="translate(585.888672 0)"/>
     <use xlink:href="#DejaVuSerif-6e" transform="translate(645.068359 0)"/>
     <use xlink:href="#DejaVuSerif-74" transform="translate(709.472656 0)"/>
     <use xlink:href="#DejaVuSerif-2d" transform="translate(749.658203 0)"/>
     <use xlink:href="#DejaVuSerif-6c" transform="translate(783.447266 0)"/>
     <use xlink:href="#DejaVuSerif-65" transform="translate(815.429688 0)"/>
     <use xlink:href="#DejaVuSerif-61" transform="translate(874.609375 0)"/>
     <use xlink:href="#DejaVuSerif-72" transform="translate(934.228516 0)"/>
     <use xlink:href="#DejaVuSerif-6e" transform="translate(982.03125 0)"/>
     <use xlink:href="#DejaVuSerif-69" transform="translate(1046.435547 0)"/>
     <use xlink:href="#DejaVuSerif-6e" transform="translate(1078.417969 0)"/>
     <use xlink:href="#DejaVuSerif-67" transform="translate(1142.822266 0)"/>
     <use xlink:href="#DejaVuSerif-20" transform="translate(1206.835938 0)"/>
     <use xlink:href="#DejaVuSerif-65" transform="translate(1238.623047 0)"/>
     <use xlink:href="#DejaVuSerif-6e" transform="translate(1297.802734 0)"/>
     <use xlink:href="#DejaVuSerif-76" transform="translate(1362.207031 0)"/>
     <use xlink:href="#DejaVuSerif-69" transform="translate(1418.701172 0)"/>
     <use xlink:href="#DejaVuSerif-72" transform="translate(1450.683594 0)"/>
     <use xlink:href="#DejaVuSerif-6f" transform="translate(1498.486328 0)"/>
     <use xlink:href="#DejaVuSerif-6e" transform="translate(1558.691406 0)"/>
     <use xlink:href="#DejaVuSerif-6d" transform="translate(1623.095703 0)"/>
     <use xlink:href="#DejaVuSerif-65" transform="translate(1717.919922 0)"/>
     <use xlink:href="#DejaVuSerif-6e" transform="translate(1777.099609 0)"/>
     <use xlink:href="#DejaVuSerif-74" transform="translate(1841.503906 0)"/>
    </g>
   </g>
  </g>
 </g>
 <defs>
  <clipPath id="pe2ce1f332f">
   <rect x="3.6" y="17.958281" width="302.4" height="194.4"/>
  </clipPath>
 </defs>
</svg>
