<?xml version="1.0" encoding="utf-8" standalone="no"?>
<!DOCTYPE svg PUBLIC "-//W3C//DTD SVG 1.1//EN"
  "http://www.w3.org/Graphics/SVG/1.1/DTD/svg11.dtd">
<svg xmlns:xlink="http://www.w3.org/1999/xlink" width="356.948684pt" height="227.842513pt" viewBox="0 0 356.948684 227.842513" xmlns="http://www.w3.org/2000/svg" version="1.1">
 <metadata>
  <rdf:RDF xmlns:dc="http://purl.org/dc/elements/1.1/" xmlns:cc="http://creativecommons.org/ns#" xmlns:rdf="http://www.w3.org/1999/02/22-rdf-syntax-ns#">
   <cc:Work>
    <dc:type rdf:resource="http://purl.org/dc/dcmitype/StillImage"/>
    <dc:date>2026-04-24T15:22:19.858520</dc:date>
    <dc:format>image/svg+xml</dc:format>
    <dc:creator>
     <cc:Agent>
      <dc:title>Matplotlib v3.10.8, https://matplotlib.org/</dc:title>
     </cc:Agent>
    </dc:creator>
   </cc:Work>
  </rdf:RDF>
 </metadata>
 <defs>
  <style type="text/css">*{stroke-linejoin: round; stroke-linecap: butt}</style>
 </defs>
 <g id="figure_1">
  <g id="patch_1">
   <path d="M 0 227.842513 
L 356.948684 227.842513 
L 356.948684 0 
L 0 0 
z
" style="fill: #ffffff"/>
  </g>
  <g id="axes_1">
   <g id="patch_2">
    <path d="M 334.947447 187.00889 
Q 334.947447 187.260714 334.947447 185.500077 
" clip-path="url(#p8688405626)" style="fill: none; stroke: #d62728; stroke-width: 1.8; stroke-linecap: round"/>
    <path d="M 337.347447 180.700077 
L 334.947447 185.500077 
L 332.547447 180.700077 
z
" clip-path="url(#p8688405626)" style="fill: #d62728; stroke: #d62728; stroke-width: 1.8; stroke-linecap: round"/>
   </g>
   <g id="patch_3">
    <path d="M 178.474342 187.00889 
Q 178.474342 187.260714 178.474342 185.500077 
" clip-path="url(#p8688405626)" style="fill: none; stroke: #d62728; stroke-width: 1.8; stroke-linecap: round"/>
    <path d="M 180.874342 180.700077 
L 178.474342 185.500077 
L 176.074342 180.700077 
z
" clip-path="url(#p8688405626)" style="fill: #d62728; stroke: #d62728; stroke-width: 1.8; stroke-linecap: round"/>
   </g>
   <g id="line2d_1">
    <path d="M 22.001237 28.535863 
L 178.474342 28.535863 
" clip-path="url(#p8688405626)" style="fill: none; stroke: #000000; stroke-width: 2; stroke-linecap: square"/>
   </g>
   <g id="line2d_2">
    <path d="M 178.474342 28.535863 
L 334.947447 28.535863 
" clip-path="url(#p8688405626)" style="fill: none; stroke: #000000; stroke-width: 2; stroke-linecap: square"/>
   </g>
   <g id="line2d_3">
    <path d="M 22.001237 185.008968 
L 178.474342 185.008968 
" clip-path="url(#p8688405626)" style="fill: none; stroke: #000000; stroke-width: 2; stroke-linecap: square"/>
   </g>
   <g id="line2d_4">
    <path d="M 178.474342 185.008968 
L 334.947447 185.008968 
" clip-path="url(#p8688405626)" style="fill: none; stroke: #000000; stroke-width: 2; stroke-linecap: square"/>
   </g>
   <g id="line2d_5">
    <path d="M 178.474342 28.535863 
L 178.474342 185.008968 
" clip-path="url(#p8688405626)" style="fill: none; stroke: #000000; stroke-width: 2; stroke-linecap: square"/>
   </g>
   <g id="line2d_6">
    <path d="M 334.947447 28.535863 
L 334.947447 185.008968 
" clip-path="url(#p8688405626)" style="fill: none; stroke: #000000; stroke-width: 2; stroke-linecap: square"/>
   </g>
   <g id="line2d_7">
    <path d="M 178.474342 185.008968 
L 22.001237 28.535863 
" clip-path="url(#p8688405626)" style="fill: none; stroke: #000000; stroke-width: 2; stroke-linecap: square"/>
   </g>
   <g id="line2d_8">
    <path d="M 178.474342 28.535863 
L 22.001237 185.008968 
" clip-path="url(#p8688405626)" style="fill: none; stroke: #000000; stroke-width: 2; stroke-linecap: square"/>
   </g>
   <g id="line2d_9">
    <path d="M 334.947447 185.008968 
L 178.474342 28.535863 
" clip-path="url(#p8688405626)" style="fill: none; stroke: #000000; stroke-width: 2; stroke-linecap: square"/>
   </g>
   <g id="line2d_10">
    <path d="M 334.947447 28.535863 
L 178.474342 185.008968 
" clip-path="url(#p8688405626)" style="fill: none; stroke: #000000; stroke-width: 2; stroke-linecap: square"/>
   </g>
   <g id="patch_4">
    <path d="M 334.947447 31.039433 
C 335.611402 31.039433 336.248252 30.775641 336.717738 30.306154 
C 337.187225 29.836668 337.451017 29.199818 337.451017 28.535863 
C 337.451017 27.871909 337.187225 27.235059 336.717738 26.765572 
C 336.248252 26.296085 335.611402 26.032293 334.947447 26.032293 
C 334.283493 26.032293 333.646643 26.296085 333.177156 26.765572 
C 332.70767 27.235059 332.443878 27.871909 332.443878 28.535863 
C 332.443878 29.199818 332.70767 29.836668 333.177156 30.306154 
C 333.646643 30.775641 334.283493 31.039433 334.947447 31.039433 
z
" clip-path="url(#p8688405626)" style="fill: #ffffff; stroke: #1f4b73; stroke-width: 1.2; stroke-linejoin: miter"/>
   </g>
   <g id="text_1">
    <!-- 0 -->
    <g style="fill: #1f77b4" transform="translate(330.253254 23.84167) scale(0.08 -0.08)">
     <defs>
      <path id="DejaVuSerif-30" d="M 2034 219 
Q 2513 219 2750 744 
Q 2988 1269 2988 2328 
Q 2988 3391 2750 3916 
Q 2513 4441 2034 4441 
Q 1556 4441 1318 3916 
Q 1081 3391 1081 2328 
Q 1081 1269 1318 744 
Q 1556 219 2034 219 
z
M 2034 -91 
Q 1275 -91 848 546 
Q 422 1184 422 2328 
Q 422 3475 848 4112 
Q 1275 4750 2034 4750 
Q 2797 4750 3222 4112 
Q 3647 3475 3647 2328 
Q 3647 1184 3222 546 
Q 2797 -91 2034 -91 
z
" transform="scale(0.015625)"/>
     </defs>
     <use xlink:href="#DejaVuSerif-30"/>
    </g>
   </g>
   <g id="patch_5">
    <path d="M 334.947447 187.512538 
C 335.611402 187.512538 336.248252 187.248746 336.717738 186.779259 
C 337.187225 186.309773 337.451017 185.672923 337.451017 185.008968 
C 337.451017 184.345014 337.187225 183.708164 336.717738 183.238677 
C 336.248252 182.76919 335.611402 182.505399 334.947447 182.505399 
C 334.283493 182.505399 333.646643 182.76919 333.177156 183.238677 
C 332.70767 183.708164 332.443878 184.345014 332.443878 185.008968 
C 332.443878 185.672923 332.70767 186.309773 333.177156 186.779259 
C 333.646643 187.248746 334.283493 187.512538 334.947447 187.512538 
z
" clip-path="url(#p8688405626)" style="fill: #ffffff; stroke: #1f4b73; stroke-width: 1.2; stroke-linejoin: miter"/>
   </g>
   <g id="text_2">
    <!-- 1 -->
    <g style="fill: #1f77b4" transform="translate(330.253254 180.314775) scale(0.08 -0.08)">
     <defs>
      <path id="DejaVuSerif-31" d="M 909 0 
L 909 331 
L 1722 331 
L 1722 4213 
L 781 3603 
L 781 4013 
L 1919 4750 
L 2350 4750 
L 2350 331 
L 3163 331 
L 3163 0 
L 909 0 
z
" transform="scale(0.015625)"/>
     </defs>
     <use xlink:href="#DejaVuSerif-31"/>
    </g>
   </g>
   <g id="patch_6">
    <path d="M 178.474342 31.039433 
C 179.138297 31.039433 179.775147 30.775641 180.244633 30.306154 
C 180.71412 29.836668 180.977912 29.199818 180.977912 28.535863 
C 180.977912 27.871909 180.71412 27.235059 180.244633 26.765572 
C 179.775147 26.296085 179.138297 26.032293 178.474342 26.032293 
C 177.810388 26.032293 177.173538 26.296085 176.704051 26.765572 
C 176.234564 27.235059 175.970773 27.871909 175.970773 28.535863 
C 175.970773 29.199818 176.234564 29.836668 176.704051 30.306154 
C 177.173538 30.775641 177.810388 31.039433 178.474342 31.039433 
z
" clip-path="url(#p8688405626)" style="fill: #ffffff; stroke: #1f4b73; stroke-width: 1.2; stroke-linejoin: miter"/>
   </g>
   <g id="text_3">
    <!-- 2 -->
    <g style="fill: #1f77b4" transform="translate(173.780149 23.84167) scale(0.08 -0.08)">
     <defs>
      <path id="DejaVuSerif-32" d="M 819 3553 
L 469 3553 
L 469 4384 
Q 803 4563 1142 4656 
Q 1481 4750 1806 4750 
Q 2534 4750 2956 4397 
Q 3378 4044 3378 3438 
Q 3378 2753 2422 1800 
Q 2347 1728 2309 1691 
L 1131 513 
L 3078 513 
L 3078 1088 
L 3444 1088 
L 3444 0 
L 434 0 
L 434 341 
L 1850 1753 
Q 2319 2222 2519 2614 
Q 2719 3006 2719 3438 
Q 2719 3909 2473 4175 
Q 2228 4441 1797 4441 
Q 1350 4441 1106 4219 
Q 863 3997 819 3553 
z
" transform="scale(0.015625)"/>
     </defs>
     <use xlink:href="#DejaVuSerif-32"/>
    </g>
   </g>
   <g id="patch_7">
    <path d="M 178.474342 187.512538 
C 179.138297 187.512538 179.775147 187.248746 180.244633 186.779259 
C 180.71412 186.309773 180.977912 185.672923 180.977912 185.008968 
C 180.977912 184.345014 180.71412 183.708164 180.244633 183.238677 
C 179.775147 182.76919 179.138297 182.505399 178.474342 182.505399 
C 177.810388 182.505399 177.173538 182.76919 176.704051 183.238677 
C 176.234564 183.708164 175.970773 184.345014 175.970773 185.008968 
C 175.970773 185.672923 176.234564 186.309773 176.704051 186.779259 
C 177.173538 187.248746 177.810388 187.512538 178.474342 187.512538 
z
" clip-path="url(#p8688405626)" style="fill: #ffffff; stroke: #1f4b73; stroke-width: 1.2; stroke-linejoin: miter"/>
   </g>
   <g id="text_4">
    <!-- 3 -->
    <g style="fill: #1f77b4" transform="translate(173.780149 180.314775) scale(0.08 -0.08)">
     <defs>
      <path id="DejaVuSerif-33" d="M 622 4469 
Q 988 4606 1323 4678 
Q 1659 4750 1953 4750 
Q 2638 4750 3022 4454 
Q 3406 4159 3406 3634 
Q 3406 3213 3140 2930 
Q 2875 2647 2388 2547 
Q 2963 2466 3280 2130 
Q 3597 1794 3597 1259 
Q 3597 606 3158 257 
Q 2719 -91 1894 -91 
Q 1528 -91 1179 -12 
Q 831 66 488 225 
L 488 1131 
L 838 1131 
Q 869 681 1141 450 
Q 1413 219 1906 219 
Q 2384 219 2661 495 
Q 2938 772 2938 1253 
Q 2938 1803 2653 2086 
Q 2369 2369 1819 2369 
L 1522 2369 
L 1522 2688 
L 1678 2688 
Q 2225 2688 2498 2914 
Q 2772 3141 2772 3597 
Q 2772 4006 2547 4223 
Q 2322 4441 1900 4441 
Q 1478 4441 1245 4241 
Q 1013 4041 972 3647 
L 622 3647 
L 622 4469 
z
" transform="scale(0.015625)"/>
     </defs>
     <use xlink:href="#DejaVuSerif-33"/>
    </g>
   </g>
   <g id="patch_8">
    <path d="M 22.001237 31.039433 
C 22.665192 31.039433 23.302042 30.775641 23.771528 30.306154 
C 24.241015 29.836668 24.504807 29.199818 24.504807 28.535863 
C 24.504807 27.871909 24.241015 27.235059 23.771528 26.765572 
C 23.302042 26.296085 22.665192 26.032293 22.001237 26.032293 
C 21.337283 26.032293 20.700433 26.296085 20.230946 26.765572 
C 19.761459 27.235059 19.497667 27.871909 19.497667 28.535863 
C 19.497667 29.199818 19.761459 29.836668 20.230946 30.306154 
C 20.700433 30.775641 21.337283 31.039433 22.001237 31.039433 
z
" clip-path="url(#p8688405626)" style="fill: #ffffff; stroke: #1f4b73; stroke-width: 1.2; stroke-linejoin: miter"/>
   </g>
   <g id="text_5">
    <!-- 4 -->
    <g style="fill: #1f77b4" transform="translate(17.307044 23.84167) scale(0.08 -0.08)">
     <defs>
      <path id="DejaVuSerif-34" d="M 2234 1581 
L 2234 4063 
L 641 1581 
L 2234 1581 
z
M 3609 0 
L 1484 0 
L 1484 331 
L 2234 331 
L 2234 1247 
L 197 1247 
L 197 1588 
L 2241 4750 
L 2859 4750 
L 2859 1581 
L 3750 1581 
L 3750 1247 
L 2859 1247 
L 2859 331 
L 3609 331 
L 3609 0 
z
" transform="scale(0.015625)"/>
     </defs>
     <use xlink:href="#DejaVuSerif-34"/>
    </g>
   </g>
   <g id="patch_9">
    <path d="M 22.001237 187.512538 
C 22.665192 187.512538 23.302042 187.248746 23.771528 186.779259 
C 24.241015 186.309773 24.504807 185.672923 24.504807 185.008968 
C 24.504807 184.345014 24.241015 183.708164 23.771528 183.238677 
C 23.302042 182.76919 22.665192 182.505399 22.001237 182.505399 
C 21.337283 182.505399 20.700433 182.76919 20.230946 183.238677 
C 19.761459 183.708164 19.497667 184.345014 19.497667 185.008968 
C 19.497667 185.672923 19.761459 186.309773 20.230946 186.779259 
C 20.700433 187.248746 21.337283 187.512538 22.001237 187.512538 
z
" clip-path="url(#p8688405626)" style="fill: #ffffff; stroke: #1f4b73; stroke-width: 1.2; stroke-linejoin: miter"/>
   </g>
   <g id="text_6">
    <!-- 5 -->
    <g style="fill: #1f77b4" transform="translate(17.307044 180.314775) scale(0.08 -0.08)">
     <defs>
      <path id="DejaVuSerif-35" d="M 3219 4666 
L 3219 4153 
L 1081 4153 
L 1081 2816 
Q 1244 2928 1461 2984 
Q 1678 3041 1947 3041 
Q 2703 3041 3140 2622 
Q 3578 2203 3578 1478 
Q 3578 738 3136 323 
Q 2694 -91 1894 -91 
Q 1572 -91 1234 -12 
Q 897 66 544 225 
L 544 1131 
L 897 1131 
Q 925 688 1179 453 
Q 1434 219 1894 219 
Q 2388 219 2653 544 
Q 2919 869 2919 1478 
Q 2919 2084 2655 2407 
Q 2391 2731 1894 2731 
Q 1613 2731 1398 2631 
Q 1184 2531 1019 2322 
L 750 2322 
L 750 4666 
L 3219 4666 
z
" transform="scale(0.015625)"/>
     </defs>
     <use xlink:href="#DejaVuSerif-35"/>
    </g>
   </g>
   <g id="text_7">
    <!-- Loads: $-100$ kips at nodes 1 and 3; $E=10^7$ psi; $\rho=0.1$ lb/in$^3$ -->
    <g style="fill: #444444" transform="translate(22.001237 222.562513) scale(0.08 -0.08)">
     <defs>
      <path id="DejaVuSerif-4c" d="M 353 0 
L 353 331 
L 947 331 
L 947 4331 
L 353 4331 
L 353 4666 
L 2175 4666 
L 2175 4331 
L 1581 4331 
L 1581 384 
L 3713 384 
L 3713 1166 
L 4097 1166 
L 4097 0 
L 353 0 
z
" transform="scale(0.015625)"/>
      <path id="DejaVuSerif-6f" d="M 1925 219 
Q 2388 219 2623 584 
Q 2859 950 2859 1663 
Q 2859 2375 2623 2739 
Q 2388 3103 1925 3103 
Q 1463 3103 1227 2739 
Q 991 2375 991 1663 
Q 991 950 1228 584 
Q 1466 219 1925 219 
z
M 1925 -91 
Q 1200 -91 759 389 
Q 319 869 319 1663 
Q 319 2456 758 2934 
Q 1197 3413 1925 3413 
Q 2653 3413 3092 2934 
Q 3531 2456 3531 1663 
Q 3531 869 3092 389 
Q 2653 -91 1925 -91 
z
" transform="scale(0.015625)"/>
      <path id="DejaVuSerif-61" d="M 2547 1044 
L 2547 1747 
L 1806 1747 
Q 1378 1747 1168 1562 
Q 959 1378 959 997 
Q 959 650 1171 447 
Q 1384 244 1747 244 
Q 2106 244 2326 466 
Q 2547 688 2547 1044 
z
M 3122 2075 
L 3122 331 
L 3634 331 
L 3634 0 
L 2547 0 
L 2547 359 
Q 2356 128 2106 18 
Q 1856 -91 1522 -91 
Q 969 -91 644 203 
Q 319 497 319 997 
Q 319 1513 691 1797 
Q 1063 2081 1741 2081 
L 2547 2081 
L 2547 2309 
Q 2547 2688 2317 2895 
Q 2088 3103 1672 3103 
Q 1328 3103 1125 2947 
Q 922 2791 872 2484 
L 575 2484 
L 575 3156 
Q 875 3284 1158 3348 
Q 1441 3413 1709 3413 
Q 2400 3413 2761 3070 
Q 3122 2728 3122 2075 
z
" transform="scale(0.015625)"/>
      <path id="DejaVuSerif-64" d="M 3359 331 
L 3909 331 
L 3909 0 
L 2784 0 
L 2784 519 
Q 2616 206 2355 57 
Q 2094 -91 1709 -91 
Q 1097 -91 708 395 
Q 319 881 319 1663 
Q 319 2444 706 2928 
Q 1094 3413 1709 3413 
Q 2094 3413 2355 3264 
Q 2616 3116 2784 2803 
L 2784 4531 
L 2241 4531 
L 2241 4863 
L 3359 4863 
L 3359 331 
z
M 2784 1497 
L 2784 1825 
Q 2784 2422 2554 2737 
Q 2325 3053 1888 3053 
Q 1444 3053 1217 2703 
Q 991 2353 991 1663 
Q 991 975 1217 622 
Q 1444 269 1888 269 
Q 2325 269 2554 583 
Q 2784 897 2784 1497 
z
" transform="scale(0.015625)"/>
      <path id="DejaVuSerif-73" d="M 359 184 
L 359 959 
L 691 959 
Q 703 588 923 403 
Q 1144 219 1575 219 
Q 1963 219 2166 364 
Q 2369 509 2369 788 
Q 2369 1006 2220 1140 
Q 2072 1275 1594 1428 
L 1178 1569 
Q 750 1706 558 1912 
Q 366 2119 366 2438 
Q 366 2894 700 3153 
Q 1034 3413 1625 3413 
Q 1888 3413 2178 3344 
Q 2469 3275 2778 3144 
L 2778 2419 
L 2447 2419 
Q 2434 2741 2221 2922 
Q 2009 3103 1644 3103 
Q 1281 3103 1095 2975 
Q 909 2847 909 2591 
Q 909 2381 1050 2254 
Q 1191 2128 1613 1997 
L 2069 1856 
Q 2541 1709 2748 1489 
Q 2956 1269 2956 922 
Q 2956 450 2595 179 
Q 2234 -91 1600 -91 
Q 1278 -91 972 -22 
Q 666 47 359 184 
z
" transform="scale(0.015625)"/>
      <path id="DejaVuSerif-3a" d="M 666 325 
Q 666 500 786 622 
Q 906 744 1081 744 
Q 1256 744 1376 622 
Q 1497 500 1497 325 
Q 1497 150 1378 29 
Q 1259 -91 1081 -91 
Q 903 -91 784 29 
Q 666 150 666 325 
z
M 666 2363 
Q 666 2538 786 2658 
Q 906 2778 1081 2778 
Q 1259 2778 1378 2659 
Q 1497 2541 1497 2363 
Q 1497 2184 1378 2065 
Q 1259 1947 1081 1947 
Q 906 1947 786 2067 
Q 666 2188 666 2363 
z
" transform="scale(0.015625)"/>
      <path id="DejaVuSerif-20" transform="scale(0.015625)"/>
      <path id="DejaVuSans-2212" d="M 678 2272 
L 4684 2272 
L 4684 1741 
L 678 1741 
L 678 2272 
z
" transform="scale(0.015625)"/>
      <path id="DejaVuSans-31" d="M 794 531 
L 1825 531 
L 1825 4091 
L 703 3866 
L 703 4441 
L 1819 4666 
L 2450 4666 
L 2450 531 
L 3481 531 
L 3481 0 
L 794 0 
L 794 531 
z
" transform="scale(0.015625)"/>
      <path id="DejaVuSans-30" d="M 2034 4250 
Q 1547 4250 1301 3770 
Q 1056 3291 1056 2328 
Q 1056 1369 1301 889 
Q 1547 409 2034 409 
Q 2525 409 2770 889 
Q 3016 1369 3016 2328 
Q 3016 3291 2770 3770 
Q 2525 4250 2034 4250 
z
M 2034 4750 
Q 2819 4750 3233 4129 
Q 3647 3509 3647 2328 
Q 3647 1150 3233 529 
Q 2819 -91 2034 -91 
Q 1250 -91 836 529 
Q 422 1150 422 2328 
Q 422 3509 836 4129 
Q 1250 4750 2034 4750 
z
" transform="scale(0.015625)"/>
      <path id="DejaVuSerif-6b" d="M 1831 0 
L 219 0 
L 219 331 
L 738 331 
L 738 4531 
L 184 4531 
L 184 4863 
L 1313 4863 
L 1313 1697 
L 2713 2988 
L 2234 2988 
L 2234 3322 
L 3738 3322 
L 3738 2988 
L 3169 2988 
L 2181 2075 
L 3444 331 
L 3922 331 
L 3922 0 
L 2284 0 
L 2284 331 
L 2759 331 
L 1766 1697 
L 1313 1275 
L 1313 331 
L 1831 331 
L 1831 0 
z
" transform="scale(0.015625)"/>
      <path id="DejaVuSerif-69" d="M 622 4353 
Q 622 4497 726 4603 
Q 831 4709 978 4709 
Q 1122 4709 1226 4603 
Q 1331 4497 1331 4353 
Q 1331 4206 1228 4103 
Q 1125 4000 978 4000 
Q 831 4000 726 4103 
Q 622 4206 622 4353 
z
M 1356 331 
L 1900 331 
L 1900 0 
L 231 0 
L 231 331 
L 781 331 
L 781 2988 
L 231 2988 
L 231 3322 
L 1356 3322 
L 1356 331 
z
" transform="scale(0.015625)"/>
      <path id="DejaVuSerif-70" d="M 1313 1825 
L 1313 1497 
Q 1313 897 1542 583 
Q 1772 269 2209 269 
Q 2650 269 2876 622 
Q 3103 975 3103 1663 
Q 3103 2353 2876 2703 
Q 2650 3053 2209 3053 
Q 1772 3053 1542 2737 
Q 1313 2422 1313 1825 
z
M 738 2988 
L 184 2988 
L 184 3322 
L 1313 3322 
L 1313 2803 
Q 1481 3116 1742 3264 
Q 2003 3413 2388 3413 
Q 3000 3413 3387 2928 
Q 3775 2444 3775 1663 
Q 3775 881 3387 395 
Q 3000 -91 2388 -91 
Q 2003 -91 1742 57 
Q 1481 206 1313 519 
L 1313 -997 
L 1856 -997 
L 1856 -1331 
L 184 -1331 
L 184 -997 
L 738 -997 
L 738 2988 
z
" transform="scale(0.015625)"/>
      <path id="DejaVuSerif-74" d="M 691 2988 
L 184 2988 
L 184 3322 
L 691 3322 
L 691 4353 
L 1269 4353 
L 1269 3322 
L 2350 3322 
L 2350 2988 
L 1269 2988 
L 1269 878 
Q 1269 456 1350 337 
Q 1431 219 1650 219 
Q 1875 219 1978 351 
Q 2081 484 2088 781 
L 2522 781 
Q 2497 328 2275 118 
Q 2053 -91 1600 -91 
Q 1103 -91 897 129 
Q 691 350 691 878 
L 691 2988 
z
" transform="scale(0.015625)"/>
      <path id="DejaVuSerif-6e" d="M 263 0 
L 263 331 
L 781 331 
L 781 2988 
L 231 2988 
L 231 3322 
L 1356 3322 
L 1356 2731 
Q 1516 3069 1770 3241 
Q 2025 3413 2363 3413 
Q 2913 3413 3172 3097 
Q 3431 2781 3431 2113 
L 3431 331 
L 3944 331 
L 3944 0 
L 2356 0 
L 2356 331 
L 2853 331 
L 2853 1931 
Q 2853 2541 2703 2767 
Q 2553 2994 2175 2994 
Q 1775 2994 1565 2701 
Q 1356 2409 1356 1850 
L 1356 331 
L 1856 331 
L 1856 0 
L 263 0 
z
" transform="scale(0.015625)"/>
      <path id="DejaVuSerif-65" d="M 3469 1600 
L 991 1600 
L 991 1575 
Q 991 903 1244 561 
Q 1497 219 1991 219 
Q 2369 219 2611 417 
Q 2853 616 2950 1006 
L 3413 1006 
Q 3275 459 2904 184 
Q 2534 -91 1931 -91 
Q 1203 -91 761 389 
Q 319 869 319 1663 
Q 319 2450 753 2931 
Q 1188 3413 1894 3413 
Q 2647 3413 3050 2948 
Q 3453 2484 3469 1600 
z
M 2791 1931 
Q 2772 2513 2545 2808 
Q 2319 3103 1894 3103 
Q 1497 3103 1269 2806 
Q 1041 2509 991 1931 
L 2791 1931 
z
" transform="scale(0.015625)"/>
      <path id="DejaVuSerif-3b" d="M 231 -622 
Q 525 -406 662 -114 
Q 800 178 800 594 
L 800 709 
L 1416 709 
Q 1391 175 1164 -208 
Q 938 -591 481 -872 
L 231 -622 
z
M 678 2363 
Q 678 2538 798 2658 
Q 919 2778 1094 2778 
Q 1269 2778 1389 2656 
Q 1509 2534 1509 2363 
Q 1509 2188 1389 2067 
Q 1269 1947 1094 1947 
Q 919 1947 798 2067 
Q 678 2188 678 2363 
z
" transform="scale(0.015625)"/>
      <path id="DejaVuSans-Oblique-45" d="M 1081 4666 
L 4031 4666 
L 3928 4134 
L 1606 4134 
L 1338 2753 
L 3566 2753 
L 3463 2222 
L 1234 2222 
L 909 531 
L 3284 531 
L 3181 0 
L 172 0 
L 1081 4666 
z
" transform="scale(0.015625)"/>
      <path id="DejaVuSans-3d" d="M 678 2906 
L 4684 2906 
L 4684 2381 
L 678 2381 
L 678 2906 
z
M 678 1631 
L 4684 1631 
L 4684 1100 
L 678 1100 
L 678 1631 
z
" transform="scale(0.015625)"/>
      <path id="DejaVuSans-37" d="M 525 4666 
L 3525 4666 
L 3525 4397 
L 1831 0 
L 1172 0 
L 2766 4134 
L 525 4134 
L 525 4666 
z
" transform="scale(0.015625)"/>
      <path id="DejaVuSans-Oblique-3c1" d="M 1203 2875 
Q 1453 3194 1981 3475 
Q 2188 3584 2756 3584 
Q 3394 3584 3694 3078 
Q 3994 2572 3834 1747 
Q 3672 922 3175 415 
Q 2678 -91 2041 -91 
Q 1656 -91 1409 63 
Q 1163 213 1044 525 
L 681 -1331 
L 103 -1331 
L 697 1716 
Q 838 2438 1203 2875 
z
M 3238 1747 
Q 3359 2381 3169 2744 
Q 2978 3103 2522 3103 
Q 2066 3103 1734 2744 
Q 1403 2381 1281 1747 
Q 1156 1113 1347 750 
Q 1538 391 1994 391 
Q 2450 391 2781 750 
Q 3113 1113 3238 1747 
z
" transform="scale(0.015625)"/>
      <path id="DejaVuSans-2e" d="M 684 794 
L 1344 794 
L 1344 0 
L 684 0 
L 684 794 
z
" transform="scale(0.015625)"/>
      <path id="DejaVuSerif-6c" d="M 1313 331 
L 1856 331 
L 1856 0 
L 184 0 
L 184 331 
L 738 331 
L 738 4531 
L 184 4531 
L 184 4863 
L 1313 4863 
L 1313 331 
z
" transform="scale(0.015625)"/>
      <path id="DejaVuSerif-62" d="M 738 331 
L 738 4531 
L 184 4531 
L 184 4863 
L 1313 4863 
L 1313 2803 
Q 1481 3116 1742 3264 
Q 2003 3413 2388 3413 
Q 3000 3413 3387 2928 
Q 3775 2444 3775 1663 
Q 3775 881 3387 395 
Q 3000 -91 2388 -91 
Q 2003 -91 1742 57 
Q 1481 206 1313 519 
L 1313 0 
L 184 0 
L 184 331 
L 738 331 
z
M 1313 1497 
Q 1313 897 1542 583 
Q 1772 269 2209 269 
Q 2650 269 2876 622 
Q 3103 975 3103 1663 
Q 3103 2353 2876 2703 
Q 2650 3053 2209 3053 
Q 1772 3053 1542 2737 
Q 1313 2422 1313 1825 
L 1313 1497 
z
" transform="scale(0.015625)"/>
      <path id="DejaVuSerif-2f" d="M 1656 4666 
L 2156 4666 
L 500 -594 
L 0 -594 
L 1656 4666 
z
" transform="scale(0.015625)"/>
      <path id="DejaVuSans-33" d="M 2597 2516 
Q 3050 2419 3304 2112 
Q 3559 1806 3559 1356 
Q 3559 666 3084 287 
Q 2609 -91 1734 -91 
Q 1441 -91 1130 -33 
Q 819 25 488 141 
L 488 750 
Q 750 597 1062 519 
Q 1375 441 1716 441 
Q 2309 441 2620 675 
Q 2931 909 2931 1356 
Q 2931 1769 2642 2001 
Q 2353 2234 1838 2234 
L 1294 2234 
L 1294 2753 
L 1863 2753 
Q 2328 2753 2575 2939 
Q 2822 3125 2822 3475 
Q 2822 3834 2567 4026 
Q 2313 4219 1838 4219 
Q 1578 4219 1281 4162 
Q 984 4106 628 3988 
L 628 4550 
Q 988 4650 1302 4700 
Q 1616 4750 1894 4750 
Q 2613 4750 3031 4423 
Q 3450 4097 3450 3541 
Q 3450 3153 3228 2886 
Q 3006 2619 2597 2516 
z
" transform="scale(0.015625)"/>
     </defs>
     <use xlink:href="#DejaVuSerif-4c" transform="translate(0 0.765625)"/>
     <use xlink:href="#DejaVuSerif-6f" transform="translate(66.40625 0.765625)"/>
     <use xlink:href="#DejaVuSerif-61" transform="translate(126.611328 0.765625)"/>
     <use xlink:href="#DejaVuSerif-64" transform="translate(186.230469 0.765625)"/>
     <use xlink:href="#DejaVuSerif-73" transform="translate(250.244141 0.765625)"/>
     <use xlink:href="#DejaVuSerif-3a" transform="translate(301.5625 0.765625)"/>
     <use xlink:href="#DejaVuSerif-20" transform="translate(335.253906 0.765625)"/>
     <use xlink:href="#DejaVuSans-2212" transform="translate(367.041016 0.765625)"/>
     <use xlink:href="#DejaVuSans-31" transform="translate(450.830078 0.765625)"/>
     <use xlink:href="#DejaVuSans-30" transform="translate(514.453125 0.765625)"/>
     <use xlink:href="#DejaVuSans-30" transform="translate(578.076172 0.765625)"/>
     <use xlink:href="#DejaVuSerif-20" transform="translate(641.699219 0.765625)"/>
     <use xlink:href="#DejaVuSerif-6b" transform="translate(673.486328 0.765625)"/>
     <use xlink:href="#DejaVuSerif-69" transform="translate(734.082031 0.765625)"/>
     <use xlink:href="#DejaVuSerif-70" transform="translate(766.064453 0.765625)"/>
     <use xlink:href="#DejaVuSerif-73" transform="translate(830.078125 0.765625)"/>
     <use xlink:href="#DejaVuSerif-20" transform="translate(881.396484 0.765625)"/>
     <use xlink:href="#DejaVuSerif-61" transform="translate(913.183594 0.765625)"/>
     <use xlink:href="#DejaVuSerif-74" transform="translate(972.802734 0.765625)"/>
     <use xlink:href="#DejaVuSerif-20" transform="translate(1012.988281 0.765625)"/>
     <use xlink:href="#DejaVuSerif-6e" transform="translate(1044.775391 0.765625)"/>
     <use xlink:href="#DejaVuSerif-6f" transform="translate(1109.179688 0.765625)"/>
     <use xlink:href="#DejaVuSerif-64" transform="translate(1169.384766 0.765625)"/>
     <use xlink:href="#DejaVuSerif-65" transform="translate(1233.398438 0.765625)"/>
     <use xlink:href="#DejaVuSerif-73" transform="translate(1292.578125 0.765625)"/>
     <use xlink:href="#DejaVuSerif-20" transform="translate(1343.896484 0.765625)"/>
     <use xlink:href="#DejaVuSerif-31" transform="translate(1375.683594 0.765625)"/>
     <use xlink:href="#DejaVuSerif-20" transform="translate(1439.306641 0.765625)"/>
     <use xlink:href="#DejaVuSerif-61" transform="translate(1471.09375 0.765625)"/>
     <use xlink:href="#DejaVuSerif-6e" transform="translate(1530.712891 0.765625)"/>
     <use xlink:href="#DejaVuSerif-64" transform="translate(1595.117188 0.765625)"/>
     <use xlink:href="#DejaVuSerif-20" transform="translate(1659.130859 0.765625)"/>
     <use xlink:href="#DejaVuSerif-33" transform="translate(1690.917969 0.765625)"/>
     <use xlink:href="#DejaVuSerif-3b" transform="translate(1754.541016 0.765625)"/>
     <use xlink:href="#DejaVuSerif-20" transform="translate(1788.232422 0.765625)"/>
     <use xlink:href="#DejaVuSans-Oblique-45" transform="translate(1820.019531 0.765625)"/>
     <use xlink:href="#DejaVuSans-3d" transform="translate(1902.685547 0.765625)"/>
     <use xlink:href="#DejaVuSans-31" transform="translate(2005.957031 0.765625)"/>
     <use xlink:href="#DejaVuSans-30" transform="translate(2069.580078 0.765625)"/>
     <use xlink:href="#DejaVuSans-37" transform="translate(2134.160156 39.046875) scale(0.7)"/>
     <use xlink:href="#DejaVuSerif-20" transform="translate(2181.430664 0.765625)"/>
     <use xlink:href="#DejaVuSerif-70" transform="translate(2213.217773 0.765625)"/>
     <use xlink:href="#DejaVuSerif-73" transform="translate(2277.231445 0.765625)"/>
     <use xlink:href="#DejaVuSerif-69" transform="translate(2328.549805 0.765625)"/>
     <use xlink:href="#DejaVuSerif-3b" transform="translate(2360.532227 0.765625)"/>
     <use xlink:href="#DejaVuSerif-20" transform="translate(2394.223633 0.765625)"/>
     <use xlink:href="#DejaVuSans-Oblique-3c1" transform="translate(2426.010742 0.765625)"/>
     <use xlink:href="#DejaVuSans-3d" transform="translate(2508.969727 0.765625)"/>
     <use xlink:href="#DejaVuSans-30" transform="translate(2612.241211 0.765625)"/>
     <use xlink:href="#DejaVuSans-2e" transform="translate(2675.864258 0.765625)"/>
     <use xlink:href="#DejaVuSans-31" transform="translate(2707.651367 0.765625)"/>
     <use xlink:href="#DejaVuSerif-20" transform="translate(2771.274414 0.765625)"/>
     <use xlink:href="#DejaVuSerif-6c" transform="translate(2803.061523 0.765625)"/>
     <use xlink:href="#DejaVuSerif-62" transform="translate(2835.043945 0.765625)"/>
     <use xlink:href="#DejaVuSerif-2f" transform="translate(2899.057617 0.765625)"/>
     <use xlink:href="#DejaVuSerif-69" transform="translate(2932.749023 0.765625)"/>
     <use xlink:href="#DejaVuSerif-6e" transform="translate(2964.731445 0.765625)"/>
     <use xlink:href="#DejaVuSans-33" transform="translate(3030.092773 39.046875) scale(0.7)"/>
    </g>
   </g>
   <g id="text_8">
    <!-- 10-bar planar cantilever truss (Sunar \&amp; Belegundu, 1991) -->
    <g transform="translate(14.512467 11.958281) scale(0.11 -0.11)">
     <defs>
      <path id="DejaVuSerif-2d" d="M 281 1959 
L 1881 1959 
L 1881 1472 
L 281 1472 
L 281 1959 
z
" transform="scale(0.015625)"/>
      <path id="DejaVuSerif-72" d="M 3059 3328 
L 3059 2497 
L 2728 2497 
Q 2713 2744 2591 2866 
Q 2469 2988 2234 2988 
Q 1809 2988 1582 2694 
Q 1356 2400 1356 1850 
L 1356 331 
L 2022 331 
L 2022 0 
L 263 0 
L 263 331 
L 781 331 
L 781 2994 
L 231 2994 
L 231 3322 
L 1356 3322 
L 1356 2731 
Q 1525 3078 1790 3245 
Q 2056 3413 2438 3413 
Q 2578 3413 2733 3391 
Q 2888 3369 3059 3328 
z
" transform="scale(0.015625)"/>
      <path id="DejaVuSerif-63" d="M 3291 997 
Q 3169 466 2822 187 
Q 2475 -91 1925 -91 
Q 1200 -91 759 389 
Q 319 869 319 1663 
Q 319 2459 759 2936 
Q 1200 3413 1925 3413 
Q 2241 3413 2553 3339 
Q 2866 3266 3181 3116 
L 3181 2266 
L 2847 2266 
Q 2781 2703 2561 2903 
Q 2341 3103 1931 3103 
Q 1466 3103 1228 2742 
Q 991 2381 991 1663 
Q 991 944 1227 581 
Q 1463 219 1931 219 
Q 2303 219 2525 412 
Q 2747 606 2828 997 
L 3291 997 
z
" transform="scale(0.015625)"/>
      <path id="DejaVuSerif-76" d="M 1581 0 
L 359 2988 
L -19 2988 
L -19 3322 
L 1509 3322 
L 1509 2988 
L 978 2988 
L 1913 703 
L 2847 2988 
L 2350 2988 
L 2350 3322 
L 3597 3322 
L 3597 2988 
L 3225 2988 
L 2003 0 
L 1581 0 
z
" transform="scale(0.015625)"/>
      <path id="DejaVuSerif-75" d="M 2266 3322 
L 3341 3322 
L 3341 331 
L 3884 331 
L 3884 0 
L 2766 0 
L 2766 588 
Q 2606 256 2353 82 
Q 2100 -91 1766 -91 
Q 1213 -91 952 223 
Q 691 538 691 1209 
L 691 2988 
L 172 2988 
L 172 3322 
L 1269 3322 
L 1269 1388 
Q 1269 781 1417 556 
Q 1566 331 1947 331 
Q 2347 331 2556 625 
Q 2766 919 2766 1478 
L 2766 2988 
L 2266 2988 
L 2266 3322 
z
" transform="scale(0.015625)"/>
      <path id="DejaVuSerif-28" d="M 2041 -997 
Q 1281 -656 893 83 
Q 506 822 506 1931 
Q 506 3044 893 3783 
Q 1281 4522 2041 4863 
L 2041 4556 
Q 1559 4225 1350 3623 
Q 1141 3022 1141 1931 
Q 1141 844 1350 242 
Q 1559 -359 2041 -691 
L 2041 -997 
z
" transform="scale(0.015625)"/>
      <path id="DejaVuSerif-53" d="M 594 225 
L 594 1288 
L 953 1284 
Q 969 753 1261 498 
Q 1553 244 2150 244 
Q 2706 244 2998 464 
Q 3291 684 3291 1106 
Q 3291 1444 3114 1625 
Q 2938 1806 2369 1978 
L 1753 2163 
Q 1084 2366 811 2669 
Q 538 2972 538 3500 
Q 538 4094 959 4422 
Q 1381 4750 2144 4750 
Q 2469 4750 2856 4679 
Q 3244 4609 3681 4475 
L 3681 3481 
L 3328 3481 
Q 3275 3975 2998 4195 
Q 2722 4416 2156 4416 
Q 1663 4416 1405 4214 
Q 1147 4013 1147 3628 
Q 1147 3294 1340 3103 
Q 1534 2913 2163 2725 
L 2741 2553 
Q 3375 2363 3645 2067 
Q 3916 1772 3916 1275 
Q 3916 597 3481 253 
Q 3047 -91 2188 -91 
Q 1803 -91 1404 -12 
Q 1006 66 594 225 
z
" transform="scale(0.015625)"/>
      <path id="DejaVuSerif-5c" d="M 500 4666 
L 2156 -594 
L 1656 -594 
L 0 4666 
L 500 4666 
z
" transform="scale(0.015625)"/>
      <path id="DejaVuSerif-26" d="M 3456 722 
L 1638 2638 
Q 1366 2394 1230 2111 
Q 1094 1828 1094 1509 
Q 1094 991 1453 639 
Q 1813 288 2350 288 
Q 2669 288 2951 398 
Q 3234 509 3456 722 
z
M 5394 0 
L 4141 0 
L 3713 453 
Q 3384 178 3012 43 
Q 2641 -91 2209 -91 
Q 1403 -91 931 321 
Q 459 734 459 1441 
Q 459 1856 698 2217 
Q 938 2578 1422 2894 
Q 1263 3084 1188 3273 
Q 1113 3463 1113 3669 
Q 1113 4166 1470 4458 
Q 1828 4750 2444 4750 
Q 2653 4750 2933 4697 
Q 3213 4644 3572 4538 
L 3572 3731 
L 3219 3731 
Q 3175 4066 2975 4241 
Q 2775 4416 2431 4416 
Q 2109 4416 1909 4239 
Q 1709 4063 1709 3781 
Q 1709 3591 1815 3402 
Q 1922 3213 2259 2859 
L 3872 1159 
Q 4088 1409 4211 1698 
Q 4334 1988 4366 2316 
L 3803 2316 
L 3803 2650 
L 5281 2650 
L 5281 2316 
L 4744 2316 
Q 4691 1909 4536 1556 
Q 4381 1203 4122 903 
L 4659 331 
L 5394 331 
L 5394 0 
z
" transform="scale(0.015625)"/>
      <path id="DejaVuSerif-42" d="M 1581 331 
L 2516 331 
Q 3078 331 3337 575 
Q 3597 819 3597 1350 
Q 3597 1878 3339 2120 
Q 3081 2363 2516 2363 
L 1581 2363 
L 1581 331 
z
M 1581 2694 
L 2375 2694 
Q 2888 2694 3123 2891 
Q 3359 3088 3359 3513 
Q 3359 3941 3123 4136 
Q 2888 4331 2375 4331 
L 1581 4331 
L 1581 2694 
z
M 353 0 
L 353 331 
L 947 331 
L 947 4331 
L 353 4331 
L 353 4666 
L 2656 4666 
Q 3363 4666 3720 4377 
Q 4078 4088 4078 3513 
Q 4078 3097 3829 2850 
Q 3581 2603 3103 2547 
Q 3697 2472 4005 2167 
Q 4313 1863 4313 1350 
Q 4313 656 3875 328 
Q 3438 0 2509 0 
L 353 0 
z
" transform="scale(0.015625)"/>
      <path id="DejaVuSerif-67" d="M 3359 2988 
L 3359 72 
Q 3359 -644 2965 -1033 
Q 2572 -1422 1844 -1422 
Q 1516 -1422 1216 -1362 
Q 916 -1303 641 -1184 
L 641 -488 
L 941 -488 
Q 997 -813 1206 -963 
Q 1416 -1113 1806 -1113 
Q 2313 -1113 2548 -827 
Q 2784 -541 2784 72 
L 2784 519 
Q 2616 206 2355 57 
Q 2094 -91 1709 -91 
Q 1097 -91 708 395 
Q 319 881 319 1663 
Q 319 2444 706 2928 
Q 1094 3413 1709 3413 
Q 2094 3413 2355 3264 
Q 2616 3116 2784 2803 
L 2784 3322 
L 3909 3322 
L 3909 2988 
L 3359 2988 
z
M 2784 1825 
Q 2784 2422 2554 2737 
Q 2325 3053 1888 3053 
Q 1444 3053 1217 2703 
Q 991 2353 991 1663 
Q 991 975 1217 622 
Q 1444 269 1888 269 
Q 2325 269 2554 583 
Q 2784 897 2784 1497 
L 2784 1825 
z
" transform="scale(0.015625)"/>
      <path id="DejaVuSerif-2c" d="M 231 -622 
Q 525 -406 662 -114 
Q 800 178 800 594 
L 800 709 
L 1416 709 
Q 1391 175 1164 -208 
Q 938 -591 481 -872 
L 231 -622 
z
" transform="scale(0.015625)"/>
      <path id="DejaVuSerif-39" d="M 2994 2091 
Q 2784 1856 2512 1740 
Q 2241 1625 1900 1625 
Q 1206 1625 804 2044 
Q 403 2463 403 3188 
Q 403 3897 839 4323 
Q 1275 4750 2003 4750 
Q 2794 4750 3217 4161 
Q 3641 3572 3641 2478 
Q 3641 1253 3137 581 
Q 2634 -91 1722 -91 
Q 1475 -91 1203 -44 
Q 931 3 647 97 
L 647 872 
L 997 872 
Q 1038 556 1241 387 
Q 1444 219 1784 219 
Q 2391 219 2687 676 
Q 2984 1134 2994 2091 
z
M 1978 4441 
Q 1534 4441 1298 4117 
Q 1063 3794 1063 3188 
Q 1063 2581 1298 2256 
Q 1534 1931 1978 1931 
Q 2422 1931 2658 2245 
Q 2894 2559 2894 3150 
Q 2894 3772 2656 4106 
Q 2419 4441 1978 4441 
z
" transform="scale(0.015625)"/>
      <path id="DejaVuSerif-29" d="M 453 -997 
L 453 -691 
Q 934 -359 1145 242 
Q 1356 844 1356 1931 
Q 1356 3022 1145 3623 
Q 934 4225 453 4556 
L 453 4863 
Q 1216 4522 1603 3783 
Q 1991 3044 1991 1931 
Q 1991 822 1603 83 
Q 1216 -656 453 -997 
z
" transform="scale(0.015625)"/>
     </defs>
     <use xlink:href="#DejaVuSerif-31"/>
     <use xlink:href="#DejaVuSerif-30" transform="translate(63.623047 0)"/>
     <use xlink:href="#DejaVuSerif-2d" transform="translate(127.246094 0)"/>
     <use xlink:href="#DejaVuSerif-62" transform="translate(161.035156 0)"/>
     <use xlink:href="#DejaVuSerif-61" transform="translate(225.048828 0)"/>
     <use xlink:href="#DejaVuSerif-72" transform="translate(284.667969 0)"/>
     <use xlink:href="#DejaVuSerif-20" transform="translate(332.470703 0)"/>
     <use xlink:href="#DejaVuSerif-70" transform="translate(364.257812 0)"/>
     <use xlink:href="#DejaVuSerif-6c" transform="translate(428.271484 0)"/>
     <use xlink:href="#DejaVuSerif-61" transform="translate(460.253906 0)"/>
     <use xlink:href="#DejaVuSerif-6e" transform="translate(519.873047 0)"/>
     <use xlink:href="#DejaVuSerif-61" transform="translate(584.277344 0)"/>
     <use xlink:href="#DejaVuSerif-72" transform="translate(643.896484 0)"/>
     <use xlink:href="#DejaVuSerif-20" transform="translate(691.699219 0)"/>
     <use xlink:href="#DejaVuSerif-63" transform="translate(723.486328 0)"/>
     <use xlink:href="#DejaVuSerif-61" transform="translate(779.492188 0)"/>
     <use xlink:href="#DejaVuSerif-6e" transform="translate(839.111328 0)"/>
     <use xlink:href="#DejaVuSerif-74" transform="translate(903.515625 0)"/>
     <use xlink:href="#DejaVuSerif-69" transform="translate(943.701172 0)"/>
     <use xlink:href="#DejaVuSerif-6c" transform="translate(975.683594 0)"/>
     <use xlink:href="#DejaVuSerif-65" transform="translate(1007.666016 0)"/>
     <use xlink:href="#DejaVuSerif-76" transform="translate(1066.845703 0)"/>
     <use xlink:href="#DejaVuSerif-65" transform="translate(1123.339844 0)"/>
     <use xlink:href="#DejaVuSerif-72" transform="translate(1182.519531 0)"/>
     <use xlink:href="#DejaVuSerif-20" transform="translate(1230.322266 0)"/>
     <use xlink:href="#DejaVuSerif-74" transform="translate(1262.109375 0)"/>
     <use xlink:href="#DejaVuSerif-72" transform="translate(1302.294922 0)"/>
     <use xlink:href="#DejaVuSerif-75" transform="translate(1350.097656 0)"/>
     <use xlink:href="#DejaVuSerif-73" transform="translate(1414.501953 0)"/>
     <use xlink:href="#DejaVuSerif-73" transform="translate(1465.820312 0)"/>
     <use xlink:href="#DejaVuSerif-20" transform="translate(1517.138672 0)"/>
     <use xlink:href="#DejaVuSerif-28" transform="translate(1548.925781 0)"/>
     <use xlink:href="#DejaVuSerif-53" transform="translate(1587.939453 0)"/>
     <use xlink:href="#DejaVuSerif-75" transform="translate(1656.445312 0)"/>
     <use xlink:href="#DejaVuSerif-6e" transform="translate(1720.849609 0)"/>
     <use xlink:href="#DejaVuSerif-61" transform="translate(1785.253906 0)"/>
     <use xlink:href="#DejaVuSerif-72" transform="translate(1844.873047 0)"/>
     <use xlink:href="#DejaVuSerif-20" transform="translate(1892.675781 0)"/>
     <use xlink:href="#DejaVuSerif-5c" transform="translate(1924.462891 0)"/>
     <use xlink:href="#DejaVuSerif-26" transform="translate(1958.154297 0)"/>
     <use xlink:href="#DejaVuSerif-20" transform="translate(2047.167969 0)"/>
     <use xlink:href="#DejaVuSerif-42" transform="translate(2078.955078 0)"/>
     <use xlink:href="#DejaVuSerif-65" transform="translate(2152.441406 0)"/>
     <use xlink:href="#DejaVuSerif-6c" transform="translate(2211.621094 0)"/>
     <use xlink:href="#DejaVuSerif-65" transform="translate(2243.603516 0)"/>
     <use xlink:href="#DejaVuSerif-67" transform="translate(2302.783203 0)"/>
     <use xlink:href="#DejaVuSerif-75" transform="translate(2366.796875 0)"/>
     <use xlink:href="#DejaVuSerif-6e" transform="translate(2431.201172 0)"/>
     <use xlink:href="#DejaVuSerif-64" transform="translate(2495.605469 0)"/>
     <use xlink:href="#DejaVuSerif-75" transform="translate(2559.619141 0)"/>
     <use xlink:href="#DejaVuSerif-2c" transform="translate(2624.023438 0)"/>
     <use xlink:href="#DejaVuSerif-20" transform="translate(2655.810547 0)"/>
     <use xlink:href="#DejaVuSerif-31" transform="translate(2687.597656 0)"/>
     <use xlink:href="#DejaVuSerif-39" transform="translate(2751.220703 0)"/>
     <use xlink:href="#DejaVuSerif-39" transform="translate(2814.84375 0)"/>
     <use xlink:href="#DejaVuSerif-31" transform="translate(2878.466797 0)"/>
     <use xlink:href="#DejaVuSerif-29" transform="translate(2942.089844 0)"/>
    </g>
   </g>
   <g id="text_9">
    <g id="patch_10">
     <path d="M 99.74779 30.481644 
L 105.18154 30.481644 
L 105.18154 22.726957 
L 99.74779 22.726957 
z
" style="fill: #ffffff"/>
    </g>
    <!-- 1 -->
    <g style="fill: #333333" transform="translate(100.23779 28.535863) scale(0.07 -0.07)">
     <use xlink:href="#DejaVuSerif-31"/>
    </g>
   </g>
   <g id="text_10">
    <g id="patch_11">
     <path d="M 256.220895 30.481644 
L 261.654645 30.481644 
L 261.654645 22.726957 
L 256.220895 22.726957 
z
" style="fill: #ffffff"/>
    </g>
    <!-- 2 -->
    <g style="fill: #333333" transform="translate(256.710895 28.535863) scale(0.07 -0.07)">
     <use xlink:href="#DejaVuSerif-32"/>
    </g>
   </g>
   <g id="text_11">
    <g id="patch_12">
     <path d="M 99.74779 186.954749 
L 105.18154 186.954749 
L 105.18154 179.200062 
L 99.74779 179.200062 
z
" style="fill: #ffffff"/>
    </g>
    <!-- 3 -->
    <g style="fill: #333333" transform="translate(100.23779 185.008968) scale(0.07 -0.07)">
     <use xlink:href="#DejaVuSerif-33"/>
    </g>
   </g>
   <g id="text_12">
    <g id="patch_13">
     <path d="M 256.220895 186.954749 
L 261.654645 186.954749 
L 261.654645 179.200062 
L 256.220895 179.200062 
z
" style="fill: #ffffff"/>
    </g>
    <!-- 4 -->
    <g style="fill: #333333" transform="translate(256.710895 185.008968) scale(0.07 -0.07)">
     <use xlink:href="#DejaVuSerif-34"/>
    </g>
   </g>
   <g id="text_13">
    <g id="patch_14">
     <path d="M 177.984342 108.718197 
L 183.418092 108.718197 
L 183.418092 100.963509 
L 177.984342 100.963509 
z
" style="fill: #ffffff"/>
    </g>
    <!-- 5 -->
    <g style="fill: #333333" transform="translate(178.474342 106.772416) scale(0.07 -0.07)">
     <use xlink:href="#DejaVuSerif-35"/>
    </g>
   </g>
   <g id="text_14">
    <g id="patch_15">
     <path d="M 334.457447 108.718197 
L 339.891197 108.718197 
L 339.891197 100.963509 
L 334.457447 100.963509 
z
" style="fill: #ffffff"/>
    </g>
    <!-- 6 -->
    <g style="fill: #333333" transform="translate(334.947447 106.772416) scale(0.07 -0.07)">
     <defs>
      <path id="DejaVuSerif-36" d="M 2094 219 
Q 2534 219 2771 542 
Q 3009 866 3009 1472 
Q 3009 2078 2771 2401 
Q 2534 2725 2094 2725 
Q 1647 2725 1412 2412 
Q 1178 2100 1178 1509 
Q 1178 888 1415 553 
Q 1653 219 2094 219 
z
M 1075 2569 
Q 1288 2803 1556 2918 
Q 1825 3034 2163 3034 
Q 2859 3034 3264 2615 
Q 3669 2197 3669 1472 
Q 3669 763 3233 336 
Q 2797 -91 2069 -91 
Q 1278 -91 853 498 
Q 428 1088 428 2181 
Q 428 3406 931 4078 
Q 1434 4750 2350 4750 
Q 2597 4750 2869 4703 
Q 3141 4656 3425 4563 
L 3425 3794 
L 3072 3794 
Q 3034 4109 2831 4275 
Q 2628 4441 2284 4441 
Q 1678 4441 1381 3981 
Q 1084 3522 1075 2569 
z
" transform="scale(0.015625)"/>
     </defs>
     <use xlink:href="#DejaVuSerif-36"/>
    </g>
   </g>
   <g id="text_15">
    <g id="patch_16">
     <path d="M 99.74779 108.718197 
L 105.18154 108.718197 
L 105.18154 100.963509 
L 99.74779 100.963509 
z
" style="fill: #ffffff"/>
    </g>
    <!-- 7 -->
    <g style="fill: #333333" transform="translate(100.23779 106.772416) scale(0.07 -0.07)">
     <defs>
      <path id="DejaVuSerif-37" d="M 3609 4347 
L 1784 0 
L 1319 0 
L 3059 4153 
L 903 4153 
L 903 3578 
L 538 3578 
L 538 4666 
L 3609 4666 
L 3609 4347 
z
" transform="scale(0.015625)"/>
     </defs>
     <use xlink:href="#DejaVuSerif-37"/>
    </g>
   </g>
   <g id="text_16">
    <g id="patch_17">
     <path d="M 99.74779 108.718197 
L 105.18154 108.718197 
L 105.18154 100.963509 
L 99.74779 100.963509 
z
" style="fill: #ffffff"/>
    </g>
    <!-- 8 -->
    <g style="fill: #333333" transform="translate(100.23779 106.772416) scale(0.07 -0.07)">
     <defs>
      <path id="DejaVuSerif-38" d="M 2981 1275 
Q 2981 1775 2732 2051 
Q 2484 2328 2034 2328 
Q 1584 2328 1336 2051 
Q 1088 1775 1088 1275 
Q 1088 772 1336 495 
Q 1584 219 2034 219 
Q 2484 219 2732 495 
Q 2981 772 2981 1275 
z
M 2853 3541 
Q 2853 3966 2637 4203 
Q 2422 4441 2034 4441 
Q 1650 4441 1433 4203 
Q 1216 3966 1216 3541 
Q 1216 3113 1433 2875 
Q 1650 2638 2034 2638 
Q 2422 2638 2637 2875 
Q 2853 3113 2853 3541 
z
M 2516 2484 
Q 3047 2413 3344 2092 
Q 3641 1772 3641 1275 
Q 3641 619 3225 264 
Q 2809 -91 2034 -91 
Q 1263 -91 845 264 
Q 428 619 428 1275 
Q 428 1772 725 2092 
Q 1022 2413 1556 2484 
Q 1084 2569 832 2842 
Q 581 3116 581 3541 
Q 581 4103 968 4426 
Q 1356 4750 2034 4750 
Q 2713 4750 3100 4426 
Q 3488 4103 3488 3541 
Q 3488 3116 3236 2842 
Q 2984 2569 2516 2484 
z
" transform="scale(0.015625)"/>
     </defs>
     <use xlink:href="#DejaVuSerif-38"/>
    </g>
   </g>
   <g id="text_17">
    <g id="patch_18">
     <path d="M 256.220895 108.718197 
L 261.654645 108.718197 
L 261.654645 100.963509 
L 256.220895 100.963509 
z
" style="fill: #ffffff"/>
    </g>
    <!-- 9 -->
    <g style="fill: #333333" transform="translate(256.710895 106.772416) scale(0.07 -0.07)">
     <use xlink:href="#DejaVuSerif-39"/>
    </g>
   </g>
   <g id="text_18">
    <g id="patch_19">
     <path d="M 256.220895 108.718197 
L 266.108395 108.718197 
L 266.108395 100.963509 
L 256.220895 100.963509 
z
" style="fill: #ffffff"/>
    </g>
    <!-- 10 -->
    <g style="fill: #333333" transform="translate(256.710895 106.772416) scale(0.07 -0.07)">
     <use xlink:href="#DejaVuSerif-31"/>
     <use xlink:href="#DejaVuSerif-30" transform="translate(63.623047 0)"/>
    </g>
   </g>
   <g id="line2d_11">
    <path d="M 22.001237 28.535863 
" clip-path="url(#p8688405626)" style="fill: none; stroke: #555555; stroke-width: 1.4; stroke-linecap: square"/>
    <defs>
     <path id="m2de9f2221b" d="M 0 -6 
L -6 6 
L 6 6 
z
" style="stroke: #555555; stroke-linejoin: miter"/>
    </defs>
    <g clip-path="url(#p8688405626)">
     <use xlink:href="#m2de9f2221b" x="22.001237" y="28.535863" style="fill: #555555; stroke: #555555; stroke-linejoin: miter"/>
    </g>
   </g>
   <g id="line2d_12">
    <path d="M 22.001237 185.008968 
" clip-path="url(#p8688405626)" style="fill: none; stroke: #555555; stroke-width: 1.4; stroke-linecap: square"/>
    <g clip-path="url(#p8688405626)">
     <use xlink:href="#m2de9f2221b" x="22.001237" y="185.008968" style="fill: #555555; stroke: #555555; stroke-linejoin: miter"/>
    </g>
   </g>
  </g>
 </g>
 <defs>
  <clipPath id="p8688405626">
   <rect x="3.6" y="17.958281" width="349.748684" height="177.628269"/>
  </clipPath>
 </defs>
</svg>
