<?xml version="1.0" encoding="utf-8" standalone="no"?>
<!DOCTYPE svg PUBLIC "-//W3C//DTD SVG 1.1//EN"
  "http://www.w3.org/Graphics/SVG/1.1/DTD/svg11.dtd">
<svg xmlns:xlink="http://www.w3.org/1999/xlink" width="309.55125pt" height="215.958281pt" viewBox="0 0 309.55125 215.958281" xmlns="http://www.w3.org/2000/svg" version="1.1">
 <metadata>
  <rdf:RDF xmlns:dc="http://purl.org/dc/elements/1.1/" xmlns:cc="http://creativecommons.org/ns#" xmlns:rdf="http://www.w3.org/1999/02/22-rdf-syntax-ns#">
   <cc:Work>
    <dc:type rdf:resource="http://purl.org/dc/dcmitype/StillImage"/>
    <dc:date>2026-04-24T15:24:19.378611</dc:date>
    <dc:format>image/svg+xml</dc:format>
    <dc:creator>
     <cc:Agent>
      <dc:title>Matplotlib v3.10.8, https://matplotlib.org/</dc:title>
     </cc:Agent>
    </dc:creator>
   </cc:Work>
  </rdf:RDF>
 </metadata>
 <defs>
  <style type="text/css">*{stroke-linejoin: round; stroke-linecap: butt}</style>
 </defs>
 <g id="figure_1">
  <g id="patch_1">
   <path d="M 0 215.958281 
L 309.55125 215.958281 
L 309.55125 0 
L 0 0 
z
" style="fill: #ffffff"/>
  </g>
  <g id="axes_1">
   <g id="patch_2">
    <path d="M 109.422937 47.507081 
L 200.128312 47.507081 
Q 200.733015 47.507081 200.733015 47.118281 
L 200.733015 29.622281 
Q 200.733015 29.233481 200.128312 29.233481 
L 109.422937 29.233481 
Q 108.818235 29.233481 108.818235 29.622281 
L 108.818235 47.118281 
Q 108.818235 47.507081 109.422937 47.507081 
z
" clip-path="url(#pd40cb54634)" style="fill: #cfe3f5; stroke: #1f4b73; stroke-width: 1.2; stroke-linejoin: miter"/>
   </g>
   <g id="patch_3">
    <path d="M 18.717562 86.387081 
L 109.422937 86.387081 
Q 110.02764 86.387081 110.02764 85.998281 
L 110.02764 68.502281 
Q 110.02764 68.113481 109.422937 68.113481 
L 18.717562 68.113481 
Q 18.11286 68.113481 18.11286 68.502281 
L 18.11286 85.998281 
Q 18.11286 86.387081 18.717562 86.387081 
z
" clip-path="url(#pd40cb54634)" style="fill: #e0f3e7; stroke: #1f4b73; stroke-width: 1.2; stroke-linejoin: miter"/>
   </g>
   <g id="patch_4">
    <path d="M 200.128312 86.387081 
L 290.833687 86.387081 
Q 291.43839 86.387081 291.43839 85.998281 
L 291.43839 68.502281 
Q 291.43839 68.113481 290.833687 68.113481 
L 200.128312 68.113481 
Q 199.52361 68.113481 199.52361 68.502281 
L 199.52361 85.998281 
Q 199.52361 86.387081 200.128312 86.387081 
z
" clip-path="url(#pd40cb54634)" style="fill: #fdecea; stroke: #1f4b73; stroke-width: 1.2; stroke-linejoin: miter"/>
   </g>
   <g id="patch_5">
    <path d="M 18.717562 115.547081 
L 109.422937 115.547081 
Q 110.02764 115.547081 110.02764 115.158281 
L 110.02764 97.662281 
Q 110.02764 97.273481 109.422937 97.273481 
L 18.717562 97.273481 
Q 18.11286 97.273481 18.11286 97.662281 
L 18.11286 115.158281 
Q 18.11286 115.547081 18.717562 115.547081 
z
" clip-path="url(#pd40cb54634)" style="fill: #e0f3e7; stroke: #1f4b73; stroke-width: 1.2; stroke-linejoin: miter"/>
   </g>
   <g id="patch_6">
    <path d="M 18.717562 144.707081 
L 109.422937 144.707081 
Q 110.02764 144.707081 110.02764 144.318281 
L 110.02764 126.822281 
Q 110.02764 126.433481 109.422937 126.433481 
L 18.717562 126.433481 
Q 18.11286 126.433481 18.11286 126.822281 
L 18.11286 144.318281 
Q 18.11286 144.707081 18.717562 144.707081 
z
" clip-path="url(#pd40cb54634)" style="fill: #e0f3e7; stroke: #1f4b73; stroke-width: 1.2; stroke-linejoin: miter"/>
   </g>
   <g id="patch_7">
    <path d="M 200.128312 115.547081 
L 290.833687 115.547081 
Q 291.43839 115.547081 291.43839 115.158281 
L 291.43839 97.662281 
Q 291.43839 97.273481 290.833687 97.273481 
L 200.128312 97.273481 
Q 199.52361 97.273481 199.52361 97.662281 
L 199.52361 115.158281 
Q 199.52361 115.547081 200.128312 115.547081 
z
" clip-path="url(#pd40cb54634)" style="fill: #fdecea; stroke: #1f4b73; stroke-width: 1.2; stroke-linejoin: miter"/>
   </g>
   <g id="patch_8">
    <path d="M 200.128312 144.707081 
L 290.833687 144.707081 
Q 291.43839 144.707081 291.43839 144.318281 
L 291.43839 126.822281 
Q 291.43839 126.433481 290.833687 126.433481 
L 200.128312 126.433481 
Q 199.52361 126.433481 199.52361 126.822281 
L 199.52361 144.318281 
Q 199.52361 144.707081 200.128312 144.707081 
z
" clip-path="url(#pd40cb54634)" style="fill: #fdecea; stroke: #1f4b73; stroke-width: 1.2; stroke-linejoin: miter"/>
   </g>
   <g id="patch_9">
    <path d="M 109.422937 177.755081 
L 200.128312 177.755081 
Q 200.733015 177.755081 200.733015 177.366281 
L 200.733015 159.870281 
Q 200.733015 159.481481 200.128312 159.481481 
L 109.422937 159.481481 
Q 108.818235 159.481481 108.818235 159.870281 
L 108.818235 177.366281 
Q 108.818235 177.755081 109.422937 177.755081 
z
" clip-path="url(#pd40cb54634)" style="fill: #fff4cf; stroke: #1f4b73; stroke-width: 1.2; stroke-linejoin: miter"/>
   </g>
   <g id="patch_10">
    <path d="M 109.422937 206.915081 
L 200.128312 206.915081 
Q 200.733015 206.915081 200.733015 206.526281 
L 200.733015 189.030281 
Q 200.733015 188.641481 200.128312 188.641481 
L 109.422937 188.641481 
Q 108.818235 188.641481 108.818235 189.030281 
L 108.818235 206.526281 
Q 108.818235 206.915081 109.422937 206.915081 
z
" clip-path="url(#pd40cb54634)" style="fill: #ddeeff; stroke: #1f4b73; stroke-width: 1.2; stroke-linejoin: miter"/>
   </g>
   <g id="patch_11">
    <path d="M 122.654495 47.785226 
Q 94.304569 57.810566 67.219524 67.388608 
" clip-path="url(#pd40cb54634)" style="fill: none; stroke: #333333; stroke-width: 1.2; stroke-linecap: round"/>
    <path d="M 72.545052 68.050995 
L 67.219524 67.388608 
L 70.94475 63.525618 
z
" clip-path="url(#pd40cb54634)" style="fill: #333333; stroke: #333333; stroke-width: 1.2; stroke-linecap: round"/>
   </g>
   <g id="patch_12">
    <path d="M 186.896755 47.785226 
Q 215.246681 57.810566 242.331726 67.388608 
" clip-path="url(#pd40cb54634)" style="fill: none; stroke: #333333; stroke-width: 1.2; stroke-linecap: round"/>
    <path d="M 238.6065 63.525618 
L 242.331726 67.388608 
L 237.006198 68.050995 
z
" clip-path="url(#pd40cb54634)" style="fill: #333333; stroke: #333333; stroke-width: 1.2; stroke-linecap: round"/>
   </g>
   <g id="patch_13">
    <path d="M 64.07025 88.000184 
Q 64.07025 91.833413 64.07025 94.325002 
" clip-path="url(#pd40cb54634)" style="fill: none; stroke: #333333; stroke-width: 1.2; stroke-linecap: round"/>
    <path d="M 66.47025 89.525002 
L 64.07025 94.325002 
L 61.67025 89.525002 
z
" clip-path="url(#pd40cb54634)" style="fill: #333333; stroke: #333333; stroke-width: 1.2; stroke-linecap: round"/>
   </g>
   <g id="patch_14">
    <path d="M 64.07025 117.160184 
Q 64.07025 120.993413 64.07025 123.485002 
" clip-path="url(#pd40cb54634)" style="fill: none; stroke: #333333; stroke-width: 1.2; stroke-linecap: round"/>
    <path d="M 66.47025 118.685002 
L 64.07025 123.485002 
L 61.67025 118.685002 
z
" clip-path="url(#pd40cb54634)" style="fill: #333333; stroke: #333333; stroke-width: 1.2; stroke-linecap: round"/>
   </g>
   <g id="patch_15">
    <path d="M 245.481 88.000184 
Q 245.481 91.833413 245.481 94.325002 
" clip-path="url(#pd40cb54634)" style="fill: none; stroke: #333333; stroke-width: 1.2; stroke-linecap: round"/>
    <path d="M 247.881 89.525002 
L 245.481 94.325002 
L 243.081 89.525002 
z
" clip-path="url(#pd40cb54634)" style="fill: #333333; stroke: #333333; stroke-width: 1.2; stroke-linecap: round"/>
   </g>
   <g id="patch_16">
    <path d="M 245.481 117.160184 
Q 245.481 120.993413 245.481 123.485002 
" clip-path="url(#pd40cb54634)" style="fill: none; stroke: #333333; stroke-width: 1.2; stroke-linecap: round"/>
    <path d="M 247.881 118.685002 
L 245.481 123.485002 
L 243.081 118.685002 
z
" clip-path="url(#pd40cb54634)" style="fill: #333333; stroke: #333333; stroke-width: 1.2; stroke-linecap: round"/>
   </g>
   <g id="patch_17">
    <path d="M 66.014938 144.772957 
Q 97.325785 152.093556 127.330223 159.108711 
" clip-path="url(#pd40cb54634)" style="fill: none; stroke: #333333; stroke-width: 1.2; stroke-linecap: round"/>
    <path d="M 123.202667 155.678948 
L 127.330223 159.108711 
L 122.109879 160.352899 
z
" clip-path="url(#pd40cb54634)" style="fill: #333333; stroke: #333333; stroke-width: 1.2; stroke-linecap: round"/>
   </g>
   <g id="patch_18">
    <path d="M 243.536312 144.772957 
Q 212.225465 152.093556 182.221027 159.108711 
" clip-path="url(#pd40cb54634)" style="fill: none; stroke: #333333; stroke-width: 1.2; stroke-linecap: round"/>
    <path d="M 187.441371 160.352899 
L 182.221027 159.108711 
L 186.348583 155.678948 
z
" clip-path="url(#pd40cb54634)" style="fill: #333333; stroke: #333333; stroke-width: 1.2; stroke-linecap: round"/>
   </g>
   <g id="patch_19">
    <path d="M 154.775625 179.368184 
Q 154.775625 183.201413 154.775625 185.693002 
" clip-path="url(#pd40cb54634)" style="fill: none; stroke: #333333; stroke-width: 1.2; stroke-linecap: round"/>
    <path d="M 157.175625 180.893002 
L 154.775625 185.693002 
L 152.375625 180.893002 
z
" clip-path="url(#pd40cb54634)" style="fill: #333333; stroke: #333333; stroke-width: 1.2; stroke-linecap: round"/>
   </g>
   <g id="text_1">
    <!-- Signed axial force $F_i$ -->
    <g transform="translate(108.560625 40.755281) scale(0.09 -0.09)">
     <defs>
      <path id="DejaVuSerif-53" d="M 594 225 
L 594 1288 
L 953 1284 
Q 969 753 1261 498 
Q 1553 244 2150 244 
Q 2706 244 2998 464 
Q 3291 684 3291 1106 
Q 3291 1444 3114 1625 
Q 2938 1806 2369 1978 
L 1753 2163 
Q 1084 2366 811 2669 
Q 538 2972 538 3500 
Q 538 4094 959 4422 
Q 1381 4750 2144 4750 
Q 2469 4750 2856 4679 
Q 3244 4609 3681 4475 
L 3681 3481 
L 3328 3481 
Q 3275 3975 2998 4195 
Q 2722 4416 2156 4416 
Q 1663 4416 1405 4214 
Q 1147 4013 1147 3628 
Q 1147 3294 1340 3103 
Q 1534 2913 2163 2725 
L 2741 2553 
Q 3375 2363 3645 2067 
Q 3916 1772 3916 1275 
Q 3916 597 3481 253 
Q 3047 -91 2188 -91 
Q 1803 -91 1404 -12 
Q 1006 66 594 225 
z
" transform="scale(0.015625)"/>
      <path id="DejaVuSerif-69" d="M 622 4353 
Q 622 4497 726 4603 
Q 831 4709 978 4709 
Q 1122 4709 1226 4603 
Q 1331 4497 1331 4353 
Q 1331 4206 1228 4103 
Q 1125 4000 978 4000 
Q 831 4000 726 4103 
Q 622 4206 622 4353 
z
M 1356 331 
L 1900 331 
L 1900 0 
L 231 0 
L 231 331 
L 781 331 
L 781 2988 
L 231 2988 
L 231 3322 
L 1356 3322 
L 1356 331 
z
" transform="scale(0.015625)"/>
      <path id="DejaVuSerif-67" d="M 3359 2988 
L 3359 72 
Q 3359 -644 2965 -1033 
Q 2572 -1422 1844 -1422 
Q 1516 -1422 1216 -1362 
Q 916 -1303 641 -1184 
L 641 -488 
L 941 -488 
Q 997 -813 1206 -963 
Q 1416 -1113 1806 -1113 
Q 2313 -1113 2548 -827 
Q 2784 -541 2784 72 
L 2784 519 
Q 2616 206 2355 57 
Q 2094 -91 1709 -91 
Q 1097 -91 708 395 
Q 319 881 319 1663 
Q 319 2444 706 2928 
Q 1094 3413 1709 3413 
Q 2094 3413 2355 3264 
Q 2616 3116 2784 2803 
L 2784 3322 
L 3909 3322 
L 3909 2988 
L 3359 2988 
z
M 2784 1825 
Q 2784 2422 2554 2737 
Q 2325 3053 1888 3053 
Q 1444 3053 1217 2703 
Q 991 2353 991 1663 
Q 991 975 1217 622 
Q 1444 269 1888 269 
Q 2325 269 2554 583 
Q 2784 897 2784 1497 
L 2784 1825 
z
" transform="scale(0.015625)"/>
      <path id="DejaVuSerif-6e" d="M 263 0 
L 263 331 
L 781 331 
L 781 2988 
L 231 2988 
L 231 3322 
L 1356 3322 
L 1356 2731 
Q 1516 3069 1770 3241 
Q 2025 3413 2363 3413 
Q 2913 3413 3172 3097 
Q 3431 2781 3431 2113 
L 3431 331 
L 3944 331 
L 3944 0 
L 2356 0 
L 2356 331 
L 2853 331 
L 2853 1931 
Q 2853 2541 2703 2767 
Q 2553 2994 2175 2994 
Q 1775 2994 1565 2701 
Q 1356 2409 1356 1850 
L 1356 331 
L 1856 331 
L 1856 0 
L 263 0 
z
" transform="scale(0.015625)"/>
      <path id="DejaVuSerif-65" d="M 3469 1600 
L 991 1600 
L 991 1575 
Q 991 903 1244 561 
Q 1497 219 1991 219 
Q 2369 219 2611 417 
Q 2853 616 2950 1006 
L 3413 1006 
Q 3275 459 2904 184 
Q 2534 -91 1931 -91 
Q 1203 -91 761 389 
Q 319 869 319 1663 
Q 319 2450 753 2931 
Q 1188 3413 1894 3413 
Q 2647 3413 3050 2948 
Q 3453 2484 3469 1600 
z
M 2791 1931 
Q 2772 2513 2545 2808 
Q 2319 3103 1894 3103 
Q 1497 3103 1269 2806 
Q 1041 2509 991 1931 
L 2791 1931 
z
" transform="scale(0.015625)"/>
      <path id="DejaVuSerif-64" d="M 3359 331 
L 3909 331 
L 3909 0 
L 2784 0 
L 2784 519 
Q 2616 206 2355 57 
Q 2094 -91 1709 -91 
Q 1097 -91 708 395 
Q 319 881 319 1663 
Q 319 2444 706 2928 
Q 1094 3413 1709 3413 
Q 2094 3413 2355 3264 
Q 2616 3116 2784 2803 
L 2784 4531 
L 2241 4531 
L 2241 4863 
L 3359 4863 
L 3359 331 
z
M 2784 1497 
L 2784 1825 
Q 2784 2422 2554 2737 
Q 2325 3053 1888 3053 
Q 1444 3053 1217 2703 
Q 991 2353 991 1663 
Q 991 975 1217 622 
Q 1444 269 1888 269 
Q 2325 269 2554 583 
Q 2784 897 2784 1497 
z
" transform="scale(0.015625)"/>
      <path id="DejaVuSerif-20" transform="scale(0.015625)"/>
      <path id="DejaVuSerif-61" d="M 2547 1044 
L 2547 1747 
L 1806 1747 
Q 1378 1747 1168 1562 
Q 959 1378 959 997 
Q 959 650 1171 447 
Q 1384 244 1747 244 
Q 2106 244 2326 466 
Q 2547 688 2547 1044 
z
M 3122 2075 
L 3122 331 
L 3634 331 
L 3634 0 
L 2547 0 
L 2547 359 
Q 2356 128 2106 18 
Q 1856 -91 1522 -91 
Q 969 -91 644 203 
Q 319 497 319 997 
Q 319 1513 691 1797 
Q 1063 2081 1741 2081 
L 2547 2081 
L 2547 2309 
Q 2547 2688 2317 2895 
Q 2088 3103 1672 3103 
Q 1328 3103 1125 2947 
Q 922 2791 872 2484 
L 575 2484 
L 575 3156 
Q 875 3284 1158 3348 
Q 1441 3413 1709 3413 
Q 2400 3413 2761 3070 
Q 3122 2728 3122 2075 
z
" transform="scale(0.015625)"/>
      <path id="DejaVuSerif-78" d="M 1863 2028 
L 2559 2988 
L 2113 2988 
L 2113 3322 
L 3391 3322 
L 3391 2988 
L 2950 2988 
L 2059 1759 
L 3097 331 
L 3531 331 
L 3531 0 
L 1997 0 
L 1997 331 
L 2419 331 
L 1697 1325 
L 972 331 
L 1403 331 
L 1403 0 
L 141 0 
L 141 331 
L 581 331 
L 1497 1594 
L 488 2988 
L 78 2988 
L 78 3322 
L 1563 3322 
L 1563 2988 
L 1166 2988 
L 1863 2028 
z
" transform="scale(0.015625)"/>
      <path id="DejaVuSerif-6c" d="M 1313 331 
L 1856 331 
L 1856 0 
L 184 0 
L 184 331 
L 738 331 
L 738 4531 
L 184 4531 
L 184 4863 
L 1313 4863 
L 1313 331 
z
" transform="scale(0.015625)"/>
      <path id="DejaVuSerif-66" d="M 2753 4078 
L 2450 4078 
Q 2447 4313 2317 4434 
Q 2188 4556 1941 4556 
Q 1619 4556 1487 4379 
Q 1356 4203 1356 3750 
L 1356 3322 
L 2284 3322 
L 2284 2988 
L 1356 2988 
L 1356 331 
L 2094 331 
L 2094 0 
L 231 0 
L 231 331 
L 781 331 
L 781 2988 
L 231 2988 
L 231 3322 
L 781 3322 
L 781 3738 
Q 781 4294 1070 4578 
Q 1359 4863 1919 4863 
Q 2128 4863 2337 4825 
Q 2547 4788 2753 4709 
L 2753 4078 
z
" transform="scale(0.015625)"/>
      <path id="DejaVuSerif-6f" d="M 1925 219 
Q 2388 219 2623 584 
Q 2859 950 2859 1663 
Q 2859 2375 2623 2739 
Q 2388 3103 1925 3103 
Q 1463 3103 1227 2739 
Q 991 2375 991 1663 
Q 991 950 1228 584 
Q 1466 219 1925 219 
z
M 1925 -91 
Q 1200 -91 759 389 
Q 319 869 319 1663 
Q 319 2456 758 2934 
Q 1197 3413 1925 3413 
Q 2653 3413 3092 2934 
Q 3531 2456 3531 1663 
Q 3531 869 3092 389 
Q 2653 -91 1925 -91 
z
" transform="scale(0.015625)"/>
      <path id="DejaVuSerif-72" d="M 3059 3328 
L 3059 2497 
L 2728 2497 
Q 2713 2744 2591 2866 
Q 2469 2988 2234 2988 
Q 1809 2988 1582 2694 
Q 1356 2400 1356 1850 
L 1356 331 
L 2022 331 
L 2022 0 
L 263 0 
L 263 331 
L 781 331 
L 781 2994 
L 231 2994 
L 231 3322 
L 1356 3322 
L 1356 2731 
Q 1525 3078 1790 3245 
Q 2056 3413 2438 3413 
Q 2578 3413 2733 3391 
Q 2888 3369 3059 3328 
z
" transform="scale(0.015625)"/>
      <path id="DejaVuSerif-63" d="M 3291 997 
Q 3169 466 2822 187 
Q 2475 -91 1925 -91 
Q 1200 -91 759 389 
Q 319 869 319 1663 
Q 319 2459 759 2936 
Q 1200 3413 1925 3413 
Q 2241 3413 2553 3339 
Q 2866 3266 3181 3116 
L 3181 2266 
L 2847 2266 
Q 2781 2703 2561 2903 
Q 2341 3103 1931 3103 
Q 1466 3103 1228 2742 
Q 991 2381 991 1663 
Q 991 944 1227 581 
Q 1463 219 1931 219 
Q 2303 219 2525 412 
Q 2747 606 2828 997 
L 3291 997 
z
" transform="scale(0.015625)"/>
      <path id="DejaVuSans-Oblique-46" d="M 1081 4666 
L 3756 4666 
L 3653 4134 
L 1606 4134 
L 1338 2759 
L 3188 2759 
L 3084 2228 
L 1234 2228 
L 800 0 
L 172 0 
L 1081 4666 
z
" transform="scale(0.015625)"/>
      <path id="DejaVuSans-Oblique-69" d="M 1172 4863 
L 1747 4863 
L 1606 4134 
L 1031 4134 
L 1172 4863 
z
M 909 3500 
L 1484 3500 
L 800 0 
L 225 0 
L 909 3500 
z
" transform="scale(0.015625)"/>
     </defs>
     <use xlink:href="#DejaVuSerif-53" transform="translate(0 0.015625)"/>
     <use xlink:href="#DejaVuSerif-69" transform="translate(68.505859 0.015625)"/>
     <use xlink:href="#DejaVuSerif-67" transform="translate(100.488281 0.015625)"/>
     <use xlink:href="#DejaVuSerif-6e" transform="translate(164.501953 0.015625)"/>
     <use xlink:href="#DejaVuSerif-65" transform="translate(228.90625 0.015625)"/>
     <use xlink:href="#DejaVuSerif-64" transform="translate(288.085938 0.015625)"/>
     <use xlink:href="#DejaVuSerif-20" transform="translate(352.099609 0.015625)"/>
     <use xlink:href="#DejaVuSerif-61" transform="translate(383.886719 0.015625)"/>
     <use xlink:href="#DejaVuSerif-78" transform="translate(443.505859 0.015625)"/>
     <use xlink:href="#DejaVuSerif-69" transform="translate(499.902344 0.015625)"/>
     <use xlink:href="#DejaVuSerif-61" transform="translate(531.884766 0.015625)"/>
     <use xlink:href="#DejaVuSerif-6c" transform="translate(591.503906 0.015625)"/>
     <use xlink:href="#DejaVuSerif-20" transform="translate(623.486328 0.015625)"/>
     <use xlink:href="#DejaVuSerif-66" transform="translate(655.273438 0.015625)"/>
     <use xlink:href="#DejaVuSerif-6f" transform="translate(692.285156 0.015625)"/>
     <use xlink:href="#DejaVuSerif-72" transform="translate(752.490234 0.015625)"/>
     <use xlink:href="#DejaVuSerif-63" transform="translate(800.292969 0.015625)"/>
     <use xlink:href="#DejaVuSerif-65" transform="translate(856.298828 0.015625)"/>
     <use xlink:href="#DejaVuSerif-20" transform="translate(915.478516 0.015625)"/>
     <use xlink:href="#DejaVuSans-Oblique-46" transform="translate(947.265625 0.015625)"/>
     <use xlink:href="#DejaVuSans-Oblique-69" transform="translate(1004.785156 -16.390625) scale(0.7)"/>
    </g>
   </g>
   <g id="text_2">
    <!-- $F_i \geq 0$ tension -->
    <g transform="translate(33.92025 79.733719) scale(0.09 -0.09)">
     <defs>
      <path id="DejaVuSans-2265" d="M 678 3175 
L 678 3725 
L 4684 2578 
L 4684 2047 
L 678 897 
L 678 1453 
L 3681 2309 
L 678 3175 
z
M 4684 531 
L 4684 0 
L 678 0 
L 678 531 
L 4684 531 
z
" transform="scale(0.015625)"/>
      <path id="DejaVuSans-30" d="M 2034 4250 
Q 1547 4250 1301 3770 
Q 1056 3291 1056 2328 
Q 1056 1369 1301 889 
Q 1547 409 2034 409 
Q 2525 409 2770 889 
Q 3016 1369 3016 2328 
Q 3016 3291 2770 3770 
Q 2525 4250 2034 4250 
z
M 2034 4750 
Q 2819 4750 3233 4129 
Q 3647 3509 3647 2328 
Q 3647 1150 3233 529 
Q 2819 -91 2034 -91 
Q 1250 -91 836 529 
Q 422 1150 422 2328 
Q 422 3509 836 4129 
Q 1250 4750 2034 4750 
z
" transform="scale(0.015625)"/>
      <path id="DejaVuSerif-74" d="M 691 2988 
L 184 2988 
L 184 3322 
L 691 3322 
L 691 4353 
L 1269 4353 
L 1269 3322 
L 2350 3322 
L 2350 2988 
L 1269 2988 
L 1269 878 
Q 1269 456 1350 337 
Q 1431 219 1650 219 
Q 1875 219 1978 351 
Q 2081 484 2088 781 
L 2522 781 
Q 2497 328 2275 118 
Q 2053 -91 1600 -91 
Q 1103 -91 897 129 
Q 691 350 691 878 
L 691 2988 
z
" transform="scale(0.015625)"/>
      <path id="DejaVuSerif-73" d="M 359 184 
L 359 959 
L 691 959 
Q 703 588 923 403 
Q 1144 219 1575 219 
Q 1963 219 2166 364 
Q 2369 509 2369 788 
Q 2369 1006 2220 1140 
Q 2072 1275 1594 1428 
L 1178 1569 
Q 750 1706 558 1912 
Q 366 2119 366 2438 
Q 366 2894 700 3153 
Q 1034 3413 1625 3413 
Q 1888 3413 2178 3344 
Q 2469 3275 2778 3144 
L 2778 2419 
L 2447 2419 
Q 2434 2741 2221 2922 
Q 2009 3103 1644 3103 
Q 1281 3103 1095 2975 
Q 909 2847 909 2591 
Q 909 2381 1050 2254 
Q 1191 2128 1613 1997 
L 2069 1856 
Q 2541 1709 2748 1489 
Q 2956 1269 2956 922 
Q 2956 450 2595 179 
Q 2234 -91 1600 -91 
Q 1278 -91 972 -22 
Q 666 47 359 184 
z
" transform="scale(0.015625)"/>
     </defs>
     <use xlink:href="#DejaVuSans-Oblique-46" transform="translate(0 0.78125)"/>
     <use xlink:href="#DejaVuSans-Oblique-69" transform="translate(57.519531 -15.625) scale(0.7)"/>
     <use xlink:href="#DejaVuSans-2265" transform="translate(99.18457 0.78125)"/>
     <use xlink:href="#DejaVuSans-30" transform="translate(202.456055 0.78125)"/>
     <use xlink:href="#DejaVuSerif-20" transform="translate(266.079102 0.78125)"/>
     <use xlink:href="#DejaVuSerif-74" transform="translate(297.866211 0.78125)"/>
     <use xlink:href="#DejaVuSerif-65" transform="translate(338.051758 0.78125)"/>
     <use xlink:href="#DejaVuSerif-6e" transform="translate(397.231445 0.78125)"/>
     <use xlink:href="#DejaVuSerif-73" transform="translate(461.635742 0.78125)"/>
     <use xlink:href="#DejaVuSerif-69" transform="translate(512.954102 0.78125)"/>
     <use xlink:href="#DejaVuSerif-6f" transform="translate(544.936523 0.78125)"/>
     <use xlink:href="#DejaVuSerif-6e" transform="translate(605.141602 0.78125)"/>
    </g>
   </g>
   <g id="text_3">
    <!-- $F_i &lt; 0$ compression -->
    <g transform="translate(203.181 79.715437) scale(0.09 -0.09)">
     <defs>
      <path id="DejaVuSans-3c" d="M 4684 3150 
L 1459 2003 
L 4684 863 
L 4684 294 
L 678 1747 
L 678 2266 
L 4684 3719 
L 4684 3150 
z
" transform="scale(0.015625)"/>
      <path id="DejaVuSerif-6d" d="M 3316 2675 
Q 3481 3041 3739 3227 
Q 3997 3413 4341 3413 
Q 4863 3413 5119 3089 
Q 5375 2766 5375 2113 
L 5375 331 
L 5894 331 
L 5894 0 
L 4300 0 
L 4300 331 
L 4800 331 
L 4800 2047 
Q 4800 2556 4650 2772 
Q 4500 2988 4153 2988 
Q 3769 2988 3567 2697 
Q 3366 2406 3366 1850 
L 3366 331 
L 3866 331 
L 3866 0 
L 2291 0 
L 2291 331 
L 2791 331 
L 2791 2069 
Q 2791 2566 2641 2777 
Q 2491 2988 2144 2988 
Q 1759 2988 1557 2697 
Q 1356 2406 1356 1850 
L 1356 331 
L 1856 331 
L 1856 0 
L 263 0 
L 263 331 
L 781 331 
L 781 2994 
L 231 2994 
L 231 3322 
L 1356 3322 
L 1356 2731 
Q 1516 3063 1762 3238 
Q 2009 3413 2322 3413 
Q 2709 3413 2968 3220 
Q 3228 3028 3316 2675 
z
" transform="scale(0.015625)"/>
      <path id="DejaVuSerif-70" d="M 1313 1825 
L 1313 1497 
Q 1313 897 1542 583 
Q 1772 269 2209 269 
Q 2650 269 2876 622 
Q 3103 975 3103 1663 
Q 3103 2353 2876 2703 
Q 2650 3053 2209 3053 
Q 1772 3053 1542 2737 
Q 1313 2422 1313 1825 
z
M 738 2988 
L 184 2988 
L 184 3322 
L 1313 3322 
L 1313 2803 
Q 1481 3116 1742 3264 
Q 2003 3413 2388 3413 
Q 3000 3413 3387 2928 
Q 3775 2444 3775 1663 
Q 3775 881 3387 395 
Q 3000 -91 2388 -91 
Q 2003 -91 1742 57 
Q 1481 206 1313 519 
L 1313 -997 
L 1856 -997 
L 1856 -1331 
L 184 -1331 
L 184 -997 
L 738 -997 
L 738 2988 
z
" transform="scale(0.015625)"/>
     </defs>
     <use xlink:href="#DejaVuSans-Oblique-46" transform="translate(0 0.78125)"/>
     <use xlink:href="#DejaVuSans-Oblique-69" transform="translate(57.519531 -15.625) scale(0.7)"/>
     <use xlink:href="#DejaVuSans-3c" transform="translate(99.18457 0.78125)"/>
     <use xlink:href="#DejaVuSans-30" transform="translate(202.456055 0.78125)"/>
     <use xlink:href="#DejaVuSerif-20" transform="translate(266.079102 0.78125)"/>
     <use xlink:href="#DejaVuSerif-63" transform="translate(297.866211 0.78125)"/>
     <use xlink:href="#DejaVuSerif-6f" transform="translate(353.87207 0.78125)"/>
     <use xlink:href="#DejaVuSerif-6d" transform="translate(414.077148 0.78125)"/>
     <use xlink:href="#DejaVuSerif-70" transform="translate(508.901367 0.78125)"/>
     <use xlink:href="#DejaVuSerif-72" transform="translate(572.915039 0.78125)"/>
     <use xlink:href="#DejaVuSerif-65" transform="translate(620.717773 0.78125)"/>
     <use xlink:href="#DejaVuSerif-73" transform="translate(679.897461 0.78125)"/>
     <use xlink:href="#DejaVuSerif-73" transform="translate(731.21582 0.78125)"/>
     <use xlink:href="#DejaVuSerif-69" transform="translate(782.53418 0.78125)"/>
     <use xlink:href="#DejaVuSerif-6f" transform="translate(814.516602 0.78125)"/>
     <use xlink:href="#DejaVuSerif-6e" transform="translate(874.72168 0.78125)"/>
    </g>
   </g>
   <g id="text_4">
    <!-- Cl. 6.2 yielding -->
    <g transform="translate(29.557359 103.790719) scale(0.09 -0.09)">
     <defs>
      <path id="DejaVuSerif-43" d="M 4513 1234 
Q 4306 581 3820 245 
Q 3334 -91 2591 -91 
Q 2134 -91 1743 65 
Q 1353 222 1050 525 
Q 700 875 529 1320 
Q 359 1766 359 2328 
Q 359 3416 987 4083 
Q 1616 4750 2644 4750 
Q 3025 4750 3456 4650 
Q 3888 4550 4384 4347 
L 4384 3272 
L 4031 3272 
Q 3916 3859 3567 4137 
Q 3219 4416 2591 4416 
Q 1844 4416 1459 3886 
Q 1075 3356 1075 2328 
Q 1075 1303 1459 773 
Q 1844 244 2591 244 
Q 3113 244 3450 492 
Q 3788 741 3938 1234 
L 4513 1234 
z
" transform="scale(0.015625)"/>
      <path id="DejaVuSerif-2e" d="M 603 325 
Q 603 500 722 622 
Q 841 744 1019 744 
Q 1191 744 1312 622 
Q 1434 500 1434 325 
Q 1434 153 1312 31 
Q 1191 -91 1019 -91 
Q 841 -91 722 29 
Q 603 150 603 325 
z
" transform="scale(0.015625)"/>
      <path id="DejaVuSerif-36" d="M 2094 219 
Q 2534 219 2771 542 
Q 3009 866 3009 1472 
Q 3009 2078 2771 2401 
Q 2534 2725 2094 2725 
Q 1647 2725 1412 2412 
Q 1178 2100 1178 1509 
Q 1178 888 1415 553 
Q 1653 219 2094 219 
z
M 1075 2569 
Q 1288 2803 1556 2918 
Q 1825 3034 2163 3034 
Q 2859 3034 3264 2615 
Q 3669 2197 3669 1472 
Q 3669 763 3233 336 
Q 2797 -91 2069 -91 
Q 1278 -91 853 498 
Q 428 1088 428 2181 
Q 428 3406 931 4078 
Q 1434 4750 2350 4750 
Q 2597 4750 2869 4703 
Q 3141 4656 3425 4563 
L 3425 3794 
L 3072 3794 
Q 3034 4109 2831 4275 
Q 2628 4441 2284 4441 
Q 1678 4441 1381 3981 
Q 1084 3522 1075 2569 
z
" transform="scale(0.015625)"/>
      <path id="DejaVuSerif-32" d="M 819 3553 
L 469 3553 
L 469 4384 
Q 803 4563 1142 4656 
Q 1481 4750 1806 4750 
Q 2534 4750 2956 4397 
Q 3378 4044 3378 3438 
Q 3378 2753 2422 1800 
Q 2347 1728 2309 1691 
L 1131 513 
L 3078 513 
L 3078 1088 
L 3444 1088 
L 3444 0 
L 434 0 
L 434 341 
L 1850 1753 
Q 2319 2222 2519 2614 
Q 2719 3006 2719 3438 
Q 2719 3909 2473 4175 
Q 2228 4441 1797 4441 
Q 1350 4441 1106 4219 
Q 863 3997 819 3553 
z
" transform="scale(0.015625)"/>
      <path id="DejaVuSerif-79" d="M 1381 -609 
L 1600 -56 
L 359 2988 
L -19 2988 
L -19 3322 
L 1509 3322 
L 1509 2988 
L 978 2988 
L 1913 703 
L 2847 2988 
L 2350 2988 
L 2350 3322 
L 3597 3322 
L 3597 2988 
L 3225 2988 
L 1703 -750 
Q 1547 -1138 1356 -1280 
Q 1166 -1422 819 -1422 
Q 672 -1422 517 -1397 
Q 363 -1372 206 -1325 
L 206 -691 
L 500 -691 
Q 519 -903 608 -995 
Q 697 -1088 884 -1088 
Q 1056 -1088 1161 -992 
Q 1266 -897 1381 -609 
z
" transform="scale(0.015625)"/>
     </defs>
     <use xlink:href="#DejaVuSerif-43"/>
     <use xlink:href="#DejaVuSerif-6c" transform="translate(76.513672 0)"/>
     <use xlink:href="#DejaVuSerif-2e" transform="translate(108.496094 0)"/>
     <use xlink:href="#DejaVuSerif-20" transform="translate(140.283203 0)"/>
     <use xlink:href="#DejaVuSerif-36" transform="translate(172.070312 0)"/>
     <use xlink:href="#DejaVuSerif-2e" transform="translate(235.693359 0)"/>
     <use xlink:href="#DejaVuSerif-32" transform="translate(267.480469 0)"/>
     <use xlink:href="#DejaVuSerif-20" transform="translate(331.103516 0)"/>
     <use xlink:href="#DejaVuSerif-79" transform="translate(362.890625 0)"/>
     <use xlink:href="#DejaVuSerif-69" transform="translate(419.384766 0)"/>
     <use xlink:href="#DejaVuSerif-65" transform="translate(451.367188 0)"/>
     <use xlink:href="#DejaVuSerif-6c" transform="translate(510.546875 0)"/>
     <use xlink:href="#DejaVuSerif-64" transform="translate(542.529297 0)"/>
     <use xlink:href="#DejaVuSerif-69" transform="translate(606.542969 0)"/>
     <use xlink:href="#DejaVuSerif-6e" transform="translate(638.525391 0)"/>
     <use xlink:href="#DejaVuSerif-67" transform="translate(702.929688 0)"/>
    </g>
    <!-- Cl. 6.3 rupture -->
    <g transform="translate(30.290016 113.996719) scale(0.09 -0.09)">
     <defs>
      <path id="DejaVuSerif-33" d="M 622 4469 
Q 988 4606 1323 4678 
Q 1659 4750 1953 4750 
Q 2638 4750 3022 4454 
Q 3406 4159 3406 3634 
Q 3406 3213 3140 2930 
Q 2875 2647 2388 2547 
Q 2963 2466 3280 2130 
Q 3597 1794 3597 1259 
Q 3597 606 3158 257 
Q 2719 -91 1894 -91 
Q 1528 -91 1179 -12 
Q 831 66 488 225 
L 488 1131 
L 838 1131 
Q 869 681 1141 450 
Q 1413 219 1906 219 
Q 2384 219 2661 495 
Q 2938 772 2938 1253 
Q 2938 1803 2653 2086 
Q 2369 2369 1819 2369 
L 1522 2369 
L 1522 2688 
L 1678 2688 
Q 2225 2688 2498 2914 
Q 2772 3141 2772 3597 
Q 2772 4006 2547 4223 
Q 2322 4441 1900 4441 
Q 1478 4441 1245 4241 
Q 1013 4041 972 3647 
L 622 3647 
L 622 4469 
z
" transform="scale(0.015625)"/>
      <path id="DejaVuSerif-75" d="M 2266 3322 
L 3341 3322 
L 3341 331 
L 3884 331 
L 3884 0 
L 2766 0 
L 2766 588 
Q 2606 256 2353 82 
Q 2100 -91 1766 -91 
Q 1213 -91 952 223 
Q 691 538 691 1209 
L 691 2988 
L 172 2988 
L 172 3322 
L 1269 3322 
L 1269 1388 
Q 1269 781 1417 556 
Q 1566 331 1947 331 
Q 2347 331 2556 625 
Q 2766 919 2766 1478 
L 2766 2988 
L 2266 2988 
L 2266 3322 
z
" transform="scale(0.015625)"/>
     </defs>
     <use xlink:href="#DejaVuSerif-43"/>
     <use xlink:href="#DejaVuSerif-6c" transform="translate(76.513672 0)"/>
     <use xlink:href="#DejaVuSerif-2e" transform="translate(108.496094 0)"/>
     <use xlink:href="#DejaVuSerif-20" transform="translate(140.283203 0)"/>
     <use xlink:href="#DejaVuSerif-36" transform="translate(172.070312 0)"/>
     <use xlink:href="#DejaVuSerif-2e" transform="translate(235.693359 0)"/>
     <use xlink:href="#DejaVuSerif-33" transform="translate(267.480469 0)"/>
     <use xlink:href="#DejaVuSerif-20" transform="translate(331.103516 0)"/>
     <use xlink:href="#DejaVuSerif-72" transform="translate(362.890625 0)"/>
     <use xlink:href="#DejaVuSerif-75" transform="translate(410.693359 0)"/>
     <use xlink:href="#DejaVuSerif-70" transform="translate(475.097656 0)"/>
     <use xlink:href="#DejaVuSerif-74" transform="translate(539.111328 0)"/>
     <use xlink:href="#DejaVuSerif-75" transform="translate(579.296875 0)"/>
     <use xlink:href="#DejaVuSerif-72" transform="translate(643.701172 0)"/>
     <use xlink:href="#DejaVuSerif-65" transform="translate(691.503906 0)"/>
    </g>
   </g>
   <g id="text_5">
    <!-- Cl. 3.8: $\lambda \leq 400$ -->
    <g transform="translate(29.60025 138.053719) scale(0.09 -0.09)">
     <defs>
      <path id="DejaVuSerif-38" d="M 2981 1275 
Q 2981 1775 2732 2051 
Q 2484 2328 2034 2328 
Q 1584 2328 1336 2051 
Q 1088 1775 1088 1275 
Q 1088 772 1336 495 
Q 1584 219 2034 219 
Q 2484 219 2732 495 
Q 2981 772 2981 1275 
z
M 2853 3541 
Q 2853 3966 2637 4203 
Q 2422 4441 2034 4441 
Q 1650 4441 1433 4203 
Q 1216 3966 1216 3541 
Q 1216 3113 1433 2875 
Q 1650 2638 2034 2638 
Q 2422 2638 2637 2875 
Q 2853 3113 2853 3541 
z
M 2516 2484 
Q 3047 2413 3344 2092 
Q 3641 1772 3641 1275 
Q 3641 619 3225 264 
Q 2809 -91 2034 -91 
Q 1263 -91 845 264 
Q 428 619 428 1275 
Q 428 1772 725 2092 
Q 1022 2413 1556 2484 
Q 1084 2569 832 2842 
Q 581 3116 581 3541 
Q 581 4103 968 4426 
Q 1356 4750 2034 4750 
Q 2713 4750 3100 4426 
Q 3488 4103 3488 3541 
Q 3488 3116 3236 2842 
Q 2984 2569 2516 2484 
z
" transform="scale(0.015625)"/>
      <path id="DejaVuSerif-3a" d="M 666 325 
Q 666 500 786 622 
Q 906 744 1081 744 
Q 1256 744 1376 622 
Q 1497 500 1497 325 
Q 1497 150 1378 29 
Q 1259 -91 1081 -91 
Q 903 -91 784 29 
Q 666 150 666 325 
z
M 666 2363 
Q 666 2538 786 2658 
Q 906 2778 1081 2778 
Q 1259 2778 1378 2659 
Q 1497 2541 1497 2363 
Q 1497 2184 1378 2065 
Q 1259 1947 1081 1947 
Q 906 1947 786 2067 
Q 666 2188 666 2363 
z
" transform="scale(0.015625)"/>
      <path id="DejaVuSans-Oblique-3bb" d="M 2350 4316 
L 3125 0 
L 2516 0 
L 2038 2588 
L 328 0 
L -281 0 
L 1903 3356 
L 1794 3975 
Q 1725 4369 1391 4369 
L 1091 4369 
L 1184 4863 
L 1550 4856 
Q 2253 4847 2350 4316 
z
" transform="scale(0.015625)"/>
      <path id="DejaVuSans-2264" d="M 4684 3175 
L 1684 2309 
L 4684 1453 
L 4684 897 
L 678 2047 
L 678 2578 
L 4684 3725 
L 4684 3175 
z
M 678 531 
L 4684 531 
L 4684 0 
L 678 0 
L 678 531 
z
" transform="scale(0.015625)"/>
      <path id="DejaVuSans-34" d="M 2419 4116 
L 825 1625 
L 2419 1625 
L 2419 4116 
z
M 2253 4666 
L 3047 4666 
L 3047 1625 
L 3713 1625 
L 3713 1100 
L 3047 1100 
L 3047 0 
L 2419 0 
L 2419 1100 
L 313 1100 
L 313 1709 
L 2253 4666 
z
" transform="scale(0.015625)"/>
     </defs>
     <use xlink:href="#DejaVuSerif-43" transform="translate(0 0.015625)"/>
     <use xlink:href="#DejaVuSerif-6c" transform="translate(76.513672 0.015625)"/>
     <use xlink:href="#DejaVuSerif-2e" transform="translate(108.496094 0.015625)"/>
     <use xlink:href="#DejaVuSerif-20" transform="translate(140.283203 0.015625)"/>
     <use xlink:href="#DejaVuSerif-33" transform="translate(172.070312 0.015625)"/>
     <use xlink:href="#DejaVuSerif-2e" transform="translate(235.693359 0.015625)"/>
     <use xlink:href="#DejaVuSerif-38" transform="translate(263.855469 0.015625)"/>
     <use xlink:href="#DejaVuSerif-3a" transform="translate(327.478516 0.015625)"/>
     <use xlink:href="#DejaVuSerif-20" transform="translate(361.169922 0.015625)"/>
     <use xlink:href="#DejaVuSans-Oblique-3bb" transform="translate(392.957031 0.015625)"/>
     <use xlink:href="#DejaVuSans-2264" transform="translate(471.619141 0.015625)"/>
     <use xlink:href="#DejaVuSans-34" transform="translate(574.890625 0.015625)"/>
     <use xlink:href="#DejaVuSans-30" transform="translate(638.513672 0.015625)"/>
     <use xlink:href="#DejaVuSans-30" transform="translate(702.136719 0.015625)"/>
    </g>
   </g>
   <g id="text_6">
    <!-- Cl. 7.1 buckling curve -->
    <g transform="translate(195.263109 103.330734) scale(0.09 -0.09)">
     <defs>
      <path id="DejaVuSerif-37" d="M 3609 4347 
L 1784 0 
L 1319 0 
L 3059 4153 
L 903 4153 
L 903 3578 
L 538 3578 
L 538 4666 
L 3609 4666 
L 3609 4347 
z
" transform="scale(0.015625)"/>
      <path id="DejaVuSerif-31" d="M 909 0 
L 909 331 
L 1722 331 
L 1722 4213 
L 781 3603 
L 781 4013 
L 1919 4750 
L 2350 4750 
L 2350 331 
L 3163 331 
L 3163 0 
L 909 0 
z
" transform="scale(0.015625)"/>
      <path id="DejaVuSerif-62" d="M 738 331 
L 738 4531 
L 184 4531 
L 184 4863 
L 1313 4863 
L 1313 2803 
Q 1481 3116 1742 3264 
Q 2003 3413 2388 3413 
Q 3000 3413 3387 2928 
Q 3775 2444 3775 1663 
Q 3775 881 3387 395 
Q 3000 -91 2388 -91 
Q 2003 -91 1742 57 
Q 1481 206 1313 519 
L 1313 0 
L 184 0 
L 184 331 
L 738 331 
z
M 1313 1497 
Q 1313 897 1542 583 
Q 1772 269 2209 269 
Q 2650 269 2876 622 
Q 3103 975 3103 1663 
Q 3103 2353 2876 2703 
Q 2650 3053 2209 3053 
Q 1772 3053 1542 2737 
Q 1313 2422 1313 1825 
L 1313 1497 
z
" transform="scale(0.015625)"/>
      <path id="DejaVuSerif-6b" d="M 1831 0 
L 219 0 
L 219 331 
L 738 331 
L 738 4531 
L 184 4531 
L 184 4863 
L 1313 4863 
L 1313 1697 
L 2713 2988 
L 2234 2988 
L 2234 3322 
L 3738 3322 
L 3738 2988 
L 3169 2988 
L 2181 2075 
L 3444 331 
L 3922 331 
L 3922 0 
L 2284 0 
L 2284 331 
L 2759 331 
L 1766 1697 
L 1313 1275 
L 1313 331 
L 1831 331 
L 1831 0 
z
" transform="scale(0.015625)"/>
      <path id="DejaVuSerif-76" d="M 1581 0 
L 359 2988 
L -19 2988 
L -19 3322 
L 1509 3322 
L 1509 2988 
L 978 2988 
L 1913 703 
L 2847 2988 
L 2350 2988 
L 2350 3322 
L 3597 3322 
L 3597 2988 
L 3225 2988 
L 2003 0 
L 1581 0 
z
" transform="scale(0.015625)"/>
     </defs>
     <use xlink:href="#DejaVuSerif-43"/>
     <use xlink:href="#DejaVuSerif-6c" transform="translate(76.513672 0)"/>
     <use xlink:href="#DejaVuSerif-2e" transform="translate(108.496094 0)"/>
     <use xlink:href="#DejaVuSerif-20" transform="translate(140.283203 0)"/>
     <use xlink:href="#DejaVuSerif-37" transform="translate(172.070312 0)"/>
     <use xlink:href="#DejaVuSerif-2e" transform="translate(235.693359 0)"/>
     <use xlink:href="#DejaVuSerif-31" transform="translate(267.480469 0)"/>
     <use xlink:href="#DejaVuSerif-20" transform="translate(331.103516 0)"/>
     <use xlink:href="#DejaVuSerif-62" transform="translate(362.890625 0)"/>
     <use xlink:href="#DejaVuSerif-75" transform="translate(426.904297 0)"/>
     <use xlink:href="#DejaVuSerif-63" transform="translate(491.308594 0)"/>
     <use xlink:href="#DejaVuSerif-6b" transform="translate(547.314453 0)"/>
     <use xlink:href="#DejaVuSerif-6c" transform="translate(607.910156 0)"/>
     <use xlink:href="#DejaVuSerif-69" transform="translate(639.892578 0)"/>
     <use xlink:href="#DejaVuSerif-6e" transform="translate(671.875 0)"/>
     <use xlink:href="#DejaVuSerif-67" transform="translate(736.279297 0)"/>
     <use xlink:href="#DejaVuSerif-20" transform="translate(800.292969 0)"/>
     <use xlink:href="#DejaVuSerif-63" transform="translate(832.080078 0)"/>
     <use xlink:href="#DejaVuSerif-75" transform="translate(888.085938 0)"/>
     <use xlink:href="#DejaVuSerif-72" transform="translate(952.490234 0)"/>
     <use xlink:href="#DejaVuSerif-76" transform="translate(1000.292969 0)"/>
     <use xlink:href="#DejaVuSerif-65" transform="translate(1056.787109 0)"/>
    </g>
    <!-- $\chi f_y / \gamma_{m0}$ -->
    <g transform="translate(229.866 113.538422) scale(0.09 -0.09)">
     <defs>
      <path id="DejaVuSans-Oblique-3c7" d="M 1922 -781 
L 1691 416 
L 394 -1334 
L -284 -1334 
L 1553 1141 
L 1269 2613 
Q 1194 3006 713 3006 
L 559 3006 
L 653 3500 
L 872 3494 
Q 1675 3472 1775 2950 
L 2006 1753 
L 3303 3503 
L 3981 3503 
L 2144 1028 
L 2428 -444 
Q 2503 -838 2984 -838 
L 3138 -838 
L 3044 -1331 
L 2825 -1325 
Q 2022 -1303 1922 -781 
z
" transform="scale(0.015625)"/>
      <path id="DejaVuSans-Oblique-66" d="M 3059 4863 
L 2969 4384 
L 2419 4384 
Q 2106 4384 1964 4261 
Q 1822 4138 1753 3809 
L 1691 3500 
L 2638 3500 
L 2553 3053 
L 1606 3053 
L 1013 0 
L 434 0 
L 1031 3053 
L 481 3053 
L 563 3500 
L 1113 3500 
L 1159 3744 
Q 1278 4363 1576 4613 
Q 1875 4863 2516 4863 
L 3059 4863 
z
" transform="scale(0.015625)"/>
      <path id="DejaVuSans-Oblique-79" d="M 1588 -325 
Q 1188 -997 936 -1164 
Q 684 -1331 294 -1331 
L -159 -1331 
L -63 -850 
L 269 -850 
Q 509 -850 678 -719 
Q 847 -588 1056 -206 
L 1234 128 
L 459 3500 
L 1069 3500 
L 1650 819 
L 3256 3500 
L 3859 3500 
L 1588 -325 
z
" transform="scale(0.015625)"/>
      <path id="DejaVuSans-2f" d="M 1625 4666 
L 2156 4666 
L 531 -594 
L 0 -594 
L 1625 4666 
z
" transform="scale(0.015625)"/>
      <path id="DejaVuSans-Oblique-3b3" d="M 1491 2950 
L 1838 788 
L 3456 3500 
L 4066 3500 
L 1972 0 
L 1713 -1331 
L 1138 -1331 
L 1397 0 
L 988 2613 
Q 925 3006 628 3006 
L 475 3006 
L 569 3500 
L 788 3500 
Q 1403 3500 1491 2950 
z
" transform="scale(0.015625)"/>
      <path id="DejaVuSans-Oblique-6d" d="M 5747 2113 
L 5338 0 
L 4763 0 
L 5166 2094 
Q 5191 2228 5203 2325 
Q 5216 2422 5216 2491 
Q 5216 2772 5059 2928 
Q 4903 3084 4622 3084 
Q 4203 3084 3875 2770 
Q 3547 2456 3450 1953 
L 3066 0 
L 2491 0 
L 2900 2094 
Q 2925 2209 2937 2307 
Q 2950 2406 2950 2484 
Q 2950 2769 2794 2926 
Q 2638 3084 2363 3084 
Q 1938 3084 1609 2770 
Q 1281 2456 1184 1953 
L 800 0 
L 225 0 
L 909 3500 
L 1484 3500 
L 1375 2956 
Q 1609 3263 1923 3423 
Q 2238 3584 2597 3584 
Q 2978 3584 3223 3384 
Q 3469 3184 3519 2828 
Q 3781 3197 4126 3390 
Q 4472 3584 4856 3584 
Q 5306 3584 5551 3325 
Q 5797 3066 5797 2591 
Q 5797 2488 5784 2364 
Q 5772 2241 5747 2113 
z
" transform="scale(0.015625)"/>
     </defs>
     <use xlink:href="#DejaVuSans-Oblique-3c7" transform="translate(0 0.015625)"/>
     <use xlink:href="#DejaVuSans-Oblique-66" transform="translate(59.179688 0.015625)"/>
     <use xlink:href="#DejaVuSans-Oblique-79" transform="translate(94.384766 -16.390625) scale(0.7)"/>
     <use xlink:href="#DejaVuSans-2f" transform="translate(138.544922 0.015625)"/>
     <use xlink:href="#DejaVuSans-Oblique-3b3" transform="translate(172.236328 0.015625)"/>
     <use xlink:href="#DejaVuSans-Oblique-6d" transform="translate(231.416016 -16.390625) scale(0.7)"/>
     <use xlink:href="#DejaVuSans-30" transform="translate(299.604492 -16.390625) scale(0.7)"/>
    </g>
   </g>
   <g id="text_7">
    <!-- Cl. 3.8: $\lambda \leq 180$ -->
    <g transform="translate(211.011 138.053719) scale(0.09 -0.09)">
     <defs>
      <path id="DejaVuSans-31" d="M 794 531 
L 1825 531 
L 1825 4091 
L 703 3866 
L 703 4441 
L 1819 4666 
L 2450 4666 
L 2450 531 
L 3481 531 
L 3481 0 
L 794 0 
L 794 531 
z
" transform="scale(0.015625)"/>
      <path id="DejaVuSans-38" d="M 2034 2216 
Q 1584 2216 1326 1975 
Q 1069 1734 1069 1313 
Q 1069 891 1326 650 
Q 1584 409 2034 409 
Q 2484 409 2743 651 
Q 3003 894 3003 1313 
Q 3003 1734 2745 1975 
Q 2488 2216 2034 2216 
z
M 1403 2484 
Q 997 2584 770 2862 
Q 544 3141 544 3541 
Q 544 4100 942 4425 
Q 1341 4750 2034 4750 
Q 2731 4750 3128 4425 
Q 3525 4100 3525 3541 
Q 3525 3141 3298 2862 
Q 3072 2584 2669 2484 
Q 3125 2378 3379 2068 
Q 3634 1759 3634 1313 
Q 3634 634 3220 271 
Q 2806 -91 2034 -91 
Q 1263 -91 848 271 
Q 434 634 434 1313 
Q 434 1759 690 2068 
Q 947 2378 1403 2484 
z
M 1172 3481 
Q 1172 3119 1398 2916 
Q 1625 2713 2034 2713 
Q 2441 2713 2670 2916 
Q 2900 3119 2900 3481 
Q 2900 3844 2670 4047 
Q 2441 4250 2034 4250 
Q 1625 4250 1398 4047 
Q 1172 3844 1172 3481 
z
" transform="scale(0.015625)"/>
     </defs>
     <use xlink:href="#DejaVuSerif-43" transform="translate(0 0.015625)"/>
     <use xlink:href="#DejaVuSerif-6c" transform="translate(76.513672 0.015625)"/>
     <use xlink:href="#DejaVuSerif-2e" transform="translate(108.496094 0.015625)"/>
     <use xlink:href="#DejaVuSerif-20" transform="translate(140.283203 0.015625)"/>
     <use xlink:href="#DejaVuSerif-33" transform="translate(172.070312 0.015625)"/>
     <use xlink:href="#DejaVuSerif-2e" transform="translate(235.693359 0.015625)"/>
     <use xlink:href="#DejaVuSerif-38" transform="translate(263.855469 0.015625)"/>
     <use xlink:href="#DejaVuSerif-3a" transform="translate(327.478516 0.015625)"/>
     <use xlink:href="#DejaVuSerif-20" transform="translate(361.169922 0.015625)"/>
     <use xlink:href="#DejaVuSans-Oblique-3bb" transform="translate(392.957031 0.015625)"/>
     <use xlink:href="#DejaVuSans-2264" transform="translate(471.619141 0.015625)"/>
     <use xlink:href="#DejaVuSans-31" transform="translate(574.890625 0.015625)"/>
     <use xlink:href="#DejaVuSans-38" transform="translate(638.513672 0.015625)"/>
     <use xlink:href="#DejaVuSans-30" transform="translate(702.136719 0.015625)"/>
    </g>
   </g>
   <g id="text_8">
    <!-- Cl. 5.6.1: $\delta \leq L/325$ -->
    <g transform="translate(111.710625 171.101719) scale(0.09 -0.09)">
     <defs>
      <path id="DejaVuSerif-35" d="M 3219 4666 
L 3219 4153 
L 1081 4153 
L 1081 2816 
Q 1244 2928 1461 2984 
Q 1678 3041 1947 3041 
Q 2703 3041 3140 2622 
Q 3578 2203 3578 1478 
Q 3578 738 3136 323 
Q 2694 -91 1894 -91 
Q 1572 -91 1234 -12 
Q 897 66 544 225 
L 544 1131 
L 897 1131 
Q 925 688 1179 453 
Q 1434 219 1894 219 
Q 2388 219 2653 544 
Q 2919 869 2919 1478 
Q 2919 2084 2655 2407 
Q 2391 2731 1894 2731 
Q 1613 2731 1398 2631 
Q 1184 2531 1019 2322 
L 750 2322 
L 750 4666 
L 3219 4666 
z
" transform="scale(0.015625)"/>
      <path id="DejaVuSans-Oblique-3b4" d="M 3472 4053 
Q 3197 4272 2450 4272 
Q 1659 4272 1588 3906 
Q 1531 3619 2328 3469 
Q 2953 3353 3253 3003 
Q 3616 2581 3447 1716 
Q 3284 888 2763 400 
Q 2238 -91 1488 -91 
Q 741 -91 406 400 
Q 72 888 241 1747 
Q 363 2384 891 2900 
Q 1097 3100 1353 3213 
Q 913 3459 1000 3900 
Q 1166 4750 2544 4750 
Q 3234 4750 3566 4531 
L 3472 4053 
z
M 1753 3056 
Q 1525 2966 1306 2738 
Q 969 2384 847 1747 
Q 722 1113 919 756 
Q 1119 397 1584 397 
Q 2044 397 2381 759 
Q 2722 1122 2838 1716 
Q 2956 2338 2731 2638 
Q 2491 2959 2103 2994 
Q 1906 3013 1753 3056 
z
" transform="scale(0.015625)"/>
      <path id="DejaVuSans-Oblique-4c" d="M 1075 4666 
L 1709 4666 
L 909 525 
L 3181 525 
L 3078 0 
L 172 0 
L 1075 4666 
z
" transform="scale(0.015625)"/>
      <path id="DejaVuSans-33" d="M 2597 2516 
Q 3050 2419 3304 2112 
Q 3559 1806 3559 1356 
Q 3559 666 3084 287 
Q 2609 -91 1734 -91 
Q 1441 -91 1130 -33 
Q 819 25 488 141 
L 488 750 
Q 750 597 1062 519 
Q 1375 441 1716 441 
Q 2309 441 2620 675 
Q 2931 909 2931 1356 
Q 2931 1769 2642 2001 
Q 2353 2234 1838 2234 
L 1294 2234 
L 1294 2753 
L 1863 2753 
Q 2328 2753 2575 2939 
Q 2822 3125 2822 3475 
Q 2822 3834 2567 4026 
Q 2313 4219 1838 4219 
Q 1578 4219 1281 4162 
Q 984 4106 628 3988 
L 628 4550 
Q 988 4650 1302 4700 
Q 1616 4750 1894 4750 
Q 2613 4750 3031 4423 
Q 3450 4097 3450 3541 
Q 3450 3153 3228 2886 
Q 3006 2619 2597 2516 
z
" transform="scale(0.015625)"/>
      <path id="DejaVuSans-32" d="M 1228 531 
L 3431 531 
L 3431 0 
L 469 0 
L 469 531 
Q 828 903 1448 1529 
Q 2069 2156 2228 2338 
Q 2531 2678 2651 2914 
Q 2772 3150 2772 3378 
Q 2772 3750 2511 3984 
Q 2250 4219 1831 4219 
Q 1534 4219 1204 4116 
Q 875 4013 500 3803 
L 500 4441 
Q 881 4594 1212 4672 
Q 1544 4750 1819 4750 
Q 2544 4750 2975 4387 
Q 3406 4025 3406 3419 
Q 3406 3131 3298 2873 
Q 3191 2616 2906 2266 
Q 2828 2175 2409 1742 
Q 1991 1309 1228 531 
z
" transform="scale(0.015625)"/>
      <path id="DejaVuSans-35" d="M 691 4666 
L 3169 4666 
L 3169 4134 
L 1269 4134 
L 1269 2991 
Q 1406 3038 1543 3061 
Q 1681 3084 1819 3084 
Q 2600 3084 3056 2656 
Q 3513 2228 3513 1497 
Q 3513 744 3044 326 
Q 2575 -91 1722 -91 
Q 1428 -91 1123 -41 
Q 819 9 494 109 
L 494 744 
Q 775 591 1075 516 
Q 1375 441 1709 441 
Q 2250 441 2565 725 
Q 2881 1009 2881 1497 
Q 2881 1984 2565 2268 
Q 2250 2553 1709 2553 
Q 1456 2553 1204 2497 
Q 953 2441 691 2322 
L 691 4666 
z
" transform="scale(0.015625)"/>
     </defs>
     <use xlink:href="#DejaVuSerif-43" transform="translate(0 0.015625)"/>
     <use xlink:href="#DejaVuSerif-6c" transform="translate(76.513672 0.015625)"/>
     <use xlink:href="#DejaVuSerif-2e" transform="translate(108.496094 0.015625)"/>
     <use xlink:href="#DejaVuSerif-20" transform="translate(140.283203 0.015625)"/>
     <use xlink:href="#DejaVuSerif-35" transform="translate(172.070312 0.015625)"/>
     <use xlink:href="#DejaVuSerif-2e" transform="translate(235.693359 0.015625)"/>
     <use xlink:href="#DejaVuSerif-36" transform="translate(267.480469 0.015625)"/>
     <use xlink:href="#DejaVuSerif-2e" transform="translate(331.103516 0.015625)"/>
     <use xlink:href="#DejaVuSerif-31" transform="translate(362.890625 0.015625)"/>
     <use xlink:href="#DejaVuSerif-3a" transform="translate(426.513672 0.015625)"/>
     <use xlink:href="#DejaVuSerif-20" transform="translate(460.205078 0.015625)"/>
     <use xlink:href="#DejaVuSans-Oblique-3b4" transform="translate(491.992188 0.015625)"/>
     <use xlink:href="#DejaVuSans-2264" transform="translate(572.65625 0.015625)"/>
     <use xlink:href="#DejaVuSans-Oblique-4c" transform="translate(675.927734 0.015625)"/>
     <use xlink:href="#DejaVuSans-2f" transform="translate(731.640625 0.015625)"/>
     <use xlink:href="#DejaVuSans-33" transform="translate(765.332031 0.015625)"/>
     <use xlink:href="#DejaVuSans-32" transform="translate(828.955078 0.015625)"/>
     <use xlink:href="#DejaVuSans-35" transform="translate(892.578125 0.015625)"/>
    </g>
   </g>
   <g id="text_9">
    <!-- Feasible? -->
    <g transform="translate(133.409766 200.261719) scale(0.09 -0.09)">
     <defs>
      <path id="DejaVuSerif-46" d="M 353 0 
L 353 331 
L 947 331 
L 947 4331 
L 353 4331 
L 353 4666 
L 4172 4666 
L 4172 3628 
L 3788 3628 
L 3788 4281 
L 1581 4281 
L 1581 2719 
L 3175 2719 
L 3175 3303 
L 3559 3303 
L 3559 1753 
L 3175 1753 
L 3175 2338 
L 1581 2338 
L 1581 331 
L 2328 331 
L 2328 0 
L 353 0 
z
" transform="scale(0.015625)"/>
      <path id="DejaVuSerif-3f" d="M 1125 325 
Q 1125 500 1245 622 
Q 1366 744 1544 744 
Q 1716 744 1837 622 
Q 1959 500 1959 325 
Q 1959 153 1837 31 
Q 1716 -91 1544 -91 
Q 1366 -91 1245 29 
Q 1125 150 1125 325 
z
M 434 4459 
Q 766 4606 1064 4678 
Q 1363 4750 1625 4750 
Q 2319 4750 2720 4415 
Q 3122 4081 3122 3513 
Q 3122 2931 2776 2562 
Q 2431 2194 1734 2034 
L 1734 1241 
L 1350 1241 
L 1350 2266 
Q 1903 2400 2183 2715 
Q 2463 3031 2463 3519 
Q 2463 3947 2234 4194 
Q 2006 4441 1613 4441 
Q 1256 4441 1029 4236 
Q 803 4031 738 3647 
L 434 3647 
L 434 4459 
z
" transform="scale(0.015625)"/>
     </defs>
     <use xlink:href="#DejaVuSerif-46"/>
     <use xlink:href="#DejaVuSerif-65" transform="translate(63.884766 0)"/>
     <use xlink:href="#DejaVuSerif-61" transform="translate(123.064453 0)"/>
     <use xlink:href="#DejaVuSerif-73" transform="translate(182.683594 0)"/>
     <use xlink:href="#DejaVuSerif-69" transform="translate(234.001953 0)"/>
     <use xlink:href="#DejaVuSerif-62" transform="translate(265.984375 0)"/>
     <use xlink:href="#DejaVuSerif-6c" transform="translate(329.998047 0)"/>
     <use xlink:href="#DejaVuSerif-65" transform="translate(361.980469 0)"/>
     <use xlink:href="#DejaVuSerif-3f" transform="translate(421.160156 0)"/>
    </g>
   </g>
   <g id="text_10">
    <!-- IS 800:2007 compliance decision tree -->
    <g transform="translate(49.2925 11.958281) scale(0.11 -0.11)">
     <defs>
      <path id="DejaVuSerif-49" d="M 1581 331 
L 2175 331 
L 2175 0 
L 353 0 
L 353 331 
L 947 331 
L 947 4331 
L 353 4331 
L 353 4666 
L 2175 4666 
L 2175 4331 
L 1581 4331 
L 1581 331 
z
" transform="scale(0.015625)"/>
      <path id="DejaVuSerif-30" d="M 2034 219 
Q 2513 219 2750 744 
Q 2988 1269 2988 2328 
Q 2988 3391 2750 3916 
Q 2513 4441 2034 4441 
Q 1556 4441 1318 3916 
Q 1081 3391 1081 2328 
Q 1081 1269 1318 744 
Q 1556 219 2034 219 
z
M 2034 -91 
Q 1275 -91 848 546 
Q 422 1184 422 2328 
Q 422 3475 848 4112 
Q 1275 4750 2034 4750 
Q 2797 4750 3222 4112 
Q 3647 3475 3647 2328 
Q 3647 1184 3222 546 
Q 2797 -91 2034 -91 
z
" transform="scale(0.015625)"/>
     </defs>
     <use xlink:href="#DejaVuSerif-49"/>
     <use xlink:href="#DejaVuSerif-53" transform="translate(39.501953 0)"/>
     <use xlink:href="#DejaVuSerif-20" transform="translate(108.007812 0)"/>
     <use xlink:href="#DejaVuSerif-38" transform="translate(139.794922 0)"/>
     <use xlink:href="#DejaVuSerif-30" transform="translate(203.417969 0)"/>
     <use xlink:href="#DejaVuSerif-30" transform="translate(267.041016 0)"/>
     <use xlink:href="#DejaVuSerif-3a" transform="translate(330.664062 0)"/>
     <use xlink:href="#DejaVuSerif-32" transform="translate(364.355469 0)"/>
     <use xlink:href="#DejaVuSerif-30" transform="translate(427.978516 0)"/>
     <use xlink:href="#DejaVuSerif-30" transform="translate(491.601562 0)"/>
     <use xlink:href="#DejaVuSerif-37" transform="translate(555.224609 0)"/>
     <use xlink:href="#DejaVuSerif-20" transform="translate(618.847656 0)"/>
     <use xlink:href="#DejaVuSerif-63" transform="translate(650.634766 0)"/>
     <use xlink:href="#DejaVuSerif-6f" transform="translate(706.640625 0)"/>
     <use xlink:href="#DejaVuSerif-6d" transform="translate(766.845703 0)"/>
     <use xlink:href="#DejaVuSerif-70" transform="translate(861.669922 0)"/>
     <use xlink:href="#DejaVuSerif-6c" transform="translate(925.683594 0)"/>
     <use xlink:href="#DejaVuSerif-69" transform="translate(957.666016 0)"/>
     <use xlink:href="#DejaVuSerif-61" transform="translate(989.648438 0)"/>
     <use xlink:href="#DejaVuSerif-6e" transform="translate(1049.267578 0)"/>
     <use xlink:href="#DejaVuSerif-63" transform="translate(1113.671875 0)"/>
     <use xlink:href="#DejaVuSerif-65" transform="translate(1169.677734 0)"/>
     <use xlink:href="#DejaVuSerif-20" transform="translate(1228.857422 0)"/>
     <use xlink:href="#DejaVuSerif-64" transform="translate(1260.644531 0)"/>
     <use xlink:href="#DejaVuSerif-65" transform="translate(1324.658203 0)"/>
     <use xlink:href="#DejaVuSerif-63" transform="translate(1383.837891 0)"/>
     <use xlink:href="#DejaVuSerif-69" transform="translate(1439.84375 0)"/>
     <use xlink:href="#DejaVuSerif-73" transform="translate(1471.826172 0)"/>
     <use xlink:href="#DejaVuSerif-69" transform="translate(1523.144531 0)"/>
     <use xlink:href="#DejaVuSerif-6f" transform="translate(1555.126953 0)"/>
     <use xlink:href="#DejaVuSerif-6e" transform="translate(1615.332031 0)"/>
     <use xlink:href="#DejaVuSerif-20" transform="translate(1679.736328 0)"/>
     <use xlink:href="#DejaVuSerif-74" transform="translate(1711.523438 0)"/>
     <use xlink:href="#DejaVuSerif-72" transform="translate(1751.708984 0)"/>
     <use xlink:href="#DejaVuSerif-65" transform="translate(1799.511719 0)"/>
     <use xlink:href="#DejaVuSerif-65" transform="translate(1858.691406 0)"/>
    </g>
   </g>
  </g>
 </g>
 <defs>
  <clipPath id="pd40cb54634">
   <rect x="3.6" y="17.958281" width="302.35125" height="194.4"/>
  </clipPath>
 </defs>
</svg>
