<?xml version="1.0" encoding="utf-8" standalone="no"?>
<!DOCTYPE svg PUBLIC "-//W3C//DTD SVG 1.1//EN"
  "http://www.w3.org/Graphics/SVG/1.1/DTD/svg11.dtd">
<svg xmlns:xlink="http://www.w3.org/1999/xlink" width="475.178437pt" height="230.746719pt" viewBox="0 0 475.178437 230.746719" xmlns="http://www.w3.org/2000/svg" version="1.1">
 <metadata>
  <rdf:RDF xmlns:dc="http://purl.org/dc/elements/1.1/" xmlns:cc="http://creativecommons.org/ns#" xmlns:rdf="http://www.w3.org/1999/02/22-rdf-syntax-ns#">
   <cc:Work>
    <dc:type rdf:resource="http://purl.org/dc/dcmitype/StillImage"/>
    <dc:date>2026-04-24T15:24:21.064023</dc:date>
    <dc:format>image/svg+xml</dc:format>
    <dc:creator>
     <cc:Agent>
      <dc:title>Matplotlib v3.10.8, https://matplotlib.org/</dc:title>
     </cc:Agent>
    </dc:creator>
   </cc:Work>
  </rdf:RDF>
 </metadata>
 <defs>
  <style type="text/css">*{stroke-linejoin: round; stroke-linecap: butt}</style>
 </defs>
 <g id="figure_1">
  <g id="patch_1">
   <path d="M 0 230.746719 
L 475.178437 230.746719 
L 475.178437 0 
L 0 0 
z
" style="fill: #ffffff"/>
  </g>
  <g id="axes_1">
   <g id="patch_2">
    <path d="M 47.325312 197.758281 
L 471.578438 197.758281 
L 471.578438 17.958281 
L 47.325312 17.958281 
z
" style="fill: #ffffff"/>
   </g>
   <g id="patch_3">
    <path d="M 47.325312 189.585554 
L 471.578438 189.585554 
L 471.578438 172.946469 
L 47.325312 172.946469 
z
" clip-path="url(#p3d808b5c85)" style="fill: #d62728; opacity: 0.08; stroke: #d62728; stroke-width: 0.8; stroke-linejoin: miter"/>
   </g>
   <g id="matplotlib.axis_1">
    <g id="xtick_1">
     <g id="line2d_1">
      <path d="M 66.609545 197.758281 
L 66.609545 17.958281 
" clip-path="url(#p3d808b5c85)" style="fill: none; stroke-dasharray: 2.96,1.28; stroke-dashoffset: 0; stroke: #b0b0b0; stroke-opacity: 0.25; stroke-width: 0.8"/>
     </g>
     <g id="line2d_2">
      <defs>
       <path id="m48cc6bd8ed" d="M 0 0 
L 0 3.5 
" style="stroke: #000000; stroke-width: 0.8"/>
      </defs>
      <g>
       <use xlink:href="#m48cc6bd8ed" x="66.609545" y="197.758281" style="stroke: #000000; stroke-width: 0.8"/>
      </g>
     </g>
     <g id="text_1">
      <!-- 0 -->
      <g transform="translate(63.74642 211.596875) scale(0.09 -0.09)">
       <defs>
        <path id="DejaVuSerif-30" d="M 2034 219 
Q 2513 219 2750 744 
Q 2988 1269 2988 2328 
Q 2988 3391 2750 3916 
Q 2513 4441 2034 4441 
Q 1556 4441 1318 3916 
Q 1081 3391 1081 2328 
Q 1081 1269 1318 744 
Q 1556 219 2034 219 
z
M 2034 -91 
Q 1275 -91 848 546 
Q 422 1184 422 2328 
Q 422 3475 848 4112 
Q 1275 4750 2034 4750 
Q 2797 4750 3222 4112 
Q 3647 3475 3647 2328 
Q 3647 1184 3222 546 
Q 2797 -91 2034 -91 
z
" transform="scale(0.015625)"/>
       </defs>
       <use xlink:href="#DejaVuSerif-30"/>
      </g>
     </g>
    </g>
    <g id="xtick_2">
     <g id="line2d_3">
      <path d="M 143.90106 197.758281 
L 143.90106 17.958281 
" clip-path="url(#p3d808b5c85)" style="fill: none; stroke-dasharray: 2.96,1.28; stroke-dashoffset: 0; stroke: #b0b0b0; stroke-opacity: 0.25; stroke-width: 0.8"/>
     </g>
     <g id="line2d_4">
      <g>
       <use xlink:href="#m48cc6bd8ed" x="143.90106" y="197.758281" style="stroke: #000000; stroke-width: 0.8"/>
      </g>
     </g>
     <g id="text_2">
      <!-- 100 -->
      <g transform="translate(135.311685 211.596875) scale(0.09 -0.09)">
       <defs>
        <path id="DejaVuSerif-31" d="M 909 0 
L 909 331 
L 1722 331 
L 1722 4213 
L 781 3603 
L 781 4013 
L 1919 4750 
L 2350 4750 
L 2350 331 
L 3163 331 
L 3163 0 
L 909 0 
z
" transform="scale(0.015625)"/>
       </defs>
       <use xlink:href="#DejaVuSerif-31"/>
       <use xlink:href="#DejaVuSerif-30" transform="translate(63.623047 0)"/>
       <use xlink:href="#DejaVuSerif-30" transform="translate(127.246094 0)"/>
      </g>
     </g>
    </g>
    <g id="xtick_3">
     <g id="line2d_5">
      <path d="M 221.192575 197.758281 
L 221.192575 17.958281 
" clip-path="url(#p3d808b5c85)" style="fill: none; stroke-dasharray: 2.96,1.28; stroke-dashoffset: 0; stroke: #b0b0b0; stroke-opacity: 0.25; stroke-width: 0.8"/>
     </g>
     <g id="line2d_6">
      <g>
       <use xlink:href="#m48cc6bd8ed" x="221.192575" y="197.758281" style="stroke: #000000; stroke-width: 0.8"/>
      </g>
     </g>
     <g id="text_3">
      <!-- 200 -->
      <g transform="translate(212.6032 211.596875) scale(0.09 -0.09)">
       <defs>
        <path id="DejaVuSerif-32" d="M 819 3553 
L 469 3553 
L 469 4384 
Q 803 4563 1142 4656 
Q 1481 4750 1806 4750 
Q 2534 4750 2956 4397 
Q 3378 4044 3378 3438 
Q 3378 2753 2422 1800 
Q 2347 1728 2309 1691 
L 1131 513 
L 3078 513 
L 3078 1088 
L 3444 1088 
L 3444 0 
L 434 0 
L 434 341 
L 1850 1753 
Q 2319 2222 2519 2614 
Q 2719 3006 2719 3438 
Q 2719 3909 2473 4175 
Q 2228 4441 1797 4441 
Q 1350 4441 1106 4219 
Q 863 3997 819 3553 
z
" transform="scale(0.015625)"/>
       </defs>
       <use xlink:href="#DejaVuSerif-32"/>
       <use xlink:href="#DejaVuSerif-30" transform="translate(63.623047 0)"/>
       <use xlink:href="#DejaVuSerif-30" transform="translate(127.246094 0)"/>
      </g>
     </g>
    </g>
    <g id="xtick_4">
     <g id="line2d_7">
      <path d="M 298.48409 197.758281 
L 298.48409 17.958281 
" clip-path="url(#p3d808b5c85)" style="fill: none; stroke-dasharray: 2.96,1.28; stroke-dashoffset: 0; stroke: #b0b0b0; stroke-opacity: 0.25; stroke-width: 0.8"/>
     </g>
     <g id="line2d_8">
      <g>
       <use xlink:href="#m48cc6bd8ed" x="298.48409" y="197.758281" style="stroke: #000000; stroke-width: 0.8"/>
      </g>
     </g>
     <g id="text_4">
      <!-- 300 -->
      <g transform="translate(289.894715 211.596875) scale(0.09 -0.09)">
       <defs>
        <path id="DejaVuSerif-33" d="M 622 4469 
Q 988 4606 1323 4678 
Q 1659 4750 1953 4750 
Q 2638 4750 3022 4454 
Q 3406 4159 3406 3634 
Q 3406 3213 3140 2930 
Q 2875 2647 2388 2547 
Q 2963 2466 3280 2130 
Q 3597 1794 3597 1259 
Q 3597 606 3158 257 
Q 2719 -91 1894 -91 
Q 1528 -91 1179 -12 
Q 831 66 488 225 
L 488 1131 
L 838 1131 
Q 869 681 1141 450 
Q 1413 219 1906 219 
Q 2384 219 2661 495 
Q 2938 772 2938 1253 
Q 2938 1803 2653 2086 
Q 2369 2369 1819 2369 
L 1522 2369 
L 1522 2688 
L 1678 2688 
Q 2225 2688 2498 2914 
Q 2772 3141 2772 3597 
Q 2772 4006 2547 4223 
Q 2322 4441 1900 4441 
Q 1478 4441 1245 4241 
Q 1013 4041 972 3647 
L 622 3647 
L 622 4469 
z
" transform="scale(0.015625)"/>
       </defs>
       <use xlink:href="#DejaVuSerif-33"/>
       <use xlink:href="#DejaVuSerif-30" transform="translate(63.623047 0)"/>
       <use xlink:href="#DejaVuSerif-30" transform="translate(127.246094 0)"/>
      </g>
     </g>
    </g>
    <g id="xtick_5">
     <g id="line2d_9">
      <path d="M 375.775605 197.758281 
L 375.775605 17.958281 
" clip-path="url(#p3d808b5c85)" style="fill: none; stroke-dasharray: 2.96,1.28; stroke-dashoffset: 0; stroke: #b0b0b0; stroke-opacity: 0.25; stroke-width: 0.8"/>
     </g>
     <g id="line2d_10">
      <g>
       <use xlink:href="#m48cc6bd8ed" x="375.775605" y="197.758281" style="stroke: #000000; stroke-width: 0.8"/>
      </g>
     </g>
     <g id="text_5">
      <!-- 400 -->
      <g transform="translate(367.18623 211.596875) scale(0.09 -0.09)">
       <defs>
        <path id="DejaVuSerif-34" d="M 2234 1581 
L 2234 4063 
L 641 1581 
L 2234 1581 
z
M 3609 0 
L 1484 0 
L 1484 331 
L 2234 331 
L 2234 1247 
L 197 1247 
L 197 1588 
L 2241 4750 
L 2859 4750 
L 2859 1581 
L 3750 1581 
L 3750 1247 
L 2859 1247 
L 2859 331 
L 3609 331 
L 3609 0 
z
" transform="scale(0.015625)"/>
       </defs>
       <use xlink:href="#DejaVuSerif-34"/>
       <use xlink:href="#DejaVuSerif-30" transform="translate(63.623047 0)"/>
       <use xlink:href="#DejaVuSerif-30" transform="translate(127.246094 0)"/>
      </g>
     </g>
    </g>
    <g id="xtick_6">
     <g id="line2d_11">
      <path d="M 453.06712 197.758281 
L 453.06712 17.958281 
" clip-path="url(#p3d808b5c85)" style="fill: none; stroke-dasharray: 2.96,1.28; stroke-dashoffset: 0; stroke: #b0b0b0; stroke-opacity: 0.25; stroke-width: 0.8"/>
     </g>
     <g id="line2d_12">
      <g>
       <use xlink:href="#m48cc6bd8ed" x="453.06712" y="197.758281" style="stroke: #000000; stroke-width: 0.8"/>
      </g>
     </g>
     <g id="text_6">
      <!-- 500 -->
      <g transform="translate(444.477745 211.596875) scale(0.09 -0.09)">
       <defs>
        <path id="DejaVuSerif-35" d="M 3219 4666 
L 3219 4153 
L 1081 4153 
L 1081 2816 
Q 1244 2928 1461 2984 
Q 1678 3041 1947 3041 
Q 2703 3041 3140 2622 
Q 3578 2203 3578 1478 
Q 3578 738 3136 323 
Q 2694 -91 1894 -91 
Q 1572 -91 1234 -12 
Q 897 66 544 225 
L 544 1131 
L 897 1131 
Q 925 688 1179 453 
Q 1434 219 1894 219 
Q 2388 219 2653 544 
Q 2919 869 2919 1478 
Q 2919 2084 2655 2407 
Q 2391 2731 1894 2731 
Q 1613 2731 1398 2631 
Q 1184 2531 1019 2322 
L 750 2322 
L 750 4666 
L 3219 4666 
z
" transform="scale(0.015625)"/>
       </defs>
       <use xlink:href="#DejaVuSerif-35"/>
       <use xlink:href="#DejaVuSerif-30" transform="translate(63.623047 0)"/>
       <use xlink:href="#DejaVuSerif-30" transform="translate(127.246094 0)"/>
      </g>
     </g>
    </g>
    <g id="text_7">
     <!-- generation -->
     <g transform="translate(231.901875 224.924844) scale(0.1 -0.1)">
      <defs>
       <path id="DejaVuSerif-67" d="M 3359 2988 
L 3359 72 
Q 3359 -644 2965 -1033 
Q 2572 -1422 1844 -1422 
Q 1516 -1422 1216 -1362 
Q 916 -1303 641 -1184 
L 641 -488 
L 941 -488 
Q 997 -813 1206 -963 
Q 1416 -1113 1806 -1113 
Q 2313 -1113 2548 -827 
Q 2784 -541 2784 72 
L 2784 519 
Q 2616 206 2355 57 
Q 2094 -91 1709 -91 
Q 1097 -91 708 395 
Q 319 881 319 1663 
Q 319 2444 706 2928 
Q 1094 3413 1709 3413 
Q 2094 3413 2355 3264 
Q 2616 3116 2784 2803 
L 2784 3322 
L 3909 3322 
L 3909 2988 
L 3359 2988 
z
M 2784 1825 
Q 2784 2422 2554 2737 
Q 2325 3053 1888 3053 
Q 1444 3053 1217 2703 
Q 991 2353 991 1663 
Q 991 975 1217 622 
Q 1444 269 1888 269 
Q 2325 269 2554 583 
Q 2784 897 2784 1497 
L 2784 1825 
z
" transform="scale(0.015625)"/>
       <path id="DejaVuSerif-65" d="M 3469 1600 
L 991 1600 
L 991 1575 
Q 991 903 1244 561 
Q 1497 219 1991 219 
Q 2369 219 2611 417 
Q 2853 616 2950 1006 
L 3413 1006 
Q 3275 459 2904 184 
Q 2534 -91 1931 -91 
Q 1203 -91 761 389 
Q 319 869 319 1663 
Q 319 2450 753 2931 
Q 1188 3413 1894 3413 
Q 2647 3413 3050 2948 
Q 3453 2484 3469 1600 
z
M 2791 1931 
Q 2772 2513 2545 2808 
Q 2319 3103 1894 3103 
Q 1497 3103 1269 2806 
Q 1041 2509 991 1931 
L 2791 1931 
z
" transform="scale(0.015625)"/>
       <path id="DejaVuSerif-6e" d="M 263 0 
L 263 331 
L 781 331 
L 781 2988 
L 231 2988 
L 231 3322 
L 1356 3322 
L 1356 2731 
Q 1516 3069 1770 3241 
Q 2025 3413 2363 3413 
Q 2913 3413 3172 3097 
Q 3431 2781 3431 2113 
L 3431 331 
L 3944 331 
L 3944 0 
L 2356 0 
L 2356 331 
L 2853 331 
L 2853 1931 
Q 2853 2541 2703 2767 
Q 2553 2994 2175 2994 
Q 1775 2994 1565 2701 
Q 1356 2409 1356 1850 
L 1356 331 
L 1856 331 
L 1856 0 
L 263 0 
z
" transform="scale(0.015625)"/>
       <path id="DejaVuSerif-72" d="M 3059 3328 
L 3059 2497 
L 2728 2497 
Q 2713 2744 2591 2866 
Q 2469 2988 2234 2988 
Q 1809 2988 1582 2694 
Q 1356 2400 1356 1850 
L 1356 331 
L 2022 331 
L 2022 0 
L 263 0 
L 263 331 
L 781 331 
L 781 2994 
L 231 2994 
L 231 3322 
L 1356 3322 
L 1356 2731 
Q 1525 3078 1790 3245 
Q 2056 3413 2438 3413 
Q 2578 3413 2733 3391 
Q 2888 3369 3059 3328 
z
" transform="scale(0.015625)"/>
       <path id="DejaVuSerif-61" d="M 2547 1044 
L 2547 1747 
L 1806 1747 
Q 1378 1747 1168 1562 
Q 959 1378 959 997 
Q 959 650 1171 447 
Q 1384 244 1747 244 
Q 2106 244 2326 466 
Q 2547 688 2547 1044 
z
M 3122 2075 
L 3122 331 
L 3634 331 
L 3634 0 
L 2547 0 
L 2547 359 
Q 2356 128 2106 18 
Q 1856 -91 1522 -91 
Q 969 -91 644 203 
Q 319 497 319 997 
Q 319 1513 691 1797 
Q 1063 2081 1741 2081 
L 2547 2081 
L 2547 2309 
Q 2547 2688 2317 2895 
Q 2088 3103 1672 3103 
Q 1328 3103 1125 2947 
Q 922 2791 872 2484 
L 575 2484 
L 575 3156 
Q 875 3284 1158 3348 
Q 1441 3413 1709 3413 
Q 2400 3413 2761 3070 
Q 3122 2728 3122 2075 
z
" transform="scale(0.015625)"/>
       <path id="DejaVuSerif-74" d="M 691 2988 
L 184 2988 
L 184 3322 
L 691 3322 
L 691 4353 
L 1269 4353 
L 1269 3322 
L 2350 3322 
L 2350 2988 
L 1269 2988 
L 1269 878 
Q 1269 456 1350 337 
Q 1431 219 1650 219 
Q 1875 219 1978 351 
Q 2081 484 2088 781 
L 2522 781 
Q 2497 328 2275 118 
Q 2053 -91 1600 -91 
Q 1103 -91 897 129 
Q 691 350 691 878 
L 691 2988 
z
" transform="scale(0.015625)"/>
       <path id="DejaVuSerif-69" d="M 622 4353 
Q 622 4497 726 4603 
Q 831 4709 978 4709 
Q 1122 4709 1226 4603 
Q 1331 4497 1331 4353 
Q 1331 4206 1228 4103 
Q 1125 4000 978 4000 
Q 831 4000 726 4103 
Q 622 4206 622 4353 
z
M 1356 331 
L 1900 331 
L 1900 0 
L 231 0 
L 231 331 
L 781 331 
L 781 2988 
L 231 2988 
L 231 3322 
L 1356 3322 
L 1356 331 
z
" transform="scale(0.015625)"/>
       <path id="DejaVuSerif-6f" d="M 1925 219 
Q 2388 219 2623 584 
Q 2859 950 2859 1663 
Q 2859 2375 2623 2739 
Q 2388 3103 1925 3103 
Q 1463 3103 1227 2739 
Q 991 2375 991 1663 
Q 991 950 1228 584 
Q 1466 219 1925 219 
z
M 1925 -91 
Q 1200 -91 759 389 
Q 319 869 319 1663 
Q 319 2456 758 2934 
Q 1197 3413 1925 3413 
Q 2653 3413 3092 2934 
Q 3531 2456 3531 1663 
Q 3531 869 3092 389 
Q 2653 -91 1925 -91 
z
" transform="scale(0.015625)"/>
      </defs>
      <use xlink:href="#DejaVuSerif-67"/>
      <use xlink:href="#DejaVuSerif-65" transform="translate(64.013672 0)"/>
      <use xlink:href="#DejaVuSerif-6e" transform="translate(123.193359 0)"/>
      <use xlink:href="#DejaVuSerif-65" transform="translate(187.597656 0)"/>
      <use xlink:href="#DejaVuSerif-72" transform="translate(246.777344 0)"/>
      <use xlink:href="#DejaVuSerif-61" transform="translate(294.580078 0)"/>
      <use xlink:href="#DejaVuSerif-74" transform="translate(354.199219 0)"/>
      <use xlink:href="#DejaVuSerif-69" transform="translate(394.384766 0)"/>
      <use xlink:href="#DejaVuSerif-6f" transform="translate(426.367188 0)"/>
      <use xlink:href="#DejaVuSerif-6e" transform="translate(486.572266 0)"/>
     </g>
    </g>
   </g>
   <g id="matplotlib.axis_2">
    <g id="ytick_1">
     <g id="line2d_13">
      <path d="M 47.325312 177.74244 
L 471.578438 177.74244 
" clip-path="url(#p3d808b5c85)" style="fill: none; stroke-dasharray: 2.96,1.28; stroke-dashoffset: 0; stroke: #b0b0b0; stroke-opacity: 0.25; stroke-width: 0.8"/>
     </g>
     <g id="line2d_14">
      <defs>
       <path id="m9c42112087" d="M 0 0 
L -3.5 0 
" style="stroke: #000000; stroke-width: 0.8"/>
      </defs>
      <g>
       <use xlink:href="#m9c42112087" x="47.325312" y="177.74244" style="stroke: #000000; stroke-width: 0.8"/>
      </g>
     </g>
     <g id="text_8">
      <!-- 500 -->
      <g transform="translate(23.146562 181.161737) scale(0.09 -0.09)">
       <use xlink:href="#DejaVuSerif-35"/>
       <use xlink:href="#DejaVuSerif-30" transform="translate(63.623047 0)"/>
       <use xlink:href="#DejaVuSerif-30" transform="translate(127.246094 0)"/>
      </g>
     </g>
    </g>
    <g id="ytick_2">
     <g id="line2d_15">
      <path d="M 47.325312 153.273197 
L 471.578438 153.273197 
" clip-path="url(#p3d808b5c85)" style="fill: none; stroke-dasharray: 2.96,1.28; stroke-dashoffset: 0; stroke: #b0b0b0; stroke-opacity: 0.25; stroke-width: 0.8"/>
     </g>
     <g id="line2d_16">
      <g>
       <use xlink:href="#m9c42112087" x="47.325312" y="153.273197" style="stroke: #000000; stroke-width: 0.8"/>
      </g>
     </g>
     <g id="text_9">
      <!-- 750 -->
      <g transform="translate(23.146562 156.692494) scale(0.09 -0.09)">
       <defs>
        <path id="DejaVuSerif-37" d="M 3609 4347 
L 1784 0 
L 1319 0 
L 3059 4153 
L 903 4153 
L 903 3578 
L 538 3578 
L 538 4666 
L 3609 4666 
L 3609 4347 
z
" transform="scale(0.015625)"/>
       </defs>
       <use xlink:href="#DejaVuSerif-37"/>
       <use xlink:href="#DejaVuSerif-35" transform="translate(63.623047 0)"/>
       <use xlink:href="#DejaVuSerif-30" transform="translate(127.246094 0)"/>
      </g>
     </g>
    </g>
    <g id="ytick_3">
     <g id="line2d_17">
      <path d="M 47.325312 128.803954 
L 471.578438 128.803954 
" clip-path="url(#p3d808b5c85)" style="fill: none; stroke-dasharray: 2.96,1.28; stroke-dashoffset: 0; stroke: #b0b0b0; stroke-opacity: 0.25; stroke-width: 0.8"/>
     </g>
     <g id="line2d_18">
      <g>
       <use xlink:href="#m9c42112087" x="47.325312" y="128.803954" style="stroke: #000000; stroke-width: 0.8"/>
      </g>
     </g>
     <g id="text_10">
      <!-- 1000 -->
      <g transform="translate(17.420312 132.22325) scale(0.09 -0.09)">
       <use xlink:href="#DejaVuSerif-31"/>
       <use xlink:href="#DejaVuSerif-30" transform="translate(63.623047 0)"/>
       <use xlink:href="#DejaVuSerif-30" transform="translate(127.246094 0)"/>
       <use xlink:href="#DejaVuSerif-30" transform="translate(190.869141 0)"/>
      </g>
     </g>
    </g>
    <g id="ytick_4">
     <g id="line2d_19">
      <path d="M 47.325312 104.33471 
L 471.578438 104.33471 
" clip-path="url(#p3d808b5c85)" style="fill: none; stroke-dasharray: 2.96,1.28; stroke-dashoffset: 0; stroke: #b0b0b0; stroke-opacity: 0.25; stroke-width: 0.8"/>
     </g>
     <g id="line2d_20">
      <g>
       <use xlink:href="#m9c42112087" x="47.325312" y="104.33471" style="stroke: #000000; stroke-width: 0.8"/>
      </g>
     </g>
     <g id="text_11">
      <!-- 1250 -->
      <g transform="translate(17.420312 107.754007) scale(0.09 -0.09)">
       <use xlink:href="#DejaVuSerif-31"/>
       <use xlink:href="#DejaVuSerif-32" transform="translate(63.623047 0)"/>
       <use xlink:href="#DejaVuSerif-35" transform="translate(127.246094 0)"/>
       <use xlink:href="#DejaVuSerif-30" transform="translate(190.869141 0)"/>
      </g>
     </g>
    </g>
    <g id="ytick_5">
     <g id="line2d_21">
      <path d="M 47.325312 79.865467 
L 471.578438 79.865467 
" clip-path="url(#p3d808b5c85)" style="fill: none; stroke-dasharray: 2.96,1.28; stroke-dashoffset: 0; stroke: #b0b0b0; stroke-opacity: 0.25; stroke-width: 0.8"/>
     </g>
     <g id="line2d_22">
      <g>
       <use xlink:href="#m9c42112087" x="47.325312" y="79.865467" style="stroke: #000000; stroke-width: 0.8"/>
      </g>
     </g>
     <g id="text_12">
      <!-- 1500 -->
      <g transform="translate(17.420312 83.284764) scale(0.09 -0.09)">
       <use xlink:href="#DejaVuSerif-31"/>
       <use xlink:href="#DejaVuSerif-35" transform="translate(63.623047 0)"/>
       <use xlink:href="#DejaVuSerif-30" transform="translate(127.246094 0)"/>
       <use xlink:href="#DejaVuSerif-30" transform="translate(190.869141 0)"/>
      </g>
     </g>
    </g>
    <g id="ytick_6">
     <g id="line2d_23">
      <path d="M 47.325312 55.396224 
L 471.578438 55.396224 
" clip-path="url(#p3d808b5c85)" style="fill: none; stroke-dasharray: 2.96,1.28; stroke-dashoffset: 0; stroke: #b0b0b0; stroke-opacity: 0.25; stroke-width: 0.8"/>
     </g>
     <g id="line2d_24">
      <g>
       <use xlink:href="#m9c42112087" x="47.325312" y="55.396224" style="stroke: #000000; stroke-width: 0.8"/>
      </g>
     </g>
     <g id="text_13">
      <!-- 1750 -->
      <g transform="translate(17.420312 58.81552) scale(0.09 -0.09)">
       <use xlink:href="#DejaVuSerif-31"/>
       <use xlink:href="#DejaVuSerif-37" transform="translate(63.623047 0)"/>
       <use xlink:href="#DejaVuSerif-35" transform="translate(127.246094 0)"/>
       <use xlink:href="#DejaVuSerif-30" transform="translate(190.869141 0)"/>
      </g>
     </g>
    </g>
    <g id="ytick_7">
     <g id="line2d_25">
      <path d="M 47.325312 30.92698 
L 471.578438 30.92698 
" clip-path="url(#p3d808b5c85)" style="fill: none; stroke-dasharray: 2.96,1.28; stroke-dashoffset: 0; stroke: #b0b0b0; stroke-opacity: 0.25; stroke-width: 0.8"/>
     </g>
     <g id="line2d_26">
      <g>
       <use xlink:href="#m9c42112087" x="47.325312" y="30.92698" style="stroke: #000000; stroke-width: 0.8"/>
      </g>
     </g>
     <g id="text_14">
      <!-- 2000 -->
      <g transform="translate(17.420312 34.346277) scale(0.09 -0.09)">
       <use xlink:href="#DejaVuSerif-32"/>
       <use xlink:href="#DejaVuSerif-30" transform="translate(63.623047 0)"/>
       <use xlink:href="#DejaVuSerif-30" transform="translate(127.246094 0)"/>
       <use xlink:href="#DejaVuSerif-30" transform="translate(190.869141 0)"/>
      </g>
     </g>
    </g>
    <g id="text_15">
     <!-- best weight (lb) -->
     <g transform="translate(11.198437 147.741875) rotate(-90) scale(0.1 -0.1)">
      <defs>
       <path id="DejaVuSerif-62" d="M 738 331 
L 738 4531 
L 184 4531 
L 184 4863 
L 1313 4863 
L 1313 2803 
Q 1481 3116 1742 3264 
Q 2003 3413 2388 3413 
Q 3000 3413 3387 2928 
Q 3775 2444 3775 1663 
Q 3775 881 3387 395 
Q 3000 -91 2388 -91 
Q 2003 -91 1742 57 
Q 1481 206 1313 519 
L 1313 0 
L 184 0 
L 184 331 
L 738 331 
z
M 1313 1497 
Q 1313 897 1542 583 
Q 1772 269 2209 269 
Q 2650 269 2876 622 
Q 3103 975 3103 1663 
Q 3103 2353 2876 2703 
Q 2650 3053 2209 3053 
Q 1772 3053 1542 2737 
Q 1313 2422 1313 1825 
L 1313 1497 
z
" transform="scale(0.015625)"/>
       <path id="DejaVuSerif-73" d="M 359 184 
L 359 959 
L 691 959 
Q 703 588 923 403 
Q 1144 219 1575 219 
Q 1963 219 2166 364 
Q 2369 509 2369 788 
Q 2369 1006 2220 1140 
Q 2072 1275 1594 1428 
L 1178 1569 
Q 750 1706 558 1912 
Q 366 2119 366 2438 
Q 366 2894 700 3153 
Q 1034 3413 1625 3413 
Q 1888 3413 2178 3344 
Q 2469 3275 2778 3144 
L 2778 2419 
L 2447 2419 
Q 2434 2741 2221 2922 
Q 2009 3103 1644 3103 
Q 1281 3103 1095 2975 
Q 909 2847 909 2591 
Q 909 2381 1050 2254 
Q 1191 2128 1613 1997 
L 2069 1856 
Q 2541 1709 2748 1489 
Q 2956 1269 2956 922 
Q 2956 450 2595 179 
Q 2234 -91 1600 -91 
Q 1278 -91 972 -22 
Q 666 47 359 184 
z
" transform="scale(0.015625)"/>
       <path id="DejaVuSerif-20" transform="scale(0.015625)"/>
       <path id="DejaVuSerif-77" d="M 3072 3322 
L 3922 728 
L 4672 2988 
L 4191 2988 
L 4191 3322 
L 5394 3322 
L 5394 2988 
L 5025 2988 
L 4038 0 
L 3559 0 
L 2741 2484 
L 1919 0 
L 1459 0 
L 475 2988 
L 103 2988 
L 103 3322 
L 1606 3322 
L 1606 2988 
L 1069 2988 
L 1813 728 
L 2669 3322 
L 3072 3322 
z
" transform="scale(0.015625)"/>
       <path id="DejaVuSerif-68" d="M 263 0 
L 263 331 
L 781 331 
L 781 4531 
L 231 4531 
L 231 4863 
L 1356 4863 
L 1356 2731 
Q 1516 3069 1770 3241 
Q 2025 3413 2363 3413 
Q 2913 3413 3172 3097 
Q 3431 2781 3431 2113 
L 3431 331 
L 3944 331 
L 3944 0 
L 2356 0 
L 2356 331 
L 2853 331 
L 2853 1931 
Q 2853 2541 2704 2764 
Q 2556 2988 2175 2988 
Q 1775 2988 1565 2697 
Q 1356 2406 1356 1850 
L 1356 331 
L 1856 331 
L 1856 0 
L 263 0 
z
" transform="scale(0.015625)"/>
       <path id="DejaVuSerif-28" d="M 2041 -997 
Q 1281 -656 893 83 
Q 506 822 506 1931 
Q 506 3044 893 3783 
Q 1281 4522 2041 4863 
L 2041 4556 
Q 1559 4225 1350 3623 
Q 1141 3022 1141 1931 
Q 1141 844 1350 242 
Q 1559 -359 2041 -691 
L 2041 -997 
z
" transform="scale(0.015625)"/>
       <path id="DejaVuSerif-6c" d="M 1313 331 
L 1856 331 
L 1856 0 
L 184 0 
L 184 331 
L 738 331 
L 738 4531 
L 184 4531 
L 184 4863 
L 1313 4863 
L 1313 331 
z
" transform="scale(0.015625)"/>
       <path id="DejaVuSerif-29" d="M 453 -997 
L 453 -691 
Q 934 -359 1145 242 
Q 1356 844 1356 1931 
Q 1356 3022 1145 3623 
Q 934 4225 453 4556 
L 453 4863 
Q 1216 4522 1603 3783 
Q 1991 3044 1991 1931 
Q 1991 822 1603 83 
Q 1216 -656 453 -997 
z
" transform="scale(0.015625)"/>
      </defs>
      <use xlink:href="#DejaVuSerif-62"/>
      <use xlink:href="#DejaVuSerif-65" transform="translate(64.013672 0)"/>
      <use xlink:href="#DejaVuSerif-73" transform="translate(123.193359 0)"/>
      <use xlink:href="#DejaVuSerif-74" transform="translate(174.511719 0)"/>
      <use xlink:href="#DejaVuSerif-20" transform="translate(214.697266 0)"/>
      <use xlink:href="#DejaVuSerif-77" transform="translate(246.484375 0)"/>
      <use xlink:href="#DejaVuSerif-65" transform="translate(332.080078 0)"/>
      <use xlink:href="#DejaVuSerif-69" transform="translate(391.259766 0)"/>
      <use xlink:href="#DejaVuSerif-67" transform="translate(423.242188 0)"/>
      <use xlink:href="#DejaVuSerif-68" transform="translate(487.255859 0)"/>
      <use xlink:href="#DejaVuSerif-74" transform="translate(551.660156 0)"/>
      <use xlink:href="#DejaVuSerif-20" transform="translate(591.845703 0)"/>
      <use xlink:href="#DejaVuSerif-28" transform="translate(623.632812 0)"/>
      <use xlink:href="#DejaVuSerif-6c" transform="translate(662.646484 0)"/>
      <use xlink:href="#DejaVuSerif-62" transform="translate(694.628906 0)"/>
      <use xlink:href="#DejaVuSerif-29" transform="translate(758.642578 0)"/>
     </g>
    </g>
   </g>
   <g id="line2d_27">
    <path d="M 66.609545 26.131009 
L 70.474121 34.064994 
L 74.338697 41.570223 
L 78.203273 48.669865 
L 82.840764 56.684838 
L 87.478254 64.182901 
L 92.115745 71.197391 
L 96.753236 77.759496 
L 101.390727 83.898391 
L 106.028218 89.64137 
L 110.665709 95.013967 
L 115.3032 100.040069 
L 119.940691 104.742022 
L 124.578182 109.140733 
L 129.215672 113.255757 
L 133.853163 117.105391 
L 139.263569 121.283979 
L 144.673975 125.149883 
L 150.084381 128.726502 
L 155.494788 132.035482 
L 160.905194 135.096851 
L 166.3156 137.929138 
L 172.498921 140.907459 
L 178.682242 143.632466 
L 184.865563 146.125703 
L 191.8218 148.678036 
L 198.778036 150.987483 
L 205.734272 153.077157 
L 213.463424 155.166627 
L 221.192575 157.036367 
L 229.694642 158.866798 
L 238.969624 160.624316 
L 249.01752 162.281609 
L 259.065417 163.716 
L 269.88623 165.045746 
L 282.252872 166.332549 
L 295.392429 167.470947 
L 310.077817 168.513026 
L 326.309035 169.435671 
L 344.858999 170.25745 
L 365.727708 170.954394 
L 390.460993 171.550455 
L 420.604683 172.041371 
L 452.294205 172.37255 
L 452.294205 172.37255 
" clip-path="url(#p3d808b5c85)" style="fill: none; stroke: #1f77b4; stroke-width: 2; stroke-linecap: square"/>
   </g>
   <g id="line2d_28">
    <path d="M 66.609545 42.770094 
L 70.474121 50.704079 
L 74.338697 58.209308 
L 78.203273 65.30895 
L 82.840764 73.323923 
L 87.478254 80.821986 
L 92.115745 87.836477 
L 96.753236 94.398581 
L 101.390727 100.537476 
L 106.028218 106.280455 
L 110.665709 111.653052 
L 115.3032 116.679154 
L 119.940691 121.381108 
L 124.578182 125.779818 
L 129.215672 129.894842 
L 133.853163 133.744476 
L 139.263569 137.923064 
L 144.673975 141.788969 
L 150.084381 145.365587 
L 155.494788 148.674567 
L 160.905194 151.735937 
L 166.3156 154.568224 
L 172.498921 157.546545 
L 178.682242 160.271551 
L 184.865563 162.764788 
L 191.8218 165.317122 
L 198.778036 167.626568 
L 205.734272 169.716242 
L 213.463424 171.805713 
L 221.192575 173.675453 
L 229.694642 175.505883 
L 238.969624 177.263402 
L 249.01752 178.920694 
L 259.065417 180.355086 
L 269.88623 181.684832 
L 282.252872 182.971635 
L 295.392429 184.110032 
L 310.077817 185.152111 
L 326.309035 186.074757 
L 344.858999 186.896535 
L 365.727708 187.59348 
L 390.460993 188.18954 
L 420.604683 188.680456 
L 452.294205 189.011636 
L 452.294205 189.011636 
" clip-path="url(#p3d808b5c85)" style="fill: none; stroke-dasharray: 7.4,3.2; stroke-dashoffset: 0; stroke: #d62728; stroke-width: 2"/>
   </g>
   <g id="patch_4">
    <path d="M 47.325312 197.758281 
L 47.325312 17.958281 
" style="fill: none; stroke: #000000; stroke-width: 0.8; stroke-linejoin: miter; stroke-linecap: square"/>
   </g>
   <g id="patch_5">
    <path d="M 47.325312 197.758281 
L 471.578437 197.758281 
" style="fill: none; stroke: #000000; stroke-width: 0.8; stroke-linejoin: miter; stroke-linecap: square"/>
   </g>
   <g id="text_16">
    <!-- ≈25% infeasibility gap -->
    <g style="fill: #d62728" transform="translate(259.838333 181.266011) scale(0.09 -0.09)">
     <defs>
      <path id="DejaVuSerif-2248" d="M 4684 1913 
L 4684 1453 
Q 4375 1172 4092 1040 
Q 3809 909 3519 909 
Q 3231 909 2713 1106 
Q 2666 1125 2641 1134 
Q 2609 1147 2541 1172 
Q 2081 1350 1784 1350 
Q 1497 1350 1226 1236 
Q 956 1122 678 884 
L 678 1344 
Q 994 1625 1273 1753 
Q 1553 1881 1844 1881 
Q 2144 1881 2688 1675 
L 2719 1663 
Q 2753 1653 2816 1625 
Q 3269 1447 3572 1447 
Q 3859 1447 4134 1561 
Q 4409 1675 4684 1913 
z
M 4684 3128 
L 4684 2669 
Q 4378 2391 4095 2261 
Q 3813 2131 3519 2131 
Q 3219 2131 2675 2338 
L 2644 2350 
Q 2609 2363 2541 2388 
Q 2081 2566 1784 2566 
Q 1497 2566 1226 2452 
Q 956 2338 678 2100 
L 678 2559 
Q 994 2841 1273 2969 
Q 1553 3097 1844 3097 
Q 2144 3097 2688 2894 
L 2719 2881 
Q 2753 2869 2816 2841 
Q 3269 2663 3572 2663 
Q 3859 2663 4134 2777 
Q 4409 2891 4684 3128 
z
" transform="scale(0.015625)"/>
      <path id="DejaVuSerif-25" d="M 1434 4459 
Q 1159 4459 1004 4200 
Q 850 3941 850 3475 
Q 850 3016 1008 2753 
Q 1166 2491 1434 2491 
Q 1700 2491 1854 2752 
Q 2009 3013 2009 3475 
Q 2009 3938 1854 4198 
Q 1700 4459 1434 4459 
z
M 4653 2169 
Q 4381 2169 4226 1906 
Q 4072 1644 4072 1178 
Q 4072 719 4228 458 
Q 4384 197 4653 197 
Q 4922 197 5075 458 
Q 5228 719 5228 1178 
Q 5228 1641 5073 1905 
Q 4919 2169 4653 2169 
z
M 4653 2450 
Q 5147 2450 5437 2106 
Q 5728 1763 5728 1178 
Q 5728 594 5436 251 
Q 5144 -91 4653 -91 
Q 4153 -91 3862 251 
Q 3572 594 3572 1178 
Q 3572 1766 3864 2108 
Q 4156 2450 4653 2450 
z
M 4263 4750 
L 4738 4750 
L 1819 -91 
L 1344 -91 
L 4263 4750 
z
M 1428 4750 
Q 1922 4750 2215 4408 
Q 2509 4066 2509 3481 
Q 2509 2891 2217 2550 
Q 1925 2209 1428 2209 
Q 931 2209 642 2551 
Q 353 2894 353 3481 
Q 353 4063 643 4406 
Q 934 4750 1428 4750 
z
" transform="scale(0.015625)"/>
      <path id="DejaVuSerif-66" d="M 2753 4078 
L 2450 4078 
Q 2447 4313 2317 4434 
Q 2188 4556 1941 4556 
Q 1619 4556 1487 4379 
Q 1356 4203 1356 3750 
L 1356 3322 
L 2284 3322 
L 2284 2988 
L 1356 2988 
L 1356 331 
L 2094 331 
L 2094 0 
L 231 0 
L 231 331 
L 781 331 
L 781 2988 
L 231 2988 
L 231 3322 
L 781 3322 
L 781 3738 
Q 781 4294 1070 4578 
Q 1359 4863 1919 4863 
Q 2128 4863 2337 4825 
Q 2547 4788 2753 4709 
L 2753 4078 
z
" transform="scale(0.015625)"/>
      <path id="DejaVuSerif-79" d="M 1381 -609 
L 1600 -56 
L 359 2988 
L -19 2988 
L -19 3322 
L 1509 3322 
L 1509 2988 
L 978 2988 
L 1913 703 
L 2847 2988 
L 2350 2988 
L 2350 3322 
L 3597 3322 
L 3597 2988 
L 3225 2988 
L 1703 -750 
Q 1547 -1138 1356 -1280 
Q 1166 -1422 819 -1422 
Q 672 -1422 517 -1397 
Q 363 -1372 206 -1325 
L 206 -691 
L 500 -691 
Q 519 -903 608 -995 
Q 697 -1088 884 -1088 
Q 1056 -1088 1161 -992 
Q 1266 -897 1381 -609 
z
" transform="scale(0.015625)"/>
      <path id="DejaVuSerif-70" d="M 1313 1825 
L 1313 1497 
Q 1313 897 1542 583 
Q 1772 269 2209 269 
Q 2650 269 2876 622 
Q 3103 975 3103 1663 
Q 3103 2353 2876 2703 
Q 2650 3053 2209 3053 
Q 1772 3053 1542 2737 
Q 1313 2422 1313 1825 
z
M 738 2988 
L 184 2988 
L 184 3322 
L 1313 3322 
L 1313 2803 
Q 1481 3116 1742 3264 
Q 2003 3413 2388 3413 
Q 3000 3413 3387 2928 
Q 3775 2444 3775 1663 
Q 3775 881 3387 395 
Q 3000 -91 2388 -91 
Q 2003 -91 1742 57 
Q 1481 206 1313 519 
L 1313 -997 
L 1856 -997 
L 1856 -1331 
L 184 -1331 
L 184 -997 
L 738 -997 
L 738 2988 
z
" transform="scale(0.015625)"/>
     </defs>
     <use xlink:href="#DejaVuSerif-2248"/>
     <use xlink:href="#DejaVuSerif-32" transform="translate(83.789062 0)"/>
     <use xlink:href="#DejaVuSerif-35" transform="translate(147.412109 0)"/>
     <use xlink:href="#DejaVuSerif-25" transform="translate(211.035156 0)"/>
     <use xlink:href="#DejaVuSerif-20" transform="translate(306.054688 0)"/>
     <use xlink:href="#DejaVuSerif-69" transform="translate(337.841797 0)"/>
     <use xlink:href="#DejaVuSerif-6e" transform="translate(369.824219 0)"/>
     <use xlink:href="#DejaVuSerif-66" transform="translate(434.228516 0)"/>
     <use xlink:href="#DejaVuSerif-65" transform="translate(471.240234 0)"/>
     <use xlink:href="#DejaVuSerif-61" transform="translate(530.419922 0)"/>
     <use xlink:href="#DejaVuSerif-73" transform="translate(590.039062 0)"/>
     <use xlink:href="#DejaVuSerif-69" transform="translate(641.357422 0)"/>
     <use xlink:href="#DejaVuSerif-62" transform="translate(673.339844 0)"/>
     <use xlink:href="#DejaVuSerif-69" transform="translate(737.353516 0)"/>
     <use xlink:href="#DejaVuSerif-6c" transform="translate(769.335938 0)"/>
     <use xlink:href="#DejaVuSerif-69" transform="translate(801.318359 0)"/>
     <use xlink:href="#DejaVuSerif-74" transform="translate(833.300781 0)"/>
     <use xlink:href="#DejaVuSerif-79" transform="translate(873.486328 0)"/>
     <use xlink:href="#DejaVuSerif-20" transform="translate(929.980469 0)"/>
     <use xlink:href="#DejaVuSerif-67" transform="translate(961.767578 0)"/>
     <use xlink:href="#DejaVuSerif-61" transform="translate(1025.78125 0)"/>
     <use xlink:href="#DejaVuSerif-70" transform="translate(1085.400391 0)"/>
    </g>
   </g>
   <g id="text_17">
    <!-- 72-bar: hard vs soft constraint handling -->
    <g transform="translate(148.439531 11.958281) scale(0.11 -0.11)">
     <defs>
      <path id="DejaVuSerif-2d" d="M 281 1959 
L 1881 1959 
L 1881 1472 
L 281 1472 
L 281 1959 
z
" transform="scale(0.015625)"/>
      <path id="DejaVuSerif-3a" d="M 666 325 
Q 666 500 786 622 
Q 906 744 1081 744 
Q 1256 744 1376 622 
Q 1497 500 1497 325 
Q 1497 150 1378 29 
Q 1259 -91 1081 -91 
Q 903 -91 784 29 
Q 666 150 666 325 
z
M 666 2363 
Q 666 2538 786 2658 
Q 906 2778 1081 2778 
Q 1259 2778 1378 2659 
Q 1497 2541 1497 2363 
Q 1497 2184 1378 2065 
Q 1259 1947 1081 1947 
Q 906 1947 786 2067 
Q 666 2188 666 2363 
z
" transform="scale(0.015625)"/>
      <path id="DejaVuSerif-64" d="M 3359 331 
L 3909 331 
L 3909 0 
L 2784 0 
L 2784 519 
Q 2616 206 2355 57 
Q 2094 -91 1709 -91 
Q 1097 -91 708 395 
Q 319 881 319 1663 
Q 319 2444 706 2928 
Q 1094 3413 1709 3413 
Q 2094 3413 2355 3264 
Q 2616 3116 2784 2803 
L 2784 4531 
L 2241 4531 
L 2241 4863 
L 3359 4863 
L 3359 331 
z
M 2784 1497 
L 2784 1825 
Q 2784 2422 2554 2737 
Q 2325 3053 1888 3053 
Q 1444 3053 1217 2703 
Q 991 2353 991 1663 
Q 991 975 1217 622 
Q 1444 269 1888 269 
Q 2325 269 2554 583 
Q 2784 897 2784 1497 
z
" transform="scale(0.015625)"/>
      <path id="DejaVuSerif-76" d="M 1581 0 
L 359 2988 
L -19 2988 
L -19 3322 
L 1509 3322 
L 1509 2988 
L 978 2988 
L 1913 703 
L 2847 2988 
L 2350 2988 
L 2350 3322 
L 3597 3322 
L 3597 2988 
L 3225 2988 
L 2003 0 
L 1581 0 
z
" transform="scale(0.015625)"/>
      <path id="DejaVuSerif-63" d="M 3291 997 
Q 3169 466 2822 187 
Q 2475 -91 1925 -91 
Q 1200 -91 759 389 
Q 319 869 319 1663 
Q 319 2459 759 2936 
Q 1200 3413 1925 3413 
Q 2241 3413 2553 3339 
Q 2866 3266 3181 3116 
L 3181 2266 
L 2847 2266 
Q 2781 2703 2561 2903 
Q 2341 3103 1931 3103 
Q 1466 3103 1228 2742 
Q 991 2381 991 1663 
Q 991 944 1227 581 
Q 1463 219 1931 219 
Q 2303 219 2525 412 
Q 2747 606 2828 997 
L 3291 997 
z
" transform="scale(0.015625)"/>
     </defs>
     <use xlink:href="#DejaVuSerif-37"/>
     <use xlink:href="#DejaVuSerif-32" transform="translate(63.623047 0)"/>
     <use xlink:href="#DejaVuSerif-2d" transform="translate(127.246094 0)"/>
     <use xlink:href="#DejaVuSerif-62" transform="translate(161.035156 0)"/>
     <use xlink:href="#DejaVuSerif-61" transform="translate(225.048828 0)"/>
     <use xlink:href="#DejaVuSerif-72" transform="translate(284.667969 0)"/>
     <use xlink:href="#DejaVuSerif-3a" transform="translate(332.470703 0)"/>
     <use xlink:href="#DejaVuSerif-20" transform="translate(366.162109 0)"/>
     <use xlink:href="#DejaVuSerif-68" transform="translate(397.949219 0)"/>
     <use xlink:href="#DejaVuSerif-61" transform="translate(462.353516 0)"/>
     <use xlink:href="#DejaVuSerif-72" transform="translate(521.972656 0)"/>
     <use xlink:href="#DejaVuSerif-64" transform="translate(569.775391 0)"/>
     <use xlink:href="#DejaVuSerif-20" transform="translate(633.789062 0)"/>
     <use xlink:href="#DejaVuSerif-76" transform="translate(665.576172 0)"/>
     <use xlink:href="#DejaVuSerif-73" transform="translate(722.070312 0)"/>
     <use xlink:href="#DejaVuSerif-20" transform="translate(773.388672 0)"/>
     <use xlink:href="#DejaVuSerif-73" transform="translate(805.175781 0)"/>
     <use xlink:href="#DejaVuSerif-6f" transform="translate(856.494141 0)"/>
     <use xlink:href="#DejaVuSerif-66" transform="translate(916.699219 0)"/>
     <use xlink:href="#DejaVuSerif-74" transform="translate(953.710938 0)"/>
     <use xlink:href="#DejaVuSerif-20" transform="translate(993.896484 0)"/>
     <use xlink:href="#DejaVuSerif-63" transform="translate(1025.683594 0)"/>
     <use xlink:href="#DejaVuSerif-6f" transform="translate(1081.689453 0)"/>
     <use xlink:href="#DejaVuSerif-6e" transform="translate(1141.894531 0)"/>
     <use xlink:href="#DejaVuSerif-73" transform="translate(1206.298828 0)"/>
     <use xlink:href="#DejaVuSerif-74" transform="translate(1257.617188 0)"/>
     <use xlink:href="#DejaVuSerif-72" transform="translate(1297.802734 0)"/>
     <use xlink:href="#DejaVuSerif-61" transform="translate(1345.605469 0)"/>
     <use xlink:href="#DejaVuSerif-69" transform="translate(1405.224609 0)"/>
     <use xlink:href="#DejaVuSerif-6e" transform="translate(1437.207031 0)"/>
     <use xlink:href="#DejaVuSerif-74" transform="translate(1501.611328 0)"/>
     <use xlink:href="#DejaVuSerif-20" transform="translate(1541.796875 0)"/>
     <use xlink:href="#DejaVuSerif-68" transform="translate(1573.583984 0)"/>
     <use xlink:href="#DejaVuSerif-61" transform="translate(1637.988281 0)"/>
     <use xlink:href="#DejaVuSerif-6e" transform="translate(1697.607422 0)"/>
     <use xlink:href="#DejaVuSerif-64" transform="translate(1762.011719 0)"/>
     <use xlink:href="#DejaVuSerif-6c" transform="translate(1826.025391 0)"/>
     <use xlink:href="#DejaVuSerif-69" transform="translate(1858.007812 0)"/>
     <use xlink:href="#DejaVuSerif-6e" transform="translate(1889.990234 0)"/>
     <use xlink:href="#DejaVuSerif-67" transform="translate(1954.394531 0)"/>
    </g>
   </g>
   <g id="legend_1">
    <g id="line2d_29">
     <path d="M 256.077656 29.748281 
L 265.077656 29.748281 
L 274.077656 29.748281 
" style="fill: none; stroke: #1f77b4; stroke-width: 2; stroke-linecap: square"/>
    </g>
    <g id="text_18">
     <!-- strict $g \leq 0$ (this work) → 549 lb -->
     <g transform="translate(281.277656 32.898281) scale(0.09 -0.09)">
      <defs>
       <path id="DejaVuSans-Oblique-67" d="M 3816 3500 
L 3219 434 
Q 3047 -456 2561 -893 
Q 2075 -1331 1253 -1331 
Q 950 -1331 690 -1286 
Q 431 -1241 206 -1147 
L 313 -588 
Q 525 -725 762 -790 
Q 1000 -856 1269 -856 
Q 1816 -856 2167 -557 
Q 2519 -259 2631 300 
L 2681 563 
Q 2441 288 2122 144 
Q 1803 0 1434 0 
Q 903 0 598 351 
Q 294 703 294 1319 
Q 294 1803 478 2267 
Q 663 2731 997 3091 
Q 1219 3328 1514 3456 
Q 1809 3584 2131 3584 
Q 2484 3584 2746 3420 
Q 3009 3256 3138 2956 
L 3238 3500 
L 3816 3500 
z
M 2950 2216 
Q 2950 2641 2750 2872 
Q 2550 3103 2181 3103 
Q 1953 3103 1747 3012 
Q 1541 2922 1394 2759 
Q 1156 2491 1023 2127 
Q 891 1763 891 1375 
Q 891 944 1092 712 
Q 1294 481 1672 481 
Q 2219 481 2584 976 
Q 2950 1472 2950 2216 
z
" transform="scale(0.015625)"/>
       <path id="DejaVuSans-2264" d="M 4684 3175 
L 1684 2309 
L 4684 1453 
L 4684 897 
L 678 2047 
L 678 2578 
L 4684 3725 
L 4684 3175 
z
M 678 531 
L 4684 531 
L 4684 0 
L 678 0 
L 678 531 
z
" transform="scale(0.015625)"/>
       <path id="DejaVuSans-30" d="M 2034 4250 
Q 1547 4250 1301 3770 
Q 1056 3291 1056 2328 
Q 1056 1369 1301 889 
Q 1547 409 2034 409 
Q 2525 409 2770 889 
Q 3016 1369 3016 2328 
Q 3016 3291 2770 3770 
Q 2525 4250 2034 4250 
z
M 2034 4750 
Q 2819 4750 3233 4129 
Q 3647 3509 3647 2328 
Q 3647 1150 3233 529 
Q 2819 -91 2034 -91 
Q 1250 -91 836 529 
Q 422 1150 422 2328 
Q 422 3509 836 4129 
Q 1250 4750 2034 4750 
z
" transform="scale(0.015625)"/>
       <path id="DejaVuSerif-6b" d="M 1831 0 
L 219 0 
L 219 331 
L 738 331 
L 738 4531 
L 184 4531 
L 184 4863 
L 1313 4863 
L 1313 1697 
L 2713 2988 
L 2234 2988 
L 2234 3322 
L 3738 3322 
L 3738 2988 
L 3169 2988 
L 2181 2075 
L 3444 331 
L 3922 331 
L 3922 0 
L 2284 0 
L 2284 331 
L 2759 331 
L 1766 1697 
L 1313 1275 
L 1313 331 
L 1831 331 
L 1831 0 
z
" transform="scale(0.015625)"/>
       <path id="DejaVuSerif-2192" d="M 366 2322 
L 4391 2322 
L 3788 3375 
L 3822 3375 
L 5125 2084 
L 5125 2053 
L 3822 763 
L 3788 763 
L 4391 1816 
L 366 1816 
L 366 2322 
z
" transform="scale(0.015625)"/>
       <path id="DejaVuSerif-39" d="M 2994 2091 
Q 2784 1856 2512 1740 
Q 2241 1625 1900 1625 
Q 1206 1625 804 2044 
Q 403 2463 403 3188 
Q 403 3897 839 4323 
Q 1275 4750 2003 4750 
Q 2794 4750 3217 4161 
Q 3641 3572 3641 2478 
Q 3641 1253 3137 581 
Q 2634 -91 1722 -91 
Q 1475 -91 1203 -44 
Q 931 3 647 97 
L 647 872 
L 997 872 
Q 1038 556 1241 387 
Q 1444 219 1784 219 
Q 2391 219 2687 676 
Q 2984 1134 2994 2091 
z
M 1978 4441 
Q 1534 4441 1298 4117 
Q 1063 3794 1063 3188 
Q 1063 2581 1298 2256 
Q 1534 1931 1978 1931 
Q 2422 1931 2658 2245 
Q 2894 2559 2894 3150 
Q 2894 3772 2656 4106 
Q 2419 4441 1978 4441 
z
" transform="scale(0.015625)"/>
      </defs>
      <use xlink:href="#DejaVuSerif-73" transform="translate(0 0.015625)"/>
      <use xlink:href="#DejaVuSerif-74" transform="translate(51.318359 0.015625)"/>
      <use xlink:href="#DejaVuSerif-72" transform="translate(91.503906 0.015625)"/>
      <use xlink:href="#DejaVuSerif-69" transform="translate(139.306641 0.015625)"/>
      <use xlink:href="#DejaVuSerif-63" transform="translate(171.289062 0.015625)"/>
      <use xlink:href="#DejaVuSerif-74" transform="translate(227.294922 0.015625)"/>
      <use xlink:href="#DejaVuSerif-20" transform="translate(267.480469 0.015625)"/>
      <use xlink:href="#DejaVuSans-Oblique-67" transform="translate(299.267578 0.015625)"/>
      <use xlink:href="#DejaVuSans-2264" transform="translate(382.226562 0.015625)"/>
      <use xlink:href="#DejaVuSans-30" transform="translate(485.498047 0.015625)"/>
      <use xlink:href="#DejaVuSerif-20" transform="translate(549.121094 0.015625)"/>
      <use xlink:href="#DejaVuSerif-28" transform="translate(580.908203 0.015625)"/>
      <use xlink:href="#DejaVuSerif-74" transform="translate(619.921875 0.015625)"/>
      <use xlink:href="#DejaVuSerif-68" transform="translate(660.107422 0.015625)"/>
      <use xlink:href="#DejaVuSerif-69" transform="translate(724.511719 0.015625)"/>
      <use xlink:href="#DejaVuSerif-73" transform="translate(756.494141 0.015625)"/>
      <use xlink:href="#DejaVuSerif-20" transform="translate(807.8125 0.015625)"/>
      <use xlink:href="#DejaVuSerif-77" transform="translate(839.599609 0.015625)"/>
      <use xlink:href="#DejaVuSerif-6f" transform="translate(925.195312 0.015625)"/>
      <use xlink:href="#DejaVuSerif-72" transform="translate(985.400391 0.015625)"/>
      <use xlink:href="#DejaVuSerif-6b" transform="translate(1033.203125 0.015625)"/>
      <use xlink:href="#DejaVuSerif-29" transform="translate(1093.798828 0.015625)"/>
      <use xlink:href="#DejaVuSerif-20" transform="translate(1132.8125 0.015625)"/>
      <use xlink:href="#DejaVuSerif-2192" transform="translate(1164.599609 0.015625)"/>
      <use xlink:href="#DejaVuSerif-20" transform="translate(1248.388672 0.015625)"/>
      <use xlink:href="#DejaVuSerif-35" transform="translate(1280.175781 0.015625)"/>
      <use xlink:href="#DejaVuSerif-34" transform="translate(1343.798828 0.015625)"/>
      <use xlink:href="#DejaVuSerif-39" transform="translate(1407.421875 0.015625)"/>
      <use xlink:href="#DejaVuSerif-20" transform="translate(1471.044922 0.015625)"/>
      <use xlink:href="#DejaVuSerif-6c" transform="translate(1502.832031 0.015625)"/>
      <use xlink:href="#DejaVuSerif-62" transform="translate(1534.814453 0.015625)"/>
     </g>
    </g>
    <g id="line2d_30">
     <path d="M 256.077656 42.976875 
L 265.077656 42.976875 
L 274.077656 42.976875 
" style="fill: none; stroke-dasharray: 7.4,3.2; stroke-dashoffset: 0; stroke: #d62728; stroke-width: 2"/>
    </g>
    <g id="text_19">
     <!-- soft penalty (Camp 2004 style) → 379 lb -->
     <g transform="translate(281.277656 46.126875) scale(0.09 -0.09)">
      <defs>
       <path id="DejaVuSerif-43" d="M 4513 1234 
Q 4306 581 3820 245 
Q 3334 -91 2591 -91 
Q 2134 -91 1743 65 
Q 1353 222 1050 525 
Q 700 875 529 1320 
Q 359 1766 359 2328 
Q 359 3416 987 4083 
Q 1616 4750 2644 4750 
Q 3025 4750 3456 4650 
Q 3888 4550 4384 4347 
L 4384 3272 
L 4031 3272 
Q 3916 3859 3567 4137 
Q 3219 4416 2591 4416 
Q 1844 4416 1459 3886 
Q 1075 3356 1075 2328 
Q 1075 1303 1459 773 
Q 1844 244 2591 244 
Q 3113 244 3450 492 
Q 3788 741 3938 1234 
L 4513 1234 
z
" transform="scale(0.015625)"/>
       <path id="DejaVuSerif-6d" d="M 3316 2675 
Q 3481 3041 3739 3227 
Q 3997 3413 4341 3413 
Q 4863 3413 5119 3089 
Q 5375 2766 5375 2113 
L 5375 331 
L 5894 331 
L 5894 0 
L 4300 0 
L 4300 331 
L 4800 331 
L 4800 2047 
Q 4800 2556 4650 2772 
Q 4500 2988 4153 2988 
Q 3769 2988 3567 2697 
Q 3366 2406 3366 1850 
L 3366 331 
L 3866 331 
L 3866 0 
L 2291 0 
L 2291 331 
L 2791 331 
L 2791 2069 
Q 2791 2566 2641 2777 
Q 2491 2988 2144 2988 
Q 1759 2988 1557 2697 
Q 1356 2406 1356 1850 
L 1356 331 
L 1856 331 
L 1856 0 
L 263 0 
L 263 331 
L 781 331 
L 781 2994 
L 231 2994 
L 231 3322 
L 1356 3322 
L 1356 2731 
Q 1516 3063 1762 3238 
Q 2009 3413 2322 3413 
Q 2709 3413 2968 3220 
Q 3228 3028 3316 2675 
z
" transform="scale(0.015625)"/>
      </defs>
      <use xlink:href="#DejaVuSerif-73"/>
      <use xlink:href="#DejaVuSerif-6f" transform="translate(51.318359 0)"/>
      <use xlink:href="#DejaVuSerif-66" transform="translate(111.523438 0)"/>
      <use xlink:href="#DejaVuSerif-74" transform="translate(148.535156 0)"/>
      <use xlink:href="#DejaVuSerif-20" transform="translate(188.720703 0)"/>
      <use xlink:href="#DejaVuSerif-70" transform="translate(220.507812 0)"/>
      <use xlink:href="#DejaVuSerif-65" transform="translate(284.521484 0)"/>
      <use xlink:href="#DejaVuSerif-6e" transform="translate(343.701172 0)"/>
      <use xlink:href="#DejaVuSerif-61" transform="translate(408.105469 0)"/>
      <use xlink:href="#DejaVuSerif-6c" transform="translate(467.724609 0)"/>
      <use xlink:href="#DejaVuSerif-74" transform="translate(499.707031 0)"/>
      <use xlink:href="#DejaVuSerif-79" transform="translate(539.892578 0)"/>
      <use xlink:href="#DejaVuSerif-20" transform="translate(596.386719 0)"/>
      <use xlink:href="#DejaVuSerif-28" transform="translate(628.173828 0)"/>
      <use xlink:href="#DejaVuSerif-43" transform="translate(667.1875 0)"/>
      <use xlink:href="#DejaVuSerif-61" transform="translate(743.701172 0)"/>
      <use xlink:href="#DejaVuSerif-6d" transform="translate(803.320312 0)"/>
      <use xlink:href="#DejaVuSerif-70" transform="translate(898.144531 0)"/>
      <use xlink:href="#DejaVuSerif-20" transform="translate(962.158203 0)"/>
      <use xlink:href="#DejaVuSerif-32" transform="translate(993.945312 0)"/>
      <use xlink:href="#DejaVuSerif-30" transform="translate(1057.568359 0)"/>
      <use xlink:href="#DejaVuSerif-30" transform="translate(1121.191406 0)"/>
      <use xlink:href="#DejaVuSerif-34" transform="translate(1184.814453 0)"/>
      <use xlink:href="#DejaVuSerif-20" transform="translate(1248.4375 0)"/>
      <use xlink:href="#DejaVuSerif-73" transform="translate(1280.224609 0)"/>
      <use xlink:href="#DejaVuSerif-74" transform="translate(1331.542969 0)"/>
      <use xlink:href="#DejaVuSerif-79" transform="translate(1371.728516 0)"/>
      <use xlink:href="#DejaVuSerif-6c" transform="translate(1428.222656 0)"/>
      <use xlink:href="#DejaVuSerif-65" transform="translate(1460.205078 0)"/>
      <use xlink:href="#DejaVuSerif-29" transform="translate(1519.384766 0)"/>
      <use xlink:href="#DejaVuSerif-20" transform="translate(1558.398438 0)"/>
      <use xlink:href="#DejaVuSerif-2192" transform="translate(1590.185547 0)"/>
      <use xlink:href="#DejaVuSerif-20" transform="translate(1673.974609 0)"/>
      <use xlink:href="#DejaVuSerif-33" transform="translate(1705.761719 0)"/>
      <use xlink:href="#DejaVuSerif-37" transform="translate(1769.384766 0)"/>
      <use xlink:href="#DejaVuSerif-39" transform="translate(1833.007812 0)"/>
      <use xlink:href="#DejaVuSerif-20" transform="translate(1896.630859 0)"/>
      <use xlink:href="#DejaVuSerif-6c" transform="translate(1928.417969 0)"/>
      <use xlink:href="#DejaVuSerif-62" transform="translate(1960.400391 0)"/>
     </g>
    </g>
   </g>
  </g>
 </g>
 <defs>
  <clipPath id="p3d808b5c85">
   <rect x="47.325312" y="17.958281" width="424.253125" height="179.8"/>
  </clipPath>
 </defs>
</svg>
