<?xml version="1.0" encoding="utf-8" standalone="no"?>
<!DOCTYPE svg PUBLIC "-//W3C//DTD SVG 1.1//EN"
  "http://www.w3.org/Graphics/SVG/1.1/DTD/svg11.dtd">
<svg xmlns:xlink="http://www.w3.org/1999/xlink" width="475.378852pt" height="231.009281pt" viewBox="0 0 475.378852 231.009281" xmlns="http://www.w3.org/2000/svg" version="1.1">
 <metadata>
  <rdf:RDF xmlns:dc="http://purl.org/dc/elements/1.1/" xmlns:cc="http://creativecommons.org/ns#" xmlns:rdf="http://www.w3.org/1999/02/22-rdf-syntax-ns#">
   <cc:Work>
    <dc:type rdf:resource="http://purl.org/dc/dcmitype/StillImage"/>
    <dc:date>2026-04-24T15:22:22.559208</dc:date>
    <dc:format>image/svg+xml</dc:format>
    <dc:creator>
     <cc:Agent>
      <dc:title>Matplotlib v3.10.8, https://matplotlib.org/</dc:title>
     </cc:Agent>
    </dc:creator>
   </cc:Work>
  </rdf:RDF>
 </metadata>
 <defs>
  <style type="text/css">*{stroke-linejoin: round; stroke-linecap: butt}</style>
 </defs>
 <g id="figure_1">
  <g id="patch_1">
   <path d="M 0 231.009281 
L 475.378852 231.009281 
L 475.378852 0 
L 0 0 
z
" style="fill: #ffffff"/>
  </g>
  <g id="axes_1">
   <g id="patch_2">
    <path d="M 40.260313 201.492969 
L 471.778852 201.492969 
L 471.778852 17.958281 
L 40.260313 17.958281 
z
" style="fill: #ffffff"/>
   </g>
   <g id="matplotlib.axis_1">
    <g id="xtick_1">
     <g id="line2d_1">
      <path d="M 64.233565 201.492969 
L 64.233565 17.958281 
" clip-path="url(#p4e41f0af44)" style="fill: none; stroke-dasharray: 2.96,1.28; stroke-dashoffset: 0; stroke: #b0b0b0; stroke-opacity: 0.25; stroke-width: 0.8"/>
     </g>
     <g id="line2d_2">
      <defs>
       <path id="m8d5a6d3c64" d="M 0 0 
L 0 3.5 
" style="stroke: #000000; stroke-width: 0.8"/>
      </defs>
      <g>
       <use xlink:href="#m8d5a6d3c64" x="64.233565" y="201.492969" style="stroke: #000000; stroke-width: 0.8"/>
      </g>
     </g>
     <g id="text_1">
      <!-- 10bar -->
      <g transform="translate(50.792627 215.331562) scale(0.09 -0.09)">
       <defs>
        <path id="DejaVuSerif-31" d="M 909 0 
L 909 331 
L 1722 331 
L 1722 4213 
L 781 3603 
L 781 4013 
L 1919 4750 
L 2350 4750 
L 2350 331 
L 3163 331 
L 3163 0 
L 909 0 
z
" transform="scale(0.015625)"/>
        <path id="DejaVuSerif-30" d="M 2034 219 
Q 2513 219 2750 744 
Q 2988 1269 2988 2328 
Q 2988 3391 2750 3916 
Q 2513 4441 2034 4441 
Q 1556 4441 1318 3916 
Q 1081 3391 1081 2328 
Q 1081 1269 1318 744 
Q 1556 219 2034 219 
z
M 2034 -91 
Q 1275 -91 848 546 
Q 422 1184 422 2328 
Q 422 3475 848 4112 
Q 1275 4750 2034 4750 
Q 2797 4750 3222 4112 
Q 3647 3475 3647 2328 
Q 3647 1184 3222 546 
Q 2797 -91 2034 -91 
z
" transform="scale(0.015625)"/>
        <path id="DejaVuSerif-62" d="M 738 331 
L 738 4531 
L 184 4531 
L 184 4863 
L 1313 4863 
L 1313 2803 
Q 1481 3116 1742 3264 
Q 2003 3413 2388 3413 
Q 3000 3413 3387 2928 
Q 3775 2444 3775 1663 
Q 3775 881 3387 395 
Q 3000 -91 2388 -91 
Q 2003 -91 1742 57 
Q 1481 206 1313 519 
L 1313 0 
L 184 0 
L 184 331 
L 738 331 
z
M 1313 1497 
Q 1313 897 1542 583 
Q 1772 269 2209 269 
Q 2650 269 2876 622 
Q 3103 975 3103 1663 
Q 3103 2353 2876 2703 
Q 2650 3053 2209 3053 
Q 1772 3053 1542 2737 
Q 1313 2422 1313 1825 
L 1313 1497 
z
" transform="scale(0.015625)"/>
        <path id="DejaVuSerif-61" d="M 2547 1044 
L 2547 1747 
L 1806 1747 
Q 1378 1747 1168 1562 
Q 959 1378 959 997 
Q 959 650 1171 447 
Q 1384 244 1747 244 
Q 2106 244 2326 466 
Q 2547 688 2547 1044 
z
M 3122 2075 
L 3122 331 
L 3634 331 
L 3634 0 
L 2547 0 
L 2547 359 
Q 2356 128 2106 18 
Q 1856 -91 1522 -91 
Q 969 -91 644 203 
Q 319 497 319 997 
Q 319 1513 691 1797 
Q 1063 2081 1741 2081 
L 2547 2081 
L 2547 2309 
Q 2547 2688 2317 2895 
Q 2088 3103 1672 3103 
Q 1328 3103 1125 2947 
Q 922 2791 872 2484 
L 575 2484 
L 575 3156 
Q 875 3284 1158 3348 
Q 1441 3413 1709 3413 
Q 2400 3413 2761 3070 
Q 3122 2728 3122 2075 
z
" transform="scale(0.015625)"/>
        <path id="DejaVuSerif-72" d="M 3059 3328 
L 3059 2497 
L 2728 2497 
Q 2713 2744 2591 2866 
Q 2469 2988 2234 2988 
Q 1809 2988 1582 2694 
Q 1356 2400 1356 1850 
L 1356 331 
L 2022 331 
L 2022 0 
L 263 0 
L 263 331 
L 781 331 
L 781 2994 
L 231 2994 
L 231 3322 
L 1356 3322 
L 1356 2731 
Q 1525 3078 1790 3245 
Q 2056 3413 2438 3413 
Q 2578 3413 2733 3391 
Q 2888 3369 3059 3328 
z
" transform="scale(0.015625)"/>
       </defs>
       <use xlink:href="#DejaVuSerif-31"/>
       <use xlink:href="#DejaVuSerif-30" transform="translate(63.623047 0)"/>
       <use xlink:href="#DejaVuSerif-62" transform="translate(127.246094 0)"/>
       <use xlink:href="#DejaVuSerif-61" transform="translate(191.259766 0)"/>
       <use xlink:href="#DejaVuSerif-72" transform="translate(250.878906 0)"/>
      </g>
      <!-- ga -->
      <g transform="translate(58.669737 225.409594) scale(0.09 -0.09)">
       <defs>
        <path id="DejaVuSerif-67" d="M 3359 2988 
L 3359 72 
Q 3359 -644 2965 -1033 
Q 2572 -1422 1844 -1422 
Q 1516 -1422 1216 -1362 
Q 916 -1303 641 -1184 
L 641 -488 
L 941 -488 
Q 997 -813 1206 -963 
Q 1416 -1113 1806 -1113 
Q 2313 -1113 2548 -827 
Q 2784 -541 2784 72 
L 2784 519 
Q 2616 206 2355 57 
Q 2094 -91 1709 -91 
Q 1097 -91 708 395 
Q 319 881 319 1663 
Q 319 2444 706 2928 
Q 1094 3413 1709 3413 
Q 2094 3413 2355 3264 
Q 2616 3116 2784 2803 
L 2784 3322 
L 3909 3322 
L 3909 2988 
L 3359 2988 
z
M 2784 1825 
Q 2784 2422 2554 2737 
Q 2325 3053 1888 3053 
Q 1444 3053 1217 2703 
Q 991 2353 991 1663 
Q 991 975 1217 622 
Q 1444 269 1888 269 
Q 2325 269 2554 583 
Q 2784 897 2784 1497 
L 2784 1825 
z
" transform="scale(0.015625)"/>
       </defs>
       <use xlink:href="#DejaVuSerif-67"/>
       <use xlink:href="#DejaVuSerif-61" transform="translate(64.013672 0)"/>
      </g>
     </g>
    </g>
    <g id="xtick_2">
     <g id="line2d_3">
      <path d="M 112.180069 201.492969 
L 112.180069 17.958281 
" clip-path="url(#p4e41f0af44)" style="fill: none; stroke-dasharray: 2.96,1.28; stroke-dashoffset: 0; stroke: #b0b0b0; stroke-opacity: 0.25; stroke-width: 0.8"/>
     </g>
     <g id="line2d_4">
      <g>
       <use xlink:href="#m8d5a6d3c64" x="112.180069" y="201.492969" style="stroke: #000000; stroke-width: 0.8"/>
      </g>
     </g>
     <g id="text_2">
      <!-- 10bar -->
      <g transform="translate(98.739132 215.331562) scale(0.09 -0.09)">
       <use xlink:href="#DejaVuSerif-31"/>
       <use xlink:href="#DejaVuSerif-30" transform="translate(63.623047 0)"/>
       <use xlink:href="#DejaVuSerif-62" transform="translate(127.246094 0)"/>
       <use xlink:href="#DejaVuSerif-61" transform="translate(191.259766 0)"/>
       <use xlink:href="#DejaVuSerif-72" transform="translate(250.878906 0)"/>
      </g>
      <!-- pso -->
      <g transform="translate(104.281163 225.409594) scale(0.09 -0.09)">
       <defs>
        <path id="DejaVuSerif-70" d="M 1313 1825 
L 1313 1497 
Q 1313 897 1542 583 
Q 1772 269 2209 269 
Q 2650 269 2876 622 
Q 3103 975 3103 1663 
Q 3103 2353 2876 2703 
Q 2650 3053 2209 3053 
Q 1772 3053 1542 2737 
Q 1313 2422 1313 1825 
z
M 738 2988 
L 184 2988 
L 184 3322 
L 1313 3322 
L 1313 2803 
Q 1481 3116 1742 3264 
Q 2003 3413 2388 3413 
Q 3000 3413 3387 2928 
Q 3775 2444 3775 1663 
Q 3775 881 3387 395 
Q 3000 -91 2388 -91 
Q 2003 -91 1742 57 
Q 1481 206 1313 519 
L 1313 -997 
L 1856 -997 
L 1856 -1331 
L 184 -1331 
L 184 -997 
L 738 -997 
L 738 2988 
z
" transform="scale(0.015625)"/>
        <path id="DejaVuSerif-73" d="M 359 184 
L 359 959 
L 691 959 
Q 703 588 923 403 
Q 1144 219 1575 219 
Q 1963 219 2166 364 
Q 2369 509 2369 788 
Q 2369 1006 2220 1140 
Q 2072 1275 1594 1428 
L 1178 1569 
Q 750 1706 558 1912 
Q 366 2119 366 2438 
Q 366 2894 700 3153 
Q 1034 3413 1625 3413 
Q 1888 3413 2178 3344 
Q 2469 3275 2778 3144 
L 2778 2419 
L 2447 2419 
Q 2434 2741 2221 2922 
Q 2009 3103 1644 3103 
Q 1281 3103 1095 2975 
Q 909 2847 909 2591 
Q 909 2381 1050 2254 
Q 1191 2128 1613 1997 
L 2069 1856 
Q 2541 1709 2748 1489 
Q 2956 1269 2956 922 
Q 2956 450 2595 179 
Q 2234 -91 1600 -91 
Q 1278 -91 972 -22 
Q 666 47 359 184 
z
" transform="scale(0.015625)"/>
        <path id="DejaVuSerif-6f" d="M 1925 219 
Q 2388 219 2623 584 
Q 2859 950 2859 1663 
Q 2859 2375 2623 2739 
Q 2388 3103 1925 3103 
Q 1463 3103 1227 2739 
Q 991 2375 991 1663 
Q 991 950 1228 584 
Q 1466 219 1925 219 
z
M 1925 -91 
Q 1200 -91 759 389 
Q 319 869 319 1663 
Q 319 2456 758 2934 
Q 1197 3413 1925 3413 
Q 2653 3413 3092 2934 
Q 3531 2456 3531 1663 
Q 3531 869 3092 389 
Q 2653 -91 1925 -91 
z
" transform="scale(0.015625)"/>
       </defs>
       <use xlink:href="#DejaVuSerif-70"/>
       <use xlink:href="#DejaVuSerif-73" transform="translate(64.013672 0)"/>
       <use xlink:href="#DejaVuSerif-6f" transform="translate(115.332031 0)"/>
      </g>
     </g>
    </g>
    <g id="xtick_3">
     <g id="line2d_5">
      <path d="M 160.126573 201.492969 
L 160.126573 17.958281 
" clip-path="url(#p4e41f0af44)" style="fill: none; stroke-dasharray: 2.96,1.28; stroke-dashoffset: 0; stroke: #b0b0b0; stroke-opacity: 0.25; stroke-width: 0.8"/>
     </g>
     <g id="line2d_6">
      <g>
       <use xlink:href="#m8d5a6d3c64" x="160.126573" y="201.492969" style="stroke: #000000; stroke-width: 0.8"/>
      </g>
     </g>
     <g id="text_3">
      <!-- 10bar -->
      <g transform="translate(146.685636 215.331562) scale(0.09 -0.09)">
       <use xlink:href="#DejaVuSerif-31"/>
       <use xlink:href="#DejaVuSerif-30" transform="translate(63.623047 0)"/>
       <use xlink:href="#DejaVuSerif-62" transform="translate(127.246094 0)"/>
       <use xlink:href="#DejaVuSerif-61" transform="translate(191.259766 0)"/>
       <use xlink:href="#DejaVuSerif-72" transform="translate(250.878906 0)"/>
      </g>
      <!-- nsga2 -->
      <g transform="translate(146.492276 225.409594) scale(0.09 -0.09)">
       <defs>
        <path id="DejaVuSerif-6e" d="M 263 0 
L 263 331 
L 781 331 
L 781 2988 
L 231 2988 
L 231 3322 
L 1356 3322 
L 1356 2731 
Q 1516 3069 1770 3241 
Q 2025 3413 2363 3413 
Q 2913 3413 3172 3097 
Q 3431 2781 3431 2113 
L 3431 331 
L 3944 331 
L 3944 0 
L 2356 0 
L 2356 331 
L 2853 331 
L 2853 1931 
Q 2853 2541 2703 2767 
Q 2553 2994 2175 2994 
Q 1775 2994 1565 2701 
Q 1356 2409 1356 1850 
L 1356 331 
L 1856 331 
L 1856 0 
L 263 0 
z
" transform="scale(0.015625)"/>
        <path id="DejaVuSerif-32" d="M 819 3553 
L 469 3553 
L 469 4384 
Q 803 4563 1142 4656 
Q 1481 4750 1806 4750 
Q 2534 4750 2956 4397 
Q 3378 4044 3378 3438 
Q 3378 2753 2422 1800 
Q 2347 1728 2309 1691 
L 1131 513 
L 3078 513 
L 3078 1088 
L 3444 1088 
L 3444 0 
L 434 0 
L 434 341 
L 1850 1753 
Q 2319 2222 2519 2614 
Q 2719 3006 2719 3438 
Q 2719 3909 2473 4175 
Q 2228 4441 1797 4441 
Q 1350 4441 1106 4219 
Q 863 3997 819 3553 
z
" transform="scale(0.015625)"/>
       </defs>
       <use xlink:href="#DejaVuSerif-6e"/>
       <use xlink:href="#DejaVuSerif-73" transform="translate(64.404297 0)"/>
       <use xlink:href="#DejaVuSerif-67" transform="translate(115.722656 0)"/>
       <use xlink:href="#DejaVuSerif-61" transform="translate(179.736328 0)"/>
       <use xlink:href="#DejaVuSerif-32" transform="translate(239.355469 0)"/>
      </g>
     </g>
    </g>
    <g id="xtick_4">
     <g id="line2d_7">
      <path d="M 208.073078 201.492969 
L 208.073078 17.958281 
" clip-path="url(#p4e41f0af44)" style="fill: none; stroke-dasharray: 2.96,1.28; stroke-dashoffset: 0; stroke: #b0b0b0; stroke-opacity: 0.25; stroke-width: 0.8"/>
     </g>
     <g id="line2d_8">
      <g>
       <use xlink:href="#m8d5a6d3c64" x="208.073078" y="201.492969" style="stroke: #000000; stroke-width: 0.8"/>
      </g>
     </g>
     <g id="text_4">
      <!-- 25bar -->
      <g transform="translate(194.63214 215.331562) scale(0.09 -0.09)">
       <defs>
        <path id="DejaVuSerif-35" d="M 3219 4666 
L 3219 4153 
L 1081 4153 
L 1081 2816 
Q 1244 2928 1461 2984 
Q 1678 3041 1947 3041 
Q 2703 3041 3140 2622 
Q 3578 2203 3578 1478 
Q 3578 738 3136 323 
Q 2694 -91 1894 -91 
Q 1572 -91 1234 -12 
Q 897 66 544 225 
L 544 1131 
L 897 1131 
Q 925 688 1179 453 
Q 1434 219 1894 219 
Q 2388 219 2653 544 
Q 2919 869 2919 1478 
Q 2919 2084 2655 2407 
Q 2391 2731 1894 2731 
Q 1613 2731 1398 2631 
Q 1184 2531 1019 2322 
L 750 2322 
L 750 4666 
L 3219 4666 
z
" transform="scale(0.015625)"/>
       </defs>
       <use xlink:href="#DejaVuSerif-32"/>
       <use xlink:href="#DejaVuSerif-35" transform="translate(63.623047 0)"/>
       <use xlink:href="#DejaVuSerif-62" transform="translate(127.246094 0)"/>
       <use xlink:href="#DejaVuSerif-61" transform="translate(191.259766 0)"/>
       <use xlink:href="#DejaVuSerif-72" transform="translate(250.878906 0)"/>
      </g>
      <!-- ga -->
      <g transform="translate(202.50925 225.409594) scale(0.09 -0.09)">
       <use xlink:href="#DejaVuSerif-67"/>
       <use xlink:href="#DejaVuSerif-61" transform="translate(64.013672 0)"/>
      </g>
     </g>
    </g>
    <g id="xtick_5">
     <g id="line2d_9">
      <path d="M 256.019582 201.492969 
L 256.019582 17.958281 
" clip-path="url(#p4e41f0af44)" style="fill: none; stroke-dasharray: 2.96,1.28; stroke-dashoffset: 0; stroke: #b0b0b0; stroke-opacity: 0.25; stroke-width: 0.8"/>
     </g>
     <g id="line2d_10">
      <g>
       <use xlink:href="#m8d5a6d3c64" x="256.019582" y="201.492969" style="stroke: #000000; stroke-width: 0.8"/>
      </g>
     </g>
     <g id="text_5">
      <!-- 25bar -->
      <g transform="translate(242.578645 215.331562) scale(0.09 -0.09)">
       <use xlink:href="#DejaVuSerif-32"/>
       <use xlink:href="#DejaVuSerif-35" transform="translate(63.623047 0)"/>
       <use xlink:href="#DejaVuSerif-62" transform="translate(127.246094 0)"/>
       <use xlink:href="#DejaVuSerif-61" transform="translate(191.259766 0)"/>
       <use xlink:href="#DejaVuSerif-72" transform="translate(250.878906 0)"/>
      </g>
      <!-- pso -->
      <g transform="translate(248.120676 225.409594) scale(0.09 -0.09)">
       <use xlink:href="#DejaVuSerif-70"/>
       <use xlink:href="#DejaVuSerif-73" transform="translate(64.013672 0)"/>
       <use xlink:href="#DejaVuSerif-6f" transform="translate(115.332031 0)"/>
      </g>
     </g>
    </g>
    <g id="xtick_6">
     <g id="line2d_11">
      <path d="M 303.966086 201.492969 
L 303.966086 17.958281 
" clip-path="url(#p4e41f0af44)" style="fill: none; stroke-dasharray: 2.96,1.28; stroke-dashoffset: 0; stroke: #b0b0b0; stroke-opacity: 0.25; stroke-width: 0.8"/>
     </g>
     <g id="line2d_12">
      <g>
       <use xlink:href="#m8d5a6d3c64" x="303.966086" y="201.492969" style="stroke: #000000; stroke-width: 0.8"/>
      </g>
     </g>
     <g id="text_6">
      <!-- 25bar -->
      <g transform="translate(290.525149 215.331562) scale(0.09 -0.09)">
       <use xlink:href="#DejaVuSerif-32"/>
       <use xlink:href="#DejaVuSerif-35" transform="translate(63.623047 0)"/>
       <use xlink:href="#DejaVuSerif-62" transform="translate(127.246094 0)"/>
       <use xlink:href="#DejaVuSerif-61" transform="translate(191.259766 0)"/>
       <use xlink:href="#DejaVuSerif-72" transform="translate(250.878906 0)"/>
      </g>
      <!-- nsga2 -->
      <g transform="translate(290.331789 225.409594) scale(0.09 -0.09)">
       <use xlink:href="#DejaVuSerif-6e"/>
       <use xlink:href="#DejaVuSerif-73" transform="translate(64.404297 0)"/>
       <use xlink:href="#DejaVuSerif-67" transform="translate(115.722656 0)"/>
       <use xlink:href="#DejaVuSerif-61" transform="translate(179.736328 0)"/>
       <use xlink:href="#DejaVuSerif-32" transform="translate(239.355469 0)"/>
      </g>
     </g>
    </g>
    <g id="xtick_7">
     <g id="line2d_13">
      <path d="M 351.912591 201.492969 
L 351.912591 17.958281 
" clip-path="url(#p4e41f0af44)" style="fill: none; stroke-dasharray: 2.96,1.28; stroke-dashoffset: 0; stroke: #b0b0b0; stroke-opacity: 0.25; stroke-width: 0.8"/>
     </g>
     <g id="line2d_14">
      <g>
       <use xlink:href="#m8d5a6d3c64" x="351.912591" y="201.492969" style="stroke: #000000; stroke-width: 0.8"/>
      </g>
     </g>
     <g id="text_7">
      <!-- 72bar -->
      <g transform="translate(338.471653 215.331562) scale(0.09 -0.09)">
       <defs>
        <path id="DejaVuSerif-37" d="M 3609 4347 
L 1784 0 
L 1319 0 
L 3059 4153 
L 903 4153 
L 903 3578 
L 538 3578 
L 538 4666 
L 3609 4666 
L 3609 4347 
z
" transform="scale(0.015625)"/>
       </defs>
       <use xlink:href="#DejaVuSerif-37"/>
       <use xlink:href="#DejaVuSerif-32" transform="translate(63.623047 0)"/>
       <use xlink:href="#DejaVuSerif-62" transform="translate(127.246094 0)"/>
       <use xlink:href="#DejaVuSerif-61" transform="translate(191.259766 0)"/>
       <use xlink:href="#DejaVuSerif-72" transform="translate(250.878906 0)"/>
      </g>
      <!-- ga -->
      <g transform="translate(346.348763 225.409594) scale(0.09 -0.09)">
       <use xlink:href="#DejaVuSerif-67"/>
       <use xlink:href="#DejaVuSerif-61" transform="translate(64.013672 0)"/>
      </g>
     </g>
    </g>
    <g id="xtick_8">
     <g id="line2d_15">
      <path d="M 399.859095 201.492969 
L 399.859095 17.958281 
" clip-path="url(#p4e41f0af44)" style="fill: none; stroke-dasharray: 2.96,1.28; stroke-dashoffset: 0; stroke: #b0b0b0; stroke-opacity: 0.25; stroke-width: 0.8"/>
     </g>
     <g id="line2d_16">
      <g>
       <use xlink:href="#m8d5a6d3c64" x="399.859095" y="201.492969" style="stroke: #000000; stroke-width: 0.8"/>
      </g>
     </g>
     <g id="text_8">
      <!-- 72bar -->
      <g transform="translate(386.418158 215.331562) scale(0.09 -0.09)">
       <use xlink:href="#DejaVuSerif-37"/>
       <use xlink:href="#DejaVuSerif-32" transform="translate(63.623047 0)"/>
       <use xlink:href="#DejaVuSerif-62" transform="translate(127.246094 0)"/>
       <use xlink:href="#DejaVuSerif-61" transform="translate(191.259766 0)"/>
       <use xlink:href="#DejaVuSerif-72" transform="translate(250.878906 0)"/>
      </g>
      <!-- pso -->
      <g transform="translate(391.960189 225.409594) scale(0.09 -0.09)">
       <use xlink:href="#DejaVuSerif-70"/>
       <use xlink:href="#DejaVuSerif-73" transform="translate(64.013672 0)"/>
       <use xlink:href="#DejaVuSerif-6f" transform="translate(115.332031 0)"/>
      </g>
     </g>
    </g>
    <g id="xtick_9">
     <g id="line2d_17">
      <path d="M 447.805599 201.492969 
L 447.805599 17.958281 
" clip-path="url(#p4e41f0af44)" style="fill: none; stroke-dasharray: 2.96,1.28; stroke-dashoffset: 0; stroke: #b0b0b0; stroke-opacity: 0.25; stroke-width: 0.8"/>
     </g>
     <g id="line2d_18">
      <g>
       <use xlink:href="#m8d5a6d3c64" x="447.805599" y="201.492969" style="stroke: #000000; stroke-width: 0.8"/>
      </g>
     </g>
     <g id="text_9">
      <!-- 72bar -->
      <g transform="translate(434.364662 215.331562) scale(0.09 -0.09)">
       <use xlink:href="#DejaVuSerif-37"/>
       <use xlink:href="#DejaVuSerif-32" transform="translate(63.623047 0)"/>
       <use xlink:href="#DejaVuSerif-62" transform="translate(127.246094 0)"/>
       <use xlink:href="#DejaVuSerif-61" transform="translate(191.259766 0)"/>
       <use xlink:href="#DejaVuSerif-72" transform="translate(250.878906 0)"/>
      </g>
      <!-- nsga2 -->
      <g transform="translate(434.171303 225.409594) scale(0.09 -0.09)">
       <use xlink:href="#DejaVuSerif-6e"/>
       <use xlink:href="#DejaVuSerif-73" transform="translate(64.404297 0)"/>
       <use xlink:href="#DejaVuSerif-67" transform="translate(115.722656 0)"/>
       <use xlink:href="#DejaVuSerif-61" transform="translate(179.736328 0)"/>
       <use xlink:href="#DejaVuSerif-32" transform="translate(239.355469 0)"/>
      </g>
     </g>
    </g>
   </g>
   <g id="matplotlib.axis_2">
    <g id="ytick_1">
     <g id="line2d_19">
      <path d="M 40.260313 147.91847 
L 471.778852 147.91847 
" clip-path="url(#p4e41f0af44)" style="fill: none; stroke-dasharray: 2.96,1.28; stroke-dashoffset: 0; stroke: #b0b0b0; stroke-opacity: 0.25; stroke-width: 0.8"/>
     </g>
     <g id="line2d_20">
      <defs>
       <path id="m5f41bf776e" d="M 0 0 
L -3.5 0 
" style="stroke: #000000; stroke-width: 0.8"/>
      </defs>
      <g>
       <use xlink:href="#m5f41bf776e" x="40.260313" y="147.91847" style="stroke: #000000; stroke-width: 0.8"/>
      </g>
     </g>
     <g id="text_10">
      <!-- $\mathdefault{10^{3}}$ -->
      <g transform="translate(17.420313 151.337767) scale(0.09 -0.09)">
       <defs>
        <path id="DejaVuSerif-33" d="M 622 4469 
Q 988 4606 1323 4678 
Q 1659 4750 1953 4750 
Q 2638 4750 3022 4454 
Q 3406 4159 3406 3634 
Q 3406 3213 3140 2930 
Q 2875 2647 2388 2547 
Q 2963 2466 3280 2130 
Q 3597 1794 3597 1259 
Q 3597 606 3158 257 
Q 2719 -91 1894 -91 
Q 1528 -91 1179 -12 
Q 831 66 488 225 
L 488 1131 
L 838 1131 
Q 869 681 1141 450 
Q 1413 219 1906 219 
Q 2384 219 2661 495 
Q 2938 772 2938 1253 
Q 2938 1803 2653 2086 
Q 2369 2369 1819 2369 
L 1522 2369 
L 1522 2688 
L 1678 2688 
Q 2225 2688 2498 2914 
Q 2772 3141 2772 3597 
Q 2772 4006 2547 4223 
Q 2322 4441 1900 4441 
Q 1478 4441 1245 4241 
Q 1013 4041 972 3647 
L 622 3647 
L 622 4469 
z
" transform="scale(0.015625)"/>
       </defs>
       <use xlink:href="#DejaVuSerif-31" transform="translate(0 0.7125)"/>
       <use xlink:href="#DejaVuSerif-30" transform="translate(63.623047 0.7125)"/>
       <use xlink:href="#DejaVuSerif-33" transform="translate(128.154453 37.046875) scale(0.7)"/>
      </g>
     </g>
    </g>
    <g id="ytick_2">
     <g id="line2d_21">
      <defs>
       <path id="mccf9290d92" d="M 0 0 
L -2 0 
" style="stroke: #000000; stroke-width: 0.6"/>
      </defs>
      <g>
       <use xlink:href="#mccf9290d92" x="40.260313" y="199.613559" style="stroke: #000000; stroke-width: 0.6"/>
      </g>
     </g>
    </g>
    <g id="ytick_3">
     <g id="line2d_22">
      <g>
       <use xlink:href="#mccf9290d92" x="40.260313" y="186.015972" style="stroke: #000000; stroke-width: 0.6"/>
      </g>
     </g>
    </g>
    <g id="ytick_4">
     <g id="line2d_23">
      <g>
       <use xlink:href="#mccf9290d92" x="40.260313" y="174.519376" style="stroke: #000000; stroke-width: 0.6"/>
      </g>
     </g>
    </g>
    <g id="ytick_5">
     <g id="line2d_24">
      <g>
       <use xlink:href="#mccf9290d92" x="40.260313" y="164.560572" style="stroke: #000000; stroke-width: 0.6"/>
      </g>
     </g>
    </g>
    <g id="ytick_6">
     <g id="line2d_25">
      <g>
       <use xlink:href="#mccf9290d92" x="40.260313" y="155.776283" style="stroke: #000000; stroke-width: 0.6"/>
      </g>
     </g>
    </g>
    <g id="ytick_7">
     <g id="line2d_26">
      <g>
       <use xlink:href="#mccf9290d92" x="40.260313" y="96.223381" style="stroke: #000000; stroke-width: 0.6"/>
      </g>
     </g>
    </g>
    <g id="ytick_8">
     <g id="line2d_27">
      <g>
       <use xlink:href="#mccf9290d92" x="40.260313" y="65.983692" style="stroke: #000000; stroke-width: 0.6"/>
      </g>
     </g>
    </g>
    <g id="ytick_9">
     <g id="line2d_28">
      <g>
       <use xlink:href="#mccf9290d92" x="40.260313" y="44.528292" style="stroke: #000000; stroke-width: 0.6"/>
      </g>
     </g>
    </g>
    <g id="ytick_10">
     <g id="line2d_29">
      <g>
       <use xlink:href="#mccf9290d92" x="40.260313" y="27.88619" style="stroke: #000000; stroke-width: 0.6"/>
      </g>
     </g>
    </g>
    <g id="text_11">
     <!-- best weight (lb) -->
     <g transform="translate(11.198438 149.609219) rotate(-90) scale(0.1 -0.1)">
      <defs>
       <path id="DejaVuSerif-65" d="M 3469 1600 
L 991 1600 
L 991 1575 
Q 991 903 1244 561 
Q 1497 219 1991 219 
Q 2369 219 2611 417 
Q 2853 616 2950 1006 
L 3413 1006 
Q 3275 459 2904 184 
Q 2534 -91 1931 -91 
Q 1203 -91 761 389 
Q 319 869 319 1663 
Q 319 2450 753 2931 
Q 1188 3413 1894 3413 
Q 2647 3413 3050 2948 
Q 3453 2484 3469 1600 
z
M 2791 1931 
Q 2772 2513 2545 2808 
Q 2319 3103 1894 3103 
Q 1497 3103 1269 2806 
Q 1041 2509 991 1931 
L 2791 1931 
z
" transform="scale(0.015625)"/>
       <path id="DejaVuSerif-74" d="M 691 2988 
L 184 2988 
L 184 3322 
L 691 3322 
L 691 4353 
L 1269 4353 
L 1269 3322 
L 2350 3322 
L 2350 2988 
L 1269 2988 
L 1269 878 
Q 1269 456 1350 337 
Q 1431 219 1650 219 
Q 1875 219 1978 351 
Q 2081 484 2088 781 
L 2522 781 
Q 2497 328 2275 118 
Q 2053 -91 1600 -91 
Q 1103 -91 897 129 
Q 691 350 691 878 
L 691 2988 
z
" transform="scale(0.015625)"/>
       <path id="DejaVuSerif-20" transform="scale(0.015625)"/>
       <path id="DejaVuSerif-77" d="M 3072 3322 
L 3922 728 
L 4672 2988 
L 4191 2988 
L 4191 3322 
L 5394 3322 
L 5394 2988 
L 5025 2988 
L 4038 0 
L 3559 0 
L 2741 2484 
L 1919 0 
L 1459 0 
L 475 2988 
L 103 2988 
L 103 3322 
L 1606 3322 
L 1606 2988 
L 1069 2988 
L 1813 728 
L 2669 3322 
L 3072 3322 
z
" transform="scale(0.015625)"/>
       <path id="DejaVuSerif-69" d="M 622 4353 
Q 622 4497 726 4603 
Q 831 4709 978 4709 
Q 1122 4709 1226 4603 
Q 1331 4497 1331 4353 
Q 1331 4206 1228 4103 
Q 1125 4000 978 4000 
Q 831 4000 726 4103 
Q 622 4206 622 4353 
z
M 1356 331 
L 1900 331 
L 1900 0 
L 231 0 
L 231 331 
L 781 331 
L 781 2988 
L 231 2988 
L 231 3322 
L 1356 3322 
L 1356 331 
z
" transform="scale(0.015625)"/>
       <path id="DejaVuSerif-68" d="M 263 0 
L 263 331 
L 781 331 
L 781 4531 
L 231 4531 
L 231 4863 
L 1356 4863 
L 1356 2731 
Q 1516 3069 1770 3241 
Q 2025 3413 2363 3413 
Q 2913 3413 3172 3097 
Q 3431 2781 3431 2113 
L 3431 331 
L 3944 331 
L 3944 0 
L 2356 0 
L 2356 331 
L 2853 331 
L 2853 1931 
Q 2853 2541 2704 2764 
Q 2556 2988 2175 2988 
Q 1775 2988 1565 2697 
Q 1356 2406 1356 1850 
L 1356 331 
L 1856 331 
L 1856 0 
L 263 0 
z
" transform="scale(0.015625)"/>
       <path id="DejaVuSerif-28" d="M 2041 -997 
Q 1281 -656 893 83 
Q 506 822 506 1931 
Q 506 3044 893 3783 
Q 1281 4522 2041 4863 
L 2041 4556 
Q 1559 4225 1350 3623 
Q 1141 3022 1141 1931 
Q 1141 844 1350 242 
Q 1559 -359 2041 -691 
L 2041 -997 
z
" transform="scale(0.015625)"/>
       <path id="DejaVuSerif-6c" d="M 1313 331 
L 1856 331 
L 1856 0 
L 184 0 
L 184 331 
L 738 331 
L 738 4531 
L 184 4531 
L 184 4863 
L 1313 4863 
L 1313 331 
z
" transform="scale(0.015625)"/>
       <path id="DejaVuSerif-29" d="M 453 -997 
L 453 -691 
Q 934 -359 1145 242 
Q 1356 844 1356 1931 
Q 1356 3022 1145 3623 
Q 934 4225 453 4556 
L 453 4863 
Q 1216 4522 1603 3783 
Q 1991 3044 1991 1931 
Q 1991 822 1603 83 
Q 1216 -656 453 -997 
z
" transform="scale(0.015625)"/>
      </defs>
      <use xlink:href="#DejaVuSerif-62"/>
      <use xlink:href="#DejaVuSerif-65" transform="translate(64.013672 0)"/>
      <use xlink:href="#DejaVuSerif-73" transform="translate(123.193359 0)"/>
      <use xlink:href="#DejaVuSerif-74" transform="translate(174.511719 0)"/>
      <use xlink:href="#DejaVuSerif-20" transform="translate(214.697266 0)"/>
      <use xlink:href="#DejaVuSerif-77" transform="translate(246.484375 0)"/>
      <use xlink:href="#DejaVuSerif-65" transform="translate(332.080078 0)"/>
      <use xlink:href="#DejaVuSerif-69" transform="translate(391.259766 0)"/>
      <use xlink:href="#DejaVuSerif-67" transform="translate(423.242188 0)"/>
      <use xlink:href="#DejaVuSerif-68" transform="translate(487.255859 0)"/>
      <use xlink:href="#DejaVuSerif-74" transform="translate(551.660156 0)"/>
      <use xlink:href="#DejaVuSerif-20" transform="translate(591.845703 0)"/>
      <use xlink:href="#DejaVuSerif-28" transform="translate(623.632812 0)"/>
      <use xlink:href="#DejaVuSerif-6c" transform="translate(662.646484 0)"/>
      <use xlink:href="#DejaVuSerif-62" transform="translate(694.628906 0)"/>
      <use xlink:href="#DejaVuSerif-29" transform="translate(758.642578 0)"/>
     </g>
    </g>
   </g>
   <g id="patch_3">
    <path d="M 49.849613 26.826744 
L 78.617516 26.826744 
L 78.617516 26.711236 
L 49.849613 26.711236 
L 49.849613 26.826744 
z
" clip-path="url(#p4e41f0af44)" style="fill: #1f77b4; opacity: 0.5; stroke: #000000; stroke-linejoin: miter"/>
   </g>
   <g id="line2d_30">
    <path d="M 64.233565 26.826744 
L 64.233565 26.955542 
" clip-path="url(#p4e41f0af44)" style="fill: none; stroke: #000000; stroke-linecap: square"/>
   </g>
   <g id="line2d_31">
    <path d="M 64.233565 26.711236 
L 64.233565 26.602293 
" clip-path="url(#p4e41f0af44)" style="fill: none; stroke: #000000; stroke-linecap: square"/>
   </g>
   <g id="line2d_32">
    <path d="M 57.041589 26.955542 
L 71.42554 26.955542 
" clip-path="url(#p4e41f0af44)" style="fill: none; stroke: #000000; stroke-linecap: square"/>
   </g>
   <g id="line2d_33">
    <path d="M 57.041589 26.602293 
L 71.42554 26.602293 
" clip-path="url(#p4e41f0af44)" style="fill: none; stroke: #000000; stroke-linecap: square"/>
   </g>
   <g id="line2d_34"/>
   <g id="patch_4">
    <path d="M 97.796118 26.978665 
L 126.56402 26.978665 
L 126.56402 26.964868 
L 97.796118 26.964868 
L 97.796118 26.978665 
z
" clip-path="url(#p4e41f0af44)" style="fill: #d62728; opacity: 0.5; stroke: #000000; stroke-linejoin: miter"/>
   </g>
   <g id="line2d_35">
    <path d="M 112.180069 26.978665 
L 112.180069 26.981094 
" clip-path="url(#p4e41f0af44)" style="fill: none; stroke: #000000; stroke-linecap: square"/>
   </g>
   <g id="line2d_36">
    <path d="M 112.180069 26.964868 
L 112.180069 26.964868 
" clip-path="url(#p4e41f0af44)" style="fill: none; stroke: #000000; stroke-linecap: square"/>
   </g>
   <g id="line2d_37">
    <path d="M 104.988093 26.981094 
L 119.372045 26.981094 
" clip-path="url(#p4e41f0af44)" style="fill: none; stroke: #000000; stroke-linecap: square"/>
   </g>
   <g id="line2d_38">
    <path d="M 104.988093 26.964868 
L 119.372045 26.964868 
" clip-path="url(#p4e41f0af44)" style="fill: none; stroke: #000000; stroke-linecap: square"/>
   </g>
   <g id="line2d_39">
    <defs>
     <path id="m3e1b9073cf" d="M 0 3 
C 0.795609 3 1.55874 2.683901 2.12132 2.12132 
C 2.683901 1.55874 3 0.795609 3 0 
C 3 -0.795609 2.683901 -1.55874 2.12132 -2.12132 
C 1.55874 -2.683901 0.795609 -3 0 -3 
C -0.795609 -3 -1.55874 -2.683901 -2.12132 -2.12132 
C -2.683901 -1.55874 -3 -0.795609 -3 0 
C -3 0.795609 -2.683901 1.55874 -2.12132 2.12132 
C -1.55874 2.683901 -0.795609 3 0 3 
z
" style="stroke: #000000"/>
    </defs>
    <g clip-path="url(#p4e41f0af44)">
     <use xlink:href="#m3e1b9073cf" x="112.180069" y="26.738024" style="fill-opacity: 0; stroke: #000000"/>
    </g>
   </g>
   <g id="patch_5">
    <path d="M 145.742622 26.499117 
L 174.510525 26.499117 
L 174.510525 26.309662 
L 145.742622 26.309662 
L 145.742622 26.499117 
z
" clip-path="url(#p4e41f0af44)" style="fill: #2ca02c; opacity: 0.5; stroke: #000000; stroke-linejoin: miter"/>
   </g>
   <g id="line2d_40">
    <path d="M 160.126573 26.499117 
L 160.126573 26.680114 
" clip-path="url(#p4e41f0af44)" style="fill: none; stroke: #000000; stroke-linecap: square"/>
   </g>
   <g id="line2d_41">
    <path d="M 160.126573 26.309662 
L 160.126573 26.300767 
" clip-path="url(#p4e41f0af44)" style="fill: none; stroke: #000000; stroke-linecap: square"/>
   </g>
   <g id="line2d_42">
    <path d="M 152.934598 26.680114 
L 167.318549 26.680114 
" clip-path="url(#p4e41f0af44)" style="fill: none; stroke: #000000; stroke-linecap: square"/>
   </g>
   <g id="line2d_43">
    <path d="M 152.934598 26.300767 
L 167.318549 26.300767 
" clip-path="url(#p4e41f0af44)" style="fill: none; stroke: #000000; stroke-linecap: square"/>
   </g>
   <g id="line2d_44"/>
   <g id="patch_6">
    <path d="M 193.689126 193.063719 
L 222.457029 193.063719 
L 222.457029 192.931949 
L 193.689126 192.931949 
L 193.689126 193.063719 
z
" clip-path="url(#p4e41f0af44)" style="fill: #1f77b4; opacity: 0.5; stroke: #000000; stroke-linejoin: miter"/>
   </g>
   <g id="line2d_45">
    <path d="M 208.073078 193.063719 
L 208.073078 193.145057 
" clip-path="url(#p4e41f0af44)" style="fill: none; stroke: #000000; stroke-linecap: square"/>
   </g>
   <g id="line2d_46">
    <path d="M 208.073078 192.931949 
L 208.073078 192.931949 
" clip-path="url(#p4e41f0af44)" style="fill: none; stroke: #000000; stroke-linecap: square"/>
   </g>
   <g id="line2d_47">
    <path d="M 200.881102 193.145057 
L 215.265053 193.145057 
" clip-path="url(#p4e41f0af44)" style="fill: none; stroke: #000000; stroke-linecap: square"/>
   </g>
   <g id="line2d_48">
    <path d="M 200.881102 192.931949 
L 215.265053 192.931949 
" clip-path="url(#p4e41f0af44)" style="fill: none; stroke: #000000; stroke-linecap: square"/>
   </g>
   <g id="line2d_49">
    <g clip-path="url(#p4e41f0af44)">
     <use xlink:href="#m3e1b9073cf" x="208.073078" y="192.697677" style="fill-opacity: 0; stroke: #000000"/>
    </g>
   </g>
   <g id="patch_7">
    <path d="M 241.635631 193.14295 
L 270.403533 193.14295 
L 270.403533 193.119749 
L 241.635631 193.119749 
L 241.635631 193.14295 
z
" clip-path="url(#p4e41f0af44)" style="fill: #d62728; opacity: 0.5; stroke: #000000; stroke-linejoin: miter"/>
   </g>
   <g id="line2d_50">
    <path d="M 256.019582 193.14295 
L 256.019582 193.150483 
" clip-path="url(#p4e41f0af44)" style="fill: none; stroke: #000000; stroke-linecap: square"/>
   </g>
   <g id="line2d_51">
    <path d="M 256.019582 193.119749 
L 256.019582 193.118231 
" clip-path="url(#p4e41f0af44)" style="fill: none; stroke: #000000; stroke-linecap: square"/>
   </g>
   <g id="line2d_52">
    <path d="M 248.827606 193.150483 
L 263.211558 193.150483 
" clip-path="url(#p4e41f0af44)" style="fill: none; stroke: #000000; stroke-linecap: square"/>
   </g>
   <g id="line2d_53">
    <path d="M 248.827606 193.118231 
L 263.211558 193.118231 
" clip-path="url(#p4e41f0af44)" style="fill: none; stroke: #000000; stroke-linecap: square"/>
   </g>
   <g id="line2d_54"/>
   <g id="patch_8">
    <path d="M 289.582135 193.046586 
L 318.350038 193.046586 
L 318.350038 192.96484 
L 289.582135 192.96484 
L 289.582135 193.046586 
z
" clip-path="url(#p4e41f0af44)" style="fill: #2ca02c; opacity: 0.5; stroke: #000000; stroke-linejoin: miter"/>
   </g>
   <g id="line2d_55">
    <path d="M 303.966086 193.046586 
L 303.966086 193.12151 
" clip-path="url(#p4e41f0af44)" style="fill: none; stroke: #000000; stroke-linecap: square"/>
   </g>
   <g id="line2d_56">
    <path d="M 303.966086 192.96484 
L 303.966086 192.957944 
" clip-path="url(#p4e41f0af44)" style="fill: none; stroke: #000000; stroke-linecap: square"/>
   </g>
   <g id="line2d_57">
    <path d="M 296.774111 193.12151 
L 311.158062 193.12151 
" clip-path="url(#p4e41f0af44)" style="fill: none; stroke: #000000; stroke-linecap: square"/>
   </g>
   <g id="line2d_58">
    <path d="M 296.774111 192.957944 
L 311.158062 192.957944 
" clip-path="url(#p4e41f0af44)" style="fill: none; stroke: #000000; stroke-linecap: square"/>
   </g>
   <g id="line2d_59"/>
   <g id="patch_9">
    <path d="M 337.528639 192.52723 
L 366.296542 192.52723 
L 366.296542 192.419377 
L 337.528639 192.419377 
L 337.528639 192.52723 
z
" clip-path="url(#p4e41f0af44)" style="fill: #1f77b4; opacity: 0.5; stroke: #000000; stroke-linejoin: miter"/>
   </g>
   <g id="line2d_60">
    <path d="M 351.912591 192.52723 
L 351.912591 192.535652 
" clip-path="url(#p4e41f0af44)" style="fill: none; stroke: #000000; stroke-linecap: square"/>
   </g>
   <g id="line2d_61">
    <path d="M 351.912591 192.419377 
L 351.912591 192.295709 
" clip-path="url(#p4e41f0af44)" style="fill: none; stroke: #000000; stroke-linecap: square"/>
   </g>
   <g id="line2d_62">
    <path d="M 344.720615 192.535652 
L 359.104566 192.535652 
" clip-path="url(#p4e41f0af44)" style="fill: none; stroke: #000000; stroke-linecap: square"/>
   </g>
   <g id="line2d_63">
    <path d="M 344.720615 192.295709 
L 359.104566 192.295709 
" clip-path="url(#p4e41f0af44)" style="fill: none; stroke: #000000; stroke-linecap: square"/>
   </g>
   <g id="line2d_64"/>
   <g id="patch_10">
    <path d="M 385.475144 192.658476 
L 414.243046 192.658476 
L 414.243046 192.657537 
L 385.475144 192.657537 
L 385.475144 192.658476 
z
" clip-path="url(#p4e41f0af44)" style="fill: #d62728; opacity: 0.5; stroke: #000000; stroke-linejoin: miter"/>
   </g>
   <g id="line2d_65">
    <path d="M 399.859095 192.658476 
L 399.859095 192.658476 
" clip-path="url(#p4e41f0af44)" style="fill: none; stroke: #000000; stroke-linecap: square"/>
   </g>
   <g id="line2d_66">
    <path d="M 399.859095 192.657537 
L 399.859095 192.657537 
" clip-path="url(#p4e41f0af44)" style="fill: none; stroke: #000000; stroke-linecap: square"/>
   </g>
   <g id="line2d_67">
    <path d="M 392.667119 192.658476 
L 407.051071 192.658476 
" clip-path="url(#p4e41f0af44)" style="fill: none; stroke: #000000; stroke-linecap: square"/>
   </g>
   <g id="line2d_68">
    <path d="M 392.667119 192.657537 
L 407.051071 192.657537 
" clip-path="url(#p4e41f0af44)" style="fill: none; stroke: #000000; stroke-linecap: square"/>
   </g>
   <g id="line2d_69">
    <g clip-path="url(#p4e41f0af44)">
     <use xlink:href="#m3e1b9073cf" x="399.859095" y="192.660801" style="fill-opacity: 0; stroke: #000000"/>
     <use xlink:href="#m3e1b9073cf" x="399.859095" y="192.652402" style="fill-opacity: 0; stroke: #000000"/>
    </g>
   </g>
   <g id="patch_11">
    <path d="M 433.421648 191.764082 
L 462.189551 191.764082 
L 462.189551 191.416209 
L 433.421648 191.416209 
L 433.421648 191.764082 
z
" clip-path="url(#p4e41f0af44)" style="fill: #2ca02c; opacity: 0.5; stroke: #000000; stroke-linejoin: miter"/>
   </g>
   <g id="line2d_70">
    <path d="M 447.805599 191.764082 
L 447.805599 192.036644 
" clip-path="url(#p4e41f0af44)" style="fill: none; stroke: #000000; stroke-linecap: square"/>
   </g>
   <g id="line2d_71">
    <path d="M 447.805599 191.416209 
L 447.805599 191.339984 
" clip-path="url(#p4e41f0af44)" style="fill: none; stroke: #000000; stroke-linecap: square"/>
   </g>
   <g id="line2d_72">
    <path d="M 440.613624 192.036644 
L 454.997575 192.036644 
" clip-path="url(#p4e41f0af44)" style="fill: none; stroke: #000000; stroke-linecap: square"/>
   </g>
   <g id="line2d_73">
    <path d="M 440.613624 191.339984 
L 454.997575 191.339984 
" clip-path="url(#p4e41f0af44)" style="fill: none; stroke: #000000; stroke-linecap: square"/>
   </g>
   <g id="line2d_74"/>
   <g id="line2d_75">
    <path d="M 49.849613 26.729172 
L 78.617516 26.729172 
" clip-path="url(#p4e41f0af44)" style="fill: none; stroke: #ff7f0e"/>
   </g>
   <g id="line2d_76">
    <path d="M 97.796118 26.974361 
L 126.56402 26.974361 
" clip-path="url(#p4e41f0af44)" style="fill: none; stroke: #ff7f0e"/>
   </g>
   <g id="line2d_77">
    <path d="M 145.742622 26.318557 
L 174.510525 26.318557 
" clip-path="url(#p4e41f0af44)" style="fill: none; stroke: #ff7f0e"/>
   </g>
   <g id="line2d_78">
    <path d="M 193.689126 192.972892 
L 222.457029 192.972892 
" clip-path="url(#p4e41f0af44)" style="fill: none; stroke: #ff7f0e"/>
   </g>
   <g id="line2d_79">
    <path d="M 241.635631 193.133576 
L 270.403533 193.133576 
" clip-path="url(#p4e41f0af44)" style="fill: none; stroke: #ff7f0e"/>
   </g>
   <g id="line2d_80">
    <path d="M 289.582135 192.971737 
L 318.350038 192.971737 
" clip-path="url(#p4e41f0af44)" style="fill: none; stroke: #ff7f0e"/>
   </g>
   <g id="line2d_81">
    <path d="M 337.528639 192.474955 
L 366.296542 192.474955 
" clip-path="url(#p4e41f0af44)" style="fill: none; stroke: #ff7f0e"/>
   </g>
   <g id="line2d_82">
    <path d="M 385.475144 192.658409 
L 414.243046 192.658409 
" clip-path="url(#p4e41f0af44)" style="fill: none; stroke: #ff7f0e"/>
   </g>
   <g id="line2d_83">
    <path d="M 433.421648 191.492512 
L 462.189551 191.492512 
" clip-path="url(#p4e41f0af44)" style="fill: none; stroke: #ff7f0e"/>
   </g>
   <g id="patch_12">
    <path d="M 40.260313 201.492969 
L 40.260313 17.958281 
" style="fill: none; stroke: #000000; stroke-width: 0.8; stroke-linejoin: miter; stroke-linecap: square"/>
   </g>
   <g id="patch_13">
    <path d="M 40.260313 201.492969 
L 471.778852 201.492969 
" style="fill: none; stroke: #000000; stroke-width: 0.8; stroke-linejoin: miter; stroke-linecap: square"/>
   </g>
   <g id="text_12">
    <!-- Seed variance of best weight per (benchmark, algorithm) -->
    <g transform="translate(95.832941 11.958281) scale(0.11 -0.11)">
     <defs>
      <path id="DejaVuSerif-53" d="M 594 225 
L 594 1288 
L 953 1284 
Q 969 753 1261 498 
Q 1553 244 2150 244 
Q 2706 244 2998 464 
Q 3291 684 3291 1106 
Q 3291 1444 3114 1625 
Q 2938 1806 2369 1978 
L 1753 2163 
Q 1084 2366 811 2669 
Q 538 2972 538 3500 
Q 538 4094 959 4422 
Q 1381 4750 2144 4750 
Q 2469 4750 2856 4679 
Q 3244 4609 3681 4475 
L 3681 3481 
L 3328 3481 
Q 3275 3975 2998 4195 
Q 2722 4416 2156 4416 
Q 1663 4416 1405 4214 
Q 1147 4013 1147 3628 
Q 1147 3294 1340 3103 
Q 1534 2913 2163 2725 
L 2741 2553 
Q 3375 2363 3645 2067 
Q 3916 1772 3916 1275 
Q 3916 597 3481 253 
Q 3047 -91 2188 -91 
Q 1803 -91 1404 -12 
Q 1006 66 594 225 
z
" transform="scale(0.015625)"/>
      <path id="DejaVuSerif-64" d="M 3359 331 
L 3909 331 
L 3909 0 
L 2784 0 
L 2784 519 
Q 2616 206 2355 57 
Q 2094 -91 1709 -91 
Q 1097 -91 708 395 
Q 319 881 319 1663 
Q 319 2444 706 2928 
Q 1094 3413 1709 3413 
Q 2094 3413 2355 3264 
Q 2616 3116 2784 2803 
L 2784 4531 
L 2241 4531 
L 2241 4863 
L 3359 4863 
L 3359 331 
z
M 2784 1497 
L 2784 1825 
Q 2784 2422 2554 2737 
Q 2325 3053 1888 3053 
Q 1444 3053 1217 2703 
Q 991 2353 991 1663 
Q 991 975 1217 622 
Q 1444 269 1888 269 
Q 2325 269 2554 583 
Q 2784 897 2784 1497 
z
" transform="scale(0.015625)"/>
      <path id="DejaVuSerif-76" d="M 1581 0 
L 359 2988 
L -19 2988 
L -19 3322 
L 1509 3322 
L 1509 2988 
L 978 2988 
L 1913 703 
L 2847 2988 
L 2350 2988 
L 2350 3322 
L 3597 3322 
L 3597 2988 
L 3225 2988 
L 2003 0 
L 1581 0 
z
" transform="scale(0.015625)"/>
      <path id="DejaVuSerif-63" d="M 3291 997 
Q 3169 466 2822 187 
Q 2475 -91 1925 -91 
Q 1200 -91 759 389 
Q 319 869 319 1663 
Q 319 2459 759 2936 
Q 1200 3413 1925 3413 
Q 2241 3413 2553 3339 
Q 2866 3266 3181 3116 
L 3181 2266 
L 2847 2266 
Q 2781 2703 2561 2903 
Q 2341 3103 1931 3103 
Q 1466 3103 1228 2742 
Q 991 2381 991 1663 
Q 991 944 1227 581 
Q 1463 219 1931 219 
Q 2303 219 2525 412 
Q 2747 606 2828 997 
L 3291 997 
z
" transform="scale(0.015625)"/>
      <path id="DejaVuSerif-66" d="M 2753 4078 
L 2450 4078 
Q 2447 4313 2317 4434 
Q 2188 4556 1941 4556 
Q 1619 4556 1487 4379 
Q 1356 4203 1356 3750 
L 1356 3322 
L 2284 3322 
L 2284 2988 
L 1356 2988 
L 1356 331 
L 2094 331 
L 2094 0 
L 231 0 
L 231 331 
L 781 331 
L 781 2988 
L 231 2988 
L 231 3322 
L 781 3322 
L 781 3738 
Q 781 4294 1070 4578 
Q 1359 4863 1919 4863 
Q 2128 4863 2337 4825 
Q 2547 4788 2753 4709 
L 2753 4078 
z
" transform="scale(0.015625)"/>
      <path id="DejaVuSerif-6d" d="M 3316 2675 
Q 3481 3041 3739 3227 
Q 3997 3413 4341 3413 
Q 4863 3413 5119 3089 
Q 5375 2766 5375 2113 
L 5375 331 
L 5894 331 
L 5894 0 
L 4300 0 
L 4300 331 
L 4800 331 
L 4800 2047 
Q 4800 2556 4650 2772 
Q 4500 2988 4153 2988 
Q 3769 2988 3567 2697 
Q 3366 2406 3366 1850 
L 3366 331 
L 3866 331 
L 3866 0 
L 2291 0 
L 2291 331 
L 2791 331 
L 2791 2069 
Q 2791 2566 2641 2777 
Q 2491 2988 2144 2988 
Q 1759 2988 1557 2697 
Q 1356 2406 1356 1850 
L 1356 331 
L 1856 331 
L 1856 0 
L 263 0 
L 263 331 
L 781 331 
L 781 2994 
L 231 2994 
L 231 3322 
L 1356 3322 
L 1356 2731 
Q 1516 3063 1762 3238 
Q 2009 3413 2322 3413 
Q 2709 3413 2968 3220 
Q 3228 3028 3316 2675 
z
" transform="scale(0.015625)"/>
      <path id="DejaVuSerif-6b" d="M 1831 0 
L 219 0 
L 219 331 
L 738 331 
L 738 4531 
L 184 4531 
L 184 4863 
L 1313 4863 
L 1313 1697 
L 2713 2988 
L 2234 2988 
L 2234 3322 
L 3738 3322 
L 3738 2988 
L 3169 2988 
L 2181 2075 
L 3444 331 
L 3922 331 
L 3922 0 
L 2284 0 
L 2284 331 
L 2759 331 
L 1766 1697 
L 1313 1275 
L 1313 331 
L 1831 331 
L 1831 0 
z
" transform="scale(0.015625)"/>
      <path id="DejaVuSerif-2c" d="M 231 -622 
Q 525 -406 662 -114 
Q 800 178 800 594 
L 800 709 
L 1416 709 
Q 1391 175 1164 -208 
Q 938 -591 481 -872 
L 231 -622 
z
" transform="scale(0.015625)"/>
     </defs>
     <use xlink:href="#DejaVuSerif-53"/>
     <use xlink:href="#DejaVuSerif-65" transform="translate(68.505859 0)"/>
     <use xlink:href="#DejaVuSerif-65" transform="translate(127.685547 0)"/>
     <use xlink:href="#DejaVuSerif-64" transform="translate(186.865234 0)"/>
     <use xlink:href="#DejaVuSerif-20" transform="translate(250.878906 0)"/>
     <use xlink:href="#DejaVuSerif-76" transform="translate(282.666016 0)"/>
     <use xlink:href="#DejaVuSerif-61" transform="translate(339.160156 0)"/>
     <use xlink:href="#DejaVuSerif-72" transform="translate(398.779297 0)"/>
     <use xlink:href="#DejaVuSerif-69" transform="translate(446.582031 0)"/>
     <use xlink:href="#DejaVuSerif-61" transform="translate(478.564453 0)"/>
     <use xlink:href="#DejaVuSerif-6e" transform="translate(538.183594 0)"/>
     <use xlink:href="#DejaVuSerif-63" transform="translate(602.587891 0)"/>
     <use xlink:href="#DejaVuSerif-65" transform="translate(658.59375 0)"/>
     <use xlink:href="#DejaVuSerif-20" transform="translate(717.773438 0)"/>
     <use xlink:href="#DejaVuSerif-6f" transform="translate(749.560547 0)"/>
     <use xlink:href="#DejaVuSerif-66" transform="translate(809.765625 0)"/>
     <use xlink:href="#DejaVuSerif-20" transform="translate(846.777344 0)"/>
     <use xlink:href="#DejaVuSerif-62" transform="translate(878.564453 0)"/>
     <use xlink:href="#DejaVuSerif-65" transform="translate(942.578125 0)"/>
     <use xlink:href="#DejaVuSerif-73" transform="translate(1001.757812 0)"/>
     <use xlink:href="#DejaVuSerif-74" transform="translate(1053.076172 0)"/>
     <use xlink:href="#DejaVuSerif-20" transform="translate(1093.261719 0)"/>
     <use xlink:href="#DejaVuSerif-77" transform="translate(1125.048828 0)"/>
     <use xlink:href="#DejaVuSerif-65" transform="translate(1210.644531 0)"/>
     <use xlink:href="#DejaVuSerif-69" transform="translate(1269.824219 0)"/>
     <use xlink:href="#DejaVuSerif-67" transform="translate(1301.806641 0)"/>
     <use xlink:href="#DejaVuSerif-68" transform="translate(1365.820312 0)"/>
     <use xlink:href="#DejaVuSerif-74" transform="translate(1430.224609 0)"/>
     <use xlink:href="#DejaVuSerif-20" transform="translate(1470.410156 0)"/>
     <use xlink:href="#DejaVuSerif-70" transform="translate(1502.197266 0)"/>
     <use xlink:href="#DejaVuSerif-65" transform="translate(1566.210938 0)"/>
     <use xlink:href="#DejaVuSerif-72" transform="translate(1625.390625 0)"/>
     <use xlink:href="#DejaVuSerif-20" transform="translate(1673.193359 0)"/>
     <use xlink:href="#DejaVuSerif-28" transform="translate(1704.980469 0)"/>
     <use xlink:href="#DejaVuSerif-62" transform="translate(1743.994141 0)"/>
     <use xlink:href="#DejaVuSerif-65" transform="translate(1808.007812 0)"/>
     <use xlink:href="#DejaVuSerif-6e" transform="translate(1867.1875 0)"/>
     <use xlink:href="#DejaVuSerif-63" transform="translate(1931.591797 0)"/>
     <use xlink:href="#DejaVuSerif-68" transform="translate(1987.597656 0)"/>
     <use xlink:href="#DejaVuSerif-6d" transform="translate(2052.001953 0)"/>
     <use xlink:href="#DejaVuSerif-61" transform="translate(2146.826172 0)"/>
     <use xlink:href="#DejaVuSerif-72" transform="translate(2206.445312 0)"/>
     <use xlink:href="#DejaVuSerif-6b" transform="translate(2254.248047 0)"/>
     <use xlink:href="#DejaVuSerif-2c" transform="translate(2314.84375 0)"/>
     <use xlink:href="#DejaVuSerif-20" transform="translate(2346.630859 0)"/>
     <use xlink:href="#DejaVuSerif-61" transform="translate(2378.417969 0)"/>
     <use xlink:href="#DejaVuSerif-6c" transform="translate(2438.037109 0)"/>
     <use xlink:href="#DejaVuSerif-67" transform="translate(2470.019531 0)"/>
     <use xlink:href="#DejaVuSerif-6f" transform="translate(2534.033203 0)"/>
     <use xlink:href="#DejaVuSerif-72" transform="translate(2594.238281 0)"/>
     <use xlink:href="#DejaVuSerif-69" transform="translate(2642.041016 0)"/>
     <use xlink:href="#DejaVuSerif-74" transform="translate(2674.023438 0)"/>
     <use xlink:href="#DejaVuSerif-68" transform="translate(2714.208984 0)"/>
     <use xlink:href="#DejaVuSerif-6d" transform="translate(2778.613281 0)"/>
     <use xlink:href="#DejaVuSerif-29" transform="translate(2873.4375 0)"/>
    </g>
   </g>
  </g>
 </g>
 <defs>
  <clipPath id="p4e41f0af44">
   <rect x="40.260313" y="17.958281" width="431.518539" height="183.534687"/>
  </clipPath>
 </defs>
</svg>
