<?xml version="1.0" encoding="utf-8" standalone="no"?>
<!DOCTYPE svg PUBLIC "-//W3C//DTD SVG 1.1//EN"
  "http://www.w3.org/Graphics/SVG/1.1/DTD/svg11.dtd">
<svg xmlns:xlink="http://www.w3.org/1999/xlink" width="472.03187pt" height="230.212969pt" viewBox="0 0 472.03187 230.212969" xmlns="http://www.w3.org/2000/svg" version="1.1">
 <metadata>
  <rdf:RDF xmlns:dc="http://purl.org/dc/elements/1.1/" xmlns:cc="http://creativecommons.org/ns#" xmlns:rdf="http://www.w3.org/1999/02/22-rdf-syntax-ns#">
   <cc:Work>
    <dc:type rdf:resource="http://purl.org/dc/dcmitype/StillImage"/>
    <dc:date>2026-04-24T15:22:19.326174</dc:date>
    <dc:format>image/svg+xml</dc:format>
    <dc:creator>
     <cc:Agent>
      <dc:title>Matplotlib v3.10.8, https://matplotlib.org/</dc:title>
     </cc:Agent>
    </dc:creator>
   </cc:Work>
  </rdf:RDF>
 </metadata>
 <defs>
  <style type="text/css">*{stroke-linejoin: round; stroke-linecap: butt}</style>
 </defs>
 <g id="figure_1">
  <g id="patch_1">
   <path d="M 0 230.212969 
L 472.03187 230.212969 
L 472.03187 0 
L 0 0 
z
" style="fill: #ffffff"/>
  </g>
  <g id="axes_1">
   <g id="patch_2">
    <path d="M 40.212656 184.882031 
C 41.42638 184.882031 42.590556 184.515612 43.448788 183.863472 
C 44.30702 183.211333 44.789238 182.326718 44.789238 181.404453 
C 44.789238 180.482189 44.30702 179.597574 43.448788 178.945434 
C 42.590556 178.293295 41.42638 177.926875 40.212656 177.926875 
C 38.998932 177.926875 37.834756 178.293295 36.976524 178.945434 
C 36.118291 179.597574 35.636074 180.482189 35.636074 181.404453 
C 35.636074 182.326718 36.118291 183.211333 36.976524 183.863472 
C 37.834756 184.515612 38.998932 184.882031 40.212656 184.882031 
z
" clip-path="url(#p3301efb664)" style="fill: #d7e8f7; stroke: #1f4b73; stroke-width: 0.8; stroke-linejoin: miter"/>
   </g>
   <g id="patch_3">
    <path d="M 40.212656 165.175755 
C 41.42638 165.175755 42.590556 164.809336 43.448788 164.157196 
C 44.30702 163.505057 44.789238 162.620442 44.789238 161.698177 
C 44.789238 160.775913 44.30702 159.891297 43.448788 159.239158 
C 42.590556 158.587019 41.42638 158.220599 40.212656 158.220599 
C 38.998932 158.220599 37.834756 158.587019 36.976524 159.239158 
C 36.118291 159.891297 35.636074 160.775913 35.636074 161.698177 
C 35.636074 162.620442 36.118291 163.505057 36.976524 164.157196 
C 37.834756 164.809336 38.998932 165.175755 40.212656 165.175755 
z
" clip-path="url(#p3301efb664)" style="fill: #d7e8f7; stroke: #1f4b73; stroke-width: 0.8; stroke-linejoin: miter"/>
   </g>
   <g id="patch_4">
    <path d="M 40.212656 145.469479 
C 41.42638 145.469479 42.590556 145.10306 43.448788 144.45092 
C 44.30702 143.798781 44.789238 142.914166 44.789238 141.991901 
C 44.789238 141.069637 44.30702 140.185021 43.448788 139.532882 
C 42.590556 138.880742 41.42638 138.514323 40.212656 138.514323 
C 38.998932 138.514323 37.834756 138.880742 36.976524 139.532882 
C 36.118291 140.185021 35.636074 141.069637 35.636074 141.991901 
C 35.636074 142.914166 36.118291 143.798781 36.976524 144.45092 
C 37.834756 145.10306 38.998932 145.469479 40.212656 145.469479 
z
" clip-path="url(#p3301efb664)" style="fill: #d7e8f7; stroke: #1f4b73; stroke-width: 0.8; stroke-linejoin: miter"/>
   </g>
   <g id="patch_5">
    <path d="M 40.212656 125.763203 
C 41.42638 125.763203 42.590556 125.396784 43.448788 124.744644 
C 44.30702 124.092505 44.789238 123.207889 44.789238 122.285625 
C 44.789238 121.363361 44.30702 120.478745 43.448788 119.826606 
C 42.590556 119.174466 41.42638 118.808047 40.212656 118.808047 
C 38.998932 118.808047 37.834756 119.174466 36.976524 119.826606 
C 36.118291 120.478745 35.636074 121.363361 35.636074 122.285625 
C 35.636074 123.207889 36.118291 124.092505 36.976524 124.744644 
C 37.834756 125.396784 38.998932 125.763203 40.212656 125.763203 
z
" clip-path="url(#p3301efb664)" style="fill: #d7e8f7; stroke: #1f4b73; stroke-width: 0.8; stroke-linejoin: miter"/>
   </g>
   <g id="patch_6">
    <path d="M 40.212656 106.056927 
C 41.42638 106.056927 42.590556 105.690508 43.448788 105.038368 
C 44.30702 104.386229 44.789238 103.501613 44.789238 102.579349 
C 44.789238 101.657084 44.30702 100.772469 43.448788 100.12033 
C 42.590556 99.46819 41.42638 99.101771 40.212656 99.101771 
C 38.998932 99.101771 37.834756 99.46819 36.976524 100.12033 
C 36.118291 100.772469 35.636074 101.657084 35.636074 102.579349 
C 35.636074 103.501613 36.118291 104.386229 36.976524 105.038368 
C 37.834756 105.690508 38.998932 106.056927 40.212656 106.056927 
z
" clip-path="url(#p3301efb664)" style="fill: #d7e8f7; stroke: #1f4b73; stroke-width: 0.8; stroke-linejoin: miter"/>
   </g>
   <g id="patch_7">
    <path d="M 40.212656 86.350651 
C 41.42638 86.350651 42.590556 85.984231 43.448788 85.332092 
C 44.30702 84.679953 44.789238 83.795337 44.789238 82.873073 
C 44.789238 81.950808 44.30702 81.066193 43.448788 80.414054 
C 42.590556 79.761914 41.42638 79.395495 40.212656 79.395495 
C 38.998932 79.395495 37.834756 79.761914 36.976524 80.414054 
C 36.118291 81.066193 35.636074 81.950808 35.636074 82.873073 
C 35.636074 83.795337 36.118291 84.679953 36.976524 85.332092 
C 37.834756 85.984231 38.998932 86.350651 40.212656 86.350651 
z
" clip-path="url(#p3301efb664)" style="fill: #d7e8f7; stroke: #1f4b73; stroke-width: 0.8; stroke-linejoin: miter"/>
   </g>
   <g id="patch_8">
    <path d="M 40.212656 66.644375 
C 41.42638 66.644375 42.590556 66.277955 43.448788 65.625816 
C 44.30702 64.973676 44.789238 64.089061 44.789238 63.166797 
C 44.789238 62.244532 44.30702 61.359917 43.448788 60.707778 
C 42.590556 60.055638 41.42638 59.689219 40.212656 59.689219 
C 38.998932 59.689219 37.834756 60.055638 36.976524 60.707778 
C 36.118291 61.359917 35.636074 62.244532 35.636074 63.166797 
C 35.636074 64.089061 36.118291 64.973676 36.976524 65.625816 
C 37.834756 66.277955 38.998932 66.644375 40.212656 66.644375 
z
" clip-path="url(#p3301efb664)" style="fill: #d7e8f7; stroke: #1f4b73; stroke-width: 0.8; stroke-linejoin: miter"/>
   </g>
   <g id="patch_9">
    <path d="M 140.897459 184.882031 
C 142.111183 184.882031 143.275359 184.515612 144.133592 183.863472 
C 144.991824 183.211333 145.474041 182.326718 145.474041 181.404453 
C 145.474041 180.482189 144.991824 179.597574 144.133592 178.945434 
C 143.275359 178.293295 142.111183 177.926875 140.897459 177.926875 
C 139.683736 177.926875 138.51956 178.293295 137.661327 178.945434 
C 136.803095 179.597574 136.320877 180.482189 136.320877 181.404453 
C 136.320877 182.326718 136.803095 183.211333 137.661327 183.863472 
C 138.51956 184.515612 139.683736 184.882031 140.897459 184.882031 
z
" clip-path="url(#p3301efb664)" style="fill: #d7e8f7; stroke: #1f4b73; stroke-width: 0.8; stroke-linejoin: miter"/>
   </g>
   <g id="patch_10">
    <path d="M 140.897459 165.175755 
C 142.111183 165.175755 143.275359 164.809336 144.133592 164.157196 
C 144.991824 163.505057 145.474041 162.620442 145.474041 161.698177 
C 145.474041 160.775913 144.991824 159.891297 144.133592 159.239158 
C 143.275359 158.587019 142.111183 158.220599 140.897459 158.220599 
C 139.683736 158.220599 138.51956 158.587019 137.661327 159.239158 
C 136.803095 159.891297 136.320877 160.775913 136.320877 161.698177 
C 136.320877 162.620442 136.803095 163.505057 137.661327 164.157196 
C 138.51956 164.809336 139.683736 165.175755 140.897459 165.175755 
z
" clip-path="url(#p3301efb664)" style="fill: #d7e8f7; stroke: #1f4b73; stroke-width: 0.8; stroke-linejoin: miter"/>
   </g>
   <g id="patch_11">
    <path d="M 140.897459 145.469479 
C 142.111183 145.469479 143.275359 145.10306 144.133592 144.45092 
C 144.991824 143.798781 145.474041 142.914166 145.474041 141.991901 
C 145.474041 141.069637 144.991824 140.185021 144.133592 139.532882 
C 143.275359 138.880742 142.111183 138.514323 140.897459 138.514323 
C 139.683736 138.514323 138.51956 138.880742 137.661327 139.532882 
C 136.803095 140.185021 136.320877 141.069637 136.320877 141.991901 
C 136.320877 142.914166 136.803095 143.798781 137.661327 144.45092 
C 138.51956 145.10306 139.683736 145.469479 140.897459 145.469479 
z
" clip-path="url(#p3301efb664)" style="fill: #d7e8f7; stroke: #1f4b73; stroke-width: 0.8; stroke-linejoin: miter"/>
   </g>
   <g id="patch_12">
    <path d="M 140.897459 125.763203 
C 142.111183 125.763203 143.275359 125.396784 144.133592 124.744644 
C 144.991824 124.092505 145.474041 123.207889 145.474041 122.285625 
C 145.474041 121.363361 144.991824 120.478745 144.133592 119.826606 
C 143.275359 119.174466 142.111183 118.808047 140.897459 118.808047 
C 139.683736 118.808047 138.51956 119.174466 137.661327 119.826606 
C 136.803095 120.478745 136.320877 121.363361 136.320877 122.285625 
C 136.320877 123.207889 136.803095 124.092505 137.661327 124.744644 
C 138.51956 125.396784 139.683736 125.763203 140.897459 125.763203 
z
" clip-path="url(#p3301efb664)" style="fill: #d7e8f7; stroke: #1f4b73; stroke-width: 0.8; stroke-linejoin: miter"/>
   </g>
   <g id="patch_13">
    <path d="M 140.897459 106.056927 
C 142.111183 106.056927 143.275359 105.690508 144.133592 105.038368 
C 144.991824 104.386229 145.474041 103.501613 145.474041 102.579349 
C 145.474041 101.657084 144.991824 100.772469 144.133592 100.12033 
C 143.275359 99.46819 142.111183 99.101771 140.897459 99.101771 
C 139.683736 99.101771 138.51956 99.46819 137.661327 100.12033 
C 136.803095 100.772469 136.320877 101.657084 136.320877 102.579349 
C 136.320877 103.501613 136.803095 104.386229 137.661327 105.038368 
C 138.51956 105.690508 139.683736 106.056927 140.897459 106.056927 
z
" clip-path="url(#p3301efb664)" style="fill: #d7e8f7; stroke: #1f4b73; stroke-width: 0.8; stroke-linejoin: miter"/>
   </g>
   <g id="patch_14">
    <path d="M 140.897459 86.350651 
C 142.111183 86.350651 143.275359 85.984231 144.133592 85.332092 
C 144.991824 84.679953 145.474041 83.795337 145.474041 82.873073 
C 145.474041 81.950808 144.991824 81.066193 144.133592 80.414054 
C 143.275359 79.761914 142.111183 79.395495 140.897459 79.395495 
C 139.683736 79.395495 138.51956 79.761914 137.661327 80.414054 
C 136.803095 81.066193 136.320877 81.950808 136.320877 82.873073 
C 136.320877 83.795337 136.803095 84.679953 137.661327 85.332092 
C 138.51956 85.984231 139.683736 86.350651 140.897459 86.350651 
z
" clip-path="url(#p3301efb664)" style="fill: #d7e8f7; stroke: #1f4b73; stroke-width: 0.8; stroke-linejoin: miter"/>
   </g>
   <g id="patch_15">
    <path d="M 140.897459 66.644375 
C 142.111183 66.644375 143.275359 66.277955 144.133592 65.625816 
C 144.991824 64.973676 145.474041 64.089061 145.474041 63.166797 
C 145.474041 62.244532 144.991824 61.359917 144.133592 60.707778 
C 143.275359 60.055638 142.111183 59.689219 140.897459 59.689219 
C 139.683736 59.689219 138.51956 60.055638 137.661327 60.707778 
C 136.803095 61.359917 136.320877 62.244532 136.320877 63.166797 
C 136.320877 64.089061 136.803095 64.973676 137.661327 65.625816 
C 138.51956 66.277955 139.683736 66.644375 140.897459 66.644375 
z
" clip-path="url(#p3301efb664)" style="fill: #d7e8f7; stroke: #1f4b73; stroke-width: 0.8; stroke-linejoin: miter"/>
   </g>
   <g id="patch_16">
    <path d="M 241.582263 184.882031 
C 242.795987 184.882031 243.960163 184.515612 244.818395 183.863472 
C 245.676627 183.211333 246.158845 182.326718 246.158845 181.404453 
C 246.158845 180.482189 245.676627 179.597574 244.818395 178.945434 
C 243.960163 178.293295 242.795987 177.926875 241.582263 177.926875 
C 240.368539 177.926875 239.204363 178.293295 238.346131 178.945434 
C 237.487899 179.597574 237.005681 180.482189 237.005681 181.404453 
C 237.005681 182.326718 237.487899 183.211333 238.346131 183.863472 
C 239.204363 184.515612 240.368539 184.882031 241.582263 184.882031 
z
" clip-path="url(#p3301efb664)" style="fill: #d7e8f7; stroke: #1f4b73; stroke-width: 0.8; stroke-linejoin: miter"/>
   </g>
   <g id="patch_17">
    <path d="M 241.582263 165.175755 
C 242.795987 165.175755 243.960163 164.809336 244.818395 164.157196 
C 245.676627 163.505057 246.158845 162.620442 246.158845 161.698177 
C 246.158845 160.775913 245.676627 159.891297 244.818395 159.239158 
C 243.960163 158.587019 242.795987 158.220599 241.582263 158.220599 
C 240.368539 158.220599 239.204363 158.587019 238.346131 159.239158 
C 237.487899 159.891297 237.005681 160.775913 237.005681 161.698177 
C 237.005681 162.620442 237.487899 163.505057 238.346131 164.157196 
C 239.204363 164.809336 240.368539 165.175755 241.582263 165.175755 
z
" clip-path="url(#p3301efb664)" style="fill: #d7e8f7; stroke: #1f4b73; stroke-width: 0.8; stroke-linejoin: miter"/>
   </g>
   <g id="patch_18">
    <path d="M 241.582263 145.469479 
C 242.795987 145.469479 243.960163 145.10306 244.818395 144.45092 
C 245.676627 143.798781 246.158845 142.914166 246.158845 141.991901 
C 246.158845 141.069637 245.676627 140.185021 244.818395 139.532882 
C 243.960163 138.880742 242.795987 138.514323 241.582263 138.514323 
C 240.368539 138.514323 239.204363 138.880742 238.346131 139.532882 
C 237.487899 140.185021 237.005681 141.069637 237.005681 141.991901 
C 237.005681 142.914166 237.487899 143.798781 238.346131 144.45092 
C 239.204363 145.10306 240.368539 145.469479 241.582263 145.469479 
z
" clip-path="url(#p3301efb664)" style="fill: #d7e8f7; stroke: #1f4b73; stroke-width: 0.8; stroke-linejoin: miter"/>
   </g>
   <g id="patch_19">
    <path d="M 241.582263 125.763203 
C 242.795987 125.763203 243.960163 125.396784 244.818395 124.744644 
C 245.676627 124.092505 246.158845 123.207889 246.158845 122.285625 
C 246.158845 121.363361 245.676627 120.478745 244.818395 119.826606 
C 243.960163 119.174466 242.795987 118.808047 241.582263 118.808047 
C 240.368539 118.808047 239.204363 119.174466 238.346131 119.826606 
C 237.487899 120.478745 237.005681 121.363361 237.005681 122.285625 
C 237.005681 123.207889 237.487899 124.092505 238.346131 124.744644 
C 239.204363 125.396784 240.368539 125.763203 241.582263 125.763203 
z
" clip-path="url(#p3301efb664)" style="fill: #d7e8f7; stroke: #1f4b73; stroke-width: 0.8; stroke-linejoin: miter"/>
   </g>
   <g id="patch_20">
    <path d="M 241.582263 106.056927 
C 242.795987 106.056927 243.960163 105.690508 244.818395 105.038368 
C 245.676627 104.386229 246.158845 103.501613 246.158845 102.579349 
C 246.158845 101.657084 245.676627 100.772469 244.818395 100.12033 
C 243.960163 99.46819 242.795987 99.101771 241.582263 99.101771 
C 240.368539 99.101771 239.204363 99.46819 238.346131 100.12033 
C 237.487899 100.772469 237.005681 101.657084 237.005681 102.579349 
C 237.005681 103.501613 237.487899 104.386229 238.346131 105.038368 
C 239.204363 105.690508 240.368539 106.056927 241.582263 106.056927 
z
" clip-path="url(#p3301efb664)" style="fill: #d7e8f7; stroke: #1f4b73; stroke-width: 0.8; stroke-linejoin: miter"/>
   </g>
   <g id="patch_21">
    <path d="M 241.582263 86.350651 
C 242.795987 86.350651 243.960163 85.984231 244.818395 85.332092 
C 245.676627 84.679953 246.158845 83.795337 246.158845 82.873073 
C 246.158845 81.950808 245.676627 81.066193 244.818395 80.414054 
C 243.960163 79.761914 242.795987 79.395495 241.582263 79.395495 
C 240.368539 79.395495 239.204363 79.761914 238.346131 80.414054 
C 237.487899 81.066193 237.005681 81.950808 237.005681 82.873073 
C 237.005681 83.795337 237.487899 84.679953 238.346131 85.332092 
C 239.204363 85.984231 240.368539 86.350651 241.582263 86.350651 
z
" clip-path="url(#p3301efb664)" style="fill: #d7e8f7; stroke: #1f4b73; stroke-width: 0.8; stroke-linejoin: miter"/>
   </g>
   <g id="patch_22">
    <path d="M 241.582263 66.644375 
C 242.795987 66.644375 243.960163 66.277955 244.818395 65.625816 
C 245.676627 64.973676 246.158845 64.089061 246.158845 63.166797 
C 246.158845 62.244532 245.676627 61.359917 244.818395 60.707778 
C 243.960163 60.055638 242.795987 59.689219 241.582263 59.689219 
C 240.368539 59.689219 239.204363 60.055638 238.346131 60.707778 
C 237.487899 61.359917 237.005681 62.244532 237.005681 63.166797 
C 237.005681 64.089061 237.487899 64.973676 238.346131 65.625816 
C 239.204363 66.277955 240.368539 66.644375 241.582263 66.644375 
z
" clip-path="url(#p3301efb664)" style="fill: #d7e8f7; stroke: #1f4b73; stroke-width: 0.8; stroke-linejoin: miter"/>
   </g>
   <g id="patch_23">
    <path d="M 342.267067 184.882031 
C 343.48079 184.882031 344.644967 184.515612 345.503199 183.863472 
C 346.361431 183.211333 346.843649 182.326718 346.843649 181.404453 
C 346.843649 180.482189 346.361431 179.597574 345.503199 178.945434 
C 344.644967 178.293295 343.48079 177.926875 342.267067 177.926875 
C 341.053343 177.926875 339.889167 178.293295 339.030934 178.945434 
C 338.172702 179.597574 337.690485 180.482189 337.690485 181.404453 
C 337.690485 182.326718 338.172702 183.211333 339.030934 183.863472 
C 339.889167 184.515612 341.053343 184.882031 342.267067 184.882031 
z
" clip-path="url(#p3301efb664)" style="fill: #d7e8f7; stroke: #1f4b73; stroke-width: 0.8; stroke-linejoin: miter"/>
   </g>
   <g id="patch_24">
    <path d="M 342.267067 165.175755 
C 343.48079 165.175755 344.644967 164.809336 345.503199 164.157196 
C 346.361431 163.505057 346.843649 162.620442 346.843649 161.698177 
C 346.843649 160.775913 346.361431 159.891297 345.503199 159.239158 
C 344.644967 158.587019 343.48079 158.220599 342.267067 158.220599 
C 341.053343 158.220599 339.889167 158.587019 339.030934 159.239158 
C 338.172702 159.891297 337.690485 160.775913 337.690485 161.698177 
C 337.690485 162.620442 338.172702 163.505057 339.030934 164.157196 
C 339.889167 164.809336 341.053343 165.175755 342.267067 165.175755 
z
" clip-path="url(#p3301efb664)" style="fill: #d7e8f7; stroke: #1f4b73; stroke-width: 0.8; stroke-linejoin: miter"/>
   </g>
   <g id="patch_25">
    <path d="M 342.267067 145.469479 
C 343.48079 145.469479 344.644967 145.10306 345.503199 144.45092 
C 346.361431 143.798781 346.843649 142.914166 346.843649 141.991901 
C 346.843649 141.069637 346.361431 140.185021 345.503199 139.532882 
C 344.644967 138.880742 343.48079 138.514323 342.267067 138.514323 
C 341.053343 138.514323 339.889167 138.880742 339.030934 139.532882 
C 338.172702 140.185021 337.690485 141.069637 337.690485 141.991901 
C 337.690485 142.914166 338.172702 143.798781 339.030934 144.45092 
C 339.889167 145.10306 341.053343 145.469479 342.267067 145.469479 
z
" clip-path="url(#p3301efb664)" style="fill: #d7e8f7; stroke: #1f4b73; stroke-width: 0.8; stroke-linejoin: miter"/>
   </g>
   <g id="patch_26">
    <path d="M 342.267067 125.763203 
C 343.48079 125.763203 344.644967 125.396784 345.503199 124.744644 
C 346.361431 124.092505 346.843649 123.207889 346.843649 122.285625 
C 346.843649 121.363361 346.361431 120.478745 345.503199 119.826606 
C 344.644967 119.174466 343.48079 118.808047 342.267067 118.808047 
C 341.053343 118.808047 339.889167 119.174466 339.030934 119.826606 
C 338.172702 120.478745 337.690485 121.363361 337.690485 122.285625 
C 337.690485 123.207889 338.172702 124.092505 339.030934 124.744644 
C 339.889167 125.396784 341.053343 125.763203 342.267067 125.763203 
z
" clip-path="url(#p3301efb664)" style="fill: #d7e8f7; stroke: #1f4b73; stroke-width: 0.8; stroke-linejoin: miter"/>
   </g>
   <g id="patch_27">
    <path d="M 342.267067 106.056927 
C 343.48079 106.056927 344.644967 105.690508 345.503199 105.038368 
C 346.361431 104.386229 346.843649 103.501613 346.843649 102.579349 
C 346.843649 101.657084 346.361431 100.772469 345.503199 100.12033 
C 344.644967 99.46819 343.48079 99.101771 342.267067 99.101771 
C 341.053343 99.101771 339.889167 99.46819 339.030934 100.12033 
C 338.172702 100.772469 337.690485 101.657084 337.690485 102.579349 
C 337.690485 103.501613 338.172702 104.386229 339.030934 105.038368 
C 339.889167 105.690508 341.053343 106.056927 342.267067 106.056927 
z
" clip-path="url(#p3301efb664)" style="fill: #d7e8f7; stroke: #1f4b73; stroke-width: 0.8; stroke-linejoin: miter"/>
   </g>
   <g id="patch_28">
    <path d="M 342.267067 86.350651 
C 343.48079 86.350651 344.644967 85.984231 345.503199 85.332092 
C 346.361431 84.679953 346.843649 83.795337 346.843649 82.873073 
C 346.843649 81.950808 346.361431 81.066193 345.503199 80.414054 
C 344.644967 79.761914 343.48079 79.395495 342.267067 79.395495 
C 341.053343 79.395495 339.889167 79.761914 339.030934 80.414054 
C 338.172702 81.066193 337.690485 81.950808 337.690485 82.873073 
C 337.690485 83.795337 338.172702 84.679953 339.030934 85.332092 
C 339.889167 85.984231 341.053343 86.350651 342.267067 86.350651 
z
" clip-path="url(#p3301efb664)" style="fill: #d7e8f7; stroke: #1f4b73; stroke-width: 0.8; stroke-linejoin: miter"/>
   </g>
   <g id="patch_29">
    <path d="M 342.267067 66.644375 
C 343.48079 66.644375 344.644967 66.277955 345.503199 65.625816 
C 346.361431 64.973676 346.843649 64.089061 346.843649 63.166797 
C 346.843649 62.244532 346.361431 61.359917 345.503199 60.707778 
C 344.644967 60.055638 343.48079 59.689219 342.267067 59.689219 
C 341.053343 59.689219 339.889167 60.055638 339.030934 60.707778 
C 338.172702 61.359917 337.690485 62.244532 337.690485 63.166797 
C 337.690485 64.089061 338.172702 64.973676 339.030934 65.625816 
C 339.889167 66.277955 341.053343 66.644375 342.267067 66.644375 
z
" clip-path="url(#p3301efb664)" style="fill: #d7e8f7; stroke: #1f4b73; stroke-width: 0.8; stroke-linejoin: miter"/>
   </g>
   <g id="patch_30">
    <path d="M 442.95187 184.882031 
C 444.165594 184.882031 445.32977 184.515612 446.188002 183.863472 
C 447.046235 183.211333 447.528452 182.326718 447.528452 181.404453 
C 447.528452 180.482189 447.046235 179.597574 446.188002 178.945434 
C 445.32977 178.293295 444.165594 177.926875 442.95187 177.926875 
C 441.738146 177.926875 440.57397 178.293295 439.715738 178.945434 
C 438.857506 179.597574 438.375288 180.482189 438.375288 181.404453 
C 438.375288 182.326718 438.857506 183.211333 439.715738 183.863472 
C 440.57397 184.515612 441.738146 184.882031 442.95187 184.882031 
z
" clip-path="url(#p3301efb664)" style="fill: #d7e8f7; stroke: #1f4b73; stroke-width: 0.8; stroke-linejoin: miter"/>
   </g>
   <g id="patch_31">
    <path d="M 442.95187 125.763203 
C 444.165594 125.763203 445.32977 125.396784 446.188002 124.744644 
C 447.046235 124.092505 447.528452 123.207889 447.528452 122.285625 
C 447.528452 121.363361 447.046235 120.478745 446.188002 119.826606 
C 445.32977 119.174466 444.165594 118.808047 442.95187 118.808047 
C 441.738146 118.808047 440.57397 119.174466 439.715738 119.826606 
C 438.857506 120.478745 438.375288 121.363361 438.375288 122.285625 
C 438.375288 123.207889 438.857506 124.092505 439.715738 124.744644 
C 440.57397 125.396784 441.738146 125.763203 442.95187 125.763203 
z
" clip-path="url(#p3301efb664)" style="fill: #d7e8f7; stroke: #1f4b73; stroke-width: 0.8; stroke-linejoin: miter"/>
   </g>
   <g id="patch_32">
    <path d="M 442.95187 66.644375 
C 444.165594 66.644375 445.32977 66.277955 446.188002 65.625816 
C 447.046235 64.973676 447.528452 64.089061 447.528452 63.166797 
C 447.528452 62.244532 447.046235 61.359917 446.188002 60.707778 
C 445.32977 60.055638 444.165594 59.689219 442.95187 59.689219 
C 441.738146 59.689219 440.57397 60.055638 439.715738 60.707778 
C 438.857506 61.359917 438.375288 62.244532 438.375288 63.166797 
C 438.375288 64.089061 438.857506 64.973676 439.715738 65.625816 
C 440.57397 66.277955 441.738146 66.644375 442.95187 66.644375 
z
" clip-path="url(#p3301efb664)" style="fill: #d7e8f7; stroke: #1f4b73; stroke-width: 0.8; stroke-linejoin: miter"/>
   </g>
   <g id="line2d_1">
    <path d="M 44.789238 181.404453 
L 136.320877 181.404453 
" clip-path="url(#p3301efb664)" style="fill: none; stroke: #bbbbbb; stroke-width: 0.3; stroke-linecap: square"/>
   </g>
   <g id="line2d_2">
    <path d="M 44.789238 181.404453 
L 136.320877 161.698177 
" clip-path="url(#p3301efb664)" style="fill: none; stroke: #bbbbbb; stroke-width: 0.3; stroke-linecap: square"/>
   </g>
   <g id="line2d_3">
    <path d="M 44.789238 181.404453 
L 136.320877 141.991901 
" clip-path="url(#p3301efb664)" style="fill: none; stroke: #bbbbbb; stroke-width: 0.3; stroke-linecap: square"/>
   </g>
   <g id="line2d_4">
    <path d="M 44.789238 181.404453 
L 136.320877 122.285625 
" clip-path="url(#p3301efb664)" style="fill: none; stroke: #bbbbbb; stroke-width: 0.3; stroke-linecap: square"/>
   </g>
   <g id="line2d_5">
    <path d="M 44.789238 181.404453 
L 136.320877 102.579349 
" clip-path="url(#p3301efb664)" style="fill: none; stroke: #bbbbbb; stroke-width: 0.3; stroke-linecap: square"/>
   </g>
   <g id="line2d_6">
    <path d="M 44.789238 181.404453 
L 136.320877 82.873073 
" clip-path="url(#p3301efb664)" style="fill: none; stroke: #bbbbbb; stroke-width: 0.3; stroke-linecap: square"/>
   </g>
   <g id="line2d_7">
    <path d="M 44.789238 181.404453 
L 136.320877 63.166797 
" clip-path="url(#p3301efb664)" style="fill: none; stroke: #bbbbbb; stroke-width: 0.3; stroke-linecap: square"/>
   </g>
   <g id="line2d_8">
    <path d="M 44.789238 161.698177 
L 136.320877 181.404453 
" clip-path="url(#p3301efb664)" style="fill: none; stroke: #bbbbbb; stroke-width: 0.3; stroke-linecap: square"/>
   </g>
   <g id="line2d_9">
    <path d="M 44.789238 161.698177 
L 136.320877 161.698177 
" clip-path="url(#p3301efb664)" style="fill: none; stroke: #bbbbbb; stroke-width: 0.3; stroke-linecap: square"/>
   </g>
   <g id="line2d_10">
    <path d="M 44.789238 161.698177 
L 136.320877 141.991901 
" clip-path="url(#p3301efb664)" style="fill: none; stroke: #bbbbbb; stroke-width: 0.3; stroke-linecap: square"/>
   </g>
   <g id="line2d_11">
    <path d="M 44.789238 161.698177 
L 136.320877 122.285625 
" clip-path="url(#p3301efb664)" style="fill: none; stroke: #bbbbbb; stroke-width: 0.3; stroke-linecap: square"/>
   </g>
   <g id="line2d_12">
    <path d="M 44.789238 161.698177 
L 136.320877 102.579349 
" clip-path="url(#p3301efb664)" style="fill: none; stroke: #bbbbbb; stroke-width: 0.3; stroke-linecap: square"/>
   </g>
   <g id="line2d_13">
    <path d="M 44.789238 161.698177 
L 136.320877 82.873073 
" clip-path="url(#p3301efb664)" style="fill: none; stroke: #bbbbbb; stroke-width: 0.3; stroke-linecap: square"/>
   </g>
   <g id="line2d_14">
    <path d="M 44.789238 161.698177 
L 136.320877 63.166797 
" clip-path="url(#p3301efb664)" style="fill: none; stroke: #bbbbbb; stroke-width: 0.3; stroke-linecap: square"/>
   </g>
   <g id="line2d_15">
    <path d="M 44.789238 141.991901 
L 136.320877 181.404453 
" clip-path="url(#p3301efb664)" style="fill: none; stroke: #bbbbbb; stroke-width: 0.3; stroke-linecap: square"/>
   </g>
   <g id="line2d_16">
    <path d="M 44.789238 141.991901 
L 136.320877 161.698177 
" clip-path="url(#p3301efb664)" style="fill: none; stroke: #bbbbbb; stroke-width: 0.3; stroke-linecap: square"/>
   </g>
   <g id="line2d_17">
    <path d="M 44.789238 141.991901 
L 136.320877 141.991901 
" clip-path="url(#p3301efb664)" style="fill: none; stroke: #bbbbbb; stroke-width: 0.3; stroke-linecap: square"/>
   </g>
   <g id="line2d_18">
    <path d="M 44.789238 141.991901 
L 136.320877 122.285625 
" clip-path="url(#p3301efb664)" style="fill: none; stroke: #bbbbbb; stroke-width: 0.3; stroke-linecap: square"/>
   </g>
   <g id="line2d_19">
    <path d="M 44.789238 141.991901 
L 136.320877 102.579349 
" clip-path="url(#p3301efb664)" style="fill: none; stroke: #bbbbbb; stroke-width: 0.3; stroke-linecap: square"/>
   </g>
   <g id="line2d_20">
    <path d="M 44.789238 141.991901 
L 136.320877 82.873073 
" clip-path="url(#p3301efb664)" style="fill: none; stroke: #bbbbbb; stroke-width: 0.3; stroke-linecap: square"/>
   </g>
   <g id="line2d_21">
    <path d="M 44.789238 141.991901 
L 136.320877 63.166797 
" clip-path="url(#p3301efb664)" style="fill: none; stroke: #bbbbbb; stroke-width: 0.3; stroke-linecap: square"/>
   </g>
   <g id="line2d_22">
    <path d="M 44.789238 122.285625 
L 136.320877 181.404453 
" clip-path="url(#p3301efb664)" style="fill: none; stroke: #bbbbbb; stroke-width: 0.3; stroke-linecap: square"/>
   </g>
   <g id="line2d_23">
    <path d="M 44.789238 122.285625 
L 136.320877 161.698177 
" clip-path="url(#p3301efb664)" style="fill: none; stroke: #bbbbbb; stroke-width: 0.3; stroke-linecap: square"/>
   </g>
   <g id="line2d_24">
    <path d="M 44.789238 122.285625 
L 136.320877 141.991901 
" clip-path="url(#p3301efb664)" style="fill: none; stroke: #bbbbbb; stroke-width: 0.3; stroke-linecap: square"/>
   </g>
   <g id="line2d_25">
    <path d="M 44.789238 122.285625 
L 136.320877 122.285625 
" clip-path="url(#p3301efb664)" style="fill: none; stroke: #bbbbbb; stroke-width: 0.3; stroke-linecap: square"/>
   </g>
   <g id="line2d_26">
    <path d="M 44.789238 122.285625 
L 136.320877 102.579349 
" clip-path="url(#p3301efb664)" style="fill: none; stroke: #bbbbbb; stroke-width: 0.3; stroke-linecap: square"/>
   </g>
   <g id="line2d_27">
    <path d="M 44.789238 122.285625 
L 136.320877 82.873073 
" clip-path="url(#p3301efb664)" style="fill: none; stroke: #bbbbbb; stroke-width: 0.3; stroke-linecap: square"/>
   </g>
   <g id="line2d_28">
    <path d="M 44.789238 122.285625 
L 136.320877 63.166797 
" clip-path="url(#p3301efb664)" style="fill: none; stroke: #bbbbbb; stroke-width: 0.3; stroke-linecap: square"/>
   </g>
   <g id="line2d_29">
    <path d="M 44.789238 102.579349 
L 136.320877 181.404453 
" clip-path="url(#p3301efb664)" style="fill: none; stroke: #bbbbbb; stroke-width: 0.3; stroke-linecap: square"/>
   </g>
   <g id="line2d_30">
    <path d="M 44.789238 102.579349 
L 136.320877 161.698177 
" clip-path="url(#p3301efb664)" style="fill: none; stroke: #bbbbbb; stroke-width: 0.3; stroke-linecap: square"/>
   </g>
   <g id="line2d_31">
    <path d="M 44.789238 102.579349 
L 136.320877 141.991901 
" clip-path="url(#p3301efb664)" style="fill: none; stroke: #bbbbbb; stroke-width: 0.3; stroke-linecap: square"/>
   </g>
   <g id="line2d_32">
    <path d="M 44.789238 102.579349 
L 136.320877 122.285625 
" clip-path="url(#p3301efb664)" style="fill: none; stroke: #bbbbbb; stroke-width: 0.3; stroke-linecap: square"/>
   </g>
   <g id="line2d_33">
    <path d="M 44.789238 102.579349 
L 136.320877 102.579349 
" clip-path="url(#p3301efb664)" style="fill: none; stroke: #bbbbbb; stroke-width: 0.3; stroke-linecap: square"/>
   </g>
   <g id="line2d_34">
    <path d="M 44.789238 102.579349 
L 136.320877 82.873073 
" clip-path="url(#p3301efb664)" style="fill: none; stroke: #bbbbbb; stroke-width: 0.3; stroke-linecap: square"/>
   </g>
   <g id="line2d_35">
    <path d="M 44.789238 102.579349 
L 136.320877 63.166797 
" clip-path="url(#p3301efb664)" style="fill: none; stroke: #bbbbbb; stroke-width: 0.3; stroke-linecap: square"/>
   </g>
   <g id="line2d_36">
    <path d="M 44.789238 82.873073 
L 136.320877 181.404453 
" clip-path="url(#p3301efb664)" style="fill: none; stroke: #bbbbbb; stroke-width: 0.3; stroke-linecap: square"/>
   </g>
   <g id="line2d_37">
    <path d="M 44.789238 82.873073 
L 136.320877 161.698177 
" clip-path="url(#p3301efb664)" style="fill: none; stroke: #bbbbbb; stroke-width: 0.3; stroke-linecap: square"/>
   </g>
   <g id="line2d_38">
    <path d="M 44.789238 82.873073 
L 136.320877 141.991901 
" clip-path="url(#p3301efb664)" style="fill: none; stroke: #bbbbbb; stroke-width: 0.3; stroke-linecap: square"/>
   </g>
   <g id="line2d_39">
    <path d="M 44.789238 82.873073 
L 136.320877 122.285625 
" clip-path="url(#p3301efb664)" style="fill: none; stroke: #bbbbbb; stroke-width: 0.3; stroke-linecap: square"/>
   </g>
   <g id="line2d_40">
    <path d="M 44.789238 82.873073 
L 136.320877 102.579349 
" clip-path="url(#p3301efb664)" style="fill: none; stroke: #bbbbbb; stroke-width: 0.3; stroke-linecap: square"/>
   </g>
   <g id="line2d_41">
    <path d="M 44.789238 82.873073 
L 136.320877 82.873073 
" clip-path="url(#p3301efb664)" style="fill: none; stroke: #bbbbbb; stroke-width: 0.3; stroke-linecap: square"/>
   </g>
   <g id="line2d_42">
    <path d="M 44.789238 82.873073 
L 136.320877 63.166797 
" clip-path="url(#p3301efb664)" style="fill: none; stroke: #bbbbbb; stroke-width: 0.3; stroke-linecap: square"/>
   </g>
   <g id="line2d_43">
    <path d="M 44.789238 63.166797 
L 136.320877 181.404453 
" clip-path="url(#p3301efb664)" style="fill: none; stroke: #bbbbbb; stroke-width: 0.3; stroke-linecap: square"/>
   </g>
   <g id="line2d_44">
    <path d="M 44.789238 63.166797 
L 136.320877 161.698177 
" clip-path="url(#p3301efb664)" style="fill: none; stroke: #bbbbbb; stroke-width: 0.3; stroke-linecap: square"/>
   </g>
   <g id="line2d_45">
    <path d="M 44.789238 63.166797 
L 136.320877 141.991901 
" clip-path="url(#p3301efb664)" style="fill: none; stroke: #bbbbbb; stroke-width: 0.3; stroke-linecap: square"/>
   </g>
   <g id="line2d_46">
    <path d="M 44.789238 63.166797 
L 136.320877 122.285625 
" clip-path="url(#p3301efb664)" style="fill: none; stroke: #bbbbbb; stroke-width: 0.3; stroke-linecap: square"/>
   </g>
   <g id="line2d_47">
    <path d="M 44.789238 63.166797 
L 136.320877 102.579349 
" clip-path="url(#p3301efb664)" style="fill: none; stroke: #bbbbbb; stroke-width: 0.3; stroke-linecap: square"/>
   </g>
   <g id="line2d_48">
    <path d="M 44.789238 63.166797 
L 136.320877 82.873073 
" clip-path="url(#p3301efb664)" style="fill: none; stroke: #bbbbbb; stroke-width: 0.3; stroke-linecap: square"/>
   </g>
   <g id="line2d_49">
    <path d="M 44.789238 63.166797 
L 136.320877 63.166797 
" clip-path="url(#p3301efb664)" style="fill: none; stroke: #bbbbbb; stroke-width: 0.3; stroke-linecap: square"/>
   </g>
   <g id="line2d_50">
    <path d="M 145.474041 181.404453 
L 237.005681 181.404453 
" clip-path="url(#p3301efb664)" style="fill: none; stroke: #bbbbbb; stroke-width: 0.3; stroke-linecap: square"/>
   </g>
   <g id="line2d_51">
    <path d="M 145.474041 181.404453 
L 237.005681 161.698177 
" clip-path="url(#p3301efb664)" style="fill: none; stroke: #bbbbbb; stroke-width: 0.3; stroke-linecap: square"/>
   </g>
   <g id="line2d_52">
    <path d="M 145.474041 181.404453 
L 237.005681 141.991901 
" clip-path="url(#p3301efb664)" style="fill: none; stroke: #bbbbbb; stroke-width: 0.3; stroke-linecap: square"/>
   </g>
   <g id="line2d_53">
    <path d="M 145.474041 181.404453 
L 237.005681 122.285625 
" clip-path="url(#p3301efb664)" style="fill: none; stroke: #bbbbbb; stroke-width: 0.3; stroke-linecap: square"/>
   </g>
   <g id="line2d_54">
    <path d="M 145.474041 181.404453 
L 237.005681 102.579349 
" clip-path="url(#p3301efb664)" style="fill: none; stroke: #bbbbbb; stroke-width: 0.3; stroke-linecap: square"/>
   </g>
   <g id="line2d_55">
    <path d="M 145.474041 181.404453 
L 237.005681 82.873073 
" clip-path="url(#p3301efb664)" style="fill: none; stroke: #bbbbbb; stroke-width: 0.3; stroke-linecap: square"/>
   </g>
   <g id="line2d_56">
    <path d="M 145.474041 181.404453 
L 237.005681 63.166797 
" clip-path="url(#p3301efb664)" style="fill: none; stroke: #bbbbbb; stroke-width: 0.3; stroke-linecap: square"/>
   </g>
   <g id="line2d_57">
    <path d="M 145.474041 161.698177 
L 237.005681 181.404453 
" clip-path="url(#p3301efb664)" style="fill: none; stroke: #bbbbbb; stroke-width: 0.3; stroke-linecap: square"/>
   </g>
   <g id="line2d_58">
    <path d="M 145.474041 161.698177 
L 237.005681 161.698177 
" clip-path="url(#p3301efb664)" style="fill: none; stroke: #bbbbbb; stroke-width: 0.3; stroke-linecap: square"/>
   </g>
   <g id="line2d_59">
    <path d="M 145.474041 161.698177 
L 237.005681 141.991901 
" clip-path="url(#p3301efb664)" style="fill: none; stroke: #bbbbbb; stroke-width: 0.3; stroke-linecap: square"/>
   </g>
   <g id="line2d_60">
    <path d="M 145.474041 161.698177 
L 237.005681 122.285625 
" clip-path="url(#p3301efb664)" style="fill: none; stroke: #bbbbbb; stroke-width: 0.3; stroke-linecap: square"/>
   </g>
   <g id="line2d_61">
    <path d="M 145.474041 161.698177 
L 237.005681 102.579349 
" clip-path="url(#p3301efb664)" style="fill: none; stroke: #bbbbbb; stroke-width: 0.3; stroke-linecap: square"/>
   </g>
   <g id="line2d_62">
    <path d="M 145.474041 161.698177 
L 237.005681 82.873073 
" clip-path="url(#p3301efb664)" style="fill: none; stroke: #bbbbbb; stroke-width: 0.3; stroke-linecap: square"/>
   </g>
   <g id="line2d_63">
    <path d="M 145.474041 161.698177 
L 237.005681 63.166797 
" clip-path="url(#p3301efb664)" style="fill: none; stroke: #bbbbbb; stroke-width: 0.3; stroke-linecap: square"/>
   </g>
   <g id="line2d_64">
    <path d="M 145.474041 141.991901 
L 237.005681 181.404453 
" clip-path="url(#p3301efb664)" style="fill: none; stroke: #bbbbbb; stroke-width: 0.3; stroke-linecap: square"/>
   </g>
   <g id="line2d_65">
    <path d="M 145.474041 141.991901 
L 237.005681 161.698177 
" clip-path="url(#p3301efb664)" style="fill: none; stroke: #bbbbbb; stroke-width: 0.3; stroke-linecap: square"/>
   </g>
   <g id="line2d_66">
    <path d="M 145.474041 141.991901 
L 237.005681 141.991901 
" clip-path="url(#p3301efb664)" style="fill: none; stroke: #bbbbbb; stroke-width: 0.3; stroke-linecap: square"/>
   </g>
   <g id="line2d_67">
    <path d="M 145.474041 141.991901 
L 237.005681 122.285625 
" clip-path="url(#p3301efb664)" style="fill: none; stroke: #bbbbbb; stroke-width: 0.3; stroke-linecap: square"/>
   </g>
   <g id="line2d_68">
    <path d="M 145.474041 141.991901 
L 237.005681 102.579349 
" clip-path="url(#p3301efb664)" style="fill: none; stroke: #bbbbbb; stroke-width: 0.3; stroke-linecap: square"/>
   </g>
   <g id="line2d_69">
    <path d="M 145.474041 141.991901 
L 237.005681 82.873073 
" clip-path="url(#p3301efb664)" style="fill: none; stroke: #bbbbbb; stroke-width: 0.3; stroke-linecap: square"/>
   </g>
   <g id="line2d_70">
    <path d="M 145.474041 141.991901 
L 237.005681 63.166797 
" clip-path="url(#p3301efb664)" style="fill: none; stroke: #bbbbbb; stroke-width: 0.3; stroke-linecap: square"/>
   </g>
   <g id="line2d_71">
    <path d="M 145.474041 122.285625 
L 237.005681 181.404453 
" clip-path="url(#p3301efb664)" style="fill: none; stroke: #bbbbbb; stroke-width: 0.3; stroke-linecap: square"/>
   </g>
   <g id="line2d_72">
    <path d="M 145.474041 122.285625 
L 237.005681 161.698177 
" clip-path="url(#p3301efb664)" style="fill: none; stroke: #bbbbbb; stroke-width: 0.3; stroke-linecap: square"/>
   </g>
   <g id="line2d_73">
    <path d="M 145.474041 122.285625 
L 237.005681 141.991901 
" clip-path="url(#p3301efb664)" style="fill: none; stroke: #bbbbbb; stroke-width: 0.3; stroke-linecap: square"/>
   </g>
   <g id="line2d_74">
    <path d="M 145.474041 122.285625 
L 237.005681 122.285625 
" clip-path="url(#p3301efb664)" style="fill: none; stroke: #bbbbbb; stroke-width: 0.3; stroke-linecap: square"/>
   </g>
   <g id="line2d_75">
    <path d="M 145.474041 122.285625 
L 237.005681 102.579349 
" clip-path="url(#p3301efb664)" style="fill: none; stroke: #bbbbbb; stroke-width: 0.3; stroke-linecap: square"/>
   </g>
   <g id="line2d_76">
    <path d="M 145.474041 122.285625 
L 237.005681 82.873073 
" clip-path="url(#p3301efb664)" style="fill: none; stroke: #bbbbbb; stroke-width: 0.3; stroke-linecap: square"/>
   </g>
   <g id="line2d_77">
    <path d="M 145.474041 122.285625 
L 237.005681 63.166797 
" clip-path="url(#p3301efb664)" style="fill: none; stroke: #bbbbbb; stroke-width: 0.3; stroke-linecap: square"/>
   </g>
   <g id="line2d_78">
    <path d="M 145.474041 102.579349 
L 237.005681 181.404453 
" clip-path="url(#p3301efb664)" style="fill: none; stroke: #bbbbbb; stroke-width: 0.3; stroke-linecap: square"/>
   </g>
   <g id="line2d_79">
    <path d="M 145.474041 102.579349 
L 237.005681 161.698177 
" clip-path="url(#p3301efb664)" style="fill: none; stroke: #bbbbbb; stroke-width: 0.3; stroke-linecap: square"/>
   </g>
   <g id="line2d_80">
    <path d="M 145.474041 102.579349 
L 237.005681 141.991901 
" clip-path="url(#p3301efb664)" style="fill: none; stroke: #bbbbbb; stroke-width: 0.3; stroke-linecap: square"/>
   </g>
   <g id="line2d_81">
    <path d="M 145.474041 102.579349 
L 237.005681 122.285625 
" clip-path="url(#p3301efb664)" style="fill: none; stroke: #bbbbbb; stroke-width: 0.3; stroke-linecap: square"/>
   </g>
   <g id="line2d_82">
    <path d="M 145.474041 102.579349 
L 237.005681 102.579349 
" clip-path="url(#p3301efb664)" style="fill: none; stroke: #bbbbbb; stroke-width: 0.3; stroke-linecap: square"/>
   </g>
   <g id="line2d_83">
    <path d="M 145.474041 102.579349 
L 237.005681 82.873073 
" clip-path="url(#p3301efb664)" style="fill: none; stroke: #bbbbbb; stroke-width: 0.3; stroke-linecap: square"/>
   </g>
   <g id="line2d_84">
    <path d="M 145.474041 102.579349 
L 237.005681 63.166797 
" clip-path="url(#p3301efb664)" style="fill: none; stroke: #bbbbbb; stroke-width: 0.3; stroke-linecap: square"/>
   </g>
   <g id="line2d_85">
    <path d="M 145.474041 82.873073 
L 237.005681 181.404453 
" clip-path="url(#p3301efb664)" style="fill: none; stroke: #bbbbbb; stroke-width: 0.3; stroke-linecap: square"/>
   </g>
   <g id="line2d_86">
    <path d="M 145.474041 82.873073 
L 237.005681 161.698177 
" clip-path="url(#p3301efb664)" style="fill: none; stroke: #bbbbbb; stroke-width: 0.3; stroke-linecap: square"/>
   </g>
   <g id="line2d_87">
    <path d="M 145.474041 82.873073 
L 237.005681 141.991901 
" clip-path="url(#p3301efb664)" style="fill: none; stroke: #bbbbbb; stroke-width: 0.3; stroke-linecap: square"/>
   </g>
   <g id="line2d_88">
    <path d="M 145.474041 82.873073 
L 237.005681 122.285625 
" clip-path="url(#p3301efb664)" style="fill: none; stroke: #bbbbbb; stroke-width: 0.3; stroke-linecap: square"/>
   </g>
   <g id="line2d_89">
    <path d="M 145.474041 82.873073 
L 237.005681 102.579349 
" clip-path="url(#p3301efb664)" style="fill: none; stroke: #bbbbbb; stroke-width: 0.3; stroke-linecap: square"/>
   </g>
   <g id="line2d_90">
    <path d="M 145.474041 82.873073 
L 237.005681 82.873073 
" clip-path="url(#p3301efb664)" style="fill: none; stroke: #bbbbbb; stroke-width: 0.3; stroke-linecap: square"/>
   </g>
   <g id="line2d_91">
    <path d="M 145.474041 82.873073 
L 237.005681 63.166797 
" clip-path="url(#p3301efb664)" style="fill: none; stroke: #bbbbbb; stroke-width: 0.3; stroke-linecap: square"/>
   </g>
   <g id="line2d_92">
    <path d="M 145.474041 63.166797 
L 237.005681 181.404453 
" clip-path="url(#p3301efb664)" style="fill: none; stroke: #bbbbbb; stroke-width: 0.3; stroke-linecap: square"/>
   </g>
   <g id="line2d_93">
    <path d="M 145.474041 63.166797 
L 237.005681 161.698177 
" clip-path="url(#p3301efb664)" style="fill: none; stroke: #bbbbbb; stroke-width: 0.3; stroke-linecap: square"/>
   </g>
   <g id="line2d_94">
    <path d="M 145.474041 63.166797 
L 237.005681 141.991901 
" clip-path="url(#p3301efb664)" style="fill: none; stroke: #bbbbbb; stroke-width: 0.3; stroke-linecap: square"/>
   </g>
   <g id="line2d_95">
    <path d="M 145.474041 63.166797 
L 237.005681 122.285625 
" clip-path="url(#p3301efb664)" style="fill: none; stroke: #bbbbbb; stroke-width: 0.3; stroke-linecap: square"/>
   </g>
   <g id="line2d_96">
    <path d="M 145.474041 63.166797 
L 237.005681 102.579349 
" clip-path="url(#p3301efb664)" style="fill: none; stroke: #bbbbbb; stroke-width: 0.3; stroke-linecap: square"/>
   </g>
   <g id="line2d_97">
    <path d="M 145.474041 63.166797 
L 237.005681 82.873073 
" clip-path="url(#p3301efb664)" style="fill: none; stroke: #bbbbbb; stroke-width: 0.3; stroke-linecap: square"/>
   </g>
   <g id="line2d_98">
    <path d="M 145.474041 63.166797 
L 237.005681 63.166797 
" clip-path="url(#p3301efb664)" style="fill: none; stroke: #bbbbbb; stroke-width: 0.3; stroke-linecap: square"/>
   </g>
   <g id="line2d_99">
    <path d="M 246.158845 181.404453 
L 337.690485 181.404453 
" clip-path="url(#p3301efb664)" style="fill: none; stroke: #bbbbbb; stroke-width: 0.3; stroke-linecap: square"/>
   </g>
   <g id="line2d_100">
    <path d="M 246.158845 181.404453 
L 337.690485 161.698177 
" clip-path="url(#p3301efb664)" style="fill: none; stroke: #bbbbbb; stroke-width: 0.3; stroke-linecap: square"/>
   </g>
   <g id="line2d_101">
    <path d="M 246.158845 181.404453 
L 337.690485 141.991901 
" clip-path="url(#p3301efb664)" style="fill: none; stroke: #bbbbbb; stroke-width: 0.3; stroke-linecap: square"/>
   </g>
   <g id="line2d_102">
    <path d="M 246.158845 181.404453 
L 337.690485 122.285625 
" clip-path="url(#p3301efb664)" style="fill: none; stroke: #bbbbbb; stroke-width: 0.3; stroke-linecap: square"/>
   </g>
   <g id="line2d_103">
    <path d="M 246.158845 181.404453 
L 337.690485 102.579349 
" clip-path="url(#p3301efb664)" style="fill: none; stroke: #bbbbbb; stroke-width: 0.3; stroke-linecap: square"/>
   </g>
   <g id="line2d_104">
    <path d="M 246.158845 181.404453 
L 337.690485 82.873073 
" clip-path="url(#p3301efb664)" style="fill: none; stroke: #bbbbbb; stroke-width: 0.3; stroke-linecap: square"/>
   </g>
   <g id="line2d_105">
    <path d="M 246.158845 181.404453 
L 337.690485 63.166797 
" clip-path="url(#p3301efb664)" style="fill: none; stroke: #bbbbbb; stroke-width: 0.3; stroke-linecap: square"/>
   </g>
   <g id="line2d_106">
    <path d="M 246.158845 161.698177 
L 337.690485 181.404453 
" clip-path="url(#p3301efb664)" style="fill: none; stroke: #bbbbbb; stroke-width: 0.3; stroke-linecap: square"/>
   </g>
   <g id="line2d_107">
    <path d="M 246.158845 161.698177 
L 337.690485 161.698177 
" clip-path="url(#p3301efb664)" style="fill: none; stroke: #bbbbbb; stroke-width: 0.3; stroke-linecap: square"/>
   </g>
   <g id="line2d_108">
    <path d="M 246.158845 161.698177 
L 337.690485 141.991901 
" clip-path="url(#p3301efb664)" style="fill: none; stroke: #bbbbbb; stroke-width: 0.3; stroke-linecap: square"/>
   </g>
   <g id="line2d_109">
    <path d="M 246.158845 161.698177 
L 337.690485 122.285625 
" clip-path="url(#p3301efb664)" style="fill: none; stroke: #bbbbbb; stroke-width: 0.3; stroke-linecap: square"/>
   </g>
   <g id="line2d_110">
    <path d="M 246.158845 161.698177 
L 337.690485 102.579349 
" clip-path="url(#p3301efb664)" style="fill: none; stroke: #bbbbbb; stroke-width: 0.3; stroke-linecap: square"/>
   </g>
   <g id="line2d_111">
    <path d="M 246.158845 161.698177 
L 337.690485 82.873073 
" clip-path="url(#p3301efb664)" style="fill: none; stroke: #bbbbbb; stroke-width: 0.3; stroke-linecap: square"/>
   </g>
   <g id="line2d_112">
    <path d="M 246.158845 161.698177 
L 337.690485 63.166797 
" clip-path="url(#p3301efb664)" style="fill: none; stroke: #bbbbbb; stroke-width: 0.3; stroke-linecap: square"/>
   </g>
   <g id="line2d_113">
    <path d="M 246.158845 141.991901 
L 337.690485 181.404453 
" clip-path="url(#p3301efb664)" style="fill: none; stroke: #bbbbbb; stroke-width: 0.3; stroke-linecap: square"/>
   </g>
   <g id="line2d_114">
    <path d="M 246.158845 141.991901 
L 337.690485 161.698177 
" clip-path="url(#p3301efb664)" style="fill: none; stroke: #bbbbbb; stroke-width: 0.3; stroke-linecap: square"/>
   </g>
   <g id="line2d_115">
    <path d="M 246.158845 141.991901 
L 337.690485 141.991901 
" clip-path="url(#p3301efb664)" style="fill: none; stroke: #bbbbbb; stroke-width: 0.3; stroke-linecap: square"/>
   </g>
   <g id="line2d_116">
    <path d="M 246.158845 141.991901 
L 337.690485 122.285625 
" clip-path="url(#p3301efb664)" style="fill: none; stroke: #bbbbbb; stroke-width: 0.3; stroke-linecap: square"/>
   </g>
   <g id="line2d_117">
    <path d="M 246.158845 141.991901 
L 337.690485 102.579349 
" clip-path="url(#p3301efb664)" style="fill: none; stroke: #bbbbbb; stroke-width: 0.3; stroke-linecap: square"/>
   </g>
   <g id="line2d_118">
    <path d="M 246.158845 141.991901 
L 337.690485 82.873073 
" clip-path="url(#p3301efb664)" style="fill: none; stroke: #bbbbbb; stroke-width: 0.3; stroke-linecap: square"/>
   </g>
   <g id="line2d_119">
    <path d="M 246.158845 141.991901 
L 337.690485 63.166797 
" clip-path="url(#p3301efb664)" style="fill: none; stroke: #bbbbbb; stroke-width: 0.3; stroke-linecap: square"/>
   </g>
   <g id="line2d_120">
    <path d="M 246.158845 122.285625 
L 337.690485 181.404453 
" clip-path="url(#p3301efb664)" style="fill: none; stroke: #bbbbbb; stroke-width: 0.3; stroke-linecap: square"/>
   </g>
   <g id="line2d_121">
    <path d="M 246.158845 122.285625 
L 337.690485 161.698177 
" clip-path="url(#p3301efb664)" style="fill: none; stroke: #bbbbbb; stroke-width: 0.3; stroke-linecap: square"/>
   </g>
   <g id="line2d_122">
    <path d="M 246.158845 122.285625 
L 337.690485 141.991901 
" clip-path="url(#p3301efb664)" style="fill: none; stroke: #bbbbbb; stroke-width: 0.3; stroke-linecap: square"/>
   </g>
   <g id="line2d_123">
    <path d="M 246.158845 122.285625 
L 337.690485 122.285625 
" clip-path="url(#p3301efb664)" style="fill: none; stroke: #bbbbbb; stroke-width: 0.3; stroke-linecap: square"/>
   </g>
   <g id="line2d_124">
    <path d="M 246.158845 122.285625 
L 337.690485 102.579349 
" clip-path="url(#p3301efb664)" style="fill: none; stroke: #bbbbbb; stroke-width: 0.3; stroke-linecap: square"/>
   </g>
   <g id="line2d_125">
    <path d="M 246.158845 122.285625 
L 337.690485 82.873073 
" clip-path="url(#p3301efb664)" style="fill: none; stroke: #bbbbbb; stroke-width: 0.3; stroke-linecap: square"/>
   </g>
   <g id="line2d_126">
    <path d="M 246.158845 122.285625 
L 337.690485 63.166797 
" clip-path="url(#p3301efb664)" style="fill: none; stroke: #bbbbbb; stroke-width: 0.3; stroke-linecap: square"/>
   </g>
   <g id="line2d_127">
    <path d="M 246.158845 102.579349 
L 337.690485 181.404453 
" clip-path="url(#p3301efb664)" style="fill: none; stroke: #bbbbbb; stroke-width: 0.3; stroke-linecap: square"/>
   </g>
   <g id="line2d_128">
    <path d="M 246.158845 102.579349 
L 337.690485 161.698177 
" clip-path="url(#p3301efb664)" style="fill: none; stroke: #bbbbbb; stroke-width: 0.3; stroke-linecap: square"/>
   </g>
   <g id="line2d_129">
    <path d="M 246.158845 102.579349 
L 337.690485 141.991901 
" clip-path="url(#p3301efb664)" style="fill: none; stroke: #bbbbbb; stroke-width: 0.3; stroke-linecap: square"/>
   </g>
   <g id="line2d_130">
    <path d="M 246.158845 102.579349 
L 337.690485 122.285625 
" clip-path="url(#p3301efb664)" style="fill: none; stroke: #bbbbbb; stroke-width: 0.3; stroke-linecap: square"/>
   </g>
   <g id="line2d_131">
    <path d="M 246.158845 102.579349 
L 337.690485 102.579349 
" clip-path="url(#p3301efb664)" style="fill: none; stroke: #bbbbbb; stroke-width: 0.3; stroke-linecap: square"/>
   </g>
   <g id="line2d_132">
    <path d="M 246.158845 102.579349 
L 337.690485 82.873073 
" clip-path="url(#p3301efb664)" style="fill: none; stroke: #bbbbbb; stroke-width: 0.3; stroke-linecap: square"/>
   </g>
   <g id="line2d_133">
    <path d="M 246.158845 102.579349 
L 337.690485 63.166797 
" clip-path="url(#p3301efb664)" style="fill: none; stroke: #bbbbbb; stroke-width: 0.3; stroke-linecap: square"/>
   </g>
   <g id="line2d_134">
    <path d="M 246.158845 82.873073 
L 337.690485 181.404453 
" clip-path="url(#p3301efb664)" style="fill: none; stroke: #bbbbbb; stroke-width: 0.3; stroke-linecap: square"/>
   </g>
   <g id="line2d_135">
    <path d="M 246.158845 82.873073 
L 337.690485 161.698177 
" clip-path="url(#p3301efb664)" style="fill: none; stroke: #bbbbbb; stroke-width: 0.3; stroke-linecap: square"/>
   </g>
   <g id="line2d_136">
    <path d="M 246.158845 82.873073 
L 337.690485 141.991901 
" clip-path="url(#p3301efb664)" style="fill: none; stroke: #bbbbbb; stroke-width: 0.3; stroke-linecap: square"/>
   </g>
   <g id="line2d_137">
    <path d="M 246.158845 82.873073 
L 337.690485 122.285625 
" clip-path="url(#p3301efb664)" style="fill: none; stroke: #bbbbbb; stroke-width: 0.3; stroke-linecap: square"/>
   </g>
   <g id="line2d_138">
    <path d="M 246.158845 82.873073 
L 337.690485 102.579349 
" clip-path="url(#p3301efb664)" style="fill: none; stroke: #bbbbbb; stroke-width: 0.3; stroke-linecap: square"/>
   </g>
   <g id="line2d_139">
    <path d="M 246.158845 82.873073 
L 337.690485 82.873073 
" clip-path="url(#p3301efb664)" style="fill: none; stroke: #bbbbbb; stroke-width: 0.3; stroke-linecap: square"/>
   </g>
   <g id="line2d_140">
    <path d="M 246.158845 82.873073 
L 337.690485 63.166797 
" clip-path="url(#p3301efb664)" style="fill: none; stroke: #bbbbbb; stroke-width: 0.3; stroke-linecap: square"/>
   </g>
   <g id="line2d_141">
    <path d="M 246.158845 63.166797 
L 337.690485 181.404453 
" clip-path="url(#p3301efb664)" style="fill: none; stroke: #bbbbbb; stroke-width: 0.3; stroke-linecap: square"/>
   </g>
   <g id="line2d_142">
    <path d="M 246.158845 63.166797 
L 337.690485 161.698177 
" clip-path="url(#p3301efb664)" style="fill: none; stroke: #bbbbbb; stroke-width: 0.3; stroke-linecap: square"/>
   </g>
   <g id="line2d_143">
    <path d="M 246.158845 63.166797 
L 337.690485 141.991901 
" clip-path="url(#p3301efb664)" style="fill: none; stroke: #bbbbbb; stroke-width: 0.3; stroke-linecap: square"/>
   </g>
   <g id="line2d_144">
    <path d="M 246.158845 63.166797 
L 337.690485 122.285625 
" clip-path="url(#p3301efb664)" style="fill: none; stroke: #bbbbbb; stroke-width: 0.3; stroke-linecap: square"/>
   </g>
   <g id="line2d_145">
    <path d="M 246.158845 63.166797 
L 337.690485 102.579349 
" clip-path="url(#p3301efb664)" style="fill: none; stroke: #bbbbbb; stroke-width: 0.3; stroke-linecap: square"/>
   </g>
   <g id="line2d_146">
    <path d="M 246.158845 63.166797 
L 337.690485 82.873073 
" clip-path="url(#p3301efb664)" style="fill: none; stroke: #bbbbbb; stroke-width: 0.3; stroke-linecap: square"/>
   </g>
   <g id="line2d_147">
    <path d="M 246.158845 63.166797 
L 337.690485 63.166797 
" clip-path="url(#p3301efb664)" style="fill: none; stroke: #bbbbbb; stroke-width: 0.3; stroke-linecap: square"/>
   </g>
   <g id="line2d_148">
    <path d="M 346.843649 181.404453 
L 438.375288 181.404453 
" clip-path="url(#p3301efb664)" style="fill: none; stroke: #bbbbbb; stroke-width: 0.3; stroke-linecap: square"/>
   </g>
   <g id="line2d_149">
    <path d="M 346.843649 181.404453 
L 438.375288 122.285625 
" clip-path="url(#p3301efb664)" style="fill: none; stroke: #bbbbbb; stroke-width: 0.3; stroke-linecap: square"/>
   </g>
   <g id="line2d_150">
    <path d="M 346.843649 181.404453 
L 438.375288 63.166797 
" clip-path="url(#p3301efb664)" style="fill: none; stroke: #bbbbbb; stroke-width: 0.3; stroke-linecap: square"/>
   </g>
   <g id="line2d_151">
    <path d="M 346.843649 161.698177 
L 438.375288 181.404453 
" clip-path="url(#p3301efb664)" style="fill: none; stroke: #bbbbbb; stroke-width: 0.3; stroke-linecap: square"/>
   </g>
   <g id="line2d_152">
    <path d="M 346.843649 161.698177 
L 438.375288 122.285625 
" clip-path="url(#p3301efb664)" style="fill: none; stroke: #bbbbbb; stroke-width: 0.3; stroke-linecap: square"/>
   </g>
   <g id="line2d_153">
    <path d="M 346.843649 161.698177 
L 438.375288 63.166797 
" clip-path="url(#p3301efb664)" style="fill: none; stroke: #bbbbbb; stroke-width: 0.3; stroke-linecap: square"/>
   </g>
   <g id="line2d_154">
    <path d="M 346.843649 141.991901 
L 438.375288 181.404453 
" clip-path="url(#p3301efb664)" style="fill: none; stroke: #bbbbbb; stroke-width: 0.3; stroke-linecap: square"/>
   </g>
   <g id="line2d_155">
    <path d="M 346.843649 141.991901 
L 438.375288 122.285625 
" clip-path="url(#p3301efb664)" style="fill: none; stroke: #bbbbbb; stroke-width: 0.3; stroke-linecap: square"/>
   </g>
   <g id="line2d_156">
    <path d="M 346.843649 141.991901 
L 438.375288 63.166797 
" clip-path="url(#p3301efb664)" style="fill: none; stroke: #bbbbbb; stroke-width: 0.3; stroke-linecap: square"/>
   </g>
   <g id="line2d_157">
    <path d="M 346.843649 122.285625 
L 438.375288 181.404453 
" clip-path="url(#p3301efb664)" style="fill: none; stroke: #bbbbbb; stroke-width: 0.3; stroke-linecap: square"/>
   </g>
   <g id="line2d_158">
    <path d="M 346.843649 122.285625 
L 438.375288 122.285625 
" clip-path="url(#p3301efb664)" style="fill: none; stroke: #bbbbbb; stroke-width: 0.3; stroke-linecap: square"/>
   </g>
   <g id="line2d_159">
    <path d="M 346.843649 122.285625 
L 438.375288 63.166797 
" clip-path="url(#p3301efb664)" style="fill: none; stroke: #bbbbbb; stroke-width: 0.3; stroke-linecap: square"/>
   </g>
   <g id="line2d_160">
    <path d="M 346.843649 102.579349 
L 438.375288 181.404453 
" clip-path="url(#p3301efb664)" style="fill: none; stroke: #bbbbbb; stroke-width: 0.3; stroke-linecap: square"/>
   </g>
   <g id="line2d_161">
    <path d="M 346.843649 102.579349 
L 438.375288 122.285625 
" clip-path="url(#p3301efb664)" style="fill: none; stroke: #bbbbbb; stroke-width: 0.3; stroke-linecap: square"/>
   </g>
   <g id="line2d_162">
    <path d="M 346.843649 102.579349 
L 438.375288 63.166797 
" clip-path="url(#p3301efb664)" style="fill: none; stroke: #bbbbbb; stroke-width: 0.3; stroke-linecap: square"/>
   </g>
   <g id="line2d_163">
    <path d="M 346.843649 82.873073 
L 438.375288 181.404453 
" clip-path="url(#p3301efb664)" style="fill: none; stroke: #bbbbbb; stroke-width: 0.3; stroke-linecap: square"/>
   </g>
   <g id="line2d_164">
    <path d="M 346.843649 82.873073 
L 438.375288 122.285625 
" clip-path="url(#p3301efb664)" style="fill: none; stroke: #bbbbbb; stroke-width: 0.3; stroke-linecap: square"/>
   </g>
   <g id="line2d_165">
    <path d="M 346.843649 82.873073 
L 438.375288 63.166797 
" clip-path="url(#p3301efb664)" style="fill: none; stroke: #bbbbbb; stroke-width: 0.3; stroke-linecap: square"/>
   </g>
   <g id="line2d_166">
    <path d="M 346.843649 63.166797 
L 438.375288 181.404453 
" clip-path="url(#p3301efb664)" style="fill: none; stroke: #bbbbbb; stroke-width: 0.3; stroke-linecap: square"/>
   </g>
   <g id="line2d_167">
    <path d="M 346.843649 63.166797 
L 438.375288 122.285625 
" clip-path="url(#p3301efb664)" style="fill: none; stroke: #bbbbbb; stroke-width: 0.3; stroke-linecap: square"/>
   </g>
   <g id="line2d_168">
    <path d="M 346.843649 63.166797 
L 438.375288 63.166797 
" clip-path="url(#p3301efb664)" style="fill: none; stroke: #bbbbbb; stroke-width: 0.3; stroke-linecap: square"/>
   </g>
   <g id="text_1">
    <!-- ... 10 ... -->
    <g transform="translate(26.860156 195.314766) scale(0.07 -0.07)">
     <defs>
      <path id="DejaVuSerif-2e" d="M 603 325 
Q 603 500 722 622 
Q 841 744 1019 744 
Q 1191 744 1312 622 
Q 1434 500 1434 325 
Q 1434 153 1312 31 
Q 1191 -91 1019 -91 
Q 841 -91 722 29 
Q 603 150 603 325 
z
" transform="scale(0.015625)"/>
      <path id="DejaVuSerif-20" transform="scale(0.015625)"/>
      <path id="DejaVuSerif-31" d="M 909 0 
L 909 331 
L 1722 331 
L 1722 4213 
L 781 3603 
L 781 4013 
L 1919 4750 
L 2350 4750 
L 2350 331 
L 3163 331 
L 3163 0 
L 909 0 
z
" transform="scale(0.015625)"/>
      <path id="DejaVuSerif-30" d="M 2034 219 
Q 2513 219 2750 744 
Q 2988 1269 2988 2328 
Q 2988 3391 2750 3916 
Q 2513 4441 2034 4441 
Q 1556 4441 1318 3916 
Q 1081 3391 1081 2328 
Q 1081 1269 1318 744 
Q 1556 219 2034 219 
z
M 2034 -91 
Q 1275 -91 848 546 
Q 422 1184 422 2328 
Q 422 3475 848 4112 
Q 1275 4750 2034 4750 
Q 2797 4750 3222 4112 
Q 3647 3475 3647 2328 
Q 3647 1184 3222 546 
Q 2797 -91 2034 -91 
z
" transform="scale(0.015625)"/>
     </defs>
     <use xlink:href="#DejaVuSerif-2e"/>
     <use xlink:href="#DejaVuSerif-2e" transform="translate(31.787109 0)"/>
     <use xlink:href="#DejaVuSerif-2e" transform="translate(63.574219 0)"/>
     <use xlink:href="#DejaVuSerif-20" transform="translate(95.361328 0)"/>
     <use xlink:href="#DejaVuSerif-31" transform="translate(127.148438 0)"/>
     <use xlink:href="#DejaVuSerif-30" transform="translate(190.771484 0)"/>
     <use xlink:href="#DejaVuSerif-20" transform="translate(254.394531 0)"/>
     <use xlink:href="#DejaVuSerif-2e" transform="translate(286.181641 0)"/>
     <use xlink:href="#DejaVuSerif-2e" transform="translate(317.96875 0)"/>
     <use xlink:href="#DejaVuSerif-2e" transform="translate(349.755859 0)"/>
    </g>
   </g>
   <g id="text_2">
    <!-- ... 256 ... -->
    <g transform="translate(125.318084 195.314766) scale(0.07 -0.07)">
     <defs>
      <path id="DejaVuSerif-32" d="M 819 3553 
L 469 3553 
L 469 4384 
Q 803 4563 1142 4656 
Q 1481 4750 1806 4750 
Q 2534 4750 2956 4397 
Q 3378 4044 3378 3438 
Q 3378 2753 2422 1800 
Q 2347 1728 2309 1691 
L 1131 513 
L 3078 513 
L 3078 1088 
L 3444 1088 
L 3444 0 
L 434 0 
L 434 341 
L 1850 1753 
Q 2319 2222 2519 2614 
Q 2719 3006 2719 3438 
Q 2719 3909 2473 4175 
Q 2228 4441 1797 4441 
Q 1350 4441 1106 4219 
Q 863 3997 819 3553 
z
" transform="scale(0.015625)"/>
      <path id="DejaVuSerif-35" d="M 3219 4666 
L 3219 4153 
L 1081 4153 
L 1081 2816 
Q 1244 2928 1461 2984 
Q 1678 3041 1947 3041 
Q 2703 3041 3140 2622 
Q 3578 2203 3578 1478 
Q 3578 738 3136 323 
Q 2694 -91 1894 -91 
Q 1572 -91 1234 -12 
Q 897 66 544 225 
L 544 1131 
L 897 1131 
Q 925 688 1179 453 
Q 1434 219 1894 219 
Q 2388 219 2653 544 
Q 2919 869 2919 1478 
Q 2919 2084 2655 2407 
Q 2391 2731 1894 2731 
Q 1613 2731 1398 2631 
Q 1184 2531 1019 2322 
L 750 2322 
L 750 4666 
L 3219 4666 
z
" transform="scale(0.015625)"/>
      <path id="DejaVuSerif-36" d="M 2094 219 
Q 2534 219 2771 542 
Q 3009 866 3009 1472 
Q 3009 2078 2771 2401 
Q 2534 2725 2094 2725 
Q 1647 2725 1412 2412 
Q 1178 2100 1178 1509 
Q 1178 888 1415 553 
Q 1653 219 2094 219 
z
M 1075 2569 
Q 1288 2803 1556 2918 
Q 1825 3034 2163 3034 
Q 2859 3034 3264 2615 
Q 3669 2197 3669 1472 
Q 3669 763 3233 336 
Q 2797 -91 2069 -91 
Q 1278 -91 853 498 
Q 428 1088 428 2181 
Q 428 3406 931 4078 
Q 1434 4750 2350 4750 
Q 2597 4750 2869 4703 
Q 3141 4656 3425 4563 
L 3425 3794 
L 3072 3794 
Q 3034 4109 2831 4275 
Q 2628 4441 2284 4441 
Q 1678 4441 1381 3981 
Q 1084 3522 1075 2569 
z
" transform="scale(0.015625)"/>
     </defs>
     <use xlink:href="#DejaVuSerif-2e"/>
     <use xlink:href="#DejaVuSerif-2e" transform="translate(31.787109 0)"/>
     <use xlink:href="#DejaVuSerif-2e" transform="translate(63.574219 0)"/>
     <use xlink:href="#DejaVuSerif-20" transform="translate(95.361328 0)"/>
     <use xlink:href="#DejaVuSerif-32" transform="translate(127.148438 0)"/>
     <use xlink:href="#DejaVuSerif-35" transform="translate(190.771484 0)"/>
     <use xlink:href="#DejaVuSerif-36" transform="translate(254.394531 0)"/>
     <use xlink:href="#DejaVuSerif-20" transform="translate(318.017578 0)"/>
     <use xlink:href="#DejaVuSerif-2e" transform="translate(349.804688 0)"/>
     <use xlink:href="#DejaVuSerif-2e" transform="translate(381.591797 0)"/>
     <use xlink:href="#DejaVuSerif-2e" transform="translate(413.378906 0)"/>
    </g>
   </g>
   <g id="text_3">
    <!-- ... 128 ... -->
    <g transform="translate(226.002888 195.314766) scale(0.07 -0.07)">
     <defs>
      <path id="DejaVuSerif-38" d="M 2981 1275 
Q 2981 1775 2732 2051 
Q 2484 2328 2034 2328 
Q 1584 2328 1336 2051 
Q 1088 1775 1088 1275 
Q 1088 772 1336 495 
Q 1584 219 2034 219 
Q 2484 219 2732 495 
Q 2981 772 2981 1275 
z
M 2853 3541 
Q 2853 3966 2637 4203 
Q 2422 4441 2034 4441 
Q 1650 4441 1433 4203 
Q 1216 3966 1216 3541 
Q 1216 3113 1433 2875 
Q 1650 2638 2034 2638 
Q 2422 2638 2637 2875 
Q 2853 3113 2853 3541 
z
M 2516 2484 
Q 3047 2413 3344 2092 
Q 3641 1772 3641 1275 
Q 3641 619 3225 264 
Q 2809 -91 2034 -91 
Q 1263 -91 845 264 
Q 428 619 428 1275 
Q 428 1772 725 2092 
Q 1022 2413 1556 2484 
Q 1084 2569 832 2842 
Q 581 3116 581 3541 
Q 581 4103 968 4426 
Q 1356 4750 2034 4750 
Q 2713 4750 3100 4426 
Q 3488 4103 3488 3541 
Q 3488 3116 3236 2842 
Q 2984 2569 2516 2484 
z
" transform="scale(0.015625)"/>
     </defs>
     <use xlink:href="#DejaVuSerif-2e"/>
     <use xlink:href="#DejaVuSerif-2e" transform="translate(31.787109 0)"/>
     <use xlink:href="#DejaVuSerif-2e" transform="translate(63.574219 0)"/>
     <use xlink:href="#DejaVuSerif-20" transform="translate(95.361328 0)"/>
     <use xlink:href="#DejaVuSerif-31" transform="translate(127.148438 0)"/>
     <use xlink:href="#DejaVuSerif-32" transform="translate(190.771484 0)"/>
     <use xlink:href="#DejaVuSerif-38" transform="translate(254.394531 0)"/>
     <use xlink:href="#DejaVuSerif-20" transform="translate(318.017578 0)"/>
     <use xlink:href="#DejaVuSerif-2e" transform="translate(349.804688 0)"/>
     <use xlink:href="#DejaVuSerif-2e" transform="translate(381.591797 0)"/>
     <use xlink:href="#DejaVuSerif-2e" transform="translate(413.378906 0)"/>
    </g>
   </g>
   <g id="text_4">
    <!-- ... 64 ... -->
    <g transform="translate(328.914567 195.314766) scale(0.07 -0.07)">
     <defs>
      <path id="DejaVuSerif-34" d="M 2234 1581 
L 2234 4063 
L 641 1581 
L 2234 1581 
z
M 3609 0 
L 1484 0 
L 1484 331 
L 2234 331 
L 2234 1247 
L 197 1247 
L 197 1588 
L 2241 4750 
L 2859 4750 
L 2859 1581 
L 3750 1581 
L 3750 1247 
L 2859 1247 
L 2859 331 
L 3609 331 
L 3609 0 
z
" transform="scale(0.015625)"/>
     </defs>
     <use xlink:href="#DejaVuSerif-2e"/>
     <use xlink:href="#DejaVuSerif-2e" transform="translate(31.787109 0)"/>
     <use xlink:href="#DejaVuSerif-2e" transform="translate(63.574219 0)"/>
     <use xlink:href="#DejaVuSerif-20" transform="translate(95.361328 0)"/>
     <use xlink:href="#DejaVuSerif-36" transform="translate(127.148438 0)"/>
     <use xlink:href="#DejaVuSerif-34" transform="translate(190.771484 0)"/>
     <use xlink:href="#DejaVuSerif-20" transform="translate(254.394531 0)"/>
     <use xlink:href="#DejaVuSerif-2e" transform="translate(286.181641 0)"/>
     <use xlink:href="#DejaVuSerif-2e" transform="translate(317.96875 0)"/>
     <use xlink:href="#DejaVuSerif-2e" transform="translate(349.755859 0)"/>
    </g>
   </g>
   <g id="text_5">
    <!-- input -->
    <g transform="translate(29.612656 33.343078) scale(0.08 -0.08)">
     <defs>
      <path id="DejaVuSerif-69" d="M 622 4353 
Q 622 4497 726 4603 
Q 831 4709 978 4709 
Q 1122 4709 1226 4603 
Q 1331 4497 1331 4353 
Q 1331 4206 1228 4103 
Q 1125 4000 978 4000 
Q 831 4000 726 4103 
Q 622 4206 622 4353 
z
M 1356 331 
L 1900 331 
L 1900 0 
L 231 0 
L 231 331 
L 781 331 
L 781 2988 
L 231 2988 
L 231 3322 
L 1356 3322 
L 1356 331 
z
" transform="scale(0.015625)"/>
      <path id="DejaVuSerif-6e" d="M 263 0 
L 263 331 
L 781 331 
L 781 2988 
L 231 2988 
L 231 3322 
L 1356 3322 
L 1356 2731 
Q 1516 3069 1770 3241 
Q 2025 3413 2363 3413 
Q 2913 3413 3172 3097 
Q 3431 2781 3431 2113 
L 3431 331 
L 3944 331 
L 3944 0 
L 2356 0 
L 2356 331 
L 2853 331 
L 2853 1931 
Q 2853 2541 2703 2767 
Q 2553 2994 2175 2994 
Q 1775 2994 1565 2701 
Q 1356 2409 1356 1850 
L 1356 331 
L 1856 331 
L 1856 0 
L 263 0 
z
" transform="scale(0.015625)"/>
      <path id="DejaVuSerif-70" d="M 1313 1825 
L 1313 1497 
Q 1313 897 1542 583 
Q 1772 269 2209 269 
Q 2650 269 2876 622 
Q 3103 975 3103 1663 
Q 3103 2353 2876 2703 
Q 2650 3053 2209 3053 
Q 1772 3053 1542 2737 
Q 1313 2422 1313 1825 
z
M 738 2988 
L 184 2988 
L 184 3322 
L 1313 3322 
L 1313 2803 
Q 1481 3116 1742 3264 
Q 2003 3413 2388 3413 
Q 3000 3413 3387 2928 
Q 3775 2444 3775 1663 
Q 3775 881 3387 395 
Q 3000 -91 2388 -91 
Q 2003 -91 1742 57 
Q 1481 206 1313 519 
L 1313 -997 
L 1856 -997 
L 1856 -1331 
L 184 -1331 
L 184 -997 
L 738 -997 
L 738 2988 
z
" transform="scale(0.015625)"/>
      <path id="DejaVuSerif-75" d="M 2266 3322 
L 3341 3322 
L 3341 331 
L 3884 331 
L 3884 0 
L 2766 0 
L 2766 588 
Q 2606 256 2353 82 
Q 2100 -91 1766 -91 
Q 1213 -91 952 223 
Q 691 538 691 1209 
L 691 2988 
L 172 2988 
L 172 3322 
L 1269 3322 
L 1269 1388 
Q 1269 781 1417 556 
Q 1566 331 1947 331 
Q 2347 331 2556 625 
Q 2766 919 2766 1478 
L 2766 2988 
L 2266 2988 
L 2266 3322 
z
" transform="scale(0.015625)"/>
      <path id="DejaVuSerif-74" d="M 691 2988 
L 184 2988 
L 184 3322 
L 691 3322 
L 691 4353 
L 1269 4353 
L 1269 3322 
L 2350 3322 
L 2350 2988 
L 1269 2988 
L 1269 878 
Q 1269 456 1350 337 
Q 1431 219 1650 219 
Q 1875 219 1978 351 
Q 2081 484 2088 781 
L 2522 781 
Q 2497 328 2275 118 
Q 2053 -91 1600 -91 
Q 1103 -91 897 129 
Q 691 350 691 878 
L 691 2988 
z
" transform="scale(0.015625)"/>
     </defs>
     <use xlink:href="#DejaVuSerif-69"/>
     <use xlink:href="#DejaVuSerif-6e" transform="translate(31.982422 0)"/>
     <use xlink:href="#DejaVuSerif-70" transform="translate(96.386719 0)"/>
     <use xlink:href="#DejaVuSerif-75" transform="translate(160.400391 0)"/>
     <use xlink:href="#DejaVuSerif-74" transform="translate(224.804688 0)"/>
    </g>
    <!-- (areas $\mathbf{x}$) -->
    <g transform="translate(22.132656 42.301328) scale(0.08 -0.08)">
     <defs>
      <path id="DejaVuSerif-28" d="M 2041 -997 
Q 1281 -656 893 83 
Q 506 822 506 1931 
Q 506 3044 893 3783 
Q 1281 4522 2041 4863 
L 2041 4556 
Q 1559 4225 1350 3623 
Q 1141 3022 1141 1931 
Q 1141 844 1350 242 
Q 1559 -359 2041 -691 
L 2041 -997 
z
" transform="scale(0.015625)"/>
      <path id="DejaVuSerif-61" d="M 2547 1044 
L 2547 1747 
L 1806 1747 
Q 1378 1747 1168 1562 
Q 959 1378 959 997 
Q 959 650 1171 447 
Q 1384 244 1747 244 
Q 2106 244 2326 466 
Q 2547 688 2547 1044 
z
M 3122 2075 
L 3122 331 
L 3634 331 
L 3634 0 
L 2547 0 
L 2547 359 
Q 2356 128 2106 18 
Q 1856 -91 1522 -91 
Q 969 -91 644 203 
Q 319 497 319 997 
Q 319 1513 691 1797 
Q 1063 2081 1741 2081 
L 2547 2081 
L 2547 2309 
Q 2547 2688 2317 2895 
Q 2088 3103 1672 3103 
Q 1328 3103 1125 2947 
Q 922 2791 872 2484 
L 575 2484 
L 575 3156 
Q 875 3284 1158 3348 
Q 1441 3413 1709 3413 
Q 2400 3413 2761 3070 
Q 3122 2728 3122 2075 
z
" transform="scale(0.015625)"/>
      <path id="DejaVuSerif-72" d="M 3059 3328 
L 3059 2497 
L 2728 2497 
Q 2713 2744 2591 2866 
Q 2469 2988 2234 2988 
Q 1809 2988 1582 2694 
Q 1356 2400 1356 1850 
L 1356 331 
L 2022 331 
L 2022 0 
L 263 0 
L 263 331 
L 781 331 
L 781 2994 
L 231 2994 
L 231 3322 
L 1356 3322 
L 1356 2731 
Q 1525 3078 1790 3245 
Q 2056 3413 2438 3413 
Q 2578 3413 2733 3391 
Q 2888 3369 3059 3328 
z
" transform="scale(0.015625)"/>
      <path id="DejaVuSerif-65" d="M 3469 1600 
L 991 1600 
L 991 1575 
Q 991 903 1244 561 
Q 1497 219 1991 219 
Q 2369 219 2611 417 
Q 2853 616 2950 1006 
L 3413 1006 
Q 3275 459 2904 184 
Q 2534 -91 1931 -91 
Q 1203 -91 761 389 
Q 319 869 319 1663 
Q 319 2450 753 2931 
Q 1188 3413 1894 3413 
Q 2647 3413 3050 2948 
Q 3453 2484 3469 1600 
z
M 2791 1931 
Q 2772 2513 2545 2808 
Q 2319 3103 1894 3103 
Q 1497 3103 1269 2806 
Q 1041 2509 991 1931 
L 2791 1931 
z
" transform="scale(0.015625)"/>
      <path id="DejaVuSerif-73" d="M 359 184 
L 359 959 
L 691 959 
Q 703 588 923 403 
Q 1144 219 1575 219 
Q 1963 219 2166 364 
Q 2369 509 2369 788 
Q 2369 1006 2220 1140 
Q 2072 1275 1594 1428 
L 1178 1569 
Q 750 1706 558 1912 
Q 366 2119 366 2438 
Q 366 2894 700 3153 
Q 1034 3413 1625 3413 
Q 1888 3413 2178 3344 
Q 2469 3275 2778 3144 
L 2778 2419 
L 2447 2419 
Q 2434 2741 2221 2922 
Q 2009 3103 1644 3103 
Q 1281 3103 1095 2975 
Q 909 2847 909 2591 
Q 909 2381 1050 2254 
Q 1191 2128 1613 1997 
L 2069 1856 
Q 2541 1709 2748 1489 
Q 2956 1269 2956 922 
Q 2956 450 2595 179 
Q 2234 -91 1600 -91 
Q 1278 -91 972 -22 
Q 666 47 359 184 
z
" transform="scale(0.015625)"/>
      <path id="DejaVuSans-Bold-78" d="M 1422 1791 
L 159 3500 
L 1344 3500 
L 2059 2463 
L 2784 3500 
L 3969 3500 
L 2706 1797 
L 4031 0 
L 2847 0 
L 2059 1106 
L 1281 0 
L 97 0 
L 1422 1791 
z
" transform="scale(0.015625)"/>
      <path id="DejaVuSerif-29" d="M 453 -997 
L 453 -691 
Q 934 -359 1145 242 
Q 1356 844 1356 1931 
Q 1356 3022 1145 3623 
Q 934 4225 453 4556 
L 453 4863 
Q 1216 4522 1603 3783 
Q 1991 3044 1991 1931 
Q 1991 822 1603 83 
Q 1216 -656 453 -997 
z
" transform="scale(0.015625)"/>
     </defs>
     <use xlink:href="#DejaVuSerif-28" transform="translate(0 0.015625)"/>
     <use xlink:href="#DejaVuSerif-61" transform="translate(39.013672 0.015625)"/>
     <use xlink:href="#DejaVuSerif-72" transform="translate(98.632812 0.015625)"/>
     <use xlink:href="#DejaVuSerif-65" transform="translate(146.435547 0.015625)"/>
     <use xlink:href="#DejaVuSerif-61" transform="translate(205.615234 0.015625)"/>
     <use xlink:href="#DejaVuSerif-73" transform="translate(265.234375 0.015625)"/>
     <use xlink:href="#DejaVuSerif-20" transform="translate(316.552734 0.015625)"/>
     <use xlink:href="#DejaVuSans-Bold-78" transform="translate(348.339844 0.015625)"/>
     <use xlink:href="#DejaVuSerif-29" transform="translate(412.841797 0.015625)"/>
    </g>
   </g>
   <g id="text_6">
    <!-- 256 / ReLU + dropout -->
    <g transform="translate(96.258084 42.301328) scale(0.08 -0.08)">
     <defs>
      <path id="DejaVuSerif-2f" d="M 1656 4666 
L 2156 4666 
L 500 -594 
L 0 -594 
L 1656 4666 
z
" transform="scale(0.015625)"/>
      <path id="DejaVuSerif-52" d="M 3066 2316 
Q 3284 2256 3442 2114 
Q 3600 1972 3725 1716 
L 4403 331 
L 4972 331 
L 4972 0 
L 3872 0 
L 3144 1484 
Q 2934 1916 2759 2042 
Q 2584 2169 2278 2169 
L 1581 2169 
L 1581 331 
L 2241 331 
L 2241 0 
L 353 0 
L 353 331 
L 947 331 
L 947 4331 
L 353 4331 
L 353 4666 
L 2719 4666 
Q 3400 4666 3770 4341 
Q 4141 4016 4141 3419 
Q 4141 2938 3870 2661 
Q 3600 2384 3066 2316 
z
M 1581 2503 
L 2503 2503 
Q 2975 2503 3200 2726 
Q 3425 2950 3425 3419 
Q 3425 3888 3200 4109 
Q 2975 4331 2503 4331 
L 1581 4331 
L 1581 2503 
z
" transform="scale(0.015625)"/>
      <path id="DejaVuSerif-4c" d="M 353 0 
L 353 331 
L 947 331 
L 947 4331 
L 353 4331 
L 353 4666 
L 2175 4666 
L 2175 4331 
L 1581 4331 
L 1581 384 
L 3713 384 
L 3713 1166 
L 4097 1166 
L 4097 0 
L 353 0 
z
" transform="scale(0.015625)"/>
      <path id="DejaVuSerif-55" d="M 897 4331 
L 300 4331 
L 300 4666 
L 2125 4666 
L 2125 4331 
L 1528 4331 
L 1528 1919 
Q 1528 1025 1820 672 
Q 2113 319 2828 319 
Q 3544 319 3836 672 
Q 4128 1025 4128 1919 
L 4128 4331 
L 3531 4331 
L 3531 4666 
L 5106 4666 
L 5106 4331 
L 4513 4331 
L 4513 1856 
Q 4513 791 4103 350 
Q 3694 -91 2713 -91 
Q 1731 -91 1314 353 
Q 897 797 897 1856 
L 897 4331 
z
" transform="scale(0.015625)"/>
      <path id="DejaVuSerif-2b" d="M 2931 4013 
L 2931 2259 
L 4684 2259 
L 4684 1753 
L 2931 1753 
L 2931 0 
L 2431 0 
L 2431 1753 
L 678 1753 
L 678 2259 
L 2431 2259 
L 2431 4013 
L 2931 4013 
z
" transform="scale(0.015625)"/>
      <path id="DejaVuSerif-64" d="M 3359 331 
L 3909 331 
L 3909 0 
L 2784 0 
L 2784 519 
Q 2616 206 2355 57 
Q 2094 -91 1709 -91 
Q 1097 -91 708 395 
Q 319 881 319 1663 
Q 319 2444 706 2928 
Q 1094 3413 1709 3413 
Q 2094 3413 2355 3264 
Q 2616 3116 2784 2803 
L 2784 4531 
L 2241 4531 
L 2241 4863 
L 3359 4863 
L 3359 331 
z
M 2784 1497 
L 2784 1825 
Q 2784 2422 2554 2737 
Q 2325 3053 1888 3053 
Q 1444 3053 1217 2703 
Q 991 2353 991 1663 
Q 991 975 1217 622 
Q 1444 269 1888 269 
Q 2325 269 2554 583 
Q 2784 897 2784 1497 
z
" transform="scale(0.015625)"/>
      <path id="DejaVuSerif-6f" d="M 1925 219 
Q 2388 219 2623 584 
Q 2859 950 2859 1663 
Q 2859 2375 2623 2739 
Q 2388 3103 1925 3103 
Q 1463 3103 1227 2739 
Q 991 2375 991 1663 
Q 991 950 1228 584 
Q 1466 219 1925 219 
z
M 1925 -91 
Q 1200 -91 759 389 
Q 319 869 319 1663 
Q 319 2456 758 2934 
Q 1197 3413 1925 3413 
Q 2653 3413 3092 2934 
Q 3531 2456 3531 1663 
Q 3531 869 3092 389 
Q 2653 -91 1925 -91 
z
" transform="scale(0.015625)"/>
     </defs>
     <use xlink:href="#DejaVuSerif-32"/>
     <use xlink:href="#DejaVuSerif-35" transform="translate(63.623047 0)"/>
     <use xlink:href="#DejaVuSerif-36" transform="translate(127.246094 0)"/>
     <use xlink:href="#DejaVuSerif-20" transform="translate(190.869141 0)"/>
     <use xlink:href="#DejaVuSerif-2f" transform="translate(222.65625 0)"/>
     <use xlink:href="#DejaVuSerif-20" transform="translate(256.347656 0)"/>
     <use xlink:href="#DejaVuSerif-52" transform="translate(288.134766 0)"/>
     <use xlink:href="#DejaVuSerif-65" transform="translate(363.427734 0)"/>
     <use xlink:href="#DejaVuSerif-4c" transform="translate(422.607422 0)"/>
     <use xlink:href="#DejaVuSerif-55" transform="translate(483.513672 0)"/>
     <use xlink:href="#DejaVuSerif-20" transform="translate(567.791016 0)"/>
     <use xlink:href="#DejaVuSerif-2b" transform="translate(599.578125 0)"/>
     <use xlink:href="#DejaVuSerif-20" transform="translate(683.367188 0)"/>
     <use xlink:href="#DejaVuSerif-64" transform="translate(715.154297 0)"/>
     <use xlink:href="#DejaVuSerif-72" transform="translate(779.167969 0)"/>
     <use xlink:href="#DejaVuSerif-6f" transform="translate(826.970703 0)"/>
     <use xlink:href="#DejaVuSerif-70" transform="translate(887.175781 0)"/>
     <use xlink:href="#DejaVuSerif-6f" transform="translate(951.189453 0)"/>
     <use xlink:href="#DejaVuSerif-75" transform="translate(1011.394531 0)"/>
     <use xlink:href="#DejaVuSerif-74" transform="translate(1075.798828 0)"/>
    </g>
   </g>
   <g id="text_7">
    <!-- 128 / ReLU + dropout -->
    <g transform="translate(196.942888 42.301328) scale(0.08 -0.08)">
     <use xlink:href="#DejaVuSerif-31"/>
     <use xlink:href="#DejaVuSerif-32" transform="translate(63.623047 0)"/>
     <use xlink:href="#DejaVuSerif-38" transform="translate(127.246094 0)"/>
     <use xlink:href="#DejaVuSerif-20" transform="translate(190.869141 0)"/>
     <use xlink:href="#DejaVuSerif-2f" transform="translate(222.65625 0)"/>
     <use xlink:href="#DejaVuSerif-20" transform="translate(256.347656 0)"/>
     <use xlink:href="#DejaVuSerif-52" transform="translate(288.134766 0)"/>
     <use xlink:href="#DejaVuSerif-65" transform="translate(363.427734 0)"/>
     <use xlink:href="#DejaVuSerif-4c" transform="translate(422.607422 0)"/>
     <use xlink:href="#DejaVuSerif-55" transform="translate(483.513672 0)"/>
     <use xlink:href="#DejaVuSerif-20" transform="translate(567.791016 0)"/>
     <use xlink:href="#DejaVuSerif-2b" transform="translate(599.578125 0)"/>
     <use xlink:href="#DejaVuSerif-20" transform="translate(683.367188 0)"/>
     <use xlink:href="#DejaVuSerif-64" transform="translate(715.154297 0)"/>
     <use xlink:href="#DejaVuSerif-72" transform="translate(779.167969 0)"/>
     <use xlink:href="#DejaVuSerif-6f" transform="translate(826.970703 0)"/>
     <use xlink:href="#DejaVuSerif-70" transform="translate(887.175781 0)"/>
     <use xlink:href="#DejaVuSerif-6f" transform="translate(951.189453 0)"/>
     <use xlink:href="#DejaVuSerif-75" transform="translate(1011.394531 0)"/>
     <use xlink:href="#DejaVuSerif-74" transform="translate(1075.798828 0)"/>
    </g>
   </g>
   <g id="text_8">
    <!-- 64 / ReLU + dropout -->
    <g transform="translate(300.172692 42.301328) scale(0.08 -0.08)">
     <use xlink:href="#DejaVuSerif-36"/>
     <use xlink:href="#DejaVuSerif-34" transform="translate(63.623047 0)"/>
     <use xlink:href="#DejaVuSerif-20" transform="translate(127.246094 0)"/>
     <use xlink:href="#DejaVuSerif-2f" transform="translate(159.033203 0)"/>
     <use xlink:href="#DejaVuSerif-20" transform="translate(192.724609 0)"/>
     <use xlink:href="#DejaVuSerif-52" transform="translate(224.511719 0)"/>
     <use xlink:href="#DejaVuSerif-65" transform="translate(299.804688 0)"/>
     <use xlink:href="#DejaVuSerif-4c" transform="translate(358.984375 0)"/>
     <use xlink:href="#DejaVuSerif-55" transform="translate(419.890625 0)"/>
     <use xlink:href="#DejaVuSerif-20" transform="translate(504.167969 0)"/>
     <use xlink:href="#DejaVuSerif-2b" transform="translate(535.955078 0)"/>
     <use xlink:href="#DejaVuSerif-20" transform="translate(619.744141 0)"/>
     <use xlink:href="#DejaVuSerif-64" transform="translate(651.53125 0)"/>
     <use xlink:href="#DejaVuSerif-72" transform="translate(715.544922 0)"/>
     <use xlink:href="#DejaVuSerif-6f" transform="translate(763.347656 0)"/>
     <use xlink:href="#DejaVuSerif-70" transform="translate(823.552734 0)"/>
     <use xlink:href="#DejaVuSerif-6f" transform="translate(887.566406 0)"/>
     <use xlink:href="#DejaVuSerif-75" transform="translate(947.771484 0)"/>
     <use xlink:href="#DejaVuSerif-74" transform="translate(1012.175781 0)"/>
    </g>
   </g>
   <g id="text_9">
    <!-- output: -->
    <g transform="translate(428.26812 33.343078) scale(0.08 -0.08)">
     <defs>
      <path id="DejaVuSerif-3a" d="M 666 325 
Q 666 500 786 622 
Q 906 744 1081 744 
Q 1256 744 1376 622 
Q 1497 500 1497 325 
Q 1497 150 1378 29 
Q 1259 -91 1081 -91 
Q 903 -91 784 29 
Q 666 150 666 325 
z
M 666 2363 
Q 666 2538 786 2658 
Q 906 2778 1081 2778 
Q 1259 2778 1378 2659 
Q 1497 2541 1497 2363 
Q 1497 2184 1378 2065 
Q 1259 1947 1081 1947 
Q 906 1947 786 2067 
Q 666 2188 666 2363 
z
" transform="scale(0.015625)"/>
     </defs>
     <use xlink:href="#DejaVuSerif-6f"/>
     <use xlink:href="#DejaVuSerif-75" transform="translate(60.205078 0)"/>
     <use xlink:href="#DejaVuSerif-74" transform="translate(124.609375 0)"/>
     <use xlink:href="#DejaVuSerif-70" transform="translate(164.794922 0)"/>
     <use xlink:href="#DejaVuSerif-75" transform="translate(228.808594 0)"/>
     <use xlink:href="#DejaVuSerif-74" transform="translate(293.212891 0)"/>
     <use xlink:href="#DejaVuSerif-3a" transform="translate(333.398438 0)"/>
    </g>
    <!-- $W, \delta_{\max}, \sigma_{\max}$ -->
    <g transform="translate(417.47187 42.301328) scale(0.08 -0.08)">
     <defs>
      <path id="DejaVuSans-Oblique-57" d="M 616 4666 
L 1228 4666 
L 1453 697 
L 3213 4666 
L 3916 4666 
L 4147 697 
L 5888 4666 
L 6528 4666 
L 4453 0 
L 3659 0 
L 3444 3891 
L 1697 0 
L 903 0 
L 616 4666 
z
" transform="scale(0.015625)"/>
      <path id="DejaVuSans-2c" d="M 750 794 
L 1409 794 
L 1409 256 
L 897 -744 
L 494 -744 
L 750 256 
L 750 794 
z
" transform="scale(0.015625)"/>
      <path id="DejaVuSans-Oblique-3b4" d="M 3472 4053 
Q 3197 4272 2450 4272 
Q 1659 4272 1588 3906 
Q 1531 3619 2328 3469 
Q 2953 3353 3253 3003 
Q 3616 2581 3447 1716 
Q 3284 888 2763 400 
Q 2238 -91 1488 -91 
Q 741 -91 406 400 
Q 72 888 241 1747 
Q 363 2384 891 2900 
Q 1097 3100 1353 3213 
Q 913 3459 1000 3900 
Q 1166 4750 2544 4750 
Q 3234 4750 3566 4531 
L 3472 4053 
z
M 1753 3056 
Q 1525 2966 1306 2738 
Q 969 2384 847 1747 
Q 722 1113 919 756 
Q 1119 397 1584 397 
Q 2044 397 2381 759 
Q 2722 1122 2838 1716 
Q 2956 2338 2731 2638 
Q 2491 2959 2103 2994 
Q 1906 3013 1753 3056 
z
" transform="scale(0.015625)"/>
      <path id="DejaVuSans-6d" d="M 3328 2828 
Q 3544 3216 3844 3400 
Q 4144 3584 4550 3584 
Q 5097 3584 5394 3201 
Q 5691 2819 5691 2113 
L 5691 0 
L 5113 0 
L 5113 2094 
Q 5113 2597 4934 2840 
Q 4756 3084 4391 3084 
Q 3944 3084 3684 2787 
Q 3425 2491 3425 1978 
L 3425 0 
L 2847 0 
L 2847 2094 
Q 2847 2600 2669 2842 
Q 2491 3084 2119 3084 
Q 1678 3084 1418 2786 
Q 1159 2488 1159 1978 
L 1159 0 
L 581 0 
L 581 3500 
L 1159 3500 
L 1159 2956 
Q 1356 3278 1631 3431 
Q 1906 3584 2284 3584 
Q 2666 3584 2933 3390 
Q 3200 3197 3328 2828 
z
" transform="scale(0.015625)"/>
      <path id="DejaVuSans-61" d="M 2194 1759 
Q 1497 1759 1228 1600 
Q 959 1441 959 1056 
Q 959 750 1161 570 
Q 1363 391 1709 391 
Q 2188 391 2477 730 
Q 2766 1069 2766 1631 
L 2766 1759 
L 2194 1759 
z
M 3341 1997 
L 3341 0 
L 2766 0 
L 2766 531 
Q 2569 213 2275 61 
Q 1981 -91 1556 -91 
Q 1019 -91 701 211 
Q 384 513 384 1019 
Q 384 1609 779 1909 
Q 1175 2209 1959 2209 
L 2766 2209 
L 2766 2266 
Q 2766 2663 2505 2880 
Q 2244 3097 1772 3097 
Q 1472 3097 1187 3025 
Q 903 2953 641 2809 
L 641 3341 
Q 956 3463 1253 3523 
Q 1550 3584 1831 3584 
Q 2591 3584 2966 3190 
Q 3341 2797 3341 1997 
z
" transform="scale(0.015625)"/>
      <path id="DejaVuSans-78" d="M 3513 3500 
L 2247 1797 
L 3578 0 
L 2900 0 
L 1881 1375 
L 863 0 
L 184 0 
L 1544 1831 
L 300 3500 
L 978 3500 
L 1906 2253 
L 2834 3500 
L 3513 3500 
z
" transform="scale(0.015625)"/>
      <path id="DejaVuSans-Oblique-3c3" d="M 2219 3044 
Q 1744 3044 1422 2700 
Q 1081 2341 969 1747 
Q 844 1119 1044 756 
Q 1241 397 1706 397 
Q 2166 397 2503 759 
Q 2844 1122 2966 1747 
Q 3075 2319 2881 2700 
Q 2700 3044 2219 3044 
z
M 2309 3503 
L 4219 3500 
L 4106 2925 
L 3463 2925 
Q 3706 2438 3575 1747 
Q 3406 888 2884 400 
Q 2359 -91 1609 -91 
Q 856 -91 525 400 
Q 194 888 363 1747 
Q 528 2609 1050 3097 
Q 1484 3503 2309 3503 
z
" transform="scale(0.015625)"/>
     </defs>
     <use xlink:href="#DejaVuSans-Oblique-57" transform="translate(0 0.78125)"/>
     <use xlink:href="#DejaVuSans-2c" transform="translate(98.876953 0.78125)"/>
     <use xlink:href="#DejaVuSans-Oblique-3b4" transform="translate(150.146484 0.78125)"/>
     <use xlink:href="#DejaVuSans-6d" transform="translate(211.328125 -15.625) scale(0.7)"/>
     <use xlink:href="#DejaVuSans-61" transform="translate(279.516602 -15.625) scale(0.7)"/>
     <use xlink:href="#DejaVuSans-78" transform="translate(322.412109 -15.625) scale(0.7)"/>
     <use xlink:href="#DejaVuSans-2c" transform="translate(366.572266 0.78125)"/>
     <use xlink:href="#DejaVuSans-Oblique-3c3" transform="translate(417.841797 0.78125)"/>
     <use xlink:href="#DejaVuSans-6d" transform="translate(481.220703 -15.625) scale(0.7)"/>
     <use xlink:href="#DejaVuSans-61" transform="translate(549.40918 -15.625) scale(0.7)"/>
     <use xlink:href="#DejaVuSans-78" transform="translate(592.304688 -15.625) scale(0.7)"/>
    </g>
   </g>
   <g id="text_10">
    <!-- Neural surrogate architecture (MLP 256-128-64) -->
    <g transform="translate(95.499724 11.958281) scale(0.11 -0.11)">
     <defs>
      <path id="DejaVuSerif-4e" d="M 313 0 
L 313 331 
L 941 331 
L 941 4331 
L 313 4331 
L 313 4666 
L 1509 4666 
L 4306 984 
L 4306 4331 
L 3681 4331 
L 3681 4666 
L 5319 4666 
L 5319 4331 
L 4691 4331 
L 4691 -91 
L 4313 -91 
L 1325 3841 
L 1325 331 
L 1953 331 
L 1953 0 
L 313 0 
z
" transform="scale(0.015625)"/>
      <path id="DejaVuSerif-6c" d="M 1313 331 
L 1856 331 
L 1856 0 
L 184 0 
L 184 331 
L 738 331 
L 738 4531 
L 184 4531 
L 184 4863 
L 1313 4863 
L 1313 331 
z
" transform="scale(0.015625)"/>
      <path id="DejaVuSerif-67" d="M 3359 2988 
L 3359 72 
Q 3359 -644 2965 -1033 
Q 2572 -1422 1844 -1422 
Q 1516 -1422 1216 -1362 
Q 916 -1303 641 -1184 
L 641 -488 
L 941 -488 
Q 997 -813 1206 -963 
Q 1416 -1113 1806 -1113 
Q 2313 -1113 2548 -827 
Q 2784 -541 2784 72 
L 2784 519 
Q 2616 206 2355 57 
Q 2094 -91 1709 -91 
Q 1097 -91 708 395 
Q 319 881 319 1663 
Q 319 2444 706 2928 
Q 1094 3413 1709 3413 
Q 2094 3413 2355 3264 
Q 2616 3116 2784 2803 
L 2784 3322 
L 3909 3322 
L 3909 2988 
L 3359 2988 
z
M 2784 1825 
Q 2784 2422 2554 2737 
Q 2325 3053 1888 3053 
Q 1444 3053 1217 2703 
Q 991 2353 991 1663 
Q 991 975 1217 622 
Q 1444 269 1888 269 
Q 2325 269 2554 583 
Q 2784 897 2784 1497 
L 2784 1825 
z
" transform="scale(0.015625)"/>
      <path id="DejaVuSerif-63" d="M 3291 997 
Q 3169 466 2822 187 
Q 2475 -91 1925 -91 
Q 1200 -91 759 389 
Q 319 869 319 1663 
Q 319 2459 759 2936 
Q 1200 3413 1925 3413 
Q 2241 3413 2553 3339 
Q 2866 3266 3181 3116 
L 3181 2266 
L 2847 2266 
Q 2781 2703 2561 2903 
Q 2341 3103 1931 3103 
Q 1466 3103 1228 2742 
Q 991 2381 991 1663 
Q 991 944 1227 581 
Q 1463 219 1931 219 
Q 2303 219 2525 412 
Q 2747 606 2828 997 
L 3291 997 
z
" transform="scale(0.015625)"/>
      <path id="DejaVuSerif-68" d="M 263 0 
L 263 331 
L 781 331 
L 781 4531 
L 231 4531 
L 231 4863 
L 1356 4863 
L 1356 2731 
Q 1516 3069 1770 3241 
Q 2025 3413 2363 3413 
Q 2913 3413 3172 3097 
Q 3431 2781 3431 2113 
L 3431 331 
L 3944 331 
L 3944 0 
L 2356 0 
L 2356 331 
L 2853 331 
L 2853 1931 
Q 2853 2541 2704 2764 
Q 2556 2988 2175 2988 
Q 1775 2988 1565 2697 
Q 1356 2406 1356 1850 
L 1356 331 
L 1856 331 
L 1856 0 
L 263 0 
z
" transform="scale(0.015625)"/>
      <path id="DejaVuSerif-4d" d="M 353 0 
L 353 331 
L 947 331 
L 947 4331 
L 319 4331 
L 319 4666 
L 1678 4666 
L 3316 1344 
L 4953 4666 
L 6228 4666 
L 6228 4331 
L 5606 4331 
L 5606 331 
L 6203 331 
L 6203 0 
L 4378 0 
L 4378 331 
L 4972 331 
L 4972 3938 
L 3372 684 
L 2931 684 
L 1331 3938 
L 1331 331 
L 1925 331 
L 1925 0 
L 353 0 
z
" transform="scale(0.015625)"/>
      <path id="DejaVuSerif-50" d="M 1581 2375 
L 2406 2375 
Q 2872 2375 3115 2626 
Q 3359 2878 3359 3353 
Q 3359 3831 3115 4081 
Q 2872 4331 2406 4331 
L 1581 4331 
L 1581 2375 
z
M 353 0 
L 353 331 
L 947 331 
L 947 4331 
L 353 4331 
L 353 4666 
L 2559 4666 
Q 3259 4666 3668 4311 
Q 4078 3956 4078 3353 
Q 4078 2753 3668 2397 
Q 3259 2041 2559 2041 
L 1581 2041 
L 1581 331 
L 2303 331 
L 2303 0 
L 353 0 
z
" transform="scale(0.015625)"/>
      <path id="DejaVuSerif-2d" d="M 281 1959 
L 1881 1959 
L 1881 1472 
L 281 1472 
L 281 1959 
z
" transform="scale(0.015625)"/>
     </defs>
     <use xlink:href="#DejaVuSerif-4e"/>
     <use xlink:href="#DejaVuSerif-65" transform="translate(87.5 0)"/>
     <use xlink:href="#DejaVuSerif-75" transform="translate(146.679688 0)"/>
     <use xlink:href="#DejaVuSerif-72" transform="translate(211.083984 0)"/>
     <use xlink:href="#DejaVuSerif-61" transform="translate(258.886719 0)"/>
     <use xlink:href="#DejaVuSerif-6c" transform="translate(318.505859 0)"/>
     <use xlink:href="#DejaVuSerif-20" transform="translate(350.488281 0)"/>
     <use xlink:href="#DejaVuSerif-73" transform="translate(382.275391 0)"/>
     <use xlink:href="#DejaVuSerif-75" transform="translate(433.59375 0)"/>
     <use xlink:href="#DejaVuSerif-72" transform="translate(497.998047 0)"/>
     <use xlink:href="#DejaVuSerif-72" transform="translate(545.800781 0)"/>
     <use xlink:href="#DejaVuSerif-6f" transform="translate(593.603516 0)"/>
     <use xlink:href="#DejaVuSerif-67" transform="translate(653.808594 0)"/>
     <use xlink:href="#DejaVuSerif-61" transform="translate(717.822266 0)"/>
     <use xlink:href="#DejaVuSerif-74" transform="translate(777.441406 0)"/>
     <use xlink:href="#DejaVuSerif-65" transform="translate(817.626953 0)"/>
     <use xlink:href="#DejaVuSerif-20" transform="translate(876.806641 0)"/>
     <use xlink:href="#DejaVuSerif-61" transform="translate(908.59375 0)"/>
     <use xlink:href="#DejaVuSerif-72" transform="translate(968.212891 0)"/>
     <use xlink:href="#DejaVuSerif-63" transform="translate(1016.015625 0)"/>
     <use xlink:href="#DejaVuSerif-68" transform="translate(1072.021484 0)"/>
     <use xlink:href="#DejaVuSerif-69" transform="translate(1136.425781 0)"/>
     <use xlink:href="#DejaVuSerif-74" transform="translate(1168.408203 0)"/>
     <use xlink:href="#DejaVuSerif-65" transform="translate(1208.59375 0)"/>
     <use xlink:href="#DejaVuSerif-63" transform="translate(1267.773438 0)"/>
     <use xlink:href="#DejaVuSerif-74" transform="translate(1323.779297 0)"/>
     <use xlink:href="#DejaVuSerif-75" transform="translate(1363.964844 0)"/>
     <use xlink:href="#DejaVuSerif-72" transform="translate(1428.369141 0)"/>
     <use xlink:href="#DejaVuSerif-65" transform="translate(1476.171875 0)"/>
     <use xlink:href="#DejaVuSerif-20" transform="translate(1535.351562 0)"/>
     <use xlink:href="#DejaVuSerif-28" transform="translate(1567.138672 0)"/>
     <use xlink:href="#DejaVuSerif-4d" transform="translate(1606.152344 0)"/>
     <use xlink:href="#DejaVuSerif-4c" transform="translate(1708.544922 0)"/>
     <use xlink:href="#DejaVuSerif-50" transform="translate(1774.951172 0)"/>
     <use xlink:href="#DejaVuSerif-20" transform="translate(1842.236328 0)"/>
     <use xlink:href="#DejaVuSerif-32" transform="translate(1874.023438 0)"/>
     <use xlink:href="#DejaVuSerif-35" transform="translate(1937.646484 0)"/>
     <use xlink:href="#DejaVuSerif-36" transform="translate(2001.269531 0)"/>
     <use xlink:href="#DejaVuSerif-2d" transform="translate(2064.892578 0)"/>
     <use xlink:href="#DejaVuSerif-31" transform="translate(2098.681641 0)"/>
     <use xlink:href="#DejaVuSerif-32" transform="translate(2162.304688 0)"/>
     <use xlink:href="#DejaVuSerif-38" transform="translate(2225.927734 0)"/>
     <use xlink:href="#DejaVuSerif-2d" transform="translate(2289.550781 0)"/>
     <use xlink:href="#DejaVuSerif-36" transform="translate(2323.339844 0)"/>
     <use xlink:href="#DejaVuSerif-34" transform="translate(2386.962891 0)"/>
     <use xlink:href="#DejaVuSerif-29" transform="translate(2450.585938 0)"/>
    </g>
   </g>
  </g>
 </g>
 <defs>
  <clipPath id="p3301efb664">
   <rect x="3.6" y="17.958281" width="457.658198" height="208.654687"/>
  </clipPath>
 </defs>
</svg>
