<?xml version="1.0" encoding="utf-8" standalone="no"?>
<!DOCTYPE svg PUBLIC "-//W3C//DTD SVG 1.1//EN"
  "http://www.w3.org/Graphics/SVG/1.1/DTD/svg11.dtd">
<svg xmlns:xlink="http://www.w3.org/1999/xlink" width="475.2pt" height="229.582871pt" viewBox="0 0 475.2 229.582871" xmlns="http://www.w3.org/2000/svg" version="1.1">
 <metadata>
  <rdf:RDF xmlns:dc="http://purl.org/dc/elements/1.1/" xmlns:cc="http://creativecommons.org/ns#" xmlns:rdf="http://www.w3.org/1999/02/22-rdf-syntax-ns#">
   <cc:Work>
    <dc:type rdf:resource="http://purl.org/dc/dcmitype/StillImage"/>
    <dc:date>2026-04-24T15:22:19.714396</dc:date>
    <dc:format>image/svg+xml</dc:format>
    <dc:creator>
     <cc:Agent>
      <dc:title>Matplotlib v3.10.8, https://matplotlib.org/</dc:title>
     </cc:Agent>
    </dc:creator>
   </cc:Work>
  </rdf:RDF>
 </metadata>
 <defs>
  <style type="text/css">*{stroke-linejoin: round; stroke-linecap: butt}</style>
 </defs>
 <g id="figure_1">
  <g id="patch_1">
   <path d="M 0 229.582871 
L 475.2 229.582871 
L 475.2 0 
L 0 0 
z
" style="fill: #ffffff"/>
  </g>
  <g id="axes_1">
   <g id="patch_2">
    <path d="M 13.628571 53.665637 
L 120.6 53.665637 
Q 121.268571 53.665637 121.268571 53.116856 
L 121.268571 17.446091 
Q 121.268571 16.89731 120.6 16.89731 
L 13.628571 16.89731 
Q 12.96 16.89731 12.96 17.446091 
L 12.96 53.116856 
Q 12.96 53.665637 13.628571 53.665637 
z
" clip-path="url(#p07bbfb84d1)" style="fill: #cfe3f5; stroke: #1f4b73; stroke-width: 1.2; stroke-linejoin: miter"/>
   </g>
   <g id="patch_3">
    <path d="M 170.742857 53.665637 
L 304.457143 53.665637 
Q 305.125714 53.665637 305.125714 53.116856 
L 305.125714 17.446091 
Q 305.125714 16.89731 304.457143 16.89731 
L 170.742857 16.89731 
Q 170.074286 16.89731 170.074286 17.446091 
L 170.074286 53.116856 
Q 170.074286 53.665637 170.742857 53.665637 
z
" clip-path="url(#p07bbfb84d1)" style="fill: #cfe3f5; stroke: #1f4b73; stroke-width: 1.2; stroke-linejoin: miter"/>
   </g>
   <g id="patch_4">
    <path d="M 344.571429 53.665637 
L 461.571429 53.665637 
Q 462.24 53.665637 462.24 53.116856 
L 462.24 17.446091 
Q 462.24 16.89731 461.571429 16.89731 
L 344.571429 16.89731 
Q 343.902857 16.89731 343.902857 17.446091 
L 343.902857 53.116856 
Q 343.902857 53.665637 344.571429 53.665637 
z
" clip-path="url(#p07bbfb84d1)" style="fill: #cfe3f5; stroke: #1f4b73; stroke-width: 1.2; stroke-linejoin: miter"/>
   </g>
   <g id="patch_5">
    <path d="M 13.628571 122.263262 
L 120.6 122.263262 
Q 121.268571 122.263262 121.268571 121.714481 
L 121.268571 86.043716 
Q 121.268571 85.494935 120.6 85.494935 
L 13.628571 85.494935 
Q 12.96 85.494935 12.96 86.043716 
L 12.96 121.714481 
Q 12.96 122.263262 13.628571 122.263262 
z
" clip-path="url(#p07bbfb84d1)" style="fill: #e4f0dc; stroke: #1f4b73; stroke-width: 1.2; stroke-linejoin: miter"/>
   </g>
   <g id="patch_6">
    <path d="M 170.742857 122.263262 
L 304.457143 122.263262 
Q 305.125714 122.263262 305.125714 121.714481 
L 305.125714 86.043716 
Q 305.125714 85.494935 304.457143 85.494935 
L 170.742857 85.494935 
Q 170.074286 85.494935 170.074286 86.043716 
L 170.074286 121.714481 
Q 170.074286 122.263262 170.742857 122.263262 
z
" clip-path="url(#p07bbfb84d1)" style="fill: #e4f0dc; stroke: #1f4b73; stroke-width: 1.2; stroke-linejoin: miter"/>
   </g>
   <g id="patch_7">
    <path d="M 344.571429 122.263262 
L 461.571429 122.263262 
Q 462.24 122.263262 462.24 121.714481 
L 462.24 86.043716 
Q 462.24 85.494935 461.571429 85.494935 
L 344.571429 85.494935 
Q 343.902857 85.494935 343.902857 86.043716 
L 343.902857 121.714481 
Q 343.902857 122.263262 344.571429 122.263262 
z
" clip-path="url(#p07bbfb84d1)" style="fill: #e4f0dc; stroke: #1f4b73; stroke-width: 1.2; stroke-linejoin: miter"/>
   </g>
   <g id="patch_8">
    <path d="M 13.628571 190.860887 
L 120.6 190.860887 
Q 121.268571 190.860887 121.268571 190.312106 
L 121.268571 154.641341 
Q 121.268571 154.09256 120.6 154.09256 
L 13.628571 154.09256 
Q 12.96 154.09256 12.96 154.641341 
L 12.96 190.312106 
Q 12.96 190.860887 13.628571 190.860887 
z
" clip-path="url(#p07bbfb84d1)" style="fill: #fff4cf; stroke: #1f4b73; stroke-width: 1.2; stroke-linejoin: miter"/>
   </g>
   <g id="patch_9">
    <path d="M 170.742857 190.860887 
L 304.457143 190.860887 
Q 305.125714 190.860887 305.125714 190.312106 
L 305.125714 154.641341 
Q 305.125714 154.09256 304.457143 154.09256 
L 170.742857 154.09256 
Q 170.074286 154.09256 170.074286 154.641341 
L 170.074286 190.312106 
Q 170.074286 190.860887 170.742857 190.860887 
z
" clip-path="url(#p07bbfb84d1)" style="fill: #fdecea; stroke: #1f4b73; stroke-width: 1.2; stroke-linejoin: miter"/>
   </g>
   <g id="patch_10">
    <path d="M 344.571429 190.860887 
L 461.571429 190.860887 
Q 462.24 190.860887 462.24 190.312106 
L 462.24 154.641341 
Q 462.24 154.09256 461.571429 154.09256 
L 344.571429 154.09256 
Q 343.902857 154.09256 343.902857 154.641341 
L 343.902857 190.312106 
Q 343.902857 190.860887 344.571429 190.860887 
z
" clip-path="url(#p07bbfb84d1)" style="fill: #fdecea; stroke: #1f4b73; stroke-width: 1.2; stroke-linejoin: miter"/>
   </g>
   <g id="patch_11">
    <path d="M 234.257143 55.114494 
Q 234.257143 69.580475 234.257143 82.704815 
" clip-path="url(#p07bbfb84d1)" style="fill: none; stroke: #333333; stroke-width: 1.2; stroke-linecap: round"/>
    <path d="M 236.657143 77.904815 
L 234.257143 82.704815 
L 231.857143 77.904815 
z
" clip-path="url(#p07bbfb84d1)" style="fill: #333333; stroke: #333333; stroke-width: 1.2; stroke-linecap: round"/>
   </g>
   <g id="patch_12">
    <path d="M 234.257143 123.712119 
Q 234.257143 138.1781 234.257143 151.30244 
" clip-path="url(#p07bbfb84d1)" style="fill: none; stroke: #333333; stroke-width: 1.2; stroke-linecap: round"/>
    <path d="M 236.657143 146.50244 
L 234.257143 151.30244 
L 231.857143 146.50244 
z
" clip-path="url(#p07bbfb84d1)" style="fill: #333333; stroke: #333333; stroke-width: 1.2; stroke-linecap: round"/>
   </g>
   <g id="patch_13">
    <path d="M 122.598492 171.104771 
Q 145.670115 171.104771 167.400099 171.104771 
" clip-path="url(#p07bbfb84d1)" style="fill: none; stroke: #333333; stroke-width: 1.2; stroke-linecap: round"/>
    <path d="M 162.600099 168.704771 
L 167.400099 171.104771 
L 162.600099 173.504771 
z
" clip-path="url(#p07bbfb84d1)" style="fill: #333333; stroke: #333333; stroke-width: 1.2; stroke-linecap: round"/>
   </g>
   <g id="patch_14">
    <path d="M 306.459919 171.104771 
Q 324.517759 171.104771 341.233958 171.104771 
" clip-path="url(#p07bbfb84d1)" style="fill: none; stroke: #333333; stroke-width: 1.2; stroke-linecap: round"/>
    <path d="M 336.433958 168.704771 
L 341.233958 171.104771 
L 336.433958 173.504771 
z
" clip-path="url(#p07bbfb84d1)" style="fill: #333333; stroke: #333333; stroke-width: 1.2; stroke-linecap: round"/>
   </g>
   <g id="patch_15">
    <path d="M 122.598492 105.251051 
Q 145.670115 105.251051 167.400099 105.251051 
" clip-path="url(#p07bbfb84d1)" style="fill: none; stroke: #333333; stroke-width: 1.2; stroke-linecap: round"/>
    <path d="M 162.600099 102.851051 
L 167.400099 105.251051 
L 162.600099 107.651051 
z
" clip-path="url(#p07bbfb84d1)" style="fill: #333333; stroke: #333333; stroke-width: 1.2; stroke-linecap: round"/>
   </g>
   <g id="patch_16">
    <path d="M 306.459919 105.251051 
Q 324.517759 105.251051 341.233958 105.251051 
" clip-path="url(#p07bbfb84d1)" style="fill: none; stroke: #333333; stroke-width: 1.2; stroke-linecap: round"/>
    <path d="M 336.433958 102.851051 
L 341.233958 105.251051 
L 336.433958 107.651051 
z
" clip-path="url(#p07bbfb84d1)" style="fill: #333333; stroke: #333333; stroke-width: 1.2; stroke-linecap: round"/>
   </g>
   <g id="patch_17">
    <path d="M 306.459919 36.653426 
Q 324.517759 36.653426 341.233958 36.653426 
" clip-path="url(#p07bbfb84d1)" style="fill: none; stroke: #333333; stroke-width: 1.2; stroke-linecap: round"/>
    <path d="M 336.433958 34.253426 
L 341.233958 36.653426 
L 336.433958 39.053426 
z
" clip-path="url(#p07bbfb84d1)" style="fill: #333333; stroke: #333333; stroke-width: 1.2; stroke-linecap: round"/>
   </g>
   <g id="patch_18">
    <path d="M 122.598492 36.653426 
Q 145.670115 36.653426 167.400099 36.653426 
" clip-path="url(#p07bbfb84d1)" style="fill: none; stroke: #333333; stroke-width: 1.2; stroke-linecap: round"/>
    <path d="M 162.600099 34.253426 
L 167.400099 36.653426 
L 162.600099 39.053426 
z
" clip-path="url(#p07bbfb84d1)" style="fill: #333333; stroke: #333333; stroke-width: 1.2; stroke-linecap: round"/>
   </g>
   <g id="text_1">
    <!-- Benchmark registry -->
    <g transform="translate(21.624208 32.661911) scale(0.09 -0.09)">
     <defs>
      <path id="DejaVuSerif-42" d="M 1581 331 
L 2516 331 
Q 3078 331 3337 575 
Q 3597 819 3597 1350 
Q 3597 1878 3339 2120 
Q 3081 2363 2516 2363 
L 1581 2363 
L 1581 331 
z
M 1581 2694 
L 2375 2694 
Q 2888 2694 3123 2891 
Q 3359 3088 3359 3513 
Q 3359 3941 3123 4136 
Q 2888 4331 2375 4331 
L 1581 4331 
L 1581 2694 
z
M 353 0 
L 353 331 
L 947 331 
L 947 4331 
L 353 4331 
L 353 4666 
L 2656 4666 
Q 3363 4666 3720 4377 
Q 4078 4088 4078 3513 
Q 4078 3097 3829 2850 
Q 3581 2603 3103 2547 
Q 3697 2472 4005 2167 
Q 4313 1863 4313 1350 
Q 4313 656 3875 328 
Q 3438 0 2509 0 
L 353 0 
z
" transform="scale(0.015625)"/>
      <path id="DejaVuSerif-65" d="M 3469 1600 
L 991 1600 
L 991 1575 
Q 991 903 1244 561 
Q 1497 219 1991 219 
Q 2369 219 2611 417 
Q 2853 616 2950 1006 
L 3413 1006 
Q 3275 459 2904 184 
Q 2534 -91 1931 -91 
Q 1203 -91 761 389 
Q 319 869 319 1663 
Q 319 2450 753 2931 
Q 1188 3413 1894 3413 
Q 2647 3413 3050 2948 
Q 3453 2484 3469 1600 
z
M 2791 1931 
Q 2772 2513 2545 2808 
Q 2319 3103 1894 3103 
Q 1497 3103 1269 2806 
Q 1041 2509 991 1931 
L 2791 1931 
z
" transform="scale(0.015625)"/>
      <path id="DejaVuSerif-6e" d="M 263 0 
L 263 331 
L 781 331 
L 781 2988 
L 231 2988 
L 231 3322 
L 1356 3322 
L 1356 2731 
Q 1516 3069 1770 3241 
Q 2025 3413 2363 3413 
Q 2913 3413 3172 3097 
Q 3431 2781 3431 2113 
L 3431 331 
L 3944 331 
L 3944 0 
L 2356 0 
L 2356 331 
L 2853 331 
L 2853 1931 
Q 2853 2541 2703 2767 
Q 2553 2994 2175 2994 
Q 1775 2994 1565 2701 
Q 1356 2409 1356 1850 
L 1356 331 
L 1856 331 
L 1856 0 
L 263 0 
z
" transform="scale(0.015625)"/>
      <path id="DejaVuSerif-63" d="M 3291 997 
Q 3169 466 2822 187 
Q 2475 -91 1925 -91 
Q 1200 -91 759 389 
Q 319 869 319 1663 
Q 319 2459 759 2936 
Q 1200 3413 1925 3413 
Q 2241 3413 2553 3339 
Q 2866 3266 3181 3116 
L 3181 2266 
L 2847 2266 
Q 2781 2703 2561 2903 
Q 2341 3103 1931 3103 
Q 1466 3103 1228 2742 
Q 991 2381 991 1663 
Q 991 944 1227 581 
Q 1463 219 1931 219 
Q 2303 219 2525 412 
Q 2747 606 2828 997 
L 3291 997 
z
" transform="scale(0.015625)"/>
      <path id="DejaVuSerif-68" d="M 263 0 
L 263 331 
L 781 331 
L 781 4531 
L 231 4531 
L 231 4863 
L 1356 4863 
L 1356 2731 
Q 1516 3069 1770 3241 
Q 2025 3413 2363 3413 
Q 2913 3413 3172 3097 
Q 3431 2781 3431 2113 
L 3431 331 
L 3944 331 
L 3944 0 
L 2356 0 
L 2356 331 
L 2853 331 
L 2853 1931 
Q 2853 2541 2704 2764 
Q 2556 2988 2175 2988 
Q 1775 2988 1565 2697 
Q 1356 2406 1356 1850 
L 1356 331 
L 1856 331 
L 1856 0 
L 263 0 
z
" transform="scale(0.015625)"/>
      <path id="DejaVuSerif-6d" d="M 3316 2675 
Q 3481 3041 3739 3227 
Q 3997 3413 4341 3413 
Q 4863 3413 5119 3089 
Q 5375 2766 5375 2113 
L 5375 331 
L 5894 331 
L 5894 0 
L 4300 0 
L 4300 331 
L 4800 331 
L 4800 2047 
Q 4800 2556 4650 2772 
Q 4500 2988 4153 2988 
Q 3769 2988 3567 2697 
Q 3366 2406 3366 1850 
L 3366 331 
L 3866 331 
L 3866 0 
L 2291 0 
L 2291 331 
L 2791 331 
L 2791 2069 
Q 2791 2566 2641 2777 
Q 2491 2988 2144 2988 
Q 1759 2988 1557 2697 
Q 1356 2406 1356 1850 
L 1356 331 
L 1856 331 
L 1856 0 
L 263 0 
L 263 331 
L 781 331 
L 781 2994 
L 231 2994 
L 231 3322 
L 1356 3322 
L 1356 2731 
Q 1516 3063 1762 3238 
Q 2009 3413 2322 3413 
Q 2709 3413 2968 3220 
Q 3228 3028 3316 2675 
z
" transform="scale(0.015625)"/>
      <path id="DejaVuSerif-61" d="M 2547 1044 
L 2547 1747 
L 1806 1747 
Q 1378 1747 1168 1562 
Q 959 1378 959 997 
Q 959 650 1171 447 
Q 1384 244 1747 244 
Q 2106 244 2326 466 
Q 2547 688 2547 1044 
z
M 3122 2075 
L 3122 331 
L 3634 331 
L 3634 0 
L 2547 0 
L 2547 359 
Q 2356 128 2106 18 
Q 1856 -91 1522 -91 
Q 969 -91 644 203 
Q 319 497 319 997 
Q 319 1513 691 1797 
Q 1063 2081 1741 2081 
L 2547 2081 
L 2547 2309 
Q 2547 2688 2317 2895 
Q 2088 3103 1672 3103 
Q 1328 3103 1125 2947 
Q 922 2791 872 2484 
L 575 2484 
L 575 3156 
Q 875 3284 1158 3348 
Q 1441 3413 1709 3413 
Q 2400 3413 2761 3070 
Q 3122 2728 3122 2075 
z
" transform="scale(0.015625)"/>
      <path id="DejaVuSerif-72" d="M 3059 3328 
L 3059 2497 
L 2728 2497 
Q 2713 2744 2591 2866 
Q 2469 2988 2234 2988 
Q 1809 2988 1582 2694 
Q 1356 2400 1356 1850 
L 1356 331 
L 2022 331 
L 2022 0 
L 263 0 
L 263 331 
L 781 331 
L 781 2994 
L 231 2994 
L 231 3322 
L 1356 3322 
L 1356 2731 
Q 1525 3078 1790 3245 
Q 2056 3413 2438 3413 
Q 2578 3413 2733 3391 
Q 2888 3369 3059 3328 
z
" transform="scale(0.015625)"/>
      <path id="DejaVuSerif-6b" d="M 1831 0 
L 219 0 
L 219 331 
L 738 331 
L 738 4531 
L 184 4531 
L 184 4863 
L 1313 4863 
L 1313 1697 
L 2713 2988 
L 2234 2988 
L 2234 3322 
L 3738 3322 
L 3738 2988 
L 3169 2988 
L 2181 2075 
L 3444 331 
L 3922 331 
L 3922 0 
L 2284 0 
L 2284 331 
L 2759 331 
L 1766 1697 
L 1313 1275 
L 1313 331 
L 1831 331 
L 1831 0 
z
" transform="scale(0.015625)"/>
      <path id="DejaVuSerif-20" transform="scale(0.015625)"/>
      <path id="DejaVuSerif-67" d="M 3359 2988 
L 3359 72 
Q 3359 -644 2965 -1033 
Q 2572 -1422 1844 -1422 
Q 1516 -1422 1216 -1362 
Q 916 -1303 641 -1184 
L 641 -488 
L 941 -488 
Q 997 -813 1206 -963 
Q 1416 -1113 1806 -1113 
Q 2313 -1113 2548 -827 
Q 2784 -541 2784 72 
L 2784 519 
Q 2616 206 2355 57 
Q 2094 -91 1709 -91 
Q 1097 -91 708 395 
Q 319 881 319 1663 
Q 319 2444 706 2928 
Q 1094 3413 1709 3413 
Q 2094 3413 2355 3264 
Q 2616 3116 2784 2803 
L 2784 3322 
L 3909 3322 
L 3909 2988 
L 3359 2988 
z
M 2784 1825 
Q 2784 2422 2554 2737 
Q 2325 3053 1888 3053 
Q 1444 3053 1217 2703 
Q 991 2353 991 1663 
Q 991 975 1217 622 
Q 1444 269 1888 269 
Q 2325 269 2554 583 
Q 2784 897 2784 1497 
L 2784 1825 
z
" transform="scale(0.015625)"/>
      <path id="DejaVuSerif-69" d="M 622 4353 
Q 622 4497 726 4603 
Q 831 4709 978 4709 
Q 1122 4709 1226 4603 
Q 1331 4497 1331 4353 
Q 1331 4206 1228 4103 
Q 1125 4000 978 4000 
Q 831 4000 726 4103 
Q 622 4206 622 4353 
z
M 1356 331 
L 1900 331 
L 1900 0 
L 231 0 
L 231 331 
L 781 331 
L 781 2988 
L 231 2988 
L 231 3322 
L 1356 3322 
L 1356 331 
z
" transform="scale(0.015625)"/>
      <path id="DejaVuSerif-73" d="M 359 184 
L 359 959 
L 691 959 
Q 703 588 923 403 
Q 1144 219 1575 219 
Q 1963 219 2166 364 
Q 2369 509 2369 788 
Q 2369 1006 2220 1140 
Q 2072 1275 1594 1428 
L 1178 1569 
Q 750 1706 558 1912 
Q 366 2119 366 2438 
Q 366 2894 700 3153 
Q 1034 3413 1625 3413 
Q 1888 3413 2178 3344 
Q 2469 3275 2778 3144 
L 2778 2419 
L 2447 2419 
Q 2434 2741 2221 2922 
Q 2009 3103 1644 3103 
Q 1281 3103 1095 2975 
Q 909 2847 909 2591 
Q 909 2381 1050 2254 
Q 1191 2128 1613 1997 
L 2069 1856 
Q 2541 1709 2748 1489 
Q 2956 1269 2956 922 
Q 2956 450 2595 179 
Q 2234 -91 1600 -91 
Q 1278 -91 972 -22 
Q 666 47 359 184 
z
" transform="scale(0.015625)"/>
      <path id="DejaVuSerif-74" d="M 691 2988 
L 184 2988 
L 184 3322 
L 691 3322 
L 691 4353 
L 1269 4353 
L 1269 3322 
L 2350 3322 
L 2350 2988 
L 1269 2988 
L 1269 878 
Q 1269 456 1350 337 
Q 1431 219 1650 219 
Q 1875 219 1978 351 
Q 2081 484 2088 781 
L 2522 781 
Q 2497 328 2275 118 
Q 2053 -91 1600 -91 
Q 1103 -91 897 129 
Q 691 350 691 878 
L 691 2988 
z
" transform="scale(0.015625)"/>
      <path id="DejaVuSerif-79" d="M 1381 -609 
L 1600 -56 
L 359 2988 
L -19 2988 
L -19 3322 
L 1509 3322 
L 1509 2988 
L 978 2988 
L 1913 703 
L 2847 2988 
L 2350 2988 
L 2350 3322 
L 3597 3322 
L 3597 2988 
L 3225 2988 
L 1703 -750 
Q 1547 -1138 1356 -1280 
Q 1166 -1422 819 -1422 
Q 672 -1422 517 -1397 
Q 363 -1372 206 -1325 
L 206 -691 
L 500 -691 
Q 519 -903 608 -995 
Q 697 -1088 884 -1088 
Q 1056 -1088 1161 -992 
Q 1266 -897 1381 -609 
z
" transform="scale(0.015625)"/>
     </defs>
     <use xlink:href="#DejaVuSerif-42"/>
     <use xlink:href="#DejaVuSerif-65" transform="translate(73.486328 0)"/>
     <use xlink:href="#DejaVuSerif-6e" transform="translate(132.666016 0)"/>
     <use xlink:href="#DejaVuSerif-63" transform="translate(197.070312 0)"/>
     <use xlink:href="#DejaVuSerif-68" transform="translate(253.076172 0)"/>
     <use xlink:href="#DejaVuSerif-6d" transform="translate(317.480469 0)"/>
     <use xlink:href="#DejaVuSerif-61" transform="translate(412.304688 0)"/>
     <use xlink:href="#DejaVuSerif-72" transform="translate(471.923828 0)"/>
     <use xlink:href="#DejaVuSerif-6b" transform="translate(519.726562 0)"/>
     <use xlink:href="#DejaVuSerif-20" transform="translate(580.322266 0)"/>
     <use xlink:href="#DejaVuSerif-72" transform="translate(612.109375 0)"/>
     <use xlink:href="#DejaVuSerif-65" transform="translate(659.912109 0)"/>
     <use xlink:href="#DejaVuSerif-67" transform="translate(719.091797 0)"/>
     <use xlink:href="#DejaVuSerif-69" transform="translate(783.105469 0)"/>
     <use xlink:href="#DejaVuSerif-73" transform="translate(815.087891 0)"/>
     <use xlink:href="#DejaVuSerif-74" transform="translate(866.40625 0)"/>
     <use xlink:href="#DejaVuSerif-72" transform="translate(906.591797 0)"/>
     <use xlink:href="#DejaVuSerif-79" transform="translate(954.394531 0)"/>
    </g>
    <!-- (10/25/72/200-bar) -->
    <g transform="translate(24.051395 42.867911) scale(0.09 -0.09)">
     <defs>
      <path id="DejaVuSerif-28" d="M 2041 -997 
Q 1281 -656 893 83 
Q 506 822 506 1931 
Q 506 3044 893 3783 
Q 1281 4522 2041 4863 
L 2041 4556 
Q 1559 4225 1350 3623 
Q 1141 3022 1141 1931 
Q 1141 844 1350 242 
Q 1559 -359 2041 -691 
L 2041 -997 
z
" transform="scale(0.015625)"/>
      <path id="DejaVuSerif-31" d="M 909 0 
L 909 331 
L 1722 331 
L 1722 4213 
L 781 3603 
L 781 4013 
L 1919 4750 
L 2350 4750 
L 2350 331 
L 3163 331 
L 3163 0 
L 909 0 
z
" transform="scale(0.015625)"/>
      <path id="DejaVuSerif-30" d="M 2034 219 
Q 2513 219 2750 744 
Q 2988 1269 2988 2328 
Q 2988 3391 2750 3916 
Q 2513 4441 2034 4441 
Q 1556 4441 1318 3916 
Q 1081 3391 1081 2328 
Q 1081 1269 1318 744 
Q 1556 219 2034 219 
z
M 2034 -91 
Q 1275 -91 848 546 
Q 422 1184 422 2328 
Q 422 3475 848 4112 
Q 1275 4750 2034 4750 
Q 2797 4750 3222 4112 
Q 3647 3475 3647 2328 
Q 3647 1184 3222 546 
Q 2797 -91 2034 -91 
z
" transform="scale(0.015625)"/>
      <path id="DejaVuSerif-2f" d="M 1656 4666 
L 2156 4666 
L 500 -594 
L 0 -594 
L 1656 4666 
z
" transform="scale(0.015625)"/>
      <path id="DejaVuSerif-32" d="M 819 3553 
L 469 3553 
L 469 4384 
Q 803 4563 1142 4656 
Q 1481 4750 1806 4750 
Q 2534 4750 2956 4397 
Q 3378 4044 3378 3438 
Q 3378 2753 2422 1800 
Q 2347 1728 2309 1691 
L 1131 513 
L 3078 513 
L 3078 1088 
L 3444 1088 
L 3444 0 
L 434 0 
L 434 341 
L 1850 1753 
Q 2319 2222 2519 2614 
Q 2719 3006 2719 3438 
Q 2719 3909 2473 4175 
Q 2228 4441 1797 4441 
Q 1350 4441 1106 4219 
Q 863 3997 819 3553 
z
" transform="scale(0.015625)"/>
      <path id="DejaVuSerif-35" d="M 3219 4666 
L 3219 4153 
L 1081 4153 
L 1081 2816 
Q 1244 2928 1461 2984 
Q 1678 3041 1947 3041 
Q 2703 3041 3140 2622 
Q 3578 2203 3578 1478 
Q 3578 738 3136 323 
Q 2694 -91 1894 -91 
Q 1572 -91 1234 -12 
Q 897 66 544 225 
L 544 1131 
L 897 1131 
Q 925 688 1179 453 
Q 1434 219 1894 219 
Q 2388 219 2653 544 
Q 2919 869 2919 1478 
Q 2919 2084 2655 2407 
Q 2391 2731 1894 2731 
Q 1613 2731 1398 2631 
Q 1184 2531 1019 2322 
L 750 2322 
L 750 4666 
L 3219 4666 
z
" transform="scale(0.015625)"/>
      <path id="DejaVuSerif-37" d="M 3609 4347 
L 1784 0 
L 1319 0 
L 3059 4153 
L 903 4153 
L 903 3578 
L 538 3578 
L 538 4666 
L 3609 4666 
L 3609 4347 
z
" transform="scale(0.015625)"/>
      <path id="DejaVuSerif-2d" d="M 281 1959 
L 1881 1959 
L 1881 1472 
L 281 1472 
L 281 1959 
z
" transform="scale(0.015625)"/>
      <path id="DejaVuSerif-62" d="M 738 331 
L 738 4531 
L 184 4531 
L 184 4863 
L 1313 4863 
L 1313 2803 
Q 1481 3116 1742 3264 
Q 2003 3413 2388 3413 
Q 3000 3413 3387 2928 
Q 3775 2444 3775 1663 
Q 3775 881 3387 395 
Q 3000 -91 2388 -91 
Q 2003 -91 1742 57 
Q 1481 206 1313 519 
L 1313 0 
L 184 0 
L 184 331 
L 738 331 
z
M 1313 1497 
Q 1313 897 1542 583 
Q 1772 269 2209 269 
Q 2650 269 2876 622 
Q 3103 975 3103 1663 
Q 3103 2353 2876 2703 
Q 2650 3053 2209 3053 
Q 1772 3053 1542 2737 
Q 1313 2422 1313 1825 
L 1313 1497 
z
" transform="scale(0.015625)"/>
      <path id="DejaVuSerif-29" d="M 453 -997 
L 453 -691 
Q 934 -359 1145 242 
Q 1356 844 1356 1931 
Q 1356 3022 1145 3623 
Q 934 4225 453 4556 
L 453 4863 
Q 1216 4522 1603 3783 
Q 1991 3044 1991 1931 
Q 1991 822 1603 83 
Q 1216 -656 453 -997 
z
" transform="scale(0.015625)"/>
     </defs>
     <use xlink:href="#DejaVuSerif-28"/>
     <use xlink:href="#DejaVuSerif-31" transform="translate(39.013672 0)"/>
     <use xlink:href="#DejaVuSerif-30" transform="translate(102.636719 0)"/>
     <use xlink:href="#DejaVuSerif-2f" transform="translate(166.259766 0)"/>
     <use xlink:href="#DejaVuSerif-32" transform="translate(199.951172 0)"/>
     <use xlink:href="#DejaVuSerif-35" transform="translate(263.574219 0)"/>
     <use xlink:href="#DejaVuSerif-2f" transform="translate(327.197266 0)"/>
     <use xlink:href="#DejaVuSerif-37" transform="translate(360.888672 0)"/>
     <use xlink:href="#DejaVuSerif-32" transform="translate(424.511719 0)"/>
     <use xlink:href="#DejaVuSerif-2f" transform="translate(488.134766 0)"/>
     <use xlink:href="#DejaVuSerif-32" transform="translate(521.826172 0)"/>
     <use xlink:href="#DejaVuSerif-30" transform="translate(585.449219 0)"/>
     <use xlink:href="#DejaVuSerif-30" transform="translate(649.072266 0)"/>
     <use xlink:href="#DejaVuSerif-2d" transform="translate(712.695312 0)"/>
     <use xlink:href="#DejaVuSerif-62" transform="translate(746.484375 0)"/>
     <use xlink:href="#DejaVuSerif-61" transform="translate(810.498047 0)"/>
     <use xlink:href="#DejaVuSerif-72" transform="translate(870.117188 0)"/>
     <use xlink:href="#DejaVuSerif-29" transform="translate(917.919922 0)"/>
    </g>
   </g>
   <g id="text_2">
    <!-- Classical optimiser -->
    <g transform="translate(194.236875 32.661911) scale(0.09 -0.09)">
     <defs>
      <path id="DejaVuSerif-43" d="M 4513 1234 
Q 4306 581 3820 245 
Q 3334 -91 2591 -91 
Q 2134 -91 1743 65 
Q 1353 222 1050 525 
Q 700 875 529 1320 
Q 359 1766 359 2328 
Q 359 3416 987 4083 
Q 1616 4750 2644 4750 
Q 3025 4750 3456 4650 
Q 3888 4550 4384 4347 
L 4384 3272 
L 4031 3272 
Q 3916 3859 3567 4137 
Q 3219 4416 2591 4416 
Q 1844 4416 1459 3886 
Q 1075 3356 1075 2328 
Q 1075 1303 1459 773 
Q 1844 244 2591 244 
Q 3113 244 3450 492 
Q 3788 741 3938 1234 
L 4513 1234 
z
" transform="scale(0.015625)"/>
      <path id="DejaVuSerif-6c" d="M 1313 331 
L 1856 331 
L 1856 0 
L 184 0 
L 184 331 
L 738 331 
L 738 4531 
L 184 4531 
L 184 4863 
L 1313 4863 
L 1313 331 
z
" transform="scale(0.015625)"/>
      <path id="DejaVuSerif-6f" d="M 1925 219 
Q 2388 219 2623 584 
Q 2859 950 2859 1663 
Q 2859 2375 2623 2739 
Q 2388 3103 1925 3103 
Q 1463 3103 1227 2739 
Q 991 2375 991 1663 
Q 991 950 1228 584 
Q 1466 219 1925 219 
z
M 1925 -91 
Q 1200 -91 759 389 
Q 319 869 319 1663 
Q 319 2456 758 2934 
Q 1197 3413 1925 3413 
Q 2653 3413 3092 2934 
Q 3531 2456 3531 1663 
Q 3531 869 3092 389 
Q 2653 -91 1925 -91 
z
" transform="scale(0.015625)"/>
      <path id="DejaVuSerif-70" d="M 1313 1825 
L 1313 1497 
Q 1313 897 1542 583 
Q 1772 269 2209 269 
Q 2650 269 2876 622 
Q 3103 975 3103 1663 
Q 3103 2353 2876 2703 
Q 2650 3053 2209 3053 
Q 1772 3053 1542 2737 
Q 1313 2422 1313 1825 
z
M 738 2988 
L 184 2988 
L 184 3322 
L 1313 3322 
L 1313 2803 
Q 1481 3116 1742 3264 
Q 2003 3413 2388 3413 
Q 3000 3413 3387 2928 
Q 3775 2444 3775 1663 
Q 3775 881 3387 395 
Q 3000 -91 2388 -91 
Q 2003 -91 1742 57 
Q 1481 206 1313 519 
L 1313 -997 
L 1856 -997 
L 1856 -1331 
L 184 -1331 
L 184 -997 
L 738 -997 
L 738 2988 
z
" transform="scale(0.015625)"/>
     </defs>
     <use xlink:href="#DejaVuSerif-43"/>
     <use xlink:href="#DejaVuSerif-6c" transform="translate(76.513672 0)"/>
     <use xlink:href="#DejaVuSerif-61" transform="translate(108.496094 0)"/>
     <use xlink:href="#DejaVuSerif-73" transform="translate(168.115234 0)"/>
     <use xlink:href="#DejaVuSerif-73" transform="translate(219.433594 0)"/>
     <use xlink:href="#DejaVuSerif-69" transform="translate(270.751953 0)"/>
     <use xlink:href="#DejaVuSerif-63" transform="translate(302.734375 0)"/>
     <use xlink:href="#DejaVuSerif-61" transform="translate(358.740234 0)"/>
     <use xlink:href="#DejaVuSerif-6c" transform="translate(418.359375 0)"/>
     <use xlink:href="#DejaVuSerif-20" transform="translate(450.341797 0)"/>
     <use xlink:href="#DejaVuSerif-6f" transform="translate(482.128906 0)"/>
     <use xlink:href="#DejaVuSerif-70" transform="translate(542.333984 0)"/>
     <use xlink:href="#DejaVuSerif-74" transform="translate(606.347656 0)"/>
     <use xlink:href="#DejaVuSerif-69" transform="translate(646.533203 0)"/>
     <use xlink:href="#DejaVuSerif-6d" transform="translate(678.515625 0)"/>
     <use xlink:href="#DejaVuSerif-69" transform="translate(773.339844 0)"/>
     <use xlink:href="#DejaVuSerif-73" transform="translate(805.322266 0)"/>
     <use xlink:href="#DejaVuSerif-65" transform="translate(856.640625 0)"/>
     <use xlink:href="#DejaVuSerif-72" transform="translate(915.820312 0)"/>
    </g>
    <!-- (GA, PSO, NSGA-II / pymoo) -->
    <g transform="translate(173.562187 42.739942) scale(0.09 -0.09)">
     <defs>
      <path id="DejaVuSerif-47" d="M 4097 3272 
Q 3988 3856 3641 4136 
Q 3294 4416 2675 4416 
Q 1869 4416 1472 3897 
Q 1075 3378 1075 2328 
Q 1075 1300 1484 772 
Q 1894 244 2688 244 
Q 3041 244 3362 331 
Q 3684 419 3975 594 
L 3975 1797 
L 3097 1797 
L 3097 2131 
L 4609 2131 
L 4609 391 
Q 4194 150 3714 29 
Q 3234 -91 2688 -91 
Q 1631 -91 995 570 
Q 359 1231 359 2328 
Q 359 3434 996 4092 
Q 1634 4750 2713 4750 
Q 3113 4750 3539 4658 
Q 3966 4566 4447 4378 
L 4447 3272 
L 4097 3272 
z
" transform="scale(0.015625)"/>
      <path id="DejaVuSerif-41" d="M 1281 1691 
L 2994 1691 
L 2138 3909 
L 1281 1691 
z
M -38 0 
L -38 331 
L 372 331 
L 2034 4666 
L 2559 4666 
L 4225 331 
L 4684 331 
L 4684 0 
L 2988 0 
L 2988 331 
L 3506 331 
L 3116 1356 
L 1153 1356 
L 763 331 
L 1275 331 
L 1275 0 
L -38 0 
z
" transform="scale(0.015625)"/>
      <path id="DejaVuSerif-2c" d="M 231 -622 
Q 525 -406 662 -114 
Q 800 178 800 594 
L 800 709 
L 1416 709 
Q 1391 175 1164 -208 
Q 938 -591 481 -872 
L 231 -622 
z
" transform="scale(0.015625)"/>
      <path id="DejaVuSerif-50" d="M 1581 2375 
L 2406 2375 
Q 2872 2375 3115 2626 
Q 3359 2878 3359 3353 
Q 3359 3831 3115 4081 
Q 2872 4331 2406 4331 
L 1581 4331 
L 1581 2375 
z
M 353 0 
L 353 331 
L 947 331 
L 947 4331 
L 353 4331 
L 353 4666 
L 2559 4666 
Q 3259 4666 3668 4311 
Q 4078 3956 4078 3353 
Q 4078 2753 3668 2397 
Q 3259 2041 2559 2041 
L 1581 2041 
L 1581 331 
L 2303 331 
L 2303 0 
L 353 0 
z
" transform="scale(0.015625)"/>
      <path id="DejaVuSerif-53" d="M 594 225 
L 594 1288 
L 953 1284 
Q 969 753 1261 498 
Q 1553 244 2150 244 
Q 2706 244 2998 464 
Q 3291 684 3291 1106 
Q 3291 1444 3114 1625 
Q 2938 1806 2369 1978 
L 1753 2163 
Q 1084 2366 811 2669 
Q 538 2972 538 3500 
Q 538 4094 959 4422 
Q 1381 4750 2144 4750 
Q 2469 4750 2856 4679 
Q 3244 4609 3681 4475 
L 3681 3481 
L 3328 3481 
Q 3275 3975 2998 4195 
Q 2722 4416 2156 4416 
Q 1663 4416 1405 4214 
Q 1147 4013 1147 3628 
Q 1147 3294 1340 3103 
Q 1534 2913 2163 2725 
L 2741 2553 
Q 3375 2363 3645 2067 
Q 3916 1772 3916 1275 
Q 3916 597 3481 253 
Q 3047 -91 2188 -91 
Q 1803 -91 1404 -12 
Q 1006 66 594 225 
z
" transform="scale(0.015625)"/>
      <path id="DejaVuSerif-4f" d="M 2625 244 
Q 3391 244 3781 770 
Q 4172 1297 4172 2328 
Q 4172 3363 3781 3889 
Q 3391 4416 2625 4416 
Q 1856 4416 1465 3889 
Q 1075 3363 1075 2328 
Q 1075 1297 1465 770 
Q 1856 244 2625 244 
z
M 2625 -91 
Q 2150 -91 1751 65 
Q 1353 222 1050 525 
Q 700 875 529 1319 
Q 359 1763 359 2328 
Q 359 2894 529 3339 
Q 700 3784 1050 4134 
Q 1356 4441 1750 4595 
Q 2144 4750 2625 4750 
Q 3641 4750 4266 4084 
Q 4891 3419 4891 2328 
Q 4891 1769 4719 1320 
Q 4547 872 4197 525 
Q 3891 219 3497 64 
Q 3103 -91 2625 -91 
z
" transform="scale(0.015625)"/>
      <path id="DejaVuSerif-4e" d="M 313 0 
L 313 331 
L 941 331 
L 941 4331 
L 313 4331 
L 313 4666 
L 1509 4666 
L 4306 984 
L 4306 4331 
L 3681 4331 
L 3681 4666 
L 5319 4666 
L 5319 4331 
L 4691 4331 
L 4691 -91 
L 4313 -91 
L 1325 3841 
L 1325 331 
L 1953 331 
L 1953 0 
L 313 0 
z
" transform="scale(0.015625)"/>
      <path id="DejaVuSerif-49" d="M 1581 331 
L 2175 331 
L 2175 0 
L 353 0 
L 353 331 
L 947 331 
L 947 4331 
L 353 4331 
L 353 4666 
L 2175 4666 
L 2175 4331 
L 1581 4331 
L 1581 331 
z
" transform="scale(0.015625)"/>
     </defs>
     <use xlink:href="#DejaVuSerif-28"/>
     <use xlink:href="#DejaVuSerif-47" transform="translate(39.013672 0)"/>
     <use xlink:href="#DejaVuSerif-41" transform="translate(118.896484 0)"/>
     <use xlink:href="#DejaVuSerif-2c" transform="translate(191.113281 0)"/>
     <use xlink:href="#DejaVuSerif-20" transform="translate(222.900391 0)"/>
     <use xlink:href="#DejaVuSerif-50" transform="translate(254.6875 0)"/>
     <use xlink:href="#DejaVuSerif-53" transform="translate(321.972656 0)"/>
     <use xlink:href="#DejaVuSerif-4f" transform="translate(390.478516 0)"/>
     <use xlink:href="#DejaVuSerif-2c" transform="translate(466.585938 0)"/>
     <use xlink:href="#DejaVuSerif-20" transform="translate(498.373047 0)"/>
     <use xlink:href="#DejaVuSerif-4e" transform="translate(530.160156 0)"/>
     <use xlink:href="#DejaVuSerif-53" transform="translate(617.660156 0)"/>
     <use xlink:href="#DejaVuSerif-47" transform="translate(686.166016 0)"/>
     <use xlink:href="#DejaVuSerif-41" transform="translate(766.048828 0)"/>
     <use xlink:href="#DejaVuSerif-2d" transform="translate(838.265625 0)"/>
     <use xlink:href="#DejaVuSerif-49" transform="translate(872.054688 0)"/>
     <use xlink:href="#DejaVuSerif-49" transform="translate(911.556641 0)"/>
     <use xlink:href="#DejaVuSerif-20" transform="translate(951.058594 0)"/>
     <use xlink:href="#DejaVuSerif-2f" transform="translate(982.845703 0)"/>
     <use xlink:href="#DejaVuSerif-20" transform="translate(1016.537109 0)"/>
     <use xlink:href="#DejaVuSerif-70" transform="translate(1048.324219 0)"/>
     <use xlink:href="#DejaVuSerif-79" transform="translate(1112.337891 0)"/>
     <use xlink:href="#DejaVuSerif-6d" transform="translate(1168.832031 0)"/>
     <use xlink:href="#DejaVuSerif-6f" transform="translate(1263.65625 0)"/>
     <use xlink:href="#DejaVuSerif-6f" transform="translate(1323.861328 0)"/>
     <use xlink:href="#DejaVuSerif-29" transform="translate(1384.066406 0)"/>
    </g>
   </g>
   <g id="text_3">
    <!-- IS 800:2007 compliance -->
    <g transform="translate(347.772757 37.764911) scale(0.09 -0.09)">
     <defs>
      <path id="DejaVuSerif-38" d="M 2981 1275 
Q 2981 1775 2732 2051 
Q 2484 2328 2034 2328 
Q 1584 2328 1336 2051 
Q 1088 1775 1088 1275 
Q 1088 772 1336 495 
Q 1584 219 2034 219 
Q 2484 219 2732 495 
Q 2981 772 2981 1275 
z
M 2853 3541 
Q 2853 3966 2637 4203 
Q 2422 4441 2034 4441 
Q 1650 4441 1433 4203 
Q 1216 3966 1216 3541 
Q 1216 3113 1433 2875 
Q 1650 2638 2034 2638 
Q 2422 2638 2637 2875 
Q 2853 3113 2853 3541 
z
M 2516 2484 
Q 3047 2413 3344 2092 
Q 3641 1772 3641 1275 
Q 3641 619 3225 264 
Q 2809 -91 2034 -91 
Q 1263 -91 845 264 
Q 428 619 428 1275 
Q 428 1772 725 2092 
Q 1022 2413 1556 2484 
Q 1084 2569 832 2842 
Q 581 3116 581 3541 
Q 581 4103 968 4426 
Q 1356 4750 2034 4750 
Q 2713 4750 3100 4426 
Q 3488 4103 3488 3541 
Q 3488 3116 3236 2842 
Q 2984 2569 2516 2484 
z
" transform="scale(0.015625)"/>
      <path id="DejaVuSerif-3a" d="M 666 325 
Q 666 500 786 622 
Q 906 744 1081 744 
Q 1256 744 1376 622 
Q 1497 500 1497 325 
Q 1497 150 1378 29 
Q 1259 -91 1081 -91 
Q 903 -91 784 29 
Q 666 150 666 325 
z
M 666 2363 
Q 666 2538 786 2658 
Q 906 2778 1081 2778 
Q 1259 2778 1378 2659 
Q 1497 2541 1497 2363 
Q 1497 2184 1378 2065 
Q 1259 1947 1081 1947 
Q 906 1947 786 2067 
Q 666 2188 666 2363 
z
" transform="scale(0.015625)"/>
     </defs>
     <use xlink:href="#DejaVuSerif-49"/>
     <use xlink:href="#DejaVuSerif-53" transform="translate(39.501953 0)"/>
     <use xlink:href="#DejaVuSerif-20" transform="translate(108.007812 0)"/>
     <use xlink:href="#DejaVuSerif-38" transform="translate(139.794922 0)"/>
     <use xlink:href="#DejaVuSerif-30" transform="translate(203.417969 0)"/>
     <use xlink:href="#DejaVuSerif-30" transform="translate(267.041016 0)"/>
     <use xlink:href="#DejaVuSerif-3a" transform="translate(330.664062 0)"/>
     <use xlink:href="#DejaVuSerif-32" transform="translate(364.355469 0)"/>
     <use xlink:href="#DejaVuSerif-30" transform="translate(427.978516 0)"/>
     <use xlink:href="#DejaVuSerif-30" transform="translate(491.601562 0)"/>
     <use xlink:href="#DejaVuSerif-37" transform="translate(555.224609 0)"/>
     <use xlink:href="#DejaVuSerif-20" transform="translate(618.847656 0)"/>
     <use xlink:href="#DejaVuSerif-63" transform="translate(650.634766 0)"/>
     <use xlink:href="#DejaVuSerif-6f" transform="translate(706.640625 0)"/>
     <use xlink:href="#DejaVuSerif-6d" transform="translate(766.845703 0)"/>
     <use xlink:href="#DejaVuSerif-70" transform="translate(861.669922 0)"/>
     <use xlink:href="#DejaVuSerif-6c" transform="translate(925.683594 0)"/>
     <use xlink:href="#DejaVuSerif-69" transform="translate(957.666016 0)"/>
     <use xlink:href="#DejaVuSerif-61" transform="translate(989.648438 0)"/>
     <use xlink:href="#DejaVuSerif-6e" transform="translate(1049.267578 0)"/>
     <use xlink:href="#DejaVuSerif-63" transform="translate(1113.671875 0)"/>
     <use xlink:href="#DejaVuSerif-65" transform="translate(1169.677734 0)"/>
    </g>
   </g>
   <g id="text_4">
    <!-- FEM engine (scipy) -->
    <g transform="translate(22.592411 106.298552) scale(0.09 -0.09)">
     <defs>
      <path id="DejaVuSerif-46" d="M 353 0 
L 353 331 
L 947 331 
L 947 4331 
L 353 4331 
L 353 4666 
L 4172 4666 
L 4172 3628 
L 3788 3628 
L 3788 4281 
L 1581 4281 
L 1581 2719 
L 3175 2719 
L 3175 3303 
L 3559 3303 
L 3559 1753 
L 3175 1753 
L 3175 2338 
L 1581 2338 
L 1581 331 
L 2328 331 
L 2328 0 
L 353 0 
z
" transform="scale(0.015625)"/>
      <path id="DejaVuSerif-45" d="M 353 0 
L 353 331 
L 947 331 
L 947 4331 
L 353 4331 
L 353 4666 
L 4109 4666 
L 4109 3628 
L 3725 3628 
L 3725 4281 
L 1581 4281 
L 1581 2719 
L 3109 2719 
L 3109 3303 
L 3494 3303 
L 3494 1753 
L 3109 1753 
L 3109 2338 
L 1581 2338 
L 1581 384 
L 3775 384 
L 3775 1038 
L 4159 1038 
L 4159 0 
L 353 0 
z
" transform="scale(0.015625)"/>
      <path id="DejaVuSerif-4d" d="M 353 0 
L 353 331 
L 947 331 
L 947 4331 
L 319 4331 
L 319 4666 
L 1678 4666 
L 3316 1344 
L 4953 4666 
L 6228 4666 
L 6228 4331 
L 5606 4331 
L 5606 331 
L 6203 331 
L 6203 0 
L 4378 0 
L 4378 331 
L 4972 331 
L 4972 3938 
L 3372 684 
L 2931 684 
L 1331 3938 
L 1331 331 
L 1925 331 
L 1925 0 
L 353 0 
z
" transform="scale(0.015625)"/>
     </defs>
     <use xlink:href="#DejaVuSerif-46"/>
     <use xlink:href="#DejaVuSerif-45" transform="translate(69.384766 0)"/>
     <use xlink:href="#DejaVuSerif-4d" transform="translate(142.382812 0)"/>
     <use xlink:href="#DejaVuSerif-20" transform="translate(244.775391 0)"/>
     <use xlink:href="#DejaVuSerif-65" transform="translate(276.5625 0)"/>
     <use xlink:href="#DejaVuSerif-6e" transform="translate(335.742188 0)"/>
     <use xlink:href="#DejaVuSerif-67" transform="translate(400.146484 0)"/>
     <use xlink:href="#DejaVuSerif-69" transform="translate(464.160156 0)"/>
     <use xlink:href="#DejaVuSerif-6e" transform="translate(496.142578 0)"/>
     <use xlink:href="#DejaVuSerif-65" transform="translate(560.546875 0)"/>
     <use xlink:href="#DejaVuSerif-20" transform="translate(619.726562 0)"/>
     <use xlink:href="#DejaVuSerif-28" transform="translate(651.513672 0)"/>
     <use xlink:href="#DejaVuSerif-73" transform="translate(690.527344 0)"/>
     <use xlink:href="#DejaVuSerif-63" transform="translate(741.845703 0)"/>
     <use xlink:href="#DejaVuSerif-69" transform="translate(797.851562 0)"/>
     <use xlink:href="#DejaVuSerif-70" transform="translate(829.833984 0)"/>
     <use xlink:href="#DejaVuSerif-79" transform="translate(893.847656 0)"/>
     <use xlink:href="#DejaVuSerif-29" transform="translate(950.341797 0)"/>
    </g>
   </g>
   <g id="text_5">
    <!-- Neural surrogate MLP -->
    <g transform="translate(186.089766 101.195552) scale(0.09 -0.09)">
     <defs>
      <path id="DejaVuSerif-75" d="M 2266 3322 
L 3341 3322 
L 3341 331 
L 3884 331 
L 3884 0 
L 2766 0 
L 2766 588 
Q 2606 256 2353 82 
Q 2100 -91 1766 -91 
Q 1213 -91 952 223 
Q 691 538 691 1209 
L 691 2988 
L 172 2988 
L 172 3322 
L 1269 3322 
L 1269 1388 
Q 1269 781 1417 556 
Q 1566 331 1947 331 
Q 2347 331 2556 625 
Q 2766 919 2766 1478 
L 2766 2988 
L 2266 2988 
L 2266 3322 
z
" transform="scale(0.015625)"/>
      <path id="DejaVuSerif-4c" d="M 353 0 
L 353 331 
L 947 331 
L 947 4331 
L 353 4331 
L 353 4666 
L 2175 4666 
L 2175 4331 
L 1581 4331 
L 1581 384 
L 3713 384 
L 3713 1166 
L 4097 1166 
L 4097 0 
L 353 0 
z
" transform="scale(0.015625)"/>
     </defs>
     <use xlink:href="#DejaVuSerif-4e"/>
     <use xlink:href="#DejaVuSerif-65" transform="translate(87.5 0)"/>
     <use xlink:href="#DejaVuSerif-75" transform="translate(146.679688 0)"/>
     <use xlink:href="#DejaVuSerif-72" transform="translate(211.083984 0)"/>
     <use xlink:href="#DejaVuSerif-61" transform="translate(258.886719 0)"/>
     <use xlink:href="#DejaVuSerif-6c" transform="translate(318.505859 0)"/>
     <use xlink:href="#DejaVuSerif-20" transform="translate(350.488281 0)"/>
     <use xlink:href="#DejaVuSerif-73" transform="translate(382.275391 0)"/>
     <use xlink:href="#DejaVuSerif-75" transform="translate(433.59375 0)"/>
     <use xlink:href="#DejaVuSerif-72" transform="translate(497.998047 0)"/>
     <use xlink:href="#DejaVuSerif-72" transform="translate(545.800781 0)"/>
     <use xlink:href="#DejaVuSerif-6f" transform="translate(593.603516 0)"/>
     <use xlink:href="#DejaVuSerif-67" transform="translate(653.808594 0)"/>
     <use xlink:href="#DejaVuSerif-61" transform="translate(717.822266 0)"/>
     <use xlink:href="#DejaVuSerif-74" transform="translate(777.441406 0)"/>
     <use xlink:href="#DejaVuSerif-65" transform="translate(817.626953 0)"/>
     <use xlink:href="#DejaVuSerif-20" transform="translate(876.806641 0)"/>
     <use xlink:href="#DejaVuSerif-4d" transform="translate(908.59375 0)"/>
     <use xlink:href="#DejaVuSerif-4c" transform="translate(1010.986328 0)"/>
     <use xlink:href="#DejaVuSerif-50" transform="translate(1077.392578 0)"/>
    </g>
    <!-- (PyTorch) -->
    <g transform="translate(215.587266 111.401552) scale(0.09 -0.09)">
     <defs>
      <path id="DejaVuSerif-54" d="M 1222 0 
L 1222 331 
L 1819 331 
L 1819 4294 
L 447 4294 
L 447 3566 
L 63 3566 
L 63 4666 
L 4206 4666 
L 4206 3566 
L 3822 3566 
L 3822 4294 
L 2450 4294 
L 2450 331 
L 3047 331 
L 3047 0 
L 1222 0 
z
" transform="scale(0.015625)"/>
     </defs>
     <use xlink:href="#DejaVuSerif-28"/>
     <use xlink:href="#DejaVuSerif-50" transform="translate(39.013672 0)"/>
     <use xlink:href="#DejaVuSerif-79" transform="translate(106.298828 0)"/>
     <use xlink:href="#DejaVuSerif-54" transform="translate(162.792969 0)"/>
     <use xlink:href="#DejaVuSerif-6f" transform="translate(221.742188 0)"/>
     <use xlink:href="#DejaVuSerif-72" transform="translate(281.947266 0)"/>
     <use xlink:href="#DejaVuSerif-63" transform="translate(329.75 0)"/>
     <use xlink:href="#DejaVuSerif-68" transform="translate(385.755859 0)"/>
     <use xlink:href="#DejaVuSerif-29" transform="translate(450.160156 0)"/>
    </g>
   </g>
   <g id="text_6">
    <!-- PPO agent (SB3) -->
    <g transform="translate(364.768694 106.298552) scale(0.09 -0.09)">
     <defs>
      <path id="DejaVuSerif-33" d="M 622 4469 
Q 988 4606 1323 4678 
Q 1659 4750 1953 4750 
Q 2638 4750 3022 4454 
Q 3406 4159 3406 3634 
Q 3406 3213 3140 2930 
Q 2875 2647 2388 2547 
Q 2963 2466 3280 2130 
Q 3597 1794 3597 1259 
Q 3597 606 3158 257 
Q 2719 -91 1894 -91 
Q 1528 -91 1179 -12 
Q 831 66 488 225 
L 488 1131 
L 838 1131 
Q 869 681 1141 450 
Q 1413 219 1906 219 
Q 2384 219 2661 495 
Q 2938 772 2938 1253 
Q 2938 1803 2653 2086 
Q 2369 2369 1819 2369 
L 1522 2369 
L 1522 2688 
L 1678 2688 
Q 2225 2688 2498 2914 
Q 2772 3141 2772 3597 
Q 2772 4006 2547 4223 
Q 2322 4441 1900 4441 
Q 1478 4441 1245 4241 
Q 1013 4041 972 3647 
L 622 3647 
L 622 4469 
z
" transform="scale(0.015625)"/>
     </defs>
     <use xlink:href="#DejaVuSerif-50"/>
     <use xlink:href="#DejaVuSerif-50" transform="translate(67.285156 0)"/>
     <use xlink:href="#DejaVuSerif-4f" transform="translate(134.570312 0)"/>
     <use xlink:href="#DejaVuSerif-20" transform="translate(216.552734 0)"/>
     <use xlink:href="#DejaVuSerif-61" transform="translate(248.339844 0)"/>
     <use xlink:href="#DejaVuSerif-67" transform="translate(307.958984 0)"/>
     <use xlink:href="#DejaVuSerif-65" transform="translate(371.972656 0)"/>
     <use xlink:href="#DejaVuSerif-6e" transform="translate(431.152344 0)"/>
     <use xlink:href="#DejaVuSerif-74" transform="translate(495.556641 0)"/>
     <use xlink:href="#DejaVuSerif-20" transform="translate(535.742188 0)"/>
     <use xlink:href="#DejaVuSerif-28" transform="translate(567.529297 0)"/>
     <use xlink:href="#DejaVuSerif-53" transform="translate(606.542969 0)"/>
     <use xlink:href="#DejaVuSerif-42" transform="translate(675.048828 0)"/>
     <use xlink:href="#DejaVuSerif-33" transform="translate(748.535156 0)"/>
     <use xlink:href="#DejaVuSerif-29" transform="translate(812.158203 0)"/>
    </g>
   </g>
   <g id="text_7">
    <!-- LLM designer -->
    <g transform="translate(35.214208 169.857161) scale(0.09 -0.09)">
     <defs>
      <path id="DejaVuSerif-64" d="M 3359 331 
L 3909 331 
L 3909 0 
L 2784 0 
L 2784 519 
Q 2616 206 2355 57 
Q 2094 -91 1709 -91 
Q 1097 -91 708 395 
Q 319 881 319 1663 
Q 319 2444 706 2928 
Q 1094 3413 1709 3413 
Q 2094 3413 2355 3264 
Q 2616 3116 2784 2803 
L 2784 4531 
L 2241 4531 
L 2241 4863 
L 3359 4863 
L 3359 331 
z
M 2784 1497 
L 2784 1825 
Q 2784 2422 2554 2737 
Q 2325 3053 1888 3053 
Q 1444 3053 1217 2703 
Q 991 2353 991 1663 
Q 991 975 1217 622 
Q 1444 269 1888 269 
Q 2325 269 2554 583 
Q 2784 897 2784 1497 
z
" transform="scale(0.015625)"/>
     </defs>
     <use xlink:href="#DejaVuSerif-4c"/>
     <use xlink:href="#DejaVuSerif-4c" transform="translate(66.40625 0)"/>
     <use xlink:href="#DejaVuSerif-4d" transform="translate(132.8125 0)"/>
     <use xlink:href="#DejaVuSerif-20" transform="translate(235.205078 0)"/>
     <use xlink:href="#DejaVuSerif-64" transform="translate(266.992188 0)"/>
     <use xlink:href="#DejaVuSerif-65" transform="translate(331.005859 0)"/>
     <use xlink:href="#DejaVuSerif-73" transform="translate(390.185547 0)"/>
     <use xlink:href="#DejaVuSerif-69" transform="translate(441.503906 0)"/>
     <use xlink:href="#DejaVuSerif-67" transform="translate(473.486328 0)"/>
     <use xlink:href="#DejaVuSerif-6e" transform="translate(537.5 0)"/>
     <use xlink:href="#DejaVuSerif-65" transform="translate(601.904297 0)"/>
     <use xlink:href="#DejaVuSerif-72" transform="translate(661.083984 0)"/>
    </g>
    <!-- (Claude API + cache) -->
    <g transform="translate(18.193661 180.063161) scale(0.09 -0.09)">
     <defs>
      <path id="DejaVuSerif-2b" d="M 2931 4013 
L 2931 2259 
L 4684 2259 
L 4684 1753 
L 2931 1753 
L 2931 0 
L 2431 0 
L 2431 1753 
L 678 1753 
L 678 2259 
L 2431 2259 
L 2431 4013 
L 2931 4013 
z
" transform="scale(0.015625)"/>
     </defs>
     <use xlink:href="#DejaVuSerif-28"/>
     <use xlink:href="#DejaVuSerif-43" transform="translate(39.013672 0)"/>
     <use xlink:href="#DejaVuSerif-6c" transform="translate(115.527344 0)"/>
     <use xlink:href="#DejaVuSerif-61" transform="translate(147.509766 0)"/>
     <use xlink:href="#DejaVuSerif-75" transform="translate(207.128906 0)"/>
     <use xlink:href="#DejaVuSerif-64" transform="translate(271.533203 0)"/>
     <use xlink:href="#DejaVuSerif-65" transform="translate(335.546875 0)"/>
     <use xlink:href="#DejaVuSerif-20" transform="translate(394.726562 0)"/>
     <use xlink:href="#DejaVuSerif-41" transform="translate(426.513672 0)"/>
     <use xlink:href="#DejaVuSerif-50" transform="translate(498.730469 0)"/>
     <use xlink:href="#DejaVuSerif-49" transform="translate(566.015625 0)"/>
     <use xlink:href="#DejaVuSerif-20" transform="translate(605.517578 0)"/>
     <use xlink:href="#DejaVuSerif-2b" transform="translate(637.304688 0)"/>
     <use xlink:href="#DejaVuSerif-20" transform="translate(721.09375 0)"/>
     <use xlink:href="#DejaVuSerif-63" transform="translate(752.880859 0)"/>
     <use xlink:href="#DejaVuSerif-61" transform="translate(808.886719 0)"/>
     <use xlink:href="#DejaVuSerif-63" transform="translate(868.505859 0)"/>
     <use xlink:href="#DejaVuSerif-68" transform="translate(924.511719 0)"/>
     <use xlink:href="#DejaVuSerif-65" transform="translate(988.916016 0)"/>
     <use xlink:href="#DejaVuSerif-29" transform="translate(1048.095703 0)"/>
    </g>
   </g>
   <g id="text_8">
    <!-- FastAPI backend -->
    <g transform="translate(199.242422 174.960161) scale(0.09 -0.09)">
     <use xlink:href="#DejaVuSerif-46"/>
     <use xlink:href="#DejaVuSerif-61" transform="translate(62.634766 0)"/>
     <use xlink:href="#DejaVuSerif-73" transform="translate(122.253906 0)"/>
     <use xlink:href="#DejaVuSerif-74" transform="translate(173.572266 0)"/>
     <use xlink:href="#DejaVuSerif-41" transform="translate(213.757812 0)"/>
     <use xlink:href="#DejaVuSerif-50" transform="translate(285.974609 0)"/>
     <use xlink:href="#DejaVuSerif-49" transform="translate(353.259766 0)"/>
     <use xlink:href="#DejaVuSerif-20" transform="translate(392.761719 0)"/>
     <use xlink:href="#DejaVuSerif-62" transform="translate(424.548828 0)"/>
     <use xlink:href="#DejaVuSerif-61" transform="translate(488.5625 0)"/>
     <use xlink:href="#DejaVuSerif-63" transform="translate(548.181641 0)"/>
     <use xlink:href="#DejaVuSerif-6b" transform="translate(604.1875 0)"/>
     <use xlink:href="#DejaVuSerif-65" transform="translate(664.783203 0)"/>
     <use xlink:href="#DejaVuSerif-6e" transform="translate(723.962891 0)"/>
     <use xlink:href="#DejaVuSerif-64" transform="translate(788.367188 0)"/>
    </g>
   </g>
   <g id="text_9">
    <!-- Streamlit UI -->
    <g transform="translate(374.72846 174.960161) scale(0.09 -0.09)">
     <defs>
      <path id="DejaVuSerif-55" d="M 897 4331 
L 300 4331 
L 300 4666 
L 2125 4666 
L 2125 4331 
L 1528 4331 
L 1528 1919 
Q 1528 1025 1820 672 
Q 2113 319 2828 319 
Q 3544 319 3836 672 
Q 4128 1025 4128 1919 
L 4128 4331 
L 3531 4331 
L 3531 4666 
L 5106 4666 
L 5106 4331 
L 4513 4331 
L 4513 1856 
Q 4513 791 4103 350 
Q 3694 -91 2713 -91 
Q 1731 -91 1314 353 
Q 897 797 897 1856 
L 897 4331 
z
" transform="scale(0.015625)"/>
     </defs>
     <use xlink:href="#DejaVuSerif-53"/>
     <use xlink:href="#DejaVuSerif-74" transform="translate(68.505859 0)"/>
     <use xlink:href="#DejaVuSerif-72" transform="translate(108.691406 0)"/>
     <use xlink:href="#DejaVuSerif-65" transform="translate(156.494141 0)"/>
     <use xlink:href="#DejaVuSerif-61" transform="translate(215.673828 0)"/>
     <use xlink:href="#DejaVuSerif-6d" transform="translate(275.292969 0)"/>
     <use xlink:href="#DejaVuSerif-6c" transform="translate(370.117188 0)"/>
     <use xlink:href="#DejaVuSerif-69" transform="translate(402.099609 0)"/>
     <use xlink:href="#DejaVuSerif-74" transform="translate(434.082031 0)"/>
     <use xlink:href="#DejaVuSerif-20" transform="translate(474.267578 0)"/>
     <use xlink:href="#DejaVuSerif-55" transform="translate(506.054688 0)"/>
     <use xlink:href="#DejaVuSerif-49" transform="translate(590.332031 0)"/>
    </g>
   </g>
   <g id="text_10">
    <!-- Eight-layer thesis stack -->
    <g transform="translate(172.031406 11.958281) scale(0.11 -0.11)">
     <use xlink:href="#DejaVuSerif-45"/>
     <use xlink:href="#DejaVuSerif-69" transform="translate(72.998047 0)"/>
     <use xlink:href="#DejaVuSerif-67" transform="translate(104.980469 0)"/>
     <use xlink:href="#DejaVuSerif-68" transform="translate(168.994141 0)"/>
     <use xlink:href="#DejaVuSerif-74" transform="translate(233.398438 0)"/>
     <use xlink:href="#DejaVuSerif-2d" transform="translate(273.583984 0)"/>
     <use xlink:href="#DejaVuSerif-6c" transform="translate(307.373047 0)"/>
     <use xlink:href="#DejaVuSerif-61" transform="translate(339.355469 0)"/>
     <use xlink:href="#DejaVuSerif-79" transform="translate(398.974609 0)"/>
     <use xlink:href="#DejaVuSerif-65" transform="translate(455.46875 0)"/>
     <use xlink:href="#DejaVuSerif-72" transform="translate(514.648438 0)"/>
     <use xlink:href="#DejaVuSerif-20" transform="translate(562.451172 0)"/>
     <use xlink:href="#DejaVuSerif-74" transform="translate(594.238281 0)"/>
     <use xlink:href="#DejaVuSerif-68" transform="translate(634.423828 0)"/>
     <use xlink:href="#DejaVuSerif-65" transform="translate(698.828125 0)"/>
     <use xlink:href="#DejaVuSerif-73" transform="translate(758.007812 0)"/>
     <use xlink:href="#DejaVuSerif-69" transform="translate(809.326172 0)"/>
     <use xlink:href="#DejaVuSerif-73" transform="translate(841.308594 0)"/>
     <use xlink:href="#DejaVuSerif-20" transform="translate(892.626953 0)"/>
     <use xlink:href="#DejaVuSerif-73" transform="translate(924.414062 0)"/>
     <use xlink:href="#DejaVuSerif-74" transform="translate(975.732422 0)"/>
     <use xlink:href="#DejaVuSerif-61" transform="translate(1015.917969 0)"/>
     <use xlink:href="#DejaVuSerif-63" transform="translate(1075.537109 0)"/>
     <use xlink:href="#DejaVuSerif-6b" transform="translate(1131.542969 0)"/>
    </g>
   </g>
  </g>
 </g>
 <defs>
  <clipPath id="p07bbfb84d1">
   <rect x="3.6" y="6.470471" width="468" height="219.5124"/>
  </clipPath>
 </defs>
</svg>
