<?xml version="1.0" encoding="utf-8" standalone="no"?>
<!DOCTYPE svg PUBLIC "-//W3C//DTD SVG 1.1//EN"
  "http://www.w3.org/Graphics/SVG/1.1/DTD/svg11.dtd">
<svg xmlns:xlink="http://www.w3.org/1999/xlink" width="475.178437pt" height="230.746719pt" viewBox="0 0 475.178437 230.746719" xmlns="http://www.w3.org/2000/svg" version="1.1">
 <metadata>
  <rdf:RDF xmlns:dc="http://purl.org/dc/elements/1.1/" xmlns:cc="http://creativecommons.org/ns#" xmlns:rdf="http://www.w3.org/1999/02/22-rdf-syntax-ns#">
   <cc:Work>
    <dc:type rdf:resource="http://purl.org/dc/dcmitype/StillImage"/>
    <dc:date>2026-04-24T15:22:20.246567</dc:date>
    <dc:format>image/svg+xml</dc:format>
    <dc:creator>
     <cc:Agent>
      <dc:title>Matplotlib v3.10.8, https://matplotlib.org/</dc:title>
     </cc:Agent>
    </dc:creator>
   </cc:Work>
  </rdf:RDF>
 </metadata>
 <defs>
  <style type="text/css">*{stroke-linejoin: round; stroke-linecap: butt}</style>
 </defs>
 <g id="figure_1">
  <g id="patch_1">
   <path d="M 0 230.746719 
L 475.178437 230.746719 
L 475.178437 0 
L 0 0 
z
" style="fill: #ffffff"/>
  </g>
  <g id="axes_1">
   <g id="patch_2">
    <path d="M 47.325313 197.758281 
L 471.578438 197.758281 
L 471.578438 17.958281 
L 47.325313 17.958281 
z
" style="fill: #ffffff"/>
   </g>
   <g id="matplotlib.axis_1">
    <g id="xtick_1">
     <g id="line2d_1">
      <path d="M 66.609545 197.758281 
L 66.609545 17.958281 
" clip-path="url(#p9f48b4e452)" style="fill: none; stroke-dasharray: 2.96,1.28; stroke-dashoffset: 0; stroke: #b0b0b0; stroke-opacity: 0.25; stroke-width: 0.8"/>
     </g>
     <g id="line2d_2">
      <defs>
       <path id="m111e70980f" d="M 0 0 
L 0 3.5 
" style="stroke: #000000; stroke-width: 0.8"/>
      </defs>
      <g>
       <use xlink:href="#m111e70980f" x="66.609545" y="197.758281" style="stroke: #000000; stroke-width: 0.8"/>
      </g>
     </g>
     <g id="text_1">
      <!-- 0 -->
      <g transform="translate(63.74642 211.596875) scale(0.09 -0.09)">
       <defs>
        <path id="DejaVuSerif-30" d="M 2034 219 
Q 2513 219 2750 744 
Q 2988 1269 2988 2328 
Q 2988 3391 2750 3916 
Q 2513 4441 2034 4441 
Q 1556 4441 1318 3916 
Q 1081 3391 1081 2328 
Q 1081 1269 1318 744 
Q 1556 219 2034 219 
z
M 2034 -91 
Q 1275 -91 848 546 
Q 422 1184 422 2328 
Q 422 3475 848 4112 
Q 1275 4750 2034 4750 
Q 2797 4750 3222 4112 
Q 3647 3475 3647 2328 
Q 3647 1184 3222 546 
Q 2797 -91 2034 -91 
z
" transform="scale(0.015625)"/>
       </defs>
       <use xlink:href="#DejaVuSerif-30"/>
      </g>
     </g>
    </g>
    <g id="xtick_2">
     <g id="line2d_3">
      <path d="M 143.90106 197.758281 
L 143.90106 17.958281 
" clip-path="url(#p9f48b4e452)" style="fill: none; stroke-dasharray: 2.96,1.28; stroke-dashoffset: 0; stroke: #b0b0b0; stroke-opacity: 0.25; stroke-width: 0.8"/>
     </g>
     <g id="line2d_4">
      <g>
       <use xlink:href="#m111e70980f" x="143.90106" y="197.758281" style="stroke: #000000; stroke-width: 0.8"/>
      </g>
     </g>
     <g id="text_2">
      <!-- 100 -->
      <g transform="translate(135.311685 211.596875) scale(0.09 -0.09)">
       <defs>
        <path id="DejaVuSerif-31" d="M 909 0 
L 909 331 
L 1722 331 
L 1722 4213 
L 781 3603 
L 781 4013 
L 1919 4750 
L 2350 4750 
L 2350 331 
L 3163 331 
L 3163 0 
L 909 0 
z
" transform="scale(0.015625)"/>
       </defs>
       <use xlink:href="#DejaVuSerif-31"/>
       <use xlink:href="#DejaVuSerif-30" transform="translate(63.623047 0)"/>
       <use xlink:href="#DejaVuSerif-30" transform="translate(127.246094 0)"/>
      </g>
     </g>
    </g>
    <g id="xtick_3">
     <g id="line2d_5">
      <path d="M 221.192575 197.758281 
L 221.192575 17.958281 
" clip-path="url(#p9f48b4e452)" style="fill: none; stroke-dasharray: 2.96,1.28; stroke-dashoffset: 0; stroke: #b0b0b0; stroke-opacity: 0.25; stroke-width: 0.8"/>
     </g>
     <g id="line2d_6">
      <g>
       <use xlink:href="#m111e70980f" x="221.192575" y="197.758281" style="stroke: #000000; stroke-width: 0.8"/>
      </g>
     </g>
     <g id="text_3">
      <!-- 200 -->
      <g transform="translate(212.6032 211.596875) scale(0.09 -0.09)">
       <defs>
        <path id="DejaVuSerif-32" d="M 819 3553 
L 469 3553 
L 469 4384 
Q 803 4563 1142 4656 
Q 1481 4750 1806 4750 
Q 2534 4750 2956 4397 
Q 3378 4044 3378 3438 
Q 3378 2753 2422 1800 
Q 2347 1728 2309 1691 
L 1131 513 
L 3078 513 
L 3078 1088 
L 3444 1088 
L 3444 0 
L 434 0 
L 434 341 
L 1850 1753 
Q 2319 2222 2519 2614 
Q 2719 3006 2719 3438 
Q 2719 3909 2473 4175 
Q 2228 4441 1797 4441 
Q 1350 4441 1106 4219 
Q 863 3997 819 3553 
z
" transform="scale(0.015625)"/>
       </defs>
       <use xlink:href="#DejaVuSerif-32"/>
       <use xlink:href="#DejaVuSerif-30" transform="translate(63.623047 0)"/>
       <use xlink:href="#DejaVuSerif-30" transform="translate(127.246094 0)"/>
      </g>
     </g>
    </g>
    <g id="xtick_4">
     <g id="line2d_7">
      <path d="M 298.48409 197.758281 
L 298.48409 17.958281 
" clip-path="url(#p9f48b4e452)" style="fill: none; stroke-dasharray: 2.96,1.28; stroke-dashoffset: 0; stroke: #b0b0b0; stroke-opacity: 0.25; stroke-width: 0.8"/>
     </g>
     <g id="line2d_8">
      <g>
       <use xlink:href="#m111e70980f" x="298.48409" y="197.758281" style="stroke: #000000; stroke-width: 0.8"/>
      </g>
     </g>
     <g id="text_4">
      <!-- 300 -->
      <g transform="translate(289.894715 211.596875) scale(0.09 -0.09)">
       <defs>
        <path id="DejaVuSerif-33" d="M 622 4469 
Q 988 4606 1323 4678 
Q 1659 4750 1953 4750 
Q 2638 4750 3022 4454 
Q 3406 4159 3406 3634 
Q 3406 3213 3140 2930 
Q 2875 2647 2388 2547 
Q 2963 2466 3280 2130 
Q 3597 1794 3597 1259 
Q 3597 606 3158 257 
Q 2719 -91 1894 -91 
Q 1528 -91 1179 -12 
Q 831 66 488 225 
L 488 1131 
L 838 1131 
Q 869 681 1141 450 
Q 1413 219 1906 219 
Q 2384 219 2661 495 
Q 2938 772 2938 1253 
Q 2938 1803 2653 2086 
Q 2369 2369 1819 2369 
L 1522 2369 
L 1522 2688 
L 1678 2688 
Q 2225 2688 2498 2914 
Q 2772 3141 2772 3597 
Q 2772 4006 2547 4223 
Q 2322 4441 1900 4441 
Q 1478 4441 1245 4241 
Q 1013 4041 972 3647 
L 622 3647 
L 622 4469 
z
" transform="scale(0.015625)"/>
       </defs>
       <use xlink:href="#DejaVuSerif-33"/>
       <use xlink:href="#DejaVuSerif-30" transform="translate(63.623047 0)"/>
       <use xlink:href="#DejaVuSerif-30" transform="translate(127.246094 0)"/>
      </g>
     </g>
    </g>
    <g id="xtick_5">
     <g id="line2d_9">
      <path d="M 375.775605 197.758281 
L 375.775605 17.958281 
" clip-path="url(#p9f48b4e452)" style="fill: none; stroke-dasharray: 2.96,1.28; stroke-dashoffset: 0; stroke: #b0b0b0; stroke-opacity: 0.25; stroke-width: 0.8"/>
     </g>
     <g id="line2d_10">
      <g>
       <use xlink:href="#m111e70980f" x="375.775605" y="197.758281" style="stroke: #000000; stroke-width: 0.8"/>
      </g>
     </g>
     <g id="text_5">
      <!-- 400 -->
      <g transform="translate(367.18623 211.596875) scale(0.09 -0.09)">
       <defs>
        <path id="DejaVuSerif-34" d="M 2234 1581 
L 2234 4063 
L 641 1581 
L 2234 1581 
z
M 3609 0 
L 1484 0 
L 1484 331 
L 2234 331 
L 2234 1247 
L 197 1247 
L 197 1588 
L 2241 4750 
L 2859 4750 
L 2859 1581 
L 3750 1581 
L 3750 1247 
L 2859 1247 
L 2859 331 
L 3609 331 
L 3609 0 
z
" transform="scale(0.015625)"/>
       </defs>
       <use xlink:href="#DejaVuSerif-34"/>
       <use xlink:href="#DejaVuSerif-30" transform="translate(63.623047 0)"/>
       <use xlink:href="#DejaVuSerif-30" transform="translate(127.246094 0)"/>
      </g>
     </g>
    </g>
    <g id="xtick_6">
     <g id="line2d_11">
      <path d="M 453.06712 197.758281 
L 453.06712 17.958281 
" clip-path="url(#p9f48b4e452)" style="fill: none; stroke-dasharray: 2.96,1.28; stroke-dashoffset: 0; stroke: #b0b0b0; stroke-opacity: 0.25; stroke-width: 0.8"/>
     </g>
     <g id="line2d_12">
      <g>
       <use xlink:href="#m111e70980f" x="453.06712" y="197.758281" style="stroke: #000000; stroke-width: 0.8"/>
      </g>
     </g>
     <g id="text_6">
      <!-- 500 -->
      <g transform="translate(444.477745 211.596875) scale(0.09 -0.09)">
       <defs>
        <path id="DejaVuSerif-35" d="M 3219 4666 
L 3219 4153 
L 1081 4153 
L 1081 2816 
Q 1244 2928 1461 2984 
Q 1678 3041 1947 3041 
Q 2703 3041 3140 2622 
Q 3578 2203 3578 1478 
Q 3578 738 3136 323 
Q 2694 -91 1894 -91 
Q 1572 -91 1234 -12 
Q 897 66 544 225 
L 544 1131 
L 897 1131 
Q 925 688 1179 453 
Q 1434 219 1894 219 
Q 2388 219 2653 544 
Q 2919 869 2919 1478 
Q 2919 2084 2655 2407 
Q 2391 2731 1894 2731 
Q 1613 2731 1398 2631 
Q 1184 2531 1019 2322 
L 750 2322 
L 750 4666 
L 3219 4666 
z
" transform="scale(0.015625)"/>
       </defs>
       <use xlink:href="#DejaVuSerif-35"/>
       <use xlink:href="#DejaVuSerif-30" transform="translate(63.623047 0)"/>
       <use xlink:href="#DejaVuSerif-30" transform="translate(127.246094 0)"/>
      </g>
     </g>
    </g>
    <g id="text_7">
     <!-- generation -->
     <g transform="translate(231.901875 224.924844) scale(0.1 -0.1)">
      <defs>
       <path id="DejaVuSerif-67" d="M 3359 2988 
L 3359 72 
Q 3359 -644 2965 -1033 
Q 2572 -1422 1844 -1422 
Q 1516 -1422 1216 -1362 
Q 916 -1303 641 -1184 
L 641 -488 
L 941 -488 
Q 997 -813 1206 -963 
Q 1416 -1113 1806 -1113 
Q 2313 -1113 2548 -827 
Q 2784 -541 2784 72 
L 2784 519 
Q 2616 206 2355 57 
Q 2094 -91 1709 -91 
Q 1097 -91 708 395 
Q 319 881 319 1663 
Q 319 2444 706 2928 
Q 1094 3413 1709 3413 
Q 2094 3413 2355 3264 
Q 2616 3116 2784 2803 
L 2784 3322 
L 3909 3322 
L 3909 2988 
L 3359 2988 
z
M 2784 1825 
Q 2784 2422 2554 2737 
Q 2325 3053 1888 3053 
Q 1444 3053 1217 2703 
Q 991 2353 991 1663 
Q 991 975 1217 622 
Q 1444 269 1888 269 
Q 2325 269 2554 583 
Q 2784 897 2784 1497 
L 2784 1825 
z
" transform="scale(0.015625)"/>
       <path id="DejaVuSerif-65" d="M 3469 1600 
L 991 1600 
L 991 1575 
Q 991 903 1244 561 
Q 1497 219 1991 219 
Q 2369 219 2611 417 
Q 2853 616 2950 1006 
L 3413 1006 
Q 3275 459 2904 184 
Q 2534 -91 1931 -91 
Q 1203 -91 761 389 
Q 319 869 319 1663 
Q 319 2450 753 2931 
Q 1188 3413 1894 3413 
Q 2647 3413 3050 2948 
Q 3453 2484 3469 1600 
z
M 2791 1931 
Q 2772 2513 2545 2808 
Q 2319 3103 1894 3103 
Q 1497 3103 1269 2806 
Q 1041 2509 991 1931 
L 2791 1931 
z
" transform="scale(0.015625)"/>
       <path id="DejaVuSerif-6e" d="M 263 0 
L 263 331 
L 781 331 
L 781 2988 
L 231 2988 
L 231 3322 
L 1356 3322 
L 1356 2731 
Q 1516 3069 1770 3241 
Q 2025 3413 2363 3413 
Q 2913 3413 3172 3097 
Q 3431 2781 3431 2113 
L 3431 331 
L 3944 331 
L 3944 0 
L 2356 0 
L 2356 331 
L 2853 331 
L 2853 1931 
Q 2853 2541 2703 2767 
Q 2553 2994 2175 2994 
Q 1775 2994 1565 2701 
Q 1356 2409 1356 1850 
L 1356 331 
L 1856 331 
L 1856 0 
L 263 0 
z
" transform="scale(0.015625)"/>
       <path id="DejaVuSerif-72" d="M 3059 3328 
L 3059 2497 
L 2728 2497 
Q 2713 2744 2591 2866 
Q 2469 2988 2234 2988 
Q 1809 2988 1582 2694 
Q 1356 2400 1356 1850 
L 1356 331 
L 2022 331 
L 2022 0 
L 263 0 
L 263 331 
L 781 331 
L 781 2994 
L 231 2994 
L 231 3322 
L 1356 3322 
L 1356 2731 
Q 1525 3078 1790 3245 
Q 2056 3413 2438 3413 
Q 2578 3413 2733 3391 
Q 2888 3369 3059 3328 
z
" transform="scale(0.015625)"/>
       <path id="DejaVuSerif-61" d="M 2547 1044 
L 2547 1747 
L 1806 1747 
Q 1378 1747 1168 1562 
Q 959 1378 959 997 
Q 959 650 1171 447 
Q 1384 244 1747 244 
Q 2106 244 2326 466 
Q 2547 688 2547 1044 
z
M 3122 2075 
L 3122 331 
L 3634 331 
L 3634 0 
L 2547 0 
L 2547 359 
Q 2356 128 2106 18 
Q 1856 -91 1522 -91 
Q 969 -91 644 203 
Q 319 497 319 997 
Q 319 1513 691 1797 
Q 1063 2081 1741 2081 
L 2547 2081 
L 2547 2309 
Q 2547 2688 2317 2895 
Q 2088 3103 1672 3103 
Q 1328 3103 1125 2947 
Q 922 2791 872 2484 
L 575 2484 
L 575 3156 
Q 875 3284 1158 3348 
Q 1441 3413 1709 3413 
Q 2400 3413 2761 3070 
Q 3122 2728 3122 2075 
z
" transform="scale(0.015625)"/>
       <path id="DejaVuSerif-74" d="M 691 2988 
L 184 2988 
L 184 3322 
L 691 3322 
L 691 4353 
L 1269 4353 
L 1269 3322 
L 2350 3322 
L 2350 2988 
L 1269 2988 
L 1269 878 
Q 1269 456 1350 337 
Q 1431 219 1650 219 
Q 1875 219 1978 351 
Q 2081 484 2088 781 
L 2522 781 
Q 2497 328 2275 118 
Q 2053 -91 1600 -91 
Q 1103 -91 897 129 
Q 691 350 691 878 
L 691 2988 
z
" transform="scale(0.015625)"/>
       <path id="DejaVuSerif-69" d="M 622 4353 
Q 622 4497 726 4603 
Q 831 4709 978 4709 
Q 1122 4709 1226 4603 
Q 1331 4497 1331 4353 
Q 1331 4206 1228 4103 
Q 1125 4000 978 4000 
Q 831 4000 726 4103 
Q 622 4206 622 4353 
z
M 1356 331 
L 1900 331 
L 1900 0 
L 231 0 
L 231 331 
L 781 331 
L 781 2988 
L 231 2988 
L 231 3322 
L 1356 3322 
L 1356 331 
z
" transform="scale(0.015625)"/>
       <path id="DejaVuSerif-6f" d="M 1925 219 
Q 2388 219 2623 584 
Q 2859 950 2859 1663 
Q 2859 2375 2623 2739 
Q 2388 3103 1925 3103 
Q 1463 3103 1227 2739 
Q 991 2375 991 1663 
Q 991 950 1228 584 
Q 1466 219 1925 219 
z
M 1925 -91 
Q 1200 -91 759 389 
Q 319 869 319 1663 
Q 319 2456 758 2934 
Q 1197 3413 1925 3413 
Q 2653 3413 3092 2934 
Q 3531 2456 3531 1663 
Q 3531 869 3092 389 
Q 2653 -91 1925 -91 
z
" transform="scale(0.015625)"/>
      </defs>
      <use xlink:href="#DejaVuSerif-67"/>
      <use xlink:href="#DejaVuSerif-65" transform="translate(64.013672 0)"/>
      <use xlink:href="#DejaVuSerif-6e" transform="translate(123.193359 0)"/>
      <use xlink:href="#DejaVuSerif-65" transform="translate(187.597656 0)"/>
      <use xlink:href="#DejaVuSerif-72" transform="translate(246.777344 0)"/>
      <use xlink:href="#DejaVuSerif-61" transform="translate(294.580078 0)"/>
      <use xlink:href="#DejaVuSerif-74" transform="translate(354.199219 0)"/>
      <use xlink:href="#DejaVuSerif-69" transform="translate(394.384766 0)"/>
      <use xlink:href="#DejaVuSerif-6f" transform="translate(426.367188 0)"/>
      <use xlink:href="#DejaVuSerif-6e" transform="translate(486.572266 0)"/>
     </g>
    </g>
   </g>
   <g id="matplotlib.axis_2">
    <g id="ytick_1">
     <g id="line2d_13">
      <path d="M 47.325313 197.758281 
L 471.578438 197.758281 
" clip-path="url(#p9f48b4e452)" style="fill: none; stroke-dasharray: 2.96,1.28; stroke-dashoffset: 0; stroke: #b0b0b0; stroke-opacity: 0.25; stroke-width: 0.8"/>
     </g>
     <g id="line2d_14">
      <defs>
       <path id="m0c38f3a77d" d="M 0 0 
L -3.5 0 
" style="stroke: #000000; stroke-width: 0.8"/>
      </defs>
      <g>
       <use xlink:href="#m0c38f3a77d" x="47.325313" y="197.758281" style="stroke: #000000; stroke-width: 0.8"/>
      </g>
     </g>
     <g id="text_8">
      <!-- 5000 -->
      <g transform="translate(17.420313 201.177578) scale(0.09 -0.09)">
       <use xlink:href="#DejaVuSerif-35"/>
       <use xlink:href="#DejaVuSerif-30" transform="translate(63.623047 0)"/>
       <use xlink:href="#DejaVuSerif-30" transform="translate(127.246094 0)"/>
       <use xlink:href="#DejaVuSerif-30" transform="translate(190.869141 0)"/>
      </g>
     </g>
    </g>
    <g id="ytick_2">
     <g id="line2d_15">
      <path d="M 47.325313 161.798281 
L 471.578438 161.798281 
" clip-path="url(#p9f48b4e452)" style="fill: none; stroke-dasharray: 2.96,1.28; stroke-dashoffset: 0; stroke: #b0b0b0; stroke-opacity: 0.25; stroke-width: 0.8"/>
     </g>
     <g id="line2d_16">
      <g>
       <use xlink:href="#m0c38f3a77d" x="47.325313" y="161.798281" style="stroke: #000000; stroke-width: 0.8"/>
      </g>
     </g>
     <g id="text_9">
      <!-- 5500 -->
      <g transform="translate(17.420313 165.217578) scale(0.09 -0.09)">
       <use xlink:href="#DejaVuSerif-35"/>
       <use xlink:href="#DejaVuSerif-35" transform="translate(63.623047 0)"/>
       <use xlink:href="#DejaVuSerif-30" transform="translate(127.246094 0)"/>
       <use xlink:href="#DejaVuSerif-30" transform="translate(190.869141 0)"/>
      </g>
     </g>
    </g>
    <g id="ytick_3">
     <g id="line2d_17">
      <path d="M 47.325313 125.838281 
L 471.578438 125.838281 
" clip-path="url(#p9f48b4e452)" style="fill: none; stroke-dasharray: 2.96,1.28; stroke-dashoffset: 0; stroke: #b0b0b0; stroke-opacity: 0.25; stroke-width: 0.8"/>
     </g>
     <g id="line2d_18">
      <g>
       <use xlink:href="#m0c38f3a77d" x="47.325313" y="125.838281" style="stroke: #000000; stroke-width: 0.8"/>
      </g>
     </g>
     <g id="text_10">
      <!-- 6000 -->
      <g transform="translate(17.420313 129.257578) scale(0.09 -0.09)">
       <defs>
        <path id="DejaVuSerif-36" d="M 2094 219 
Q 2534 219 2771 542 
Q 3009 866 3009 1472 
Q 3009 2078 2771 2401 
Q 2534 2725 2094 2725 
Q 1647 2725 1412 2412 
Q 1178 2100 1178 1509 
Q 1178 888 1415 553 
Q 1653 219 2094 219 
z
M 1075 2569 
Q 1288 2803 1556 2918 
Q 1825 3034 2163 3034 
Q 2859 3034 3264 2615 
Q 3669 2197 3669 1472 
Q 3669 763 3233 336 
Q 2797 -91 2069 -91 
Q 1278 -91 853 498 
Q 428 1088 428 2181 
Q 428 3406 931 4078 
Q 1434 4750 2350 4750 
Q 2597 4750 2869 4703 
Q 3141 4656 3425 4563 
L 3425 3794 
L 3072 3794 
Q 3034 4109 2831 4275 
Q 2628 4441 2284 4441 
Q 1678 4441 1381 3981 
Q 1084 3522 1075 2569 
z
" transform="scale(0.015625)"/>
       </defs>
       <use xlink:href="#DejaVuSerif-36"/>
       <use xlink:href="#DejaVuSerif-30" transform="translate(63.623047 0)"/>
       <use xlink:href="#DejaVuSerif-30" transform="translate(127.246094 0)"/>
       <use xlink:href="#DejaVuSerif-30" transform="translate(190.869141 0)"/>
      </g>
     </g>
    </g>
    <g id="ytick_4">
     <g id="line2d_19">
      <path d="M 47.325313 89.878281 
L 471.578438 89.878281 
" clip-path="url(#p9f48b4e452)" style="fill: none; stroke-dasharray: 2.96,1.28; stroke-dashoffset: 0; stroke: #b0b0b0; stroke-opacity: 0.25; stroke-width: 0.8"/>
     </g>
     <g id="line2d_20">
      <g>
       <use xlink:href="#m0c38f3a77d" x="47.325313" y="89.878281" style="stroke: #000000; stroke-width: 0.8"/>
      </g>
     </g>
     <g id="text_11">
      <!-- 6500 -->
      <g transform="translate(17.420313 93.297578) scale(0.09 -0.09)">
       <use xlink:href="#DejaVuSerif-36"/>
       <use xlink:href="#DejaVuSerif-35" transform="translate(63.623047 0)"/>
       <use xlink:href="#DejaVuSerif-30" transform="translate(127.246094 0)"/>
       <use xlink:href="#DejaVuSerif-30" transform="translate(190.869141 0)"/>
      </g>
     </g>
    </g>
    <g id="ytick_5">
     <g id="line2d_21">
      <path d="M 47.325313 53.918281 
L 471.578438 53.918281 
" clip-path="url(#p9f48b4e452)" style="fill: none; stroke-dasharray: 2.96,1.28; stroke-dashoffset: 0; stroke: #b0b0b0; stroke-opacity: 0.25; stroke-width: 0.8"/>
     </g>
     <g id="line2d_22">
      <g>
       <use xlink:href="#m0c38f3a77d" x="47.325313" y="53.918281" style="stroke: #000000; stroke-width: 0.8"/>
      </g>
     </g>
     <g id="text_12">
      <!-- 7000 -->
      <g transform="translate(17.420313 57.337578) scale(0.09 -0.09)">
       <defs>
        <path id="DejaVuSerif-37" d="M 3609 4347 
L 1784 0 
L 1319 0 
L 3059 4153 
L 903 4153 
L 903 3578 
L 538 3578 
L 538 4666 
L 3609 4666 
L 3609 4347 
z
" transform="scale(0.015625)"/>
       </defs>
       <use xlink:href="#DejaVuSerif-37"/>
       <use xlink:href="#DejaVuSerif-30" transform="translate(63.623047 0)"/>
       <use xlink:href="#DejaVuSerif-30" transform="translate(127.246094 0)"/>
       <use xlink:href="#DejaVuSerif-30" transform="translate(190.869141 0)"/>
      </g>
     </g>
    </g>
    <g id="ytick_6">
     <g id="line2d_23">
      <path d="M 47.325313 17.958281 
L 471.578438 17.958281 
" clip-path="url(#p9f48b4e452)" style="fill: none; stroke-dasharray: 2.96,1.28; stroke-dashoffset: 0; stroke: #b0b0b0; stroke-opacity: 0.25; stroke-width: 0.8"/>
     </g>
     <g id="line2d_24">
      <g>
       <use xlink:href="#m0c38f3a77d" x="47.325313" y="17.958281" style="stroke: #000000; stroke-width: 0.8"/>
      </g>
     </g>
     <g id="text_13">
      <!-- 7500 -->
      <g transform="translate(17.420313 21.377578) scale(0.09 -0.09)">
       <use xlink:href="#DejaVuSerif-37"/>
       <use xlink:href="#DejaVuSerif-35" transform="translate(63.623047 0)"/>
       <use xlink:href="#DejaVuSerif-30" transform="translate(127.246094 0)"/>
       <use xlink:href="#DejaVuSerif-30" transform="translate(190.869141 0)"/>
      </g>
     </g>
    </g>
    <g id="text_14">
     <!-- best feasible weight (lb) -->
     <g transform="translate(11.198438 169.046562) rotate(-90) scale(0.1 -0.1)">
      <defs>
       <path id="DejaVuSerif-62" d="M 738 331 
L 738 4531 
L 184 4531 
L 184 4863 
L 1313 4863 
L 1313 2803 
Q 1481 3116 1742 3264 
Q 2003 3413 2388 3413 
Q 3000 3413 3387 2928 
Q 3775 2444 3775 1663 
Q 3775 881 3387 395 
Q 3000 -91 2388 -91 
Q 2003 -91 1742 57 
Q 1481 206 1313 519 
L 1313 0 
L 184 0 
L 184 331 
L 738 331 
z
M 1313 1497 
Q 1313 897 1542 583 
Q 1772 269 2209 269 
Q 2650 269 2876 622 
Q 3103 975 3103 1663 
Q 3103 2353 2876 2703 
Q 2650 3053 2209 3053 
Q 1772 3053 1542 2737 
Q 1313 2422 1313 1825 
L 1313 1497 
z
" transform="scale(0.015625)"/>
       <path id="DejaVuSerif-73" d="M 359 184 
L 359 959 
L 691 959 
Q 703 588 923 403 
Q 1144 219 1575 219 
Q 1963 219 2166 364 
Q 2369 509 2369 788 
Q 2369 1006 2220 1140 
Q 2072 1275 1594 1428 
L 1178 1569 
Q 750 1706 558 1912 
Q 366 2119 366 2438 
Q 366 2894 700 3153 
Q 1034 3413 1625 3413 
Q 1888 3413 2178 3344 
Q 2469 3275 2778 3144 
L 2778 2419 
L 2447 2419 
Q 2434 2741 2221 2922 
Q 2009 3103 1644 3103 
Q 1281 3103 1095 2975 
Q 909 2847 909 2591 
Q 909 2381 1050 2254 
Q 1191 2128 1613 1997 
L 2069 1856 
Q 2541 1709 2748 1489 
Q 2956 1269 2956 922 
Q 2956 450 2595 179 
Q 2234 -91 1600 -91 
Q 1278 -91 972 -22 
Q 666 47 359 184 
z
" transform="scale(0.015625)"/>
       <path id="DejaVuSerif-20" transform="scale(0.015625)"/>
       <path id="DejaVuSerif-66" d="M 2753 4078 
L 2450 4078 
Q 2447 4313 2317 4434 
Q 2188 4556 1941 4556 
Q 1619 4556 1487 4379 
Q 1356 4203 1356 3750 
L 1356 3322 
L 2284 3322 
L 2284 2988 
L 1356 2988 
L 1356 331 
L 2094 331 
L 2094 0 
L 231 0 
L 231 331 
L 781 331 
L 781 2988 
L 231 2988 
L 231 3322 
L 781 3322 
L 781 3738 
Q 781 4294 1070 4578 
Q 1359 4863 1919 4863 
Q 2128 4863 2337 4825 
Q 2547 4788 2753 4709 
L 2753 4078 
z
" transform="scale(0.015625)"/>
       <path id="DejaVuSerif-6c" d="M 1313 331 
L 1856 331 
L 1856 0 
L 184 0 
L 184 331 
L 738 331 
L 738 4531 
L 184 4531 
L 184 4863 
L 1313 4863 
L 1313 331 
z
" transform="scale(0.015625)"/>
       <path id="DejaVuSerif-77" d="M 3072 3322 
L 3922 728 
L 4672 2988 
L 4191 2988 
L 4191 3322 
L 5394 3322 
L 5394 2988 
L 5025 2988 
L 4038 0 
L 3559 0 
L 2741 2484 
L 1919 0 
L 1459 0 
L 475 2988 
L 103 2988 
L 103 3322 
L 1606 3322 
L 1606 2988 
L 1069 2988 
L 1813 728 
L 2669 3322 
L 3072 3322 
z
" transform="scale(0.015625)"/>
       <path id="DejaVuSerif-68" d="M 263 0 
L 263 331 
L 781 331 
L 781 4531 
L 231 4531 
L 231 4863 
L 1356 4863 
L 1356 2731 
Q 1516 3069 1770 3241 
Q 2025 3413 2363 3413 
Q 2913 3413 3172 3097 
Q 3431 2781 3431 2113 
L 3431 331 
L 3944 331 
L 3944 0 
L 2356 0 
L 2356 331 
L 2853 331 
L 2853 1931 
Q 2853 2541 2704 2764 
Q 2556 2988 2175 2988 
Q 1775 2988 1565 2697 
Q 1356 2406 1356 1850 
L 1356 331 
L 1856 331 
L 1856 0 
L 263 0 
z
" transform="scale(0.015625)"/>
       <path id="DejaVuSerif-28" d="M 2041 -997 
Q 1281 -656 893 83 
Q 506 822 506 1931 
Q 506 3044 893 3783 
Q 1281 4522 2041 4863 
L 2041 4556 
Q 1559 4225 1350 3623 
Q 1141 3022 1141 1931 
Q 1141 844 1350 242 
Q 1559 -359 2041 -691 
L 2041 -997 
z
" transform="scale(0.015625)"/>
       <path id="DejaVuSerif-29" d="M 453 -997 
L 453 -691 
Q 934 -359 1145 242 
Q 1356 844 1356 1931 
Q 1356 3022 1145 3623 
Q 934 4225 453 4556 
L 453 4863 
Q 1216 4522 1603 3783 
Q 1991 3044 1991 1931 
Q 1991 822 1603 83 
Q 1216 -656 453 -997 
z
" transform="scale(0.015625)"/>
      </defs>
      <use xlink:href="#DejaVuSerif-62"/>
      <use xlink:href="#DejaVuSerif-65" transform="translate(64.013672 0)"/>
      <use xlink:href="#DejaVuSerif-73" transform="translate(123.193359 0)"/>
      <use xlink:href="#DejaVuSerif-74" transform="translate(174.511719 0)"/>
      <use xlink:href="#DejaVuSerif-20" transform="translate(214.697266 0)"/>
      <use xlink:href="#DejaVuSerif-66" transform="translate(246.484375 0)"/>
      <use xlink:href="#DejaVuSerif-65" transform="translate(283.496094 0)"/>
      <use xlink:href="#DejaVuSerif-61" transform="translate(342.675781 0)"/>
      <use xlink:href="#DejaVuSerif-73" transform="translate(402.294922 0)"/>
      <use xlink:href="#DejaVuSerif-69" transform="translate(453.613281 0)"/>
      <use xlink:href="#DejaVuSerif-62" transform="translate(485.595703 0)"/>
      <use xlink:href="#DejaVuSerif-6c" transform="translate(549.609375 0)"/>
      <use xlink:href="#DejaVuSerif-65" transform="translate(581.591797 0)"/>
      <use xlink:href="#DejaVuSerif-20" transform="translate(640.771484 0)"/>
      <use xlink:href="#DejaVuSerif-77" transform="translate(672.558594 0)"/>
      <use xlink:href="#DejaVuSerif-65" transform="translate(758.154297 0)"/>
      <use xlink:href="#DejaVuSerif-69" transform="translate(817.333984 0)"/>
      <use xlink:href="#DejaVuSerif-67" transform="translate(849.316406 0)"/>
      <use xlink:href="#DejaVuSerif-68" transform="translate(913.330078 0)"/>
      <use xlink:href="#DejaVuSerif-74" transform="translate(977.734375 0)"/>
      <use xlink:href="#DejaVuSerif-20" transform="translate(1017.919922 0)"/>
      <use xlink:href="#DejaVuSerif-28" transform="translate(1049.707031 0)"/>
      <use xlink:href="#DejaVuSerif-6c" transform="translate(1088.720703 0)"/>
      <use xlink:href="#DejaVuSerif-62" transform="translate(1120.703125 0)"/>
      <use xlink:href="#DejaVuSerif-29" transform="translate(1184.716797 0)"/>
     </g>
    </g>
   </g>
   <g id="line2d_25">
    <path d="M 66.840045 231.746719 
L 67.382461 135.783313 
L 68.155376 59.892154 
L 68.928291 59.892154 
L 69.701206 93.338708 
L 70.474121 93.338708 
L 71.247036 102.382938 
L 72.019951 104.78669 
L 72.792867 131.132921 
L 73.565782 142.718364 
L 74.338697 142.718364 
L 75.111612 148.924091 
L 75.884527 149.441937 
L 76.657442 152.246648 
L 77.430358 155.702429 
L 78.203273 160.34155 
L 78.976188 160.998088 
L 79.749103 163.57838 
L 80.522018 164.252464 
L 81.294933 174.887506 
L 82.067848 176.208644 
L 84.386594 176.208644 
L 85.159509 181.5162 
L 85.932424 181.676428 
L 86.705339 183.006448 
L 87.478254 185.054031 
L 88.25117 185.054031 
L 89.024085 186.244708 
L 89.797 187.075475 
L 90.569915 187.211983 
L 91.34283 188.512591 
L 95.980321 188.534905 
L 96.753236 189.290275 
L 99.071982 189.345659 
L 100.617812 189.9675 
L 102.936557 190.031971 
L 105.255303 190.60928 
L 106.801133 190.60928 
L 107.574048 190.775546 
L 109.892794 190.806057 
L 110.665709 191.010508 
L 118.39486 191.104453 
L 125.351097 191.447095 
L 131.534418 191.544582 
L 138.490654 191.582724 
L 139.263569 191.582724 
L 140.036485 191.762844 
L 300.802835 191.873329 
L 303.121581 191.925923 
L 305.440326 191.925923 
L 306.213241 192.056606 
L 308.531987 192.083757 
L 310.077817 192.170313 
L 319.352799 192.281009 
L 337.902763 192.323798 
L 452.294205 192.323899 
L 452.294205 192.323899 
" clip-path="url(#p9f48b4e452)" style="fill: none; stroke: #1f77b4; stroke-opacity: 0.25; stroke-width: 0.8; stroke-linecap: square"/>
   </g>
   <g id="line2d_26">
    <path d="M 66.74286 231.746719 
L 67.382461 63.567856 
L 68.155376 33.654331 
L 68.928291 57.514046 
L 69.701206 60.616073 
L 70.474121 72.124815 
L 71.247036 76.217148 
L 72.019951 77.103047 
L 72.792867 95.318659 
L 73.565782 97.909355 
L 74.338697 98.592974 
L 75.111612 108.618741 
L 75.884527 110.338255 
L 76.657442 110.338255 
L 77.430358 113.649463 
L 78.203273 117.786699 
L 78.976188 133.326409 
L 79.749103 135.730744 
L 80.522018 135.730744 
L 81.294933 139.460118 
L 82.067848 140.77254 
L 82.840764 140.77254 
L 83.613679 141.093576 
L 84.386594 142.346511 
L 85.159509 143.180688 
L 85.932424 149.420024 
L 87.478254 149.420024 
L 88.25117 152.741113 
L 89.024085 153.839073 
L 91.34283 153.839073 
L 92.115745 155.174547 
L 92.888661 157.877542 
L 93.661576 158.033741 
L 94.434491 158.033741 
L 95.207406 164.173044 
L 96.753236 164.173044 
L 97.526151 164.357813 
L 98.299067 165.019915 
L 99.071982 165.428702 
L 99.844897 165.992457 
L 100.617812 165.992457 
L 101.390727 167.836469 
L 102.163642 168.730682 
L 103.709473 168.730682 
L 104.482388 168.934411 
L 105.255303 169.62766 
L 106.801133 170.703594 
L 107.574048 172.134466 
L 108.346963 174.808001 
L 109.892794 174.808001 
L 110.665709 176.425918 
L 111.438624 178.908529 
L 112.211539 178.908529 
L 112.984454 179.867692 
L 113.75737 182.174064 
L 114.530285 182.174064 
L 115.3032 183.845592 
L 116.84903 183.845592 
L 117.621945 186.370393 
L 119.167776 186.48692 
L 119.940691 189.020362 
L 120.713606 189.380696 
L 121.486521 189.380696 
L 122.259436 189.619067 
L 126.124012 189.619067 
L 126.896927 190.472106 
L 127.669842 190.472106 
L 128.442757 190.661391 
L 129.215672 190.661391 
L 129.988588 190.877748 
L 133.080248 190.906405 
L 133.853163 191.014294 
L 134.626079 191.371888 
L 140.036485 191.464542 
L 140.8094 191.644888 
L 146.219806 191.716068 
L 147.765636 191.773593 
L 170.95309 191.806693 
L 171.726006 191.961995 
L 184.092648 192.071914 
L 192.594715 192.133784 
L 452.294205 192.14336 
L 452.294205 192.14336 
" clip-path="url(#p9f48b4e452)" style="fill: none; stroke: #1f77b4; stroke-opacity: 0.25; stroke-width: 0.8; stroke-linecap: square"/>
   </g>
   <g id="line2d_27">
    <path d="M 66.629723 231.746719 
L 67.382461 137.52204 
L 68.155376 88.607785 
L 68.928291 76.699375 
L 69.701206 97.312176 
L 70.474121 97.312176 
L 71.247036 128.482258 
L 72.019951 133.507468 
L 73.565782 133.507468 
L 74.338697 148.003302 
L 75.884527 148.003302 
L 76.657442 149.194475 
L 77.430358 152.120371 
L 78.203273 156.310825 
L 78.976188 162.077417 
L 79.749103 162.182041 
L 80.522018 164.810825 
L 81.294933 166.411456 
L 82.067848 168.744291 
L 82.840764 169.563074 
L 83.613679 176.812648 
L 85.159509 176.812648 
L 85.932424 177.226995 
L 86.705339 177.226995 
L 87.478254 179.830258 
L 88.25117 183.545868 
L 89.024085 183.545868 
L 89.797 184.402357 
L 90.569915 184.402357 
L 91.34283 186.984552 
L 92.115745 186.984552 
L 92.888661 187.706343 
L 93.661576 187.706343 
L 94.434491 187.998351 
L 95.207406 188.166354 
L 95.980321 188.558195 
L 96.753236 188.716735 
L 97.526151 189.280025 
L 98.299067 189.494102 
L 99.071982 189.494102 
L 101.390727 189.996723 
L 102.936557 189.996723 
L 103.709473 190.222045 
L 105.255303 190.275173 
L 106.028218 190.339679 
L 106.801133 190.643058 
L 108.346963 190.761215 
L 111.438624 190.891623 
L 112.211539 191.071952 
L 116.076115 191.177958 
L 123.805266 191.441954 
L 221.96549 191.542094 
L 222.738405 191.846977 
L 225.057151 191.846977 
L 225.830066 192.027803 
L 452.294205 192.037708 
L 452.294205 192.037708 
" clip-path="url(#p9f48b4e452)" style="fill: none; stroke: #1f77b4; stroke-opacity: 0.25; stroke-width: 0.8; stroke-linecap: square"/>
   </g>
   <g id="line2d_28">
    <path d="M 66.90613 231.746719 
L 67.382461 149.806216 
L 68.155376 43.928113 
L 68.928291 44.879461 
L 69.701206 44.879461 
L 70.474121 72.137893 
L 71.247036 91.62087 
L 72.792867 91.62087 
L 73.565782 102.377095 
L 74.338697 104.603576 
L 75.111612 114.420111 
L 75.884527 121.249831 
L 76.657442 121.933376 
L 77.430358 133.234322 
L 78.203273 133.313228 
L 78.976188 137.494977 
L 79.749103 137.494977 
L 80.522018 139.548467 
L 81.294933 139.548467 
L 82.067848 145.511656 
L 83.613679 145.511656 
L 84.386594 148.712561 
L 85.159509 150.271767 
L 85.932424 157.148465 
L 89.024085 157.148465 
L 89.797 163.237467 
L 90.569915 163.237467 
L 91.34283 163.595114 
L 92.115745 172.636852 
L 92.888661 172.636852 
L 93.661576 175.455403 
L 94.434491 175.647308 
L 95.207406 177.376434 
L 95.980321 178.124062 
L 96.753236 178.124062 
L 97.526151 180.162168 
L 98.299067 182.863788 
L 99.071982 184.660125 
L 99.844897 184.789155 
L 101.390727 184.808251 
L 102.163642 184.983202 
L 102.936557 187.532759 
L 103.709473 188.560044 
L 105.255303 188.560044 
L 106.028218 191.214106 
L 120.713606 191.313382 
L 122.259436 191.377044 
L 126.124012 191.476701 
L 137.717739 191.864909 
L 165.542684 191.924162 
L 167.088515 192.018538 
L 174.817666 192.105768 
L 177.136412 192.15217 
L 179.455157 192.15217 
L 180.228072 192.297989 
L 269.88623 192.403791 
L 271.43206 192.561996 
L 276.069551 192.615348 
L 300.802835 192.632674 
L 452.294205 192.710091 
L 452.294205 192.710091 
" clip-path="url(#p9f48b4e452)" style="fill: none; stroke: #1f77b4; stroke-opacity: 0.25; stroke-width: 0.8; stroke-linecap: square"/>
   </g>
   <g id="line2d_29">
    <path d="M 66.754791 231.746719 
L 67.382461 149.301349 
L 68.155376 12.631781 
L 68.928291 12.631781 
L 69.701206 37.942184 
L 71.247036 57.26672 
L 72.019951 57.26672 
L 72.792867 62.190996 
L 73.565782 72.258806 
L 74.338697 72.258806 
L 75.111612 79.584555 
L 75.884527 79.584555 
L 76.657442 113.514554 
L 80.522018 113.514554 
L 81.294933 117.094126 
L 82.067848 123.333091 
L 84.386594 123.333091 
L 85.159509 136.064434 
L 88.25117 136.064434 
L 89.024085 140.268357 
L 89.797 141.100182 
L 90.569915 145.352683 
L 91.34283 146.220915 
L 92.115745 147.532473 
L 92.888661 150.747117 
L 93.661576 150.747117 
L 94.434491 151.628773 
L 95.207406 151.628773 
L 96.753236 153.195254 
L 97.526151 153.631309 
L 98.299067 153.631309 
L 99.071982 155.463086 
L 99.844897 155.463086 
L 100.617812 156.73824 
L 101.390727 161.312243 
L 102.936557 161.312243 
L 103.709473 161.647589 
L 105.255303 161.647589 
L 106.028218 165.286145 
L 106.801133 167.078921 
L 107.574048 168.321598 
L 108.346963 168.321598 
L 109.119879 171.438016 
L 110.665709 171.438016 
L 111.438624 171.604792 
L 112.211539 174.517198 
L 112.984454 176.174684 
L 115.3032 176.174684 
L 116.076115 177.639894 
L 117.621945 177.639894 
L 118.39486 182.345828 
L 119.167776 183.342219 
L 119.940691 183.342219 
L 120.713606 184.148578 
L 121.486521 184.462943 
L 123.032351 186.040919 
L 124.578182 186.05154 
L 125.351097 188.536316 
L 126.896927 188.536316 
L 127.669842 189.941789 
L 129.988588 190.004707 
L 130.761503 190.125309 
L 131.534418 190.534797 
L 133.080248 190.581706 
L 133.853163 190.78622 
L 134.626079 190.78622 
L 135.398994 191.043454 
L 136.944824 191.148074 
L 140.8094 191.326875 
L 141.582315 191.445298 
L 146.992721 191.515039 
L 149.311466 191.627117 
L 174.044751 191.707053 
L 176.363497 191.795247 
L 214.236339 191.811789 
L 424.469259 191.899556 
L 426.788005 191.941111 
L 441.473392 191.963629 
L 442.246308 192.081331 
L 452.294205 192.128726 
L 452.294205 192.128726 
" clip-path="url(#p9f48b4e452)" style="fill: none; stroke: #1f77b4; stroke-opacity: 0.25; stroke-width: 0.8; stroke-linecap: square"/>
   </g>
   <g id="line2d_30">
    <path d="M 66.701499 231.746719 
L 67.382461 120.795647 
L 68.155376 62.177329 
L 68.928291 62.177329 
L 69.701206 83.944255 
L 71.247036 83.944255 
L 72.019951 85.658147 
L 72.792867 102.536999 
L 73.565782 132.995548 
L 74.338697 137.695592 
L 75.111612 137.695592 
L 75.884527 139.965467 
L 76.657442 152.366875 
L 77.430358 152.366875 
L 78.203273 153.353219 
L 79.749103 155.895403 
L 80.522018 155.951072 
L 81.294933 163.85406 
L 82.067848 163.85406 
L 82.840764 169.412174 
L 85.159509 169.412174 
L 86.705339 171.445659 
L 87.478254 171.445659 
L 88.25117 174.341998 
L 89.024085 174.883746 
L 89.797 180.200729 
L 91.34283 180.200729 
L 92.115745 181.350857 
L 92.888661 181.350857 
L 93.661576 183.22737 
L 94.434491 183.370984 
L 95.207406 183.370984 
L 95.980321 184.248657 
L 96.753236 184.636877 
L 97.526151 184.636877 
L 99.844897 185.415068 
L 100.617812 186.547716 
L 101.390727 186.694499 
L 103.709473 186.694499 
L 104.482388 187.390654 
L 106.028218 187.577796 
L 106.801133 188.284055 
L 109.119879 188.346358 
L 109.892794 189.080878 
L 110.665709 189.080878 
L 111.438624 189.224155 
L 112.211539 189.658073 
L 123.032351 189.766877 
L 138.490654 189.810672 
L 158.586448 189.893878 
L 159.359363 190.022724 
L 168.634345 190.12954 
L 174.044751 190.158362 
L 184.092648 190.167007 
L 184.865563 190.757998 
L 186.411393 190.757998 
L 187.184309 190.916406 
L 233.559218 190.990699 
L 234.332133 191.117227 
L 239.742539 191.133787 
L 240.515454 191.285018 
L 243.607114 191.321426 
L 311.623648 191.333545 
L 444.565053 191.435331 
L 446.883799 191.479937 
L 452.294205 191.514181 
L 452.294205 191.514181 
" clip-path="url(#p9f48b4e452)" style="fill: none; stroke: #1f77b4; stroke-opacity: 0.25; stroke-width: 0.8; stroke-linecap: square"/>
   </g>
   <g id="line2d_31">
    <path d="M 66.609545 230.925011 
L 67.382461 95.32599 
L 68.155376 22.878433 
L 68.928291 18.037427 
L 69.701206 41.321851 
L 70.474121 46.735192 
L 71.247036 72.828393 
L 72.019951 92.083936 
L 73.565782 92.083936 
L 74.338697 112.774635 
L 75.111612 118.312128 
L 75.884527 120.300819 
L 76.657442 124.596058 
L 77.430358 124.596058 
L 78.203273 127.042311 
L 78.976188 133.228957 
L 80.522018 135.799046 
L 81.294933 140.254875 
L 82.067848 142.466218 
L 82.840764 148.916171 
L 83.613679 148.916171 
L 84.386594 149.680164 
L 85.159509 152.143742 
L 85.932424 152.143742 
L 86.705339 156.463497 
L 87.478254 156.463497 
L 88.25117 162.020482 
L 89.024085 162.020482 
L 89.797 164.472629 
L 91.34283 164.472629 
L 92.115745 168.190765 
L 92.888661 168.190765 
L 93.661576 168.897418 
L 94.434491 171.831866 
L 95.207406 171.831866 
L 95.980321 177.103385 
L 96.753236 177.103385 
L 97.526151 178.345357 
L 99.071982 178.415443 
L 99.844897 182.387885 
L 101.390727 182.569685 
L 102.163642 184.774807 
L 102.936557 184.774807 
L 103.709473 188.842797 
L 104.482388 189.271725 
L 108.346963 189.271725 
L 109.119879 190.604664 
L 118.39486 190.628452 
L 119.940691 190.736612 
L 122.259436 190.924924 
L 132.307333 191.029714 
L 140.036485 191.083632 
L 142.35523 191.086731 
L 143.128145 191.417627 
L 204.188442 191.493032 
L 207.280102 191.631237 
L 226.602981 191.742048 
L 361.090217 191.744022 
L 441.473392 191.744092 
L 442.246308 191.888202 
L 452.294205 191.908805 
L 452.294205 191.908805 
" clip-path="url(#p9f48b4e452)" style="fill: none; stroke: #1f77b4; stroke-opacity: 0.25; stroke-width: 0.8; stroke-linecap: square"/>
   </g>
   <g id="line2d_32">
    <path d="M 67.02048 231.746719 
L 67.382461 116.52983 
L 68.155376 50.58291 
L 68.928291 59.251577 
L 69.701206 83.148233 
L 70.474121 90.473363 
L 71.247036 93.306544 
L 72.019951 105.183635 
L 73.565782 136.967565 
L 75.111612 136.967565 
L 75.884527 143.859282 
L 76.657442 148.87002 
L 78.203273 148.87002 
L 78.976188 149.76811 
L 79.749103 151.244913 
L 80.522018 157.645101 
L 82.067848 157.645101 
L 82.840764 159.007702 
L 83.613679 165.343246 
L 84.386594 169.079051 
L 85.159509 170.015896 
L 85.932424 175.259287 
L 86.705339 175.259287 
L 87.478254 183.052703 
L 90.569915 183.052703 
L 91.34283 183.444529 
L 92.115745 184.949048 
L 92.888661 185.191256 
L 93.661576 186.693958 
L 94.434491 187.727172 
L 96.753236 187.785956 
L 97.526151 188.84105 
L 98.299067 189.04794 
L 99.071982 189.04794 
L 99.844897 190.005623 
L 104.482388 190.092745 
L 107.574048 190.444665 
L 109.119879 190.444665 
L 109.892794 190.661146 
L 111.438624 190.691551 
L 112.211539 190.820657 
L 120.713606 190.930413 
L 121.486521 191.071509 
L 153.176042 191.148286 
L 155.494788 191.222534 
L 165.542684 191.327395 
L 166.3156 191.667249 
L 173.271836 191.694108 
L 174.817666 191.790847 
L 402.05472 191.886436 
L 403.60055 192.045893 
L 405.919296 192.15313 
L 407.465126 192.177021 
L 408.238041 192.338633 
L 413.648447 192.424678 
L 420.604683 192.553175 
L 423.696344 192.645008 
L 425.242174 192.72433 
L 426.015089 192.72433 
L 426.788005 192.848243 
L 452.294205 192.894692 
L 452.294205 192.894692 
" clip-path="url(#p9f48b4e452)" style="fill: none; stroke: #1f77b4; stroke-opacity: 0.25; stroke-width: 0.8; stroke-linecap: square"/>
   </g>
   <g id="line2d_33">
    <path d="M 66.609545 225.822136 
L 67.382461 182.736253 
L 68.155376 58.308995 
L 68.928291 40.531373 
L 69.701206 49.132811 
L 70.474121 75.391623 
L 71.247036 82.716364 
L 72.792867 113.56269 
L 73.565782 113.56269 
L 74.338697 123.055489 
L 75.884527 123.055489 
L 76.657442 126.371301 
L 77.430358 131.089292 
L 78.203273 132.11695 
L 78.976188 132.709262 
L 80.522018 136.60197 
L 81.294933 139.575361 
L 82.840764 139.575361 
L 83.613679 143.538261 
L 84.386594 144.29587 
L 85.159509 144.29587 
L 85.932424 146.322849 
L 86.705339 146.322849 
L 87.478254 148.173198 
L 88.25117 148.810456 
L 89.024085 155.799894 
L 91.34283 155.799894 
L 92.115745 156.148712 
L 96.753236 156.227316 
L 97.526151 156.815694 
L 98.299067 156.815694 
L 99.071982 157.050134 
L 99.844897 159.580951 
L 101.390727 159.580951 
L 102.163642 161.364662 
L 104.482388 161.364662 
L 105.255303 162.755522 
L 106.801133 162.755522 
L 107.574048 163.863391 
L 108.346963 163.863391 
L 109.119879 164.189091 
L 109.892794 165.412103 
L 110.665709 168.409497 
L 112.211539 168.409497 
L 112.984454 169.113222 
L 114.530285 172.629689 
L 115.3032 172.629689 
L 116.84903 174.908198 
L 117.621945 177.142499 
L 119.167776 177.142499 
L 119.940691 178.053426 
L 120.713606 178.053426 
L 121.486521 180.92358 
L 122.259436 182.226829 
L 123.805266 182.226829 
L 124.578182 184.536284 
L 125.351097 184.536284 
L 126.124012 185.132723 
L 126.896927 185.132723 
L 127.669842 187.713685 
L 130.761503 187.719497 
L 131.534418 188.802407 
L 133.080248 189.813563 
L 133.853163 189.90552 
L 134.626079 191.299037 
L 138.490654 191.299037 
L 139.263569 191.621914 
L 144.673975 191.716219 
L 149.311466 191.860412 
L 157.813533 191.959061 
L 170.95309 191.993022 
L 452.294205 192.079665 
L 452.294205 192.079665 
" clip-path="url(#p9f48b4e452)" style="fill: none; stroke: #1f77b4; stroke-opacity: 0.25; stroke-width: 0.8; stroke-linecap: square"/>
   </g>
   <g id="line2d_34">
    <path d="M 66.912495 231.746719 
L 67.382461 127.448781 
L 68.155376 107.800381 
L 68.928291 53.517471 
L 69.701206 103.193911 
L 70.474121 115.547102 
L 71.247036 119.307318 
L 72.019951 125.961204 
L 72.792867 125.961204 
L 73.565782 132.793018 
L 74.338697 149.751907 
L 75.111612 149.751907 
L 75.884527 152.026213 
L 76.657442 153.193994 
L 77.430358 153.657656 
L 78.203273 159.6357 
L 78.976188 159.6357 
L 79.749103 166.051412 
L 80.522018 167.23042 
L 82.067848 167.23042 
L 82.840764 171.455637 
L 84.386594 171.539844 
L 85.159509 172.563931 
L 85.932424 177.98177 
L 88.25117 177.98177 
L 89.024085 179.633311 
L 89.797 184.845285 
L 90.569915 185.21986 
L 91.34283 185.353358 
L 92.115745 185.671629 
L 92.888661 187.970271 
L 94.434491 187.970271 
L 95.207406 188.488496 
L 98.299067 188.594707 
L 99.844897 189.126316 
L 101.390727 189.215101 
L 102.163642 189.357064 
L 102.936557 190.195819 
L 109.119879 190.195819 
L 109.892794 190.807891 
L 114.530285 190.836146 
L 115.3032 190.987985 
L 116.076115 190.987985 
L 116.84903 191.432623 
L 123.805266 191.492602 
L 125.351097 191.583922 
L 143.90106 191.752927 
L 144.673975 191.91377 
L 254.427927 191.997243 
L 255.200842 192.127814 
L 259.838333 192.198203 
L 261.384163 192.261104 
L 276.069551 192.267 
L 276.842466 192.750167 
L 279.934126 192.802915 
L 281.479957 192.914145 
L 298.48409 192.938915 
L 300.02992 193.050607 
L 391.233908 193.105824 
L 392.779738 193.169504 
L 452.294205 193.242904 
L 452.294205 193.242904 
" clip-path="url(#p9f48b4e452)" style="fill: none; stroke: #1f77b4; stroke-opacity: 0.25; stroke-width: 0.8; stroke-linecap: square"/>
   </g>
   <g id="line2d_35">
    <path d="M 66.806314 231.746719 
L 67.382461 127.881728 
L 68.155376 54.046221 
L 68.928291 48.513199 
L 69.701206 69.482966 
L 71.247036 90.807281 
L 72.019951 97.130844 
L 73.565782 115.717384 
L 74.338697 122.642221 
L 75.111612 126.533348 
L 75.884527 128.782515 
L 76.657442 135.262556 
L 78.203273 140.228506 
L 78.976188 143.735974 
L 80.522018 147.108466 
L 81.294933 150.596149 
L 83.613679 156.16251 
L 84.386594 157.142056 
L 85.932424 162.367935 
L 86.705339 163.033943 
L 88.25117 166.076132 
L 89.024085 167.643661 
L 89.797 169.802579 
L 91.34283 170.842338 
L 92.115745 172.715203 
L 92.888661 173.633285 
L 93.661576 174.347153 
L 94.434491 174.897069 
L 95.980321 176.565359 
L 96.753236 176.77414 
L 97.526151 177.394429 
L 99.071982 178.293556 
L 99.844897 179.202396 
L 100.617812 179.50072 
L 101.390727 180.198704 
L 102.163642 180.725148 
L 102.936557 181.063979 
L 103.709473 181.652649 
L 105.255303 182.058123 
L 106.028218 182.765639 
L 109.892794 184.563958 
L 110.665709 185.047875 
L 112.211539 185.702307 
L 114.530285 186.633944 
L 116.84903 187.252579 
L 118.39486 188.216867 
L 119.167776 188.344433 
L 119.940691 188.70778 
L 120.713606 188.849319 
L 122.259436 189.435439 
L 124.578182 189.791458 
L 125.351097 190.043047 
L 126.896927 190.205018 
L 127.669842 190.61017 
L 130.761503 190.703394 
L 132.307333 190.91956 
L 137.717739 191.254038 
L 142.35523 191.366975 
L 145.446891 191.443764 
L 184.092648 191.703301 
L 185.638478 191.76473 
L 276.069551 191.975385 
L 278.388296 192.029395 
L 402.827635 192.135961 
L 436.062986 192.245177 
L 452.294205 192.298403 
L 452.294205 192.298403 
" clip-path="url(#p9f48b4e452)" style="fill: none; stroke: #1f77b4; stroke-width: 2; stroke-linecap: square"/>
   </g>
   <g id="line2d_36">
    <path d="M 66.609545 206.514693 
L 67.382461 87.896702 
L 68.155376 34.198346 
L 70.474121 94.904905 
L 71.247036 101.597802 
L 72.019951 117.309389 
L 72.792867 139.466038 
L 73.565782 141.021314 
L 74.338697 153.253216 
L 75.111612 162.937095 
L 75.884527 165.910925 
L 76.657442 170.459422 
L 77.430358 179.264939 
L 78.203273 179.264939 
L 78.976188 185.187038 
L 79.749103 186.125414 
L 82.067848 186.125414 
L 83.613679 186.795413 
L 85.159509 186.795413 
L 85.932424 187.506167 
L 86.705339 187.720074 
L 87.478254 187.720074 
L 88.25117 188.811073 
L 89.024085 188.811073 
L 90.569915 189.187349 
L 91.34283 189.187349 
L 92.115745 189.559635 
L 93.661576 189.56108 
L 94.434491 190.097453 
L 95.980321 190.097453 
L 96.753236 190.388769 
L 99.071982 190.388769 
L 99.844897 191.090377 
L 100.617812 191.134788 
L 101.390727 191.320055 
L 102.936557 191.415511 
L 103.709473 191.886895 
L 114.530285 191.997549 
L 115.3032 192.14605 
L 122.259436 192.250875 
L 123.805266 192.309045 
L 133.080248 192.39697 
L 136.171909 192.430931 
L 141.582315 192.451784 
L 142.35523 192.703618 
L 162.451024 192.789134 
L 163.996854 192.851459 
L 184.865563 192.948158 
L 186.411393 193.010544 
L 233.559218 193.120083 
L 236.650878 193.15082 
L 264.475823 193.240486 
L 268.340399 193.263168 
L 452.294205 193.35578 
L 452.294205 193.35578 
" clip-path="url(#p9f48b4e452)" style="fill: none; stroke: #d62728; stroke-opacity: 0.25; stroke-width: 0.8; stroke-linecap: square"/>
   </g>
   <g id="line2d_37">
    <path d="M 66.955683 231.746719 
L 67.382461 150.55317 
L 68.155376 75.701617 
L 68.928291 64.661195 
L 69.701206 80.451617 
L 70.474121 89.106292 
L 71.247036 101.167689 
L 72.019951 106.061792 
L 72.792867 113.097217 
L 73.565782 118.18507 
L 74.338697 126.270277 
L 75.111612 127.011137 
L 76.657442 137.06695 
L 77.430358 137.06695 
L 78.203273 137.523988 
L 79.749103 154.281656 
L 80.522018 155.528516 
L 81.294933 164.918402 
L 82.067848 164.918402 
L 82.840764 170.837587 
L 83.613679 175.33809 
L 84.386594 175.89627 
L 85.159509 180.523203 
L 85.932424 180.523203 
L 86.705339 183.853994 
L 87.478254 183.853994 
L 88.25117 184.063999 
L 89.024085 185.494795 
L 89.797 185.494795 
L 90.569915 187.701378 
L 92.115745 187.701378 
L 92.888661 188.94829 
L 93.661576 189.523604 
L 95.980321 189.569574 
L 97.526151 189.569574 
L 98.299067 189.738273 
L 99.071982 189.738273 
L 99.844897 189.992644 
L 104.482388 190.021404 
L 105.255303 190.592217 
L 106.801133 191.109387 
L 109.119879 191.109387 
L 109.892794 191.480277 
L 110.665709 191.9827 
L 111.438624 191.9827 
L 113.75737 192.697336 
L 138.490654 192.801663 
L 143.90106 192.868253 
L 144.673975 192.874166 
L 145.446891 193.016368 
L 174.044751 193.126832 
L 177.136412 193.158802 
L 272.204975 193.26712 
L 315.488223 193.326455 
L 452.294205 193.367631 
L 452.294205 193.367631 
" clip-path="url(#p9f48b4e452)" style="fill: none; stroke: #d62728; stroke-opacity: 0.25; stroke-width: 0.8; stroke-linecap: square"/>
   </g>
   <g id="line2d_38">
    <path d="M 66.745297 231.746719 
L 67.382461 118.224839 
L 68.155376 74.614113 
L 68.928291 74.614113 
L 69.701206 60.581307 
L 70.474121 76.907241 
L 71.247036 77.727536 
L 72.019951 89.286057 
L 72.792867 94.125054 
L 73.565782 97.565526 
L 74.338697 98.437747 
L 75.111612 105.861195 
L 75.884527 111.580528 
L 76.657442 114.382937 
L 79.749103 114.382937 
L 80.522018 117.478153 
L 81.294933 118.783781 
L 82.840764 118.783781 
L 84.386594 121.690594 
L 85.159509 121.950504 
L 86.705339 127.388687 
L 87.478254 129.382216 
L 88.25117 129.382216 
L 89.024085 131.927844 
L 89.797 135.032573 
L 90.569915 137.425576 
L 92.115745 137.425576 
L 92.888661 141.070814 
L 93.661576 142.757697 
L 94.434491 150.810727 
L 95.207406 152.09658 
L 95.980321 152.09658 
L 96.753236 154.569691 
L 97.526151 154.569691 
L 98.299067 157.923027 
L 99.071982 160.625183 
L 99.844897 161.830355 
L 100.617812 161.830355 
L 101.390727 169.769634 
L 102.163642 169.769634 
L 102.936557 169.898449 
L 103.709473 169.898449 
L 104.482388 174.135607 
L 106.028218 174.166723 
L 106.801133 175.263568 
L 107.574048 176.72862 
L 108.346963 176.72862 
L 109.119879 177.463217 
L 112.984454 177.463217 
L 113.75737 177.637041 
L 114.530285 178.820247 
L 115.3032 179.585294 
L 117.621945 179.585294 
L 118.39486 180.263106 
L 119.167776 180.387076 
L 124.578182 180.431268 
L 125.351097 180.561645 
L 135.398994 180.639427 
L 136.944824 180.711131 
L 140.8094 180.803118 
L 142.35523 180.896635 
L 148.538551 180.985502 
L 149.311466 181.155692 
L 160.905194 181.281493 
L 161.678109 181.595015 
L 168.634345 181.704068 
L 169.40726 181.840719 
L 174.044751 181.84076 
L 174.817666 182.094109 
L 176.363497 182.094109 
L 177.136412 182.437032 
L 181.000987 182.437032 
L 181.773903 183.177204 
L 187.184309 183.255282 
L 187.957224 183.891335 
L 188.730139 185.472229 
L 189.503054 185.52267 
L 190.275969 186.99006 
L 191.048884 187.574314 
L 191.8218 189.616303 
L 194.91346 189.61742 
L 195.686375 190.172146 
L 203.415527 190.220732 
L 204.188442 190.410169 
L 204.961357 190.80341 
L 215.782169 190.903598 
L 217.327999 191.320645 
L 228.148811 191.331686 
L 229.694642 191.434657 
L 240.515454 191.541024 
L 241.288369 191.634755 
L 242.061284 191.945987 
L 281.479957 192.019071 
L 283.798702 192.0623 
L 396.644314 192.170022 
L 410.556787 192.176507 
L 452.294205 192.179388 
L 452.294205 192.179388 
" clip-path="url(#p9f48b4e452)" style="fill: none; stroke: #d62728; stroke-opacity: 0.25; stroke-width: 0.8; stroke-linecap: square"/>
   </g>
   <g id="line2d_39">
    <path d="M 66.63777 231.746719 
L 67.382461 117.477271 
L 68.155376 43.816614 
L 68.928291 41.272356 
L 69.701206 65.954681 
L 70.474121 96.032394 
L 71.247036 104.159157 
L 72.019951 116.892216 
L 72.792867 125.485361 
L 73.565782 138.272839 
L 75.111612 156.456445 
L 75.884527 161.284593 
L 76.657442 180.85455 
L 77.430358 180.85455 
L 78.203273 181.586056 
L 78.976188 183.368865 
L 82.067848 183.368865 
L 82.840764 184.248855 
L 83.613679 184.264067 
L 84.386594 187.444705 
L 85.159509 187.444705 
L 85.932424 188.471551 
L 86.705339 188.471551 
L 87.478254 188.690644 
L 89.024085 188.690644 
L 89.797 190.155363 
L 90.569915 190.309577 
L 92.888661 190.309577 
L 93.661576 190.519143 
L 94.434491 190.554454 
L 95.207406 190.94416 
L 95.980321 190.94416 
L 96.753236 191.196972 
L 97.526151 191.219468 
L 98.299067 191.594757 
L 106.028218 191.676494 
L 107.574048 191.768635 
L 113.75737 191.835722 
L 140.036485 191.945924 
L 144.673975 191.969642 
L 146.219806 191.969642 
L 146.992721 192.146724 
L 150.084381 192.146724 
L 150.857297 192.436586 
L 172.498921 192.439385 
L 173.271836 192.599149 
L 185.638478 192.599467 
L 186.411393 192.726337 
L 208.053018 192.799959 
L 210.371763 192.842636 
L 234.332133 192.929128 
L 235.877963 193.008977 
L 274.52372 193.105168 
L 276.842466 193.145949 
L 332.492357 193.253363 
L 354.133981 193.274097 
L 452.294205 193.288435 
L 452.294205 193.288435 
" clip-path="url(#p9f48b4e452)" style="fill: none; stroke: #d62728; stroke-opacity: 0.25; stroke-width: 0.8; stroke-linecap: square"/>
   </g>
   <g id="line2d_40">
    <path d="M 66.609545 211.168781 
L 67.382461 145.819449 
L 68.155376 105.703431 
L 68.928291 47.282561 
L 69.701206 47.349374 
L 70.474121 54.792182 
L 71.247036 73.329336 
L 72.019951 87.391008 
L 72.792867 91.880125 
L 73.565782 106.27961 
L 74.338697 114.408035 
L 75.111612 131.054586 
L 75.884527 140.113074 
L 76.657442 140.113074 
L 77.430358 148.913695 
L 78.203273 148.913695 
L 78.976188 150.46285 
L 79.749103 150.46285 
L 80.522018 152.346172 
L 81.294933 157.039839 
L 82.067848 158.062117 
L 82.840764 158.777988 
L 83.613679 158.777988 
L 84.386594 162.20073 
L 85.159509 162.927765 
L 85.932424 163.398833 
L 86.705339 169.184361 
L 88.25117 176.658875 
L 89.024085 179.30882 
L 90.569915 179.30882 
L 91.34283 181.97536 
L 92.115745 182.907455 
L 92.888661 182.907455 
L 93.661576 183.212551 
L 94.434491 187.941317 
L 99.071982 187.941317 
L 99.844897 189.715173 
L 106.801133 189.739115 
L 107.574048 190.240855 
L 108.346963 190.240855 
L 109.119879 190.714892 
L 115.3032 190.745023 
L 116.076115 191.394236 
L 123.032351 191.394236 
L 123.805266 191.603322 
L 129.988588 191.603322 
L 130.761503 191.732744 
L 146.219806 191.793767 
L 147.765636 191.879857 
L 151.630212 191.948282 
L 152.403127 192.169323 
L 158.586448 192.274604 
L 160.132278 192.353512 
L 174.817666 192.464546 
L 177.136412 192.514833 
L 195.686375 192.591449 
L 198.778036 192.748106 
L 213.463424 192.764601 
L 214.236339 192.882199 
L 235.105048 192.982868 
L 238.196708 193.013462 
L 253.655011 193.05731 
L 255.200842 193.143772 
L 282.252872 193.215576 
L 284.571617 193.264274 
L 452.294205 193.334773 
L 452.294205 193.334773 
" clip-path="url(#p9f48b4e452)" style="fill: none; stroke: #d62728; stroke-opacity: 0.25; stroke-width: 0.8; stroke-linecap: square"/>
   </g>
   <g id="line2d_41">
    <path d="M 66.673449 231.746719 
L 67.382461 123.994286 
L 68.155376 66.806824 
L 68.928291 56.425893 
L 69.701206 65.846932 
L 70.474121 82.348603 
L 71.247036 91.596304 
L 72.019951 103.388092 
L 72.792867 112.810759 
L 74.338697 128.077945 
L 75.111612 136.664092 
L 75.884527 142.164557 
L 76.657442 148.575387 
L 77.430358 152.096614 
L 78.203273 152.334323 
L 78.976188 155.82782 
L 79.749103 157.724345 
L 80.522018 158.969424 
L 81.294933 162.04726 
L 82.067848 162.251716 
L 82.840764 163.815133 
L 83.613679 165.088629 
L 84.386594 166.805542 
L 85.932424 168.898415 
L 86.705339 171.323733 
L 89.797 175.794456 
L 90.569915 176.78654 
L 91.34283 177.319848 
L 92.115745 177.580724 
L 92.888661 178.559443 
L 93.661576 179.114815 
L 94.434491 181.794705 
L 95.207406 182.129817 
L 95.980321 182.129817 
L 96.753236 182.733265 
L 97.526151 182.737764 
L 98.299067 183.517228 
L 99.071982 184.05766 
L 99.844897 184.844661 
L 100.617812 184.853543 
L 101.390727 186.478453 
L 103.709473 186.639683 
L 104.482388 187.491903 
L 106.028218 187.67032 
L 106.801133 187.95352 
L 107.574048 188.369009 
L 108.346963 188.373444 
L 109.119879 188.61674 
L 114.530285 189.219175 
L 116.076115 189.53867 
L 117.621945 189.539067 
L 119.167776 189.699423 
L 124.578182 189.790061 
L 128.442757 189.834669 
L 139.263569 189.950878 
L 158.586448 190.352152 
L 187.184309 190.952813 
L 187.957224 191.080529 
L 188.730139 191.396708 
L 189.503054 191.406796 
L 190.275969 191.700274 
L 191.048884 191.817125 
L 191.8218 192.225523 
L 222.738405 192.707334 
L 240.515454 192.817711 
L 248.244605 192.899621 
L 282.252872 193.004905 
L 289.982023 193.038247 
L 452.294205 193.105201 
L 452.294205 193.105201 
" clip-path="url(#p9f48b4e452)" style="fill: none; stroke: #d62728; stroke-width: 2; stroke-linecap: square"/>
   </g>
   <g id="line2d_42">
    <path d="M 47.325313 193.381949 
L 471.578438 193.381949 
" clip-path="url(#p9f48b4e452)" style="fill: none; stroke-dasharray: 4.44,1.92; stroke-dashoffset: 0; stroke: #000000; stroke-width: 1.2"/>
   </g>
   <g id="patch_3">
    <path d="M 47.325313 197.758281 
L 47.325313 17.958281 
" style="fill: none; stroke: #000000; stroke-width: 0.8; stroke-linejoin: miter; stroke-linecap: square"/>
   </g>
   <g id="patch_4">
    <path d="M 47.325312 197.758281 
L 471.578438 197.758281 
" style="fill: none; stroke: #000000; stroke-width: 0.8; stroke-linejoin: miter; stroke-linecap: square"/>
   </g>
   <g id="text_15">
    <!-- 10-bar convergence across seeds -->
    <g transform="translate(166.722734 11.958281) scale(0.11 -0.11)">
     <defs>
      <path id="DejaVuSerif-2d" d="M 281 1959 
L 1881 1959 
L 1881 1472 
L 281 1472 
L 281 1959 
z
" transform="scale(0.015625)"/>
      <path id="DejaVuSerif-63" d="M 3291 997 
Q 3169 466 2822 187 
Q 2475 -91 1925 -91 
Q 1200 -91 759 389 
Q 319 869 319 1663 
Q 319 2459 759 2936 
Q 1200 3413 1925 3413 
Q 2241 3413 2553 3339 
Q 2866 3266 3181 3116 
L 3181 2266 
L 2847 2266 
Q 2781 2703 2561 2903 
Q 2341 3103 1931 3103 
Q 1466 3103 1228 2742 
Q 991 2381 991 1663 
Q 991 944 1227 581 
Q 1463 219 1931 219 
Q 2303 219 2525 412 
Q 2747 606 2828 997 
L 3291 997 
z
" transform="scale(0.015625)"/>
      <path id="DejaVuSerif-76" d="M 1581 0 
L 359 2988 
L -19 2988 
L -19 3322 
L 1509 3322 
L 1509 2988 
L 978 2988 
L 1913 703 
L 2847 2988 
L 2350 2988 
L 2350 3322 
L 3597 3322 
L 3597 2988 
L 3225 2988 
L 2003 0 
L 1581 0 
z
" transform="scale(0.015625)"/>
      <path id="DejaVuSerif-64" d="M 3359 331 
L 3909 331 
L 3909 0 
L 2784 0 
L 2784 519 
Q 2616 206 2355 57 
Q 2094 -91 1709 -91 
Q 1097 -91 708 395 
Q 319 881 319 1663 
Q 319 2444 706 2928 
Q 1094 3413 1709 3413 
Q 2094 3413 2355 3264 
Q 2616 3116 2784 2803 
L 2784 4531 
L 2241 4531 
L 2241 4863 
L 3359 4863 
L 3359 331 
z
M 2784 1497 
L 2784 1825 
Q 2784 2422 2554 2737 
Q 2325 3053 1888 3053 
Q 1444 3053 1217 2703 
Q 991 2353 991 1663 
Q 991 975 1217 622 
Q 1444 269 1888 269 
Q 2325 269 2554 583 
Q 2784 897 2784 1497 
z
" transform="scale(0.015625)"/>
     </defs>
     <use xlink:href="#DejaVuSerif-31"/>
     <use xlink:href="#DejaVuSerif-30" transform="translate(63.623047 0)"/>
     <use xlink:href="#DejaVuSerif-2d" transform="translate(127.246094 0)"/>
     <use xlink:href="#DejaVuSerif-62" transform="translate(161.035156 0)"/>
     <use xlink:href="#DejaVuSerif-61" transform="translate(225.048828 0)"/>
     <use xlink:href="#DejaVuSerif-72" transform="translate(284.667969 0)"/>
     <use xlink:href="#DejaVuSerif-20" transform="translate(332.470703 0)"/>
     <use xlink:href="#DejaVuSerif-63" transform="translate(364.257812 0)"/>
     <use xlink:href="#DejaVuSerif-6f" transform="translate(420.263672 0)"/>
     <use xlink:href="#DejaVuSerif-6e" transform="translate(480.46875 0)"/>
     <use xlink:href="#DejaVuSerif-76" transform="translate(544.873047 0)"/>
     <use xlink:href="#DejaVuSerif-65" transform="translate(601.367188 0)"/>
     <use xlink:href="#DejaVuSerif-72" transform="translate(660.546875 0)"/>
     <use xlink:href="#DejaVuSerif-67" transform="translate(708.349609 0)"/>
     <use xlink:href="#DejaVuSerif-65" transform="translate(772.363281 0)"/>
     <use xlink:href="#DejaVuSerif-6e" transform="translate(831.542969 0)"/>
     <use xlink:href="#DejaVuSerif-63" transform="translate(895.947266 0)"/>
     <use xlink:href="#DejaVuSerif-65" transform="translate(951.953125 0)"/>
     <use xlink:href="#DejaVuSerif-20" transform="translate(1011.132812 0)"/>
     <use xlink:href="#DejaVuSerif-61" transform="translate(1042.919922 0)"/>
     <use xlink:href="#DejaVuSerif-63" transform="translate(1102.539062 0)"/>
     <use xlink:href="#DejaVuSerif-72" transform="translate(1158.544922 0)"/>
     <use xlink:href="#DejaVuSerif-6f" transform="translate(1206.347656 0)"/>
     <use xlink:href="#DejaVuSerif-73" transform="translate(1266.552734 0)"/>
     <use xlink:href="#DejaVuSerif-73" transform="translate(1317.871094 0)"/>
     <use xlink:href="#DejaVuSerif-20" transform="translate(1369.189453 0)"/>
     <use xlink:href="#DejaVuSerif-73" transform="translate(1400.976562 0)"/>
     <use xlink:href="#DejaVuSerif-65" transform="translate(1452.294922 0)"/>
     <use xlink:href="#DejaVuSerif-65" transform="translate(1511.474609 0)"/>
     <use xlink:href="#DejaVuSerif-64" transform="translate(1570.654297 0)"/>
     <use xlink:href="#DejaVuSerif-73" transform="translate(1634.667969 0)"/>
    </g>
   </g>
   <g id="legend_1">
    <g id="line2d_43">
     <path d="M 343.289063 29.746875 
L 352.289063 29.746875 
L 361.289063 29.746875 
" style="fill: none; stroke: #1f77b4; stroke-opacity: 0.25; stroke-width: 0.8; stroke-linecap: square"/>
    </g>
    <g id="text_16">
     <!-- GA -->
     <g transform="translate(368.489063 32.896875) scale(0.09 -0.09)">
      <defs>
       <path id="DejaVuSerif-47" d="M 4097 3272 
Q 3988 3856 3641 4136 
Q 3294 4416 2675 4416 
Q 1869 4416 1472 3897 
Q 1075 3378 1075 2328 
Q 1075 1300 1484 772 
Q 1894 244 2688 244 
Q 3041 244 3362 331 
Q 3684 419 3975 594 
L 3975 1797 
L 3097 1797 
L 3097 2131 
L 4609 2131 
L 4609 391 
Q 4194 150 3714 29 
Q 3234 -91 2688 -91 
Q 1631 -91 995 570 
Q 359 1231 359 2328 
Q 359 3434 996 4092 
Q 1634 4750 2713 4750 
Q 3113 4750 3539 4658 
Q 3966 4566 4447 4378 
L 4447 3272 
L 4097 3272 
z
" transform="scale(0.015625)"/>
       <path id="DejaVuSerif-41" d="M 1281 1691 
L 2994 1691 
L 2138 3909 
L 1281 1691 
z
M -38 0 
L -38 331 
L 372 331 
L 2034 4666 
L 2559 4666 
L 4225 331 
L 4684 331 
L 4684 0 
L 2988 0 
L 2988 331 
L 3506 331 
L 3116 1356 
L 1153 1356 
L 763 331 
L 1275 331 
L 1275 0 
L -38 0 
z
" transform="scale(0.015625)"/>
      </defs>
      <use xlink:href="#DejaVuSerif-47"/>
      <use xlink:href="#DejaVuSerif-41" transform="translate(79.882812 0)"/>
     </g>
    </g>
    <g id="line2d_44">
     <path d="M 343.289063 42.957187 
L 352.289063 42.957187 
L 361.289063 42.957187 
" style="fill: none; stroke: #1f77b4; stroke-width: 2; stroke-linecap: square"/>
    </g>
    <g id="text_17">
     <!-- GA (mean) -->
     <g transform="translate(368.489063 46.107187) scale(0.09 -0.09)">
      <defs>
       <path id="DejaVuSerif-6d" d="M 3316 2675 
Q 3481 3041 3739 3227 
Q 3997 3413 4341 3413 
Q 4863 3413 5119 3089 
Q 5375 2766 5375 2113 
L 5375 331 
L 5894 331 
L 5894 0 
L 4300 0 
L 4300 331 
L 4800 331 
L 4800 2047 
Q 4800 2556 4650 2772 
Q 4500 2988 4153 2988 
Q 3769 2988 3567 2697 
Q 3366 2406 3366 1850 
L 3366 331 
L 3866 331 
L 3866 0 
L 2291 0 
L 2291 331 
L 2791 331 
L 2791 2069 
Q 2791 2566 2641 2777 
Q 2491 2988 2144 2988 
Q 1759 2988 1557 2697 
Q 1356 2406 1356 1850 
L 1356 331 
L 1856 331 
L 1856 0 
L 263 0 
L 263 331 
L 781 331 
L 781 2994 
L 231 2994 
L 231 3322 
L 1356 3322 
L 1356 2731 
Q 1516 3063 1762 3238 
Q 2009 3413 2322 3413 
Q 2709 3413 2968 3220 
Q 3228 3028 3316 2675 
z
" transform="scale(0.015625)"/>
      </defs>
      <use xlink:href="#DejaVuSerif-47"/>
      <use xlink:href="#DejaVuSerif-41" transform="translate(79.882812 0)"/>
      <use xlink:href="#DejaVuSerif-20" transform="translate(152.099609 0)"/>
      <use xlink:href="#DejaVuSerif-28" transform="translate(183.886719 0)"/>
      <use xlink:href="#DejaVuSerif-6d" transform="translate(222.900391 0)"/>
      <use xlink:href="#DejaVuSerif-65" transform="translate(317.724609 0)"/>
      <use xlink:href="#DejaVuSerif-61" transform="translate(376.904297 0)"/>
      <use xlink:href="#DejaVuSerif-6e" transform="translate(436.523438 0)"/>
      <use xlink:href="#DejaVuSerif-29" transform="translate(500.927734 0)"/>
     </g>
    </g>
    <g id="line2d_45">
     <path d="M 343.289063 56.1675 
L 352.289063 56.1675 
L 361.289063 56.1675 
" style="fill: none; stroke: #d62728; stroke-opacity: 0.25; stroke-width: 0.8; stroke-linecap: square"/>
    </g>
    <g id="text_18">
     <!-- PSO -->
     <g transform="translate(368.489063 59.3175) scale(0.09 -0.09)">
      <defs>
       <path id="DejaVuSerif-50" d="M 1581 2375 
L 2406 2375 
Q 2872 2375 3115 2626 
Q 3359 2878 3359 3353 
Q 3359 3831 3115 4081 
Q 2872 4331 2406 4331 
L 1581 4331 
L 1581 2375 
z
M 353 0 
L 353 331 
L 947 331 
L 947 4331 
L 353 4331 
L 353 4666 
L 2559 4666 
Q 3259 4666 3668 4311 
Q 4078 3956 4078 3353 
Q 4078 2753 3668 2397 
Q 3259 2041 2559 2041 
L 1581 2041 
L 1581 331 
L 2303 331 
L 2303 0 
L 353 0 
z
" transform="scale(0.015625)"/>
       <path id="DejaVuSerif-53" d="M 594 225 
L 594 1288 
L 953 1284 
Q 969 753 1261 498 
Q 1553 244 2150 244 
Q 2706 244 2998 464 
Q 3291 684 3291 1106 
Q 3291 1444 3114 1625 
Q 2938 1806 2369 1978 
L 1753 2163 
Q 1084 2366 811 2669 
Q 538 2972 538 3500 
Q 538 4094 959 4422 
Q 1381 4750 2144 4750 
Q 2469 4750 2856 4679 
Q 3244 4609 3681 4475 
L 3681 3481 
L 3328 3481 
Q 3275 3975 2998 4195 
Q 2722 4416 2156 4416 
Q 1663 4416 1405 4214 
Q 1147 4013 1147 3628 
Q 1147 3294 1340 3103 
Q 1534 2913 2163 2725 
L 2741 2553 
Q 3375 2363 3645 2067 
Q 3916 1772 3916 1275 
Q 3916 597 3481 253 
Q 3047 -91 2188 -91 
Q 1803 -91 1404 -12 
Q 1006 66 594 225 
z
" transform="scale(0.015625)"/>
       <path id="DejaVuSerif-4f" d="M 2625 244 
Q 3391 244 3781 770 
Q 4172 1297 4172 2328 
Q 4172 3363 3781 3889 
Q 3391 4416 2625 4416 
Q 1856 4416 1465 3889 
Q 1075 3363 1075 2328 
Q 1075 1297 1465 770 
Q 1856 244 2625 244 
z
M 2625 -91 
Q 2150 -91 1751 65 
Q 1353 222 1050 525 
Q 700 875 529 1319 
Q 359 1763 359 2328 
Q 359 2894 529 3339 
Q 700 3784 1050 4134 
Q 1356 4441 1750 4595 
Q 2144 4750 2625 4750 
Q 3641 4750 4266 4084 
Q 4891 3419 4891 2328 
Q 4891 1769 4719 1320 
Q 4547 872 4197 525 
Q 3891 219 3497 64 
Q 3103 -91 2625 -91 
z
" transform="scale(0.015625)"/>
      </defs>
      <use xlink:href="#DejaVuSerif-50"/>
      <use xlink:href="#DejaVuSerif-53" transform="translate(67.285156 0)"/>
      <use xlink:href="#DejaVuSerif-4f" transform="translate(135.791016 0)"/>
     </g>
    </g>
    <g id="line2d_46">
     <path d="M 343.289063 69.377812 
L 352.289063 69.377812 
L 361.289063 69.377812 
" style="fill: none; stroke: #d62728; stroke-width: 2; stroke-linecap: square"/>
    </g>
    <g id="text_19">
     <!-- PSO (mean) -->
     <g transform="translate(368.489063 72.527812) scale(0.09 -0.09)">
      <use xlink:href="#DejaVuSerif-50"/>
      <use xlink:href="#DejaVuSerif-53" transform="translate(67.285156 0)"/>
      <use xlink:href="#DejaVuSerif-4f" transform="translate(135.791016 0)"/>
      <use xlink:href="#DejaVuSerif-20" transform="translate(217.773438 0)"/>
      <use xlink:href="#DejaVuSerif-28" transform="translate(249.560547 0)"/>
      <use xlink:href="#DejaVuSerif-6d" transform="translate(288.574219 0)"/>
      <use xlink:href="#DejaVuSerif-65" transform="translate(383.398438 0)"/>
      <use xlink:href="#DejaVuSerif-61" transform="translate(442.578125 0)"/>
      <use xlink:href="#DejaVuSerif-6e" transform="translate(502.197266 0)"/>
      <use xlink:href="#DejaVuSerif-29" transform="translate(566.601562 0)"/>
     </g>
    </g>
    <g id="line2d_47">
     <path d="M 343.289063 82.588125 
L 352.289063 82.588125 
L 361.289063 82.588125 
" style="fill: none; stroke-dasharray: 4.44,1.92; stroke-dashoffset: 0; stroke: #000000; stroke-width: 1.2"/>
    </g>
    <g id="text_20">
     <!-- literature 5060.85 lb -->
     <g transform="translate(368.489063 85.738125) scale(0.09 -0.09)">
      <defs>
       <path id="DejaVuSerif-75" d="M 2266 3322 
L 3341 3322 
L 3341 331 
L 3884 331 
L 3884 0 
L 2766 0 
L 2766 588 
Q 2606 256 2353 82 
Q 2100 -91 1766 -91 
Q 1213 -91 952 223 
Q 691 538 691 1209 
L 691 2988 
L 172 2988 
L 172 3322 
L 1269 3322 
L 1269 1388 
Q 1269 781 1417 556 
Q 1566 331 1947 331 
Q 2347 331 2556 625 
Q 2766 919 2766 1478 
L 2766 2988 
L 2266 2988 
L 2266 3322 
z
" transform="scale(0.015625)"/>
       <path id="DejaVuSerif-2e" d="M 603 325 
Q 603 500 722 622 
Q 841 744 1019 744 
Q 1191 744 1312 622 
Q 1434 500 1434 325 
Q 1434 153 1312 31 
Q 1191 -91 1019 -91 
Q 841 -91 722 29 
Q 603 150 603 325 
z
" transform="scale(0.015625)"/>
       <path id="DejaVuSerif-38" d="M 2981 1275 
Q 2981 1775 2732 2051 
Q 2484 2328 2034 2328 
Q 1584 2328 1336 2051 
Q 1088 1775 1088 1275 
Q 1088 772 1336 495 
Q 1584 219 2034 219 
Q 2484 219 2732 495 
Q 2981 772 2981 1275 
z
M 2853 3541 
Q 2853 3966 2637 4203 
Q 2422 4441 2034 4441 
Q 1650 4441 1433 4203 
Q 1216 3966 1216 3541 
Q 1216 3113 1433 2875 
Q 1650 2638 2034 2638 
Q 2422 2638 2637 2875 
Q 2853 3113 2853 3541 
z
M 2516 2484 
Q 3047 2413 3344 2092 
Q 3641 1772 3641 1275 
Q 3641 619 3225 264 
Q 2809 -91 2034 -91 
Q 1263 -91 845 264 
Q 428 619 428 1275 
Q 428 1772 725 2092 
Q 1022 2413 1556 2484 
Q 1084 2569 832 2842 
Q 581 3116 581 3541 
Q 581 4103 968 4426 
Q 1356 4750 2034 4750 
Q 2713 4750 3100 4426 
Q 3488 4103 3488 3541 
Q 3488 3116 3236 2842 
Q 2984 2569 2516 2484 
z
" transform="scale(0.015625)"/>
      </defs>
      <use xlink:href="#DejaVuSerif-6c"/>
      <use xlink:href="#DejaVuSerif-69" transform="translate(31.982422 0)"/>
      <use xlink:href="#DejaVuSerif-74" transform="translate(63.964844 0)"/>
      <use xlink:href="#DejaVuSerif-65" transform="translate(104.150391 0)"/>
      <use xlink:href="#DejaVuSerif-72" transform="translate(163.330078 0)"/>
      <use xlink:href="#DejaVuSerif-61" transform="translate(211.132812 0)"/>
      <use xlink:href="#DejaVuSerif-74" transform="translate(270.751953 0)"/>
      <use xlink:href="#DejaVuSerif-75" transform="translate(310.9375 0)"/>
      <use xlink:href="#DejaVuSerif-72" transform="translate(375.341797 0)"/>
      <use xlink:href="#DejaVuSerif-65" transform="translate(423.144531 0)"/>
      <use xlink:href="#DejaVuSerif-20" transform="translate(482.324219 0)"/>
      <use xlink:href="#DejaVuSerif-35" transform="translate(514.111328 0)"/>
      <use xlink:href="#DejaVuSerif-30" transform="translate(577.734375 0)"/>
      <use xlink:href="#DejaVuSerif-36" transform="translate(641.357422 0)"/>
      <use xlink:href="#DejaVuSerif-30" transform="translate(704.980469 0)"/>
      <use xlink:href="#DejaVuSerif-2e" transform="translate(768.603516 0)"/>
      <use xlink:href="#DejaVuSerif-38" transform="translate(800.390625 0)"/>
      <use xlink:href="#DejaVuSerif-35" transform="translate(864.013672 0)"/>
      <use xlink:href="#DejaVuSerif-20" transform="translate(927.636719 0)"/>
      <use xlink:href="#DejaVuSerif-6c" transform="translate(959.423828 0)"/>
      <use xlink:href="#DejaVuSerif-62" transform="translate(991.40625 0)"/>
     </g>
    </g>
   </g>
  </g>
 </g>
 <defs>
  <clipPath id="p9f48b4e452">
   <rect x="47.325313" y="17.958281" width="424.253125" height="179.8"/>
  </clipPath>
 </defs>
</svg>
