<?xml version="1.0" encoding="utf-8" standalone="no"?>
<!DOCTYPE svg PUBLIC "-//W3C//DTD SVG 1.1//EN"
  "http://www.w3.org/Graphics/SVG/1.1/DTD/svg11.dtd">
<svg xmlns:xlink="http://www.w3.org/1999/xlink" width="347.359531pt" height="309.892031pt" viewBox="0 0 347.359531 309.892031" xmlns="http://www.w3.org/2000/svg" version="1.1">
 <metadata>
  <rdf:RDF xmlns:dc="http://purl.org/dc/elements/1.1/" xmlns:cc="http://creativecommons.org/ns#" xmlns:rdf="http://www.w3.org/1999/02/22-rdf-syntax-ns#">
   <cc:Work>
    <dc:type rdf:resource="http://purl.org/dc/dcmitype/StillImage"/>
    <dc:date>2026-04-24T15:22:22.145948</dc:date>
    <dc:format>image/svg+xml</dc:format>
    <dc:creator>
     <cc:Agent>
      <dc:title>Matplotlib v3.10.8, https://matplotlib.org/</dc:title>
     </cc:Agent>
    </dc:creator>
   </cc:Work>
  </rdf:RDF>
 </metadata>
 <defs>
  <style type="text/css">*{stroke-linejoin: round; stroke-linecap: butt}</style>
 </defs>
 <g id="figure_1">
  <g id="patch_1">
   <path d="M 0 309.892031 
L 347.359531 309.892031 
L 347.359531 0 
L 0 0 
z
" style="fill: #ffffff"/>
  </g>
  <g id="axes_1">
   <g id="patch_2">
    <path d="M 40.059453 276.761406 
L 307.300078 276.761406 
L 307.300078 17.958281 
L 40.059453 17.958281 
z
" style="fill: #ffffff"/>
   </g>
   <g id="matplotlib.axis_1">
    <g id="xtick_1">
     <g id="line2d_1">
      <path d="M 71.720491 276.761406 
L 71.720491 17.958281 
" clip-path="url(#pc8d4afc9af)" style="fill: none; stroke-dasharray: 2.96,1.28; stroke-dashoffset: 0; stroke: #b0b0b0; stroke-opacity: 0.25; stroke-width: 0.8"/>
     </g>
     <g id="line2d_2">
      <defs>
       <path id="m3724a1c05a" d="M 0 0 
L 0 3.5 
" style="stroke: #000000; stroke-width: 0.8"/>
      </defs>
      <g>
       <use xlink:href="#m3724a1c05a" x="71.720491" y="276.761406" style="stroke: #000000; stroke-width: 0.8"/>
      </g>
     </g>
     <g id="text_1">
      <!-- 5000 -->
      <g transform="translate(60.267991 290.6) scale(0.09 -0.09)">
       <defs>
        <path id="DejaVuSerif-35" d="M 3219 4666 
L 3219 4153 
L 1081 4153 
L 1081 2816 
Q 1244 2928 1461 2984 
Q 1678 3041 1947 3041 
Q 2703 3041 3140 2622 
Q 3578 2203 3578 1478 
Q 3578 738 3136 323 
Q 2694 -91 1894 -91 
Q 1572 -91 1234 -12 
Q 897 66 544 225 
L 544 1131 
L 897 1131 
Q 925 688 1179 453 
Q 1434 219 1894 219 
Q 2388 219 2653 544 
Q 2919 869 2919 1478 
Q 2919 2084 2655 2407 
Q 2391 2731 1894 2731 
Q 1613 2731 1398 2631 
Q 1184 2531 1019 2322 
L 750 2322 
L 750 4666 
L 3219 4666 
z
" transform="scale(0.015625)"/>
        <path id="DejaVuSerif-30" d="M 2034 219 
Q 2513 219 2750 744 
Q 2988 1269 2988 2328 
Q 2988 3391 2750 3916 
Q 2513 4441 2034 4441 
Q 1556 4441 1318 3916 
Q 1081 3391 1081 2328 
Q 1081 1269 1318 744 
Q 1556 219 2034 219 
z
M 2034 -91 
Q 1275 -91 848 546 
Q 422 1184 422 2328 
Q 422 3475 848 4112 
Q 1275 4750 2034 4750 
Q 2797 4750 3222 4112 
Q 3647 3475 3647 2328 
Q 3647 1184 3222 546 
Q 2797 -91 2034 -91 
z
" transform="scale(0.015625)"/>
       </defs>
       <use xlink:href="#DejaVuSerif-35"/>
       <use xlink:href="#DejaVuSerif-30" transform="translate(63.623047 0)"/>
       <use xlink:href="#DejaVuSerif-30" transform="translate(127.246094 0)"/>
       <use xlink:href="#DejaVuSerif-30" transform="translate(190.869141 0)"/>
      </g>
     </g>
    </g>
    <g id="xtick_2">
     <g id="line2d_3">
      <path d="M 120.504833 276.761406 
L 120.504833 17.958281 
" clip-path="url(#pc8d4afc9af)" style="fill: none; stroke-dasharray: 2.96,1.28; stroke-dashoffset: 0; stroke: #b0b0b0; stroke-opacity: 0.25; stroke-width: 0.8"/>
     </g>
     <g id="line2d_4">
      <g>
       <use xlink:href="#m3724a1c05a" x="120.504833" y="276.761406" style="stroke: #000000; stroke-width: 0.8"/>
      </g>
     </g>
     <g id="text_2">
      <!-- 5500 -->
      <g transform="translate(109.052333 290.6) scale(0.09 -0.09)">
       <use xlink:href="#DejaVuSerif-35"/>
       <use xlink:href="#DejaVuSerif-35" transform="translate(63.623047 0)"/>
       <use xlink:href="#DejaVuSerif-30" transform="translate(127.246094 0)"/>
       <use xlink:href="#DejaVuSerif-30" transform="translate(190.869141 0)"/>
      </g>
     </g>
    </g>
    <g id="xtick_3">
     <g id="line2d_5">
      <path d="M 169.289175 276.761406 
L 169.289175 17.958281 
" clip-path="url(#pc8d4afc9af)" style="fill: none; stroke-dasharray: 2.96,1.28; stroke-dashoffset: 0; stroke: #b0b0b0; stroke-opacity: 0.25; stroke-width: 0.8"/>
     </g>
     <g id="line2d_6">
      <g>
       <use xlink:href="#m3724a1c05a" x="169.289175" y="276.761406" style="stroke: #000000; stroke-width: 0.8"/>
      </g>
     </g>
     <g id="text_3">
      <!-- 6000 -->
      <g transform="translate(157.836675 290.6) scale(0.09 -0.09)">
       <defs>
        <path id="DejaVuSerif-36" d="M 2094 219 
Q 2534 219 2771 542 
Q 3009 866 3009 1472 
Q 3009 2078 2771 2401 
Q 2534 2725 2094 2725 
Q 1647 2725 1412 2412 
Q 1178 2100 1178 1509 
Q 1178 888 1415 553 
Q 1653 219 2094 219 
z
M 1075 2569 
Q 1288 2803 1556 2918 
Q 1825 3034 2163 3034 
Q 2859 3034 3264 2615 
Q 3669 2197 3669 1472 
Q 3669 763 3233 336 
Q 2797 -91 2069 -91 
Q 1278 -91 853 498 
Q 428 1088 428 2181 
Q 428 3406 931 4078 
Q 1434 4750 2350 4750 
Q 2597 4750 2869 4703 
Q 3141 4656 3425 4563 
L 3425 3794 
L 3072 3794 
Q 3034 4109 2831 4275 
Q 2628 4441 2284 4441 
Q 1678 4441 1381 3981 
Q 1084 3522 1075 2569 
z
" transform="scale(0.015625)"/>
       </defs>
       <use xlink:href="#DejaVuSerif-36"/>
       <use xlink:href="#DejaVuSerif-30" transform="translate(63.623047 0)"/>
       <use xlink:href="#DejaVuSerif-30" transform="translate(127.246094 0)"/>
       <use xlink:href="#DejaVuSerif-30" transform="translate(190.869141 0)"/>
      </g>
     </g>
    </g>
    <g id="xtick_4">
     <g id="line2d_7">
      <path d="M 218.073517 276.761406 
L 218.073517 17.958281 
" clip-path="url(#pc8d4afc9af)" style="fill: none; stroke-dasharray: 2.96,1.28; stroke-dashoffset: 0; stroke: #b0b0b0; stroke-opacity: 0.25; stroke-width: 0.8"/>
     </g>
     <g id="line2d_8">
      <g>
       <use xlink:href="#m3724a1c05a" x="218.073517" y="276.761406" style="stroke: #000000; stroke-width: 0.8"/>
      </g>
     </g>
     <g id="text_4">
      <!-- 6500 -->
      <g transform="translate(206.621017 290.6) scale(0.09 -0.09)">
       <use xlink:href="#DejaVuSerif-36"/>
       <use xlink:href="#DejaVuSerif-35" transform="translate(63.623047 0)"/>
       <use xlink:href="#DejaVuSerif-30" transform="translate(127.246094 0)"/>
       <use xlink:href="#DejaVuSerif-30" transform="translate(190.869141 0)"/>
      </g>
     </g>
    </g>
    <g id="xtick_5">
     <g id="line2d_9">
      <path d="M 266.857859 276.761406 
L 266.857859 17.958281 
" clip-path="url(#pc8d4afc9af)" style="fill: none; stroke-dasharray: 2.96,1.28; stroke-dashoffset: 0; stroke: #b0b0b0; stroke-opacity: 0.25; stroke-width: 0.8"/>
     </g>
     <g id="line2d_10">
      <g>
       <use xlink:href="#m3724a1c05a" x="266.857859" y="276.761406" style="stroke: #000000; stroke-width: 0.8"/>
      </g>
     </g>
     <g id="text_5">
      <!-- 7000 -->
      <g transform="translate(255.405359 290.6) scale(0.09 -0.09)">
       <defs>
        <path id="DejaVuSerif-37" d="M 3609 4347 
L 1784 0 
L 1319 0 
L 3059 4153 
L 903 4153 
L 903 3578 
L 538 3578 
L 538 4666 
L 3609 4666 
L 3609 4347 
z
" transform="scale(0.015625)"/>
       </defs>
       <use xlink:href="#DejaVuSerif-37"/>
       <use xlink:href="#DejaVuSerif-30" transform="translate(63.623047 0)"/>
       <use xlink:href="#DejaVuSerif-30" transform="translate(127.246094 0)"/>
       <use xlink:href="#DejaVuSerif-30" transform="translate(190.869141 0)"/>
      </g>
     </g>
    </g>
    <g id="text_6">
     <!-- weight (lb) -->
     <g transform="translate(146.120391 304.070156) scale(0.1 -0.1)">
      <defs>
       <path id="DejaVuSerif-77" d="M 3072 3322 
L 3922 728 
L 4672 2988 
L 4191 2988 
L 4191 3322 
L 5394 3322 
L 5394 2988 
L 5025 2988 
L 4038 0 
L 3559 0 
L 2741 2484 
L 1919 0 
L 1459 0 
L 475 2988 
L 103 2988 
L 103 3322 
L 1606 3322 
L 1606 2988 
L 1069 2988 
L 1813 728 
L 2669 3322 
L 3072 3322 
z
" transform="scale(0.015625)"/>
       <path id="DejaVuSerif-65" d="M 3469 1600 
L 991 1600 
L 991 1575 
Q 991 903 1244 561 
Q 1497 219 1991 219 
Q 2369 219 2611 417 
Q 2853 616 2950 1006 
L 3413 1006 
Q 3275 459 2904 184 
Q 2534 -91 1931 -91 
Q 1203 -91 761 389 
Q 319 869 319 1663 
Q 319 2450 753 2931 
Q 1188 3413 1894 3413 
Q 2647 3413 3050 2948 
Q 3453 2484 3469 1600 
z
M 2791 1931 
Q 2772 2513 2545 2808 
Q 2319 3103 1894 3103 
Q 1497 3103 1269 2806 
Q 1041 2509 991 1931 
L 2791 1931 
z
" transform="scale(0.015625)"/>
       <path id="DejaVuSerif-69" d="M 622 4353 
Q 622 4497 726 4603 
Q 831 4709 978 4709 
Q 1122 4709 1226 4603 
Q 1331 4497 1331 4353 
Q 1331 4206 1228 4103 
Q 1125 4000 978 4000 
Q 831 4000 726 4103 
Q 622 4206 622 4353 
z
M 1356 331 
L 1900 331 
L 1900 0 
L 231 0 
L 231 331 
L 781 331 
L 781 2988 
L 231 2988 
L 231 3322 
L 1356 3322 
L 1356 331 
z
" transform="scale(0.015625)"/>
       <path id="DejaVuSerif-67" d="M 3359 2988 
L 3359 72 
Q 3359 -644 2965 -1033 
Q 2572 -1422 1844 -1422 
Q 1516 -1422 1216 -1362 
Q 916 -1303 641 -1184 
L 641 -488 
L 941 -488 
Q 997 -813 1206 -963 
Q 1416 -1113 1806 -1113 
Q 2313 -1113 2548 -827 
Q 2784 -541 2784 72 
L 2784 519 
Q 2616 206 2355 57 
Q 2094 -91 1709 -91 
Q 1097 -91 708 395 
Q 319 881 319 1663 
Q 319 2444 706 2928 
Q 1094 3413 1709 3413 
Q 2094 3413 2355 3264 
Q 2616 3116 2784 2803 
L 2784 3322 
L 3909 3322 
L 3909 2988 
L 3359 2988 
z
M 2784 1825 
Q 2784 2422 2554 2737 
Q 2325 3053 1888 3053 
Q 1444 3053 1217 2703 
Q 991 2353 991 1663 
Q 991 975 1217 622 
Q 1444 269 1888 269 
Q 2325 269 2554 583 
Q 2784 897 2784 1497 
L 2784 1825 
z
" transform="scale(0.015625)"/>
       <path id="DejaVuSerif-68" d="M 263 0 
L 263 331 
L 781 331 
L 781 4531 
L 231 4531 
L 231 4863 
L 1356 4863 
L 1356 2731 
Q 1516 3069 1770 3241 
Q 2025 3413 2363 3413 
Q 2913 3413 3172 3097 
Q 3431 2781 3431 2113 
L 3431 331 
L 3944 331 
L 3944 0 
L 2356 0 
L 2356 331 
L 2853 331 
L 2853 1931 
Q 2853 2541 2704 2764 
Q 2556 2988 2175 2988 
Q 1775 2988 1565 2697 
Q 1356 2406 1356 1850 
L 1356 331 
L 1856 331 
L 1856 0 
L 263 0 
z
" transform="scale(0.015625)"/>
       <path id="DejaVuSerif-74" d="M 691 2988 
L 184 2988 
L 184 3322 
L 691 3322 
L 691 4353 
L 1269 4353 
L 1269 3322 
L 2350 3322 
L 2350 2988 
L 1269 2988 
L 1269 878 
Q 1269 456 1350 337 
Q 1431 219 1650 219 
Q 1875 219 1978 351 
Q 2081 484 2088 781 
L 2522 781 
Q 2497 328 2275 118 
Q 2053 -91 1600 -91 
Q 1103 -91 897 129 
Q 691 350 691 878 
L 691 2988 
z
" transform="scale(0.015625)"/>
       <path id="DejaVuSerif-20" transform="scale(0.015625)"/>
       <path id="DejaVuSerif-28" d="M 2041 -997 
Q 1281 -656 893 83 
Q 506 822 506 1931 
Q 506 3044 893 3783 
Q 1281 4522 2041 4863 
L 2041 4556 
Q 1559 4225 1350 3623 
Q 1141 3022 1141 1931 
Q 1141 844 1350 242 
Q 1559 -359 2041 -691 
L 2041 -997 
z
" transform="scale(0.015625)"/>
       <path id="DejaVuSerif-6c" d="M 1313 331 
L 1856 331 
L 1856 0 
L 184 0 
L 184 331 
L 738 331 
L 738 4531 
L 184 4531 
L 184 4863 
L 1313 4863 
L 1313 331 
z
" transform="scale(0.015625)"/>
       <path id="DejaVuSerif-62" d="M 738 331 
L 738 4531 
L 184 4531 
L 184 4863 
L 1313 4863 
L 1313 2803 
Q 1481 3116 1742 3264 
Q 2003 3413 2388 3413 
Q 3000 3413 3387 2928 
Q 3775 2444 3775 1663 
Q 3775 881 3387 395 
Q 3000 -91 2388 -91 
Q 2003 -91 1742 57 
Q 1481 206 1313 519 
L 1313 0 
L 184 0 
L 184 331 
L 738 331 
z
M 1313 1497 
Q 1313 897 1542 583 
Q 1772 269 2209 269 
Q 2650 269 2876 622 
Q 3103 975 3103 1663 
Q 3103 2353 2876 2703 
Q 2650 3053 2209 3053 
Q 1772 3053 1542 2737 
Q 1313 2422 1313 1825 
L 1313 1497 
z
" transform="scale(0.015625)"/>
       <path id="DejaVuSerif-29" d="M 453 -997 
L 453 -691 
Q 934 -359 1145 242 
Q 1356 844 1356 1931 
Q 1356 3022 1145 3623 
Q 934 4225 453 4556 
L 453 4863 
Q 1216 4522 1603 3783 
Q 1991 3044 1991 1931 
Q 1991 822 1603 83 
Q 1216 -656 453 -997 
z
" transform="scale(0.015625)"/>
      </defs>
      <use xlink:href="#DejaVuSerif-77"/>
      <use xlink:href="#DejaVuSerif-65" transform="translate(85.595703 0)"/>
      <use xlink:href="#DejaVuSerif-69" transform="translate(144.775391 0)"/>
      <use xlink:href="#DejaVuSerif-67" transform="translate(176.757812 0)"/>
      <use xlink:href="#DejaVuSerif-68" transform="translate(240.771484 0)"/>
      <use xlink:href="#DejaVuSerif-74" transform="translate(305.175781 0)"/>
      <use xlink:href="#DejaVuSerif-20" transform="translate(345.361328 0)"/>
      <use xlink:href="#DejaVuSerif-28" transform="translate(377.148438 0)"/>
      <use xlink:href="#DejaVuSerif-6c" transform="translate(416.162109 0)"/>
      <use xlink:href="#DejaVuSerif-62" transform="translate(448.144531 0)"/>
      <use xlink:href="#DejaVuSerif-29" transform="translate(512.158203 0)"/>
     </g>
    </g>
   </g>
   <g id="matplotlib.axis_2">
    <g id="ytick_1">
     <g id="line2d_11">
      <path d="M 40.059453 250.214034 
L 307.300078 250.214034 
" clip-path="url(#pc8d4afc9af)" style="fill: none; stroke-dasharray: 2.96,1.28; stroke-dashoffset: 0; stroke: #b0b0b0; stroke-opacity: 0.25; stroke-width: 0.8"/>
     </g>
     <g id="line2d_12">
      <defs>
       <path id="m65f058191c" d="M 0 0 
L -3.5 0 
" style="stroke: #000000; stroke-width: 0.8"/>
      </defs>
      <g>
       <use xlink:href="#m65f058191c" x="40.059453" y="250.214034" style="stroke: #000000; stroke-width: 0.8"/>
      </g>
     </g>
     <g id="text_7">
      <!-- 1.0 -->
      <g transform="translate(18.746641 253.633331) scale(0.09 -0.09)">
       <defs>
        <path id="DejaVuSerif-31" d="M 909 0 
L 909 331 
L 1722 331 
L 1722 4213 
L 781 3603 
L 781 4013 
L 1919 4750 
L 2350 4750 
L 2350 331 
L 3163 331 
L 3163 0 
L 909 0 
z
" transform="scale(0.015625)"/>
        <path id="DejaVuSerif-2e" d="M 603 325 
Q 603 500 722 622 
Q 841 744 1019 744 
Q 1191 744 1312 622 
Q 1434 500 1434 325 
Q 1434 153 1312 31 
Q 1191 -91 1019 -91 
Q 841 -91 722 29 
Q 603 150 603 325 
z
" transform="scale(0.015625)"/>
       </defs>
       <use xlink:href="#DejaVuSerif-31"/>
       <use xlink:href="#DejaVuSerif-2e" transform="translate(63.623047 0)"/>
       <use xlink:href="#DejaVuSerif-30" transform="translate(95.410156 0)"/>
      </g>
     </g>
    </g>
    <g id="ytick_2">
     <g id="line2d_13">
      <path d="M 40.059453 202.280996 
L 307.300078 202.280996 
" clip-path="url(#pc8d4afc9af)" style="fill: none; stroke-dasharray: 2.96,1.28; stroke-dashoffset: 0; stroke: #b0b0b0; stroke-opacity: 0.25; stroke-width: 0.8"/>
     </g>
     <g id="line2d_14">
      <g>
       <use xlink:href="#m65f058191c" x="40.059453" y="202.280996" style="stroke: #000000; stroke-width: 0.8"/>
      </g>
     </g>
     <g id="text_8">
      <!-- 1.5 -->
      <g transform="translate(18.746641 205.700293) scale(0.09 -0.09)">
       <use xlink:href="#DejaVuSerif-31"/>
       <use xlink:href="#DejaVuSerif-2e" transform="translate(63.623047 0)"/>
       <use xlink:href="#DejaVuSerif-35" transform="translate(95.410156 0)"/>
      </g>
     </g>
    </g>
    <g id="ytick_3">
     <g id="line2d_15">
      <path d="M 40.059453 154.347958 
L 307.300078 154.347958 
" clip-path="url(#pc8d4afc9af)" style="fill: none; stroke-dasharray: 2.96,1.28; stroke-dashoffset: 0; stroke: #b0b0b0; stroke-opacity: 0.25; stroke-width: 0.8"/>
     </g>
     <g id="line2d_16">
      <g>
       <use xlink:href="#m65f058191c" x="40.059453" y="154.347958" style="stroke: #000000; stroke-width: 0.8"/>
      </g>
     </g>
     <g id="text_9">
      <!-- 2.0 -->
      <g transform="translate(18.746641 157.767255) scale(0.09 -0.09)">
       <defs>
        <path id="DejaVuSerif-32" d="M 819 3553 
L 469 3553 
L 469 4384 
Q 803 4563 1142 4656 
Q 1481 4750 1806 4750 
Q 2534 4750 2956 4397 
Q 3378 4044 3378 3438 
Q 3378 2753 2422 1800 
Q 2347 1728 2309 1691 
L 1131 513 
L 3078 513 
L 3078 1088 
L 3444 1088 
L 3444 0 
L 434 0 
L 434 341 
L 1850 1753 
Q 2319 2222 2519 2614 
Q 2719 3006 2719 3438 
Q 2719 3909 2473 4175 
Q 2228 4441 1797 4441 
Q 1350 4441 1106 4219 
Q 863 3997 819 3553 
z
" transform="scale(0.015625)"/>
       </defs>
       <use xlink:href="#DejaVuSerif-32"/>
       <use xlink:href="#DejaVuSerif-2e" transform="translate(63.623047 0)"/>
       <use xlink:href="#DejaVuSerif-30" transform="translate(95.410156 0)"/>
      </g>
     </g>
    </g>
    <g id="ytick_4">
     <g id="line2d_17">
      <path d="M 40.059453 106.41492 
L 307.300078 106.41492 
" clip-path="url(#pc8d4afc9af)" style="fill: none; stroke-dasharray: 2.96,1.28; stroke-dashoffset: 0; stroke: #b0b0b0; stroke-opacity: 0.25; stroke-width: 0.8"/>
     </g>
     <g id="line2d_18">
      <g>
       <use xlink:href="#m65f058191c" x="40.059453" y="106.41492" style="stroke: #000000; stroke-width: 0.8"/>
      </g>
     </g>
     <g id="text_10">
      <!-- 2.5 -->
      <g transform="translate(18.746641 109.834217) scale(0.09 -0.09)">
       <use xlink:href="#DejaVuSerif-32"/>
       <use xlink:href="#DejaVuSerif-2e" transform="translate(63.623047 0)"/>
       <use xlink:href="#DejaVuSerif-35" transform="translate(95.410156 0)"/>
      </g>
     </g>
    </g>
    <g id="ytick_5">
     <g id="line2d_19">
      <path d="M 40.059453 58.481882 
L 307.300078 58.481882 
" clip-path="url(#pc8d4afc9af)" style="fill: none; stroke-dasharray: 2.96,1.28; stroke-dashoffset: 0; stroke: #b0b0b0; stroke-opacity: 0.25; stroke-width: 0.8"/>
     </g>
     <g id="line2d_20">
      <g>
       <use xlink:href="#m65f058191c" x="40.059453" y="58.481882" style="stroke: #000000; stroke-width: 0.8"/>
      </g>
     </g>
     <g id="text_11">
      <!-- 3.0 -->
      <g transform="translate(18.746641 61.901179) scale(0.09 -0.09)">
       <defs>
        <path id="DejaVuSerif-33" d="M 622 4469 
Q 988 4606 1323 4678 
Q 1659 4750 1953 4750 
Q 2638 4750 3022 4454 
Q 3406 4159 3406 3634 
Q 3406 3213 3140 2930 
Q 2875 2647 2388 2547 
Q 2963 2466 3280 2130 
Q 3597 1794 3597 1259 
Q 3597 606 3158 257 
Q 2719 -91 1894 -91 
Q 1528 -91 1179 -12 
Q 831 66 488 225 
L 488 1131 
L 838 1131 
Q 869 681 1141 450 
Q 1413 219 1906 219 
Q 2384 219 2661 495 
Q 2938 772 2938 1253 
Q 2938 1803 2653 2086 
Q 2369 2369 1819 2369 
L 1522 2369 
L 1522 2688 
L 1678 2688 
Q 2225 2688 2498 2914 
Q 2772 3141 2772 3597 
Q 2772 4006 2547 4223 
Q 2322 4441 1900 4441 
Q 1478 4441 1245 4241 
Q 1013 4041 972 3647 
L 622 3647 
L 622 4469 
z
" transform="scale(0.015625)"/>
       </defs>
       <use xlink:href="#DejaVuSerif-33"/>
       <use xlink:href="#DejaVuSerif-2e" transform="translate(63.623047 0)"/>
       <use xlink:href="#DejaVuSerif-30" transform="translate(95.410156 0)"/>
      </g>
     </g>
    </g>
    <g id="text_12">
     <!-- max displacement (in) -->
     <g transform="translate(12.666953 203.637969) rotate(-90) scale(0.1 -0.1)">
      <defs>
       <path id="DejaVuSerif-6d" d="M 3316 2675 
Q 3481 3041 3739 3227 
Q 3997 3413 4341 3413 
Q 4863 3413 5119 3089 
Q 5375 2766 5375 2113 
L 5375 331 
L 5894 331 
L 5894 0 
L 4300 0 
L 4300 331 
L 4800 331 
L 4800 2047 
Q 4800 2556 4650 2772 
Q 4500 2988 4153 2988 
Q 3769 2988 3567 2697 
Q 3366 2406 3366 1850 
L 3366 331 
L 3866 331 
L 3866 0 
L 2291 0 
L 2291 331 
L 2791 331 
L 2791 2069 
Q 2791 2566 2641 2777 
Q 2491 2988 2144 2988 
Q 1759 2988 1557 2697 
Q 1356 2406 1356 1850 
L 1356 331 
L 1856 331 
L 1856 0 
L 263 0 
L 263 331 
L 781 331 
L 781 2994 
L 231 2994 
L 231 3322 
L 1356 3322 
L 1356 2731 
Q 1516 3063 1762 3238 
Q 2009 3413 2322 3413 
Q 2709 3413 2968 3220 
Q 3228 3028 3316 2675 
z
" transform="scale(0.015625)"/>
       <path id="DejaVuSerif-61" d="M 2547 1044 
L 2547 1747 
L 1806 1747 
Q 1378 1747 1168 1562 
Q 959 1378 959 997 
Q 959 650 1171 447 
Q 1384 244 1747 244 
Q 2106 244 2326 466 
Q 2547 688 2547 1044 
z
M 3122 2075 
L 3122 331 
L 3634 331 
L 3634 0 
L 2547 0 
L 2547 359 
Q 2356 128 2106 18 
Q 1856 -91 1522 -91 
Q 969 -91 644 203 
Q 319 497 319 997 
Q 319 1513 691 1797 
Q 1063 2081 1741 2081 
L 2547 2081 
L 2547 2309 
Q 2547 2688 2317 2895 
Q 2088 3103 1672 3103 
Q 1328 3103 1125 2947 
Q 922 2791 872 2484 
L 575 2484 
L 575 3156 
Q 875 3284 1158 3348 
Q 1441 3413 1709 3413 
Q 2400 3413 2761 3070 
Q 3122 2728 3122 2075 
z
" transform="scale(0.015625)"/>
       <path id="DejaVuSerif-78" d="M 1863 2028 
L 2559 2988 
L 2113 2988 
L 2113 3322 
L 3391 3322 
L 3391 2988 
L 2950 2988 
L 2059 1759 
L 3097 331 
L 3531 331 
L 3531 0 
L 1997 0 
L 1997 331 
L 2419 331 
L 1697 1325 
L 972 331 
L 1403 331 
L 1403 0 
L 141 0 
L 141 331 
L 581 331 
L 1497 1594 
L 488 2988 
L 78 2988 
L 78 3322 
L 1563 3322 
L 1563 2988 
L 1166 2988 
L 1863 2028 
z
" transform="scale(0.015625)"/>
       <path id="DejaVuSerif-64" d="M 3359 331 
L 3909 331 
L 3909 0 
L 2784 0 
L 2784 519 
Q 2616 206 2355 57 
Q 2094 -91 1709 -91 
Q 1097 -91 708 395 
Q 319 881 319 1663 
Q 319 2444 706 2928 
Q 1094 3413 1709 3413 
Q 2094 3413 2355 3264 
Q 2616 3116 2784 2803 
L 2784 4531 
L 2241 4531 
L 2241 4863 
L 3359 4863 
L 3359 331 
z
M 2784 1497 
L 2784 1825 
Q 2784 2422 2554 2737 
Q 2325 3053 1888 3053 
Q 1444 3053 1217 2703 
Q 991 2353 991 1663 
Q 991 975 1217 622 
Q 1444 269 1888 269 
Q 2325 269 2554 583 
Q 2784 897 2784 1497 
z
" transform="scale(0.015625)"/>
       <path id="DejaVuSerif-73" d="M 359 184 
L 359 959 
L 691 959 
Q 703 588 923 403 
Q 1144 219 1575 219 
Q 1963 219 2166 364 
Q 2369 509 2369 788 
Q 2369 1006 2220 1140 
Q 2072 1275 1594 1428 
L 1178 1569 
Q 750 1706 558 1912 
Q 366 2119 366 2438 
Q 366 2894 700 3153 
Q 1034 3413 1625 3413 
Q 1888 3413 2178 3344 
Q 2469 3275 2778 3144 
L 2778 2419 
L 2447 2419 
Q 2434 2741 2221 2922 
Q 2009 3103 1644 3103 
Q 1281 3103 1095 2975 
Q 909 2847 909 2591 
Q 909 2381 1050 2254 
Q 1191 2128 1613 1997 
L 2069 1856 
Q 2541 1709 2748 1489 
Q 2956 1269 2956 922 
Q 2956 450 2595 179 
Q 2234 -91 1600 -91 
Q 1278 -91 972 -22 
Q 666 47 359 184 
z
" transform="scale(0.015625)"/>
       <path id="DejaVuSerif-70" d="M 1313 1825 
L 1313 1497 
Q 1313 897 1542 583 
Q 1772 269 2209 269 
Q 2650 269 2876 622 
Q 3103 975 3103 1663 
Q 3103 2353 2876 2703 
Q 2650 3053 2209 3053 
Q 1772 3053 1542 2737 
Q 1313 2422 1313 1825 
z
M 738 2988 
L 184 2988 
L 184 3322 
L 1313 3322 
L 1313 2803 
Q 1481 3116 1742 3264 
Q 2003 3413 2388 3413 
Q 3000 3413 3387 2928 
Q 3775 2444 3775 1663 
Q 3775 881 3387 395 
Q 3000 -91 2388 -91 
Q 2003 -91 1742 57 
Q 1481 206 1313 519 
L 1313 -997 
L 1856 -997 
L 1856 -1331 
L 184 -1331 
L 184 -997 
L 738 -997 
L 738 2988 
z
" transform="scale(0.015625)"/>
       <path id="DejaVuSerif-63" d="M 3291 997 
Q 3169 466 2822 187 
Q 2475 -91 1925 -91 
Q 1200 -91 759 389 
Q 319 869 319 1663 
Q 319 2459 759 2936 
Q 1200 3413 1925 3413 
Q 2241 3413 2553 3339 
Q 2866 3266 3181 3116 
L 3181 2266 
L 2847 2266 
Q 2781 2703 2561 2903 
Q 2341 3103 1931 3103 
Q 1466 3103 1228 2742 
Q 991 2381 991 1663 
Q 991 944 1227 581 
Q 1463 219 1931 219 
Q 2303 219 2525 412 
Q 2747 606 2828 997 
L 3291 997 
z
" transform="scale(0.015625)"/>
       <path id="DejaVuSerif-6e" d="M 263 0 
L 263 331 
L 781 331 
L 781 2988 
L 231 2988 
L 231 3322 
L 1356 3322 
L 1356 2731 
Q 1516 3069 1770 3241 
Q 2025 3413 2363 3413 
Q 2913 3413 3172 3097 
Q 3431 2781 3431 2113 
L 3431 331 
L 3944 331 
L 3944 0 
L 2356 0 
L 2356 331 
L 2853 331 
L 2853 1931 
Q 2853 2541 2703 2767 
Q 2553 2994 2175 2994 
Q 1775 2994 1565 2701 
Q 1356 2409 1356 1850 
L 1356 331 
L 1856 331 
L 1856 0 
L 263 0 
z
" transform="scale(0.015625)"/>
      </defs>
      <use xlink:href="#DejaVuSerif-6d"/>
      <use xlink:href="#DejaVuSerif-61" transform="translate(94.824219 0)"/>
      <use xlink:href="#DejaVuSerif-78" transform="translate(154.443359 0)"/>
      <use xlink:href="#DejaVuSerif-20" transform="translate(210.839844 0)"/>
      <use xlink:href="#DejaVuSerif-64" transform="translate(242.626953 0)"/>
      <use xlink:href="#DejaVuSerif-69" transform="translate(306.640625 0)"/>
      <use xlink:href="#DejaVuSerif-73" transform="translate(338.623047 0)"/>
      <use xlink:href="#DejaVuSerif-70" transform="translate(389.941406 0)"/>
      <use xlink:href="#DejaVuSerif-6c" transform="translate(453.955078 0)"/>
      <use xlink:href="#DejaVuSerif-61" transform="translate(485.9375 0)"/>
      <use xlink:href="#DejaVuSerif-63" transform="translate(545.556641 0)"/>
      <use xlink:href="#DejaVuSerif-65" transform="translate(601.5625 0)"/>
      <use xlink:href="#DejaVuSerif-6d" transform="translate(660.742188 0)"/>
      <use xlink:href="#DejaVuSerif-65" transform="translate(755.566406 0)"/>
      <use xlink:href="#DejaVuSerif-6e" transform="translate(814.746094 0)"/>
      <use xlink:href="#DejaVuSerif-74" transform="translate(879.150391 0)"/>
      <use xlink:href="#DejaVuSerif-20" transform="translate(919.335938 0)"/>
      <use xlink:href="#DejaVuSerif-28" transform="translate(951.123047 0)"/>
      <use xlink:href="#DejaVuSerif-69" transform="translate(990.136719 0)"/>
      <use xlink:href="#DejaVuSerif-6e" transform="translate(1022.119141 0)"/>
      <use xlink:href="#DejaVuSerif-29" transform="translate(1086.523438 0)"/>
     </g>
    </g>
   </g>
   <g id="line2d_21">
    <path d="M 52.206754 29.72206 
L 60.281404 60.600818 
L 68.356054 87.501118 
L 76.430703 110.935551 
L 84.505353 131.350663 
L 92.580003 149.135466 
L 100.654652 164.628854 
L 108.729302 178.126055 
L 116.803952 189.884259 
L 124.878602 200.127522 
L 132.953251 209.051031 
L 141.027901 216.824823 
L 149.102551 223.597031 
L 157.1772 229.496699 
L 165.25185 234.636246 
L 173.3265 239.113608 
L 181.401149 243.014101 
L 189.475799 246.41205 
L 197.550449 249.372203 
L 205.625098 251.950966 
L 213.699748 254.197478 
L 221.774398 256.154547 
L 229.849048 257.859465 
L 237.923697 259.344719 
L 245.998347 260.638611 
L 254.072997 261.765796 
L 262.147646 262.747753 
L 270.222296 263.603194 
L 278.296946 264.348419 
L 286.371595 264.997628 
" clip-path="url(#pc8d4afc9af)" style="fill: none; stroke: #7f7f7f; stroke-width: 1.4; stroke-linecap: square"/>
    <defs>
     <path id="m416bc45db2" d="M 0 2 
C 0.530406 2 1.03916 1.789267 1.414214 1.414214 
C 1.789267 1.03916 2 0.530406 2 0 
C 2 -0.530406 1.789267 -1.03916 1.414214 -1.414214 
C 1.03916 -1.789267 0.530406 -2 0 -2 
C -0.530406 -2 -1.03916 -1.789267 -1.414214 -1.414214 
C -1.789267 -1.03916 -2 -0.530406 -2 0 
C -2 0.530406 -1.789267 1.03916 -1.414214 1.414214 
C -1.03916 1.789267 -0.530406 2 0 2 
z
" style="stroke: #7f7f7f"/>
    </defs>
    <g clip-path="url(#pc8d4afc9af)">
     <use xlink:href="#m416bc45db2" x="52.206754" y="29.72206" style="fill: #7f7f7f; stroke: #7f7f7f"/>
     <use xlink:href="#m416bc45db2" x="60.281404" y="60.600818" style="fill: #7f7f7f; stroke: #7f7f7f"/>
     <use xlink:href="#m416bc45db2" x="68.356054" y="87.501118" style="fill: #7f7f7f; stroke: #7f7f7f"/>
     <use xlink:href="#m416bc45db2" x="76.430703" y="110.935551" style="fill: #7f7f7f; stroke: #7f7f7f"/>
     <use xlink:href="#m416bc45db2" x="84.505353" y="131.350663" style="fill: #7f7f7f; stroke: #7f7f7f"/>
     <use xlink:href="#m416bc45db2" x="92.580003" y="149.135466" style="fill: #7f7f7f; stroke: #7f7f7f"/>
     <use xlink:href="#m416bc45db2" x="100.654652" y="164.628854" style="fill: #7f7f7f; stroke: #7f7f7f"/>
     <use xlink:href="#m416bc45db2" x="108.729302" y="178.126055" style="fill: #7f7f7f; stroke: #7f7f7f"/>
     <use xlink:href="#m416bc45db2" x="116.803952" y="189.884259" style="fill: #7f7f7f; stroke: #7f7f7f"/>
     <use xlink:href="#m416bc45db2" x="124.878602" y="200.127522" style="fill: #7f7f7f; stroke: #7f7f7f"/>
     <use xlink:href="#m416bc45db2" x="132.953251" y="209.051031" style="fill: #7f7f7f; stroke: #7f7f7f"/>
     <use xlink:href="#m416bc45db2" x="141.027901" y="216.824823" style="fill: #7f7f7f; stroke: #7f7f7f"/>
     <use xlink:href="#m416bc45db2" x="149.102551" y="223.597031" style="fill: #7f7f7f; stroke: #7f7f7f"/>
     <use xlink:href="#m416bc45db2" x="157.1772" y="229.496699" style="fill: #7f7f7f; stroke: #7f7f7f"/>
     <use xlink:href="#m416bc45db2" x="165.25185" y="234.636246" style="fill: #7f7f7f; stroke: #7f7f7f"/>
     <use xlink:href="#m416bc45db2" x="173.3265" y="239.113608" style="fill: #7f7f7f; stroke: #7f7f7f"/>
     <use xlink:href="#m416bc45db2" x="181.401149" y="243.014101" style="fill: #7f7f7f; stroke: #7f7f7f"/>
     <use xlink:href="#m416bc45db2" x="189.475799" y="246.41205" style="fill: #7f7f7f; stroke: #7f7f7f"/>
     <use xlink:href="#m416bc45db2" x="197.550449" y="249.372203" style="fill: #7f7f7f; stroke: #7f7f7f"/>
     <use xlink:href="#m416bc45db2" x="205.625098" y="251.950966" style="fill: #7f7f7f; stroke: #7f7f7f"/>
     <use xlink:href="#m416bc45db2" x="213.699748" y="254.197478" style="fill: #7f7f7f; stroke: #7f7f7f"/>
     <use xlink:href="#m416bc45db2" x="221.774398" y="256.154547" style="fill: #7f7f7f; stroke: #7f7f7f"/>
     <use xlink:href="#m416bc45db2" x="229.849048" y="257.859465" style="fill: #7f7f7f; stroke: #7f7f7f"/>
     <use xlink:href="#m416bc45db2" x="237.923697" y="259.344719" style="fill: #7f7f7f; stroke: #7f7f7f"/>
     <use xlink:href="#m416bc45db2" x="245.998347" y="260.638611" style="fill: #7f7f7f; stroke: #7f7f7f"/>
     <use xlink:href="#m416bc45db2" x="254.072997" y="261.765796" style="fill: #7f7f7f; stroke: #7f7f7f"/>
     <use xlink:href="#m416bc45db2" x="262.147646" y="262.747753" style="fill: #7f7f7f; stroke: #7f7f7f"/>
     <use xlink:href="#m416bc45db2" x="270.222296" y="263.603194" style="fill: #7f7f7f; stroke: #7f7f7f"/>
     <use xlink:href="#m416bc45db2" x="278.296946" y="264.348419" style="fill: #7f7f7f; stroke: #7f7f7f"/>
     <use xlink:href="#m416bc45db2" x="286.371595" y="264.997628" style="fill: #7f7f7f; stroke: #7f7f7f"/>
    </g>
   </g>
   <g id="line2d_22">
    <path d="M 60.987936 29.72206 
L 69.062586 60.600818 
L 77.137235 87.501118 
L 85.211885 110.935551 
L 93.286535 131.350663 
L 101.361184 149.135466 
L 109.435834 164.628854 
L 117.510484 178.126055 
L 125.585133 189.884259 
L 133.659783 200.127522 
L 141.734433 209.051031 
L 149.809082 216.824823 
L 157.883732 223.597031 
L 165.958382 229.496699 
L 174.033032 234.636246 
L 182.107681 239.113608 
L 190.182331 243.014101 
L 198.256981 246.41205 
L 206.33163 249.372203 
L 214.40628 251.950966 
L 222.48093 254.197478 
L 230.555579 256.154547 
L 238.630229 257.859465 
L 246.704879 259.344719 
L 254.779529 260.638611 
L 262.854178 261.765796 
L 270.928828 262.747753 
L 279.003478 263.603194 
L 287.078127 264.348419 
L 295.152777 264.997628 
" clip-path="url(#pc8d4afc9af)" style="fill: none; stroke: #1f77b4; stroke-width: 1.4; stroke-linecap: square"/>
    <defs>
     <path id="me763da15fa" d="M -2 2 
L 2 2 
L 2 -2 
L -2 -2 
z
" style="stroke: #1f77b4; stroke-linejoin: miter"/>
    </defs>
    <g clip-path="url(#pc8d4afc9af)">
     <use xlink:href="#me763da15fa" x="60.987936" y="29.72206" style="fill: #1f77b4; stroke: #1f77b4; stroke-linejoin: miter"/>
     <use xlink:href="#me763da15fa" x="69.062586" y="60.600818" style="fill: #1f77b4; stroke: #1f77b4; stroke-linejoin: miter"/>
     <use xlink:href="#me763da15fa" x="77.137235" y="87.501118" style="fill: #1f77b4; stroke: #1f77b4; stroke-linejoin: miter"/>
     <use xlink:href="#me763da15fa" x="85.211885" y="110.935551" style="fill: #1f77b4; stroke: #1f77b4; stroke-linejoin: miter"/>
     <use xlink:href="#me763da15fa" x="93.286535" y="131.350663" style="fill: #1f77b4; stroke: #1f77b4; stroke-linejoin: miter"/>
     <use xlink:href="#me763da15fa" x="101.361184" y="149.135466" style="fill: #1f77b4; stroke: #1f77b4; stroke-linejoin: miter"/>
     <use xlink:href="#me763da15fa" x="109.435834" y="164.628854" style="fill: #1f77b4; stroke: #1f77b4; stroke-linejoin: miter"/>
     <use xlink:href="#me763da15fa" x="117.510484" y="178.126055" style="fill: #1f77b4; stroke: #1f77b4; stroke-linejoin: miter"/>
     <use xlink:href="#me763da15fa" x="125.585133" y="189.884259" style="fill: #1f77b4; stroke: #1f77b4; stroke-linejoin: miter"/>
     <use xlink:href="#me763da15fa" x="133.659783" y="200.127522" style="fill: #1f77b4; stroke: #1f77b4; stroke-linejoin: miter"/>
     <use xlink:href="#me763da15fa" x="141.734433" y="209.051031" style="fill: #1f77b4; stroke: #1f77b4; stroke-linejoin: miter"/>
     <use xlink:href="#me763da15fa" x="149.809082" y="216.824823" style="fill: #1f77b4; stroke: #1f77b4; stroke-linejoin: miter"/>
     <use xlink:href="#me763da15fa" x="157.883732" y="223.597031" style="fill: #1f77b4; stroke: #1f77b4; stroke-linejoin: miter"/>
     <use xlink:href="#me763da15fa" x="165.958382" y="229.496699" style="fill: #1f77b4; stroke: #1f77b4; stroke-linejoin: miter"/>
     <use xlink:href="#me763da15fa" x="174.033032" y="234.636246" style="fill: #1f77b4; stroke: #1f77b4; stroke-linejoin: miter"/>
     <use xlink:href="#me763da15fa" x="182.107681" y="239.113608" style="fill: #1f77b4; stroke: #1f77b4; stroke-linejoin: miter"/>
     <use xlink:href="#me763da15fa" x="190.182331" y="243.014101" style="fill: #1f77b4; stroke: #1f77b4; stroke-linejoin: miter"/>
     <use xlink:href="#me763da15fa" x="198.256981" y="246.41205" style="fill: #1f77b4; stroke: #1f77b4; stroke-linejoin: miter"/>
     <use xlink:href="#me763da15fa" x="206.33163" y="249.372203" style="fill: #1f77b4; stroke: #1f77b4; stroke-linejoin: miter"/>
     <use xlink:href="#me763da15fa" x="214.40628" y="251.950966" style="fill: #1f77b4; stroke: #1f77b4; stroke-linejoin: miter"/>
     <use xlink:href="#me763da15fa" x="222.48093" y="254.197478" style="fill: #1f77b4; stroke: #1f77b4; stroke-linejoin: miter"/>
     <use xlink:href="#me763da15fa" x="230.555579" y="256.154547" style="fill: #1f77b4; stroke: #1f77b4; stroke-linejoin: miter"/>
     <use xlink:href="#me763da15fa" x="238.630229" y="257.859465" style="fill: #1f77b4; stroke: #1f77b4; stroke-linejoin: miter"/>
     <use xlink:href="#me763da15fa" x="246.704879" y="259.344719" style="fill: #1f77b4; stroke: #1f77b4; stroke-linejoin: miter"/>
     <use xlink:href="#me763da15fa" x="254.779529" y="260.638611" style="fill: #1f77b4; stroke: #1f77b4; stroke-linejoin: miter"/>
     <use xlink:href="#me763da15fa" x="262.854178" y="261.765796" style="fill: #1f77b4; stroke: #1f77b4; stroke-linejoin: miter"/>
     <use xlink:href="#me763da15fa" x="270.928828" y="262.747753" style="fill: #1f77b4; stroke: #1f77b4; stroke-linejoin: miter"/>
     <use xlink:href="#me763da15fa" x="279.003478" y="263.603194" style="fill: #1f77b4; stroke: #1f77b4; stroke-linejoin: miter"/>
     <use xlink:href="#me763da15fa" x="287.078127" y="264.348419" style="fill: #1f77b4; stroke: #1f77b4; stroke-linejoin: miter"/>
     <use xlink:href="#me763da15fa" x="295.152777" y="264.997628" style="fill: #1f77b4; stroke: #1f77b4; stroke-linejoin: miter"/>
    </g>
   </g>
   <g id="patch_3">
    <path d="M 40.059453 276.761406 
L 40.059453 17.958281 
" style="fill: none; stroke: #000000; stroke-width: 0.8; stroke-linejoin: miter; stroke-linecap: square"/>
   </g>
   <g id="patch_4">
    <path d="M 40.059453 276.761406 
L 307.300078 276.761406 
" style="fill: none; stroke: #000000; stroke-width: 0.8; stroke-linejoin: miter; stroke-linecap: square"/>
   </g>
   <g id="text_13">
    <!-- Pareto front shift under IS 800 inclusion (10-bar, illustrative) -->
    <g transform="translate(3.6 11.958281) scale(0.11 -0.11)">
     <defs>
      <path id="DejaVuSerif-50" d="M 1581 2375 
L 2406 2375 
Q 2872 2375 3115 2626 
Q 3359 2878 3359 3353 
Q 3359 3831 3115 4081 
Q 2872 4331 2406 4331 
L 1581 4331 
L 1581 2375 
z
M 353 0 
L 353 331 
L 947 331 
L 947 4331 
L 353 4331 
L 353 4666 
L 2559 4666 
Q 3259 4666 3668 4311 
Q 4078 3956 4078 3353 
Q 4078 2753 3668 2397 
Q 3259 2041 2559 2041 
L 1581 2041 
L 1581 331 
L 2303 331 
L 2303 0 
L 353 0 
z
" transform="scale(0.015625)"/>
      <path id="DejaVuSerif-72" d="M 3059 3328 
L 3059 2497 
L 2728 2497 
Q 2713 2744 2591 2866 
Q 2469 2988 2234 2988 
Q 1809 2988 1582 2694 
Q 1356 2400 1356 1850 
L 1356 331 
L 2022 331 
L 2022 0 
L 263 0 
L 263 331 
L 781 331 
L 781 2994 
L 231 2994 
L 231 3322 
L 1356 3322 
L 1356 2731 
Q 1525 3078 1790 3245 
Q 2056 3413 2438 3413 
Q 2578 3413 2733 3391 
Q 2888 3369 3059 3328 
z
" transform="scale(0.015625)"/>
      <path id="DejaVuSerif-6f" d="M 1925 219 
Q 2388 219 2623 584 
Q 2859 950 2859 1663 
Q 2859 2375 2623 2739 
Q 2388 3103 1925 3103 
Q 1463 3103 1227 2739 
Q 991 2375 991 1663 
Q 991 950 1228 584 
Q 1466 219 1925 219 
z
M 1925 -91 
Q 1200 -91 759 389 
Q 319 869 319 1663 
Q 319 2456 758 2934 
Q 1197 3413 1925 3413 
Q 2653 3413 3092 2934 
Q 3531 2456 3531 1663 
Q 3531 869 3092 389 
Q 2653 -91 1925 -91 
z
" transform="scale(0.015625)"/>
      <path id="DejaVuSerif-66" d="M 2753 4078 
L 2450 4078 
Q 2447 4313 2317 4434 
Q 2188 4556 1941 4556 
Q 1619 4556 1487 4379 
Q 1356 4203 1356 3750 
L 1356 3322 
L 2284 3322 
L 2284 2988 
L 1356 2988 
L 1356 331 
L 2094 331 
L 2094 0 
L 231 0 
L 231 331 
L 781 331 
L 781 2988 
L 231 2988 
L 231 3322 
L 781 3322 
L 781 3738 
Q 781 4294 1070 4578 
Q 1359 4863 1919 4863 
Q 2128 4863 2337 4825 
Q 2547 4788 2753 4709 
L 2753 4078 
z
" transform="scale(0.015625)"/>
      <path id="DejaVuSerif-75" d="M 2266 3322 
L 3341 3322 
L 3341 331 
L 3884 331 
L 3884 0 
L 2766 0 
L 2766 588 
Q 2606 256 2353 82 
Q 2100 -91 1766 -91 
Q 1213 -91 952 223 
Q 691 538 691 1209 
L 691 2988 
L 172 2988 
L 172 3322 
L 1269 3322 
L 1269 1388 
Q 1269 781 1417 556 
Q 1566 331 1947 331 
Q 2347 331 2556 625 
Q 2766 919 2766 1478 
L 2766 2988 
L 2266 2988 
L 2266 3322 
z
" transform="scale(0.015625)"/>
      <path id="DejaVuSerif-49" d="M 1581 331 
L 2175 331 
L 2175 0 
L 353 0 
L 353 331 
L 947 331 
L 947 4331 
L 353 4331 
L 353 4666 
L 2175 4666 
L 2175 4331 
L 1581 4331 
L 1581 331 
z
" transform="scale(0.015625)"/>
      <path id="DejaVuSerif-53" d="M 594 225 
L 594 1288 
L 953 1284 
Q 969 753 1261 498 
Q 1553 244 2150 244 
Q 2706 244 2998 464 
Q 3291 684 3291 1106 
Q 3291 1444 3114 1625 
Q 2938 1806 2369 1978 
L 1753 2163 
Q 1084 2366 811 2669 
Q 538 2972 538 3500 
Q 538 4094 959 4422 
Q 1381 4750 2144 4750 
Q 2469 4750 2856 4679 
Q 3244 4609 3681 4475 
L 3681 3481 
L 3328 3481 
Q 3275 3975 2998 4195 
Q 2722 4416 2156 4416 
Q 1663 4416 1405 4214 
Q 1147 4013 1147 3628 
Q 1147 3294 1340 3103 
Q 1534 2913 2163 2725 
L 2741 2553 
Q 3375 2363 3645 2067 
Q 3916 1772 3916 1275 
Q 3916 597 3481 253 
Q 3047 -91 2188 -91 
Q 1803 -91 1404 -12 
Q 1006 66 594 225 
z
" transform="scale(0.015625)"/>
      <path id="DejaVuSerif-38" d="M 2981 1275 
Q 2981 1775 2732 2051 
Q 2484 2328 2034 2328 
Q 1584 2328 1336 2051 
Q 1088 1775 1088 1275 
Q 1088 772 1336 495 
Q 1584 219 2034 219 
Q 2484 219 2732 495 
Q 2981 772 2981 1275 
z
M 2853 3541 
Q 2853 3966 2637 4203 
Q 2422 4441 2034 4441 
Q 1650 4441 1433 4203 
Q 1216 3966 1216 3541 
Q 1216 3113 1433 2875 
Q 1650 2638 2034 2638 
Q 2422 2638 2637 2875 
Q 2853 3113 2853 3541 
z
M 2516 2484 
Q 3047 2413 3344 2092 
Q 3641 1772 3641 1275 
Q 3641 619 3225 264 
Q 2809 -91 2034 -91 
Q 1263 -91 845 264 
Q 428 619 428 1275 
Q 428 1772 725 2092 
Q 1022 2413 1556 2484 
Q 1084 2569 832 2842 
Q 581 3116 581 3541 
Q 581 4103 968 4426 
Q 1356 4750 2034 4750 
Q 2713 4750 3100 4426 
Q 3488 4103 3488 3541 
Q 3488 3116 3236 2842 
Q 2984 2569 2516 2484 
z
" transform="scale(0.015625)"/>
      <path id="DejaVuSerif-2d" d="M 281 1959 
L 1881 1959 
L 1881 1472 
L 281 1472 
L 281 1959 
z
" transform="scale(0.015625)"/>
      <path id="DejaVuSerif-2c" d="M 231 -622 
Q 525 -406 662 -114 
Q 800 178 800 594 
L 800 709 
L 1416 709 
Q 1391 175 1164 -208 
Q 938 -591 481 -872 
L 231 -622 
z
" transform="scale(0.015625)"/>
      <path id="DejaVuSerif-76" d="M 1581 0 
L 359 2988 
L -19 2988 
L -19 3322 
L 1509 3322 
L 1509 2988 
L 978 2988 
L 1913 703 
L 2847 2988 
L 2350 2988 
L 2350 3322 
L 3597 3322 
L 3597 2988 
L 3225 2988 
L 2003 0 
L 1581 0 
z
" transform="scale(0.015625)"/>
     </defs>
     <use xlink:href="#DejaVuSerif-50"/>
     <use xlink:href="#DejaVuSerif-61" transform="translate(62.785156 0)"/>
     <use xlink:href="#DejaVuSerif-72" transform="translate(122.404297 0)"/>
     <use xlink:href="#DejaVuSerif-65" transform="translate(170.207031 0)"/>
     <use xlink:href="#DejaVuSerif-74" transform="translate(229.386719 0)"/>
     <use xlink:href="#DejaVuSerif-6f" transform="translate(269.572266 0)"/>
     <use xlink:href="#DejaVuSerif-20" transform="translate(329.777344 0)"/>
     <use xlink:href="#DejaVuSerif-66" transform="translate(361.564453 0)"/>
     <use xlink:href="#DejaVuSerif-72" transform="translate(398.576172 0)"/>
     <use xlink:href="#DejaVuSerif-6f" transform="translate(446.378906 0)"/>
     <use xlink:href="#DejaVuSerif-6e" transform="translate(506.583984 0)"/>
     <use xlink:href="#DejaVuSerif-74" transform="translate(570.988281 0)"/>
     <use xlink:href="#DejaVuSerif-20" transform="translate(611.173828 0)"/>
     <use xlink:href="#DejaVuSerif-73" transform="translate(642.960938 0)"/>
     <use xlink:href="#DejaVuSerif-68" transform="translate(694.279297 0)"/>
     <use xlink:href="#DejaVuSerif-69" transform="translate(758.683594 0)"/>
     <use xlink:href="#DejaVuSerif-66" transform="translate(790.666016 0)"/>
     <use xlink:href="#DejaVuSerif-74" transform="translate(827.677734 0)"/>
     <use xlink:href="#DejaVuSerif-20" transform="translate(867.863281 0)"/>
     <use xlink:href="#DejaVuSerif-75" transform="translate(899.650391 0)"/>
     <use xlink:href="#DejaVuSerif-6e" transform="translate(964.054688 0)"/>
     <use xlink:href="#DejaVuSerif-64" transform="translate(1028.458984 0)"/>
     <use xlink:href="#DejaVuSerif-65" transform="translate(1092.472656 0)"/>
     <use xlink:href="#DejaVuSerif-72" transform="translate(1151.652344 0)"/>
     <use xlink:href="#DejaVuSerif-20" transform="translate(1199.455078 0)"/>
     <use xlink:href="#DejaVuSerif-49" transform="translate(1231.242188 0)"/>
     <use xlink:href="#DejaVuSerif-53" transform="translate(1270.744141 0)"/>
     <use xlink:href="#DejaVuSerif-20" transform="translate(1339.25 0)"/>
     <use xlink:href="#DejaVuSerif-38" transform="translate(1371.037109 0)"/>
     <use xlink:href="#DejaVuSerif-30" transform="translate(1434.660156 0)"/>
     <use xlink:href="#DejaVuSerif-30" transform="translate(1498.283203 0)"/>
     <use xlink:href="#DejaVuSerif-20" transform="translate(1561.90625 0)"/>
     <use xlink:href="#DejaVuSerif-69" transform="translate(1593.693359 0)"/>
     <use xlink:href="#DejaVuSerif-6e" transform="translate(1625.675781 0)"/>
     <use xlink:href="#DejaVuSerif-63" transform="translate(1690.080078 0)"/>
     <use xlink:href="#DejaVuSerif-6c" transform="translate(1746.085938 0)"/>
     <use xlink:href="#DejaVuSerif-75" transform="translate(1778.068359 0)"/>
     <use xlink:href="#DejaVuSerif-73" transform="translate(1842.472656 0)"/>
     <use xlink:href="#DejaVuSerif-69" transform="translate(1893.791016 0)"/>
     <use xlink:href="#DejaVuSerif-6f" transform="translate(1925.773438 0)"/>
     <use xlink:href="#DejaVuSerif-6e" transform="translate(1985.978516 0)"/>
     <use xlink:href="#DejaVuSerif-20" transform="translate(2050.382812 0)"/>
     <use xlink:href="#DejaVuSerif-28" transform="translate(2082.169922 0)"/>
     <use xlink:href="#DejaVuSerif-31" transform="translate(2121.183594 0)"/>
     <use xlink:href="#DejaVuSerif-30" transform="translate(2184.806641 0)"/>
     <use xlink:href="#DejaVuSerif-2d" transform="translate(2248.429688 0)"/>
     <use xlink:href="#DejaVuSerif-62" transform="translate(2282.21875 0)"/>
     <use xlink:href="#DejaVuSerif-61" transform="translate(2346.232422 0)"/>
     <use xlink:href="#DejaVuSerif-72" transform="translate(2405.851562 0)"/>
     <use xlink:href="#DejaVuSerif-2c" transform="translate(2442.654297 0)"/>
     <use xlink:href="#DejaVuSerif-20" transform="translate(2474.441406 0)"/>
     <use xlink:href="#DejaVuSerif-69" transform="translate(2506.228516 0)"/>
     <use xlink:href="#DejaVuSerif-6c" transform="translate(2538.210938 0)"/>
     <use xlink:href="#DejaVuSerif-6c" transform="translate(2570.193359 0)"/>
     <use xlink:href="#DejaVuSerif-75" transform="translate(2602.175781 0)"/>
     <use xlink:href="#DejaVuSerif-73" transform="translate(2666.580078 0)"/>
     <use xlink:href="#DejaVuSerif-74" transform="translate(2717.898438 0)"/>
     <use xlink:href="#DejaVuSerif-72" transform="translate(2758.083984 0)"/>
     <use xlink:href="#DejaVuSerif-61" transform="translate(2805.886719 0)"/>
     <use xlink:href="#DejaVuSerif-74" transform="translate(2865.505859 0)"/>
     <use xlink:href="#DejaVuSerif-69" transform="translate(2905.691406 0)"/>
     <use xlink:href="#DejaVuSerif-76" transform="translate(2937.673828 0)"/>
     <use xlink:href="#DejaVuSerif-65" transform="translate(2994.167969 0)"/>
     <use xlink:href="#DejaVuSerif-29" transform="translate(3053.347656 0)"/>
    </g>
   </g>
   <g id="legend_1">
    <g id="line2d_23">
     <path d="M 144.587109 29.746875 
L 153.587109 29.746875 
L 162.587109 29.746875 
" style="fill: none; stroke: #7f7f7f; stroke-width: 1.4; stroke-linecap: square"/>
     <g>
      <use xlink:href="#m416bc45db2" x="153.587109" y="29.746875" style="fill: #7f7f7f; stroke: #7f7f7f"/>
     </g>
    </g>
    <g id="text_14">
     <!-- no IS 800 (yield only) -->
     <g transform="translate(169.787109 32.896875) scale(0.09 -0.09)">
      <defs>
       <path id="DejaVuSerif-79" d="M 1381 -609 
L 1600 -56 
L 359 2988 
L -19 2988 
L -19 3322 
L 1509 3322 
L 1509 2988 
L 978 2988 
L 1913 703 
L 2847 2988 
L 2350 2988 
L 2350 3322 
L 3597 3322 
L 3597 2988 
L 3225 2988 
L 1703 -750 
Q 1547 -1138 1356 -1280 
Q 1166 -1422 819 -1422 
Q 672 -1422 517 -1397 
Q 363 -1372 206 -1325 
L 206 -691 
L 500 -691 
Q 519 -903 608 -995 
Q 697 -1088 884 -1088 
Q 1056 -1088 1161 -992 
Q 1266 -897 1381 -609 
z
" transform="scale(0.015625)"/>
      </defs>
      <use xlink:href="#DejaVuSerif-6e"/>
      <use xlink:href="#DejaVuSerif-6f" transform="translate(64.404297 0)"/>
      <use xlink:href="#DejaVuSerif-20" transform="translate(124.609375 0)"/>
      <use xlink:href="#DejaVuSerif-49" transform="translate(156.396484 0)"/>
      <use xlink:href="#DejaVuSerif-53" transform="translate(195.898438 0)"/>
      <use xlink:href="#DejaVuSerif-20" transform="translate(264.404297 0)"/>
      <use xlink:href="#DejaVuSerif-38" transform="translate(296.191406 0)"/>
      <use xlink:href="#DejaVuSerif-30" transform="translate(359.814453 0)"/>
      <use xlink:href="#DejaVuSerif-30" transform="translate(423.4375 0)"/>
      <use xlink:href="#DejaVuSerif-20" transform="translate(487.060547 0)"/>
      <use xlink:href="#DejaVuSerif-28" transform="translate(518.847656 0)"/>
      <use xlink:href="#DejaVuSerif-79" transform="translate(557.861328 0)"/>
      <use xlink:href="#DejaVuSerif-69" transform="translate(614.355469 0)"/>
      <use xlink:href="#DejaVuSerif-65" transform="translate(646.337891 0)"/>
      <use xlink:href="#DejaVuSerif-6c" transform="translate(705.517578 0)"/>
      <use xlink:href="#DejaVuSerif-64" transform="translate(737.5 0)"/>
      <use xlink:href="#DejaVuSerif-20" transform="translate(801.513672 0)"/>
      <use xlink:href="#DejaVuSerif-6f" transform="translate(833.300781 0)"/>
      <use xlink:href="#DejaVuSerif-6e" transform="translate(893.505859 0)"/>
      <use xlink:href="#DejaVuSerif-6c" transform="translate(957.910156 0)"/>
      <use xlink:href="#DejaVuSerif-79" transform="translate(989.892578 0)"/>
      <use xlink:href="#DejaVuSerif-29" transform="translate(1046.386719 0)"/>
     </g>
    </g>
    <g id="line2d_24">
     <path d="M 144.587109 43.085156 
L 153.587109 43.085156 
L 162.587109 43.085156 
" style="fill: none; stroke: #1f77b4; stroke-width: 1.4; stroke-linecap: square"/>
     <g>
      <use xlink:href="#me763da15fa" x="153.587109" y="43.085156" style="fill: #1f77b4; stroke: #1f77b4; stroke-linejoin: miter"/>
     </g>
    </g>
    <g id="text_15">
     <!-- IS 800 full (Cl. 7.1 buckling) -->
     <g transform="translate(169.787109 46.235156) scale(0.09 -0.09)">
      <defs>
       <path id="DejaVuSerif-43" d="M 4513 1234 
Q 4306 581 3820 245 
Q 3334 -91 2591 -91 
Q 2134 -91 1743 65 
Q 1353 222 1050 525 
Q 700 875 529 1320 
Q 359 1766 359 2328 
Q 359 3416 987 4083 
Q 1616 4750 2644 4750 
Q 3025 4750 3456 4650 
Q 3888 4550 4384 4347 
L 4384 3272 
L 4031 3272 
Q 3916 3859 3567 4137 
Q 3219 4416 2591 4416 
Q 1844 4416 1459 3886 
Q 1075 3356 1075 2328 
Q 1075 1303 1459 773 
Q 1844 244 2591 244 
Q 3113 244 3450 492 
Q 3788 741 3938 1234 
L 4513 1234 
z
" transform="scale(0.015625)"/>
       <path id="DejaVuSerif-6b" d="M 1831 0 
L 219 0 
L 219 331 
L 738 331 
L 738 4531 
L 184 4531 
L 184 4863 
L 1313 4863 
L 1313 1697 
L 2713 2988 
L 2234 2988 
L 2234 3322 
L 3738 3322 
L 3738 2988 
L 3169 2988 
L 2181 2075 
L 3444 331 
L 3922 331 
L 3922 0 
L 2284 0 
L 2284 331 
L 2759 331 
L 1766 1697 
L 1313 1275 
L 1313 331 
L 1831 331 
L 1831 0 
z
" transform="scale(0.015625)"/>
      </defs>
      <use xlink:href="#DejaVuSerif-49"/>
      <use xlink:href="#DejaVuSerif-53" transform="translate(39.501953 0)"/>
      <use xlink:href="#DejaVuSerif-20" transform="translate(108.007812 0)"/>
      <use xlink:href="#DejaVuSerif-38" transform="translate(139.794922 0)"/>
      <use xlink:href="#DejaVuSerif-30" transform="translate(203.417969 0)"/>
      <use xlink:href="#DejaVuSerif-30" transform="translate(267.041016 0)"/>
      <use xlink:href="#DejaVuSerif-20" transform="translate(330.664062 0)"/>
      <use xlink:href="#DejaVuSerif-66" transform="translate(362.451172 0)"/>
      <use xlink:href="#DejaVuSerif-75" transform="translate(399.462891 0)"/>
      <use xlink:href="#DejaVuSerif-6c" transform="translate(463.867188 0)"/>
      <use xlink:href="#DejaVuSerif-6c" transform="translate(495.849609 0)"/>
      <use xlink:href="#DejaVuSerif-20" transform="translate(527.832031 0)"/>
      <use xlink:href="#DejaVuSerif-28" transform="translate(559.619141 0)"/>
      <use xlink:href="#DejaVuSerif-43" transform="translate(598.632812 0)"/>
      <use xlink:href="#DejaVuSerif-6c" transform="translate(675.146484 0)"/>
      <use xlink:href="#DejaVuSerif-2e" transform="translate(707.128906 0)"/>
      <use xlink:href="#DejaVuSerif-20" transform="translate(738.916016 0)"/>
      <use xlink:href="#DejaVuSerif-37" transform="translate(770.703125 0)"/>
      <use xlink:href="#DejaVuSerif-2e" transform="translate(834.326172 0)"/>
      <use xlink:href="#DejaVuSerif-31" transform="translate(866.113281 0)"/>
      <use xlink:href="#DejaVuSerif-20" transform="translate(929.736328 0)"/>
      <use xlink:href="#DejaVuSerif-62" transform="translate(961.523438 0)"/>
      <use xlink:href="#DejaVuSerif-75" transform="translate(1025.537109 0)"/>
      <use xlink:href="#DejaVuSerif-63" transform="translate(1089.941406 0)"/>
      <use xlink:href="#DejaVuSerif-6b" transform="translate(1145.947266 0)"/>
      <use xlink:href="#DejaVuSerif-6c" transform="translate(1206.542969 0)"/>
      <use xlink:href="#DejaVuSerif-69" transform="translate(1238.525391 0)"/>
      <use xlink:href="#DejaVuSerif-6e" transform="translate(1270.507812 0)"/>
      <use xlink:href="#DejaVuSerif-67" transform="translate(1334.912109 0)"/>
      <use xlink:href="#DejaVuSerif-29" transform="translate(1398.925781 0)"/>
     </g>
    </g>
   </g>
  </g>
 </g>
 <defs>
  <clipPath id="pc8d4afc9af">
   <rect x="40.059453" y="17.958281" width="267.240625" height="258.803125"/>
  </clipPath>
 </defs>
</svg>
