<?xml version="1.0" encoding="utf-8" standalone="no"?>
<!DOCTYPE svg PUBLIC "-//W3C//DTD SVG 1.1//EN"
  "http://www.w3.org/Graphics/SVG/1.1/DTD/svg11.dtd">
<svg xmlns:xlink="http://www.w3.org/1999/xlink" width="311.558906pt" height="216.146719pt" viewBox="0 0 311.558906 216.146719" xmlns="http://www.w3.org/2000/svg" version="1.1">
 <metadata>
  <rdf:RDF xmlns:dc="http://purl.org/dc/elements/1.1/" xmlns:cc="http://creativecommons.org/ns#" xmlns:rdf="http://www.w3.org/1999/02/22-rdf-syntax-ns#">
   <cc:Work>
    <dc:type rdf:resource="http://purl.org/dc/dcmitype/StillImage"/>
    <dc:date>2026-04-24T15:22:19.179006</dc:date>
    <dc:format>image/svg+xml</dc:format>
    <dc:creator>
     <cc:Agent>
      <dc:title>Matplotlib v3.10.8, https://matplotlib.org/</dc:title>
     </cc:Agent>
    </dc:creator>
   </cc:Work>
  </rdf:RDF>
 </metadata>
 <defs>
  <style type="text/css">*{stroke-linejoin: round; stroke-linecap: butt}</style>
 </defs>
 <g id="figure_1">
  <g id="patch_1">
   <path d="M 0 216.146719 
L 311.558906 216.146719 
L 311.558906 0 
L 0 0 
z
" style="fill: #ffffff"/>
  </g>
  <g id="axes_1">
   <g id="patch_2">
    <path d="M 35.872813 183.016094 
L 306.038437 183.016094 
L 306.038437 17.958281 
L 35.872813 17.958281 
z
" style="fill: #ffffff"/>
   </g>
   <g id="PathCollection_1">
    <defs>
     <path id="m4bad13da30" d="M 0 2.5 
C 0.663008 2.5 1.29895 2.236584 1.767767 1.767767 
C 2.236584 1.29895 2.5 0.663008 2.5 0 
C 2.5 -0.663008 2.236584 -1.29895 1.767767 -1.767767 
C 1.29895 -2.236584 0.663008 -2.5 0 -2.5 
C -0.663008 -2.5 -1.29895 -2.236584 -1.767767 -1.767767 
C -2.236584 -1.29895 -2.5 -0.663008 -2.5 0 
C -2.5 0.663008 -2.236584 1.29895 -1.767767 1.767767 
C -1.29895 2.236584 -0.663008 2.5 0 2.5 
z
" style="stroke: #7f7f7f; stroke-width: 0.8"/>
    </defs>
    <g clip-path="url(#p2e34c0a043)">
     <use xlink:href="#m4bad13da30" x="170.276132" y="170.388555" style="fill: #7f7f7f; stroke: #7f7f7f; stroke-width: 0.8"/>
     <use xlink:href="#m4bad13da30" x="50.149027" y="103.413459" style="fill: #7f7f7f; stroke: #7f7f7f; stroke-width: 0.8"/>
     <use xlink:href="#m4bad13da30" x="252.784816" y="171.58988" style="fill: #7f7f7f; stroke: #7f7f7f; stroke-width: 0.8"/>
    </g>
   </g>
   <g id="PathCollection_2">
    <defs>
     <path id="mf570150c59" d="M 0 1.732051 
C 0.459345 1.732051 0.899939 1.549551 1.224745 1.224745 
C 1.549551 0.899939 1.732051 0.459345 1.732051 0 
C 1.732051 -0.459345 1.549551 -0.899939 1.224745 -1.224745 
C 0.899939 -1.549551 0.459345 -1.732051 0 -1.732051 
C -0.459345 -1.732051 -0.899939 -1.549551 -1.224745 -1.224745 
C -1.549551 -0.899939 -1.732051 -0.459345 -1.732051 0 
C -1.732051 0.459345 -1.549551 0.899939 -1.224745 1.224745 
C -0.899939 1.549551 -0.459345 1.732051 0 1.732051 
z
" style="stroke: #bbbbbb; stroke-opacity: 0.5; stroke-width: 0.8"/>
    </defs>
    <g clip-path="url(#p2e34c0a043)">
     <use xlink:href="#mf570150c59" x="202.029575" y="82.007818" style="fill: #bbbbbb; fill-opacity: 0.5; stroke: #bbbbbb; stroke-opacity: 0.5; stroke-width: 0.8"/>
     <use xlink:href="#mf570150c59" x="269.418104" y="76.873258" style="fill: #bbbbbb; fill-opacity: 0.5; stroke: #bbbbbb; stroke-opacity: 0.5; stroke-width: 0.8"/>
     <use xlink:href="#mf570150c59" x="239.322371" y="70.879308" style="fill: #bbbbbb; fill-opacity: 0.5; stroke: #bbbbbb; stroke-opacity: 0.5; stroke-width: 0.8"/>
     <use xlink:href="#mf570150c59" x="121.562746" y="107.687034" style="fill: #bbbbbb; fill-opacity: 0.5; stroke: #bbbbbb; stroke-opacity: 0.5; stroke-width: 0.8"/>
     <use xlink:href="#mf570150c59" x="263.558754" y="138.978783" style="fill: #bbbbbb; fill-opacity: 0.5; stroke: #bbbbbb; stroke-opacity: 0.5; stroke-width: 0.8"/>
     <use xlink:href="#mf570150c59" x="250.600764" y="161.247008" style="fill: #bbbbbb; fill-opacity: 0.5; stroke: #bbbbbb; stroke-opacity: 0.5; stroke-width: 0.8"/>
     <use xlink:href="#mf570150c59" x="244.61793" y="25.460909" style="fill: #bbbbbb; fill-opacity: 0.5; stroke: #bbbbbb; stroke-opacity: 0.5; stroke-width: 0.8"/>
     <use xlink:href="#mf570150c59" x="163.109685" y="142.807051" style="fill: #bbbbbb; fill-opacity: 0.5; stroke: #bbbbbb; stroke-opacity: 0.5; stroke-width: 0.8"/>
     <use xlink:href="#mf570150c59" x="122.272529" y="71.609593" style="fill: #bbbbbb; fill-opacity: 0.5; stroke: #bbbbbb; stroke-opacity: 0.5; stroke-width: 0.8"/>
     <use xlink:href="#mf570150c59" x="116.178794" y="129.492859" style="fill: #bbbbbb; fill-opacity: 0.5; stroke: #bbbbbb; stroke-opacity: 0.5; stroke-width: 0.8"/>
     <use xlink:href="#mf570150c59" x="110.345281" y="40.074313" style="fill: #bbbbbb; fill-opacity: 0.5; stroke: #bbbbbb; stroke-opacity: 0.5; stroke-width: 0.8"/>
     <use xlink:href="#mf570150c59" x="157.448873" y="73.098262" style="fill: #bbbbbb; fill-opacity: 0.5; stroke: #bbbbbb; stroke-opacity: 0.5; stroke-width: 0.8"/>
     <use xlink:href="#mf570150c59" x="172.176758" y="155.805157" style="fill: #bbbbbb; fill-opacity: 0.5; stroke: #bbbbbb; stroke-opacity: 0.5; stroke-width: 0.8"/>
     <use xlink:href="#mf570150c59" x="184.298717" y="44.595098" style="fill: #bbbbbb; fill-opacity: 0.5; stroke: #bbbbbb; stroke-opacity: 0.5; stroke-width: 0.8"/>
     <use xlink:href="#mf570150c59" x="293.758182" y="29.027301" style="fill: #bbbbbb; fill-opacity: 0.5; stroke: #bbbbbb; stroke-opacity: 0.5; stroke-width: 0.8"/>
     <use xlink:href="#mf570150c59" x="243.526436" y="35.423052" style="fill: #bbbbbb; fill-opacity: 0.5; stroke: #bbbbbb; stroke-opacity: 0.5; stroke-width: 0.8"/>
     <use xlink:href="#mf570150c59" x="201.307386" y="87.515975" style="fill: #bbbbbb; fill-opacity: 0.5; stroke: #bbbbbb; stroke-opacity: 0.5; stroke-width: 0.8"/>
     <use xlink:href="#mf570150c59" x="292.138555" y="153.647207" style="fill: #bbbbbb; fill-opacity: 0.5; stroke: #bbbbbb; stroke-opacity: 0.5; stroke-width: 0.8"/>
     <use xlink:href="#mf570150c59" x="100.548256" y="146.320549" style="fill: #bbbbbb; fill-opacity: 0.5; stroke: #bbbbbb; stroke-opacity: 0.5; stroke-width: 0.8"/>
     <use xlink:href="#mf570150c59" x="86.903887" y="31.683792" style="fill: #bbbbbb; fill-opacity: 0.5; stroke: #bbbbbb; stroke-opacity: 0.5; stroke-width: 0.8"/>
     <use xlink:href="#mf570150c59" x="198.920189" y="90.227049" style="fill: #bbbbbb; fill-opacity: 0.5; stroke: #bbbbbb; stroke-opacity: 0.5; stroke-width: 0.8"/>
     <use xlink:href="#mf570150c59" x="56.064319" y="38.518705" style="fill: #bbbbbb; fill-opacity: 0.5; stroke: #bbbbbb; stroke-opacity: 0.5; stroke-width: 0.8"/>
     <use xlink:href="#mf570150c59" x="174.737538" y="76.315987" style="fill: #bbbbbb; fill-opacity: 0.5; stroke: #bbbbbb; stroke-opacity: 0.5; stroke-width: 0.8"/>
     <use xlink:href="#mf570150c59" x="162.681526" y="87.519852" style="fill: #bbbbbb; fill-opacity: 0.5; stroke: #bbbbbb; stroke-opacity: 0.5; stroke-width: 0.8"/>
     <use xlink:href="#mf570150c59" x="274.35959" y="117.667004" style="fill: #bbbbbb; fill-opacity: 0.5; stroke: #bbbbbb; stroke-opacity: 0.5; stroke-width: 0.8"/>
     <use xlink:href="#mf570150c59" x="203.052541" y="112.263229" style="fill: #bbbbbb; fill-opacity: 0.5; stroke: #bbbbbb; stroke-opacity: 0.5; stroke-width: 0.8"/>
     <use xlink:href="#mf570150c59" x="174.546561" y="138.990434" style="fill: #bbbbbb; fill-opacity: 0.5; stroke: #bbbbbb; stroke-opacity: 0.5; stroke-width: 0.8"/>
     <use xlink:href="#mf570150c59" x="108.523941" y="39.740463" style="fill: #bbbbbb; fill-opacity: 0.5; stroke: #bbbbbb; stroke-opacity: 0.5; stroke-width: 0.8"/>
     <use xlink:href="#mf570150c59" x="94.875581" y="90.958302" style="fill: #bbbbbb; fill-opacity: 0.5; stroke: #bbbbbb; stroke-opacity: 0.5; stroke-width: 0.8"/>
     <use xlink:href="#mf570150c59" x="218.60605" y="126.103642" style="fill: #bbbbbb; fill-opacity: 0.5; stroke: #bbbbbb; stroke-opacity: 0.5; stroke-width: 0.8"/>
     <use xlink:href="#mf570150c59" x="96.907398" y="59.208248" style="fill: #bbbbbb; fill-opacity: 0.5; stroke: #bbbbbb; stroke-opacity: 0.5; stroke-width: 0.8"/>
     <use xlink:href="#mf570150c59" x="113.497722" y="25.566875" style="fill: #bbbbbb; fill-opacity: 0.5; stroke: #bbbbbb; stroke-opacity: 0.5; stroke-width: 0.8"/>
     <use xlink:href="#mf570150c59" x="265.237462" y="73.792529" style="fill: #bbbbbb; fill-opacity: 0.5; stroke: #bbbbbb; stroke-opacity: 0.5; stroke-width: 0.8"/>
     <use xlink:href="#mf570150c59" x="173.475045" y="109.57206" style="fill: #bbbbbb; fill-opacity: 0.5; stroke: #bbbbbb; stroke-opacity: 0.5; stroke-width: 0.8"/>
     <use xlink:href="#mf570150c59" x="257.020155" y="94.68294" style="fill: #bbbbbb; fill-opacity: 0.5; stroke: #bbbbbb; stroke-opacity: 0.5; stroke-width: 0.8"/>
     <use xlink:href="#mf570150c59" x="205.650555" y="40.271933" style="fill: #bbbbbb; fill-opacity: 0.5; stroke: #bbbbbb; stroke-opacity: 0.5; stroke-width: 0.8"/>
     <use xlink:href="#mf570150c59" x="230.923582" y="122.667019" style="fill: #bbbbbb; fill-opacity: 0.5; stroke: #bbbbbb; stroke-opacity: 0.5; stroke-width: 0.8"/>
     <use xlink:href="#mf570150c59" x="69.886661" y="84.309349" style="fill: #bbbbbb; fill-opacity: 0.5; stroke: #bbbbbb; stroke-opacity: 0.5; stroke-width: 0.8"/>
     <use xlink:href="#mf570150c59" x="181.239437" y="69.751691" style="fill: #bbbbbb; fill-opacity: 0.5; stroke: #bbbbbb; stroke-opacity: 0.5; stroke-width: 0.8"/>
     <use xlink:href="#mf570150c59" x="172.975157" y="120.920739" style="fill: #bbbbbb; fill-opacity: 0.5; stroke: #bbbbbb; stroke-opacity: 0.5; stroke-width: 0.8"/>
     <use xlink:href="#mf570150c59" x="263.010453" y="95.406451" style="fill: #bbbbbb; fill-opacity: 0.5; stroke: #bbbbbb; stroke-opacity: 0.5; stroke-width: 0.8"/>
     <use xlink:href="#mf570150c59" x="136.693256" y="57.03809" style="fill: #bbbbbb; fill-opacity: 0.5; stroke: #bbbbbb; stroke-opacity: 0.5; stroke-width: 0.8"/>
     <use xlink:href="#mf570150c59" x="195.365123" y="34.602758" style="fill: #bbbbbb; fill-opacity: 0.5; stroke: #bbbbbb; stroke-opacity: 0.5; stroke-width: 0.8"/>
     <use xlink:href="#mf570150c59" x="143.223074" y="30.824345" style="fill: #bbbbbb; fill-opacity: 0.5; stroke: #bbbbbb; stroke-opacity: 0.5; stroke-width: 0.8"/>
     <use xlink:href="#mf570150c59" x="84.424397" y="58.950652" style="fill: #bbbbbb; fill-opacity: 0.5; stroke: #bbbbbb; stroke-opacity: 0.5; stroke-width: 0.8"/>
     <use xlink:href="#mf570150c59" x="249.389706" y="49.980174" style="fill: #bbbbbb; fill-opacity: 0.5; stroke: #bbbbbb; stroke-opacity: 0.5; stroke-width: 0.8"/>
     <use xlink:href="#mf570150c59" x="141.195951" y="155.002678" style="fill: #bbbbbb; fill-opacity: 0.5; stroke: #bbbbbb; stroke-opacity: 0.5; stroke-width: 0.8"/>
     <use xlink:href="#mf570150c59" x="289.609547" y="111.02428" style="fill: #bbbbbb; fill-opacity: 0.5; stroke: #bbbbbb; stroke-opacity: 0.5; stroke-width: 0.8"/>
     <use xlink:href="#mf570150c59" x="193.336329" y="49.242973" style="fill: #bbbbbb; fill-opacity: 0.5; stroke: #bbbbbb; stroke-opacity: 0.5; stroke-width: 0.8"/>
    </g>
   </g>
   <g id="matplotlib.axis_1">
    <g id="xtick_1">
     <g id="line2d_1">
      <path d="M 47.228305 183.016094 
L 47.228305 17.958281 
" clip-path="url(#p2e34c0a043)" style="fill: none; stroke-dasharray: 2.96,1.28; stroke-dashoffset: 0; stroke: #b0b0b0; stroke-opacity: 0.25; stroke-width: 0.8"/>
     </g>
     <g id="line2d_2">
      <defs>
       <path id="m3a12eb5cf5" d="M 0 0 
L 0 3.5 
" style="stroke: #000000; stroke-width: 0.8"/>
      </defs>
      <g>
       <use xlink:href="#m3a12eb5cf5" x="47.228305" y="183.016094" style="stroke: #000000; stroke-width: 0.8"/>
      </g>
     </g>
     <g id="text_1">
      <!-- 0 -->
      <g transform="translate(44.36518 196.854687) scale(0.09 -0.09)">
       <defs>
        <path id="DejaVuSerif-30" d="M 2034 219 
Q 2513 219 2750 744 
Q 2988 1269 2988 2328 
Q 2988 3391 2750 3916 
Q 2513 4441 2034 4441 
Q 1556 4441 1318 3916 
Q 1081 3391 1081 2328 
Q 1081 1269 1318 744 
Q 1556 219 2034 219 
z
M 2034 -91 
Q 1275 -91 848 546 
Q 422 1184 422 2328 
Q 422 3475 848 4112 
Q 1275 4750 2034 4750 
Q 2797 4750 3222 4112 
Q 3647 3475 3647 2328 
Q 3647 1184 3222 546 
Q 2797 -91 2034 -91 
z
" transform="scale(0.015625)"/>
       </defs>
       <use xlink:href="#DejaVuSerif-30"/>
      </g>
     </g>
    </g>
    <g id="xtick_2">
     <g id="line2d_3">
      <path d="M 96.757146 183.016094 
L 96.757146 17.958281 
" clip-path="url(#p2e34c0a043)" style="fill: none; stroke-dasharray: 2.96,1.28; stroke-dashoffset: 0; stroke: #b0b0b0; stroke-opacity: 0.25; stroke-width: 0.8"/>
     </g>
     <g id="line2d_4">
      <g>
       <use xlink:href="#m3a12eb5cf5" x="96.757146" y="183.016094" style="stroke: #000000; stroke-width: 0.8"/>
      </g>
     </g>
     <g id="text_2">
      <!-- 2 -->
      <g transform="translate(93.894021 196.854687) scale(0.09 -0.09)">
       <defs>
        <path id="DejaVuSerif-32" d="M 819 3553 
L 469 3553 
L 469 4384 
Q 803 4563 1142 4656 
Q 1481 4750 1806 4750 
Q 2534 4750 2956 4397 
Q 3378 4044 3378 3438 
Q 3378 2753 2422 1800 
Q 2347 1728 2309 1691 
L 1131 513 
L 3078 513 
L 3078 1088 
L 3444 1088 
L 3444 0 
L 434 0 
L 434 341 
L 1850 1753 
Q 2319 2222 2519 2614 
Q 2719 3006 2719 3438 
Q 2719 3909 2473 4175 
Q 2228 4441 1797 4441 
Q 1350 4441 1106 4219 
Q 863 3997 819 3553 
z
" transform="scale(0.015625)"/>
       </defs>
       <use xlink:href="#DejaVuSerif-32"/>
      </g>
     </g>
    </g>
    <g id="xtick_3">
     <g id="line2d_5">
      <path d="M 146.285987 183.016094 
L 146.285987 17.958281 
" clip-path="url(#p2e34c0a043)" style="fill: none; stroke-dasharray: 2.96,1.28; stroke-dashoffset: 0; stroke: #b0b0b0; stroke-opacity: 0.25; stroke-width: 0.8"/>
     </g>
     <g id="line2d_6">
      <g>
       <use xlink:href="#m3a12eb5cf5" x="146.285987" y="183.016094" style="stroke: #000000; stroke-width: 0.8"/>
      </g>
     </g>
     <g id="text_3">
      <!-- 4 -->
      <g transform="translate(143.422862 196.854687) scale(0.09 -0.09)">
       <defs>
        <path id="DejaVuSerif-34" d="M 2234 1581 
L 2234 4063 
L 641 1581 
L 2234 1581 
z
M 3609 0 
L 1484 0 
L 1484 331 
L 2234 331 
L 2234 1247 
L 197 1247 
L 197 1588 
L 2241 4750 
L 2859 4750 
L 2859 1581 
L 3750 1581 
L 3750 1247 
L 2859 1247 
L 2859 331 
L 3609 331 
L 3609 0 
z
" transform="scale(0.015625)"/>
       </defs>
       <use xlink:href="#DejaVuSerif-34"/>
      </g>
     </g>
    </g>
    <g id="xtick_4">
     <g id="line2d_7">
      <path d="M 195.814828 183.016094 
L 195.814828 17.958281 
" clip-path="url(#p2e34c0a043)" style="fill: none; stroke-dasharray: 2.96,1.28; stroke-dashoffset: 0; stroke: #b0b0b0; stroke-opacity: 0.25; stroke-width: 0.8"/>
     </g>
     <g id="line2d_8">
      <g>
       <use xlink:href="#m3a12eb5cf5" x="195.814828" y="183.016094" style="stroke: #000000; stroke-width: 0.8"/>
      </g>
     </g>
     <g id="text_4">
      <!-- 6 -->
      <g transform="translate(192.951703 196.854687) scale(0.09 -0.09)">
       <defs>
        <path id="DejaVuSerif-36" d="M 2094 219 
Q 2534 219 2771 542 
Q 3009 866 3009 1472 
Q 3009 2078 2771 2401 
Q 2534 2725 2094 2725 
Q 1647 2725 1412 2412 
Q 1178 2100 1178 1509 
Q 1178 888 1415 553 
Q 1653 219 2094 219 
z
M 1075 2569 
Q 1288 2803 1556 2918 
Q 1825 3034 2163 3034 
Q 2859 3034 3264 2615 
Q 3669 2197 3669 1472 
Q 3669 763 3233 336 
Q 2797 -91 2069 -91 
Q 1278 -91 853 498 
Q 428 1088 428 2181 
Q 428 3406 931 4078 
Q 1434 4750 2350 4750 
Q 2597 4750 2869 4703 
Q 3141 4656 3425 4563 
L 3425 3794 
L 3072 3794 
Q 3034 4109 2831 4275 
Q 2628 4441 2284 4441 
Q 1678 4441 1381 3981 
Q 1084 3522 1075 2569 
z
" transform="scale(0.015625)"/>
       </defs>
       <use xlink:href="#DejaVuSerif-36"/>
      </g>
     </g>
    </g>
    <g id="xtick_5">
     <g id="line2d_9">
      <path d="M 245.343669 183.016094 
L 245.343669 17.958281 
" clip-path="url(#p2e34c0a043)" style="fill: none; stroke-dasharray: 2.96,1.28; stroke-dashoffset: 0; stroke: #b0b0b0; stroke-opacity: 0.25; stroke-width: 0.8"/>
     </g>
     <g id="line2d_10">
      <g>
       <use xlink:href="#m3a12eb5cf5" x="245.343669" y="183.016094" style="stroke: #000000; stroke-width: 0.8"/>
      </g>
     </g>
     <g id="text_5">
      <!-- 8 -->
      <g transform="translate(242.480544 196.854687) scale(0.09 -0.09)">
       <defs>
        <path id="DejaVuSerif-38" d="M 2981 1275 
Q 2981 1775 2732 2051 
Q 2484 2328 2034 2328 
Q 1584 2328 1336 2051 
Q 1088 1775 1088 1275 
Q 1088 772 1336 495 
Q 1584 219 2034 219 
Q 2484 219 2732 495 
Q 2981 772 2981 1275 
z
M 2853 3541 
Q 2853 3966 2637 4203 
Q 2422 4441 2034 4441 
Q 1650 4441 1433 4203 
Q 1216 3966 1216 3541 
Q 1216 3113 1433 2875 
Q 1650 2638 2034 2638 
Q 2422 2638 2637 2875 
Q 2853 3113 2853 3541 
z
M 2516 2484 
Q 3047 2413 3344 2092 
Q 3641 1772 3641 1275 
Q 3641 619 3225 264 
Q 2809 -91 2034 -91 
Q 1263 -91 845 264 
Q 428 619 428 1275 
Q 428 1772 725 2092 
Q 1022 2413 1556 2484 
Q 1084 2569 832 2842 
Q 581 3116 581 3541 
Q 581 4103 968 4426 
Q 1356 4750 2034 4750 
Q 2713 4750 3100 4426 
Q 3488 4103 3488 3541 
Q 3488 3116 3236 2842 
Q 2984 2569 2516 2484 
z
" transform="scale(0.015625)"/>
       </defs>
       <use xlink:href="#DejaVuSerif-38"/>
      </g>
     </g>
    </g>
    <g id="xtick_6">
     <g id="line2d_11">
      <path d="M 294.872511 183.016094 
L 294.872511 17.958281 
" clip-path="url(#p2e34c0a043)" style="fill: none; stroke-dasharray: 2.96,1.28; stroke-dashoffset: 0; stroke: #b0b0b0; stroke-opacity: 0.25; stroke-width: 0.8"/>
     </g>
     <g id="line2d_12">
      <g>
       <use xlink:href="#m3a12eb5cf5" x="294.872511" y="183.016094" style="stroke: #000000; stroke-width: 0.8"/>
      </g>
     </g>
     <g id="text_6">
      <!-- 10 -->
      <g transform="translate(289.146261 196.854687) scale(0.09 -0.09)">
       <defs>
        <path id="DejaVuSerif-31" d="M 909 0 
L 909 331 
L 1722 331 
L 1722 4213 
L 781 3603 
L 781 4013 
L 1919 4750 
L 2350 4750 
L 2350 331 
L 3163 331 
L 3163 0 
L 909 0 
z
" transform="scale(0.015625)"/>
       </defs>
       <use xlink:href="#DejaVuSerif-31"/>
       <use xlink:href="#DejaVuSerif-30" transform="translate(63.623047 0)"/>
      </g>
     </g>
    </g>
    <g id="text_7">
     <!-- objective 1 (weight) -->
     <g transform="translate(120.512656 210.324844) scale(0.1 -0.1)">
      <defs>
       <path id="DejaVuSerif-6f" d="M 1925 219 
Q 2388 219 2623 584 
Q 2859 950 2859 1663 
Q 2859 2375 2623 2739 
Q 2388 3103 1925 3103 
Q 1463 3103 1227 2739 
Q 991 2375 991 1663 
Q 991 950 1228 584 
Q 1466 219 1925 219 
z
M 1925 -91 
Q 1200 -91 759 389 
Q 319 869 319 1663 
Q 319 2456 758 2934 
Q 1197 3413 1925 3413 
Q 2653 3413 3092 2934 
Q 3531 2456 3531 1663 
Q 3531 869 3092 389 
Q 2653 -91 1925 -91 
z
" transform="scale(0.015625)"/>
       <path id="DejaVuSerif-62" d="M 738 331 
L 738 4531 
L 184 4531 
L 184 4863 
L 1313 4863 
L 1313 2803 
Q 1481 3116 1742 3264 
Q 2003 3413 2388 3413 
Q 3000 3413 3387 2928 
Q 3775 2444 3775 1663 
Q 3775 881 3387 395 
Q 3000 -91 2388 -91 
Q 2003 -91 1742 57 
Q 1481 206 1313 519 
L 1313 0 
L 184 0 
L 184 331 
L 738 331 
z
M 1313 1497 
Q 1313 897 1542 583 
Q 1772 269 2209 269 
Q 2650 269 2876 622 
Q 3103 975 3103 1663 
Q 3103 2353 2876 2703 
Q 2650 3053 2209 3053 
Q 1772 3053 1542 2737 
Q 1313 2422 1313 1825 
L 1313 1497 
z
" transform="scale(0.015625)"/>
       <path id="DejaVuSerif-6a" d="M 641 4353 
Q 641 4497 745 4603 
Q 850 4709 997 4709 
Q 1141 4709 1245 4603 
Q 1350 4497 1350 4353 
Q 1350 4206 1248 4103 
Q 1147 4000 997 4000 
Q 850 4000 745 4103 
Q 641 4206 641 4353 
z
M 781 2988 
L 238 2988 
L 238 3322 
L 1356 3322 
L 1356 -325 
Q 1356 -838 1051 -1130 
Q 747 -1422 213 -1422 
Q -13 -1422 -217 -1370 
Q -422 -1319 -616 -1216 
L -616 -531 
L -319 -531 
Q -297 -831 -164 -972 
Q -31 -1113 225 -1113 
Q 509 -1113 645 -920 
Q 781 -728 781 -325 
L 781 2988 
z
" transform="scale(0.015625)"/>
       <path id="DejaVuSerif-65" d="M 3469 1600 
L 991 1600 
L 991 1575 
Q 991 903 1244 561 
Q 1497 219 1991 219 
Q 2369 219 2611 417 
Q 2853 616 2950 1006 
L 3413 1006 
Q 3275 459 2904 184 
Q 2534 -91 1931 -91 
Q 1203 -91 761 389 
Q 319 869 319 1663 
Q 319 2450 753 2931 
Q 1188 3413 1894 3413 
Q 2647 3413 3050 2948 
Q 3453 2484 3469 1600 
z
M 2791 1931 
Q 2772 2513 2545 2808 
Q 2319 3103 1894 3103 
Q 1497 3103 1269 2806 
Q 1041 2509 991 1931 
L 2791 1931 
z
" transform="scale(0.015625)"/>
       <path id="DejaVuSerif-63" d="M 3291 997 
Q 3169 466 2822 187 
Q 2475 -91 1925 -91 
Q 1200 -91 759 389 
Q 319 869 319 1663 
Q 319 2459 759 2936 
Q 1200 3413 1925 3413 
Q 2241 3413 2553 3339 
Q 2866 3266 3181 3116 
L 3181 2266 
L 2847 2266 
Q 2781 2703 2561 2903 
Q 2341 3103 1931 3103 
Q 1466 3103 1228 2742 
Q 991 2381 991 1663 
Q 991 944 1227 581 
Q 1463 219 1931 219 
Q 2303 219 2525 412 
Q 2747 606 2828 997 
L 3291 997 
z
" transform="scale(0.015625)"/>
       <path id="DejaVuSerif-74" d="M 691 2988 
L 184 2988 
L 184 3322 
L 691 3322 
L 691 4353 
L 1269 4353 
L 1269 3322 
L 2350 3322 
L 2350 2988 
L 1269 2988 
L 1269 878 
Q 1269 456 1350 337 
Q 1431 219 1650 219 
Q 1875 219 1978 351 
Q 2081 484 2088 781 
L 2522 781 
Q 2497 328 2275 118 
Q 2053 -91 1600 -91 
Q 1103 -91 897 129 
Q 691 350 691 878 
L 691 2988 
z
" transform="scale(0.015625)"/>
       <path id="DejaVuSerif-69" d="M 622 4353 
Q 622 4497 726 4603 
Q 831 4709 978 4709 
Q 1122 4709 1226 4603 
Q 1331 4497 1331 4353 
Q 1331 4206 1228 4103 
Q 1125 4000 978 4000 
Q 831 4000 726 4103 
Q 622 4206 622 4353 
z
M 1356 331 
L 1900 331 
L 1900 0 
L 231 0 
L 231 331 
L 781 331 
L 781 2988 
L 231 2988 
L 231 3322 
L 1356 3322 
L 1356 331 
z
" transform="scale(0.015625)"/>
       <path id="DejaVuSerif-76" d="M 1581 0 
L 359 2988 
L -19 2988 
L -19 3322 
L 1509 3322 
L 1509 2988 
L 978 2988 
L 1913 703 
L 2847 2988 
L 2350 2988 
L 2350 3322 
L 3597 3322 
L 3597 2988 
L 3225 2988 
L 2003 0 
L 1581 0 
z
" transform="scale(0.015625)"/>
       <path id="DejaVuSerif-20" transform="scale(0.015625)"/>
       <path id="DejaVuSerif-28" d="M 2041 -997 
Q 1281 -656 893 83 
Q 506 822 506 1931 
Q 506 3044 893 3783 
Q 1281 4522 2041 4863 
L 2041 4556 
Q 1559 4225 1350 3623 
Q 1141 3022 1141 1931 
Q 1141 844 1350 242 
Q 1559 -359 2041 -691 
L 2041 -997 
z
" transform="scale(0.015625)"/>
       <path id="DejaVuSerif-77" d="M 3072 3322 
L 3922 728 
L 4672 2988 
L 4191 2988 
L 4191 3322 
L 5394 3322 
L 5394 2988 
L 5025 2988 
L 4038 0 
L 3559 0 
L 2741 2484 
L 1919 0 
L 1459 0 
L 475 2988 
L 103 2988 
L 103 3322 
L 1606 3322 
L 1606 2988 
L 1069 2988 
L 1813 728 
L 2669 3322 
L 3072 3322 
z
" transform="scale(0.015625)"/>
       <path id="DejaVuSerif-67" d="M 3359 2988 
L 3359 72 
Q 3359 -644 2965 -1033 
Q 2572 -1422 1844 -1422 
Q 1516 -1422 1216 -1362 
Q 916 -1303 641 -1184 
L 641 -488 
L 941 -488 
Q 997 -813 1206 -963 
Q 1416 -1113 1806 -1113 
Q 2313 -1113 2548 -827 
Q 2784 -541 2784 72 
L 2784 519 
Q 2616 206 2355 57 
Q 2094 -91 1709 -91 
Q 1097 -91 708 395 
Q 319 881 319 1663 
Q 319 2444 706 2928 
Q 1094 3413 1709 3413 
Q 2094 3413 2355 3264 
Q 2616 3116 2784 2803 
L 2784 3322 
L 3909 3322 
L 3909 2988 
L 3359 2988 
z
M 2784 1825 
Q 2784 2422 2554 2737 
Q 2325 3053 1888 3053 
Q 1444 3053 1217 2703 
Q 991 2353 991 1663 
Q 991 975 1217 622 
Q 1444 269 1888 269 
Q 2325 269 2554 583 
Q 2784 897 2784 1497 
L 2784 1825 
z
" transform="scale(0.015625)"/>
       <path id="DejaVuSerif-68" d="M 263 0 
L 263 331 
L 781 331 
L 781 4531 
L 231 4531 
L 231 4863 
L 1356 4863 
L 1356 2731 
Q 1516 3069 1770 3241 
Q 2025 3413 2363 3413 
Q 2913 3413 3172 3097 
Q 3431 2781 3431 2113 
L 3431 331 
L 3944 331 
L 3944 0 
L 2356 0 
L 2356 331 
L 2853 331 
L 2853 1931 
Q 2853 2541 2704 2764 
Q 2556 2988 2175 2988 
Q 1775 2988 1565 2697 
Q 1356 2406 1356 1850 
L 1356 331 
L 1856 331 
L 1856 0 
L 263 0 
z
" transform="scale(0.015625)"/>
       <path id="DejaVuSerif-29" d="M 453 -997 
L 453 -691 
Q 934 -359 1145 242 
Q 1356 844 1356 1931 
Q 1356 3022 1145 3623 
Q 934 4225 453 4556 
L 453 4863 
Q 1216 4522 1603 3783 
Q 1991 3044 1991 1931 
Q 1991 822 1603 83 
Q 1216 -656 453 -997 
z
" transform="scale(0.015625)"/>
      </defs>
      <use xlink:href="#DejaVuSerif-6f"/>
      <use xlink:href="#DejaVuSerif-62" transform="translate(60.205078 0)"/>
      <use xlink:href="#DejaVuSerif-6a" transform="translate(124.21875 0)"/>
      <use xlink:href="#DejaVuSerif-65" transform="translate(155.224609 0)"/>
      <use xlink:href="#DejaVuSerif-63" transform="translate(214.404297 0)"/>
      <use xlink:href="#DejaVuSerif-74" transform="translate(270.410156 0)"/>
      <use xlink:href="#DejaVuSerif-69" transform="translate(310.595703 0)"/>
      <use xlink:href="#DejaVuSerif-76" transform="translate(342.578125 0)"/>
      <use xlink:href="#DejaVuSerif-65" transform="translate(399.072266 0)"/>
      <use xlink:href="#DejaVuSerif-20" transform="translate(458.251953 0)"/>
      <use xlink:href="#DejaVuSerif-31" transform="translate(490.039062 0)"/>
      <use xlink:href="#DejaVuSerif-20" transform="translate(553.662109 0)"/>
      <use xlink:href="#DejaVuSerif-28" transform="translate(585.449219 0)"/>
      <use xlink:href="#DejaVuSerif-77" transform="translate(624.462891 0)"/>
      <use xlink:href="#DejaVuSerif-65" transform="translate(710.058594 0)"/>
      <use xlink:href="#DejaVuSerif-69" transform="translate(769.238281 0)"/>
      <use xlink:href="#DejaVuSerif-67" transform="translate(801.220703 0)"/>
      <use xlink:href="#DejaVuSerif-68" transform="translate(865.234375 0)"/>
      <use xlink:href="#DejaVuSerif-74" transform="translate(929.638672 0)"/>
      <use xlink:href="#DejaVuSerif-29" transform="translate(969.824219 0)"/>
     </g>
    </g>
   </g>
   <g id="matplotlib.axis_2">
    <g id="ytick_1">
     <g id="line2d_13">
      <path d="M 35.872813 176.32072 
L 306.038437 176.32072 
" clip-path="url(#p2e34c0a043)" style="fill: none; stroke-dasharray: 2.96,1.28; stroke-dashoffset: 0; stroke: #b0b0b0; stroke-opacity: 0.25; stroke-width: 0.8"/>
     </g>
     <g id="line2d_14">
      <defs>
       <path id="mb23dd6b734" d="M 0 0 
L -3.5 0 
" style="stroke: #000000; stroke-width: 0.8"/>
      </defs>
      <g>
       <use xlink:href="#mb23dd6b734" x="35.872813" y="176.32072" style="stroke: #000000; stroke-width: 0.8"/>
      </g>
     </g>
     <g id="text_8">
      <!-- 0 -->
      <g transform="translate(23.146563 179.740016) scale(0.09 -0.09)">
       <use xlink:href="#DejaVuSerif-30"/>
      </g>
     </g>
    </g>
    <g id="ytick_2">
     <g id="line2d_15">
      <path d="M 35.872813 145.1458 
L 306.038437 145.1458 
" clip-path="url(#p2e34c0a043)" style="fill: none; stroke-dasharray: 2.96,1.28; stroke-dashoffset: 0; stroke: #b0b0b0; stroke-opacity: 0.25; stroke-width: 0.8"/>
     </g>
     <g id="line2d_16">
      <g>
       <use xlink:href="#mb23dd6b734" x="35.872813" y="145.1458" style="stroke: #000000; stroke-width: 0.8"/>
      </g>
     </g>
     <g id="text_9">
      <!-- 2 -->
      <g transform="translate(23.146563 148.565096) scale(0.09 -0.09)">
       <use xlink:href="#DejaVuSerif-32"/>
      </g>
     </g>
    </g>
    <g id="ytick_3">
     <g id="line2d_17">
      <path d="M 35.872813 113.970879 
L 306.038437 113.970879 
" clip-path="url(#p2e34c0a043)" style="fill: none; stroke-dasharray: 2.96,1.28; stroke-dashoffset: 0; stroke: #b0b0b0; stroke-opacity: 0.25; stroke-width: 0.8"/>
     </g>
     <g id="line2d_18">
      <g>
       <use xlink:href="#mb23dd6b734" x="35.872813" y="113.970879" style="stroke: #000000; stroke-width: 0.8"/>
      </g>
     </g>
     <g id="text_10">
      <!-- 4 -->
      <g transform="translate(23.146563 117.390176) scale(0.09 -0.09)">
       <use xlink:href="#DejaVuSerif-34"/>
      </g>
     </g>
    </g>
    <g id="ytick_4">
     <g id="line2d_19">
      <path d="M 35.872813 82.795959 
L 306.038437 82.795959 
" clip-path="url(#p2e34c0a043)" style="fill: none; stroke-dasharray: 2.96,1.28; stroke-dashoffset: 0; stroke: #b0b0b0; stroke-opacity: 0.25; stroke-width: 0.8"/>
     </g>
     <g id="line2d_20">
      <g>
       <use xlink:href="#mb23dd6b734" x="35.872813" y="82.795959" style="stroke: #000000; stroke-width: 0.8"/>
      </g>
     </g>
     <g id="text_11">
      <!-- 6 -->
      <g transform="translate(23.146563 86.215256) scale(0.09 -0.09)">
       <use xlink:href="#DejaVuSerif-36"/>
      </g>
     </g>
    </g>
    <g id="ytick_5">
     <g id="line2d_21">
      <path d="M 35.872813 51.621039 
L 306.038437 51.621039 
" clip-path="url(#p2e34c0a043)" style="fill: none; stroke-dasharray: 2.96,1.28; stroke-dashoffset: 0; stroke: #b0b0b0; stroke-opacity: 0.25; stroke-width: 0.8"/>
     </g>
     <g id="line2d_22">
      <g>
       <use xlink:href="#mb23dd6b734" x="35.872813" y="51.621039" style="stroke: #000000; stroke-width: 0.8"/>
      </g>
     </g>
     <g id="text_12">
      <!-- 8 -->
      <g transform="translate(23.146563 55.040336) scale(0.09 -0.09)">
       <use xlink:href="#DejaVuSerif-38"/>
      </g>
     </g>
    </g>
    <g id="ytick_6">
     <g id="line2d_23">
      <path d="M 35.872813 20.446119 
L 306.038437 20.446119 
" clip-path="url(#p2e34c0a043)" style="fill: none; stroke-dasharray: 2.96,1.28; stroke-dashoffset: 0; stroke: #b0b0b0; stroke-opacity: 0.25; stroke-width: 0.8"/>
     </g>
     <g id="line2d_24">
      <g>
       <use xlink:href="#mb23dd6b734" x="35.872813" y="20.446119" style="stroke: #000000; stroke-width: 0.8"/>
      </g>
     </g>
     <g id="text_13">
      <!-- 10 -->
      <g transform="translate(17.420313 23.865416) scale(0.09 -0.09)">
       <use xlink:href="#DejaVuSerif-31"/>
       <use xlink:href="#DejaVuSerif-30" transform="translate(63.623047 0)"/>
      </g>
     </g>
    </g>
    <g id="text_14">
     <!-- objective 2 (max displacement) -->
     <g transform="translate(11.198438 179.629375) rotate(-90) scale(0.1 -0.1)">
      <defs>
       <path id="DejaVuSerif-6d" d="M 3316 2675 
Q 3481 3041 3739 3227 
Q 3997 3413 4341 3413 
Q 4863 3413 5119 3089 
Q 5375 2766 5375 2113 
L 5375 331 
L 5894 331 
L 5894 0 
L 4300 0 
L 4300 331 
L 4800 331 
L 4800 2047 
Q 4800 2556 4650 2772 
Q 4500 2988 4153 2988 
Q 3769 2988 3567 2697 
Q 3366 2406 3366 1850 
L 3366 331 
L 3866 331 
L 3866 0 
L 2291 0 
L 2291 331 
L 2791 331 
L 2791 2069 
Q 2791 2566 2641 2777 
Q 2491 2988 2144 2988 
Q 1759 2988 1557 2697 
Q 1356 2406 1356 1850 
L 1356 331 
L 1856 331 
L 1856 0 
L 263 0 
L 263 331 
L 781 331 
L 781 2994 
L 231 2994 
L 231 3322 
L 1356 3322 
L 1356 2731 
Q 1516 3063 1762 3238 
Q 2009 3413 2322 3413 
Q 2709 3413 2968 3220 
Q 3228 3028 3316 2675 
z
" transform="scale(0.015625)"/>
       <path id="DejaVuSerif-61" d="M 2547 1044 
L 2547 1747 
L 1806 1747 
Q 1378 1747 1168 1562 
Q 959 1378 959 997 
Q 959 650 1171 447 
Q 1384 244 1747 244 
Q 2106 244 2326 466 
Q 2547 688 2547 1044 
z
M 3122 2075 
L 3122 331 
L 3634 331 
L 3634 0 
L 2547 0 
L 2547 359 
Q 2356 128 2106 18 
Q 1856 -91 1522 -91 
Q 969 -91 644 203 
Q 319 497 319 997 
Q 319 1513 691 1797 
Q 1063 2081 1741 2081 
L 2547 2081 
L 2547 2309 
Q 2547 2688 2317 2895 
Q 2088 3103 1672 3103 
Q 1328 3103 1125 2947 
Q 922 2791 872 2484 
L 575 2484 
L 575 3156 
Q 875 3284 1158 3348 
Q 1441 3413 1709 3413 
Q 2400 3413 2761 3070 
Q 3122 2728 3122 2075 
z
" transform="scale(0.015625)"/>
       <path id="DejaVuSerif-78" d="M 1863 2028 
L 2559 2988 
L 2113 2988 
L 2113 3322 
L 3391 3322 
L 3391 2988 
L 2950 2988 
L 2059 1759 
L 3097 331 
L 3531 331 
L 3531 0 
L 1997 0 
L 1997 331 
L 2419 331 
L 1697 1325 
L 972 331 
L 1403 331 
L 1403 0 
L 141 0 
L 141 331 
L 581 331 
L 1497 1594 
L 488 2988 
L 78 2988 
L 78 3322 
L 1563 3322 
L 1563 2988 
L 1166 2988 
L 1863 2028 
z
" transform="scale(0.015625)"/>
       <path id="DejaVuSerif-64" d="M 3359 331 
L 3909 331 
L 3909 0 
L 2784 0 
L 2784 519 
Q 2616 206 2355 57 
Q 2094 -91 1709 -91 
Q 1097 -91 708 395 
Q 319 881 319 1663 
Q 319 2444 706 2928 
Q 1094 3413 1709 3413 
Q 2094 3413 2355 3264 
Q 2616 3116 2784 2803 
L 2784 4531 
L 2241 4531 
L 2241 4863 
L 3359 4863 
L 3359 331 
z
M 2784 1497 
L 2784 1825 
Q 2784 2422 2554 2737 
Q 2325 3053 1888 3053 
Q 1444 3053 1217 2703 
Q 991 2353 991 1663 
Q 991 975 1217 622 
Q 1444 269 1888 269 
Q 2325 269 2554 583 
Q 2784 897 2784 1497 
z
" transform="scale(0.015625)"/>
       <path id="DejaVuSerif-73" d="M 359 184 
L 359 959 
L 691 959 
Q 703 588 923 403 
Q 1144 219 1575 219 
Q 1963 219 2166 364 
Q 2369 509 2369 788 
Q 2369 1006 2220 1140 
Q 2072 1275 1594 1428 
L 1178 1569 
Q 750 1706 558 1912 
Q 366 2119 366 2438 
Q 366 2894 700 3153 
Q 1034 3413 1625 3413 
Q 1888 3413 2178 3344 
Q 2469 3275 2778 3144 
L 2778 2419 
L 2447 2419 
Q 2434 2741 2221 2922 
Q 2009 3103 1644 3103 
Q 1281 3103 1095 2975 
Q 909 2847 909 2591 
Q 909 2381 1050 2254 
Q 1191 2128 1613 1997 
L 2069 1856 
Q 2541 1709 2748 1489 
Q 2956 1269 2956 922 
Q 2956 450 2595 179 
Q 2234 -91 1600 -91 
Q 1278 -91 972 -22 
Q 666 47 359 184 
z
" transform="scale(0.015625)"/>
       <path id="DejaVuSerif-70" d="M 1313 1825 
L 1313 1497 
Q 1313 897 1542 583 
Q 1772 269 2209 269 
Q 2650 269 2876 622 
Q 3103 975 3103 1663 
Q 3103 2353 2876 2703 
Q 2650 3053 2209 3053 
Q 1772 3053 1542 2737 
Q 1313 2422 1313 1825 
z
M 738 2988 
L 184 2988 
L 184 3322 
L 1313 3322 
L 1313 2803 
Q 1481 3116 1742 3264 
Q 2003 3413 2388 3413 
Q 3000 3413 3387 2928 
Q 3775 2444 3775 1663 
Q 3775 881 3387 395 
Q 3000 -91 2388 -91 
Q 2003 -91 1742 57 
Q 1481 206 1313 519 
L 1313 -997 
L 1856 -997 
L 1856 -1331 
L 184 -1331 
L 184 -997 
L 738 -997 
L 738 2988 
z
" transform="scale(0.015625)"/>
       <path id="DejaVuSerif-6c" d="M 1313 331 
L 1856 331 
L 1856 0 
L 184 0 
L 184 331 
L 738 331 
L 738 4531 
L 184 4531 
L 184 4863 
L 1313 4863 
L 1313 331 
z
" transform="scale(0.015625)"/>
       <path id="DejaVuSerif-6e" d="M 263 0 
L 263 331 
L 781 331 
L 781 2988 
L 231 2988 
L 231 3322 
L 1356 3322 
L 1356 2731 
Q 1516 3069 1770 3241 
Q 2025 3413 2363 3413 
Q 2913 3413 3172 3097 
Q 3431 2781 3431 2113 
L 3431 331 
L 3944 331 
L 3944 0 
L 2356 0 
L 2356 331 
L 2853 331 
L 2853 1931 
Q 2853 2541 2703 2767 
Q 2553 2994 2175 2994 
Q 1775 2994 1565 2701 
Q 1356 2409 1356 1850 
L 1356 331 
L 1856 331 
L 1856 0 
L 263 0 
z
" transform="scale(0.015625)"/>
      </defs>
      <use xlink:href="#DejaVuSerif-6f"/>
      <use xlink:href="#DejaVuSerif-62" transform="translate(60.205078 0)"/>
      <use xlink:href="#DejaVuSerif-6a" transform="translate(124.21875 0)"/>
      <use xlink:href="#DejaVuSerif-65" transform="translate(155.224609 0)"/>
      <use xlink:href="#DejaVuSerif-63" transform="translate(214.404297 0)"/>
      <use xlink:href="#DejaVuSerif-74" transform="translate(270.410156 0)"/>
      <use xlink:href="#DejaVuSerif-69" transform="translate(310.595703 0)"/>
      <use xlink:href="#DejaVuSerif-76" transform="translate(342.578125 0)"/>
      <use xlink:href="#DejaVuSerif-65" transform="translate(399.072266 0)"/>
      <use xlink:href="#DejaVuSerif-20" transform="translate(458.251953 0)"/>
      <use xlink:href="#DejaVuSerif-32" transform="translate(490.039062 0)"/>
      <use xlink:href="#DejaVuSerif-20" transform="translate(553.662109 0)"/>
      <use xlink:href="#DejaVuSerif-28" transform="translate(585.449219 0)"/>
      <use xlink:href="#DejaVuSerif-6d" transform="translate(624.462891 0)"/>
      <use xlink:href="#DejaVuSerif-61" transform="translate(719.287109 0)"/>
      <use xlink:href="#DejaVuSerif-78" transform="translate(778.90625 0)"/>
      <use xlink:href="#DejaVuSerif-20" transform="translate(835.302734 0)"/>
      <use xlink:href="#DejaVuSerif-64" transform="translate(867.089844 0)"/>
      <use xlink:href="#DejaVuSerif-69" transform="translate(931.103516 0)"/>
      <use xlink:href="#DejaVuSerif-73" transform="translate(963.085938 0)"/>
      <use xlink:href="#DejaVuSerif-70" transform="translate(1014.404297 0)"/>
      <use xlink:href="#DejaVuSerif-6c" transform="translate(1078.417969 0)"/>
      <use xlink:href="#DejaVuSerif-61" transform="translate(1110.400391 0)"/>
      <use xlink:href="#DejaVuSerif-63" transform="translate(1170.019531 0)"/>
      <use xlink:href="#DejaVuSerif-65" transform="translate(1226.025391 0)"/>
      <use xlink:href="#DejaVuSerif-6d" transform="translate(1285.205078 0)"/>
      <use xlink:href="#DejaVuSerif-65" transform="translate(1380.029297 0)"/>
      <use xlink:href="#DejaVuSerif-6e" transform="translate(1439.208984 0)"/>
      <use xlink:href="#DejaVuSerif-74" transform="translate(1503.613281 0)"/>
      <use xlink:href="#DejaVuSerif-29" transform="translate(1543.798828 0)"/>
     </g>
    </g>
   </g>
   <g id="line2d_25">
    <path d="M 48.153068 118.306489 
L 58.110288 148.177171 
L 61.901631 152.773947 
L 85.479697 157.164962 
L 127.226384 175.513466 
" clip-path="url(#p2e34c0a043)" style="fill: none; stroke: #d62728; stroke-opacity: 0.4; stroke-linecap: square"/>
   </g>
   <g id="PathCollection_3">
    <defs>
     <path id="m6f7dcf8fd4" d="M 0 2.5 
C 0.663008 2.5 1.29895 2.236584 1.767767 1.767767 
C 2.236584 1.29895 2.5 0.663008 2.5 0 
C 2.5 -0.663008 2.236584 -1.29895 1.767767 -1.767767 
C 1.29895 -2.236584 0.663008 -2.5 0 -2.5 
C -0.663008 -2.5 -1.29895 -2.236584 -1.767767 -1.767767 
C -2.236584 -1.29895 -2.5 -0.663008 -2.5 0 
C -2.5 0.663008 -2.236584 1.29895 -1.767767 1.767767 
C -1.29895 2.236584 -0.663008 2.5 0 2.5 
z
" style="stroke: #9467bd; stroke-width: 0.8"/>
    </defs>
    <g clip-path="url(#p2e34c0a043)">
     <use xlink:href="#m6f7dcf8fd4" x="102.99956" y="152.816697" style="fill: #9467bd; stroke: #9467bd; stroke-width: 0.8"/>
     <use xlink:href="#m6f7dcf8fd4" x="48.532227" y="113.581458" style="fill: #9467bd; stroke: #9467bd; stroke-width: 0.8"/>
     <use xlink:href="#m6f7dcf8fd4" x="138.741831" y="172.393167" style="fill: #9467bd; stroke: #9467bd; stroke-width: 0.8"/>
    </g>
   </g>
   <g id="line2d_26">
    <path d="M 48.532227 113.581458 
L 102.99956 152.816697 
L 138.741831 172.393167 
" clip-path="url(#p2e34c0a043)" style="fill: none; stroke: #9467bd; stroke-opacity: 0.4; stroke-linecap: square"/>
   </g>
   <g id="line2d_27">
    <path d="M 50.149027 103.413459 
L 170.276132 170.388555 
L 252.784816 171.58988 
" clip-path="url(#p2e34c0a043)" style="fill: none; stroke: #7f7f7f; stroke-opacity: 0.4; stroke-linecap: square"/>
   </g>
   <g id="patch_3">
    <path d="M 35.872813 183.016094 
L 35.872813 17.958281 
" style="fill: none; stroke: #000000; stroke-width: 0.8; stroke-linejoin: miter; stroke-linecap: square"/>
   </g>
   <g id="patch_4">
    <path d="M 35.872813 183.016094 
L 306.038437 183.016094 
" style="fill: none; stroke: #000000; stroke-width: 0.8; stroke-linejoin: miter; stroke-linecap: square"/>
   </g>
   <g id="PathCollection_4">
    <defs>
     <path id="mfefbfb49f3" d="M 0 2.5 
C 0.663008 2.5 1.29895 2.236584 1.767767 1.767767 
C 2.236584 1.29895 2.5 0.663008 2.5 0 
C 2.5 -0.663008 2.236584 -1.29895 1.767767 -1.767767 
C 1.29895 -2.236584 0.663008 -2.5 0 -2.5 
C -0.663008 -2.5 -1.29895 -2.236584 -1.767767 -1.767767 
C -2.236584 -1.29895 -2.5 -0.663008 -2.5 0 
C -2.5 0.663008 -2.236584 1.29895 -1.767767 1.767767 
C -1.29895 2.236584 -0.663008 2.5 0 2.5 
z
" style="stroke: #d62728; stroke-width: 0.8"/>
    </defs>
    <g clip-path="url(#p2e34c0a043)">
     <use xlink:href="#mfefbfb49f3" x="58.110288" y="148.177171" style="fill: #d62728; stroke: #d62728; stroke-width: 0.8"/>
     <use xlink:href="#mfefbfb49f3" x="48.153068" y="118.306489" style="fill: #d62728; stroke: #d62728; stroke-width: 0.8"/>
     <use xlink:href="#mfefbfb49f3" x="85.479697" y="157.164962" style="fill: #d62728; stroke: #d62728; stroke-width: 0.8"/>
     <use xlink:href="#mfefbfb49f3" x="61.901631" y="152.773947" style="fill: #d62728; stroke: #d62728; stroke-width: 0.8"/>
     <use xlink:href="#mfefbfb49f3" x="127.226384" y="175.513466" style="fill: #d62728; stroke: #d62728; stroke-width: 0.8"/>
    </g>
   </g>
   <g id="text_15">
    <!-- Non-dominated sorting (first three Pareto fronts) -->
    <g transform="translate(33.952344 11.958281) scale(0.11 -0.11)">
     <defs>
      <path id="DejaVuSerif-4e" d="M 313 0 
L 313 331 
L 941 331 
L 941 4331 
L 313 4331 
L 313 4666 
L 1509 4666 
L 4306 984 
L 4306 4331 
L 3681 4331 
L 3681 4666 
L 5319 4666 
L 5319 4331 
L 4691 4331 
L 4691 -91 
L 4313 -91 
L 1325 3841 
L 1325 331 
L 1953 331 
L 1953 0 
L 313 0 
z
" transform="scale(0.015625)"/>
      <path id="DejaVuSerif-2d" d="M 281 1959 
L 1881 1959 
L 1881 1472 
L 281 1472 
L 281 1959 
z
" transform="scale(0.015625)"/>
      <path id="DejaVuSerif-72" d="M 3059 3328 
L 3059 2497 
L 2728 2497 
Q 2713 2744 2591 2866 
Q 2469 2988 2234 2988 
Q 1809 2988 1582 2694 
Q 1356 2400 1356 1850 
L 1356 331 
L 2022 331 
L 2022 0 
L 263 0 
L 263 331 
L 781 331 
L 781 2994 
L 231 2994 
L 231 3322 
L 1356 3322 
L 1356 2731 
Q 1525 3078 1790 3245 
Q 2056 3413 2438 3413 
Q 2578 3413 2733 3391 
Q 2888 3369 3059 3328 
z
" transform="scale(0.015625)"/>
      <path id="DejaVuSerif-66" d="M 2753 4078 
L 2450 4078 
Q 2447 4313 2317 4434 
Q 2188 4556 1941 4556 
Q 1619 4556 1487 4379 
Q 1356 4203 1356 3750 
L 1356 3322 
L 2284 3322 
L 2284 2988 
L 1356 2988 
L 1356 331 
L 2094 331 
L 2094 0 
L 231 0 
L 231 331 
L 781 331 
L 781 2988 
L 231 2988 
L 231 3322 
L 781 3322 
L 781 3738 
Q 781 4294 1070 4578 
Q 1359 4863 1919 4863 
Q 2128 4863 2337 4825 
Q 2547 4788 2753 4709 
L 2753 4078 
z
" transform="scale(0.015625)"/>
      <path id="DejaVuSerif-50" d="M 1581 2375 
L 2406 2375 
Q 2872 2375 3115 2626 
Q 3359 2878 3359 3353 
Q 3359 3831 3115 4081 
Q 2872 4331 2406 4331 
L 1581 4331 
L 1581 2375 
z
M 353 0 
L 353 331 
L 947 331 
L 947 4331 
L 353 4331 
L 353 4666 
L 2559 4666 
Q 3259 4666 3668 4311 
Q 4078 3956 4078 3353 
Q 4078 2753 3668 2397 
Q 3259 2041 2559 2041 
L 1581 2041 
L 1581 331 
L 2303 331 
L 2303 0 
L 353 0 
z
" transform="scale(0.015625)"/>
     </defs>
     <use xlink:href="#DejaVuSerif-4e"/>
     <use xlink:href="#DejaVuSerif-6f" transform="translate(87.5 0)"/>
     <use xlink:href="#DejaVuSerif-6e" transform="translate(147.705078 0)"/>
     <use xlink:href="#DejaVuSerif-2d" transform="translate(212.109375 0)"/>
     <use xlink:href="#DejaVuSerif-64" transform="translate(245.898438 0)"/>
     <use xlink:href="#DejaVuSerif-6f" transform="translate(309.912109 0)"/>
     <use xlink:href="#DejaVuSerif-6d" transform="translate(370.117188 0)"/>
     <use xlink:href="#DejaVuSerif-69" transform="translate(464.941406 0)"/>
     <use xlink:href="#DejaVuSerif-6e" transform="translate(496.923828 0)"/>
     <use xlink:href="#DejaVuSerif-61" transform="translate(561.328125 0)"/>
     <use xlink:href="#DejaVuSerif-74" transform="translate(620.947266 0)"/>
     <use xlink:href="#DejaVuSerif-65" transform="translate(661.132812 0)"/>
     <use xlink:href="#DejaVuSerif-64" transform="translate(720.3125 0)"/>
     <use xlink:href="#DejaVuSerif-20" transform="translate(784.326172 0)"/>
     <use xlink:href="#DejaVuSerif-73" transform="translate(816.113281 0)"/>
     <use xlink:href="#DejaVuSerif-6f" transform="translate(867.431641 0)"/>
     <use xlink:href="#DejaVuSerif-72" transform="translate(927.636719 0)"/>
     <use xlink:href="#DejaVuSerif-74" transform="translate(975.439453 0)"/>
     <use xlink:href="#DejaVuSerif-69" transform="translate(1015.625 0)"/>
     <use xlink:href="#DejaVuSerif-6e" transform="translate(1047.607422 0)"/>
     <use xlink:href="#DejaVuSerif-67" transform="translate(1112.011719 0)"/>
     <use xlink:href="#DejaVuSerif-20" transform="translate(1176.025391 0)"/>
     <use xlink:href="#DejaVuSerif-28" transform="translate(1207.8125 0)"/>
     <use xlink:href="#DejaVuSerif-66" transform="translate(1246.826172 0)"/>
     <use xlink:href="#DejaVuSerif-69" transform="translate(1283.837891 0)"/>
     <use xlink:href="#DejaVuSerif-72" transform="translate(1315.820312 0)"/>
     <use xlink:href="#DejaVuSerif-73" transform="translate(1363.623047 0)"/>
     <use xlink:href="#DejaVuSerif-74" transform="translate(1414.941406 0)"/>
     <use xlink:href="#DejaVuSerif-20" transform="translate(1455.126953 0)"/>
     <use xlink:href="#DejaVuSerif-74" transform="translate(1486.914062 0)"/>
     <use xlink:href="#DejaVuSerif-68" transform="translate(1527.099609 0)"/>
     <use xlink:href="#DejaVuSerif-72" transform="translate(1591.503906 0)"/>
     <use xlink:href="#DejaVuSerif-65" transform="translate(1639.306641 0)"/>
     <use xlink:href="#DejaVuSerif-65" transform="translate(1698.486328 0)"/>
     <use xlink:href="#DejaVuSerif-20" transform="translate(1757.666016 0)"/>
     <use xlink:href="#DejaVuSerif-50" transform="translate(1789.453125 0)"/>
     <use xlink:href="#DejaVuSerif-61" transform="translate(1852.238281 0)"/>
     <use xlink:href="#DejaVuSerif-72" transform="translate(1911.857422 0)"/>
     <use xlink:href="#DejaVuSerif-65" transform="translate(1959.660156 0)"/>
     <use xlink:href="#DejaVuSerif-74" transform="translate(2018.839844 0)"/>
     <use xlink:href="#DejaVuSerif-6f" transform="translate(2059.025391 0)"/>
     <use xlink:href="#DejaVuSerif-20" transform="translate(2119.230469 0)"/>
     <use xlink:href="#DejaVuSerif-66" transform="translate(2151.017578 0)"/>
     <use xlink:href="#DejaVuSerif-72" transform="translate(2188.029297 0)"/>
     <use xlink:href="#DejaVuSerif-6f" transform="translate(2235.832031 0)"/>
     <use xlink:href="#DejaVuSerif-6e" transform="translate(2296.037109 0)"/>
     <use xlink:href="#DejaVuSerif-74" transform="translate(2360.441406 0)"/>
     <use xlink:href="#DejaVuSerif-73" transform="translate(2400.626953 0)"/>
     <use xlink:href="#DejaVuSerif-29" transform="translate(2451.945312 0)"/>
    </g>
   </g>
   <g id="legend_1">
    <g id="PathCollection_5">
     <g>
      <use xlink:href="#mfefbfb49f3" x="250.687031" y="30.534375" style="fill: #d62728; stroke: #d62728; stroke-width: 0.8"/>
     </g>
    </g>
    <g id="text_16">
     <!-- front 1 -->
     <g transform="translate(266.887031 32.896875) scale(0.09 -0.09)">
      <use xlink:href="#DejaVuSerif-66"/>
      <use xlink:href="#DejaVuSerif-72" transform="translate(37.011719 0)"/>
      <use xlink:href="#DejaVuSerif-6f" transform="translate(84.814453 0)"/>
      <use xlink:href="#DejaVuSerif-6e" transform="translate(145.019531 0)"/>
      <use xlink:href="#DejaVuSerif-74" transform="translate(209.423828 0)"/>
      <use xlink:href="#DejaVuSerif-20" transform="translate(249.609375 0)"/>
      <use xlink:href="#DejaVuSerif-31" transform="translate(281.396484 0)"/>
     </g>
    </g>
    <g id="PathCollection_6">
     <g>
      <use xlink:href="#m6f7dcf8fd4" x="250.687031" y="43.744687" style="fill: #9467bd; stroke: #9467bd; stroke-width: 0.8"/>
     </g>
    </g>
    <g id="text_17">
     <!-- front 2 -->
     <g transform="translate(266.887031 46.107187) scale(0.09 -0.09)">
      <use xlink:href="#DejaVuSerif-66"/>
      <use xlink:href="#DejaVuSerif-72" transform="translate(37.011719 0)"/>
      <use xlink:href="#DejaVuSerif-6f" transform="translate(84.814453 0)"/>
      <use xlink:href="#DejaVuSerif-6e" transform="translate(145.019531 0)"/>
      <use xlink:href="#DejaVuSerif-74" transform="translate(209.423828 0)"/>
      <use xlink:href="#DejaVuSerif-20" transform="translate(249.609375 0)"/>
      <use xlink:href="#DejaVuSerif-32" transform="translate(281.396484 0)"/>
     </g>
    </g>
    <g id="PathCollection_7">
     <g>
      <use xlink:href="#m4bad13da30" x="250.687031" y="56.955" style="fill: #7f7f7f; stroke: #7f7f7f; stroke-width: 0.8"/>
     </g>
    </g>
    <g id="text_18">
     <!-- front 3 -->
     <g transform="translate(266.887031 59.3175) scale(0.09 -0.09)">
      <defs>
       <path id="DejaVuSerif-33" d="M 622 4469 
Q 988 4606 1323 4678 
Q 1659 4750 1953 4750 
Q 2638 4750 3022 4454 
Q 3406 4159 3406 3634 
Q 3406 3213 3140 2930 
Q 2875 2647 2388 2547 
Q 2963 2466 3280 2130 
Q 3597 1794 3597 1259 
Q 3597 606 3158 257 
Q 2719 -91 1894 -91 
Q 1528 -91 1179 -12 
Q 831 66 488 225 
L 488 1131 
L 838 1131 
Q 869 681 1141 450 
Q 1413 219 1906 219 
Q 2384 219 2661 495 
Q 2938 772 2938 1253 
Q 2938 1803 2653 2086 
Q 2369 2369 1819 2369 
L 1522 2369 
L 1522 2688 
L 1678 2688 
Q 2225 2688 2498 2914 
Q 2772 3141 2772 3597 
Q 2772 4006 2547 4223 
Q 2322 4441 1900 4441 
Q 1478 4441 1245 4241 
Q 1013 4041 972 3647 
L 622 3647 
L 622 4469 
z
" transform="scale(0.015625)"/>
      </defs>
      <use xlink:href="#DejaVuSerif-66"/>
      <use xlink:href="#DejaVuSerif-72" transform="translate(37.011719 0)"/>
      <use xlink:href="#DejaVuSerif-6f" transform="translate(84.814453 0)"/>
      <use xlink:href="#DejaVuSerif-6e" transform="translate(145.019531 0)"/>
      <use xlink:href="#DejaVuSerif-74" transform="translate(209.423828 0)"/>
      <use xlink:href="#DejaVuSerif-20" transform="translate(249.609375 0)"/>
      <use xlink:href="#DejaVuSerif-33" transform="translate(281.396484 0)"/>
     </g>
    </g>
   </g>
  </g>
 </g>
 <defs>
  <clipPath id="p2e34c0a043">
   <rect x="35.872813" y="17.958281" width="270.165625" height="165.057812"/>
  </clipPath>
 </defs>
</svg>
