<?xml version="1.0" encoding="utf-8" standalone="no"?>
<!DOCTYPE svg PUBLIC "-//W3C//DTD SVG 1.1//EN"
  "http://www.w3.org/Graphics/SVG/1.1/DTD/svg11.dtd">
<svg xmlns:xlink="http://www.w3.org/1999/xlink" width="328.0975pt" height="239.833589pt" viewBox="0 0 328.0975 239.833589" xmlns="http://www.w3.org/2000/svg" version="1.1">
 <metadata>
  <rdf:RDF xmlns:dc="http://purl.org/dc/elements/1.1/" xmlns:cc="http://creativecommons.org/ns#" xmlns:rdf="http://www.w3.org/1999/02/22-rdf-syntax-ns#">
   <cc:Work>
    <dc:type rdf:resource="http://purl.org/dc/dcmitype/StillImage"/>
    <dc:date>2026-04-24T15:22:20.098340</dc:date>
    <dc:format>image/svg+xml</dc:format>
    <dc:creator>
     <cc:Agent>
      <dc:title>Matplotlib v3.10.8, https://matplotlib.org/</dc:title>
     </cc:Agent>
    </dc:creator>
   </cc:Work>
  </rdf:RDF>
 </metadata>
 <defs>
  <style type="text/css">*{stroke-linejoin: round; stroke-linecap: butt}</style>
 </defs>
 <g id="figure_1">
  <g id="patch_1">
   <path d="M -0 239.833589 
L 328.0975 239.833589 
L 328.0975 0 
L -0 0 
z
" style="fill: #ffffff"/>
  </g>
  <g id="patch_2">
   <path d="M 59.721406 226.612969 
L 268.376094 226.612969 
L 268.376094 17.958281 
L 59.721406 17.958281 
z
" style="fill: #ffffff"/>
  </g>
  <g id="pane3d_1">
   <g id="patch_3">
    <path d="M 75.476274 175.16541 
L 144.380866 117.408214 
L 143.423026 34.112013 
L 71.220994 86.801768 
" style="fill: #f2f2f2; opacity: 0.5; stroke: #f2f2f2; stroke-width: 0.8; stroke-linejoin: miter"/>
   </g>
  </g>
  <g id="pane3d_2">
   <g id="patch_4">
    <path d="M 144.380866 117.408214 
L 254.948151 149.545759 
L 258.893908 63.380516 
L 143.423026 34.112013 
" style="fill: #e6e6e6; opacity: 0.5; stroke: #e6e6e6; stroke-width: 0.8; stroke-linejoin: miter"/>
   </g>
  </g>
  <g id="pane3d_3">
   <g id="patch_5">
    <path d="M 75.476274 175.16541 
L 192.682997 213.445125 
L 254.948151 149.545759 
L 144.380866 117.408214 
" style="fill: #ececec; opacity: 0.5; stroke: #ececec; stroke-width: 0.8; stroke-linejoin: miter"/>
   </g>
  </g>
  <g id="grid3d_1">
   <g id="Line3DCollection_1">
    <path d="M 82.574928 177.48383 
L 151.10523 119.362721 
L 150.431701 35.888508 
" style="fill: none; stroke-dasharray: 2.96,1.28; stroke-dashoffset: 0; stroke: #b0b0b0; stroke-width: 0.8"/>
    <path d="M 98.9766 182.840616 
L 166.62832 123.874671 
L 166.617987 39.99126 
" style="fill: none; stroke-dasharray: 2.96,1.28; stroke-dashoffset: 0; stroke: #b0b0b0; stroke-width: 0.8"/>
    <path d="M 115.627933 188.278942 
L 182.368063 128.449592 
L 183.039975 44.153755 
" style="fill: none; stroke-dasharray: 2.96,1.28; stroke-dashoffset: 0; stroke: #b0b0b0; stroke-width: 0.8"/>
    <path d="M 132.534673 193.800683 
L 198.329027 133.088815 
L 199.702853 48.377309 
" style="fill: none; stroke-dasharray: 2.96,1.28; stroke-dashoffset: 0; stroke: #b0b0b0; stroke-width: 0.8"/>
    <path d="M 149.702741 199.407774 
L 214.515908 137.793702 
L 216.611959 52.663274 
" style="fill: none; stroke-dasharray: 2.96,1.28; stroke-dashoffset: 0; stroke: #b0b0b0; stroke-width: 0.8"/>
    <path d="M 167.138244 205.102209 
L 230.933539 142.565659 
L 233.772791 57.013045 
" style="fill: none; stroke-dasharray: 2.96,1.28; stroke-dashoffset: 0; stroke: #b0b0b0; stroke-width: 0.8"/>
    <path d="M 184.847478 210.886045 
L 247.586888 147.40613 
L 251.191014 61.428057 
" style="fill: none; stroke-dasharray: 2.96,1.28; stroke-dashoffset: 0; stroke: #b0b0b0; stroke-width: 0.8"/>
   </g>
  </g>
  <g id="grid3d_2">
   <g id="Line3DCollection_2">
    <path d="M 76.213944 83.158141 
L 80.224383 171.185451 
L 196.991263 209.023783 
" style="fill: none; stroke-dasharray: 2.96,1.28; stroke-dashoffset: 0; stroke: #b0b0b0; stroke-width: 0.8"/>
    <path d="M 87.408433 74.988912 
L 90.878978 162.254557 
L 206.649316 199.112246 
" style="fill: none; stroke-dasharray: 2.96,1.28; stroke-dashoffset: 0; stroke: #b0b0b0; stroke-width: 0.8"/>
    <path d="M 98.309358 67.033914 
L 101.266218 153.547767 
L 216.052317 189.462454 
" style="fill: none; stroke-dasharray: 2.96,1.28; stroke-dashoffset: 0; stroke: #b0b0b0; stroke-width: 0.8"/>
    <path d="M 108.928117 59.284827 
L 111.39604 145.05675 
L 225.210237 180.064174 
" style="fill: none; stroke-dasharray: 2.96,1.28; stroke-dashoffset: 0; stroke: #b0b0b0; stroke-width: 0.8"/>
    <path d="M 119.275524 51.733761 
L 121.277896 136.773582 
L 234.132536 170.907701 
" style="fill: none; stroke-dasharray: 2.96,1.28; stroke-dashoffset: 0; stroke: #b0b0b0; stroke-width: 0.8"/>
    <path d="M 129.361851 44.373219 
L 130.920781 128.690725 
L 242.828191 161.983819 
" style="fill: none; stroke-dasharray: 2.96,1.28; stroke-dashoffset: 0; stroke: #b0b0b0; stroke-width: 0.8"/>
    <path d="M 139.196855 37.196081 
L 140.33326 120.800998 
L 251.30573 153.283779 
" style="fill: none; stroke-dasharray: 2.96,1.28; stroke-dashoffset: 0; stroke: #b0b0b0; stroke-width: 0.8"/>
   </g>
  </g>
  <g id="grid3d_3">
   <g id="Line3DCollection_3">
    <path d="M 255.189136 144.283261 
L 144.322251 112.310849 
L 75.216796 169.777183 
" style="fill: none; stroke-dasharray: 2.96,1.28; stroke-dashoffset: 0; stroke: #b0b0b0; stroke-width: 0.8"/>
    <path d="M 255.884989 129.08763 
L 144.153081 97.599424 
L 74.467246 154.212281 
" style="fill: none; stroke-dasharray: 2.96,1.28; stroke-dashoffset: 0; stroke: #b0b0b0; stroke-width: 0.8"/>
    <path d="M 256.591892 113.650653 
L 143.981354 82.665562 
L 73.705334 138.390691 
" style="fill: none; stroke-dasharray: 2.96,1.28; stroke-dashoffset: 0; stroke: #b0b0b0; stroke-width: 0.8"/>
    <path d="M 257.310114 97.966536 
L 143.80701 67.504182 
L 72.930753 122.306012 
" style="fill: none; stroke-dasharray: 2.96,1.28; stroke-dashoffset: 0; stroke: #b0b0b0; stroke-width: 0.8"/>
    <path d="M 258.039926 82.029295 
L 143.629989 52.110042 
L 72.143184 105.951627 
" style="fill: none; stroke-dasharray: 2.96,1.28; stroke-dashoffset: 0; stroke: #b0b0b0; stroke-width: 0.8"/>
    <path d="M 258.781613 65.832754 
L 143.45023 36.477742 
L 71.342297 89.320694 
" style="fill: none; stroke-dasharray: 2.96,1.28; stroke-dashoffset: 0; stroke: #b0b0b0; stroke-width: 0.8"/>
   </g>
  </g>
  <g id="axis3d_1">
   <g id="line2d_1">
    <path d="M 75.476274 175.16541 
L 192.682997 213.445125 
" style="fill: none; stroke: #000000; stroke-width: 0.8; stroke-linecap: square"/>
   </g>
   <g id="xtick_1">
    <g id="line2d_2">
     <path d="M 166.868408 119.465967 
" clip-path="url(#p591461560d)" style="fill: none; stroke-dasharray: 2.96,1.28; stroke-dashoffset: 0; stroke: #b0b0b0; stroke-opacity: 0.25; stroke-width: 0.8"/>
    </g>
    <g id="line2d_3">
     <path d="M 83.171686 176.977715 
L 81.378852 178.498233 
" style="fill: none; stroke: #000000; stroke-width: 0.8; stroke-linecap: square"/>
    </g>
    <g id="text_1">
     <!-- −60 -->
     <g transform="translate(65.541055 200.049234) scale(0.09 -0.09)">
      <defs>
       <path id="DejaVuSerif-2212" d="M 678 2259 
L 4684 2259 
L 4684 1753 
L 678 1753 
L 678 2259 
z
" transform="scale(0.015625)"/>
       <path id="DejaVuSerif-36" d="M 2094 219 
Q 2534 219 2771 542 
Q 3009 866 3009 1472 
Q 3009 2078 2771 2401 
Q 2534 2725 2094 2725 
Q 1647 2725 1412 2412 
Q 1178 2100 1178 1509 
Q 1178 888 1415 553 
Q 1653 219 2094 219 
z
M 1075 2569 
Q 1288 2803 1556 2918 
Q 1825 3034 2163 3034 
Q 2859 3034 3264 2615 
Q 3669 2197 3669 1472 
Q 3669 763 3233 336 
Q 2797 -91 2069 -91 
Q 1278 -91 853 498 
Q 428 1088 428 2181 
Q 428 3406 931 4078 
Q 1434 4750 2350 4750 
Q 2597 4750 2869 4703 
Q 3141 4656 3425 4563 
L 3425 3794 
L 3072 3794 
Q 3034 4109 2831 4275 
Q 2628 4441 2284 4441 
Q 1678 4441 1381 3981 
Q 1084 3522 1075 2569 
z
" transform="scale(0.015625)"/>
       <path id="DejaVuSerif-30" d="M 2034 219 
Q 2513 219 2750 744 
Q 2988 1269 2988 2328 
Q 2988 3391 2750 3916 
Q 2513 4441 2034 4441 
Q 1556 4441 1318 3916 
Q 1081 3391 1081 2328 
Q 1081 1269 1318 744 
Q 1556 219 2034 219 
z
M 2034 -91 
Q 1275 -91 848 546 
Q 422 1184 422 2328 
Q 422 3475 848 4112 
Q 1275 4750 2034 4750 
Q 2797 4750 3222 4112 
Q 3647 3475 3647 2328 
Q 3647 1184 3222 546 
Q 2797 -91 2034 -91 
z
" transform="scale(0.015625)"/>
      </defs>
      <use xlink:href="#DejaVuSerif-2212"/>
      <use xlink:href="#DejaVuSerif-36" transform="translate(83.789062 0)"/>
      <use xlink:href="#DejaVuSerif-30" transform="translate(147.412109 0)"/>
     </g>
    </g>
   </g>
   <g id="xtick_2">
    <g id="line2d_4">
     <path d="M 166.868408 119.465967 
" clip-path="url(#p591461560d)" style="fill: none; stroke-dasharray: 2.96,1.28; stroke-dashoffset: 0; stroke: #b0b0b0; stroke-opacity: 0.25; stroke-width: 0.8"/>
    </g>
    <g id="line2d_5">
     <path d="M 99.566069 182.326829 
L 97.795113 183.870412 
" style="fill: none; stroke: #000000; stroke-width: 0.8; stroke-linecap: square"/>
    </g>
    <g id="text_2">
     <!-- −40 -->
     <g transform="translate(81.963955 205.550993) scale(0.09 -0.09)">
      <defs>
       <path id="DejaVuSerif-34" d="M 2234 1581 
L 2234 4063 
L 641 1581 
L 2234 1581 
z
M 3609 0 
L 1484 0 
L 1484 331 
L 2234 331 
L 2234 1247 
L 197 1247 
L 197 1588 
L 2241 4750 
L 2859 4750 
L 2859 1581 
L 3750 1581 
L 3750 1247 
L 2859 1247 
L 2859 331 
L 3609 331 
L 3609 0 
z
" transform="scale(0.015625)"/>
      </defs>
      <use xlink:href="#DejaVuSerif-2212"/>
      <use xlink:href="#DejaVuSerif-34" transform="translate(83.789062 0)"/>
      <use xlink:href="#DejaVuSerif-30" transform="translate(147.412109 0)"/>
     </g>
    </g>
   </g>
   <g id="xtick_3">
    <g id="line2d_6">
     <path d="M 166.868408 119.465967 
" clip-path="url(#p591461560d)" style="fill: none; stroke-dasharray: 2.96,1.28; stroke-dashoffset: 0; stroke: #b0b0b0; stroke-opacity: 0.25; stroke-width: 0.8"/>
    </g>
    <g id="line2d_7">
     <path d="M 116.209821 187.757307 
L 114.461623 189.324484 
" style="fill: none; stroke: #000000; stroke-width: 0.8; stroke-linecap: square"/>
    </g>
    <g id="text_3">
     <!-- −20 -->
     <g transform="translate(98.638045 211.136903) scale(0.09 -0.09)">
      <defs>
       <path id="DejaVuSerif-32" d="M 819 3553 
L 469 3553 
L 469 4384 
Q 803 4563 1142 4656 
Q 1481 4750 1806 4750 
Q 2534 4750 2956 4397 
Q 3378 4044 3378 3438 
Q 3378 2753 2422 1800 
Q 2347 1728 2309 1691 
L 1131 513 
L 3078 513 
L 3078 1088 
L 3444 1088 
L 3444 0 
L 434 0 
L 434 341 
L 1850 1753 
Q 2319 2222 2519 2614 
Q 2719 3006 2719 3438 
Q 2719 3909 2473 4175 
Q 2228 4441 1797 4441 
Q 1350 4441 1106 4219 
Q 863 3997 819 3553 
z
" transform="scale(0.015625)"/>
      </defs>
      <use xlink:href="#DejaVuSerif-2212"/>
      <use xlink:href="#DejaVuSerif-32" transform="translate(83.789062 0)"/>
      <use xlink:href="#DejaVuSerif-30" transform="translate(147.412109 0)"/>
     </g>
    </g>
   </g>
   <g id="xtick_4">
    <g id="line2d_8">
     <path d="M 166.868408 119.465967 
" clip-path="url(#p591461560d)" style="fill: none; stroke-dasharray: 2.96,1.28; stroke-dashoffset: 0; stroke: #b0b0b0; stroke-opacity: 0.25; stroke-width: 0.8"/>
    </g>
    <g id="line2d_9">
     <path d="M 133.108678 193.271019 
L 131.384145 194.862335 
" style="fill: none; stroke: #000000; stroke-width: 0.8; stroke-linecap: square"/>
    </g>
    <g id="text_4">
     <!-- 0 -->
     <g transform="translate(122.203116 216.808907) scale(0.09 -0.09)">
      <use xlink:href="#DejaVuSerif-30"/>
     </g>
    </g>
   </g>
   <g id="xtick_5">
    <g id="line2d_10">
     <path d="M 166.868408 119.465967 
" clip-path="url(#p591461560d)" style="fill: none; stroke-dasharray: 2.96,1.28; stroke-dashoffset: 0; stroke: #b0b0b0; stroke-opacity: 0.25; stroke-width: 0.8"/>
    </g>
    <g id="line2d_11">
     <path d="M 150.268548 198.869894 
L 148.568625 200.485912 
" style="fill: none; stroke: #000000; stroke-width: 0.8; stroke-linecap: square"/>
    </g>
    <g id="text_5">
     <!-- 20 -->
     <g transform="translate(136.534063 222.569013) scale(0.09 -0.09)">
      <use xlink:href="#DejaVuSerif-32"/>
      <use xlink:href="#DejaVuSerif-30" transform="translate(63.623047 0)"/>
     </g>
    </g>
   </g>
   <g id="xtick_6">
    <g id="line2d_12">
     <path d="M 166.868408 119.465967 
" clip-path="url(#p591461560d)" style="fill: none; stroke-dasharray: 2.96,1.28; stroke-dashoffset: 0; stroke: #b0b0b0; stroke-opacity: 0.25; stroke-width: 0.8"/>
    </g>
    <g id="line2d_13">
     <path d="M 167.695527 204.555921 
L 166.021192 206.197219 
" style="fill: none; stroke: #000000; stroke-width: 0.8; stroke-linecap: square"/>
    </g>
    <g id="text_6">
     <!-- 40 -->
     <g transform="translate(153.997295 228.41929) scale(0.09 -0.09)">
      <use xlink:href="#DejaVuSerif-34"/>
      <use xlink:href="#DejaVuSerif-30" transform="translate(63.623047 0)"/>
     </g>
    </g>
   </g>
   <g id="xtick_7">
    <g id="line2d_14">
     <path d="M 166.868408 119.465967 
" clip-path="url(#p591461560d)" style="fill: none; stroke-dasharray: 2.96,1.28; stroke-dashoffset: 0; stroke: #b0b0b0; stroke-opacity: 0.25; stroke-width: 0.8"/>
    </g>
    <g id="line2d_15">
     <path d="M 185.3959 210.33115 
L 183.74817 211.998327 
" style="fill: none; stroke: #000000; stroke-width: 0.8; stroke-linecap: square"/>
    </g>
    <g id="text_7">
     <!-- 60 -->
     <g transform="translate(171.736057 234.36187) scale(0.09 -0.09)">
      <use xlink:href="#DejaVuSerif-36"/>
      <use xlink:href="#DejaVuSerif-30" transform="translate(63.623047 0)"/>
     </g>
    </g>
   </g>
   <g id="text_8">
    <!-- x (in) -->
    <g transform="translate(102.868302 227.700324) rotate(-341.912962) scale(0.1 -0.1)">
     <defs>
      <path id="DejaVuSerif-78" d="M 1863 2028 
L 2559 2988 
L 2113 2988 
L 2113 3322 
L 3391 3322 
L 3391 2988 
L 2950 2988 
L 2059 1759 
L 3097 331 
L 3531 331 
L 3531 0 
L 1997 0 
L 1997 331 
L 2419 331 
L 1697 1325 
L 972 331 
L 1403 331 
L 1403 0 
L 141 0 
L 141 331 
L 581 331 
L 1497 1594 
L 488 2988 
L 78 2988 
L 78 3322 
L 1563 3322 
L 1563 2988 
L 1166 2988 
L 1863 2028 
z
" transform="scale(0.015625)"/>
      <path id="DejaVuSerif-20" transform="scale(0.015625)"/>
      <path id="DejaVuSerif-28" d="M 2041 -997 
Q 1281 -656 893 83 
Q 506 822 506 1931 
Q 506 3044 893 3783 
Q 1281 4522 2041 4863 
L 2041 4556 
Q 1559 4225 1350 3623 
Q 1141 3022 1141 1931 
Q 1141 844 1350 242 
Q 1559 -359 2041 -691 
L 2041 -997 
z
" transform="scale(0.015625)"/>
      <path id="DejaVuSerif-69" d="M 622 4353 
Q 622 4497 726 4603 
Q 831 4709 978 4709 
Q 1122 4709 1226 4603 
Q 1331 4497 1331 4353 
Q 1331 4206 1228 4103 
Q 1125 4000 978 4000 
Q 831 4000 726 4103 
Q 622 4206 622 4353 
z
M 1356 331 
L 1900 331 
L 1900 0 
L 231 0 
L 231 331 
L 781 331 
L 781 2988 
L 231 2988 
L 231 3322 
L 1356 3322 
L 1356 331 
z
" transform="scale(0.015625)"/>
      <path id="DejaVuSerif-6e" d="M 263 0 
L 263 331 
L 781 331 
L 781 2988 
L 231 2988 
L 231 3322 
L 1356 3322 
L 1356 2731 
Q 1516 3069 1770 3241 
Q 2025 3413 2363 3413 
Q 2913 3413 3172 3097 
Q 3431 2781 3431 2113 
L 3431 331 
L 3944 331 
L 3944 0 
L 2356 0 
L 2356 331 
L 2853 331 
L 2853 1931 
Q 2853 2541 2703 2767 
Q 2553 2994 2175 2994 
Q 1775 2994 1565 2701 
Q 1356 2409 1356 1850 
L 1356 331 
L 1856 331 
L 1856 0 
L 263 0 
z
" transform="scale(0.015625)"/>
      <path id="DejaVuSerif-29" d="M 453 -997 
L 453 -691 
Q 934 -359 1145 242 
Q 1356 844 1356 1931 
Q 1356 3022 1145 3623 
Q 934 4225 453 4556 
L 453 4863 
Q 1216 4522 1603 3783 
Q 1991 3044 1991 1931 
Q 1991 822 1603 83 
Q 1216 -656 453 -997 
z
" transform="scale(0.015625)"/>
     </defs>
     <use xlink:href="#DejaVuSerif-78"/>
     <use xlink:href="#DejaVuSerif-20" transform="translate(56.396484 0)"/>
     <use xlink:href="#DejaVuSerif-28" transform="translate(88.183594 0)"/>
     <use xlink:href="#DejaVuSerif-69" transform="translate(127.197266 0)"/>
     <use xlink:href="#DejaVuSerif-6e" transform="translate(159.179688 0)"/>
     <use xlink:href="#DejaVuSerif-29" transform="translate(223.583984 0)"/>
    </g>
   </g>
  </g>
  <g id="axis3d_2">
   <g id="line2d_16">
    <path d="M 254.948151 149.545759 
L 192.682997 213.445125 
" style="fill: none; stroke: #000000; stroke-width: 0.8; stroke-linecap: square"/>
   </g>
   <g id="xtick_8">
    <g id="line2d_17">
     <path d="M 166.868408 119.465967 
" clip-path="url(#p591461560d)" style="fill: none; stroke-dasharray: 2.96,1.28; stroke-dashoffset: 0; stroke: #b0b0b0; stroke-opacity: 0.25; stroke-width: 0.8"/>
    </g>
    <g id="line2d_18">
     <path d="M 196.007265 208.704919 
L 198.961804 209.662338 
" style="fill: none; stroke: #000000; stroke-width: 0.8; stroke-linecap: square"/>
    </g>
    <g id="text_9">
     <!-- −60 -->
     <g transform="translate(200.376912 229.287883) scale(0.09 -0.09)">
      <use xlink:href="#DejaVuSerif-2212"/>
      <use xlink:href="#DejaVuSerif-36" transform="translate(83.789062 0)"/>
      <use xlink:href="#DejaVuSerif-30" transform="translate(147.412109 0)"/>
     </g>
    </g>
   </g>
   <g id="xtick_9">
    <g id="line2d_19">
     <path d="M 166.868408 119.465967 
" clip-path="url(#p591461560d)" style="fill: none; stroke-dasharray: 2.96,1.28; stroke-dashoffset: 0; stroke: #b0b0b0; stroke-opacity: 0.25; stroke-width: 0.8"/>
    </g>
    <g id="line2d_20">
     <path d="M 205.674377 198.801856 
L 208.601681 199.733818 
" style="fill: none; stroke: #000000; stroke-width: 0.8; stroke-linecap: square"/>
    </g>
    <g id="text_10">
     <!-- −40 -->
     <g transform="translate(209.869731 219.189098) scale(0.09 -0.09)">
      <use xlink:href="#DejaVuSerif-2212"/>
      <use xlink:href="#DejaVuSerif-34" transform="translate(83.789062 0)"/>
      <use xlink:href="#DejaVuSerif-30" transform="translate(147.412109 0)"/>
     </g>
    </g>
   </g>
   <g id="xtick_10">
    <g id="line2d_21">
     <path d="M 166.868408 119.465967 
" clip-path="url(#p591461560d)" style="fill: none; stroke-dasharray: 2.96,1.28; stroke-dashoffset: 0; stroke: #b0b0b0; stroke-opacity: 0.25; stroke-width: 0.8"/>
    </g>
    <g id="line2d_22">
     <path d="M 215.086305 189.160205 
L 217.986773 190.067714 
" style="fill: none; stroke: #000000; stroke-width: 0.8; stroke-linecap: square"/>
    </g>
    <g id="text_11">
     <!-- −20 -->
     <g transform="translate(219.111676 209.357201) scale(0.09 -0.09)">
      <use xlink:href="#DejaVuSerif-2212"/>
      <use xlink:href="#DejaVuSerif-32" transform="translate(83.789062 0)"/>
      <use xlink:href="#DejaVuSerif-30" transform="translate(147.412109 0)"/>
     </g>
    </g>
   </g>
   <g id="xtick_11">
    <g id="line2d_23">
     <path d="M 166.868408 119.465967 
" clip-path="url(#p591461560d)" style="fill: none; stroke-dasharray: 2.96,1.28; stroke-dashoffset: 0; stroke: #b0b0b0; stroke-opacity: 0.25; stroke-width: 0.8"/>
    </g>
    <g id="line2d_24">
     <path d="M 224.253021 179.76975 
L 227.127048 180.653755 
" style="fill: none; stroke: #000000; stroke-width: 0.8; stroke-linecap: square"/>
    </g>
    <g id="text_12">
     <!-- 0 -->
     <g transform="translate(234.746546 199.781751) scale(0.09 -0.09)">
      <use xlink:href="#DejaVuSerif-30"/>
     </g>
    </g>
   </g>
   <g id="xtick_12">
    <g id="line2d_25">
     <path d="M 166.868408 119.465967 
" clip-path="url(#p591461560d)" style="fill: none; stroke-dasharray: 2.96,1.28; stroke-dashoffset: 0; stroke: #b0b0b0; stroke-opacity: 0.25; stroke-width: 0.8"/>
    </g>
    <g id="line2d_26">
     <path d="M 233.183986 170.620801 
L 236.031964 171.482203 
" style="fill: none; stroke: #000000; stroke-width: 0.8; stroke-linecap: square"/>
    </g>
    <g id="text_13">
     <!-- 20 -->
     <g transform="translate(240.652557 190.452844) scale(0.09 -0.09)">
      <use xlink:href="#DejaVuSerif-32"/>
      <use xlink:href="#DejaVuSerif-30" transform="translate(63.623047 0)"/>
     </g>
    </g>
   </g>
   <g id="xtick_13">
    <g id="line2d_27">
     <path d="M 166.868408 119.465967 
" clip-path="url(#p591461560d)" style="fill: none; stroke-dasharray: 2.96,1.28; stroke-dashoffset: 0; stroke: #b0b0b0; stroke-opacity: 0.25; stroke-width: 0.8"/>
    </g>
    <g id="line2d_28">
     <path d="M 241.888178 161.70416 
L 244.710495 162.543815 
" style="fill: none; stroke: #000000; stroke-width: 0.8; stroke-linecap: square"/>
    </g>
    <g id="text_14">
     <!-- 40 -->
     <g transform="translate(249.198781 181.361079) scale(0.09 -0.09)">
      <use xlink:href="#DejaVuSerif-34"/>
      <use xlink:href="#DejaVuSerif-30" transform="translate(63.623047 0)"/>
     </g>
    </g>
   </g>
   <g id="xtick_14">
    <g id="line2d_29">
     <path d="M 166.868408 119.465967 
" clip-path="url(#p591461560d)" style="fill: none; stroke-dasharray: 2.96,1.28; stroke-dashoffset: 0; stroke: #b0b0b0; stroke-opacity: 0.25; stroke-width: 0.8"/>
    </g>
    <g id="line2d_30">
     <path d="M 250.374126 153.011089 
L 253.171166 153.829811 
" style="fill: none; stroke: #000000; stroke-width: 0.8; stroke-linecap: square"/>
    </g>
    <g id="text_15">
     <!-- 60 -->
     <g transform="translate(257.530485 172.497527) scale(0.09 -0.09)">
      <use xlink:href="#DejaVuSerif-36"/>
      <use xlink:href="#DejaVuSerif-30" transform="translate(63.623047 0)"/>
     </g>
    </g>
   </g>
   <g id="text_16">
    <!-- y (in) -->
    <g transform="translate(244.947251 219.369704) rotate(-45.742112) scale(0.1 -0.1)">
     <defs>
      <path id="DejaVuSerif-79" d="M 1381 -609 
L 1600 -56 
L 359 2988 
L -19 2988 
L -19 3322 
L 1509 3322 
L 1509 2988 
L 978 2988 
L 1913 703 
L 2847 2988 
L 2350 2988 
L 2350 3322 
L 3597 3322 
L 3597 2988 
L 3225 2988 
L 1703 -750 
Q 1547 -1138 1356 -1280 
Q 1166 -1422 819 -1422 
Q 672 -1422 517 -1397 
Q 363 -1372 206 -1325 
L 206 -691 
L 500 -691 
Q 519 -903 608 -995 
Q 697 -1088 884 -1088 
Q 1056 -1088 1161 -992 
Q 1266 -897 1381 -609 
z
" transform="scale(0.015625)"/>
     </defs>
     <use xlink:href="#DejaVuSerif-79"/>
     <use xlink:href="#DejaVuSerif-20" transform="translate(56.494141 0)"/>
     <use xlink:href="#DejaVuSerif-28" transform="translate(88.28125 0)"/>
     <use xlink:href="#DejaVuSerif-69" transform="translate(127.294922 0)"/>
     <use xlink:href="#DejaVuSerif-6e" transform="translate(159.277344 0)"/>
     <use xlink:href="#DejaVuSerif-29" transform="translate(223.681641 0)"/>
    </g>
   </g>
  </g>
  <g id="axis3d_3">
   <g id="line2d_31">
    <path d="M 254.948151 149.545759 
L 258.893908 63.380516 
" style="fill: none; stroke: #000000; stroke-width: 0.8; stroke-linecap: square"/>
   </g>
   <g id="xtick_15">
    <g id="line2d_32">
     <path d="M 166.868408 119.465967 
" style="fill: none; stroke-dasharray: 2.96,1.28; stroke-dashoffset: 0; stroke: #b0b0b0; stroke-opacity: 0.25; stroke-width: 0.8"/>
    </g>
    <g id="line2d_33">
     <path d="M 254.258539 144.01489 
L 257.052551 144.820643 
" style="fill: none; stroke: #000000; stroke-width: 0.8; stroke-linecap: square"/>
    </g>
    <g id="text_17">
     <!-- 0 -->
     <g transform="translate(270.608369 148.532073) scale(0.09 -0.09)">
      <use xlink:href="#DejaVuSerif-30"/>
     </g>
    </g>
   </g>
   <g id="xtick_16">
    <g id="line2d_34">
     <path d="M 166.868408 119.465967 
" style="fill: none; stroke-dasharray: 2.96,1.28; stroke-dashoffset: 0; stroke: #b0b0b0; stroke-opacity: 0.25; stroke-width: 0.8"/>
    </g>
    <g id="line2d_35">
     <path d="M 254.946783 128.823225 
L 257.763654 129.617074 
" style="fill: none; stroke: #000000; stroke-width: 0.8; stroke-linecap: square"/>
    </g>
    <g id="text_18">
     <!-- 50 -->
     <g transform="translate(268.581894 133.37479) scale(0.09 -0.09)">
      <defs>
       <path id="DejaVuSerif-35" d="M 3219 4666 
L 3219 4153 
L 1081 4153 
L 1081 2816 
Q 1244 2928 1461 2984 
Q 1678 3041 1947 3041 
Q 2703 3041 3140 2622 
Q 3578 2203 3578 1478 
Q 3578 738 3136 323 
Q 2694 -91 1894 -91 
Q 1572 -91 1234 -12 
Q 897 66 544 225 
L 544 1131 
L 897 1131 
Q 925 688 1179 453 
Q 1434 219 1894 219 
Q 2388 219 2653 544 
Q 2919 869 2919 1478 
Q 2919 2084 2655 2407 
Q 2391 2731 1894 2731 
Q 1613 2731 1398 2631 
Q 1184 2531 1019 2322 
L 750 2322 
L 750 4666 
L 3219 4666 
z
" transform="scale(0.015625)"/>
      </defs>
      <use xlink:href="#DejaVuSerif-35"/>
      <use xlink:href="#DejaVuSerif-30" transform="translate(63.623047 0)"/>
     </g>
    </g>
   </g>
   <g id="xtick_17">
    <g id="line2d_36">
     <path d="M 166.868408 119.465967 
" style="fill: none; stroke-dasharray: 2.96,1.28; stroke-dashoffset: 0; stroke: #b0b0b0; stroke-opacity: 0.25; stroke-width: 0.8"/>
    </g>
    <g id="line2d_37">
     <path d="M 255.645955 113.390376 
L 258.48606 114.171838 
" style="fill: none; stroke: #000000; stroke-width: 0.8; stroke-linecap: square"/>
    </g>
    <g id="text_19">
     <!-- 100 -->
     <g transform="translate(266.568656 117.977707) scale(0.09 -0.09)">
      <defs>
       <path id="DejaVuSerif-31" d="M 909 0 
L 909 331 
L 1722 331 
L 1722 4213 
L 781 3603 
L 781 4013 
L 1919 4750 
L 2350 4750 
L 2350 331 
L 3163 331 
L 3163 0 
L 909 0 
z
" transform="scale(0.015625)"/>
      </defs>
      <use xlink:href="#DejaVuSerif-31"/>
      <use xlink:href="#DejaVuSerif-30" transform="translate(63.623047 0)"/>
      <use xlink:href="#DejaVuSerif-30" transform="translate(127.246094 0)"/>
     </g>
    </g>
   </g>
   <g id="xtick_18">
    <g id="line2d_38">
     <path d="M 166.868408 119.465967 
" style="fill: none; stroke-dasharray: 2.96,1.28; stroke-dashoffset: 0; stroke: #b0b0b0; stroke-opacity: 0.25; stroke-width: 0.8"/>
    </g>
    <g id="line2d_39">
     <path d="M 256.356315 97.710552 
L 259.22004 98.479129 
" style="fill: none; stroke: #000000; stroke-width: 0.8; stroke-linecap: square"/>
    </g>
    <g id="text_20">
     <!-- 150 -->
     <g transform="translate(267.432096 102.335089) scale(0.09 -0.09)">
      <use xlink:href="#DejaVuSerif-31"/>
      <use xlink:href="#DejaVuSerif-35" transform="translate(63.623047 0)"/>
      <use xlink:href="#DejaVuSerif-30" transform="translate(127.246094 0)"/>
     </g>
    </g>
   </g>
   <g id="xtick_19">
    <g id="line2d_40">
     <path d="M 166.868408 119.465967 
" style="fill: none; stroke-dasharray: 2.96,1.28; stroke-dashoffset: 0; stroke: #b0b0b0; stroke-opacity: 0.25; stroke-width: 0.8"/>
    </g>
    <g id="line2d_41">
     <path d="M 257.078135 81.777778 
L 259.965876 82.532949 
" style="fill: none; stroke: #000000; stroke-width: 0.8; stroke-linecap: square"/>
    </g>
    <g id="text_21">
     <!-- 200 -->
     <g transform="translate(268.309415 86.441015) scale(0.09 -0.09)">
      <use xlink:href="#DejaVuSerif-32"/>
      <use xlink:href="#DejaVuSerif-30" transform="translate(63.623047 0)"/>
      <use xlink:href="#DejaVuSerif-30" transform="translate(127.246094 0)"/>
     </g>
    </g>
   </g>
   <g id="xtick_20">
    <g id="line2d_42">
     <path d="M 166.868408 119.465967 
" style="fill: none; stroke-dasharray: 2.96,1.28; stroke-dashoffset: 0; stroke: #b0b0b0; stroke-opacity: 0.25; stroke-width: 0.8"/>
    </g>
    <g id="line2d_43">
     <path d="M 257.811694 65.585883 
L 260.723857 66.327108 
" style="fill: none; stroke: #000000; stroke-width: 0.8; stroke-linecap: square"/>
    </g>
    <g id="text_22">
     <!-- 250 -->
     <g transform="translate(269.200952 70.289373) scale(0.09 -0.09)">
      <use xlink:href="#DejaVuSerif-32"/>
      <use xlink:href="#DejaVuSerif-35" transform="translate(63.623047 0)"/>
      <use xlink:href="#DejaVuSerif-30" transform="translate(127.246094 0)"/>
     </g>
    </g>
   </g>
   <g id="text_23">
    <!-- z (in) -->
    <g transform="translate(299.344299 115.064737) rotate(-87.378092) scale(0.1 -0.1)">
     <defs>
      <path id="DejaVuSerif-7a" d="M 256 0 
L 256 269 
L 2338 2988 
L 691 2988 
L 691 2413 
L 359 2413 
L 359 3322 
L 3078 3322 
L 3078 3053 
L 997 331 
L 2803 331 
L 2803 934 
L 3138 934 
L 3138 0 
L 256 0 
z
" transform="scale(0.015625)"/>
     </defs>
     <use xlink:href="#DejaVuSerif-7a"/>
     <use xlink:href="#DejaVuSerif-20" transform="translate(52.685547 0)"/>
     <use xlink:href="#DejaVuSerif-28" transform="translate(84.472656 0)"/>
     <use xlink:href="#DejaVuSerif-69" transform="translate(123.486328 0)"/>
     <use xlink:href="#DejaVuSerif-6e" transform="translate(155.46875 0)"/>
     <use xlink:href="#DejaVuSerif-29" transform="translate(219.873047 0)"/>
    </g>
   </g>
  </g>
  <g id="axes_1">
   <g id="line2d_44">
    <path d="M 87.073052 168.097689 
L 86.290561 149.417967 
" clip-path="url(#p591461560d)" style="fill: none; stroke: #000000; stroke-width: 0.9; stroke-linecap: square"/>
   </g>
   <g id="line2d_45">
    <path d="M 87.073052 168.097689 
L 189.483482 181.731709 
" clip-path="url(#p591461560d)" style="fill: none; stroke: #000000; stroke-width: 0.9; stroke-linecap: square"/>
   </g>
   <g id="line2d_46">
    <path d="M 87.073052 168.097689 
L 189.253554 200.960086 
" clip-path="url(#p591461560d)" style="fill: none; stroke: #000000; stroke-width: 0.9; stroke-linecap: square"/>
   </g>
   <g id="line2d_47">
    <path d="M 86.290561 149.417967 
L 189.483482 181.731709 
" clip-path="url(#p591461560d)" style="fill: none; stroke: #000000; stroke-width: 0.9; stroke-linecap: square"/>
   </g>
   <g id="line2d_48">
    <path d="M 189.253554 200.960086 
L 189.483482 181.731709 
" clip-path="url(#p591461560d)" style="fill: none; stroke: #000000; stroke-width: 0.9; stroke-linecap: square"/>
   </g>
   <g id="line2d_49">
    <path d="M 189.253554 200.960086 
L 244.860296 127.558864 
" clip-path="url(#p591461560d)" style="fill: none; stroke: #000000; stroke-width: 0.9; stroke-linecap: square"/>
   </g>
   <g id="line2d_50">
    <path d="M 189.253554 200.960086 
L 244.126995 145.850265 
" clip-path="url(#p591461560d)" style="fill: none; stroke: #000000; stroke-width: 0.9; stroke-linecap: square"/>
   </g>
   <g id="line2d_51">
    <path d="M 189.483482 181.731709 
L 244.860296 127.558864 
" clip-path="url(#p591461560d)" style="fill: none; stroke: #000000; stroke-width: 0.9; stroke-linecap: square"/>
   </g>
   <g id="line2d_52">
    <path d="M 244.126995 145.850265 
L 244.860296 127.558864 
" clip-path="url(#p591461560d)" style="fill: none; stroke: #000000; stroke-width: 0.9; stroke-linecap: square"/>
   </g>
   <g id="line2d_53">
    <path d="M 244.126995 145.850265 
L 146.848218 99.870889 
" clip-path="url(#p591461560d)" style="fill: none; stroke: #000000; stroke-width: 0.9; stroke-linecap: square"/>
   </g>
   <g id="line2d_54">
    <path d="M 244.126995 145.850265 
L 147.028619 117.6505 
" clip-path="url(#p591461560d)" style="fill: none; stroke: #000000; stroke-width: 0.9; stroke-linecap: square"/>
   </g>
   <g id="line2d_55">
    <path d="M 244.860296 127.558864 
L 146.848218 99.870889 
" clip-path="url(#p591461560d)" style="fill: none; stroke: #000000; stroke-width: 0.9; stroke-linecap: square"/>
   </g>
   <g id="line2d_56">
    <path d="M 147.028619 117.6505 
L 146.848218 99.870889 
" clip-path="url(#p591461560d)" style="fill: none; stroke: #000000; stroke-width: 0.9; stroke-linecap: square"/>
   </g>
   <g id="line2d_57">
    <path d="M 147.028619 117.6505 
L 86.290561 149.417967 
" clip-path="url(#p591461560d)" style="fill: none; stroke: #000000; stroke-width: 0.9; stroke-linecap: square"/>
   </g>
   <g id="line2d_58">
    <path d="M 147.028619 117.6505 
L 87.073052 168.097689 
" clip-path="url(#p591461560d)" style="fill: none; stroke: #000000; stroke-width: 0.9; stroke-linecap: square"/>
   </g>
   <g id="line2d_59">
    <path d="M 146.848218 99.870889 
L 86.290561 149.417967 
" clip-path="url(#p591461560d)" style="fill: none; stroke: #000000; stroke-width: 0.9; stroke-linecap: square"/>
   </g>
   <g id="line2d_60">
    <path d="M 86.290561 149.417967 
L 85.492571 130.368262 
" clip-path="url(#p591461560d)" style="fill: none; stroke: #000000; stroke-width: 0.9; stroke-linecap: square"/>
   </g>
   <g id="line2d_61">
    <path d="M 86.290561 149.417967 
L 189.718182 162.104226 
" clip-path="url(#p591461560d)" style="fill: none; stroke: #000000; stroke-width: 0.9; stroke-linecap: square"/>
   </g>
   <g id="line2d_62">
    <path d="M 86.290561 149.417967 
L 189.483482 181.731709 
" clip-path="url(#p591461560d)" style="fill: none; stroke: #000000; stroke-width: 0.9; stroke-linecap: square"/>
   </g>
   <g id="line2d_63">
    <path d="M 85.492571 130.368262 
L 189.718182 162.104226 
" clip-path="url(#p591461560d)" style="fill: none; stroke: #000000; stroke-width: 0.9; stroke-linecap: square"/>
   </g>
   <g id="line2d_64">
    <path d="M 189.483482 181.731709 
L 189.718182 162.104226 
" clip-path="url(#p591461560d)" style="fill: none; stroke: #000000; stroke-width: 0.9; stroke-linecap: square"/>
   </g>
   <g id="line2d_65">
    <path d="M 189.483482 181.731709 
L 245.60765 108.916909 
" clip-path="url(#p591461560d)" style="fill: none; stroke: #000000; stroke-width: 0.9; stroke-linecap: square"/>
   </g>
   <g id="line2d_66">
    <path d="M 189.483482 181.731709 
L 244.860296 127.558864 
" clip-path="url(#p591461560d)" style="fill: none; stroke: #000000; stroke-width: 0.9; stroke-linecap: square"/>
   </g>
   <g id="line2d_67">
    <path d="M 189.718182 162.104226 
L 245.60765 108.916909 
" clip-path="url(#p591461560d)" style="fill: none; stroke: #000000; stroke-width: 0.9; stroke-linecap: square"/>
   </g>
   <g id="line2d_68">
    <path d="M 244.860296 127.558864 
L 245.60765 108.916909 
" clip-path="url(#p591461560d)" style="fill: none; stroke: #000000; stroke-width: 0.9; stroke-linecap: square"/>
   </g>
   <g id="line2d_69">
    <path d="M 244.860296 127.558864 
L 146.664506 81.764974 
" clip-path="url(#p591461560d)" style="fill: none; stroke: #000000; stroke-width: 0.9; stroke-linecap: square"/>
   </g>
   <g id="line2d_70">
    <path d="M 244.860296 127.558864 
L 146.848218 99.870889 
" clip-path="url(#p591461560d)" style="fill: none; stroke: #000000; stroke-width: 0.9; stroke-linecap: square"/>
   </g>
   <g id="line2d_71">
    <path d="M 245.60765 108.916909 
L 146.664506 81.764974 
" clip-path="url(#p591461560d)" style="fill: none; stroke: #000000; stroke-width: 0.9; stroke-linecap: square"/>
   </g>
   <g id="line2d_72">
    <path d="M 146.848218 99.870889 
L 146.664506 81.764974 
" clip-path="url(#p591461560d)" style="fill: none; stroke: #000000; stroke-width: 0.9; stroke-linecap: square"/>
   </g>
   <g id="line2d_73">
    <path d="M 146.848218 99.870889 
L 85.492571 130.368262 
" clip-path="url(#p591461560d)" style="fill: none; stroke: #000000; stroke-width: 0.9; stroke-linecap: square"/>
   </g>
   <g id="line2d_74">
    <path d="M 146.848218 99.870889 
L 86.290561 149.417967 
" clip-path="url(#p591461560d)" style="fill: none; stroke: #000000; stroke-width: 0.9; stroke-linecap: square"/>
   </g>
   <g id="line2d_75">
    <path d="M 146.664506 81.764974 
L 85.492571 130.368262 
" clip-path="url(#p591461560d)" style="fill: none; stroke: #000000; stroke-width: 0.9; stroke-linecap: square"/>
   </g>
   <g id="line2d_76">
    <path d="M 85.492571 130.368262 
L 84.678618 110.937471 
" clip-path="url(#p591461560d)" style="fill: none; stroke: #000000; stroke-width: 0.9; stroke-linecap: square"/>
   </g>
   <g id="line2d_77">
    <path d="M 85.492571 130.368262 
L 189.957805 142.065081 
" clip-path="url(#p591461560d)" style="fill: none; stroke: #000000; stroke-width: 0.9; stroke-linecap: square"/>
   </g>
   <g id="line2d_78">
    <path d="M 85.492571 130.368262 
L 189.718182 162.104226 
" clip-path="url(#p591461560d)" style="fill: none; stroke: #000000; stroke-width: 0.9; stroke-linecap: square"/>
   </g>
   <g id="line2d_79">
    <path d="M 84.678618 110.937471 
L 189.957805 142.065081 
" clip-path="url(#p591461560d)" style="fill: none; stroke: #000000; stroke-width: 0.9; stroke-linecap: square"/>
   </g>
   <g id="line2d_80">
    <path d="M 189.718182 162.104226 
L 189.957805 142.065081 
" clip-path="url(#p591461560d)" style="fill: none; stroke: #000000; stroke-width: 0.9; stroke-linecap: square"/>
   </g>
   <g id="line2d_81">
    <path d="M 189.718182 162.104226 
L 246.369466 89.914226 
" clip-path="url(#p591461560d)" style="fill: none; stroke: #000000; stroke-width: 0.9; stroke-linecap: square"/>
   </g>
   <g id="line2d_82">
    <path d="M 189.718182 162.104226 
L 245.60765 108.916909 
" clip-path="url(#p591461560d)" style="fill: none; stroke: #000000; stroke-width: 0.9; stroke-linecap: square"/>
   </g>
   <g id="line2d_83">
    <path d="M 189.957805 142.065081 
L 246.369466 89.914226 
" clip-path="url(#p591461560d)" style="fill: none; stroke: #000000; stroke-width: 0.9; stroke-linecap: square"/>
   </g>
   <g id="line2d_84">
    <path d="M 245.60765 108.916909 
L 246.369466 89.914226 
" clip-path="url(#p591461560d)" style="fill: none; stroke: #000000; stroke-width: 0.9; stroke-linecap: square"/>
   </g>
   <g id="line2d_85">
    <path d="M 245.60765 108.916909 
L 146.477392 63.32369 
" clip-path="url(#p591461560d)" style="fill: none; stroke: #000000; stroke-width: 0.9; stroke-linecap: square"/>
   </g>
   <g id="line2d_86">
    <path d="M 245.60765 108.916909 
L 146.664506 81.764974 
" clip-path="url(#p591461560d)" style="fill: none; stroke: #000000; stroke-width: 0.9; stroke-linecap: square"/>
   </g>
   <g id="line2d_87">
    <path d="M 246.369466 89.914226 
L 146.477392 63.32369 
" clip-path="url(#p591461560d)" style="fill: none; stroke: #000000; stroke-width: 0.9; stroke-linecap: square"/>
   </g>
   <g id="line2d_88">
    <path d="M 146.664506 81.764974 
L 146.477392 63.32369 
" clip-path="url(#p591461560d)" style="fill: none; stroke: #000000; stroke-width: 0.9; stroke-linecap: square"/>
   </g>
   <g id="line2d_89">
    <path d="M 146.664506 81.764974 
L 84.678618 110.937471 
" clip-path="url(#p591461560d)" style="fill: none; stroke: #000000; stroke-width: 0.9; stroke-linecap: square"/>
   </g>
   <g id="line2d_90">
    <path d="M 146.664506 81.764974 
L 85.492571 130.368262 
" clip-path="url(#p591461560d)" style="fill: none; stroke: #000000; stroke-width: 0.9; stroke-linecap: square"/>
   </g>
   <g id="line2d_91">
    <path d="M 146.477392 63.32369 
L 84.678618 110.937471 
" clip-path="url(#p591461560d)" style="fill: none; stroke: #000000; stroke-width: 0.9; stroke-linecap: square"/>
   </g>
   <g id="line2d_92">
    <path d="M 84.678618 110.937471 
L 83.848217 91.114045 
" clip-path="url(#p591461560d)" style="fill: none; stroke: #000000; stroke-width: 0.9; stroke-linecap: square"/>
   </g>
   <g id="line2d_93">
    <path d="M 84.678618 110.937471 
L 190.202507 121.601185 
" clip-path="url(#p591461560d)" style="fill: none; stroke: #000000; stroke-width: 0.9; stroke-linecap: square"/>
   </g>
   <g id="line2d_94">
    <path d="M 84.678618 110.937471 
L 189.957805 142.065081 
" clip-path="url(#p591461560d)" style="fill: none; stroke: #000000; stroke-width: 0.9; stroke-linecap: square"/>
   </g>
   <g id="line2d_95">
    <path d="M 83.848217 91.114045 
L 190.202507 121.601185 
" clip-path="url(#p591461560d)" style="fill: none; stroke: #000000; stroke-width: 0.9; stroke-linecap: square"/>
   </g>
   <g id="line2d_96">
    <path d="M 189.957805 142.065081 
L 190.202507 121.601185 
" clip-path="url(#p591461560d)" style="fill: none; stroke: #000000; stroke-width: 0.9; stroke-linecap: square"/>
   </g>
   <g id="line2d_97">
    <path d="M 189.957805 142.065081 
L 247.146168 70.540241 
" clip-path="url(#p591461560d)" style="fill: none; stroke: #000000; stroke-width: 0.9; stroke-linecap: square"/>
   </g>
   <g id="line2d_98">
    <path d="M 189.957805 142.065081 
L 246.369466 89.914226 
" clip-path="url(#p591461560d)" style="fill: none; stroke: #000000; stroke-width: 0.9; stroke-linecap: square"/>
   </g>
   <g id="line2d_99">
    <path d="M 190.202507 121.601185 
L 247.146168 70.540241 
" clip-path="url(#p591461560d)" style="fill: none; stroke: #000000; stroke-width: 0.9; stroke-linecap: square"/>
   </g>
   <g id="line2d_100">
    <path d="M 246.369466 89.914226 
L 247.146168 70.540241 
" clip-path="url(#p591461560d)" style="fill: none; stroke: #000000; stroke-width: 0.9; stroke-linecap: square"/>
   </g>
   <g id="line2d_101">
    <path d="M 246.369466 89.914226 
L 146.286779 44.537632 
" clip-path="url(#p591461560d)" style="fill: none; stroke: #000000; stroke-width: 0.9; stroke-linecap: square"/>
   </g>
   <g id="line2d_102">
    <path d="M 246.369466 89.914226 
L 146.477392 63.32369 
" clip-path="url(#p591461560d)" style="fill: none; stroke: #000000; stroke-width: 0.9; stroke-linecap: square"/>
   </g>
   <g id="line2d_103">
    <path d="M 247.146168 70.540241 
L 146.286779 44.537632 
" clip-path="url(#p591461560d)" style="fill: none; stroke: #000000; stroke-width: 0.9; stroke-linecap: square"/>
   </g>
   <g id="line2d_104">
    <path d="M 146.477392 63.32369 
L 146.286779 44.537632 
" clip-path="url(#p591461560d)" style="fill: none; stroke: #000000; stroke-width: 0.9; stroke-linecap: square"/>
   </g>
   <g id="line2d_105">
    <path d="M 146.477392 63.32369 
L 83.848217 91.114045 
" clip-path="url(#p591461560d)" style="fill: none; stroke: #000000; stroke-width: 0.9; stroke-linecap: square"/>
   </g>
   <g id="line2d_106">
    <path d="M 146.477392 63.32369 
L 84.678618 110.937471 
" clip-path="url(#p591461560d)" style="fill: none; stroke: #000000; stroke-width: 0.9; stroke-linecap: square"/>
   </g>
   <g id="line2d_107">
    <path d="M 146.286779 44.537632 
L 83.848217 91.114045 
" clip-path="url(#p591461560d)" style="fill: none; stroke: #000000; stroke-width: 0.9; stroke-linecap: square"/>
   </g>
   <g id="Path3DCollection_1">
    <defs>
     <path id="C0_0_e56c936e20" d="M 0 2.12132 
C 0.562581 2.12132 1.102195 1.897805 1.5 1.5 
C 1.897805 1.102195 2.12132 0.562581 2.12132 -0 
C 2.12132 -0.562581 1.897805 -1.102195 1.5 -1.5 
C 1.102195 -1.897805 0.562581 -2.12132 0 -2.12132 
C -0.562581 -2.12132 -1.102195 -1.897805 -1.5 -1.5 
C -1.897805 -1.102195 -2.12132 -0.562581 -2.12132 0 
C -2.12132 0.562581 -1.897805 1.102195 -1.5 1.5 
C -1.102195 1.897805 -0.562581 2.12132 0 2.12132 
z
"/>
    </defs>
    <g clip-path="url(#p591461560d)">
     <use xlink:href="#C0_0_e56c936e20" x="147.028619" y="117.6505" style="fill: #1f77b4; fill-opacity: 0.3; stroke: #1f77b4; stroke-opacity: 0.3; stroke-width: 0.8"/>
    </g>
    <g clip-path="url(#p591461560d)">
     <use xlink:href="#C0_0_e56c936e20" x="146.848218" y="99.870889" style="fill: #1f77b4; fill-opacity: 0.336139; stroke: #1f77b4; stroke-opacity: 0.336139; stroke-width: 0.8"/>
    </g>
    <g clip-path="url(#p591461560d)">
     <use xlink:href="#C0_0_e56c936e20" x="146.664506" y="81.764974" style="fill: #1f77b4; fill-opacity: 0.372941; stroke: #1f77b4; stroke-opacity: 0.372941; stroke-width: 0.8"/>
    </g>
    <g clip-path="url(#p591461560d)">
     <use xlink:href="#C0_0_e56c936e20" x="146.477392" y="63.32369" style="fill: #1f77b4; fill-opacity: 0.410425; stroke: #1f77b4; stroke-opacity: 0.410425; stroke-width: 0.8"/>
    </g>
    <g clip-path="url(#p591461560d)">
     <use xlink:href="#C0_0_e56c936e20" x="146.286779" y="44.537632" style="fill: #1f77b4; fill-opacity: 0.44861; stroke: #1f77b4; stroke-opacity: 0.44861; stroke-width: 0.8"/>
    </g>
    <g clip-path="url(#p591461560d)">
     <use xlink:href="#C0_0_e56c936e20" x="244.126995" y="145.850265" style="fill: #1f77b4; fill-opacity: 0.472598; stroke: #1f77b4; stroke-opacity: 0.472598; stroke-width: 0.8"/>
    </g>
    <g clip-path="url(#p591461560d)">
     <use xlink:href="#C0_0_e56c936e20" x="244.860296" y="127.558864" style="fill: #1f77b4; fill-opacity: 0.51196; stroke: #1f77b4; stroke-opacity: 0.51196; stroke-width: 0.8"/>
    </g>
    <g clip-path="url(#p591461560d)">
     <use xlink:href="#C0_0_e56c936e20" x="245.60765" y="108.916909" style="fill: #1f77b4; fill-opacity: 0.552075; stroke: #1f77b4; stroke-opacity: 0.552075; stroke-width: 0.8"/>
    </g>
    <g clip-path="url(#p591461560d)">
     <use xlink:href="#C0_0_e56c936e20" x="246.369466" y="89.914226" style="fill: #1f77b4; fill-opacity: 0.592967; stroke: #1f77b4; stroke-opacity: 0.592967; stroke-width: 0.8"/>
    </g>
    <g clip-path="url(#p591461560d)">
     <use xlink:href="#C0_0_e56c936e20" x="87.073052" y="168.097689" style="fill: #1f77b4; fill-opacity: 0.608764; stroke: #1f77b4; stroke-opacity: 0.608764; stroke-width: 0.8"/>
    </g>
    <g clip-path="url(#p591461560d)">
     <use xlink:href="#C0_0_e56c936e20" x="247.146168" y="70.540241" style="fill: #1f77b4; fill-opacity: 0.634659; stroke: #1f77b4; stroke-opacity: 0.634659; stroke-width: 0.8"/>
    </g>
    <g clip-path="url(#p591461560d)">
     <use xlink:href="#C0_0_e56c936e20" x="86.290561" y="149.417967" style="fill: #1f77b4; fill-opacity: 0.650766; stroke: #1f77b4; stroke-opacity: 0.650766; stroke-width: 0.8"/>
    </g>
    <g clip-path="url(#p591461560d)">
     <use xlink:href="#C0_0_e56c936e20" x="85.492571" y="130.368262" style="fill: #1f77b4; fill-opacity: 0.6936; stroke: #1f77b4; stroke-opacity: 0.6936; stroke-width: 0.8"/>
    </g>
    <g clip-path="url(#p591461560d)">
     <use xlink:href="#C0_0_e56c936e20" x="84.678618" y="110.937471" style="fill: #1f77b4; fill-opacity: 0.737291; stroke: #1f77b4; stroke-opacity: 0.737291; stroke-width: 0.8"/>
    </g>
    <g clip-path="url(#p591461560d)">
     <use xlink:href="#C0_0_e56c936e20" x="83.848217" y="91.114045" style="fill: #1f77b4; fill-opacity: 0.781864; stroke: #1f77b4; stroke-opacity: 0.781864; stroke-width: 0.8"/>
    </g>
    <g clip-path="url(#p591461560d)">
     <use xlink:href="#C0_0_e56c936e20" x="189.253554" y="200.960086" style="fill: #1f77b4; fill-opacity: 0.8099; stroke: #1f77b4; stroke-opacity: 0.8099; stroke-width: 0.8"/>
    </g>
    <g clip-path="url(#p591461560d)">
     <use xlink:href="#C0_0_e56c936e20" x="189.483482" y="181.731709" style="fill: #1f77b4; fill-opacity: 0.855961; stroke: #1f77b4; stroke-opacity: 0.855961; stroke-width: 0.8"/>
    </g>
    <g clip-path="url(#p591461560d)">
     <use xlink:href="#C0_0_e56c936e20" x="189.718182" y="162.104226" style="fill: #1f77b4; fill-opacity: 0.902977; stroke: #1f77b4; stroke-opacity: 0.902977; stroke-width: 0.8"/>
    </g>
    <g clip-path="url(#p591461560d)">
     <use xlink:href="#C0_0_e56c936e20" x="189.957805" y="142.065081" style="fill: #1f77b4; fill-opacity: 0.95098; stroke: #1f77b4; stroke-opacity: 0.95098; stroke-width: 0.8"/>
    </g>
    <g clip-path="url(#p591461560d)">
     <use xlink:href="#C0_0_e56c936e20" x="190.202507" y="121.601185" style="fill: #1f77b4; stroke: #1f77b4; stroke-width: 0.8"/>
    </g>
   </g>
   <g id="text_24">
    <!-- 72-bar four-storey spatial tower (Fleury \&amp; Schmit, 1980) -->
    <g transform="translate(3.6 11.958281) scale(0.11 -0.11)">
     <defs>
      <path id="DejaVuSerif-37" d="M 3609 4347 
L 1784 0 
L 1319 0 
L 3059 4153 
L 903 4153 
L 903 3578 
L 538 3578 
L 538 4666 
L 3609 4666 
L 3609 4347 
z
" transform="scale(0.015625)"/>
      <path id="DejaVuSerif-2d" d="M 281 1959 
L 1881 1959 
L 1881 1472 
L 281 1472 
L 281 1959 
z
" transform="scale(0.015625)"/>
      <path id="DejaVuSerif-62" d="M 738 331 
L 738 4531 
L 184 4531 
L 184 4863 
L 1313 4863 
L 1313 2803 
Q 1481 3116 1742 3264 
Q 2003 3413 2388 3413 
Q 3000 3413 3387 2928 
Q 3775 2444 3775 1663 
Q 3775 881 3387 395 
Q 3000 -91 2388 -91 
Q 2003 -91 1742 57 
Q 1481 206 1313 519 
L 1313 0 
L 184 0 
L 184 331 
L 738 331 
z
M 1313 1497 
Q 1313 897 1542 583 
Q 1772 269 2209 269 
Q 2650 269 2876 622 
Q 3103 975 3103 1663 
Q 3103 2353 2876 2703 
Q 2650 3053 2209 3053 
Q 1772 3053 1542 2737 
Q 1313 2422 1313 1825 
L 1313 1497 
z
" transform="scale(0.015625)"/>
      <path id="DejaVuSerif-61" d="M 2547 1044 
L 2547 1747 
L 1806 1747 
Q 1378 1747 1168 1562 
Q 959 1378 959 997 
Q 959 650 1171 447 
Q 1384 244 1747 244 
Q 2106 244 2326 466 
Q 2547 688 2547 1044 
z
M 3122 2075 
L 3122 331 
L 3634 331 
L 3634 0 
L 2547 0 
L 2547 359 
Q 2356 128 2106 18 
Q 1856 -91 1522 -91 
Q 969 -91 644 203 
Q 319 497 319 997 
Q 319 1513 691 1797 
Q 1063 2081 1741 2081 
L 2547 2081 
L 2547 2309 
Q 2547 2688 2317 2895 
Q 2088 3103 1672 3103 
Q 1328 3103 1125 2947 
Q 922 2791 872 2484 
L 575 2484 
L 575 3156 
Q 875 3284 1158 3348 
Q 1441 3413 1709 3413 
Q 2400 3413 2761 3070 
Q 3122 2728 3122 2075 
z
" transform="scale(0.015625)"/>
      <path id="DejaVuSerif-72" d="M 3059 3328 
L 3059 2497 
L 2728 2497 
Q 2713 2744 2591 2866 
Q 2469 2988 2234 2988 
Q 1809 2988 1582 2694 
Q 1356 2400 1356 1850 
L 1356 331 
L 2022 331 
L 2022 0 
L 263 0 
L 263 331 
L 781 331 
L 781 2994 
L 231 2994 
L 231 3322 
L 1356 3322 
L 1356 2731 
Q 1525 3078 1790 3245 
Q 2056 3413 2438 3413 
Q 2578 3413 2733 3391 
Q 2888 3369 3059 3328 
z
" transform="scale(0.015625)"/>
      <path id="DejaVuSerif-66" d="M 2753 4078 
L 2450 4078 
Q 2447 4313 2317 4434 
Q 2188 4556 1941 4556 
Q 1619 4556 1487 4379 
Q 1356 4203 1356 3750 
L 1356 3322 
L 2284 3322 
L 2284 2988 
L 1356 2988 
L 1356 331 
L 2094 331 
L 2094 0 
L 231 0 
L 231 331 
L 781 331 
L 781 2988 
L 231 2988 
L 231 3322 
L 781 3322 
L 781 3738 
Q 781 4294 1070 4578 
Q 1359 4863 1919 4863 
Q 2128 4863 2337 4825 
Q 2547 4788 2753 4709 
L 2753 4078 
z
" transform="scale(0.015625)"/>
      <path id="DejaVuSerif-6f" d="M 1925 219 
Q 2388 219 2623 584 
Q 2859 950 2859 1663 
Q 2859 2375 2623 2739 
Q 2388 3103 1925 3103 
Q 1463 3103 1227 2739 
Q 991 2375 991 1663 
Q 991 950 1228 584 
Q 1466 219 1925 219 
z
M 1925 -91 
Q 1200 -91 759 389 
Q 319 869 319 1663 
Q 319 2456 758 2934 
Q 1197 3413 1925 3413 
Q 2653 3413 3092 2934 
Q 3531 2456 3531 1663 
Q 3531 869 3092 389 
Q 2653 -91 1925 -91 
z
" transform="scale(0.015625)"/>
      <path id="DejaVuSerif-75" d="M 2266 3322 
L 3341 3322 
L 3341 331 
L 3884 331 
L 3884 0 
L 2766 0 
L 2766 588 
Q 2606 256 2353 82 
Q 2100 -91 1766 -91 
Q 1213 -91 952 223 
Q 691 538 691 1209 
L 691 2988 
L 172 2988 
L 172 3322 
L 1269 3322 
L 1269 1388 
Q 1269 781 1417 556 
Q 1566 331 1947 331 
Q 2347 331 2556 625 
Q 2766 919 2766 1478 
L 2766 2988 
L 2266 2988 
L 2266 3322 
z
" transform="scale(0.015625)"/>
      <path id="DejaVuSerif-73" d="M 359 184 
L 359 959 
L 691 959 
Q 703 588 923 403 
Q 1144 219 1575 219 
Q 1963 219 2166 364 
Q 2369 509 2369 788 
Q 2369 1006 2220 1140 
Q 2072 1275 1594 1428 
L 1178 1569 
Q 750 1706 558 1912 
Q 366 2119 366 2438 
Q 366 2894 700 3153 
Q 1034 3413 1625 3413 
Q 1888 3413 2178 3344 
Q 2469 3275 2778 3144 
L 2778 2419 
L 2447 2419 
Q 2434 2741 2221 2922 
Q 2009 3103 1644 3103 
Q 1281 3103 1095 2975 
Q 909 2847 909 2591 
Q 909 2381 1050 2254 
Q 1191 2128 1613 1997 
L 2069 1856 
Q 2541 1709 2748 1489 
Q 2956 1269 2956 922 
Q 2956 450 2595 179 
Q 2234 -91 1600 -91 
Q 1278 -91 972 -22 
Q 666 47 359 184 
z
" transform="scale(0.015625)"/>
      <path id="DejaVuSerif-74" d="M 691 2988 
L 184 2988 
L 184 3322 
L 691 3322 
L 691 4353 
L 1269 4353 
L 1269 3322 
L 2350 3322 
L 2350 2988 
L 1269 2988 
L 1269 878 
Q 1269 456 1350 337 
Q 1431 219 1650 219 
Q 1875 219 1978 351 
Q 2081 484 2088 781 
L 2522 781 
Q 2497 328 2275 118 
Q 2053 -91 1600 -91 
Q 1103 -91 897 129 
Q 691 350 691 878 
L 691 2988 
z
" transform="scale(0.015625)"/>
      <path id="DejaVuSerif-65" d="M 3469 1600 
L 991 1600 
L 991 1575 
Q 991 903 1244 561 
Q 1497 219 1991 219 
Q 2369 219 2611 417 
Q 2853 616 2950 1006 
L 3413 1006 
Q 3275 459 2904 184 
Q 2534 -91 1931 -91 
Q 1203 -91 761 389 
Q 319 869 319 1663 
Q 319 2450 753 2931 
Q 1188 3413 1894 3413 
Q 2647 3413 3050 2948 
Q 3453 2484 3469 1600 
z
M 2791 1931 
Q 2772 2513 2545 2808 
Q 2319 3103 1894 3103 
Q 1497 3103 1269 2806 
Q 1041 2509 991 1931 
L 2791 1931 
z
" transform="scale(0.015625)"/>
      <path id="DejaVuSerif-70" d="M 1313 1825 
L 1313 1497 
Q 1313 897 1542 583 
Q 1772 269 2209 269 
Q 2650 269 2876 622 
Q 3103 975 3103 1663 
Q 3103 2353 2876 2703 
Q 2650 3053 2209 3053 
Q 1772 3053 1542 2737 
Q 1313 2422 1313 1825 
z
M 738 2988 
L 184 2988 
L 184 3322 
L 1313 3322 
L 1313 2803 
Q 1481 3116 1742 3264 
Q 2003 3413 2388 3413 
Q 3000 3413 3387 2928 
Q 3775 2444 3775 1663 
Q 3775 881 3387 395 
Q 3000 -91 2388 -91 
Q 2003 -91 1742 57 
Q 1481 206 1313 519 
L 1313 -997 
L 1856 -997 
L 1856 -1331 
L 184 -1331 
L 184 -997 
L 738 -997 
L 738 2988 
z
" transform="scale(0.015625)"/>
      <path id="DejaVuSerif-6c" d="M 1313 331 
L 1856 331 
L 1856 0 
L 184 0 
L 184 331 
L 738 331 
L 738 4531 
L 184 4531 
L 184 4863 
L 1313 4863 
L 1313 331 
z
" transform="scale(0.015625)"/>
      <path id="DejaVuSerif-77" d="M 3072 3322 
L 3922 728 
L 4672 2988 
L 4191 2988 
L 4191 3322 
L 5394 3322 
L 5394 2988 
L 5025 2988 
L 4038 0 
L 3559 0 
L 2741 2484 
L 1919 0 
L 1459 0 
L 475 2988 
L 103 2988 
L 103 3322 
L 1606 3322 
L 1606 2988 
L 1069 2988 
L 1813 728 
L 2669 3322 
L 3072 3322 
z
" transform="scale(0.015625)"/>
      <path id="DejaVuSerif-46" d="M 353 0 
L 353 331 
L 947 331 
L 947 4331 
L 353 4331 
L 353 4666 
L 4172 4666 
L 4172 3628 
L 3788 3628 
L 3788 4281 
L 1581 4281 
L 1581 2719 
L 3175 2719 
L 3175 3303 
L 3559 3303 
L 3559 1753 
L 3175 1753 
L 3175 2338 
L 1581 2338 
L 1581 331 
L 2328 331 
L 2328 0 
L 353 0 
z
" transform="scale(0.015625)"/>
      <path id="DejaVuSerif-5c" d="M 500 4666 
L 2156 -594 
L 1656 -594 
L 0 4666 
L 500 4666 
z
" transform="scale(0.015625)"/>
      <path id="DejaVuSerif-26" d="M 3456 722 
L 1638 2638 
Q 1366 2394 1230 2111 
Q 1094 1828 1094 1509 
Q 1094 991 1453 639 
Q 1813 288 2350 288 
Q 2669 288 2951 398 
Q 3234 509 3456 722 
z
M 5394 0 
L 4141 0 
L 3713 453 
Q 3384 178 3012 43 
Q 2641 -91 2209 -91 
Q 1403 -91 931 321 
Q 459 734 459 1441 
Q 459 1856 698 2217 
Q 938 2578 1422 2894 
Q 1263 3084 1188 3273 
Q 1113 3463 1113 3669 
Q 1113 4166 1470 4458 
Q 1828 4750 2444 4750 
Q 2653 4750 2933 4697 
Q 3213 4644 3572 4538 
L 3572 3731 
L 3219 3731 
Q 3175 4066 2975 4241 
Q 2775 4416 2431 4416 
Q 2109 4416 1909 4239 
Q 1709 4063 1709 3781 
Q 1709 3591 1815 3402 
Q 1922 3213 2259 2859 
L 3872 1159 
Q 4088 1409 4211 1698 
Q 4334 1988 4366 2316 
L 3803 2316 
L 3803 2650 
L 5281 2650 
L 5281 2316 
L 4744 2316 
Q 4691 1909 4536 1556 
Q 4381 1203 4122 903 
L 4659 331 
L 5394 331 
L 5394 0 
z
" transform="scale(0.015625)"/>
      <path id="DejaVuSerif-53" d="M 594 225 
L 594 1288 
L 953 1284 
Q 969 753 1261 498 
Q 1553 244 2150 244 
Q 2706 244 2998 464 
Q 3291 684 3291 1106 
Q 3291 1444 3114 1625 
Q 2938 1806 2369 1978 
L 1753 2163 
Q 1084 2366 811 2669 
Q 538 2972 538 3500 
Q 538 4094 959 4422 
Q 1381 4750 2144 4750 
Q 2469 4750 2856 4679 
Q 3244 4609 3681 4475 
L 3681 3481 
L 3328 3481 
Q 3275 3975 2998 4195 
Q 2722 4416 2156 4416 
Q 1663 4416 1405 4214 
Q 1147 4013 1147 3628 
Q 1147 3294 1340 3103 
Q 1534 2913 2163 2725 
L 2741 2553 
Q 3375 2363 3645 2067 
Q 3916 1772 3916 1275 
Q 3916 597 3481 253 
Q 3047 -91 2188 -91 
Q 1803 -91 1404 -12 
Q 1006 66 594 225 
z
" transform="scale(0.015625)"/>
      <path id="DejaVuSerif-63" d="M 3291 997 
Q 3169 466 2822 187 
Q 2475 -91 1925 -91 
Q 1200 -91 759 389 
Q 319 869 319 1663 
Q 319 2459 759 2936 
Q 1200 3413 1925 3413 
Q 2241 3413 2553 3339 
Q 2866 3266 3181 3116 
L 3181 2266 
L 2847 2266 
Q 2781 2703 2561 2903 
Q 2341 3103 1931 3103 
Q 1466 3103 1228 2742 
Q 991 2381 991 1663 
Q 991 944 1227 581 
Q 1463 219 1931 219 
Q 2303 219 2525 412 
Q 2747 606 2828 997 
L 3291 997 
z
" transform="scale(0.015625)"/>
      <path id="DejaVuSerif-68" d="M 263 0 
L 263 331 
L 781 331 
L 781 4531 
L 231 4531 
L 231 4863 
L 1356 4863 
L 1356 2731 
Q 1516 3069 1770 3241 
Q 2025 3413 2363 3413 
Q 2913 3413 3172 3097 
Q 3431 2781 3431 2113 
L 3431 331 
L 3944 331 
L 3944 0 
L 2356 0 
L 2356 331 
L 2853 331 
L 2853 1931 
Q 2853 2541 2704 2764 
Q 2556 2988 2175 2988 
Q 1775 2988 1565 2697 
Q 1356 2406 1356 1850 
L 1356 331 
L 1856 331 
L 1856 0 
L 263 0 
z
" transform="scale(0.015625)"/>
      <path id="DejaVuSerif-6d" d="M 3316 2675 
Q 3481 3041 3739 3227 
Q 3997 3413 4341 3413 
Q 4863 3413 5119 3089 
Q 5375 2766 5375 2113 
L 5375 331 
L 5894 331 
L 5894 0 
L 4300 0 
L 4300 331 
L 4800 331 
L 4800 2047 
Q 4800 2556 4650 2772 
Q 4500 2988 4153 2988 
Q 3769 2988 3567 2697 
Q 3366 2406 3366 1850 
L 3366 331 
L 3866 331 
L 3866 0 
L 2291 0 
L 2291 331 
L 2791 331 
L 2791 2069 
Q 2791 2566 2641 2777 
Q 2491 2988 2144 2988 
Q 1759 2988 1557 2697 
Q 1356 2406 1356 1850 
L 1356 331 
L 1856 331 
L 1856 0 
L 263 0 
L 263 331 
L 781 331 
L 781 2994 
L 231 2994 
L 231 3322 
L 1356 3322 
L 1356 2731 
Q 1516 3063 1762 3238 
Q 2009 3413 2322 3413 
Q 2709 3413 2968 3220 
Q 3228 3028 3316 2675 
z
" transform="scale(0.015625)"/>
      <path id="DejaVuSerif-2c" d="M 231 -622 
Q 525 -406 662 -114 
Q 800 178 800 594 
L 800 709 
L 1416 709 
Q 1391 175 1164 -208 
Q 938 -591 481 -872 
L 231 -622 
z
" transform="scale(0.015625)"/>
      <path id="DejaVuSerif-39" d="M 2994 2091 
Q 2784 1856 2512 1740 
Q 2241 1625 1900 1625 
Q 1206 1625 804 2044 
Q 403 2463 403 3188 
Q 403 3897 839 4323 
Q 1275 4750 2003 4750 
Q 2794 4750 3217 4161 
Q 3641 3572 3641 2478 
Q 3641 1253 3137 581 
Q 2634 -91 1722 -91 
Q 1475 -91 1203 -44 
Q 931 3 647 97 
L 647 872 
L 997 872 
Q 1038 556 1241 387 
Q 1444 219 1784 219 
Q 2391 219 2687 676 
Q 2984 1134 2994 2091 
z
M 1978 4441 
Q 1534 4441 1298 4117 
Q 1063 3794 1063 3188 
Q 1063 2581 1298 2256 
Q 1534 1931 1978 1931 
Q 2422 1931 2658 2245 
Q 2894 2559 2894 3150 
Q 2894 3772 2656 4106 
Q 2419 4441 1978 4441 
z
" transform="scale(0.015625)"/>
      <path id="DejaVuSerif-38" d="M 2981 1275 
Q 2981 1775 2732 2051 
Q 2484 2328 2034 2328 
Q 1584 2328 1336 2051 
Q 1088 1775 1088 1275 
Q 1088 772 1336 495 
Q 1584 219 2034 219 
Q 2484 219 2732 495 
Q 2981 772 2981 1275 
z
M 2853 3541 
Q 2853 3966 2637 4203 
Q 2422 4441 2034 4441 
Q 1650 4441 1433 4203 
Q 1216 3966 1216 3541 
Q 1216 3113 1433 2875 
Q 1650 2638 2034 2638 
Q 2422 2638 2637 2875 
Q 2853 3113 2853 3541 
z
M 2516 2484 
Q 3047 2413 3344 2092 
Q 3641 1772 3641 1275 
Q 3641 619 3225 264 
Q 2809 -91 2034 -91 
Q 1263 -91 845 264 
Q 428 619 428 1275 
Q 428 1772 725 2092 
Q 1022 2413 1556 2484 
Q 1084 2569 832 2842 
Q 581 3116 581 3541 
Q 581 4103 968 4426 
Q 1356 4750 2034 4750 
Q 2713 4750 3100 4426 
Q 3488 4103 3488 3541 
Q 3488 3116 3236 2842 
Q 2984 2569 2516 2484 
z
" transform="scale(0.015625)"/>
     </defs>
     <use xlink:href="#DejaVuSerif-37"/>
     <use xlink:href="#DejaVuSerif-32" transform="translate(63.623047 0)"/>
     <use xlink:href="#DejaVuSerif-2d" transform="translate(127.246094 0)"/>
     <use xlink:href="#DejaVuSerif-62" transform="translate(161.035156 0)"/>
     <use xlink:href="#DejaVuSerif-61" transform="translate(225.048828 0)"/>
     <use xlink:href="#DejaVuSerif-72" transform="translate(284.667969 0)"/>
     <use xlink:href="#DejaVuSerif-20" transform="translate(332.470703 0)"/>
     <use xlink:href="#DejaVuSerif-66" transform="translate(364.257812 0)"/>
     <use xlink:href="#DejaVuSerif-6f" transform="translate(401.269531 0)"/>
     <use xlink:href="#DejaVuSerif-75" transform="translate(461.474609 0)"/>
     <use xlink:href="#DejaVuSerif-72" transform="translate(525.878906 0)"/>
     <use xlink:href="#DejaVuSerif-2d" transform="translate(573.681641 0)"/>
     <use xlink:href="#DejaVuSerif-73" transform="translate(607.470703 0)"/>
     <use xlink:href="#DejaVuSerif-74" transform="translate(658.789062 0)"/>
     <use xlink:href="#DejaVuSerif-6f" transform="translate(698.974609 0)"/>
     <use xlink:href="#DejaVuSerif-72" transform="translate(759.179688 0)"/>
     <use xlink:href="#DejaVuSerif-65" transform="translate(806.982422 0)"/>
     <use xlink:href="#DejaVuSerif-79" transform="translate(866.162109 0)"/>
     <use xlink:href="#DejaVuSerif-20" transform="translate(922.65625 0)"/>
     <use xlink:href="#DejaVuSerif-73" transform="translate(954.443359 0)"/>
     <use xlink:href="#DejaVuSerif-70" transform="translate(1005.761719 0)"/>
     <use xlink:href="#DejaVuSerif-61" transform="translate(1069.775391 0)"/>
     <use xlink:href="#DejaVuSerif-74" transform="translate(1129.394531 0)"/>
     <use xlink:href="#DejaVuSerif-69" transform="translate(1169.580078 0)"/>
     <use xlink:href="#DejaVuSerif-61" transform="translate(1201.5625 0)"/>
     <use xlink:href="#DejaVuSerif-6c" transform="translate(1261.181641 0)"/>
     <use xlink:href="#DejaVuSerif-20" transform="translate(1293.164062 0)"/>
     <use xlink:href="#DejaVuSerif-74" transform="translate(1324.951172 0)"/>
     <use xlink:href="#DejaVuSerif-6f" transform="translate(1365.136719 0)"/>
     <use xlink:href="#DejaVuSerif-77" transform="translate(1425.341797 0)"/>
     <use xlink:href="#DejaVuSerif-65" transform="translate(1510.9375 0)"/>
     <use xlink:href="#DejaVuSerif-72" transform="translate(1570.117188 0)"/>
     <use xlink:href="#DejaVuSerif-20" transform="translate(1617.919922 0)"/>
     <use xlink:href="#DejaVuSerif-28" transform="translate(1649.707031 0)"/>
     <use xlink:href="#DejaVuSerif-46" transform="translate(1688.720703 0)"/>
     <use xlink:href="#DejaVuSerif-6c" transform="translate(1758.105469 0)"/>
     <use xlink:href="#DejaVuSerif-65" transform="translate(1790.087891 0)"/>
     <use xlink:href="#DejaVuSerif-75" transform="translate(1849.267578 0)"/>
     <use xlink:href="#DejaVuSerif-72" transform="translate(1913.671875 0)"/>
     <use xlink:href="#DejaVuSerif-79" transform="translate(1961.474609 0)"/>
     <use xlink:href="#DejaVuSerif-20" transform="translate(2017.96875 0)"/>
     <use xlink:href="#DejaVuSerif-5c" transform="translate(2049.755859 0)"/>
     <use xlink:href="#DejaVuSerif-26" transform="translate(2083.447266 0)"/>
     <use xlink:href="#DejaVuSerif-20" transform="translate(2172.460938 0)"/>
     <use xlink:href="#DejaVuSerif-53" transform="translate(2204.248047 0)"/>
     <use xlink:href="#DejaVuSerif-63" transform="translate(2272.753906 0)"/>
     <use xlink:href="#DejaVuSerif-68" transform="translate(2328.759766 0)"/>
     <use xlink:href="#DejaVuSerif-6d" transform="translate(2393.164062 0)"/>
     <use xlink:href="#DejaVuSerif-69" transform="translate(2487.988281 0)"/>
     <use xlink:href="#DejaVuSerif-74" transform="translate(2519.970703 0)"/>
     <use xlink:href="#DejaVuSerif-2c" transform="translate(2560.15625 0)"/>
     <use xlink:href="#DejaVuSerif-20" transform="translate(2591.943359 0)"/>
     <use xlink:href="#DejaVuSerif-31" transform="translate(2623.730469 0)"/>
     <use xlink:href="#DejaVuSerif-39" transform="translate(2687.353516 0)"/>
     <use xlink:href="#DejaVuSerif-38" transform="translate(2750.976562 0)"/>
     <use xlink:href="#DejaVuSerif-30" transform="translate(2814.599609 0)"/>
     <use xlink:href="#DejaVuSerif-29" transform="translate(2878.222656 0)"/>
    </g>
   </g>
  </g>
 </g>
 <defs>
  <clipPath id="p591461560d">
   <rect x="59.721406" y="17.958281" width="208.654687" height="208.654687"/>
  </clipPath>
 </defs>
</svg>
