<?xml version="1.0" encoding="utf-8" standalone="no"?>
<!DOCTYPE svg PUBLIC "-//W3C//DTD SVG 1.1//EN"
  "http://www.w3.org/Graphics/SVG/1.1/DTD/svg11.dtd">
<svg xmlns:xlink="http://www.w3.org/1999/xlink" width="309.6pt" height="215.958281pt" viewBox="0 0 309.6 215.958281" xmlns="http://www.w3.org/2000/svg" version="1.1">
 <metadata>
  <rdf:RDF xmlns:dc="http://purl.org/dc/elements/1.1/" xmlns:cc="http://creativecommons.org/ns#" xmlns:rdf="http://www.w3.org/1999/02/22-rdf-syntax-ns#">
   <cc:Work>
    <dc:type rdf:resource="http://purl.org/dc/dcmitype/StillImage"/>
    <dc:date>2026-04-24T15:22:18.952035</dc:date>
    <dc:format>image/svg+xml</dc:format>
    <dc:creator>
     <cc:Agent>
      <dc:title>Matplotlib v3.10.8, https://matplotlib.org/</dc:title>
     </cc:Agent>
    </dc:creator>
   </cc:Work>
  </rdf:RDF>
 </metadata>
 <defs>
  <style type="text/css">*{stroke-linejoin: round; stroke-linecap: butt}</style>
 </defs>
 <g id="figure_1">
  <g id="patch_1">
   <path d="M 0 215.958281 
L 309.6 215.958281 
L 309.6 0 
L 0 0 
z
" style="fill: #ffffff"/>
  </g>
  <g id="axes_1">
   <g id="patch_2">
    <path d="M 94.32 47.507081 
L 215.28 47.507081 
Q 215.8848 47.507081 215.8848 47.118281 
L 215.8848 29.622281 
Q 215.8848 29.233481 215.28 29.233481 
L 94.32 29.233481 
Q 93.7152 29.233481 93.7152 29.622281 
L 93.7152 47.118281 
Q 93.7152 47.507081 94.32 47.507081 
z
" clip-path="url(#pb2cef03f04)" style="fill: #cfe3f5; stroke: #1f4b73; stroke-width: 1.2; stroke-linejoin: miter"/>
   </g>
   <g id="patch_3">
    <path d="M 94.32 76.667081 
L 215.28 76.667081 
Q 215.8848 76.667081 215.8848 76.278281 
L 215.8848 58.782281 
Q 215.8848 58.393481 215.28 58.393481 
L 94.32 58.393481 
Q 93.7152 58.393481 93.7152 58.782281 
L 93.7152 76.278281 
Q 93.7152 76.667081 94.32 76.667081 
z
" clip-path="url(#pb2cef03f04)" style="fill: #cfe3f5; stroke: #1f4b73; stroke-width: 1.2; stroke-linejoin: miter"/>
   </g>
   <g id="patch_4">
    <path d="M 94.32 105.827081 
L 215.28 105.827081 
Q 215.8848 105.827081 215.8848 105.438281 
L 215.8848 87.942281 
Q 215.8848 87.553481 215.28 87.553481 
L 94.32 87.553481 
Q 93.7152 87.553481 93.7152 87.942281 
L 93.7152 105.438281 
Q 93.7152 105.827081 94.32 105.827081 
z
" clip-path="url(#pb2cef03f04)" style="fill: #cfe3f5; stroke: #1f4b73; stroke-width: 1.2; stroke-linejoin: miter"/>
   </g>
   <g id="patch_5">
    <path d="M 94.32 134.987081 
L 215.28 134.987081 
Q 215.8848 134.987081 215.8848 134.598281 
L 215.8848 117.102281 
Q 215.8848 116.713481 215.28 116.713481 
L 94.32 116.713481 
Q 93.7152 116.713481 93.7152 117.102281 
L 93.7152 134.598281 
Q 93.7152 134.987081 94.32 134.987081 
z
" clip-path="url(#pb2cef03f04)" style="fill: #cfe3f5; stroke: #1f4b73; stroke-width: 1.2; stroke-linejoin: miter"/>
   </g>
   <g id="patch_6">
    <path d="M 94.32 164.147081 
L 215.28 164.147081 
Q 215.8848 164.147081 215.8848 163.758281 
L 215.8848 146.262281 
Q 215.8848 145.873481 215.28 145.873481 
L 94.32 145.873481 
Q 93.7152 145.873481 93.7152 146.262281 
L 93.7152 163.758281 
Q 93.7152 164.147081 94.32 164.147081 
z
" clip-path="url(#pb2cef03f04)" style="fill: #cfe3f5; stroke: #1f4b73; stroke-width: 1.2; stroke-linejoin: miter"/>
   </g>
   <g id="patch_7">
    <path d="M 94.32 193.307081 
L 215.28 193.307081 
Q 215.8848 193.307081 215.8848 192.918281 
L 215.8848 175.422281 
Q 215.8848 175.033481 215.28 175.033481 
L 94.32 175.033481 
Q 93.7152 175.033481 93.7152 175.422281 
L 93.7152 192.918281 
Q 93.7152 193.307081 94.32 193.307081 
z
" clip-path="url(#pb2cef03f04)" style="fill: #f5e3cf; stroke: #1f4b73; stroke-width: 1.2; stroke-linejoin: miter"/>
   </g>
   <g id="patch_8">
    <path d="M 154.8 49.120184 
Q 154.8 52.953413 154.8 55.445002 
" clip-path="url(#pb2cef03f04)" style="fill: none; stroke: #333333; stroke-width: 1.2; stroke-linecap: round"/>
    <path d="M 157.2 50.645002 
L 154.8 55.445002 
L 152.4 50.645002 
z
" clip-path="url(#pb2cef03f04)" style="fill: #333333; stroke: #333333; stroke-width: 1.2; stroke-linecap: round"/>
   </g>
   <g id="patch_9">
    <path d="M 154.8 78.280184 
Q 154.8 82.113413 154.8 84.605002 
" clip-path="url(#pb2cef03f04)" style="fill: none; stroke: #333333; stroke-width: 1.2; stroke-linecap: round"/>
    <path d="M 157.2 79.805002 
L 154.8 84.605002 
L 152.4 79.805002 
z
" clip-path="url(#pb2cef03f04)" style="fill: #333333; stroke: #333333; stroke-width: 1.2; stroke-linecap: round"/>
   </g>
   <g id="patch_10">
    <path d="M 154.8 107.440184 
Q 154.8 111.273413 154.8 113.765002 
" clip-path="url(#pb2cef03f04)" style="fill: none; stroke: #333333; stroke-width: 1.2; stroke-linecap: round"/>
    <path d="M 157.2 108.965002 
L 154.8 113.765002 
L 152.4 108.965002 
z
" clip-path="url(#pb2cef03f04)" style="fill: #333333; stroke: #333333; stroke-width: 1.2; stroke-linecap: round"/>
   </g>
   <g id="patch_11">
    <path d="M 154.8 136.600184 
Q 154.8 140.433413 154.8 142.925002 
" clip-path="url(#pb2cef03f04)" style="fill: none; stroke: #333333; stroke-width: 1.2; stroke-linecap: round"/>
    <path d="M 157.2 138.125002 
L 154.8 142.925002 
L 152.4 138.125002 
z
" clip-path="url(#pb2cef03f04)" style="fill: #333333; stroke: #333333; stroke-width: 1.2; stroke-linecap: round"/>
   </g>
   <g id="patch_12">
    <path d="M 154.8 165.760184 
Q 154.8 169.593413 154.8 172.085002 
" clip-path="url(#pb2cef03f04)" style="fill: none; stroke: #333333; stroke-width: 1.2; stroke-linecap: round"/>
    <path d="M 157.2 167.285002 
L 154.8 172.085002 
L 152.4 167.285002 
z
" clip-path="url(#pb2cef03f04)" style="fill: #333333; stroke: #333333; stroke-width: 1.2; stroke-linecap: round"/>
   </g>
   <g id="patch_13">
    <path d="M 220.305665 185.142281 
Q 240.985823 185.142281 260.32434 185.142281 
" clip-path="url(#pb2cef03f04)" style="fill: none; stroke: #333333; stroke-width: 1.2; stroke-linecap: round"/>
    <path d="M 255.52434 182.742281 
L 260.32434 185.142281 
L 255.52434 187.542281 
z
" clip-path="url(#pb2cef03f04)" style="fill: #333333; stroke: #333333; stroke-width: 1.2; stroke-linecap: round"/>
   </g>
   <g id="patch_14">
    <path d="M 263.664 183.145362 
Q 263.664 126.82268 263.664 71.841639 
" clip-path="url(#pb2cef03f04)" style="fill: none; stroke: #1f77b4; stroke-width: 1.2; stroke-linecap: round"/>
    <path d="M 261.264 76.641639 
L 263.664 71.841639 
L 266.064 76.641639 
z
" clip-path="url(#pb2cef03f04)" style="fill: #1f77b4; stroke: #1f77b4; stroke-width: 1.2; stroke-linecap: round"/>
   </g>
   <g id="patch_15">
    <path d="M 261.662335 68.502281 
Q 240.982177 68.502281 221.64366 68.502281 
" clip-path="url(#pb2cef03f04)" style="fill: none; stroke: #1f77b4; stroke-width: 1.2; stroke-linecap: round"/>
    <path d="M 226.44366 70.902281 
L 221.64366 68.502281 
L 226.44366 66.102281 
z
" clip-path="url(#pb2cef03f04)" style="fill: #1f77b4; stroke: #1f77b4; stroke-width: 1.2; stroke-linecap: round"/>
   </g>
   <g id="text_1">
    <!-- Initialise population -->
    <g transform="translate(109.126406 35.814703) scale(0.09 -0.09)">
     <defs>
      <path id="DejaVuSerif-49" d="M 1581 331 
L 2175 331 
L 2175 0 
L 353 0 
L 353 331 
L 947 331 
L 947 4331 
L 353 4331 
L 353 4666 
L 2175 4666 
L 2175 4331 
L 1581 4331 
L 1581 331 
z
" transform="scale(0.015625)"/>
      <path id="DejaVuSerif-6e" d="M 263 0 
L 263 331 
L 781 331 
L 781 2988 
L 231 2988 
L 231 3322 
L 1356 3322 
L 1356 2731 
Q 1516 3069 1770 3241 
Q 2025 3413 2363 3413 
Q 2913 3413 3172 3097 
Q 3431 2781 3431 2113 
L 3431 331 
L 3944 331 
L 3944 0 
L 2356 0 
L 2356 331 
L 2853 331 
L 2853 1931 
Q 2853 2541 2703 2767 
Q 2553 2994 2175 2994 
Q 1775 2994 1565 2701 
Q 1356 2409 1356 1850 
L 1356 331 
L 1856 331 
L 1856 0 
L 263 0 
z
" transform="scale(0.015625)"/>
      <path id="DejaVuSerif-69" d="M 622 4353 
Q 622 4497 726 4603 
Q 831 4709 978 4709 
Q 1122 4709 1226 4603 
Q 1331 4497 1331 4353 
Q 1331 4206 1228 4103 
Q 1125 4000 978 4000 
Q 831 4000 726 4103 
Q 622 4206 622 4353 
z
M 1356 331 
L 1900 331 
L 1900 0 
L 231 0 
L 231 331 
L 781 331 
L 781 2988 
L 231 2988 
L 231 3322 
L 1356 3322 
L 1356 331 
z
" transform="scale(0.015625)"/>
      <path id="DejaVuSerif-74" d="M 691 2988 
L 184 2988 
L 184 3322 
L 691 3322 
L 691 4353 
L 1269 4353 
L 1269 3322 
L 2350 3322 
L 2350 2988 
L 1269 2988 
L 1269 878 
Q 1269 456 1350 337 
Q 1431 219 1650 219 
Q 1875 219 1978 351 
Q 2081 484 2088 781 
L 2522 781 
Q 2497 328 2275 118 
Q 2053 -91 1600 -91 
Q 1103 -91 897 129 
Q 691 350 691 878 
L 691 2988 
z
" transform="scale(0.015625)"/>
      <path id="DejaVuSerif-61" d="M 2547 1044 
L 2547 1747 
L 1806 1747 
Q 1378 1747 1168 1562 
Q 959 1378 959 997 
Q 959 650 1171 447 
Q 1384 244 1747 244 
Q 2106 244 2326 466 
Q 2547 688 2547 1044 
z
M 3122 2075 
L 3122 331 
L 3634 331 
L 3634 0 
L 2547 0 
L 2547 359 
Q 2356 128 2106 18 
Q 1856 -91 1522 -91 
Q 969 -91 644 203 
Q 319 497 319 997 
Q 319 1513 691 1797 
Q 1063 2081 1741 2081 
L 2547 2081 
L 2547 2309 
Q 2547 2688 2317 2895 
Q 2088 3103 1672 3103 
Q 1328 3103 1125 2947 
Q 922 2791 872 2484 
L 575 2484 
L 575 3156 
Q 875 3284 1158 3348 
Q 1441 3413 1709 3413 
Q 2400 3413 2761 3070 
Q 3122 2728 3122 2075 
z
" transform="scale(0.015625)"/>
      <path id="DejaVuSerif-6c" d="M 1313 331 
L 1856 331 
L 1856 0 
L 184 0 
L 184 331 
L 738 331 
L 738 4531 
L 184 4531 
L 184 4863 
L 1313 4863 
L 1313 331 
z
" transform="scale(0.015625)"/>
      <path id="DejaVuSerif-73" d="M 359 184 
L 359 959 
L 691 959 
Q 703 588 923 403 
Q 1144 219 1575 219 
Q 1963 219 2166 364 
Q 2369 509 2369 788 
Q 2369 1006 2220 1140 
Q 2072 1275 1594 1428 
L 1178 1569 
Q 750 1706 558 1912 
Q 366 2119 366 2438 
Q 366 2894 700 3153 
Q 1034 3413 1625 3413 
Q 1888 3413 2178 3344 
Q 2469 3275 2778 3144 
L 2778 2419 
L 2447 2419 
Q 2434 2741 2221 2922 
Q 2009 3103 1644 3103 
Q 1281 3103 1095 2975 
Q 909 2847 909 2591 
Q 909 2381 1050 2254 
Q 1191 2128 1613 1997 
L 2069 1856 
Q 2541 1709 2748 1489 
Q 2956 1269 2956 922 
Q 2956 450 2595 179 
Q 2234 -91 1600 -91 
Q 1278 -91 972 -22 
Q 666 47 359 184 
z
" transform="scale(0.015625)"/>
      <path id="DejaVuSerif-65" d="M 3469 1600 
L 991 1600 
L 991 1575 
Q 991 903 1244 561 
Q 1497 219 1991 219 
Q 2369 219 2611 417 
Q 2853 616 2950 1006 
L 3413 1006 
Q 3275 459 2904 184 
Q 2534 -91 1931 -91 
Q 1203 -91 761 389 
Q 319 869 319 1663 
Q 319 2450 753 2931 
Q 1188 3413 1894 3413 
Q 2647 3413 3050 2948 
Q 3453 2484 3469 1600 
z
M 2791 1931 
Q 2772 2513 2545 2808 
Q 2319 3103 1894 3103 
Q 1497 3103 1269 2806 
Q 1041 2509 991 1931 
L 2791 1931 
z
" transform="scale(0.015625)"/>
      <path id="DejaVuSerif-20" transform="scale(0.015625)"/>
      <path id="DejaVuSerif-70" d="M 1313 1825 
L 1313 1497 
Q 1313 897 1542 583 
Q 1772 269 2209 269 
Q 2650 269 2876 622 
Q 3103 975 3103 1663 
Q 3103 2353 2876 2703 
Q 2650 3053 2209 3053 
Q 1772 3053 1542 2737 
Q 1313 2422 1313 1825 
z
M 738 2988 
L 184 2988 
L 184 3322 
L 1313 3322 
L 1313 2803 
Q 1481 3116 1742 3264 
Q 2003 3413 2388 3413 
Q 3000 3413 3387 2928 
Q 3775 2444 3775 1663 
Q 3775 881 3387 395 
Q 3000 -91 2388 -91 
Q 2003 -91 1742 57 
Q 1481 206 1313 519 
L 1313 -997 
L 1856 -997 
L 1856 -1331 
L 184 -1331 
L 184 -997 
L 738 -997 
L 738 2988 
z
" transform="scale(0.015625)"/>
      <path id="DejaVuSerif-6f" d="M 1925 219 
Q 2388 219 2623 584 
Q 2859 950 2859 1663 
Q 2859 2375 2623 2739 
Q 2388 3103 1925 3103 
Q 1463 3103 1227 2739 
Q 991 2375 991 1663 
Q 991 950 1228 584 
Q 1466 219 1925 219 
z
M 1925 -91 
Q 1200 -91 759 389 
Q 319 869 319 1663 
Q 319 2456 758 2934 
Q 1197 3413 1925 3413 
Q 2653 3413 3092 2934 
Q 3531 2456 3531 1663 
Q 3531 869 3092 389 
Q 2653 -91 1925 -91 
z
" transform="scale(0.015625)"/>
      <path id="DejaVuSerif-75" d="M 2266 3322 
L 3341 3322 
L 3341 331 
L 3884 331 
L 3884 0 
L 2766 0 
L 2766 588 
Q 2606 256 2353 82 
Q 2100 -91 1766 -91 
Q 1213 -91 952 223 
Q 691 538 691 1209 
L 691 2988 
L 172 2988 
L 172 3322 
L 1269 3322 
L 1269 1388 
Q 1269 781 1417 556 
Q 1566 331 1947 331 
Q 2347 331 2556 625 
Q 2766 919 2766 1478 
L 2766 2988 
L 2266 2988 
L 2266 3322 
z
" transform="scale(0.015625)"/>
     </defs>
     <use xlink:href="#DejaVuSerif-49"/>
     <use xlink:href="#DejaVuSerif-6e" transform="translate(39.501953 0)"/>
     <use xlink:href="#DejaVuSerif-69" transform="translate(103.90625 0)"/>
     <use xlink:href="#DejaVuSerif-74" transform="translate(135.888672 0)"/>
     <use xlink:href="#DejaVuSerif-69" transform="translate(176.074219 0)"/>
     <use xlink:href="#DejaVuSerif-61" transform="translate(208.056641 0)"/>
     <use xlink:href="#DejaVuSerif-6c" transform="translate(267.675781 0)"/>
     <use xlink:href="#DejaVuSerif-69" transform="translate(299.658203 0)"/>
     <use xlink:href="#DejaVuSerif-73" transform="translate(331.640625 0)"/>
     <use xlink:href="#DejaVuSerif-65" transform="translate(382.958984 0)"/>
     <use xlink:href="#DejaVuSerif-20" transform="translate(442.138672 0)"/>
     <use xlink:href="#DejaVuSerif-70" transform="translate(473.925781 0)"/>
     <use xlink:href="#DejaVuSerif-6f" transform="translate(537.939453 0)"/>
     <use xlink:href="#DejaVuSerif-70" transform="translate(598.144531 0)"/>
     <use xlink:href="#DejaVuSerif-75" transform="translate(662.158203 0)"/>
     <use xlink:href="#DejaVuSerif-6c" transform="translate(726.5625 0)"/>
     <use xlink:href="#DejaVuSerif-61" transform="translate(758.544922 0)"/>
     <use xlink:href="#DejaVuSerif-74" transform="translate(818.164062 0)"/>
     <use xlink:href="#DejaVuSerif-69" transform="translate(858.349609 0)"/>
     <use xlink:href="#DejaVuSerif-6f" transform="translate(890.332031 0)"/>
     <use xlink:href="#DejaVuSerif-6e" transform="translate(950.537109 0)"/>
    </g>
    <!-- (random or LLM warm-start) -->
    <g transform="translate(88.730859 45.892734) scale(0.09 -0.09)">
     <defs>
      <path id="DejaVuSerif-28" d="M 2041 -997 
Q 1281 -656 893 83 
Q 506 822 506 1931 
Q 506 3044 893 3783 
Q 1281 4522 2041 4863 
L 2041 4556 
Q 1559 4225 1350 3623 
Q 1141 3022 1141 1931 
Q 1141 844 1350 242 
Q 1559 -359 2041 -691 
L 2041 -997 
z
" transform="scale(0.015625)"/>
      <path id="DejaVuSerif-72" d="M 3059 3328 
L 3059 2497 
L 2728 2497 
Q 2713 2744 2591 2866 
Q 2469 2988 2234 2988 
Q 1809 2988 1582 2694 
Q 1356 2400 1356 1850 
L 1356 331 
L 2022 331 
L 2022 0 
L 263 0 
L 263 331 
L 781 331 
L 781 2994 
L 231 2994 
L 231 3322 
L 1356 3322 
L 1356 2731 
Q 1525 3078 1790 3245 
Q 2056 3413 2438 3413 
Q 2578 3413 2733 3391 
Q 2888 3369 3059 3328 
z
" transform="scale(0.015625)"/>
      <path id="DejaVuSerif-64" d="M 3359 331 
L 3909 331 
L 3909 0 
L 2784 0 
L 2784 519 
Q 2616 206 2355 57 
Q 2094 -91 1709 -91 
Q 1097 -91 708 395 
Q 319 881 319 1663 
Q 319 2444 706 2928 
Q 1094 3413 1709 3413 
Q 2094 3413 2355 3264 
Q 2616 3116 2784 2803 
L 2784 4531 
L 2241 4531 
L 2241 4863 
L 3359 4863 
L 3359 331 
z
M 2784 1497 
L 2784 1825 
Q 2784 2422 2554 2737 
Q 2325 3053 1888 3053 
Q 1444 3053 1217 2703 
Q 991 2353 991 1663 
Q 991 975 1217 622 
Q 1444 269 1888 269 
Q 2325 269 2554 583 
Q 2784 897 2784 1497 
z
" transform="scale(0.015625)"/>
      <path id="DejaVuSerif-6d" d="M 3316 2675 
Q 3481 3041 3739 3227 
Q 3997 3413 4341 3413 
Q 4863 3413 5119 3089 
Q 5375 2766 5375 2113 
L 5375 331 
L 5894 331 
L 5894 0 
L 4300 0 
L 4300 331 
L 4800 331 
L 4800 2047 
Q 4800 2556 4650 2772 
Q 4500 2988 4153 2988 
Q 3769 2988 3567 2697 
Q 3366 2406 3366 1850 
L 3366 331 
L 3866 331 
L 3866 0 
L 2291 0 
L 2291 331 
L 2791 331 
L 2791 2069 
Q 2791 2566 2641 2777 
Q 2491 2988 2144 2988 
Q 1759 2988 1557 2697 
Q 1356 2406 1356 1850 
L 1356 331 
L 1856 331 
L 1856 0 
L 263 0 
L 263 331 
L 781 331 
L 781 2994 
L 231 2994 
L 231 3322 
L 1356 3322 
L 1356 2731 
Q 1516 3063 1762 3238 
Q 2009 3413 2322 3413 
Q 2709 3413 2968 3220 
Q 3228 3028 3316 2675 
z
" transform="scale(0.015625)"/>
      <path id="DejaVuSerif-4c" d="M 353 0 
L 353 331 
L 947 331 
L 947 4331 
L 353 4331 
L 353 4666 
L 2175 4666 
L 2175 4331 
L 1581 4331 
L 1581 384 
L 3713 384 
L 3713 1166 
L 4097 1166 
L 4097 0 
L 353 0 
z
" transform="scale(0.015625)"/>
      <path id="DejaVuSerif-4d" d="M 353 0 
L 353 331 
L 947 331 
L 947 4331 
L 319 4331 
L 319 4666 
L 1678 4666 
L 3316 1344 
L 4953 4666 
L 6228 4666 
L 6228 4331 
L 5606 4331 
L 5606 331 
L 6203 331 
L 6203 0 
L 4378 0 
L 4378 331 
L 4972 331 
L 4972 3938 
L 3372 684 
L 2931 684 
L 1331 3938 
L 1331 331 
L 1925 331 
L 1925 0 
L 353 0 
z
" transform="scale(0.015625)"/>
      <path id="DejaVuSerif-77" d="M 3072 3322 
L 3922 728 
L 4672 2988 
L 4191 2988 
L 4191 3322 
L 5394 3322 
L 5394 2988 
L 5025 2988 
L 4038 0 
L 3559 0 
L 2741 2484 
L 1919 0 
L 1459 0 
L 475 2988 
L 103 2988 
L 103 3322 
L 1606 3322 
L 1606 2988 
L 1069 2988 
L 1813 728 
L 2669 3322 
L 3072 3322 
z
" transform="scale(0.015625)"/>
      <path id="DejaVuSerif-2d" d="M 281 1959 
L 1881 1959 
L 1881 1472 
L 281 1472 
L 281 1959 
z
" transform="scale(0.015625)"/>
      <path id="DejaVuSerif-29" d="M 453 -997 
L 453 -691 
Q 934 -359 1145 242 
Q 1356 844 1356 1931 
Q 1356 3022 1145 3623 
Q 934 4225 453 4556 
L 453 4863 
Q 1216 4522 1603 3783 
Q 1991 3044 1991 1931 
Q 1991 822 1603 83 
Q 1216 -656 453 -997 
z
" transform="scale(0.015625)"/>
     </defs>
     <use xlink:href="#DejaVuSerif-28"/>
     <use xlink:href="#DejaVuSerif-72" transform="translate(39.013672 0)"/>
     <use xlink:href="#DejaVuSerif-61" transform="translate(86.816406 0)"/>
     <use xlink:href="#DejaVuSerif-6e" transform="translate(146.435547 0)"/>
     <use xlink:href="#DejaVuSerif-64" transform="translate(210.839844 0)"/>
     <use xlink:href="#DejaVuSerif-6f" transform="translate(274.853516 0)"/>
     <use xlink:href="#DejaVuSerif-6d" transform="translate(335.058594 0)"/>
     <use xlink:href="#DejaVuSerif-20" transform="translate(429.882812 0)"/>
     <use xlink:href="#DejaVuSerif-6f" transform="translate(461.669922 0)"/>
     <use xlink:href="#DejaVuSerif-72" transform="translate(521.875 0)"/>
     <use xlink:href="#DejaVuSerif-20" transform="translate(569.677734 0)"/>
     <use xlink:href="#DejaVuSerif-4c" transform="translate(601.464844 0)"/>
     <use xlink:href="#DejaVuSerif-4c" transform="translate(667.871094 0)"/>
     <use xlink:href="#DejaVuSerif-4d" transform="translate(734.277344 0)"/>
     <use xlink:href="#DejaVuSerif-20" transform="translate(836.669922 0)"/>
     <use xlink:href="#DejaVuSerif-77" transform="translate(868.457031 0)"/>
     <use xlink:href="#DejaVuSerif-61" transform="translate(954.052734 0)"/>
     <use xlink:href="#DejaVuSerif-72" transform="translate(1013.671875 0)"/>
     <use xlink:href="#DejaVuSerif-6d" transform="translate(1061.474609 0)"/>
     <use xlink:href="#DejaVuSerif-2d" transform="translate(1156.298828 0)"/>
     <use xlink:href="#DejaVuSerif-73" transform="translate(1190.087891 0)"/>
     <use xlink:href="#DejaVuSerif-74" transform="translate(1241.40625 0)"/>
     <use xlink:href="#DejaVuSerif-61" transform="translate(1281.591797 0)"/>
     <use xlink:href="#DejaVuSerif-72" transform="translate(1341.210938 0)"/>
     <use xlink:href="#DejaVuSerif-74" transform="translate(1389.013672 0)"/>
     <use xlink:href="#DejaVuSerif-29" transform="translate(1429.199219 0)"/>
    </g>
   </g>
   <g id="text_2">
    <!-- Evaluate (FEM or surrogate) -->
    <g transform="translate(88.865859 69.949734) scale(0.09 -0.09)">
     <defs>
      <path id="DejaVuSerif-45" d="M 353 0 
L 353 331 
L 947 331 
L 947 4331 
L 353 4331 
L 353 4666 
L 4109 4666 
L 4109 3628 
L 3725 3628 
L 3725 4281 
L 1581 4281 
L 1581 2719 
L 3109 2719 
L 3109 3303 
L 3494 3303 
L 3494 1753 
L 3109 1753 
L 3109 2338 
L 1581 2338 
L 1581 384 
L 3775 384 
L 3775 1038 
L 4159 1038 
L 4159 0 
L 353 0 
z
" transform="scale(0.015625)"/>
      <path id="DejaVuSerif-76" d="M 1581 0 
L 359 2988 
L -19 2988 
L -19 3322 
L 1509 3322 
L 1509 2988 
L 978 2988 
L 1913 703 
L 2847 2988 
L 2350 2988 
L 2350 3322 
L 3597 3322 
L 3597 2988 
L 3225 2988 
L 2003 0 
L 1581 0 
z
" transform="scale(0.015625)"/>
      <path id="DejaVuSerif-46" d="M 353 0 
L 353 331 
L 947 331 
L 947 4331 
L 353 4331 
L 353 4666 
L 4172 4666 
L 4172 3628 
L 3788 3628 
L 3788 4281 
L 1581 4281 
L 1581 2719 
L 3175 2719 
L 3175 3303 
L 3559 3303 
L 3559 1753 
L 3175 1753 
L 3175 2338 
L 1581 2338 
L 1581 331 
L 2328 331 
L 2328 0 
L 353 0 
z
" transform="scale(0.015625)"/>
      <path id="DejaVuSerif-67" d="M 3359 2988 
L 3359 72 
Q 3359 -644 2965 -1033 
Q 2572 -1422 1844 -1422 
Q 1516 -1422 1216 -1362 
Q 916 -1303 641 -1184 
L 641 -488 
L 941 -488 
Q 997 -813 1206 -963 
Q 1416 -1113 1806 -1113 
Q 2313 -1113 2548 -827 
Q 2784 -541 2784 72 
L 2784 519 
Q 2616 206 2355 57 
Q 2094 -91 1709 -91 
Q 1097 -91 708 395 
Q 319 881 319 1663 
Q 319 2444 706 2928 
Q 1094 3413 1709 3413 
Q 2094 3413 2355 3264 
Q 2616 3116 2784 2803 
L 2784 3322 
L 3909 3322 
L 3909 2988 
L 3359 2988 
z
M 2784 1825 
Q 2784 2422 2554 2737 
Q 2325 3053 1888 3053 
Q 1444 3053 1217 2703 
Q 991 2353 991 1663 
Q 991 975 1217 622 
Q 1444 269 1888 269 
Q 2325 269 2554 583 
Q 2784 897 2784 1497 
L 2784 1825 
z
" transform="scale(0.015625)"/>
     </defs>
     <use xlink:href="#DejaVuSerif-45"/>
     <use xlink:href="#DejaVuSerif-76" transform="translate(72.998047 0)"/>
     <use xlink:href="#DejaVuSerif-61" transform="translate(129.492188 0)"/>
     <use xlink:href="#DejaVuSerif-6c" transform="translate(189.111328 0)"/>
     <use xlink:href="#DejaVuSerif-75" transform="translate(221.09375 0)"/>
     <use xlink:href="#DejaVuSerif-61" transform="translate(285.498047 0)"/>
     <use xlink:href="#DejaVuSerif-74" transform="translate(345.117188 0)"/>
     <use xlink:href="#DejaVuSerif-65" transform="translate(385.302734 0)"/>
     <use xlink:href="#DejaVuSerif-20" transform="translate(444.482422 0)"/>
     <use xlink:href="#DejaVuSerif-28" transform="translate(476.269531 0)"/>
     <use xlink:href="#DejaVuSerif-46" transform="translate(515.283203 0)"/>
     <use xlink:href="#DejaVuSerif-45" transform="translate(584.667969 0)"/>
     <use xlink:href="#DejaVuSerif-4d" transform="translate(657.666016 0)"/>
     <use xlink:href="#DejaVuSerif-20" transform="translate(760.058594 0)"/>
     <use xlink:href="#DejaVuSerif-6f" transform="translate(791.845703 0)"/>
     <use xlink:href="#DejaVuSerif-72" transform="translate(852.050781 0)"/>
     <use xlink:href="#DejaVuSerif-20" transform="translate(899.853516 0)"/>
     <use xlink:href="#DejaVuSerif-73" transform="translate(931.640625 0)"/>
     <use xlink:href="#DejaVuSerif-75" transform="translate(982.958984 0)"/>
     <use xlink:href="#DejaVuSerif-72" transform="translate(1047.363281 0)"/>
     <use xlink:href="#DejaVuSerif-72" transform="translate(1095.166016 0)"/>
     <use xlink:href="#DejaVuSerif-6f" transform="translate(1142.96875 0)"/>
     <use xlink:href="#DejaVuSerif-67" transform="translate(1203.173828 0)"/>
     <use xlink:href="#DejaVuSerif-61" transform="translate(1267.1875 0)"/>
     <use xlink:href="#DejaVuSerif-74" transform="translate(1326.806641 0)"/>
     <use xlink:href="#DejaVuSerif-65" transform="translate(1366.992188 0)"/>
     <use xlink:href="#DejaVuSerif-29" transform="translate(1426.171875 0)"/>
    </g>
   </g>
   <g id="text_3">
    <!-- Rank by weight and feasibility -->
    <g transform="translate(85.544297 99.109734) scale(0.09 -0.09)">
     <defs>
      <path id="DejaVuSerif-52" d="M 3066 2316 
Q 3284 2256 3442 2114 
Q 3600 1972 3725 1716 
L 4403 331 
L 4972 331 
L 4972 0 
L 3872 0 
L 3144 1484 
Q 2934 1916 2759 2042 
Q 2584 2169 2278 2169 
L 1581 2169 
L 1581 331 
L 2241 331 
L 2241 0 
L 353 0 
L 353 331 
L 947 331 
L 947 4331 
L 353 4331 
L 353 4666 
L 2719 4666 
Q 3400 4666 3770 4341 
Q 4141 4016 4141 3419 
Q 4141 2938 3870 2661 
Q 3600 2384 3066 2316 
z
M 1581 2503 
L 2503 2503 
Q 2975 2503 3200 2726 
Q 3425 2950 3425 3419 
Q 3425 3888 3200 4109 
Q 2975 4331 2503 4331 
L 1581 4331 
L 1581 2503 
z
" transform="scale(0.015625)"/>
      <path id="DejaVuSerif-6b" d="M 1831 0 
L 219 0 
L 219 331 
L 738 331 
L 738 4531 
L 184 4531 
L 184 4863 
L 1313 4863 
L 1313 1697 
L 2713 2988 
L 2234 2988 
L 2234 3322 
L 3738 3322 
L 3738 2988 
L 3169 2988 
L 2181 2075 
L 3444 331 
L 3922 331 
L 3922 0 
L 2284 0 
L 2284 331 
L 2759 331 
L 1766 1697 
L 1313 1275 
L 1313 331 
L 1831 331 
L 1831 0 
z
" transform="scale(0.015625)"/>
      <path id="DejaVuSerif-62" d="M 738 331 
L 738 4531 
L 184 4531 
L 184 4863 
L 1313 4863 
L 1313 2803 
Q 1481 3116 1742 3264 
Q 2003 3413 2388 3413 
Q 3000 3413 3387 2928 
Q 3775 2444 3775 1663 
Q 3775 881 3387 395 
Q 3000 -91 2388 -91 
Q 2003 -91 1742 57 
Q 1481 206 1313 519 
L 1313 0 
L 184 0 
L 184 331 
L 738 331 
z
M 1313 1497 
Q 1313 897 1542 583 
Q 1772 269 2209 269 
Q 2650 269 2876 622 
Q 3103 975 3103 1663 
Q 3103 2353 2876 2703 
Q 2650 3053 2209 3053 
Q 1772 3053 1542 2737 
Q 1313 2422 1313 1825 
L 1313 1497 
z
" transform="scale(0.015625)"/>
      <path id="DejaVuSerif-79" d="M 1381 -609 
L 1600 -56 
L 359 2988 
L -19 2988 
L -19 3322 
L 1509 3322 
L 1509 2988 
L 978 2988 
L 1913 703 
L 2847 2988 
L 2350 2988 
L 2350 3322 
L 3597 3322 
L 3597 2988 
L 3225 2988 
L 1703 -750 
Q 1547 -1138 1356 -1280 
Q 1166 -1422 819 -1422 
Q 672 -1422 517 -1397 
Q 363 -1372 206 -1325 
L 206 -691 
L 500 -691 
Q 519 -903 608 -995 
Q 697 -1088 884 -1088 
Q 1056 -1088 1161 -992 
Q 1266 -897 1381 -609 
z
" transform="scale(0.015625)"/>
      <path id="DejaVuSerif-68" d="M 263 0 
L 263 331 
L 781 331 
L 781 4531 
L 231 4531 
L 231 4863 
L 1356 4863 
L 1356 2731 
Q 1516 3069 1770 3241 
Q 2025 3413 2363 3413 
Q 2913 3413 3172 3097 
Q 3431 2781 3431 2113 
L 3431 331 
L 3944 331 
L 3944 0 
L 2356 0 
L 2356 331 
L 2853 331 
L 2853 1931 
Q 2853 2541 2704 2764 
Q 2556 2988 2175 2988 
Q 1775 2988 1565 2697 
Q 1356 2406 1356 1850 
L 1356 331 
L 1856 331 
L 1856 0 
L 263 0 
z
" transform="scale(0.015625)"/>
      <path id="DejaVuSerif-66" d="M 2753 4078 
L 2450 4078 
Q 2447 4313 2317 4434 
Q 2188 4556 1941 4556 
Q 1619 4556 1487 4379 
Q 1356 4203 1356 3750 
L 1356 3322 
L 2284 3322 
L 2284 2988 
L 1356 2988 
L 1356 331 
L 2094 331 
L 2094 0 
L 231 0 
L 231 331 
L 781 331 
L 781 2988 
L 231 2988 
L 231 3322 
L 781 3322 
L 781 3738 
Q 781 4294 1070 4578 
Q 1359 4863 1919 4863 
Q 2128 4863 2337 4825 
Q 2547 4788 2753 4709 
L 2753 4078 
z
" transform="scale(0.015625)"/>
     </defs>
     <use xlink:href="#DejaVuSerif-52"/>
     <use xlink:href="#DejaVuSerif-61" transform="translate(77.542969 0)"/>
     <use xlink:href="#DejaVuSerif-6e" transform="translate(137.162109 0)"/>
     <use xlink:href="#DejaVuSerif-6b" transform="translate(201.566406 0)"/>
     <use xlink:href="#DejaVuSerif-20" transform="translate(262.162109 0)"/>
     <use xlink:href="#DejaVuSerif-62" transform="translate(293.949219 0)"/>
     <use xlink:href="#DejaVuSerif-79" transform="translate(357.962891 0)"/>
     <use xlink:href="#DejaVuSerif-20" transform="translate(414.457031 0)"/>
     <use xlink:href="#DejaVuSerif-77" transform="translate(446.244141 0)"/>
     <use xlink:href="#DejaVuSerif-65" transform="translate(531.839844 0)"/>
     <use xlink:href="#DejaVuSerif-69" transform="translate(591.019531 0)"/>
     <use xlink:href="#DejaVuSerif-67" transform="translate(623.001953 0)"/>
     <use xlink:href="#DejaVuSerif-68" transform="translate(687.015625 0)"/>
     <use xlink:href="#DejaVuSerif-74" transform="translate(751.419922 0)"/>
     <use xlink:href="#DejaVuSerif-20" transform="translate(791.605469 0)"/>
     <use xlink:href="#DejaVuSerif-61" transform="translate(823.392578 0)"/>
     <use xlink:href="#DejaVuSerif-6e" transform="translate(883.011719 0)"/>
     <use xlink:href="#DejaVuSerif-64" transform="translate(947.416016 0)"/>
     <use xlink:href="#DejaVuSerif-20" transform="translate(1011.429688 0)"/>
     <use xlink:href="#DejaVuSerif-66" transform="translate(1043.216797 0)"/>
     <use xlink:href="#DejaVuSerif-65" transform="translate(1080.228516 0)"/>
     <use xlink:href="#DejaVuSerif-61" transform="translate(1139.408203 0)"/>
     <use xlink:href="#DejaVuSerif-73" transform="translate(1199.027344 0)"/>
     <use xlink:href="#DejaVuSerif-69" transform="translate(1250.345703 0)"/>
     <use xlink:href="#DejaVuSerif-62" transform="translate(1282.328125 0)"/>
     <use xlink:href="#DejaVuSerif-69" transform="translate(1346.341797 0)"/>
     <use xlink:href="#DejaVuSerif-6c" transform="translate(1378.324219 0)"/>
     <use xlink:href="#DejaVuSerif-69" transform="translate(1410.306641 0)"/>
     <use xlink:href="#DejaVuSerif-74" transform="translate(1442.289062 0)"/>
     <use xlink:href="#DejaVuSerif-79" transform="translate(1482.474609 0)"/>
    </g>
   </g>
   <g id="text_4">
    <!-- Tournament selection (size 2) -->
    <g transform="translate(87.271875 128.333719) scale(0.09 -0.09)">
     <defs>
      <path id="DejaVuSerif-54" d="M 1222 0 
L 1222 331 
L 1819 331 
L 1819 4294 
L 447 4294 
L 447 3566 
L 63 3566 
L 63 4666 
L 4206 4666 
L 4206 3566 
L 3822 3566 
L 3822 4294 
L 2450 4294 
L 2450 331 
L 3047 331 
L 3047 0 
L 1222 0 
z
" transform="scale(0.015625)"/>
      <path id="DejaVuSerif-63" d="M 3291 997 
Q 3169 466 2822 187 
Q 2475 -91 1925 -91 
Q 1200 -91 759 389 
Q 319 869 319 1663 
Q 319 2459 759 2936 
Q 1200 3413 1925 3413 
Q 2241 3413 2553 3339 
Q 2866 3266 3181 3116 
L 3181 2266 
L 2847 2266 
Q 2781 2703 2561 2903 
Q 2341 3103 1931 3103 
Q 1466 3103 1228 2742 
Q 991 2381 991 1663 
Q 991 944 1227 581 
Q 1463 219 1931 219 
Q 2303 219 2525 412 
Q 2747 606 2828 997 
L 3291 997 
z
" transform="scale(0.015625)"/>
      <path id="DejaVuSerif-7a" d="M 256 0 
L 256 269 
L 2338 2988 
L 691 2988 
L 691 2413 
L 359 2413 
L 359 3322 
L 3078 3322 
L 3078 3053 
L 997 331 
L 2803 331 
L 2803 934 
L 3138 934 
L 3138 0 
L 256 0 
z
" transform="scale(0.015625)"/>
      <path id="DejaVuSerif-32" d="M 819 3553 
L 469 3553 
L 469 4384 
Q 803 4563 1142 4656 
Q 1481 4750 1806 4750 
Q 2534 4750 2956 4397 
Q 3378 4044 3378 3438 
Q 3378 2753 2422 1800 
Q 2347 1728 2309 1691 
L 1131 513 
L 3078 513 
L 3078 1088 
L 3444 1088 
L 3444 0 
L 434 0 
L 434 341 
L 1850 1753 
Q 2319 2222 2519 2614 
Q 2719 3006 2719 3438 
Q 2719 3909 2473 4175 
Q 2228 4441 1797 4441 
Q 1350 4441 1106 4219 
Q 863 3997 819 3553 
z
" transform="scale(0.015625)"/>
     </defs>
     <use xlink:href="#DejaVuSerif-54"/>
     <use xlink:href="#DejaVuSerif-6f" transform="translate(58.949219 0)"/>
     <use xlink:href="#DejaVuSerif-75" transform="translate(119.154297 0)"/>
     <use xlink:href="#DejaVuSerif-72" transform="translate(183.558594 0)"/>
     <use xlink:href="#DejaVuSerif-6e" transform="translate(231.361328 0)"/>
     <use xlink:href="#DejaVuSerif-61" transform="translate(295.765625 0)"/>
     <use xlink:href="#DejaVuSerif-6d" transform="translate(355.384766 0)"/>
     <use xlink:href="#DejaVuSerif-65" transform="translate(450.208984 0)"/>
     <use xlink:href="#DejaVuSerif-6e" transform="translate(509.388672 0)"/>
     <use xlink:href="#DejaVuSerif-74" transform="translate(573.792969 0)"/>
     <use xlink:href="#DejaVuSerif-20" transform="translate(613.978516 0)"/>
     <use xlink:href="#DejaVuSerif-73" transform="translate(645.765625 0)"/>
     <use xlink:href="#DejaVuSerif-65" transform="translate(697.083984 0)"/>
     <use xlink:href="#DejaVuSerif-6c" transform="translate(756.263672 0)"/>
     <use xlink:href="#DejaVuSerif-65" transform="translate(788.246094 0)"/>
     <use xlink:href="#DejaVuSerif-63" transform="translate(847.425781 0)"/>
     <use xlink:href="#DejaVuSerif-74" transform="translate(903.431641 0)"/>
     <use xlink:href="#DejaVuSerif-69" transform="translate(943.617188 0)"/>
     <use xlink:href="#DejaVuSerif-6f" transform="translate(975.599609 0)"/>
     <use xlink:href="#DejaVuSerif-6e" transform="translate(1035.804688 0)"/>
     <use xlink:href="#DejaVuSerif-20" transform="translate(1100.208984 0)"/>
     <use xlink:href="#DejaVuSerif-28" transform="translate(1131.996094 0)"/>
     <use xlink:href="#DejaVuSerif-73" transform="translate(1171.009766 0)"/>
     <use xlink:href="#DejaVuSerif-69" transform="translate(1222.328125 0)"/>
     <use xlink:href="#DejaVuSerif-7a" transform="translate(1254.310547 0)"/>
     <use xlink:href="#DejaVuSerif-65" transform="translate(1306.996094 0)"/>
     <use xlink:href="#DejaVuSerif-20" transform="translate(1366.175781 0)"/>
     <use xlink:href="#DejaVuSerif-32" transform="translate(1397.962891 0)"/>
     <use xlink:href="#DejaVuSerif-29" transform="translate(1461.585938 0)"/>
    </g>
   </g>
   <g id="text_5">
    <!-- SBX crossover + polynomial mutation -->
    <g transform="translate(68.131406 157.429734) scale(0.09 -0.09)">
     <defs>
      <path id="DejaVuSerif-53" d="M 594 225 
L 594 1288 
L 953 1284 
Q 969 753 1261 498 
Q 1553 244 2150 244 
Q 2706 244 2998 464 
Q 3291 684 3291 1106 
Q 3291 1444 3114 1625 
Q 2938 1806 2369 1978 
L 1753 2163 
Q 1084 2366 811 2669 
Q 538 2972 538 3500 
Q 538 4094 959 4422 
Q 1381 4750 2144 4750 
Q 2469 4750 2856 4679 
Q 3244 4609 3681 4475 
L 3681 3481 
L 3328 3481 
Q 3275 3975 2998 4195 
Q 2722 4416 2156 4416 
Q 1663 4416 1405 4214 
Q 1147 4013 1147 3628 
Q 1147 3294 1340 3103 
Q 1534 2913 2163 2725 
L 2741 2553 
Q 3375 2363 3645 2067 
Q 3916 1772 3916 1275 
Q 3916 597 3481 253 
Q 3047 -91 2188 -91 
Q 1803 -91 1404 -12 
Q 1006 66 594 225 
z
" transform="scale(0.015625)"/>
      <path id="DejaVuSerif-42" d="M 1581 331 
L 2516 331 
Q 3078 331 3337 575 
Q 3597 819 3597 1350 
Q 3597 1878 3339 2120 
Q 3081 2363 2516 2363 
L 1581 2363 
L 1581 331 
z
M 1581 2694 
L 2375 2694 
Q 2888 2694 3123 2891 
Q 3359 3088 3359 3513 
Q 3359 3941 3123 4136 
Q 2888 4331 2375 4331 
L 1581 4331 
L 1581 2694 
z
M 353 0 
L 353 331 
L 947 331 
L 947 4331 
L 353 4331 
L 353 4666 
L 2656 4666 
Q 3363 4666 3720 4377 
Q 4078 4088 4078 3513 
Q 4078 3097 3829 2850 
Q 3581 2603 3103 2547 
Q 3697 2472 4005 2167 
Q 4313 1863 4313 1350 
Q 4313 656 3875 328 
Q 3438 0 2509 0 
L 353 0 
z
" transform="scale(0.015625)"/>
      <path id="DejaVuSerif-58" d="M 2119 1997 
L 978 331 
L 1581 331 
L 1581 0 
L 38 0 
L 38 331 
L 575 331 
L 1919 2291 
L 556 4331 
L 56 4331 
L 56 4666 
L 1906 4666 
L 1906 4331 
L 1356 4331 
L 2356 2828 
L 3384 4331 
L 2784 4331 
L 2784 4666 
L 4313 4666 
L 4313 4331 
L 3788 4331 
L 2553 2534 
L 4025 331 
L 4525 331 
L 4525 0 
L 2675 0 
L 2675 331 
L 3231 331 
L 2119 1997 
z
" transform="scale(0.015625)"/>
      <path id="DejaVuSerif-2b" d="M 2931 4013 
L 2931 2259 
L 4684 2259 
L 4684 1753 
L 2931 1753 
L 2931 0 
L 2431 0 
L 2431 1753 
L 678 1753 
L 678 2259 
L 2431 2259 
L 2431 4013 
L 2931 4013 
z
" transform="scale(0.015625)"/>
     </defs>
     <use xlink:href="#DejaVuSerif-53"/>
     <use xlink:href="#DejaVuSerif-42" transform="translate(68.505859 0)"/>
     <use xlink:href="#DejaVuSerif-58" transform="translate(141.992188 0)"/>
     <use xlink:href="#DejaVuSerif-20" transform="translate(213.183594 0)"/>
     <use xlink:href="#DejaVuSerif-63" transform="translate(244.970703 0)"/>
     <use xlink:href="#DejaVuSerif-72" transform="translate(300.976562 0)"/>
     <use xlink:href="#DejaVuSerif-6f" transform="translate(348.779297 0)"/>
     <use xlink:href="#DejaVuSerif-73" transform="translate(408.984375 0)"/>
     <use xlink:href="#DejaVuSerif-73" transform="translate(460.302734 0)"/>
     <use xlink:href="#DejaVuSerif-6f" transform="translate(511.621094 0)"/>
     <use xlink:href="#DejaVuSerif-76" transform="translate(571.826172 0)"/>
     <use xlink:href="#DejaVuSerif-65" transform="translate(628.320312 0)"/>
     <use xlink:href="#DejaVuSerif-72" transform="translate(687.5 0)"/>
     <use xlink:href="#DejaVuSerif-20" transform="translate(735.302734 0)"/>
     <use xlink:href="#DejaVuSerif-2b" transform="translate(767.089844 0)"/>
     <use xlink:href="#DejaVuSerif-20" transform="translate(850.878906 0)"/>
     <use xlink:href="#DejaVuSerif-70" transform="translate(882.666016 0)"/>
     <use xlink:href="#DejaVuSerif-6f" transform="translate(946.679688 0)"/>
     <use xlink:href="#DejaVuSerif-6c" transform="translate(1006.884766 0)"/>
     <use xlink:href="#DejaVuSerif-79" transform="translate(1038.867188 0)"/>
     <use xlink:href="#DejaVuSerif-6e" transform="translate(1095.361328 0)"/>
     <use xlink:href="#DejaVuSerif-6f" transform="translate(1159.765625 0)"/>
     <use xlink:href="#DejaVuSerif-6d" transform="translate(1219.970703 0)"/>
     <use xlink:href="#DejaVuSerif-69" transform="translate(1314.794922 0)"/>
     <use xlink:href="#DejaVuSerif-61" transform="translate(1346.777344 0)"/>
     <use xlink:href="#DejaVuSerif-6c" transform="translate(1406.396484 0)"/>
     <use xlink:href="#DejaVuSerif-20" transform="translate(1438.378906 0)"/>
     <use xlink:href="#DejaVuSerif-6d" transform="translate(1470.166016 0)"/>
     <use xlink:href="#DejaVuSerif-75" transform="translate(1564.990234 0)"/>
     <use xlink:href="#DejaVuSerif-74" transform="translate(1629.394531 0)"/>
     <use xlink:href="#DejaVuSerif-61" transform="translate(1669.580078 0)"/>
     <use xlink:href="#DejaVuSerif-74" transform="translate(1729.199219 0)"/>
     <use xlink:href="#DejaVuSerif-69" transform="translate(1769.384766 0)"/>
     <use xlink:href="#DejaVuSerif-6f" transform="translate(1801.367188 0)"/>
     <use xlink:href="#DejaVuSerif-6e" transform="translate(1861.572266 0)"/>
    </g>
   </g>
   <g id="text_6">
    <!-- Termination: $\mathrm{gen} &lt; 500$? -->
    <g transform="translate(98.865 186.635437) scale(0.09 -0.09)">
     <defs>
      <path id="DejaVuSerif-3a" d="M 666 325 
Q 666 500 786 622 
Q 906 744 1081 744 
Q 1256 744 1376 622 
Q 1497 500 1497 325 
Q 1497 150 1378 29 
Q 1259 -91 1081 -91 
Q 903 -91 784 29 
Q 666 150 666 325 
z
M 666 2363 
Q 666 2538 786 2658 
Q 906 2778 1081 2778 
Q 1259 2778 1378 2659 
Q 1497 2541 1497 2363 
Q 1497 2184 1378 2065 
Q 1259 1947 1081 1947 
Q 906 1947 786 2067 
Q 666 2188 666 2363 
z
" transform="scale(0.015625)"/>
      <path id="DejaVuSans-67" d="M 2906 1791 
Q 2906 2416 2648 2759 
Q 2391 3103 1925 3103 
Q 1463 3103 1205 2759 
Q 947 2416 947 1791 
Q 947 1169 1205 825 
Q 1463 481 1925 481 
Q 2391 481 2648 825 
Q 2906 1169 2906 1791 
z
M 3481 434 
Q 3481 -459 3084 -895 
Q 2688 -1331 1869 -1331 
Q 1566 -1331 1297 -1286 
Q 1028 -1241 775 -1147 
L 775 -588 
Q 1028 -725 1275 -790 
Q 1522 -856 1778 -856 
Q 2344 -856 2625 -561 
Q 2906 -266 2906 331 
L 2906 616 
Q 2728 306 2450 153 
Q 2172 0 1784 0 
Q 1141 0 747 490 
Q 353 981 353 1791 
Q 353 2603 747 3093 
Q 1141 3584 1784 3584 
Q 2172 3584 2450 3431 
Q 2728 3278 2906 2969 
L 2906 3500 
L 3481 3500 
L 3481 434 
z
" transform="scale(0.015625)"/>
      <path id="DejaVuSans-65" d="M 3597 1894 
L 3597 1613 
L 953 1613 
Q 991 1019 1311 708 
Q 1631 397 2203 397 
Q 2534 397 2845 478 
Q 3156 559 3463 722 
L 3463 178 
Q 3153 47 2828 -22 
Q 2503 -91 2169 -91 
Q 1331 -91 842 396 
Q 353 884 353 1716 
Q 353 2575 817 3079 
Q 1281 3584 2069 3584 
Q 2775 3584 3186 3129 
Q 3597 2675 3597 1894 
z
M 3022 2063 
Q 3016 2534 2758 2815 
Q 2500 3097 2075 3097 
Q 1594 3097 1305 2825 
Q 1016 2553 972 2059 
L 3022 2063 
z
" transform="scale(0.015625)"/>
      <path id="DejaVuSans-6e" d="M 3513 2113 
L 3513 0 
L 2938 0 
L 2938 2094 
Q 2938 2591 2744 2837 
Q 2550 3084 2163 3084 
Q 1697 3084 1428 2787 
Q 1159 2491 1159 1978 
L 1159 0 
L 581 0 
L 581 3500 
L 1159 3500 
L 1159 2956 
Q 1366 3272 1645 3428 
Q 1925 3584 2291 3584 
Q 2894 3584 3203 3211 
Q 3513 2838 3513 2113 
z
" transform="scale(0.015625)"/>
      <path id="DejaVuSans-3c" d="M 4684 3150 
L 1459 2003 
L 4684 863 
L 4684 294 
L 678 1747 
L 678 2266 
L 4684 3719 
L 4684 3150 
z
" transform="scale(0.015625)"/>
      <path id="DejaVuSans-35" d="M 691 4666 
L 3169 4666 
L 3169 4134 
L 1269 4134 
L 1269 2991 
Q 1406 3038 1543 3061 
Q 1681 3084 1819 3084 
Q 2600 3084 3056 2656 
Q 3513 2228 3513 1497 
Q 3513 744 3044 326 
Q 2575 -91 1722 -91 
Q 1428 -91 1123 -41 
Q 819 9 494 109 
L 494 744 
Q 775 591 1075 516 
Q 1375 441 1709 441 
Q 2250 441 2565 725 
Q 2881 1009 2881 1497 
Q 2881 1984 2565 2268 
Q 2250 2553 1709 2553 
Q 1456 2553 1204 2497 
Q 953 2441 691 2322 
L 691 4666 
z
" transform="scale(0.015625)"/>
      <path id="DejaVuSans-30" d="M 2034 4250 
Q 1547 4250 1301 3770 
Q 1056 3291 1056 2328 
Q 1056 1369 1301 889 
Q 1547 409 2034 409 
Q 2525 409 2770 889 
Q 3016 1369 3016 2328 
Q 3016 3291 2770 3770 
Q 2525 4250 2034 4250 
z
M 2034 4750 
Q 2819 4750 3233 4129 
Q 3647 3509 3647 2328 
Q 3647 1150 3233 529 
Q 2819 -91 2034 -91 
Q 1250 -91 836 529 
Q 422 1150 422 2328 
Q 422 3509 836 4129 
Q 1250 4750 2034 4750 
z
" transform="scale(0.015625)"/>
      <path id="DejaVuSerif-3f" d="M 1125 325 
Q 1125 500 1245 622 
Q 1366 744 1544 744 
Q 1716 744 1837 622 
Q 1959 500 1959 325 
Q 1959 153 1837 31 
Q 1716 -91 1544 -91 
Q 1366 -91 1245 29 
Q 1125 150 1125 325 
z
M 434 4459 
Q 766 4606 1064 4678 
Q 1363 4750 1625 4750 
Q 2319 4750 2720 4415 
Q 3122 4081 3122 3513 
Q 3122 2931 2776 2562 
Q 2431 2194 1734 2034 
L 1734 1241 
L 1350 1241 
L 1350 2266 
Q 1903 2400 2183 2715 
Q 2463 3031 2463 3519 
Q 2463 3947 2234 4194 
Q 2006 4441 1613 4441 
Q 1256 4441 1029 4236 
Q 803 4031 738 3647 
L 434 3647 
L 434 4459 
z
" transform="scale(0.015625)"/>
     </defs>
     <use xlink:href="#DejaVuSerif-54" transform="translate(0 0.78125)"/>
     <use xlink:href="#DejaVuSerif-65" transform="translate(66.699219 0.78125)"/>
     <use xlink:href="#DejaVuSerif-72" transform="translate(125.878906 0.78125)"/>
     <use xlink:href="#DejaVuSerif-6d" transform="translate(173.681641 0.78125)"/>
     <use xlink:href="#DejaVuSerif-69" transform="translate(268.505859 0.78125)"/>
     <use xlink:href="#DejaVuSerif-6e" transform="translate(300.488281 0.78125)"/>
     <use xlink:href="#DejaVuSerif-61" transform="translate(364.892578 0.78125)"/>
     <use xlink:href="#DejaVuSerif-74" transform="translate(424.511719 0.78125)"/>
     <use xlink:href="#DejaVuSerif-69" transform="translate(464.697266 0.78125)"/>
     <use xlink:href="#DejaVuSerif-6f" transform="translate(496.679688 0.78125)"/>
     <use xlink:href="#DejaVuSerif-6e" transform="translate(556.884766 0.78125)"/>
     <use xlink:href="#DejaVuSerif-3a" transform="translate(621.289062 0.78125)"/>
     <use xlink:href="#DejaVuSerif-20" transform="translate(654.980469 0.78125)"/>
     <use xlink:href="#DejaVuSans-67" transform="translate(686.767578 0.78125)"/>
     <use xlink:href="#DejaVuSans-65" transform="translate(750.244141 0.78125)"/>
     <use xlink:href="#DejaVuSans-6e" transform="translate(811.767578 0.78125)"/>
     <use xlink:href="#DejaVuSans-3c" transform="translate(894.628906 0.78125)"/>
     <use xlink:href="#DejaVuSans-35" transform="translate(997.900391 0.78125)"/>
     <use xlink:href="#DejaVuSans-30" transform="translate(1061.523438 0.78125)"/>
     <use xlink:href="#DejaVuSans-30" transform="translate(1125.146484 0.78125)"/>
     <use xlink:href="#DejaVuSerif-3f" transform="translate(1188.769531 0.78125)"/>
    </g>
   </g>
   <g id="text_7">
    <!-- loop -->
    <g style="fill: #1f77b4" transform="translate(266.688 126.822281) scale(0.08 -0.08)">
     <use xlink:href="#DejaVuSerif-6c"/>
     <use xlink:href="#DejaVuSerif-6f" transform="translate(31.982422 0)"/>
     <use xlink:href="#DejaVuSerif-6f" transform="translate(92.1875 0)"/>
     <use xlink:href="#DejaVuSerif-70" transform="translate(152.392578 0)"/>
    </g>
   </g>
   <g id="text_8">
    <!-- stop -->
    <g transform="translate(73.152 185.142281) scale(0.08 -0.08)">
     <use xlink:href="#DejaVuSerif-73"/>
     <use xlink:href="#DejaVuSerif-74" transform="translate(51.318359 0)"/>
     <use xlink:href="#DejaVuSerif-6f" transform="translate(91.503906 0)"/>
     <use xlink:href="#DejaVuSerif-70" transform="translate(151.708984 0)"/>
    </g>
   </g>
   <g id="text_9">
    <!-- Genetic algorithm control flow -->
    <g transform="translate(69.176172 11.958281) scale(0.11 -0.11)">
     <defs>
      <path id="DejaVuSerif-47" d="M 4097 3272 
Q 3988 3856 3641 4136 
Q 3294 4416 2675 4416 
Q 1869 4416 1472 3897 
Q 1075 3378 1075 2328 
Q 1075 1300 1484 772 
Q 1894 244 2688 244 
Q 3041 244 3362 331 
Q 3684 419 3975 594 
L 3975 1797 
L 3097 1797 
L 3097 2131 
L 4609 2131 
L 4609 391 
Q 4194 150 3714 29 
Q 3234 -91 2688 -91 
Q 1631 -91 995 570 
Q 359 1231 359 2328 
Q 359 3434 996 4092 
Q 1634 4750 2713 4750 
Q 3113 4750 3539 4658 
Q 3966 4566 4447 4378 
L 4447 3272 
L 4097 3272 
z
" transform="scale(0.015625)"/>
     </defs>
     <use xlink:href="#DejaVuSerif-47"/>
     <use xlink:href="#DejaVuSerif-65" transform="translate(79.882812 0)"/>
     <use xlink:href="#DejaVuSerif-6e" transform="translate(139.0625 0)"/>
     <use xlink:href="#DejaVuSerif-65" transform="translate(203.466797 0)"/>
     <use xlink:href="#DejaVuSerif-74" transform="translate(262.646484 0)"/>
     <use xlink:href="#DejaVuSerif-69" transform="translate(302.832031 0)"/>
     <use xlink:href="#DejaVuSerif-63" transform="translate(334.814453 0)"/>
     <use xlink:href="#DejaVuSerif-20" transform="translate(390.820312 0)"/>
     <use xlink:href="#DejaVuSerif-61" transform="translate(422.607422 0)"/>
     <use xlink:href="#DejaVuSerif-6c" transform="translate(482.226562 0)"/>
     <use xlink:href="#DejaVuSerif-67" transform="translate(514.208984 0)"/>
     <use xlink:href="#DejaVuSerif-6f" transform="translate(578.222656 0)"/>
     <use xlink:href="#DejaVuSerif-72" transform="translate(638.427734 0)"/>
     <use xlink:href="#DejaVuSerif-69" transform="translate(686.230469 0)"/>
     <use xlink:href="#DejaVuSerif-74" transform="translate(718.212891 0)"/>
     <use xlink:href="#DejaVuSerif-68" transform="translate(758.398438 0)"/>
     <use xlink:href="#DejaVuSerif-6d" transform="translate(822.802734 0)"/>
     <use xlink:href="#DejaVuSerif-20" transform="translate(917.626953 0)"/>
     <use xlink:href="#DejaVuSerif-63" transform="translate(949.414062 0)"/>
     <use xlink:href="#DejaVuSerif-6f" transform="translate(1005.419922 0)"/>
     <use xlink:href="#DejaVuSerif-6e" transform="translate(1065.625 0)"/>
     <use xlink:href="#DejaVuSerif-74" transform="translate(1130.029297 0)"/>
     <use xlink:href="#DejaVuSerif-72" transform="translate(1170.214844 0)"/>
     <use xlink:href="#DejaVuSerif-6f" transform="translate(1218.017578 0)"/>
     <use xlink:href="#DejaVuSerif-6c" transform="translate(1278.222656 0)"/>
     <use xlink:href="#DejaVuSerif-20" transform="translate(1310.205078 0)"/>
     <use xlink:href="#DejaVuSerif-66" transform="translate(1341.992188 0)"/>
     <use xlink:href="#DejaVuSerif-6c" transform="translate(1379.003906 0)"/>
     <use xlink:href="#DejaVuSerif-6f" transform="translate(1410.986328 0)"/>
     <use xlink:href="#DejaVuSerif-77" transform="translate(1471.191406 0)"/>
    </g>
   </g>
  </g>
 </g>
 <defs>
  <clipPath id="pb2cef03f04">
   <rect x="3.6" y="17.958281" width="302.4" height="194.4"/>
  </clipPath>
 </defs>
</svg>
